<svg width="132" height="24" viewBox="0 0 132 24" fill="none" xmlns="http://www.w3.org/2000/svg">
<path d="M11.53 3.93995C11.832 3.28695 12.318 3.28695 12.62 3.93995L14.55 8.10595L18.902 8.73395C19.601 8.83395 19.759 9.32595 19.256 9.83595L16.078 13.0349L16.858 17.5929C16.978 18.3079 16.573 18.5999 15.955 18.2559L12.075 16.0809L8.19497 18.2559C7.57697 18.5999 7.17297 18.3079 7.29197 17.5929L8.07197 13.0349L4.89397 9.83595C4.39097 9.32595 4.54897 8.83395 5.24697 8.73395L9.59997 8.10595L11.53 3.93995V3.93995Z" fill="white"/>
<path d="M18.74 1H4.41C1.97442 1 0 2.97442 0 5.41V18.638C0 21.0736 1.97442 23.048 4.41 23.048H18.74C21.1756 23.048 23.15 21.0736 23.15 18.638V5.41C23.15 2.97442 21.1756 1 18.74 1Z" fill="#17CA80"/>
<path d="M11.053 4.77689C11.343 4.14989 11.808 4.14989 12.098 4.77689L13.947 8.77089L18.12 9.37189C18.79 9.46789 18.94 9.93989 18.459 10.4289L15.413 13.4949L16.16 17.8649C16.274 18.5499 15.886 18.8299 15.295 18.4999L11.575 16.4149L7.85504 18.4999C7.26404 18.8299 6.87504 18.5499 6.99004 17.8649L7.73704 13.4949L4.69104 10.4289C4.21004 9.93989 4.36104 9.46889 5.03104 9.37189L9.20304 8.77089L11.053 4.77689V4.77689Z" fill="white"/>
<path d="M45.74 1H31.41C28.9744 1 27 2.97442 27 5.41V18.638C27 21.0736 28.9744 23.048 31.41 23.048H45.74C48.1756 23.048 50.15 21.0736 50.15 18.638V5.41C50.15 2.97442 48.1756 1 45.74 1Z" fill="#17CA80"/>
<path d="M38.053 4.77689C38.343 4.14989 38.808 4.14989 39.098 4.77689L40.947 8.77089L45.12 9.37189C45.79 9.46789 45.94 9.93989 45.459 10.4289L42.413 13.4949L43.16 17.8649C43.274 18.5499 42.886 18.8299 42.295 18.4999L38.575 16.4149L34.855 18.4999C34.264 18.8299 33.875 18.5499 33.99 17.8649L34.737 13.4949L31.691 10.4289C31.209 9.93989 31.361 9.46889 32.031 9.37189L36.203 8.77089L38.053 4.77689V4.77689Z" fill="white"/>
<path d="M72.74 1H58.41C55.9744 1 54 2.97442 54 5.41V18.638C54 21.0736 55.9744 23.048 58.41 23.048H72.74C75.1756 23.048 77.15 21.0736 77.15 18.638V5.41C77.15 2.97442 75.1756 1 72.74 1Z" fill="#17CA80"/>
<path d="M65.052 4.77689C65.342 4.14989 65.808 4.14989 66.098 4.77689L67.947 8.77089L72.12 9.37189C72.79 9.46789 72.94 9.93989 72.459 10.4289L69.413 13.4949L70.16 17.8649C70.274 18.5499 69.886 18.8299 69.295 18.4999L65.575 16.4149L61.855 18.4999C61.264 18.8299 60.875 18.5499 60.99 17.8649L61.737 13.4949L58.691 10.4289C58.209 9.93989 58.361 9.46889 59.031 9.37189L63.203 8.77089L65.053 4.77689H65.052Z" fill="white"/>
<path d="M99.74 1H85.41C82.9744 1 81 2.97442 81 5.41V18.638C81 21.0736 82.9744 23.048 85.41 23.048H99.74C102.176 23.048 104.15 21.0736 104.15 18.638V5.41C104.15 2.97442 102.176 1 99.74 1Z" fill="#17CA80"/>
<path d="M92.052 4.77689C92.342 4.14989 92.808 4.14989 93.098 4.77689L94.947 8.77089L99.12 9.37189C99.79 9.46789 99.94 9.93989 99.459 10.4289L96.413 13.4949L97.16 17.8649C97.274 18.5499 96.886 18.8299 96.295 18.4999L92.575 16.4149L88.855 18.4999C88.264 18.8299 87.875 18.5499 87.99 17.8649L88.737 13.4949L85.691 10.4289C85.21 9.93989 85.361 9.46889 86.031 9.37189L90.203 8.77089L92.053 4.77689H92.052Z" fill="white"/>
<path d="M126.74 1H112.41C109.974 1 108 2.97442 108 5.41V18.638C108 21.0736 109.974 23.048 112.41 23.048H126.74C129.176 23.048 131.15 21.0736 131.15 18.638V5.41C131.15 2.97442 129.176 1 126.74 1Z" fill="#17CA80"/>
<path fill-rule="evenodd" clip-rule="evenodd" d="M119.58 23.048H126.74C129.176 23.048 131.15 21.0736 131.15 18.638V5.41C131.15 2.97442 129.176 1 126.74 1H119.58V23.048Z" fill="#DCDCE6"/>
<path d="M119.053 4.77689C119.342 4.14989 119.808 4.14989 120.098 4.77689L121.947 8.77089L126.12 9.37189C126.789 9.46789 126.941 9.93989 126.459 10.4289L123.413 13.4949L124.16 17.8649C124.274 18.5499 123.886 18.8299 123.295 18.4999L119.575 16.4149L115.856 18.4999C115.264 18.8299 114.876 18.5499 114.99 17.8649L115.737 13.4949L112.691 10.4289C112.209 9.93989 112.361 9.46889 113.03 9.37189L117.203 8.77089L119.053 4.77689V4.77689Z" fill="white"/>
</svg>
