<svg width="30" height="30" viewBox="0 0 30 30" fill="none" xmlns="http://www.w3.org/2000/svg">
<g clip-path="url(#clip0_604_80)">
<path d="M21.9807 9.0419C22.2427 9.0419 22.5048 8.94198 22.7046 8.74215L25.2349 6.21199C25.6347 5.81219 25.6347 5.16395 25.2349 4.76428C24.8351 4.36434 24.1868 4.36447 23.7872 4.76414L21.2569 7.2943C20.8571 7.6941 20.8571 8.34234 21.2569 8.74201C21.4567 8.94198 21.7187 9.0419 21.9807 9.0419Z" fill="#473CF0"/>
<path d="M23.5719 17.3262C23.1721 16.9265 22.5239 16.9263 22.1241 17.3263C21.7243 17.7261 21.7243 18.3743 22.1241 18.774L24.6541 21.3039C24.8539 21.5037 25.116 21.6036 25.378 21.6036C25.6399 21.6036 25.902 21.5037 26.1018 21.3038C26.5016 20.9039 26.5016 20.2557 26.1018 19.856L23.5719 17.3262Z" fill="#473CF0"/>
<path d="M28.9762 12.051L25.3978 12.0513C24.8324 12.0513 24.374 12.5097 24.374 13.0752C24.374 13.6406 24.8324 14.0988 25.3978 14.0988L28.9762 14.0985C29.5416 14.0985 30 13.6402 30 13.0746C30 12.5094 29.5416 12.051 28.9762 12.051Z" fill="#473CF0"/>
<path d="M11.2258 7.87585C11.4256 8.07568 11.6877 8.1756 11.9497 8.1756C12.2116 8.1756 12.4737 8.07568 12.6735 7.87585C13.0733 7.4759 13.0733 6.8278 12.6735 6.42799L10.1441 3.89839C9.74425 3.49872 9.09601 3.49872 8.69634 3.89839C8.29653 4.29833 8.29653 4.94643 8.69634 5.34624L11.2258 7.87585Z" fill="#473CF0"/>
<path d="M16.924 5.62555C17.4895 5.62555 17.9477 5.16733 17.9479 4.60194L17.9484 1.02388C17.9484 0.458502 17.4902 0.0001365 16.9248 0H16.9247C16.3593 0 15.9009 0.458229 15.9009 1.02361L15.9004 4.60167C15.9003 5.16705 16.3586 5.62542 16.924 5.62555Z" fill="#473CF0"/>
<path d="M21.614 11.9816L18.0186 8.38618C17.6188 7.98651 16.9706 7.98651 16.5709 8.38618L12.9747 11.9821C12.974 11.9828 12.9735 11.9836 12.9726 11.9843L0.299889 24.6569C0.107835 24.849 0 25.1093 0 25.3809C0 25.6525 0.107835 25.9127 0.299889 26.1049L3.89556 29.7004C4.09539 29.9003 4.35747 30.0002 4.61942 30.0002C4.8815 30.0002 5.14344 29.9003 5.34327 29.7004L18.0155 17.0282C18.0164 17.0271 18.0177 17.0263 18.0186 17.0254L20.9671 14.0764L21.6139 13.4297C22.0138 13.0296 22.0138 12.3815 21.614 11.9816ZM19.4423 12.7056L17.2945 14.8534L15.1467 12.7061L17.2948 10.558L19.4423 12.7056ZM4.61942 27.5286L2.4716 25.3808L13.6987 14.1538L15.8466 16.3012L4.61942 27.5286Z" fill="#473CF0"/>
</g>
<defs>
<clipPath id="clip0_604_80">
<rect width="30" height="30" fill="white"/>
</clipPath>
</defs>
</svg>
