<svg width="20" height="20" viewBox="0 0 20 20" fill="none" xmlns="http://www.w3.org/2000/svg">
<path d="M13.2583 11.1167L15.455 7.76167L15.0767 7.42333L12.0158 10.0058C11.4533 9.89083 10.8475 10.0625 10.4375 10.5208C9.82417 11.2067 9.88333 12.2608 10.57 12.8742C11.2567 13.4875 12.31 13.4283 12.9233 12.7417C13.3333 12.2833 13.4358 11.6625 13.2583 11.1167V11.1167ZM10 2.245V0H13.3333V2.245C12.1342 2.0425 11.1733 2.04667 10 2.245ZM17.3758 3.965L18.5483 2.7925L19.7267 3.97083L18.6258 5.07167C18.2408 4.66833 17.8225 4.29917 17.3758 3.965V3.965ZM1.66667 7.5H8.33333V9.16667H1.66667V7.5ZM0 10.8333H6.66667V12.5H0V10.8333ZM2.5 14.1667H8.33333V15.8333H2.5V14.1667ZM20 11.6667C20 16.2692 16.2692 20 11.6667 20C9.34167 20 7.25 19.0375 5.74083 17.5H8.47417C9.4225 18.0258 10.5067 18.3333 11.6667 18.3333C15.3425 18.3333 18.3333 15.3425 18.3333 11.6667C18.3333 7.99083 15.3425 5 11.6667 5C10.5067 5 9.4225 5.3075 8.47417 5.83333H5.74083C7.25 4.29583 9.34167 3.33333 11.6667 3.33333C16.2692 3.33333 20 7.06417 20 11.6667Z" fill="#473CF0"/>
</svg>
