<svg width="16" height="19" viewBox="0 0 16 19" fill="none" xmlns="http://www.w3.org/2000/svg">
<path d="M11.1641 10.9375C12.0078 10.9375 12.7812 11.1484 13.5195 11.5703C14.2227 11.9922 14.8203 12.5898 15.2422 13.293C15.6641 14.0312 15.875 14.8047 15.875 15.6484V16.5625C15.875 17.0547 15.6992 17.4414 15.3828 17.7578C15.0312 18.1094 14.6445 18.25 14.1875 18.25H1.8125C1.32031 18.25 0.933594 18.1094 0.617188 17.7578C0.265625 17.4414 0.125 17.0547 0.125 16.5625V15.6484C0.125 14.8047 0.335938 14.0312 0.757812 13.293C1.17969 12.5898 1.74219 11.9922 2.48047 11.5703C3.18359 11.1484 3.99219 10.9375 4.83594 10.9375C5.11719 10.9375 5.53906 11.043 6.03125 11.1836C6.34766 11.2891 6.62891 11.3594 6.83984 11.3945C7.19141 11.4648 7.57812 11.5 8 11.5C8.42188 11.5 8.80859 11.4648 9.16016 11.3945C9.37109 11.3594 9.61719 11.2891 9.96875 11.1836C10.4609 11.043 10.8477 10.9375 11.1641 10.9375ZM14.1875 16.5625V15.6484C14.1875 14.8398 13.8711 14.1367 13.2734 13.5391C12.6758 12.9414 11.9727 12.625 11.1641 12.625C11.0234 12.625 10.7773 12.6953 10.4609 12.7656C9.61719 13.0469 8.77344 13.1875 8 13.1875C7.22656 13.1875 6.38281 13.0469 5.53906 12.7656C5.1875 12.6953 4.94141 12.625 4.83594 12.625C3.99219 12.625 3.28906 12.9414 2.69141 13.5391C2.09375 14.1367 1.8125 14.8398 1.8125 15.6484V16.5625H14.1875ZM8 10.375C7.08594 10.375 6.24219 10.1641 5.46875 9.70703C4.69531 9.25 4.0625 8.61719 3.60547 7.84375C3.14844 7.07031 2.9375 6.22656 2.9375 5.3125C2.9375 4.39844 3.14844 3.55469 3.60547 2.78125C4.0625 2.00781 4.69531 1.41016 5.46875 0.953125C6.24219 0.496094 7.08594 0.25 8 0.25C8.91406 0.25 9.75781 0.496094 10.5312 0.953125C11.3047 1.41016 11.9023 2.00781 12.3594 2.78125C12.8164 3.55469 13.0625 4.39844 13.0625 5.3125C13.0625 6.22656 12.8164 7.07031 12.3594 7.84375C11.9023 8.61719 11.3047 9.25 10.5312 9.70703C9.75781 10.1641 8.91406 10.375 8 10.375ZM8 1.9375C7.05078 1.9375 6.24219 2.28906 5.60938 2.92188C4.94141 3.58984 4.625 4.39844 4.625 5.3125C4.625 6.26172 4.94141 7.07031 5.60938 7.70312C6.24219 8.37109 7.05078 8.6875 8 8.6875C8.91406 8.6875 9.72266 8.37109 10.3906 7.70312C11.0234 7.07031 11.375 6.26172 11.375 5.3125C11.375 4.39844 11.0234 3.58984 10.3906 2.92188C9.72266 2.28906 8.91406 1.9375 8 1.9375Z" fill="#6C18CD"/>
</svg>
