<svg width="123" height="115" viewBox="0 0 123 115" fill="none" xmlns="http://www.w3.org/2000/svg">
<g clip-path="url(#clip0_820_2)">
<path fill-rule="evenodd" clip-rule="evenodd" d="M9.32 0H113.56C118.69 0 122.88 4.2 122.88 9.32V82.94C122.88 88.05 118.67 92.26 113.56 92.26H83.84L67.67 111.32C64.09 115.55 58.22 115.36 54.86 111.32L39.04 92.26H9.32C4.21 92.26 0 88.07 0 82.94V9.32C0 4.19 4.19 0 9.32 0Z" fill="#EE4856"/>
<path fill-rule="evenodd" clip-rule="evenodd" d="M48.6816 26.8538C48.6816 21.4117 53.0933 17 58.5355 17H63.4624C68.9044 17 73.3162 21.4117 73.3162 26.8538V29.3173H68.3893V26.8538C68.3893 24.1328 66.1835 21.9269 63.4624 21.9269H58.5355C55.8144 21.9269 53.6086 24.1328 53.6086 26.8538V29.3173H48.6816V26.8538Z" fill="white"/>
<path fill-rule="evenodd" clip-rule="evenodd" d="M38.2562 38.4028C38.6619 31.9111 44.0452 26.8538 50.5495 26.8538H71.4504C77.9547 26.8538 83.3381 31.9111 83.7438 38.4028L84.9755 58.1104C85.4187 65.2015 79.787 71.196 72.6821 71.196H49.3178C42.2129 71.196 36.5813 65.2015 37.0245 58.1104L38.2562 38.4028ZM58.536 49.0249C53.0939 49.0249 48.6822 44.6131 48.6822 39.1711V36.7076H53.6091V39.1711C53.6091 41.8922 55.8149 44.098 58.536 44.098H63.4629C66.184 44.098 68.3898 41.8922 68.3898 39.1711V36.7076H73.3167V39.1711C73.3167 44.6131 68.9049 49.0249 63.4629 49.0249H58.536Z" fill="white"/>
</g>
<defs>
<clipPath id="clip0_820_2">
<rect width="122.88" height="114.42" fill="white"/>
</clipPath>
</defs>
</svg>
