<svg width="192" height="24" viewBox="0 0 192 24" fill="none" xmlns="http://www.w3.org/2000/svg">
<g clip-path="url(#clip0_838_10)">
<path d="M2.51274 1.54835C1.31706 1.54835 0.502976 2.38787 0.502976 3.53267V17.6264C0.502976 18.7712 1.31706 19.6108 2.51274 19.6108C3.65754 19.6108 4.49706 18.7712 4.49706 17.6264V3.53267C4.49706 2.38787 3.65754 1.54835 2.51274 1.54835ZM23.708 6.07667C21.7492 6.07667 20.0701 7.09427 19.256 8.84963C18.4674 7.04339 16.8901 6.07667 14.9567 6.07667C13.2013 6.07667 11.624 6.91619 10.7336 8.36627V7.93379C10.7336 6.94163 10.0213 6.20387 9.02915 6.20387C8.01155 6.20387 7.29923 6.94163 7.29923 7.93379V17.7536C7.29923 18.8476 8.06243 19.6108 9.15635 19.6108C10.2503 19.6108 10.988 18.8476 10.988 17.7536V12.513C11.0644 10.4778 12.1328 9.48563 13.6338 9.48563C15.0839 9.48563 16.076 10.5287 16.076 12.6402V17.7536C16.076 18.8476 16.8138 19.6108 17.9077 19.6108C19.0016 19.6108 19.7648 18.8476 19.7648 17.7536V12.513C19.7903 10.4778 20.9096 9.48563 22.4106 9.48563C23.8607 9.48563 24.8274 10.5287 24.8274 12.6402V17.7536C24.8274 18.8476 25.5906 19.6108 26.6845 19.6108C27.7784 19.6108 28.5416 18.8476 28.5416 17.7536V11.4445C28.5416 9.79091 28.0837 8.46803 27.1679 7.52675C26.2775 6.56003 25.1072 6.07667 23.708 6.07667ZM38.3162 6.07667C36.5099 6.07667 35.0598 6.78899 33.9659 8.23907V7.93379C33.9659 6.91619 33.2536 6.20387 32.2614 6.20387C31.2438 6.20387 30.557 6.91619 30.557 7.93379V21.8495C30.557 22.9434 31.3202 23.6812 32.4141 23.6812C33.4571 23.6812 34.2458 22.8925 34.2458 21.8495V18.008C35.2634 19.1528 36.5862 19.738 38.189 19.738C39.9443 19.738 41.4707 19.0765 42.7427 17.7282C44.0147 16.3799 44.6507 14.7517 44.6507 12.8437C44.6507 10.9357 44.0402 9.33299 42.7936 8.03555C41.547 6.73811 40.0715 6.07667 38.3162 6.07667ZM35.0853 15.3623C34.4493 14.7008 34.1186 13.8868 34.1186 12.92C34.1186 11.9533 34.4493 11.1392 35.0853 10.4778C35.7467 9.81635 36.5608 9.48563 37.5275 9.48563C38.4942 9.48563 39.3083 9.81635 39.9443 10.4778C40.6058 11.1392 40.9365 11.9533 40.9365 12.92C40.9365 13.8868 40.6058 14.7008 39.9443 15.3623C39.3083 16.0237 38.4942 16.3544 37.5275 16.3544C36.5608 16.3544 35.7467 16.0237 35.0853 15.3623ZM58.755 8.06099C58.755 6.96707 57.9918 6.20387 56.8979 6.20387C55.804 6.20387 55.0662 6.96707 55.0662 8.06099V13.0218C55.0662 15.2351 53.9214 16.329 52.2933 16.329C50.7669 16.329 49.7238 15.2605 49.7238 13.149V8.06099C49.7238 6.96707 48.9861 6.20387 47.8921 6.20387C46.7982 6.20387 46.035 6.96707 46.035 8.06099V14.3447C46.035 16.0237 46.4929 17.3466 47.4088 18.3133C48.3501 19.2546 49.5203 19.738 50.9704 19.738C52.7766 19.738 54.4048 18.9239 55.3206 17.4229V17.8808C55.3206 18.873 56.0329 19.6108 57.0251 19.6108C58.0427 19.6108 58.755 18.873 58.755 17.8808V8.06099ZM62.9337 1.54835C61.8144 1.54835 61.0512 2.31155 61.0512 3.40547V17.7282C61.0512 18.8221 61.8144 19.6108 62.9337 19.6108C64.0277 19.6108 64.7909 18.8221 64.7909 17.7282V3.40547C64.7909 2.31155 64.0277 1.54835 62.9337 1.54835ZM66.0716 17.1176C66.0716 17.601 66.326 18.0335 66.8602 18.4405C67.9542 19.3055 69.4551 19.738 71.3377 19.738C74.6194 19.738 76.6038 18.0335 76.6038 15.5912C76.6038 13.7341 75.2046 12.3095 72.5842 11.5208C70.6762 10.9357 70.1929 10.4524 70.1929 9.81635C70.1929 9.28211 70.7271 8.82419 71.7193 8.82419C72.457 8.82419 73.1948 9.05315 73.9326 9.51107C74.3396 9.74003 74.6703 9.84179 74.9247 9.84179C75.7134 9.84179 76.273 9.28211 76.273 8.44259C76.273 7.90835 75.9678 7.47587 75.3826 7.11971C74.2887 6.43283 73.0422 6.07667 71.5921 6.07667C70.0148 6.07667 68.7682 6.45827 67.8778 7.22147C66.9874 7.98467 66.5295 8.90051 66.5295 9.99443C66.5295 11.8516 67.7506 13.149 70.1674 13.9376C72.4062 14.65 72.9404 15.1588 72.9404 15.8711C72.9404 16.5071 72.3553 16.9904 71.3122 16.9904C70.2692 16.9904 69.277 16.6597 68.3358 15.9983C68.0559 15.8202 67.7506 15.7439 67.4454 15.7439C66.6058 15.7439 66.0716 16.3036 66.0716 17.1176ZM80.1336 4.85555C81.431 4.85555 82.3468 3.96515 82.3468 2.71859C82.3468 1.49747 81.431 0.58163 80.1336 0.58163C78.8107 0.58163 77.8948 1.49747 77.8948 2.71859C77.8948 3.96515 78.8107 4.85555 80.1336 4.85555ZM80.1336 6.20387C79.0142 6.20387 78.251 6.99251 78.251 8.08643V17.7282C78.251 18.8221 79.0142 19.6108 80.1336 19.6108C81.2275 19.6108 81.9907 18.8221 81.9907 17.7282V8.08643C81.9907 6.99251 81.2275 6.20387 80.1336 6.20387ZM85.6373 17.8045C86.9857 19.102 88.6647 19.738 90.6999 19.738C92.7351 19.738 94.4396 19.0765 95.8133 17.7536C97.1871 16.4053 97.874 14.7772 97.874 12.8437C97.874 10.9103 97.2125 9.30755 95.8642 8.01011C94.5413 6.71267 92.8623 6.07667 90.8271 6.07667C88.7919 6.07667 87.0874 6.73811 85.7137 8.08643C84.3399 9.40931 83.653 11.0375 83.653 12.9709C83.653 14.9044 84.3145 16.5071 85.6373 17.8045ZM90.7762 16.3544C89.7841 16.3544 88.97 16.0237 88.3085 15.3623C87.6725 14.7008 87.3418 13.8868 87.3418 12.92C87.3418 11.9533 87.6725 11.1392 88.3085 10.4778C88.97 9.81635 89.7841 9.48563 90.7762 9.48563C91.7429 9.48563 92.557 9.81635 93.193 10.4778C93.8545 11.1392 94.1852 11.9533 94.1852 12.92C94.1852 13.8868 93.8545 14.7008 93.193 15.3623C92.557 16.0237 91.7429 16.3544 90.7762 16.3544ZM107.183 6.07667C105.376 6.07667 103.748 6.86531 102.832 8.39171V7.93379C102.832 6.94163 102.12 6.20387 101.128 6.20387C100.11 6.20387 99.398 6.94163 99.398 7.93379V17.7536C99.398 18.8476 100.161 19.6108 101.255 19.6108C102.349 19.6108 103.087 18.8476 103.087 17.7536V12.7928C103.087 10.5796 104.232 9.48563 105.86 9.48563C107.386 9.48563 108.429 10.5541 108.429 12.6656V17.7536C108.429 18.8476 109.167 19.6108 110.261 19.6108C111.355 19.6108 112.118 18.8476 112.118 17.7536V11.47C112.118 9.79091 111.66 8.46803 110.719 7.52675C109.803 6.56003 108.633 6.07667 107.183 6.07667ZM120.571 6.07667C118.561 6.07667 116.882 6.73811 115.534 8.08643C114.185 9.40931 113.498 11.0375 113.498 12.9709C113.498 14.9044 114.16 16.5071 115.483 17.8045C116.831 19.102 118.51 19.738 120.545 19.738C122.504 19.738 124.081 19.1783 125.328 18.0844C125.862 17.6264 126.142 17.1431 126.142 16.6343C126.142 15.7439 125.531 15.1588 124.641 15.1588C124.285 15.1588 123.954 15.2605 123.623 15.4895C122.733 16.1764 121.792 16.5325 120.8 16.5325C118.892 16.5325 117.492 15.3623 117.263 13.6324H125.557C126.498 13.6324 127.109 12.9964 127.109 12.0551C127.109 10.5032 126.473 9.10403 125.175 7.90835C123.903 6.68723 122.377 6.07667 120.571 6.07667ZM117.263 11.3936C117.594 9.89267 118.892 8.82419 120.52 8.82419C122.021 8.82419 123.318 9.96899 123.547 11.3936H117.263ZM137.427 19.738C139.92 19.738 142.006 18.8984 143.685 17.2448C145.364 15.5658 146.204 13.6069 146.229 11.3936C146.229 10.4778 145.542 9.81635 144.601 9.81635H138.597C137.758 9.81635 137.172 10.4015 137.172 11.1901C137.172 12.0296 137.758 12.6148 138.597 12.6148H142.21C141.777 14.8535 139.945 16.2527 137.478 16.2527C135.926 16.2527 134.628 15.7184 133.585 14.65C132.542 13.5815 132.034 12.2332 132.034 10.6304C132.034 9.02771 132.542 7.67939 133.585 6.61091C134.628 5.54243 135.926 5.00819 137.478 5.00819C138.572 5.00819 139.716 5.38979 140.938 6.15299C141.268 6.38195 141.65 6.50915 142.082 6.50915C143.125 6.50915 143.939 5.69507 143.939 4.65203C143.939 4.01603 143.609 3.45635 142.947 2.99843C141.421 1.95539 139.615 1.42115 137.554 1.42115C134.908 1.42115 132.67 2.31155 130.863 4.11779C129.057 5.89859 128.141 8.08643 128.141 10.6559C128.141 13.2253 129.032 15.3877 130.787 17.1431C132.568 18.873 134.781 19.738 137.427 19.738ZM147.781 17.7536C147.781 18.8476 148.544 19.6108 149.638 19.6108C150.732 19.6108 151.47 18.8476 151.47 17.7536V13.6832C151.47 11.1647 152.742 9.86723 154.777 9.86723C155.896 9.86723 156.685 9.10403 156.685 7.95923C156.685 6.86531 155.896 6.07667 154.777 6.07667C153.123 6.07667 151.902 7.01795 151.088 8.90051L151.062 7.83203C151.062 6.89075 150.401 6.20387 149.409 6.20387C148.468 6.20387 147.781 6.89075 147.781 7.83203V17.7536ZM162.352 6.07667C160.521 6.07667 159.02 6.45827 157.875 7.22147C157.29 7.55219 157.01 8.01011 157.01 8.59523C157.01 9.40931 157.595 9.99443 158.435 9.99443C158.74 9.99443 159.02 9.91811 159.3 9.79091C160.037 9.38387 160.826 9.18035 161.615 9.18035C163.37 9.18035 164.591 10.198 164.591 12.0042V12.5639C163.701 11.9279 162.581 11.6226 161.233 11.6226C159.681 11.6226 158.435 12.0042 157.493 12.7928C156.552 13.5815 156.069 14.5482 156.069 15.7439C156.069 18.0844 158.053 19.738 161.131 19.738C162.76 19.738 164.057 19.3055 165.049 18.4405C165.253 19.2292 165.787 19.6108 166.626 19.6108C167.619 19.6108 168.305 18.9239 168.305 17.9317V12.0296C168.305 8.28995 166.041 6.07667 162.352 6.07667ZM162.2 17.3975C160.775 17.3975 159.783 16.6088 159.783 15.5912C159.783 14.5736 160.775 13.785 162.2 13.785C163.726 13.785 164.718 14.5736 164.718 15.5912C164.718 16.6088 163.726 17.3975 162.2 17.3975ZM186.706 6.07667C184.747 6.07667 183.068 7.09427 182.254 8.84963C181.465 7.04339 179.888 6.07667 177.955 6.07667C176.199 6.07667 174.622 6.91619 173.731 8.36627V7.93379C173.731 6.94163 173.019 6.20387 172.027 6.20387C171.009 6.20387 170.297 6.94163 170.297 7.93379V17.7536C170.297 18.8476 171.06 19.6108 172.154 19.6108C173.248 19.6108 173.986 18.8476 173.986 17.7536V12.513C174.062 10.4778 175.131 9.48563 176.632 9.48563C178.082 9.48563 179.074 10.5287 179.074 12.6402V17.7536C179.074 18.8476 179.812 19.6108 180.906 19.6108C181.999 19.6108 182.763 18.8476 182.763 17.7536V12.513C182.788 10.4778 183.907 9.48563 185.408 9.48563C186.859 9.48563 187.825 10.5287 187.825 12.6402V17.7536C187.825 18.8476 188.588 19.6108 189.682 19.6108C190.776 19.6108 191.539 18.8476 191.539 17.7536V11.4445C191.539 9.79091 191.082 8.46803 190.166 7.52675C189.275 6.56003 188.105 6.07667 186.706 6.07667Z" fill="#5A0ED9"/>
</g>
<defs>
<clipPath id="clip0_838_10">
<rect width="192" height="24" fill="white"/>
</clipPath>
</defs>
</svg>
