<svg width="211" height="27" viewBox="0 0 211 27" fill="none" xmlns="http://www.w3.org/2000/svg">
<g clip-path="url(#clip0_838_2)">
<path d="M2.24923 1.84179C0.933227 1.84179 0.0372266 2.76579 0.0372266 4.02579V19.5378C0.0372266 20.7978 0.933227 21.7218 2.24923 21.7218C3.50923 21.7218 4.43323 20.7978 4.43323 19.5378V4.02579C4.43323 2.76579 3.50923 1.84179 2.24923 1.84179ZM25.5774 6.82579C23.4214 6.82579 21.5734 7.94579 20.6774 9.87779C19.8094 7.88979 18.0734 6.82579 15.9454 6.82579C14.0134 6.82579 12.2774 7.74979 11.2974 9.34579V8.86979C11.2974 7.77779 10.5134 6.96579 9.42138 6.96579C8.30138 6.96579 7.51738 7.77779 7.51738 8.86979V19.6778C7.51738 20.8818 8.35738 21.7218 9.56138 21.7218C10.7654 21.7218 11.5774 20.8818 11.5774 19.6778V13.9098C11.6614 11.6698 12.8374 10.5778 14.4894 10.5778C16.0854 10.5778 17.1774 11.7258 17.1774 14.0498V19.6778C17.1774 20.8818 17.9894 21.7218 19.1934 21.7218C20.3974 21.7218 21.2374 20.8818 21.2374 19.6778V13.9098C21.2654 11.6698 22.4974 10.5778 24.1494 10.5778C25.7454 10.5778 26.8094 11.7258 26.8094 14.0498V19.6778C26.8094 20.8818 27.6494 21.7218 28.8534 21.7218C30.0574 21.7218 30.8974 20.8818 30.8974 19.6778V12.7338C30.8974 10.9138 30.3934 9.45779 29.3854 8.42179C28.4054 7.35779 27.1174 6.82579 25.5774 6.82579ZM41.6555 6.82579C39.6675 6.82579 38.0715 7.60979 36.8675 9.20579V8.86979C36.8675 7.74979 36.0835 6.96579 34.9915 6.96579C33.8715 6.96579 33.1155 7.74979 33.1155 8.86979V24.1858C33.1155 25.3898 33.9555 26.2018 35.1595 26.2018C36.3075 26.2018 37.1755 25.3338 37.1755 24.1858V19.9578C38.2955 21.2178 39.7515 21.8618 41.5155 21.8618C43.4475 21.8618 45.1275 21.1338 46.5275 19.6498C47.9275 18.1658 48.6275 16.3738 48.6275 14.2738C48.6275 12.1738 47.9555 10.4098 46.5835 8.98179C45.2115 7.55379 43.5875 6.82579 41.6555 6.82579ZM38.0995 17.0458C37.3995 16.3178 37.0355 15.4218 37.0355 14.3578C37.0355 13.2938 37.3995 12.3978 38.0995 11.6698C38.8275 10.9418 39.7235 10.5778 40.7875 10.5778C41.8515 10.5778 42.7475 10.9418 43.4475 11.6698C44.1755 12.3978 44.5395 13.2938 44.5395 14.3578C44.5395 15.4218 44.1755 16.3178 43.4475 17.0458C42.7475 17.7738 41.8515 18.1378 40.7875 18.1378C39.7235 18.1378 38.8275 17.7738 38.0995 17.0458ZM64.1511 9.00979C64.1511 7.80579 63.3111 6.96579 62.1071 6.96579C60.9031 6.96579 60.0911 7.80579 60.0911 9.00979V14.4698C60.0911 16.9058 58.8311 18.1098 57.0391 18.1098C55.3591 18.1098 54.2111 16.9338 54.2111 14.6098V9.00979C54.2111 7.80579 53.3991 6.96579 52.1951 6.96579C50.9911 6.96579 50.1511 7.80579 50.1511 9.00979V15.9258C50.1511 17.7738 50.6551 19.2298 51.6631 20.2938C52.6991 21.3298 53.9871 21.8618 55.5831 21.8618C57.5711 21.8618 59.3631 20.9658 60.3711 19.3138V19.8178C60.3711 20.9098 61.1551 21.7218 62.2471 21.7218C63.3671 21.7218 64.1511 20.9098 64.1511 19.8178V9.00979ZM68.7503 1.84179C67.5183 1.84179 66.6783 2.68179 66.6783 3.88579V19.6498C66.6783 20.8538 67.5183 21.7218 68.7503 21.7218C69.9543 21.7218 70.7943 20.8538 70.7943 19.6498V3.88579C70.7943 2.68179 69.9543 1.84179 68.7503 1.84179ZM72.2039 18.9778C72.2039 19.5098 72.4839 19.9858 73.0719 20.4338C74.2759 21.3858 75.9279 21.8618 77.9999 21.8618C81.6119 21.8618 83.7959 19.9858 83.7959 17.2978C83.7959 15.2538 82.2559 13.6858 79.3719 12.8178C77.2719 12.1738 76.7399 11.6418 76.7399 10.9418C76.7399 10.3538 77.3279 9.84979 78.4199 9.84979C79.2319 9.84979 80.0439 10.1018 80.8559 10.6058C81.3039 10.8578 81.6679 10.9698 81.9479 10.9698C82.8159 10.9698 83.4319 10.3538 83.4319 9.42979C83.4319 8.84179 83.0959 8.36579 82.4519 7.97379C81.2479 7.21779 79.8759 6.82579 78.2799 6.82579C76.5439 6.82579 75.1719 7.24579 74.1919 8.08579C73.2119 8.92579 72.7079 9.93379 72.7079 11.1378C72.7079 13.1818 74.0519 14.6098 76.7119 15.4778C79.1759 16.2618 79.7639 16.8218 79.7639 17.6058C79.7639 18.3058 79.1199 18.8378 77.9719 18.8378C76.8239 18.8378 75.7319 18.4738 74.6959 17.7458C74.3879 17.5498 74.0519 17.4658 73.7159 17.4658C72.7919 17.4658 72.2039 18.0818 72.2039 18.9778ZM87.6809 5.48179C89.1089 5.48179 90.1169 4.50179 90.1169 3.12979C90.1169 1.78579 89.1089 0.777786 87.6809 0.777786C86.2249 0.777786 85.2169 1.78579 85.2169 3.12979C85.2169 4.50179 86.2249 5.48179 87.6809 5.48179ZM87.6809 6.96579C86.4489 6.96579 85.6089 7.83379 85.6089 9.03779V19.6498C85.6089 20.8538 86.4489 21.7218 87.6809 21.7218C88.8849 21.7218 89.7249 20.8538 89.7249 19.6498V9.03779C89.7249 7.83379 88.8849 6.96579 87.6809 6.96579ZM93.7386 19.7338C95.2226 21.1618 97.0706 21.8618 99.3106 21.8618C101.551 21.8618 103.427 21.1338 104.939 19.6778C106.451 18.1938 107.207 16.4018 107.207 14.2738C107.207 12.1458 106.479 10.3818 104.995 8.95379C103.539 7.52579 101.691 6.82579 99.4506 6.82579C97.2106 6.82579 95.3346 7.55379 93.8226 9.03779C92.3106 10.4938 91.5546 12.2858 91.5546 14.4138C91.5546 16.5418 92.2826 18.3058 93.7386 19.7338ZM99.3946 18.1378C98.3026 18.1378 97.4066 17.7738 96.6786 17.0458C95.9786 16.3178 95.6146 15.4218 95.6146 14.3578C95.6146 13.2938 95.9786 12.3978 96.6786 11.6698C97.4066 10.9418 98.3026 10.5778 99.3946 10.5778C100.459 10.5778 101.355 10.9418 102.055 11.6698C102.783 12.3978 103.147 13.2938 103.147 14.3578C103.147 15.4218 102.783 16.3178 102.055 17.0458C101.355 17.7738 100.459 18.1378 99.3946 18.1378ZM117.452 6.82579C115.464 6.82579 113.672 7.69379 112.664 9.37379V8.86979C112.664 7.77779 111.88 6.96579 110.788 6.96579C109.668 6.96579 108.884 7.77779 108.884 8.86979V19.6778C108.884 20.8818 109.724 21.7218 110.928 21.7218C112.132 21.7218 112.944 20.8818 112.944 19.6778V14.2178C112.944 11.7818 114.204 10.5778 115.996 10.5778C117.676 10.5778 118.824 11.7538 118.824 14.0778V19.6778C118.824 20.8818 119.636 21.7218 120.84 21.7218C122.044 21.7218 122.884 20.8818 122.884 19.6778V12.7618C122.884 10.9138 122.38 9.45779 121.344 8.42179C120.336 7.35779 119.048 6.82579 117.452 6.82579ZM132.187 6.82579C129.975 6.82579 128.127 7.55379 126.643 9.03779C125.159 10.4938 124.403 12.2858 124.403 14.4138C124.403 16.5418 125.131 18.3058 126.587 19.7338C128.071 21.1618 129.919 21.8618 132.159 21.8618C134.315 21.8618 136.051 21.2458 137.423 20.0418C138.011 19.5378 138.319 19.0058 138.319 18.4458C138.319 17.4658 137.647 16.8218 136.667 16.8218C136.275 16.8218 135.911 16.9338 135.547 17.1858C134.567 17.9418 133.531 18.3338 132.439 18.3338C130.339 18.3338 128.799 17.0458 128.547 15.1418H137.675C138.711 15.1418 139.383 14.4418 139.383 13.4058C139.383 11.6978 138.683 10.1578 137.255 8.84179C135.855 7.49779 134.175 6.82579 132.187 6.82579ZM128.547 12.6778C128.911 11.0258 130.339 9.84979 132.131 9.84979C133.783 9.84979 135.211 11.1098 135.463 12.6778H128.547ZM150.74 21.8618C153.484 21.8618 155.78 20.9378 157.628 19.1178C159.476 17.2698 160.4 15.1138 160.428 12.6778C160.428 11.6698 159.672 10.9418 158.636 10.9418H152.028C151.104 10.9418 150.46 11.5858 150.46 12.4538C150.46 13.3778 151.104 14.0218 152.028 14.0218H156.004C155.528 16.4858 153.512 18.0258 150.796 18.0258C149.088 18.0258 147.66 17.4378 146.512 16.2618C145.364 15.0858 144.804 13.6018 144.804 11.8378C144.804 10.0738 145.364 8.58979 146.512 7.41379C147.66 6.23779 149.088 5.64979 150.796 5.64979C152 5.64979 153.26 6.06979 154.604 6.90979C154.968 7.16179 155.388 7.30179 155.864 7.30179C157.012 7.30179 157.908 6.40579 157.908 5.25779C157.908 4.55779 157.544 3.94179 156.816 3.43779C155.136 2.28979 153.148 1.70179 150.88 1.70179C147.968 1.70179 145.504 2.68179 143.516 4.66979C141.528 6.62979 140.52 9.03779 140.52 11.8658C140.52 14.6938 141.5 17.0738 143.432 19.0058C145.392 20.9098 147.828 21.8618 150.74 21.8618ZM162.135 19.6778C162.135 20.8818 162.975 21.7218 164.179 21.7218C165.383 21.7218 166.195 20.8818 166.195 19.6778V15.1978C166.195 12.4258 167.595 10.9978 169.835 10.9978C171.067 10.9978 171.935 10.1578 171.935 8.89779C171.935 7.69379 171.067 6.82579 169.835 6.82579C168.015 6.82579 166.671 7.86179 165.775 9.93379L165.747 8.75779C165.747 7.72179 165.019 6.96579 163.927 6.96579C162.891 6.96579 162.135 7.72179 162.135 8.75779V19.6778ZM178.173 6.82579C176.157 6.82579 174.505 7.24579 173.245 8.08579C172.601 8.44979 172.293 8.95379 172.293 9.59779C172.293 10.4938 172.937 11.1378 173.861 11.1378C174.197 11.1378 174.505 11.0538 174.813 10.9138C175.625 10.4658 176.493 10.2418 177.361 10.2418C179.293 10.2418 180.637 11.3618 180.637 13.3498V13.9658C179.657 13.2658 178.425 12.9298 176.941 12.9298C175.233 12.9298 173.861 13.3498 172.825 14.2178C171.789 15.0858 171.257 16.1498 171.257 17.4658C171.257 20.0418 173.441 21.8618 176.829 21.8618C178.621 21.8618 180.049 21.3858 181.141 20.4338C181.365 21.3018 181.953 21.7218 182.877 21.7218C183.969 21.7218 184.725 20.9658 184.725 19.8738V13.3778C184.725 9.26179 182.233 6.82579 178.173 6.82579ZM178.005 19.2858C176.437 19.2858 175.345 18.4178 175.345 17.2978C175.345 16.1778 176.437 15.3098 178.005 15.3098C179.685 15.3098 180.777 16.1778 180.777 17.2978C180.777 18.4178 179.685 19.2858 178.005 19.2858ZM204.978 6.82579C202.822 6.82579 200.974 7.94579 200.078 9.87779C199.21 7.88979 197.474 6.82579 195.346 6.82579C193.414 6.82579 191.678 7.74979 190.698 9.34579V8.86979C190.698 7.77779 189.914 6.96579 188.822 6.96579C187.702 6.96579 186.918 7.77779 186.918 8.86979V19.6778C186.918 20.8818 187.758 21.7218 188.962 21.7218C190.166 21.7218 190.978 20.8818 190.978 19.6778V13.9098C191.062 11.6698 192.238 10.5778 193.89 10.5778C195.486 10.5778 196.578 11.7258 196.578 14.0498V19.6778C196.578 20.8818 197.39 21.7218 198.594 21.7218C199.798 21.7218 200.638 20.8818 200.638 19.6778V13.9098C200.666 11.6698 201.898 10.5778 203.55 10.5778C205.146 10.5778 206.21 11.7258 206.21 14.0498V19.6778C206.21 20.8818 207.05 21.7218 208.254 21.7218C209.458 21.7218 210.298 20.8818 210.298 19.6778V12.7338C210.298 10.9138 209.794 9.45779 208.786 8.42179C207.806 7.35779 206.518 6.82579 204.978 6.82579Z" fill="white"/>
</g>
<defs>
<clipPath id="clip0_838_2">
<rect width="211" height="27" fill="white"/>
</clipPath>
</defs>
</svg>
