<svg width="434" height="192" viewBox="0 0 434 192" fill="none" xmlns="http://www.w3.org/2000/svg">
<g clip-path="url(#clip0_821_44)">
<path d="M427.26 162.8C427.263 161.025 427.97 159.323 429.226 158.069C430.482 156.815 432.185 156.11 433.96 156.11V142.72C433.059 142.755 432.16 142.607 431.318 142.287C430.475 141.966 429.706 141.478 429.056 140.853C428.406 140.228 427.889 139.478 427.536 138.649C427.183 137.819 427.001 136.927 427.001 136.025C427.001 135.123 427.183 134.231 427.536 133.401C427.889 132.572 428.406 131.822 429.056 131.197C429.706 130.572 430.475 130.084 431.318 129.763C432.16 129.443 433.059 129.295 433.96 129.33V116C433.059 116.035 432.16 115.887 431.318 115.567C430.475 115.246 429.706 114.758 429.056 114.133C428.406 113.508 427.889 112.758 427.536 111.929C427.183 111.099 427.001 110.207 427.001 109.305C427.001 108.403 427.183 107.511 427.536 106.681C427.889 105.852 428.406 105.102 429.056 104.477C429.706 103.852 430.475 103.364 431.318 103.043C432.16 102.723 433.059 102.575 433.96 102.61V89.17C433.059 89.2048 432.16 89.0574 431.318 88.7367C430.475 88.4159 429.706 87.9284 429.056 87.3032C428.406 86.6781 427.889 85.9283 427.536 85.0986C427.183 84.269 427.001 83.3766 427.001 82.475C427.001 81.5734 427.183 80.681 427.536 79.8514C427.889 79.0217 428.406 78.2719 429.056 77.6468C429.706 77.0216 430.475 76.5341 431.318 76.2133C432.16 75.8926 433.059 75.7452 433.96 75.78V62.4C433.08 62.3974 432.209 62.2215 431.398 61.8823C430.586 61.5432 429.849 61.0475 429.228 60.4235C428.608 59.7995 428.117 59.0594 427.782 58.2455C427.448 57.4316 427.277 56.5599 427.28 55.68C427.283 54.8001 427.459 53.9294 427.798 53.1175C428.137 52.3057 428.633 51.5685 429.257 50.9482C429.881 50.3279 430.621 49.8366 431.435 49.5024C432.248 49.1681 433.12 48.9974 434 49V35.62C433.099 35.6548 432.2 35.5074 431.358 35.1867C430.515 34.8659 429.746 34.3784 429.096 33.7532C428.446 33.1281 427.929 32.3783 427.576 31.5486C427.223 30.719 427.041 29.8266 427.041 28.925C427.041 28.0234 427.223 27.131 427.576 26.3014C427.929 25.4717 428.446 24.7219 429.096 24.0968C429.746 23.4716 430.515 22.9841 431.358 22.6633C432.2 22.3426 433.099 22.1952 434 22.23V15.48C431.963 15.4853 429.946 15.0888 428.062 14.3133C426.179 13.5379 424.467 12.3986 423.025 10.9608C421.582 9.52294 420.437 7.81474 419.656 5.93395C418.874 4.05316 418.471 2.0367 418.47 0L15.47 0C15.47 4.10382 13.8405 8.0397 10.9395 10.9425C8.03865 13.8453 4.10382 15.4773 0 15.48V22.23C0.879385 22.23 1.75014 22.4034 2.56246 22.7402C3.37478 23.077 4.11273 23.5707 4.73408 24.193C5.35544 24.8153 5.84801 25.554 6.18363 26.3668C6.51924 27.1796 6.69131 28.0506 6.69 28.93C6.69132 29.8089 6.51917 30.6794 6.18344 31.4917C5.8477 32.304 5.35497 33.042 4.73348 33.6635C4.11199 34.285 3.37397 34.7777 2.56171 35.1134C1.74945 35.4492 0.878913 35.6213 0 35.62L0 49C0.879385 49 1.75014 49.1734 2.56246 49.5102C3.37478 49.847 4.11273 50.3407 4.73408 50.963C5.35544 51.5853 5.84801 52.324 6.18363 53.1368C6.51924 53.9496 6.69131 54.8206 6.69 55.7C6.69131 56.5794 6.51924 57.4504 6.18363 58.2632C5.84801 59.076 5.35544 59.8147 4.73408 60.437C4.11273 61.0593 3.37478 61.553 2.56246 61.8898C1.75014 62.2266 0.879385 62.4 0 62.4L0 75.78C0.879385 75.78 1.75014 75.9534 2.56246 76.2902C3.37478 76.627 4.11273 77.1207 4.73408 77.743C5.35544 78.3653 5.84801 79.104 6.18363 79.9168C6.51924 80.7296 6.69131 81.6006 6.69 82.48C6.69 84.2543 5.98516 85.9559 4.73054 87.2105C3.47593 88.4652 1.7743 89.17 0 89.17L0 102.56C1.7743 102.56 3.47593 103.265 4.73054 104.519C5.98516 105.774 6.69 107.476 6.69 109.25C6.69792 110.134 6.53073 111.01 6.19808 111.829C5.86542 112.647 5.3739 113.392 4.75188 114.019C4.12987 114.647 3.38969 115.145 2.57409 115.485C1.75848 115.825 0.883615 116 0 116L0 129.38C1.76224 129.38 3.45334 130.075 4.70597 131.315C5.95859 132.554 6.67156 134.238 6.69 136C6.69395 136.881 6.52382 137.754 6.18939 138.569C5.85496 139.385 5.3628 140.126 4.74118 140.75C4.11957 141.374 3.38073 141.87 2.5671 142.208C1.75347 142.546 0.881073 142.72 0 142.72L0 156.11C1.7743 156.11 3.47593 156.815 4.73054 158.069C5.98516 159.324 6.69 161.026 6.69 162.8C6.69131 163.679 6.51924 164.55 6.18363 165.363C5.84801 166.176 5.35544 166.915 4.73408 167.537C4.11273 168.159 3.37478 168.653 2.56246 168.99C1.75014 169.327 0.879385 169.5 0 169.5L0 176.25C4.10555 176.25 8.04295 177.881 10.946 180.784C13.8491 183.687 15.48 187.624 15.48 191.73H418.48C418.481 189.694 418.884 187.679 419.665 185.798C420.446 183.918 421.59 182.21 423.031 180.773C424.472 179.335 426.183 178.196 428.065 177.42C429.947 176.643 431.964 176.246 434 176.25V169.5C433.117 169.505 432.241 169.336 431.424 169.002C430.606 168.667 429.863 168.174 429.237 167.552C428.61 166.929 428.113 166.189 427.774 165.373C427.435 164.558 427.26 163.683 427.26 162.8V162.8Z" fill="#6900FF"/>
<g opacity="0.48">
<path d="M175 0.129999C172.848 0.148231 170.712 -0.234985 168.7 -1C166.87 -1.69754 165.177 -2.71316 163.7 -4C162.291 -5.2339 161.156 -6.74993 160.37 -8.45C159.568 -10.172 159.158 -12.0505 159.17 -13.95C159.16 -15.8526 159.569 -17.7341 160.37 -19.46C161.159 -21.1556 162.293 -22.6678 163.7 -23.9C165.177 -25.1868 166.87 -26.2025 168.7 -26.9C170.718 -27.6309 172.854 -27.9802 175 -27.93C177.111 -27.9444 179.206 -27.568 181.18 -26.82C183.011 -26.1225 184.703 -25.1068 186.18 -23.82C187.593 -22.5818 188.743 -21.0718 189.56 -19.38C190.388 -17.6618 190.812 -15.7771 190.8 -13.87C190.813 -11.966 190.389 -10.0844 189.56 -8.37C188.745 -6.67373 187.596 -5.15999 186.18 -3.92C184.703 -2.63316 183.011 -1.61754 181.18 -0.92C179.202 -0.192407 177.107 0.163565 175 0.129999V0.129999ZM166.66 30.23L191.75 1.91L214 -28L221.38 -21.34L197.34 6.08L174 36.89L166.66 30.23ZM175 -7.86C175.61 -7.87906 176.205 -8.05232 176.729 -8.36359C177.254 -8.67487 177.691 -9.114 178 -9.64C178.854 -10.8935 179.291 -12.384 179.25 -13.9C179.291 -15.416 178.854 -16.9065 178 -18.16C177.691 -18.686 177.254 -19.1251 176.729 -19.4364C176.205 -19.7477 175.61 -19.9209 175 -19.94C174.39 -19.9228 173.794 -19.7503 173.269 -19.4389C172.745 -19.1274 172.308 -18.6873 172 -18.16C171.146 -16.9065 170.709 -15.416 170.75 -13.9C170.709 -12.384 171.146 -10.8935 172 -9.64C172.308 -9.11274 172.745 -8.67259 173.269 -8.36113C173.794 -8.04967 174.39 -7.8772 175 -7.86V-7.86ZM213.1 36.89C210.963 36.9106 208.84 36.5342 206.84 35.78C205.009 35.0836 203.316 34.0679 201.84 32.78C200.433 31.5478 199.299 30.0356 198.51 28.34C197.721 26.6138 197.313 24.738 197.313 22.84C197.313 20.942 197.721 19.0662 198.51 17.34C199.294 15.6414 200.429 14.1281 201.84 12.9C203.314 11.609 205.007 10.5929 206.84 9.9C208.84 9.1458 210.963 8.76942 213.1 8.79C215.208 8.77431 217.3 9.15071 219.27 9.9C221.102 10.5952 222.795 11.6111 224.27 12.9C225.684 14.1348 226.831 15.6457 227.64 17.34C228.455 19.059 228.878 20.9376 228.878 22.84C228.878 24.7424 228.455 26.621 227.64 28.34C226.826 30.0309 225.68 31.5408 224.27 32.78C222.793 34.0658 221.1 35.0813 219.27 35.78C217.288 36.5342 215.181 36.9107 213.06 36.89H213.1ZM213.1 28.89C213.71 28.87 214.304 28.6964 214.829 28.3852C215.353 28.074 215.791 27.6354 216.1 27.11C216.951 25.8556 217.385 24.365 217.34 22.85C217.385 21.335 216.951 19.8444 216.1 18.59C215.799 18.0598 215.363 17.6188 214.836 17.312C214.309 17.0053 213.71 16.8437 213.1 16.8437C212.49 16.8437 211.892 17.0053 211.365 17.312C210.838 17.6188 210.401 18.0598 210.1 18.59C209.249 19.8444 208.815 21.335 208.86 22.85C208.784 24.3576 209.183 25.8511 210 27.12C210.314 27.6545 210.761 28.0991 211.297 28.4108C211.833 28.7226 212.44 28.8911 213.06 28.9L213.1 28.89Z" fill="#9951FF"/>
<path d="M251.68 74.4498C249.543 74.4704 247.42 74.094 245.42 73.3398C243.588 72.6446 241.895 71.6287 240.42 70.3398C239.009 69.1117 237.874 67.5984 237.09 65.8998C236.307 64.1719 235.902 62.2968 235.902 60.3998C235.902 58.5029 236.307 56.6278 237.09 54.8998C237.879 53.2042 239.013 51.692 240.42 50.4598C241.898 49.174 243.59 48.1585 245.42 47.4598C247.42 46.7056 249.543 46.3292 251.68 46.3498C253.788 46.3341 255.88 46.7105 257.85 47.4598C259.681 48.1562 261.374 49.1719 262.85 50.4598C264.26 51.699 265.406 53.2089 266.22 54.8998C267.041 56.6171 267.467 58.4964 267.467 60.3998C267.467 62.3033 267.041 64.1826 266.22 65.8998C265.411 67.5941 264.264 69.105 262.85 70.3398C261.376 71.6308 259.683 72.6469 257.85 73.3398C255.88 74.0891 253.788 74.4655 251.68 74.4498V74.4498ZM243.33 104.55L268.46 76.2198L290.75 46.2998L298.12 52.9998L274.06 80.3998L250.7 111.21L243.33 104.55ZM251.68 66.4598C252.29 66.4407 252.885 66.2675 253.409 65.9562C253.934 65.6449 254.371 65.2058 254.68 64.6798C255.489 63.4064 255.919 61.9287 255.919 60.4198C255.919 58.9109 255.489 57.4332 254.68 56.1598C254.379 55.6296 253.943 55.1886 253.416 54.8819C252.889 54.5751 252.29 54.4135 251.68 54.4135C251.07 54.4135 250.471 54.5751 249.944 54.8819C249.417 55.1886 248.981 55.6296 248.68 56.1598C247.87 57.4332 247.44 58.9109 247.44 60.4198C247.44 61.9287 247.87 63.4064 248.68 64.6798C248.99 65.2052 249.427 65.6438 249.951 65.955C250.476 66.2662 251.07 66.4398 251.68 66.4598V66.4598ZM289.78 111.21C287.639 111.23 285.513 110.854 283.51 110.1C281.679 109.402 279.987 108.387 278.51 107.1C277.103 105.868 275.969 104.355 275.18 102.66C274.392 100.933 273.984 99.0576 273.984 97.1598C273.984 95.262 274.392 93.3864 275.18 91.6598C275.967 89.9658 277.101 88.4565 278.51 87.2298C279.985 85.94 281.678 84.9241 283.51 84.2298C285.513 83.4757 287.639 83.0994 289.78 83.1198C291.906 83.1098 294.015 83.4964 296 84.2598C297.832 84.9541 299.525 85.97 301 87.2598C302.415 88.4924 303.565 89.9996 304.38 91.6898C305.193 93.4092 305.615 95.2877 305.615 97.1898C305.615 99.092 305.193 100.97 304.38 102.69C303.563 104.382 302.413 105.892 301 107.13C299.523 108.417 297.83 109.432 296 110.13C294.012 110.873 291.902 111.239 289.78 111.21V111.21ZM289.78 103.21C290.39 103.192 290.985 103.019 291.51 102.707C292.035 102.396 292.472 101.956 292.78 101.43C293.597 100.159 294.031 98.6803 294.031 97.1698C294.031 95.6593 293.597 94.1806 292.78 92.9098C292.481 92.377 292.045 91.9334 291.518 91.6246C290.991 91.3159 290.391 91.1531 289.78 91.1531C289.169 91.1531 288.569 91.3159 288.042 91.6246C287.514 91.9334 287.079 92.377 286.78 92.9098C285.963 94.1806 285.529 95.6593 285.529 97.1698C285.529 98.6803 285.963 100.159 286.78 101.43C287.086 101.959 287.522 102.401 288.047 102.714C288.572 103.028 289.169 103.202 289.78 103.22V103.21Z" fill="#9951FF"/>
<path d="M373.787 154.11C371.65 154.131 369.527 153.754 367.527 153C365.697 152.303 364.004 151.288 362.527 150C361.116 148.772 359.981 147.259 359.197 145.56C358.408 143.834 358 141.958 358 140.06C358 138.162 358.408 136.286 359.197 134.56C359.981 132.861 361.116 131.348 362.527 130.12C364.004 128.832 365.696 127.816 367.527 127.12C369.527 126.366 371.65 125.989 373.787 126.01C375.895 125.994 377.987 126.371 379.957 127.12C381.787 127.819 383.48 128.834 384.957 130.12C386.372 131.355 387.519 132.866 388.327 134.56C389.142 136.279 389.565 138.158 389.565 140.06C389.565 141.962 389.142 143.841 388.327 145.56C387.519 147.254 386.372 148.765 384.957 150C383.48 151.285 381.787 152.301 379.957 153C377.987 153.749 375.895 154.126 373.787 154.11V154.11ZM365.437 184.21L390.567 155.88L412.857 126L420.227 132.66L396.157 160.09L372.807 190.91L365.437 184.21ZM373.787 146.11C374.396 146.09 374.989 145.918 375.514 145.608C376.038 145.299 376.476 144.863 376.787 144.34C377.592 143.063 378.019 141.584 378.019 140.075C378.019 138.566 377.592 137.087 376.787 135.81C376.484 135.282 376.047 134.844 375.521 134.539C374.994 134.234 374.396 134.074 373.787 134.074C373.179 134.074 372.581 134.234 372.054 134.539C371.528 134.844 371.091 135.282 370.787 135.81C369.983 137.087 369.556 138.566 369.556 140.075C369.556 141.584 369.983 143.063 370.787 144.34C371.098 144.864 371.536 145.3 372.061 145.61C372.585 145.919 373.179 146.091 373.787 146.11ZM411.877 190.87C409.74 190.891 407.617 190.514 405.617 189.76C403.787 189.062 402.094 188.047 400.617 186.76C399.206 185.532 398.071 184.019 397.287 182.32C396.505 180.592 396.1 178.717 396.1 176.82C396.1 174.923 396.505 173.048 397.287 171.32C398.076 169.624 399.211 168.112 400.617 166.88C402.096 165.596 403.789 164.581 405.617 163.88C407.617 163.126 409.74 162.749 411.877 162.77C413.985 162.754 416.077 163.131 418.047 163.88C419.878 164.576 421.571 165.592 423.047 166.88C424.457 168.119 425.603 169.629 426.417 171.32C427.239 173.037 427.665 174.917 427.665 176.82C427.665 178.723 427.239 180.603 426.417 182.32C425.609 184.014 424.462 185.525 423.047 186.76C421.574 188.051 419.88 189.067 418.047 189.76C416.077 190.509 413.985 190.886 411.877 190.87V190.87ZM411.877 182.87C412.487 182.851 413.082 182.678 413.607 182.366C414.131 182.055 414.568 181.616 414.877 181.09C415.687 179.817 416.117 178.339 416.117 176.83C416.117 175.321 415.687 173.843 414.877 172.57C414.576 172.04 414.14 171.599 413.613 171.292C413.086 170.985 412.487 170.824 411.877 170.824C411.268 170.824 410.669 170.985 410.142 171.292C409.615 171.599 409.179 172.04 408.877 172.57C408.068 173.843 407.638 175.321 407.638 176.83C407.638 178.339 408.068 179.817 408.877 181.09C409.186 181.617 409.623 182.058 410.147 182.371C410.672 182.684 411.267 182.859 411.877 182.88V182.87Z" fill="#9951FF"/>
<path d="M76.7874 7.11C74.65 7.13058 72.5274 6.75421 70.5274 6C68.6966 5.30322 67.0038 4.28752 65.5274 3C64.1162 1.77188 62.9813 0.258637 62.1974 -1.44C61.4084 -3.16622 61 -5.042 61 -6.94C61 -8.838 61.4084 -10.7138 62.1974 -12.44C62.9813 -14.1386 64.1162 -15.6519 65.5274 -16.88C67.0035 -18.1679 68.6964 -19.1836 70.5274 -19.88C72.5274 -20.6342 74.65 -21.0106 76.7874 -20.99C78.8951 -21.0057 80.9874 -20.6293 82.9574 -19.88C84.7873 -19.1813 86.4798 -18.1658 87.9574 -16.88C89.3717 -15.6452 90.5185 -14.1343 91.3274 -12.44C92.1423 -10.721 92.565 -8.84238 92.565 -6.94C92.565 -5.03762 92.1423 -3.15902 91.3274 -1.44C90.5185 0.254262 89.3717 1.76522 87.9574 3C86.4796 4.28548 84.7871 5.30095 82.9574 6C80.9874 6.7493 78.8951 7.1257 76.7874 7.11V7.11ZM68.4374 37.21L93.5674 8.88L115.857 -21L123.227 -14.34L99.1574 13.09L75.8074 43.91L68.4374 37.21ZM76.7874 -0.889999C77.3958 -0.909854 77.9893 -1.08237 78.5136 -1.39166C79.0378 -1.70096 79.4759 -2.13711 79.7874 -2.66C80.5921 -3.93701 81.0191 -5.41561 81.0191 -6.925C81.0191 -8.4344 80.5921 -9.913 79.7874 -11.19C79.4842 -11.7177 79.0472 -12.156 78.5205 -12.4608C77.9938 -12.7657 77.396 -12.9262 76.7874 -12.9262C76.1789 -12.9262 75.5811 -12.7657 75.0544 -12.4608C74.5276 -12.156 74.0906 -11.7177 73.7874 -11.19C72.9827 -9.913 72.5557 -8.4344 72.5557 -6.925C72.5557 -5.41561 72.9827 -3.93701 73.7874 -2.66C74.0983 -2.13649 74.5362 -1.69984 75.0605 -1.39046C75.5849 -1.08107 76.1789 -0.90894 76.7874 -0.889999ZM114.877 43.87C112.74 43.8906 110.617 43.5142 108.617 42.76C106.787 42.0625 105.094 41.0468 103.617 39.76C102.206 38.5319 101.071 37.0186 100.287 35.32C99.5047 33.5921 99.0999 31.717 99.0999 29.82C99.0999 27.9231 99.5047 26.048 100.287 24.32C101.076 22.6244 102.211 21.1122 103.617 19.88C105.096 18.5962 106.789 17.5809 108.617 16.88C110.617 16.1258 112.74 15.7494 114.877 15.77C116.985 15.7543 119.077 16.1307 121.047 16.88C122.878 17.5764 124.571 18.5921 126.047 19.88C127.457 21.1192 128.603 22.6291 129.417 24.32C130.239 26.0373 130.665 27.9166 130.665 29.82C130.665 31.7235 130.239 33.6028 129.417 35.32C128.609 37.0143 127.462 38.5252 126.047 39.76C124.574 41.051 122.88 42.0671 121.047 42.76C119.077 43.5093 116.985 43.8857 114.877 43.87V43.87ZM114.877 35.87C115.487 35.8509 116.082 35.6777 116.607 35.3664C117.131 35.0551 117.568 34.616 117.877 34.09C118.687 32.8166 119.117 31.3389 119.117 29.83C119.117 28.3211 118.687 26.8434 117.877 25.57C117.576 25.0398 117.14 24.5988 116.613 24.2921C116.086 23.9853 115.487 23.8237 114.877 23.8237C114.268 23.8237 113.669 23.9853 113.142 24.2921C112.615 24.5988 112.179 25.0398 111.877 25.57C111.068 26.8434 110.638 28.3211 110.638 29.83C110.638 31.3389 111.068 32.8166 111.877 34.09C112.186 34.6172 112.623 35.0579 113.147 35.3708C113.672 35.6838 114.267 35.859 114.877 35.88V35.87Z" fill="#9951FF"/>
<path d="M181.787 81.11C179.65 81.1306 177.527 80.7542 175.527 80C173.697 79.3032 172.004 78.2875 170.527 77C169.116 75.7719 167.981 74.2586 167.197 72.56C166.408 70.8338 166 68.958 166 67.06C166 65.162 166.408 63.2862 167.197 61.56C167.981 59.8614 169.116 58.3481 170.527 57.12C172.004 55.8321 173.696 54.8164 175.527 54.12C177.527 53.3658 179.65 52.9894 181.787 53.01C183.895 52.9943 185.987 53.3707 187.957 54.12C189.787 54.8187 191.48 55.8342 192.957 57.12C194.372 58.3548 195.519 59.8657 196.327 61.56C197.142 63.279 197.565 65.1576 197.565 67.06C197.565 68.9624 197.142 70.841 196.327 72.56C195.519 74.2543 194.372 75.7652 192.957 77C191.48 78.2855 189.787 79.301 187.957 80C185.987 80.7493 183.895 81.1257 181.787 81.11V81.11ZM173.437 111.21L198.567 82.88L220.857 53L228.227 59.66L204.157 87.09L180.807 117.91L173.437 111.21ZM181.787 73.11C182.396 73.0901 182.989 72.9176 183.514 72.6083C184.038 72.299 184.476 71.8629 184.787 71.34C185.592 70.063 186.019 68.5844 186.019 67.075C186.019 65.5656 185.592 64.087 184.787 62.81C184.484 62.2823 184.047 61.844 183.521 61.5392C182.994 61.2343 182.396 61.0738 181.787 61.0738C181.179 61.0738 180.581 61.2343 180.054 61.5392C179.528 61.844 179.091 62.2823 178.787 62.81C177.983 64.087 177.556 65.5656 177.556 67.075C177.556 68.5844 177.983 70.063 178.787 71.34C179.098 71.8635 179.536 72.3002 180.061 72.6095C180.585 72.9189 181.179 73.0911 181.787 73.11ZM219.877 117.87C217.74 117.891 215.617 117.514 213.617 116.76C211.787 116.062 210.094 115.047 208.617 113.76C207.206 112.532 206.071 111.019 205.287 109.32C204.505 107.592 204.1 105.717 204.1 103.82C204.1 101.923 204.505 100.048 205.287 98.32C206.076 96.6244 207.211 95.1122 208.617 93.88C210.096 92.5962 211.789 91.5809 213.617 90.88C215.617 90.1258 217.74 89.7494 219.877 89.77C221.985 89.7543 224.077 90.1307 226.047 90.88C227.878 91.5764 229.571 92.5921 231.047 93.88C232.457 95.1192 233.603 96.6291 234.417 98.32C235.239 100.037 235.665 101.917 235.665 103.82C235.665 105.723 235.239 107.603 234.417 109.32C233.609 111.014 232.462 112.525 231.047 113.76C229.574 115.051 227.88 116.067 226.047 116.76C224.077 117.509 221.985 117.886 219.877 117.87V117.87ZM219.877 109.87C220.487 109.851 221.082 109.678 221.607 109.366C222.131 109.055 222.568 108.616 222.877 108.09C223.687 106.817 224.117 105.339 224.117 103.83C224.117 102.321 223.687 100.843 222.877 99.57C222.576 99.0398 222.14 98.5988 221.613 98.2921C221.086 97.9853 220.487 97.8237 219.877 97.8237C219.268 97.8237 218.669 97.9853 218.142 98.2921C217.615 98.5988 217.179 99.0398 216.877 99.57C216.068 100.843 215.638 102.321 215.638 103.83C215.638 105.339 216.068 106.817 216.877 108.09C217.186 108.617 217.623 109.058 218.147 109.371C218.672 109.684 219.267 109.859 219.877 109.88V109.87Z" fill="#9951FF"/>
<path d="M25.7874 165.11C23.65 165.131 21.5274 164.754 19.5274 164C17.6966 163.303 16.0038 162.288 14.5274 161C13.1162 159.772 11.9813 158.259 11.1974 156.56C10.4084 154.834 10 152.958 10 151.06C10 149.162 10.4084 147.286 11.1974 145.56C11.9813 143.861 13.1162 142.348 14.5274 141.12C16.0035 139.832 17.6964 138.816 19.5274 138.12C21.5274 137.366 23.65 136.989 25.7874 137.01C27.8951 136.994 29.9874 137.371 31.9574 138.12C33.7873 138.819 35.4798 139.834 36.9574 141.12C38.3717 142.355 39.5185 143.866 40.3274 145.56C41.1423 147.279 41.565 149.158 41.565 151.06C41.565 152.962 41.1423 154.841 40.3274 156.56C39.5185 158.254 38.3717 159.765 36.9574 161C35.4796 162.285 33.7871 163.301 31.9574 164C29.9874 164.749 27.8951 165.126 25.7874 165.11V165.11ZM17.4374 195.21L42.5674 166.88L64.8574 137L72.2274 143.66L48.1574 171.09L24.8074 201.91L17.4374 195.21ZM25.7874 157.11C26.3958 157.09 26.9893 156.918 27.5136 156.608C28.0378 156.299 28.4759 155.863 28.7874 155.34C29.5921 154.063 30.0191 152.584 30.0191 151.075C30.0191 149.566 29.5921 148.087 28.7874 146.81C28.4842 146.282 28.0472 145.844 27.5205 145.539C26.9938 145.234 26.396 145.074 25.7874 145.074C25.1789 145.074 24.5811 145.234 24.0544 145.539C23.5276 145.844 23.0906 146.282 22.7874 146.81C21.9827 148.087 21.5557 149.566 21.5557 151.075C21.5557 152.584 21.9827 154.063 22.7874 155.34C23.0983 155.864 23.5362 156.3 24.0605 156.61C24.5849 156.919 25.1789 157.091 25.7874 157.11ZM63.8774 201.87C61.74 201.891 59.6174 201.514 57.6174 200.76C55.787 200.062 54.0943 199.047 52.6174 197.76C51.2062 196.532 50.0713 195.019 49.2874 193.32C48.5047 191.592 48.0999 189.717 48.0999 187.82C48.0999 185.923 48.5047 184.048 49.2874 182.32C50.0764 180.624 51.2106 179.112 52.6174 177.88C54.0965 176.596 55.7886 175.581 57.6174 174.88C59.6174 174.126 61.74 173.749 63.8774 173.77C65.9851 173.754 68.0774 174.131 70.0474 174.88C71.8784 175.576 73.5713 176.592 75.0474 177.88C76.457 179.119 77.6031 180.629 78.4174 182.32C79.2385 184.037 79.6647 185.917 79.6647 187.82C79.6647 189.723 79.2385 191.603 78.4174 193.32C77.6085 195.014 76.4617 196.525 75.0474 197.76C73.5736 199.051 71.8801 200.067 70.0474 200.76C68.0774 201.509 65.9851 201.886 63.8774 201.87V201.87ZM63.8774 193.87C64.4871 193.851 65.0821 193.678 65.6067 193.366C66.1313 193.055 66.5685 192.616 66.8774 192.09C67.687 190.817 68.117 189.339 68.117 187.83C68.117 186.321 67.687 184.843 66.8774 183.57C66.5763 183.04 66.14 182.599 65.613 182.292C65.0861 181.985 64.4872 181.824 63.8774 181.824C63.2676 181.824 62.6688 181.985 62.1418 182.292C61.6148 182.599 61.1785 183.04 60.8774 183.57C60.0678 184.843 59.6379 186.321 59.6379 187.83C59.6379 189.339 60.0678 190.817 60.8774 192.09C61.1858 192.617 61.6227 193.058 62.1472 193.371C62.6718 193.684 63.267 193.859 63.8774 193.88V193.87Z" fill="#9951FF"/>
<path d="M149.174 203.11C147.037 203.131 144.914 202.754 142.914 202C141.083 201.303 139.391 200.288 137.914 199C136.503 197.772 135.368 196.259 134.584 194.56C133.795 192.834 133.387 190.958 133.387 189.06C133.387 187.162 133.795 185.286 134.584 183.56C135.368 181.861 136.503 180.348 137.914 179.12C139.39 177.832 141.083 176.816 142.914 176.12C144.914 175.366 147.037 174.989 149.174 175.01C151.282 174.994 153.374 175.371 155.344 176.12C157.174 176.819 158.867 177.834 160.344 179.12C161.758 180.355 162.905 181.866 163.714 183.56C164.529 185.279 164.952 187.158 164.952 189.06C164.952 190.962 164.529 192.841 163.714 194.56C162.905 196.254 161.758 197.765 160.344 199C158.866 200.285 157.174 201.301 155.344 202C153.374 202.749 151.282 203.126 149.174 203.11V203.11ZM140.824 233.21L165.954 204.88L188.244 175L195.614 181.66L171.544 209.09L148.194 239.91L140.824 233.21ZM149.174 195.11C149.782 195.09 150.376 194.918 150.9 194.608C151.425 194.299 151.863 193.863 152.174 193.34C152.979 192.063 153.406 190.584 153.406 189.075C153.406 187.566 152.979 186.087 152.174 184.81C151.871 184.282 151.434 183.844 150.907 183.539C150.381 183.234 149.783 183.074 149.174 183.074C148.566 183.074 147.968 183.234 147.441 183.539C146.914 183.844 146.477 184.282 146.174 184.81C145.369 186.087 144.942 187.566 144.942 189.075C144.942 190.584 145.369 192.063 146.174 193.34C146.485 193.864 146.923 194.3 147.447 194.61C147.972 194.919 148.566 195.091 149.174 195.11ZM187.264 239.87C185.127 239.891 183.004 239.514 181.004 238.76C179.174 238.062 177.481 237.047 176.004 235.76C174.593 234.532 173.458 233.019 172.674 231.32C171.891 229.592 171.487 227.717 171.487 225.82C171.487 223.923 171.891 222.048 172.674 220.32C173.463 218.624 174.597 217.112 176.004 215.88C177.483 214.596 179.175 213.581 181.004 212.88C183.004 212.126 185.127 211.749 187.264 211.77C189.372 211.754 191.464 212.131 193.434 212.88C195.265 213.576 196.958 214.592 198.434 215.88C199.844 217.119 200.99 218.629 201.804 220.32C202.625 222.037 203.051 223.917 203.051 225.82C203.051 227.723 202.625 229.603 201.804 231.32C200.995 233.014 199.848 234.525 198.434 235.76C196.96 237.051 195.267 238.067 193.434 238.76C191.464 239.509 189.372 239.886 187.264 239.87V239.87ZM187.264 231.87C187.874 231.851 188.469 231.678 188.993 231.366C189.518 231.055 189.955 230.616 190.264 230.09C191.074 228.817 191.504 227.339 191.504 225.83C191.504 224.321 191.074 222.843 190.264 221.57C189.963 221.04 189.527 220.599 189 220.292C188.473 219.985 187.874 219.824 187.264 219.824C186.654 219.824 186.055 219.985 185.529 220.292C185.002 220.599 184.565 221.04 184.264 221.57C183.455 222.843 183.025 224.321 183.025 225.83C183.025 227.339 183.455 228.817 184.264 230.09C184.573 230.617 185.009 231.058 185.534 231.371C186.058 231.684 186.654 231.859 187.264 231.88V231.87Z" fill="#9951FF"/>
<path d="M344.29 -22.8702C344.332 -19.1971 343.729 -15.5452 342.51 -12.0802C341.423 -8.95192 339.754 -6.05767 337.59 -3.55016C335.518 -1.20005 332.977 0.69045 330.13 1.99984C327.192 3.34678 323.993 4.02964 320.76 3.99984C317.528 4.02964 314.329 3.34678 311.39 1.99984C308.539 0.681313 305.997 -1.2234 303.93 -3.59015C301.772 -6.0877 300.099 -8.9673 299 -12.0802C297.789 -15.547 297.191 -19.1981 297.23 -22.8702C297.191 -26.5389 297.79 -30.1865 299 -33.6502C300.095 -36.7772 301.767 -39.6707 303.93 -42.1802C306 -44.5561 308.54 -46.4766 311.39 -47.8202C314.325 -49.1792 317.527 -49.8627 320.76 -49.8202C323.994 -49.8627 327.196 -49.1792 330.13 -47.8202C332.979 -46.4738 335.519 -44.5537 337.59 -42.1802C339.754 -39.6726 341.423 -36.7784 342.51 -33.6502C343.729 -30.1884 344.331 -26.5399 344.29 -22.8702V-22.8702ZM327.24 -22.8702C327.362 -25.7605 326.735 -28.6334 325.42 -31.2102C324.21 -33.3402 322.65 -34.4102 320.76 -34.4102C318.87 -34.4102 317.13 -33.3402 315.92 -31.2102C314.605 -28.6334 313.978 -25.7605 314.1 -22.8702C313.973 -19.9889 314.6 -17.1244 315.92 -14.5602C317.13 -12.4602 318.75 -11.4102 320.76 -11.4102C322.77 -11.4102 324.21 -12.4602 325.42 -14.5602C326.74 -17.1244 327.368 -19.9889 327.24 -22.8702V-22.8702Z" fill="#9951FF"/>
<path d="M366.76 -32.7201C364.62 -32.6997 362.494 -33.076 360.49 -33.8301C358.658 -34.5244 356.965 -35.5404 355.49 -36.8301C354.079 -38.0582 352.944 -39.5715 352.16 -41.2701C351.358 -42.9921 350.948 -44.8706 350.96 -46.7701C350.948 -48.6729 351.358 -50.5546 352.16 -52.2801C352.949 -53.9757 354.083 -55.4879 355.49 -56.7201C356.967 -58.007 358.66 -59.0226 360.49 -59.7201C362.494 -60.4742 364.62 -60.8506 366.76 -60.8301C368.868 -60.8444 370.96 -60.4681 372.93 -59.7201C374.761 -59.0226 376.453 -58.007 377.93 -56.7201C379.343 -55.4819 380.493 -53.9719 381.31 -52.2801C382.139 -50.5622 382.563 -48.6774 382.55 -46.7701C382.563 -44.8661 382.139 -42.9845 381.31 -41.2701C380.498 -39.5754 379.347 -38.0645 377.93 -36.8301C376.455 -35.5404 374.762 -34.5244 372.93 -33.8301C370.96 -33.0822 368.868 -32.7058 366.76 -32.7201V-32.7201ZM358.41 -2.62012L383.54 -30.9501L405.83 -60.8701L413.2 -54.2101L389.13 -26.7701L365.78 3.99988L358.41 -2.62012ZM366.76 -40.7101C367.37 -40.7273 367.966 -40.8998 368.491 -41.2113C369.016 -41.5227 369.453 -41.9629 369.76 -42.4901C370.61 -43.7448 371.044 -45.2352 371 -46.7501C371.045 -48.2606 370.615 -49.7471 369.77 -51.0001C369.463 -51.5274 369.026 -51.9675 368.501 -52.279C367.976 -52.5904 367.38 -52.7629 366.77 -52.7801C366.16 -52.7629 365.564 -52.5904 365.039 -52.279C364.515 -51.9675 364.078 -51.5274 363.77 -51.0001C362.916 -49.7466 362.479 -48.2562 362.52 -46.7401C362.479 -45.2241 362.916 -43.7336 363.77 -42.4801C364.078 -41.9561 364.514 -41.5189 365.037 -41.2093C365.56 -40.8997 366.153 -40.728 366.76 -40.7101ZM404.85 3.99988C402.713 4.02046 400.59 3.64409 398.59 2.88988C396.758 2.19697 395.064 1.18087 393.59 -0.110119C392.179 -1.33824 391.044 -2.85148 390.26 -4.55012C389.445 -6.25211 389.015 -8.11293 389 -10.0001C388.99 -11.9027 389.399 -13.7842 390.2 -15.5101C390.989 -17.2057 392.123 -18.7179 393.53 -19.9501C395.006 -21.238 396.699 -22.2537 398.53 -22.9501C400.553 -23.6912 402.697 -24.0474 404.85 -24.0001C406.95 -24.0197 409.035 -23.6502 411 -22.9101C412.83 -22.2114 414.523 -21.1959 416 -19.9101C417.41 -18.671 418.556 -17.161 419.37 -15.4701C420.209 -13.768 420.65 -11.8976 420.66 -10.0001C420.669 -8.09534 420.242 -6.21381 419.41 -4.50012C418.597 -2.78069 417.436 -1.24848 416 -0.000118256C414.525 1.28878 412.832 2.30464 411 2.99988C409.029 3.70926 406.944 4.04828 404.85 3.99988V3.99988ZM404.85 -4.00012C405.46 -4.02011 406.054 -4.19375 406.579 -4.50493C407.103 -4.81611 407.541 -5.25474 407.85 -5.78012C408.7 -7.02094 409.141 -8.49647 409.11 -10.0001C409.155 -11.5152 408.721 -13.0058 407.87 -14.2601C407.561 -14.7855 407.123 -15.2241 406.599 -15.5353C406.074 -15.8465 405.48 -16.0201 404.87 -16.0401C404.261 -16.0211 403.666 -15.8478 403.141 -15.5365C402.616 -15.2253 402.179 -14.7861 401.87 -14.2601C401.005 -13.0105 400.557 -11.5195 400.59 -10.0001C400.546 -8.48508 400.979 -6.99448 401.83 -5.74012C402.14 -5.20944 402.58 -4.76653 403.108 -4.45329C403.636 -4.14006 404.236 -3.96687 404.85 -3.95012V-4.00012Z" fill="#9951FF"/>
<path d="M421 51.4498C421.037 55.1225 420.435 58.7735 419.22 62.2398C418.13 65.3686 416.457 68.2628 414.29 70.7698C412.224 73.1365 409.682 75.0413 406.83 76.3598C403.884 77.678 400.693 78.3594 397.465 78.3594C394.238 78.3594 391.046 77.678 388.1 76.3598C385.248 75.0413 382.707 73.1365 380.64 70.7698C378.474 68.2628 376.801 65.3686 375.71 62.2398C374.52 58.7693 373.941 55.1183 374 51.4498C373.962 47.7779 374.561 44.1271 375.77 40.6598C376.863 37.5351 378.536 34.6446 380.7 32.1398C382.77 29.7639 385.31 27.8434 388.16 26.4998C391.099 25.1558 394.293 24.4602 397.525 24.4602C400.757 24.4602 403.951 25.1558 406.89 26.4998C409.74 27.8434 412.281 29.7639 414.35 32.1398C416.515 34.6446 418.187 37.5351 419.28 40.6598C420.473 44.1301 421.054 47.7808 421 51.4498V51.4498ZM403.95 51.4498C404.072 48.5594 403.445 45.6866 402.13 43.1098C400.91 40.9765 399.357 39.9098 397.47 39.9098C395.47 39.9098 393.857 40.9765 392.63 43.1098C391.31 45.6849 390.683 48.559 390.81 51.4498C390.678 54.3314 391.306 57.1971 392.63 59.7598C393.844 61.8598 395.457 62.9098 397.47 62.9098C399.357 62.9098 400.91 61.8598 402.13 59.7598C403.467 57.2002 404.112 54.3355 404 51.4498H403.95Z" fill="#9951FF"/>
<path d="M443.47 41.5999C441.333 41.6205 439.21 41.2442 437.21 40.49C435.378 39.7957 433.685 38.7797 432.21 37.49C430.793 36.2669 429.657 34.7524 428.88 33.0499C428.091 31.3237 427.683 29.448 427.683 27.55C427.683 25.6519 428.091 23.7762 428.88 22.05C429.66 20.3488 430.795 18.8347 432.21 17.61C433.687 16.3231 435.38 15.3075 437.21 14.61C439.21 13.8557 441.333 13.4794 443.47 13.5C445.578 13.4843 447.67 13.8607 449.64 14.61C451.471 15.3063 453.164 16.3221 454.64 17.61C456.05 18.8507 457.193 20.3646 458 22.06C458.821 23.7772 459.247 25.6565 459.247 27.56C459.247 29.4634 458.821 31.3427 458 33.06C457.191 34.7542 456.044 36.2652 454.63 37.5C453.156 38.7909 451.463 39.807 449.63 40.5C447.662 41.2446 445.574 41.6176 443.47 41.5999V41.5999ZM435.13 71.6999L460.25 43.3699L482.54 13.45L489.91 20.11L465.85 47.5499L442.5 78.36L435.13 71.6999ZM443.47 33.61C444.079 33.589 444.674 33.415 445.198 33.1039C445.722 32.7928 446.16 32.3547 446.47 31.83C447.321 30.5756 447.755 29.085 447.71 27.57C447.753 26.052 447.319 24.5589 446.47 23.3C446.167 22.7723 445.73 22.3339 445.203 22.0291C444.676 21.7243 444.079 21.5638 443.47 21.5638C442.861 21.5638 442.264 21.7243 441.737 22.0291C441.21 22.3339 440.773 22.7723 440.47 23.3C439.621 24.5589 439.187 26.052 439.23 27.57C439.185 29.085 439.619 30.5756 440.47 31.83C440.781 32.3541 441.219 32.7917 441.743 33.1027C442.267 33.4137 442.861 33.5881 443.47 33.61V33.61ZM481.57 78.36C479.433 78.3805 477.31 78.0042 475.31 77.25C473.477 76.557 471.784 75.5409 470.31 74.25C468.908 73.0256 467.78 71.5196 467 69.83C466.211 68.1037 465.803 66.228 465.803 64.33C465.803 62.432 466.211 60.5562 467 58.83C467.789 57.1344 468.923 55.6221 470.33 54.3899C471.806 53.1021 473.499 52.0863 475.33 51.3899C477.33 50.6357 479.453 50.2594 481.59 50.2799C483.698 50.2656 485.79 50.642 487.76 51.3899C489.59 52.0875 491.283 53.1031 492.76 54.3899C494.173 55.6281 495.323 57.1381 496.14 58.83C496.955 60.549 497.378 62.4276 497.378 64.33C497.378 66.2323 496.955 68.1109 496.14 69.83C495.327 71.5247 494.177 73.0356 492.76 74.2699C491.285 75.5597 489.592 76.5757 487.76 77.2699C485.782 78.0135 483.683 78.3831 481.57 78.36ZM481.57 70.36C482.18 70.3428 482.776 70.1703 483.301 69.8588C483.826 69.5474 484.263 69.1072 484.57 68.58C485.387 67.3092 485.821 65.8305 485.821 64.32C485.821 62.8094 485.387 61.3307 484.57 60.06C484.271 59.5271 483.836 59.0835 483.308 58.7748C482.781 58.466 482.181 58.3033 481.57 58.3033C480.959 58.3033 480.359 58.466 479.832 58.7748C479.305 59.0835 478.869 59.5271 478.57 60.06C477.753 61.3307 477.319 62.8094 477.319 64.32C477.319 65.8305 477.753 67.3092 478.57 68.58C478.876 69.1091 479.313 69.5512 479.838 69.8645C480.363 70.1777 480.959 70.3517 481.57 70.37V70.36Z" fill="#9951FF"/>
<path d="M-15.9197 32.7298C-18.0571 32.7504 -20.1797 32.3741 -22.1797 31.6198C-24.0101 30.9223 -25.7029 29.9067 -27.1797 28.6198C-28.5964 27.3968 -29.7323 25.8823 -30.5097 24.1798C-31.3118 22.4544 -31.7216 20.5726 -31.7097 18.6698C-31.7205 16.7704 -31.3107 14.8922 -30.5097 13.1698C-29.7323 11.4674 -28.5964 9.95288 -27.1797 8.72984C-25.7025 7.44352 -24.0099 6.42795 -22.1797 5.72984C-20.1797 4.97564 -18.0571 4.59926 -15.9197 4.61984C-13.8089 4.6201 -11.7165 5.01347 -9.74971 5.77984C-7.91891 6.47662 -6.22607 7.49232 -4.74971 8.77984C-3.32741 10.0065 -2.17045 11.5105 -1.34971 13.1998C-0.526898 14.9162 -0.102988 16.7965 -0.109709 18.6998C-0.101824 20.6066 -0.525755 22.4903 -1.34971 24.2098C-2.16227 25.9046 -3.31245 27.4154 -4.72971 28.6498C-6.20582 29.9377 -7.89872 30.9534 -9.72971 31.6498C-11.708 32.3914 -13.8072 32.7576 -15.9197 32.7298ZM-24.2597 62.8398L0.870289 34.5098L23.1503 4.58984L30.5203 11.2498L6.46029 38.6798L-16.8897 69.4998L-24.2597 62.8398ZM-15.9197 24.7398C-15.3112 24.7209 -14.7172 24.5488 -14.1928 24.2394C-13.6684 23.93 -13.2306 23.4934 -12.9197 22.9698C-12.0706 21.7109 -11.637 20.2177 -11.6797 18.6998C-11.6384 17.1852 -12.072 15.6957 -12.9197 14.4398C-13.2306 13.9163 -13.6684 13.4797 -14.1928 13.1703C-14.7172 12.8609 -15.3112 12.6888 -15.9197 12.6698C-16.5281 12.6897 -17.1216 12.8622 -17.6459 13.1715C-18.1701 13.4808 -18.6082 13.917 -18.9197 14.4398C-19.7674 15.6957 -20.201 17.1852 -20.1597 18.6998C-20.2147 20.2257 -19.7878 21.7302 -18.9397 22.9998C-18.6227 23.52 -18.18 23.9519 -17.6522 24.256C-17.1244 24.5601 -16.5287 24.7265 -15.9197 24.7398V24.7398ZM22.1803 69.4998C20.0429 69.5204 17.9203 69.144 15.9203 68.3898C14.0895 67.6931 12.3966 66.6774 10.9203 65.3898C9.50748 64.1782 8.36599 62.6824 7.57029 60.9998C6.78125 59.2736 6.37287 57.3978 6.37287 55.4998C6.37287 53.6018 6.78125 51.7261 7.57029 49.9998C8.35414 48.3012 9.48908 46.788 10.9003 45.5598C12.3764 44.272 14.0693 43.2562 15.9003 42.5598C17.9003 41.8056 20.0229 41.4293 22.1603 41.4498C24.2679 41.4355 26.3598 41.8119 28.3303 42.5598C30.1591 43.2608 31.8512 44.276 33.3303 45.5598C34.7561 46.7934 35.9163 48.304 36.7403 49.9998C37.5552 51.7189 37.9779 53.5975 37.9779 55.4998C37.9779 57.4022 37.5552 59.2808 36.7403 60.9998C35.928 62.6921 34.7817 64.2024 33.3703 65.4398C31.891 66.7233 30.1989 67.7386 28.3703 68.4398C26.3903 69.1732 24.2914 69.5326 22.1803 69.4998ZM22.1803 61.4998C22.7886 61.48 23.3822 61.3075 23.9065 60.9982C24.4307 60.6889 24.8687 60.2527 25.1803 59.7298C25.985 58.4528 26.412 56.9742 26.412 55.4648C26.412 53.9554 25.985 52.4768 25.1803 51.1998C24.8771 50.6722 24.4401 50.2338 23.9134 49.929C23.3867 49.6242 22.7889 49.4637 22.1803 49.4637C21.5717 49.4637 20.9739 49.6242 20.4472 49.929C19.9205 50.2338 19.4835 50.6722 19.1803 51.1998C18.364 52.4726 17.9301 53.9528 17.9301 55.4648C17.9301 56.9769 18.364 58.4571 19.1803 59.7298C19.4911 60.2534 19.929 60.69 20.4534 60.9994C20.9778 61.3088 21.5717 61.4809 22.1803 61.4998Z" fill="#9951FF"/>
<path d="M60.8001 107.05C58.6627 107.07 56.5401 106.694 54.5401 105.94C52.7102 105.241 51.0177 104.226 49.5401 102.94C48.1289 101.712 46.994 100.199 46.2101 98.4999C45.4211 96.7737 45.0127 94.8979 45.0127 92.9999C45.0127 91.1019 45.4211 89.2261 46.2101 87.4999C46.994 85.8013 48.1289 84.288 49.5401 83.0599C51.0155 81.771 52.7086 80.7551 54.5401 80.0599C56.5433 79.3227 58.6659 78.9633 60.8001 78.9999C62.9173 78.9773 65.02 79.3503 67.0001 80.0999C68.8317 80.7951 70.5248 81.811 72.0001 83.0999C73.4144 84.3347 74.5612 85.8456 75.3701 87.5399C76.1912 89.2571 76.6174 91.1364 76.6174 93.0399C76.6174 94.9434 76.1912 96.8227 75.3701 98.5399C74.5635 100.241 73.4166 101.759 72.0001 103C70.5225 104.286 68.83 105.301 67.0001 106C65.0167 106.732 62.9141 107.089 60.8001 107.05V107.05ZM52.4501 137.16L77.5801 108.83L99.8701 78.8999L107.24 85.5599L83.1801 113L59.8201 143.81L52.4501 137.16ZM60.8001 99.0599C61.4096 99.0399 62.0042 98.8663 62.5287 98.5551C63.0531 98.2439 63.4905 97.8053 63.8001 97.2799C64.6097 96.0065 65.0397 94.5288 65.0397 93.0199C65.0397 91.511 64.6097 90.0333 63.8001 88.7599C63.4969 88.2322 63.0599 87.7939 62.5332 87.4891C62.0065 87.1842 61.4087 87.0237 60.8001 87.0237C60.1916 87.0237 59.5938 87.1842 59.067 87.4891C58.5403 87.7939 58.1033 88.2322 57.8001 88.7599C56.9905 90.0333 56.5606 91.511 56.5606 93.0199C56.5606 94.5288 56.9905 96.0065 57.8001 97.2799C58.109 97.8059 58.5462 98.245 59.0709 98.5563C59.5955 98.8676 60.1904 99.0408 60.8001 99.0599ZM98.8901 143.81C96.7539 143.828 94.6323 143.455 92.6301 142.71C90.8 142.012 89.1073 140.996 87.6301 139.71C86.216 138.485 85.0805 136.971 84.3001 135.27C83.5111 133.544 83.1027 131.668 83.1027 129.77C83.1027 127.872 83.5111 125.996 84.3001 124.27C85.0805 122.569 86.216 121.055 87.6301 119.83C89.107 118.543 90.7997 117.527 92.6301 116.83C94.6304 116.077 96.7528 115.7 98.8901 115.72C100.998 115.704 103.09 116.081 105.06 116.83C106.891 117.526 108.584 118.542 110.06 119.83C111.477 121.064 112.628 122.575 113.44 124.27C114.255 125.989 114.678 127.868 114.678 129.77C114.678 131.672 114.255 133.551 113.44 135.27C112.628 136.965 111.477 138.476 110.06 139.71C108.584 140.997 106.891 142.013 105.06 142.71C103.088 143.451 100.997 143.824 98.8901 143.81V143.81ZM98.8901 135.81C99.4987 135.791 100.093 135.619 100.617 135.309C101.141 135 101.579 134.563 101.89 134.04C102.706 132.767 103.14 131.287 103.14 129.775C103.14 128.263 102.706 126.783 101.89 125.51C101.587 124.982 101.15 124.544 100.623 124.239C100.096 123.934 99.4987 123.774 98.8901 123.774C98.2816 123.774 97.6838 123.934 97.157 124.239C96.6303 124.544 96.1933 124.982 95.8901 125.51C95.0854 126.787 94.6584 128.265 94.6584 129.775C94.6584 131.284 95.0854 132.763 95.8901 134.04C96.2005 134.565 96.638 135.003 97.1623 135.314C97.6866 135.625 98.2808 135.799 98.8901 135.82V135.81Z" fill="#9951FF"/>
<path d="M273.787 147.15C271.65 147.171 269.527 146.794 267.527 146.04C265.696 145.344 264.004 144.328 262.527 143.04C261.121 141.808 259.986 140.296 259.197 138.6C258.408 136.874 258 134.998 258 133.1C258 131.202 258.408 129.326 259.197 127.6C259.981 125.901 261.116 124.388 262.527 123.16C264.001 121.869 265.695 120.853 267.527 120.16C269.527 119.406 271.65 119.029 273.787 119.05C275.895 119.036 277.987 119.412 279.957 120.16C281.789 120.854 283.483 121.87 284.957 123.16C286.375 124.394 287.525 125.905 288.337 127.6C289.152 129.319 289.575 131.198 289.575 133.1C289.575 135.002 289.152 136.881 288.337 138.6C287.52 140.292 286.371 141.802 284.957 143.04C283.481 144.327 281.788 145.342 279.957 146.04C277.987 146.788 275.895 147.164 273.787 147.15V147.15ZM265.437 177.25L290.567 148.93L312.857 119L320.227 125.66L296.157 153.1L272.807 183.91L265.437 177.25ZM273.787 139.16C274.398 139.143 274.993 138.97 275.518 138.659C276.043 138.347 276.48 137.907 276.787 137.38C277.604 136.109 278.038 134.631 278.038 133.12C278.038 131.609 277.604 130.131 276.787 128.86C276.488 128.327 276.053 127.884 275.526 127.575C274.998 127.266 274.398 127.103 273.787 127.103C273.176 127.103 272.576 127.266 272.049 127.575C271.522 127.884 271.086 128.327 270.787 128.86C269.971 130.131 269.537 131.609 269.537 133.12C269.537 134.631 269.971 136.109 270.787 137.38C271.095 137.907 271.532 138.347 272.057 138.659C272.582 138.97 273.177 139.143 273.787 139.16ZM311.877 183.91C309.74 183.931 307.617 183.554 305.617 182.8C303.788 182.101 302.095 181.086 300.617 179.8C299.21 178.595 298.069 177.11 297.267 175.44C296.478 173.714 296.07 171.838 296.07 169.94C296.07 168.042 296.478 166.166 297.267 164.44C298.051 162.741 299.186 161.228 300.597 160C302.073 158.711 303.766 157.695 305.597 157C307.597 156.246 309.72 155.869 311.857 155.89C313.965 155.874 316.057 156.251 318.027 157C319.859 157.695 321.552 158.711 323.027 160C324.442 161.235 325.589 162.746 326.397 164.44C327.219 166.157 327.645 168.037 327.645 169.94C327.645 171.843 327.219 173.723 326.397 175.44C325.586 177.133 324.439 178.643 323.027 179.88C321.55 181.166 319.857 182.181 318.027 182.88C316.058 183.6 313.973 183.949 311.877 183.91V183.91ZM311.877 175.91C312.487 175.89 313.082 175.716 313.606 175.405C314.13 175.094 314.568 174.655 314.877 174.13C315.687 172.857 316.117 171.379 316.117 169.87C316.117 168.361 315.687 166.883 314.877 165.61C314.576 165.08 314.14 164.639 313.613 164.332C313.086 164.025 312.487 163.864 311.877 163.864C311.268 163.864 310.669 164.025 310.142 164.332C309.615 164.639 309.179 165.08 308.877 165.61C308.068 166.883 307.638 168.361 307.638 169.87C307.638 171.379 308.068 172.857 308.877 174.13C309.185 174.658 309.622 175.099 310.146 175.412C310.671 175.725 311.267 175.9 311.877 175.92V175.91Z" fill="#9951FF"/>
</g>
<path d="M25.3799 175.33V16.3999" stroke="#C5A1FF" stroke-width="2" stroke-miterlimit="10" stroke-linecap="round" stroke-dasharray="6 6"/>
<path d="M410.3 16.3999V175.33" stroke="#C5A1FF" stroke-width="2" stroke-miterlimit="10" stroke-linecap="round" stroke-dasharray="6 6"/>
<path d="M113.43 166.03L328.18 140.52" stroke="#FF66CC" stroke-width="3.31" stroke-miterlimit="10" stroke-linecap="round"/>
<path d="M113.43 57.22L328.18 31.7" stroke="#FF66CC" stroke-width="3.31" stroke-miterlimit="10" stroke-linecap="round"/>
<path d="M65.876 127.232C66.3705 131.216 69.4651 133.627 73.4496 133.133C77.434 132.638 79.7727 129.552 79.2781 125.568L76.3375 101.879L97.0883 125.638C99.5579 128.347 102.282 129.554 105.397 129.167C110.251 128.564 113.36 124.574 112.758 119.72L108.243 83.3534C107.749 79.3689 104.591 77.0392 100.751 77.5158C96.7668 78.0104 94.3467 81.0326 94.8413 85.017L97.665 107.764L77.6921 84.939C75.3674 82.2116 72.5706 81.014 69.3106 81.4186C64.0946 82.0661 60.7951 86.3008 61.4336 91.4443L65.876 127.232ZM126.109 74.3681C121.98 74.8807 119.37 78.1471 119.882 82.2764L124.522 119.658C125.035 123.787 128.365 126.316 132.494 125.803C136.551 125.3 139.162 122.033 138.649 117.904L134.009 80.5229C133.496 76.3936 130.166 73.8645 126.109 74.3681ZM141.242 79.6985C141.377 80.7852 141.73 81.8449 142.299 82.8776L160.155 114.72C162.876 119.457 166.378 121.597 170.725 121.058C175.072 120.518 177.944 117.587 179.425 112.327L188.908 77.3126C189.38 75.7828 189.508 74.4429 189.373 73.3562C188.878 69.3718 185.711 66.9696 181.727 67.4642C178.467 67.8689 176.491 69.7324 175.664 73.1453L168.857 103.047L155.253 76.4146C153.418 72.8908 150.866 71.2951 147.533 71.7087C143.404 72.2213 140.73 75.5692 141.242 79.6985ZM200.873 109.959C201.368 113.944 204.625 116.482 208.609 115.987L235.269 112.678C238.746 112.246 240.903 109.477 240.463 105.928C240.031 102.45 237.262 100.293 233.785 100.725L214.008 103.18L212.974 94.8486L228.766 92.8882C232.026 92.4835 234.066 89.95 233.643 86.5451C233.239 83.2852 230.633 81.2547 227.373 81.6594L211.58 83.6198L210.681 76.3754L229.733 74.0103C233.211 73.5787 235.368 70.8098 234.927 67.2601C234.496 63.7828 231.727 61.6254 228.25 62.0571L202.315 65.2764C198.33 65.771 195.792 69.0285 196.287 73.0129L200.873 109.959ZM249.121 104.338C249.616 108.322 252.874 110.86 256.858 110.366C260.842 109.871 263.38 106.614 262.886 102.629L261.672 92.8494L266.381 92.2649L278.249 104.915C279.851 106.555 281.779 107.272 284.024 106.994C287.864 106.517 290.203 103.431 289.726 99.5919C289.537 98.0705 288.769 96.6212 287.421 95.2437L280.491 88.0123C286.009 84.4586 288.983 78.793 288.129 71.9108C287.491 66.7673 285.248 62.9262 281.312 60.2518C277.448 57.5683 272.686 56.5411 267.035 57.2425L250.518 59.2928C246.534 59.7874 243.996 63.0449 244.49 67.0293L249.121 104.338ZM258.839 70.0296L266.808 69.0404C271.155 68.5008 273.987 70.5767 274.455 74.3438C274.922 78.1109 272.683 80.8163 268.337 81.3559L260.368 82.345L258.839 70.0296ZM298.016 97.9743C298.511 101.959 301.687 104.433 305.671 103.939L328.419 101.115C331.679 100.71 333.7 98.032 333.296 94.772C332.891 91.512 330.285 89.4816 327.025 89.8862L314.854 91.397L322.241 82.7562C325.259 79.2185 327.299 76.0964 328.433 73.381C329.559 70.5932 329.905 67.4606 329.474 63.9833C328.943 59.7091 326.909 56.3572 323.298 53.9365C319.678 51.4434 315.442 50.4981 310.443 51.1186C307.473 51.4873 304.855 52.3272 302.509 53.5747C300.235 54.8132 298.55 56.0522 297.58 57.1289C296.611 58.2056 295.722 59.3457 295.06 60.5313C294.163 62.1875 293.763 63.7083 293.916 64.9398C294.165 69.911 300.927 72.2347 304.689 66.9863C306.656 64.4618 308.622 63.1143 310.578 62.8715C313.838 62.4669 316.281 64.3704 316.641 67.2682C317.027 70.3833 316.021 72.3472 312.649 76.5909L300.068 91.982C298.473 93.9454 297.765 95.9459 298.016 97.9743ZM341.517 89.7057C341.724 91.3719 343.062 93.2654 344.438 94.2716C348.953 97.4627 353.814 98.6983 359.103 98.0418C364.826 97.3314 369.174 95.0262 372.301 91.1807C375.419 87.2628 376.682 82.6189 376.007 77.1856C375.441 72.6216 373.506 68.8895 370.149 66.1431C366.792 63.3967 362.755 62.2795 357.901 62.882C355.221 63.2147 352.984 64.1545 351.054 65.7917L350.127 58.33L365.558 56.4146C368.818 56.0099 370.857 53.4764 370.435 50.0715C370.03 46.8115 367.424 44.7811 364.164 45.1857L344.025 47.6857C340.04 48.1803 337.502 51.4377 337.997 55.4222L340.11 72.4465C340.65 76.7931 343.835 79.3402 348.109 78.8096C349.63 78.6208 351.288 77.753 353.082 76.2062C354.278 75.175 355.528 74.5784 356.76 74.4256C360.237 73.9939 362.653 76.2687 363.012 79.1664C363.471 82.8611 361.386 85.6209 357.402 86.1155C354.866 86.4303 353.753 85.7593 351.536 84.4898C349.635 83.4016 347.96 82.9474 346.584 83.1183C343.107 83.5499 341.085 86.2283 341.517 89.7057Z" fill="#FF66CC"/>
<path d="M66.876 122.232C67.3705 126.216 70.4651 128.627 74.4496 128.133C78.434 127.638 80.7727 124.552 80.2781 120.568L77.3375 96.8788L98.0883 120.638C100.558 123.347 103.282 124.554 106.397 124.167C111.251 123.564 114.36 119.574 113.758 114.72L109.243 78.3534C108.749 74.3689 105.591 72.0392 101.751 72.5158C97.7668 73.0104 95.3467 76.0326 95.8413 80.017L98.665 102.764L78.6921 79.939C76.3674 77.2116 73.5706 76.014 70.3106 76.4186C65.0946 77.0661 61.7951 81.3008 62.4336 86.4443L66.876 122.232ZM127.109 69.3681C122.98 69.8807 120.37 73.1471 120.882 77.2764L125.522 114.658C126.035 118.787 129.365 121.316 133.494 120.803C137.551 120.3 140.162 117.033 139.649 112.904L135.009 75.5229C134.496 71.3936 131.166 68.8645 127.109 69.3681ZM142.242 74.6985C142.377 75.7852 142.73 76.8449 143.299 77.8776L161.155 109.72C163.876 114.457 167.378 116.597 171.725 116.058C176.072 115.518 178.944 112.587 180.425 107.327L189.908 72.3126C190.38 70.7828 190.508 69.4429 190.373 68.3562C189.878 64.3718 186.711 61.9696 182.727 62.4642C179.467 62.8689 177.491 64.7324 176.664 68.1453L169.857 98.0466L156.253 71.4146C154.418 67.8908 151.866 66.2951 148.533 66.7087C144.404 67.2213 141.73 70.5692 142.242 74.6985ZM201.873 104.959C202.368 108.944 205.625 111.482 209.609 110.987L236.269 107.678C239.746 107.246 241.903 104.477 241.463 100.928C241.031 97.4504 238.262 95.293 234.785 95.7247L215.008 98.1796L213.974 89.8486L229.766 87.8882C233.026 87.4835 235.066 84.95 234.643 81.5451C234.239 78.2852 231.633 76.2547 228.373 76.6594L212.58 78.6198L211.681 71.3754L230.733 69.0103C234.211 68.5787 236.368 65.8098 235.927 62.2601C235.496 58.7828 232.727 56.6254 229.25 57.0571L203.315 60.2764C199.33 60.771 196.792 64.0285 197.287 68.0129L201.873 104.959ZM250.121 99.338C250.616 103.322 253.874 105.86 257.858 105.366C261.842 104.871 264.38 101.614 263.886 97.6294L262.672 87.8494L267.381 87.2649L279.249 99.9152C280.851 101.555 282.779 102.272 285.024 101.994C288.864 101.517 291.203 98.4314 290.726 94.5919C290.537 93.0705 289.769 91.6212 288.421 90.2437L281.491 83.0123C287.009 79.4586 289.983 73.793 289.129 66.9108C288.491 61.7673 286.248 57.9262 282.312 55.2518C278.448 52.5683 273.686 51.5411 268.035 52.2425L251.518 54.2928C247.534 54.7874 244.996 58.0449 245.49 62.0293L250.121 99.338ZM259.839 65.0296L267.808 64.0404C272.155 63.5008 274.987 65.5767 275.455 69.3438C275.922 73.1109 273.683 75.8163 269.337 76.3559L261.368 77.345L259.839 65.0296ZM299.016 92.9743C299.511 96.9587 302.687 99.4333 306.671 98.9387L329.419 96.1151C332.679 95.7104 334.7 93.032 334.296 89.772C333.891 86.512 331.285 84.4816 328.025 84.8862L315.854 86.397L323.241 77.7562C326.259 74.2185 328.299 71.0964 329.433 68.381C330.559 65.5932 330.905 62.4606 330.474 58.9833C329.943 54.7091 327.909 51.3572 324.298 48.9365C320.678 46.4434 316.442 45.4981 311.443 46.1186C308.473 46.4873 305.855 47.3272 303.509 48.5747C301.235 49.8132 299.55 51.0522 298.58 52.1289C297.611 53.2056 296.722 54.3457 296.06 55.5313C295.163 57.1875 294.763 58.7083 294.916 59.9398C295.165 64.911 301.927 67.2347 305.689 61.9863C307.656 59.4618 309.622 58.1143 311.578 57.8715C314.838 57.4669 317.281 59.3704 317.641 62.2682C318.027 65.3833 317.021 67.3472 313.649 71.5909L301.068 86.982C299.473 88.9454 298.765 90.9459 299.016 92.9743ZM342.517 84.7057C342.724 86.3719 344.062 88.2654 345.438 89.2716C349.953 92.4627 354.814 93.6983 360.103 93.0418C365.826 92.3314 370.174 90.0262 373.301 86.1807C376.419 82.2628 377.682 77.6189 377.007 72.1856C376.441 67.6216 374.506 63.8895 371.149 61.1431C367.792 58.3967 363.755 57.2795 358.901 57.882C356.221 58.2147 353.984 59.1545 352.054 60.7917L351.127 53.33L366.558 51.4146C369.818 51.0099 371.857 48.4764 371.435 45.0715C371.03 41.8115 368.424 39.7811 365.164 40.1857L345.025 42.6857C341.04 43.1803 338.502 46.4377 338.997 50.4222L341.11 67.4465C341.65 71.7931 344.835 74.3402 349.109 73.8096C350.63 73.6208 352.288 72.753 354.082 71.2062C355.278 70.175 356.528 69.5784 357.76 69.4256C361.237 68.9939 363.653 71.2687 364.012 74.1664C364.471 77.8611 362.386 80.6209 358.402 81.1155C355.866 81.4303 354.753 80.7593 352.536 79.4898C350.635 78.4016 348.96 77.9474 347.584 78.1183C344.107 78.5499 342.085 81.2283 342.517 84.7057Z" fill="#FFD700"/>
<path d="M118.599 152.33C118.625 152.563 118.736 152.731 118.947 152.834C120.111 153.659 121.526 153.985 123.171 153.794C124.441 153.648 125.423 153.208 126.097 152.459C126.772 151.711 127.05 150.827 126.934 149.826C126.733 148.091 125.317 146.969 122.685 146.458C120.625 146.044 119.754 145.402 119.628 144.311C119.51 143.292 120.352 142.27 121.997 142.08C123.016 141.962 123.947 142.18 124.789 142.717C125 142.82 125.169 142.872 125.312 142.856C125.652 142.817 125.889 142.517 125.848 142.16C125.821 141.927 125.691 141.743 125.442 141.627C124.389 140.988 123.183 140.747 121.842 140.902C120.644 141.04 119.696 141.458 119.035 142.169C118.375 142.879 118.106 143.69 118.212 144.602C118.387 146.122 119.611 147.14 121.877 147.62C123.158 147.889 124.084 148.217 124.619 148.608C125.153 148.999 125.465 149.506 125.54 150.15C125.681 151.366 124.733 152.418 123.178 152.598C121.926 152.743 120.772 152.478 119.717 151.82C119.484 151.684 119.295 151.616 119.152 151.632C118.794 151.674 118.557 151.973 118.599 152.33ZM136.59 150.375C137.967 151.466 139.575 151.896 141.399 151.685C143.223 151.474 144.688 150.67 145.795 149.274C146.92 147.875 147.367 146.265 147.158 144.459C146.949 142.653 146.148 141.206 144.771 140.115C143.395 139.024 141.787 138.594 139.963 138.805C138.139 139.016 136.674 139.82 135.549 141.218C134.442 142.615 133.994 144.225 134.203 146.031C134.412 147.837 135.214 149.284 136.59 150.375ZM136.618 142.001C137.488 140.903 138.628 140.264 140.076 140.096C141.524 139.929 142.78 140.291 143.877 141.161C144.975 142.03 145.6 143.208 145.768 144.656C145.935 146.105 145.595 147.394 144.726 148.492C143.856 149.589 142.716 150.228 141.268 150.396C139.819 150.563 138.564 150.201 137.466 149.332C136.387 148.46 135.761 147.282 135.594 145.834C135.426 144.385 135.766 143.096 136.618 142.001ZM156.222 149.191C156.269 149.602 156.569 149.839 156.98 149.792C157.355 149.748 157.628 149.445 157.581 149.034L156.486 139.575L161.497 146.551C161.929 147.153 162.537 147.083 162.82 146.398L166.106 138.461L167.2 147.92C167.248 148.332 167.583 148.565 167.959 148.521C168.37 148.474 168.607 148.174 168.559 147.763L167.266 136.588C167.208 136.087 166.847 135.785 166.364 135.84C166.025 135.88 165.795 136.087 165.64 136.468L162.05 145.219L156.598 137.568C156.356 137.198 156.047 137.034 155.69 137.076C155.189 137.134 154.873 137.533 154.933 138.051L156.222 149.191ZM177.749 146.591C177.797 147.002 178.116 147.255 178.527 147.208L186.18 146.322C186.957 146.305 186.8 144.946 186.04 145.106L179.084 145.911L178.536 141.173L184.436 140.49C185.187 140.403 185.055 139.259 184.304 139.345L178.403 140.028L177.917 135.826L184.694 135.042C185.033 135.003 185.255 134.724 185.211 134.348C185.172 134.008 184.893 133.787 184.553 133.826L177.079 134.691C176.668 134.739 176.413 135.04 176.46 135.451L177.749 146.591ZM195.023 144.701C195.038 145.605 196.575 145.427 196.4 144.541L195.256 134.653L203.949 143.849C204.221 144.162 204.525 144.29 204.829 144.255C205.312 144.199 205.61 143.802 205.55 143.283L204.259 132.126C204.249 131.257 202.712 131.435 202.882 132.285L204.012 142.048L195.421 132.949C195.172 132.67 194.885 132.54 194.545 132.579C193.991 132.644 193.676 133.06 193.743 133.633L195.023 144.701ZM212.526 130.589C212.151 130.633 211.929 130.912 211.969 131.252C212.012 131.627 212.291 131.849 212.667 131.805L216.261 131.389L217.498 142.082C217.532 143.002 219.07 142.824 218.893 141.921L217.655 131.228L221.285 130.808C221.625 130.769 221.846 130.489 221.803 130.114C221.764 129.774 221.484 129.553 221.145 129.592L212.526 130.589ZM230.827 140.449C230.875 140.86 231.194 141.113 231.605 141.066L239.258 140.18C240.035 140.163 239.878 138.804 239.117 138.964L232.162 139.769L231.613 135.031L237.514 134.348C238.265 134.261 238.132 133.117 237.381 133.203L231.481 133.886L230.995 129.684L237.771 128.9C238.111 128.861 238.332 128.581 238.289 128.206C238.25 127.866 237.97 127.645 237.631 127.684L230.157 128.549C229.745 128.597 229.49 128.898 229.538 129.309L230.827 140.449ZM267.032 124.88C266.928 123.986 265.533 124.147 265.637 125.041L266.181 129.744L258.778 130.601L258.234 125.898C258.131 125.004 256.736 125.165 256.84 126.059L258.149 137.378C258.183 138.298 259.721 138.12 259.544 137.216L258.921 131.834L266.324 130.978L266.947 136.36C266.981 137.28 268.518 137.102 268.341 136.198L267.032 124.88ZM278.474 133.957C279.851 135.048 281.459 135.478 283.283 135.267C285.107 135.056 286.572 134.252 287.679 132.855C288.803 131.457 289.251 129.847 289.042 128.041C288.833 126.235 288.032 124.787 286.655 123.696C285.279 122.605 283.671 122.175 281.847 122.386C280.023 122.597 278.558 123.401 277.433 124.8C276.326 126.196 275.878 127.806 276.087 129.612C276.296 131.418 277.098 132.866 278.474 133.957ZM278.502 125.582C279.371 124.485 280.512 123.846 281.96 123.678C283.408 123.51 284.664 123.872 285.761 124.742C286.859 125.612 287.484 126.79 287.652 128.238C287.819 129.686 287.479 130.976 286.61 132.073C285.74 133.17 284.6 133.81 283.152 133.977C281.703 134.145 280.447 133.783 279.35 132.913C278.271 132.041 277.645 130.864 277.478 129.415C277.31 127.967 277.65 126.677 278.502 125.582ZM296.031 132.886C296.066 133.19 296.25 133.368 296.586 133.456C297.089 133.578 297.618 133.608 298.191 133.542C299.389 133.403 300.344 132.894 301.056 131.996C301.767 131.098 302.054 129.978 301.897 128.619L301.014 120.984C300.964 120.555 300.627 120.304 300.216 120.351C299.787 120.401 299.534 120.72 299.583 121.149L300.463 128.749C300.692 130.733 299.631 132.052 297.986 132.243C297.342 132.317 296.745 132.169 296.62 132.183C296.244 132.227 295.989 132.528 296.031 132.886ZM311.339 131.132C311.386 131.544 311.706 131.797 312.117 131.749L319.77 130.863C320.547 130.846 320.39 129.487 319.629 129.647L312.674 130.452L312.125 125.714L318.026 125.031C318.777 124.944 318.644 123.8 317.893 123.887L311.993 124.57L311.507 120.368L318.283 119.583C318.623 119.544 318.844 119.265 318.801 118.889C318.762 118.55 318.482 118.328 318.143 118.368L310.669 119.232C310.257 119.28 310.002 119.581 310.05 119.993L311.339 131.132Z" fill="#FF66CC"/>
<path d="M118.599 151.33C118.625 151.563 118.736 151.731 118.947 151.834C120.111 152.659 121.526 152.985 123.171 152.794C124.441 152.648 125.423 152.208 126.097 151.459C126.772 150.711 127.05 149.827 126.934 148.826C126.733 147.091 125.317 145.969 122.685 145.458C120.625 145.044 119.754 144.402 119.628 143.311C119.51 142.292 120.352 141.27 121.997 141.08C123.016 140.962 123.947 141.18 124.789 141.717C125 141.82 125.169 141.872 125.312 141.856C125.652 141.817 125.889 141.517 125.848 141.16C125.821 140.927 125.691 140.743 125.442 140.627C124.389 139.988 123.183 139.747 121.842 139.902C120.644 140.04 119.696 140.458 119.035 141.169C118.375 141.879 118.106 142.69 118.212 143.602C118.387 145.122 119.611 146.14 121.877 146.62C123.158 146.889 124.084 147.217 124.619 147.608C125.153 147.999 125.465 148.506 125.54 149.15C125.681 150.366 124.733 151.418 123.178 151.598C121.926 151.743 120.772 151.478 119.717 150.82C119.484 150.684 119.295 150.616 119.152 150.632C118.794 150.674 118.557 150.973 118.599 151.33ZM136.59 149.375C137.967 150.466 139.575 150.896 141.399 150.685C143.223 150.474 144.688 149.67 145.795 148.274C146.92 146.875 147.367 145.265 147.158 143.459C146.949 141.653 146.148 140.206 144.771 139.115C143.395 138.024 141.787 137.594 139.963 137.805C138.139 138.016 136.674 138.82 135.549 140.218C134.442 141.615 133.994 143.225 134.203 145.031C134.412 146.837 135.214 148.284 136.59 149.375ZM136.618 141.001C137.488 139.903 138.628 139.264 140.076 139.096C141.524 138.929 142.78 139.291 143.877 140.161C144.975 141.03 145.6 142.208 145.768 143.656C145.935 145.105 145.595 146.394 144.726 147.492C143.856 148.589 142.716 149.228 141.268 149.396C139.819 149.563 138.564 149.201 137.466 148.332C136.387 147.46 135.761 146.282 135.594 144.834C135.426 143.385 135.766 142.096 136.618 141.001ZM156.222 148.191C156.269 148.602 156.569 148.839 156.98 148.792C157.355 148.748 157.628 148.445 157.581 148.034L156.486 138.575L161.497 145.551C161.929 146.153 162.537 146.083 162.82 145.398L166.106 137.461L167.2 146.92C167.248 147.332 167.583 147.565 167.959 147.521C168.37 147.474 168.607 147.174 168.559 146.763L167.266 135.588C167.208 135.087 166.847 134.785 166.364 134.84C166.025 134.88 165.795 135.087 165.64 135.468L162.05 144.219L156.598 136.568C156.356 136.198 156.047 136.034 155.69 136.076C155.189 136.134 154.873 136.533 154.933 137.051L156.222 148.191ZM177.749 145.591C177.797 146.002 178.116 146.255 178.527 146.208L186.18 145.322C186.957 145.305 186.8 143.946 186.04 144.106L179.084 144.911L178.536 140.173L184.436 139.49C185.187 139.403 185.055 138.259 184.304 138.345L178.403 139.028L177.917 134.826L184.694 134.042C185.033 134.003 185.255 133.724 185.211 133.348C185.172 133.008 184.893 132.787 184.553 132.826L177.079 133.691C176.668 133.739 176.413 134.04 176.46 134.451L177.749 145.591ZM195.023 143.701C195.038 144.605 196.575 144.427 196.4 143.541L195.256 133.653L203.949 142.849C204.221 143.162 204.525 143.29 204.829 143.255C205.312 143.199 205.61 142.802 205.55 142.283L204.259 131.126C204.249 130.257 202.712 130.435 202.882 131.285L204.012 141.048L195.421 131.949C195.172 131.67 194.885 131.54 194.545 131.579C193.991 131.644 193.676 132.06 193.743 132.633L195.023 143.701ZM212.526 129.589C212.151 129.633 211.929 129.912 211.969 130.252C212.012 130.627 212.291 130.849 212.667 130.805L216.261 130.389L217.498 141.082C217.532 142.002 219.07 141.824 218.893 140.921L217.655 130.228L221.285 129.808C221.625 129.769 221.846 129.489 221.803 129.114C221.764 128.774 221.484 128.553 221.145 128.592L212.526 129.589ZM230.827 139.449C230.875 139.86 231.194 140.113 231.605 140.066L239.258 139.18C240.035 139.163 239.878 137.804 239.117 137.964L232.162 138.769L231.613 134.031L237.514 133.348C238.265 133.261 238.132 132.117 237.381 132.203L231.481 132.886L230.995 128.684L237.771 127.9C238.111 127.861 238.332 127.581 238.289 127.206C238.25 126.866 237.97 126.645 237.631 126.684L230.157 127.549C229.745 127.597 229.49 127.898 229.538 128.309L230.827 139.449ZM267.032 123.88C266.928 122.986 265.533 123.147 265.637 124.041L266.181 128.744L258.778 129.601L258.234 124.898C258.131 124.004 256.736 124.165 256.84 125.059L258.149 136.378C258.183 137.298 259.721 137.12 259.544 136.216L258.921 130.834L266.324 129.978L266.947 135.36C266.981 136.28 268.518 136.102 268.341 135.198L267.032 123.88ZM278.474 132.957C279.851 134.048 281.459 134.478 283.283 134.267C285.107 134.056 286.572 133.252 287.679 131.855C288.803 130.457 289.251 128.847 289.042 127.041C288.833 125.235 288.032 123.787 286.655 122.696C285.279 121.605 283.671 121.175 281.847 121.386C280.023 121.597 278.558 122.401 277.433 123.8C276.326 125.196 275.878 126.806 276.087 128.612C276.296 130.418 277.098 131.866 278.474 132.957ZM278.502 124.582C279.371 123.485 280.512 122.846 281.96 122.678C283.408 122.51 284.664 122.872 285.761 123.742C286.859 124.612 287.484 125.79 287.652 127.238C287.819 128.686 287.479 129.976 286.61 131.073C285.74 132.17 284.6 132.81 283.152 132.977C281.703 133.145 280.447 132.783 279.35 131.913C278.271 131.041 277.645 129.864 277.478 128.415C277.31 126.967 277.65 125.677 278.502 124.582ZM296.031 131.886C296.066 132.19 296.25 132.368 296.586 132.456C297.089 132.578 297.618 132.608 298.191 132.542C299.389 132.403 300.344 131.894 301.056 130.996C301.767 130.098 302.054 128.978 301.897 127.619L301.014 119.984C300.964 119.555 300.627 119.304 300.216 119.351C299.787 119.401 299.534 119.72 299.583 120.149L300.463 127.749C300.692 129.733 299.631 131.052 297.986 131.243C297.342 131.317 296.745 131.169 296.62 131.183C296.244 131.227 295.989 131.528 296.031 131.886ZM311.339 130.132C311.386 130.544 311.706 130.797 312.117 130.749L319.77 129.863C320.547 129.846 320.39 128.487 319.629 128.647L312.674 129.452L312.125 124.714L318.026 124.031C318.777 123.944 318.644 122.8 317.893 122.887L311.993 123.57L311.507 119.368L318.283 118.583C318.623 118.544 318.844 118.265 318.801 117.889C318.762 117.55 318.482 117.328 318.143 117.368L310.669 118.232C310.257 118.28 310.002 118.581 310.05 118.993L311.339 130.132Z" fill="white"/>
</g>
<defs>
<clipPath id="clip0_821_44">
<rect width="433.96" height="191.73" fill="white"/>
</clipPath>
</defs>
</svg>
