<svg width="67" height="150" viewBox="0 0 67 150" fill="none" xmlns="http://www.w3.org/2000/svg">
<path d="M66.4134 70.3995C66.4037 66.5819 64.937 62.9816 62.284 60.2636L43.5531 41.0683C43.4118 40.9231 43.2523 40.8035 43.0819 40.7058C46.7571 30.2697 48.5463 23.2899 48.5463 19.3979C48.5463 14.4233 47.0857 9.70384 44.4326 6.10838C41.5259 2.16875 37.556 0 33.2526 0C28.9504 0 24.9793 2.16875 22.0738 6.10838C19.4207 9.70506 17.9589 14.4246 17.9589 19.3979C17.9589 23.2204 19.6817 30.0061 23.2263 40.1408C23.2807 40.2945 23.352 40.4373 23.4353 40.5728L4.22121 60.2636C1.56815 62.9816 0.101484 66.5819 0.0918191 70.3995L0 105.329V136.743C0 142.724 5.19376 147.811 12.0789 148.576L16.6106 149.08C22.1317 149.694 27.6916 150 33.2514 150C38.8112 150 44.371 149.694 49.8922 149.08L54.4239 148.576C61.3102 147.811 66.5028 142.724 66.5028 136.743V105.323L66.411 70.3995H66.4134ZM33.7624 53.2057C33.5643 53.7012 33.3927 54.126 33.2538 54.4713C33.1137 54.126 32.9421 53.7 32.7452 53.2057C32.9095 53.246 33.0798 53.2668 33.2538 53.2668C33.4278 53.2668 33.5981 53.246 33.7624 53.2057ZM28.257 10.7632C29.6717 8.84586 31.4464 7.79016 33.2538 7.79016C35.0612 7.79016 36.8359 8.84586 38.2506 10.7632C39.9179 13.0235 40.836 16.0905 40.836 19.3979C40.836 21.0016 40.2295 25.3 36.4155 36.3757C34.3073 35.8313 32.1351 35.8484 30.0933 36.3781C26.2527 25.2256 25.6716 20.954 25.6716 19.3979C25.6716 16.0905 26.5897 13.0235 28.257 10.7632ZM62.1994 136.743C62.1994 140.501 58.6548 143.729 53.9551 144.252L49.4222 144.756C38.6928 145.947 27.8112 145.948 17.083 144.756L12.5501 144.252C7.85043 143.729 4.30699 140.502 4.30578 136.743V105.335L4.3976 70.4117C4.40485 67.7401 5.43176 65.2199 7.28745 63.3172L27.2578 42.8526C28.826 41.2453 30.9414 40.358 33.1185 40.3214C32.3948 42.3119 31.6168 44.3904 30.794 46.5298C27.3303 47.6038 24.8537 50.8844 24.8537 54.6422C24.8537 59.3202 28.6218 63.1256 33.2526 63.1256C37.8834 63.1256 41.6503 59.3202 41.6503 54.6422C41.6503 53.534 41.434 52.4381 41.0197 51.4178C41.6576 49.7689 42.2737 48.1457 42.8621 46.5604L59.2141 63.3184C61.071 65.2211 62.0979 67.7401 62.104 70.4129L62.1958 105.331V136.746L62.1994 136.743Z" fill="#6C18CD"/>
<path d="M64.2605 70.4056C64.252 67.18 62.9919 64.0873 60.7509 61.7904L42.02 42.5951C40.8252 45.9111 39.64 49.0269 38.6735 51.5081C39.1978 52.432 39.4986 53.4999 39.4986 54.641C39.4986 58.1254 36.703 60.9495 33.2538 60.9495C29.8046 60.9495 27.009 58.1254 27.009 54.641C27.009 51.4544 29.3491 48.8207 32.3876 48.3935C33.3384 45.9428 34.5211 42.8221 35.6954 39.5342C35.8175 39.1913 35.9371 38.8556 36.0542 38.5225C32.4891 37.5363 28.5107 38.47 25.7259 41.3246L5.75675 61.7892C3.51567 64.0861 2.25559 67.1787 2.24713 70.4044L2.15531 105.328V136.742C2.15531 141.631 6.49975 145.766 12.3169 146.412L16.8498 146.916C27.7532 148.128 38.7556 148.128 49.6602 146.916L54.1931 146.412C60.0103 145.766 64.3547 141.631 64.3547 136.742V105.328L64.2629 70.4044L64.2605 70.4056Z" fill="white"/>
<path d="M28.205 37.5192C24.3595 26.4179 23.5175 21.5385 23.5175 19.3979C23.5175 15.6242 24.5879 12.0959 26.5306 9.46336C28.3621 6.98096 30.7493 5.61405 33.2538 5.61405C35.7583 5.61405 38.1455 6.98096 39.977 9.46336C41.9197 12.0971 42.9901 15.6254 42.9901 19.3979C42.9901 21.7009 42.0164 27.1697 37.3772 40.148C35.867 44.3732 34.3447 48.3275 33.255 51.0919C33.1269 50.766 32.9916 50.4218 32.8515 50.0642L32.6219 50.096C31.4972 50.2534 30.5125 50.8295 29.813 51.6533C30.9197 54.4762 31.6687 56.2959 31.6832 56.3313C31.9478 56.972 32.5676 57.3894 33.2538 57.3894C33.9412 57.3894 34.5598 56.972 34.8244 56.3313C34.8534 56.2617 37.7323 49.2734 40.5727 41.3282C44.435 30.5272 46.3922 23.1483 46.3922 19.3979C46.3922 14.8895 45.0826 10.6313 42.705 7.40812C40.215 4.03356 36.8589 2.17603 33.2526 2.17603C29.6463 2.17603 26.2901 4.03478 23.8002 7.40812C21.4226 10.6313 20.113 14.8895 20.113 19.3979C20.113 22.9225 21.843 29.6521 25.2572 39.417C26.1476 38.642 27.1346 38.0061 28.205 37.5192Z" fill="white"/>
<path d="M30.9269 48.1725C30.9269 48.1725 30.8182 48.2323 30.6346 48.3349C30.5403 48.3837 30.4256 48.4459 30.2999 48.5289C30.1731 48.6107 30.0245 48.6912 29.8734 48.8047C29.5617 49.0122 29.215 49.2893 28.8526 49.6115C28.4962 49.9434 28.1265 50.3254 27.7713 50.7562C27.4221 51.192 27.1237 51.6338 26.8724 52.0511C26.6296 52.4734 26.4291 52.8713 26.2889 53.2203C26.208 53.3924 26.1597 53.5548 26.1053 53.6963C26.0497 53.8379 26.0111 53.9624 25.9821 54.0661C25.9192 54.2687 25.883 54.3883 25.883 54.3883C25.883 54.3883 25.8818 54.2638 25.8794 54.0503C25.877 53.9404 25.8794 53.8062 25.8975 53.6512C25.9144 53.4962 25.9241 53.3168 25.9664 53.1239C26.0304 52.7334 26.1633 52.2769 26.3662 51.79C26.5789 51.3079 26.87 50.8002 27.2506 50.3242C27.6372 49.8531 28.0745 49.465 28.4998 49.1599C28.9323 48.8621 29.3503 48.6424 29.7164 48.5021C29.8952 48.4215 30.068 48.3764 30.2141 48.33C30.3603 48.2812 30.4908 48.2531 30.5983 48.2336C30.8061 48.1945 30.9282 48.1713 30.9282 48.1713L30.9269 48.1725Z" fill="#6C18CD"/>
<path d="M36.1267 39.3633C36.1267 39.3633 35.7848 39.3584 35.24 39.3279C34.6951 39.2986 33.9509 39.2474 33.1402 39.2156C32.3296 39.1839 31.5975 39.2034 31.0635 39.2681C30.7965 39.2986 30.5778 39.3316 30.4292 39.3621C30.2818 39.3889 30.1936 39.4048 30.1936 39.4048C30.1936 39.4048 30.2733 39.3621 30.405 39.2901C30.5415 39.2144 30.7469 39.1229 31.0103 39.0301C31.5346 38.8409 32.309 38.6945 33.1584 38.7287C34.0077 38.7616 34.7531 38.9386 35.281 39.0875C35.809 39.2388 36.1279 39.3633 36.1279 39.3633H36.1267Z" fill="#6C18CD"/>
<path d="M40.534 54.6495C40.534 54.6495 40.5582 54.713 40.592 54.8314C40.6258 54.9498 40.6645 55.1243 40.685 55.3464C40.7309 55.7882 40.6717 56.4229 40.4132 57.0551C40.1546 57.6872 39.7837 58.1767 39.5022 58.505C39.2171 58.8345 39.0178 59.0151 39.0178 59.0151C39.0178 59.0151 39.1531 58.7613 39.3464 58.3963C39.5482 58.0168 39.8236 57.4981 40.0628 56.9098C40.302 56.3228 40.4458 55.7626 40.4953 55.3428C40.5219 55.1328 40.5316 54.9595 40.5328 54.8387C40.5328 54.7191 40.5328 54.6495 40.5328 54.6495H40.534Z" fill="#6C18CD"/>
<path d="M11.8457 58.1241C11.8457 58.1241 11.7418 58.2438 11.5582 58.4561C11.3697 58.6672 11.0979 58.9711 10.7657 59.3434C10.0939 60.0854 9.17575 61.1021 8.13918 62.1992C7.10381 63.2964 6.14214 64.2728 5.44022 64.9855C5.08865 65.3383 4.80111 65.6263 4.60056 65.8277C4.39881 66.0241 4.28645 66.134 4.28645 66.134C4.28645 66.134 4.36014 65.9936 4.49183 65.7434C4.62593 65.4933 4.8289 65.1369 5.0971 64.7085C5.63231 63.8505 6.44538 62.7082 7.5025 61.5866C8.56082 60.4662 9.65176 59.5911 10.4745 59.0102C10.8865 58.7185 11.2284 58.4964 11.4688 58.3499C11.7092 58.2059 11.8445 58.1241 11.8445 58.1241H11.8457Z" fill="#6C18CD"/>
<path d="M56.8546 92.8339C56.8546 92.8339 56.938 92.7118 57.0648 92.5849C57.1917 92.458 57.3113 92.3726 57.3113 92.3726C57.3113 92.3726 57.2279 92.4946 57.1011 92.6215C56.9754 92.7485 56.8546 92.8339 56.8546 92.8339Z" fill="#6C18CD"/>
<path d="M62.7406 98.9765H61.4588C61.6956 98.5847 61.8358 98.1258 61.8358 97.634V81.0919C61.8358 79.6677 60.6929 78.5131 59.283 78.5131H54.1484C52.8171 78.5131 51.7237 79.5432 51.6065 80.8576L50.8551 79.6884C50.3839 78.9561 49.5781 78.5143 48.7143 78.5143H43.5797C42.1698 78.5143 41.0269 79.6689 41.0269 81.0932V81.3141C40.3709 80.6697 39.6327 80.1119 38.8136 79.6494C37.1536 78.7108 35.31 78.2336 33.3335 78.2336C31.357 78.2336 29.5134 78.7084 27.8474 79.6457C26.4508 80.4317 25.285 81.4886 24.3656 82.7872C24.3028 82.692 24.2411 82.5955 24.1747 82.5028C23.2227 81.1713 21.9771 80.1302 20.473 79.4065C19.0148 78.706 17.3657 78.3508 15.5716 78.3508C13.4767 78.3508 11.6005 78.8243 9.99487 79.758C8.35302 80.7136 7.0736 82.0683 6.19288 83.7843C5.35081 85.4246 4.92313 87.2943 4.92313 89.341C4.92313 91.3877 5.3496 93.2574 6.19167 94.8965C7.01199 96.4965 8.18267 97.7768 9.66625 98.7165C8.40738 98.7824 7.23308 99.0338 6.1663 99.472C4.77695 100.043 3.65338 100.912 2.82461 102.054C1.95596 103.253 1.51378 104.682 1.51016 106.304C1.48962 107.937 0.786493 109.302 1.60561 110.439C1.62252 110.462 1.52225 110.689 1.53795 110.712C1.31445 110.839 2.15893 111.047 1.98012 111.24C1.49808 111.757 1.42559 112.242 1.46788 112.952C1.62131 115.508 2.70259 117.587 4.59331 118.964C5.18409 119.395 5.82802 119.746 6.51786 120.029C6.30523 120.405 6.182 120.84 6.182 121.305V137.847C6.182 139.271 7.32489 140.426 8.73478 140.426H15.5583C17.7015 140.426 19.6321 139.951 21.2981 139.014C22.7298 138.208 23.8968 137.13 24.7824 135.809C25.7211 137.201 26.9353 138.326 28.4019 139.16C30.0692 140.108 31.9188 140.589 33.8977 140.589C35.8767 140.589 37.7034 140.108 39.3706 139.16C40.1921 138.693 40.9327 138.132 41.5911 137.487V137.848C41.5911 139.272 42.734 140.427 44.1439 140.427H49.2784C49.8608 140.427 50.3984 140.229 50.8285 139.897C51.2658 140.234 51.8083 140.427 52.3785 140.427H58.0217C58.9302 140.427 59.7711 139.939 60.2277 139.145C60.6856 138.352 60.6905 137.372 60.241 136.574L57.9468 132.494C58.4035 132.107 58.8082 131.666 59.1585 131.175C60.0828 129.875 60.5515 128.378 60.5515 126.727C60.5515 125.243 60.1975 123.875 59.5004 122.663C59.0631 121.903 58.4965 121.241 57.8103 120.68H62.7394C64.1493 120.68 65.2922 119.525 65.2922 118.101V101.559C65.2922 100.135 64.1493 98.9802 62.7394 98.9802L62.7406 98.9765Z" fill="#6C18CD"/>
<path d="M8.46053 84.9693C9.11534 83.6927 10.0528 82.6993 11.2706 81.9902C12.4884 81.2811 13.9225 80.9272 15.5728 80.9272C16.9911 80.9272 18.2597 81.1957 19.3772 81.7327C20.4947 82.2697 21.4044 83.03 22.1064 84.01C22.8083 84.9913 23.2746 86.1361 23.5054 87.4444H18.093C17.8453 86.8989 17.4949 86.4741 17.0407 86.1715C16.5852 85.8676 16.0645 85.7162 15.4798 85.7162C14.616 85.7162 13.9334 86.0433 13.4332 86.6975C12.9318 87.3517 12.6817 88.2316 12.6817 89.3373C12.6817 90.4431 12.9318 91.323 13.4332 91.9772C13.9334 92.6313 14.616 92.9584 15.4798 92.9584C16.0657 92.9584 16.5864 92.8071 17.0407 92.5032C17.4949 92.1993 17.8453 91.7746 18.093 91.2303H23.5054C23.2734 92.5386 22.8071 93.6834 22.1064 94.6646C21.4044 95.6459 20.4947 96.405 19.3772 96.9432C18.2597 97.4802 16.9911 97.7487 15.5728 97.7487C13.9225 97.7487 12.4884 97.3948 11.2706 96.6857C10.0528 95.9766 9.11534 94.9844 8.46053 93.7066C7.80452 92.43 7.47711 90.9727 7.47711 89.3373C7.47711 87.7019 7.80452 86.2459 8.46053 84.9681V84.9693Z" fill="white"/>
<path d="M29.0894 96.6979C27.8015 95.9656 26.7806 94.9538 26.0256 93.6602C25.2693 92.3677 24.8923 90.9117 24.8923 89.2909C24.8923 87.6702 25.2693 86.2154 26.0256 84.9217C26.7806 83.6292 27.8027 82.6199 29.0894 81.8962C30.3772 81.1725 31.792 80.81 33.3335 80.81C34.8751 80.81 36.2862 81.1725 37.5656 81.8962C38.845 82.6199 39.8587 83.6292 40.6065 84.9217C41.3543 86.2154 41.7288 87.6714 41.7288 89.2909C41.7288 90.9105 41.3543 92.3677 40.6065 93.6602C39.8587 94.9526 38.8414 95.9656 37.5535 96.6979C36.2657 97.4301 34.8594 97.7963 33.3323 97.7963C31.8052 97.7963 30.376 97.4301 29.0882 96.6979H29.0894ZM35.693 91.9662C36.2476 91.3047 36.5254 90.4125 36.5254 89.2909C36.5254 88.1693 36.2476 87.254 35.693 86.5925C35.1385 85.931 34.352 85.5991 33.3335 85.5991C32.3151 85.5991 31.5068 85.9298 30.9511 86.5925C30.3966 87.2552 30.1187 88.1547 30.1187 89.2909C30.1187 90.4272 30.3966 91.3047 30.9511 91.9662C31.5056 92.6289 32.2994 92.9596 33.3335 92.9596C34.3677 92.9596 35.1373 92.6289 35.693 91.9662Z" fill="white"/>
<path d="M59.283 97.6327H54.1484L48.713 89.3153V97.6327H43.5785V81.0907H48.713L54.1484 89.5484V81.0907H59.283V97.6327Z" fill="white"/>
<path d="M6.08898 116.87C4.81681 115.943 4.12697 114.584 4.01945 112.793H9.47778C9.5551 113.743 9.9707 114.219 10.727 114.219C11.0049 114.219 11.2392 114.153 11.4325 114.02C11.6246 113.888 11.7213 113.68 11.7213 113.401C11.7213 113.012 11.5135 112.697 11.0967 112.455C10.6811 112.213 10.0335 111.938 9.154 111.625C8.10535 111.252 7.23791 110.886 6.55169 110.527C5.86547 110.169 5.2759 109.647 4.78178 108.961C4.28886 108.275 4.04965 107.395 4.06536 106.321C4.06536 105.246 4.33839 104.332 4.88568 103.576C5.43296 102.821 6.18079 102.248 7.12917 101.859C8.07756 101.47 9.14555 101.275 10.3319 101.275C12.3362 101.275 13.9285 101.742 15.1077 102.677C16.2868 103.612 16.9078 104.927 16.9694 106.625H11.4422C11.4265 106.158 11.3117 105.823 11.0955 105.621C10.8792 105.418 10.617 105.317 10.309 105.317C10.0927 105.317 9.91512 105.391 9.7774 105.539C9.63846 105.686 9.5696 105.893 9.5696 106.158C9.5696 106.531 9.77378 106.84 10.1821 107.08C10.5905 107.322 11.2417 107.614 12.1369 107.957C13.1698 108.346 14.0216 108.719 14.6921 109.078C15.3626 109.437 15.9449 109.935 16.4378 110.573C16.9307 111.211 17.1772 112.015 17.1772 112.98C17.1772 113.993 16.9307 114.9 16.4378 115.702C15.9437 116.503 15.2273 117.131 14.2873 117.582C13.3462 118.034 12.2287 118.26 10.9336 118.26C8.9752 118.26 7.35993 117.796 6.08898 116.87Z" fill="white"/>
<path d="M24.0019 101.554V110.876C24.0019 111.639 24.1674 112.243 24.4985 112.687C24.8295 113.131 25.3659 113.353 26.1065 113.353C26.8471 113.353 27.3932 113.131 27.7483 112.687C28.1023 112.243 28.2799 111.64 28.2799 110.876V101.554H33.3915V110.876C33.3915 112.449 33.0677 113.793 32.4202 114.906C31.7726 116.02 30.8859 116.856 29.7611 117.418C28.6351 117.979 27.3787 118.258 25.9905 118.258C24.6024 118.258 23.3725 117.978 22.3021 117.418C21.2305 116.857 20.3945 116.024 19.7928 114.918C19.1912 113.812 18.8903 112.465 18.8903 110.876V101.554H24.0019Z" fill="white"/>
<path d="M55.2937 101.554V118.096H50.1821V109.848L47.6608 118.096H43.2668L40.7454 109.848V118.096H35.6109V101.554H41.9016L45.5091 111.484L49.0247 101.554H55.2925H55.2937Z" fill="white"/>
<path d="M62.7406 101.554V118.096H57.6061V101.554H62.7406Z" fill="white"/>
<path d="M20.0586 122.353C21.3465 123.054 22.3371 124.028 23.0306 125.274C23.7241 126.52 24.0708 127.937 24.0708 129.526C24.0708 131.115 23.7241 132.516 23.0306 133.778C22.3371 135.04 21.3452 136.032 20.0586 136.757C18.7707 137.481 17.2714 137.843 15.5607 137.843H8.7384V121.301H15.5607C17.2726 121.301 18.7719 121.651 20.0586 122.352V122.353ZM17.8501 132.259C18.5291 131.621 18.8674 130.71 18.8674 129.526C18.8674 128.342 18.5279 127.431 17.8501 126.792C17.1712 126.154 16.2542 125.834 15.098 125.834H13.8717V133.216H15.098C16.2542 133.216 17.1712 132.898 17.8501 132.258V132.259Z" fill="white"/>
<path d="M29.656 136.909C28.3681 136.177 27.3472 135.165 26.5922 133.872C25.8359 132.579 25.4589 131.123 25.4589 129.502C25.4589 127.882 25.8359 126.427 26.5922 125.133C27.3472 123.841 28.3693 122.831 29.656 122.108C30.9438 121.384 32.3586 121.022 33.9001 121.022C35.4417 121.022 36.8528 121.384 38.1322 122.108C39.4116 122.831 40.4252 123.841 41.1731 125.133C41.9209 126.427 42.2954 127.883 42.2954 129.502C42.2954 131.122 41.9209 132.579 41.1731 133.872C40.4252 135.164 39.408 136.177 38.1201 136.909C36.8323 137.642 35.426 138.008 33.8989 138.008C32.3719 138.008 30.9426 137.642 29.6548 136.909H29.656Z" fill="white"/>
<path d="M52.3797 137.843L49.3038 131.909H49.2808V137.843H44.1463V121.301H51.7781C53.1046 121.301 54.2378 121.539 55.1777 122.014C56.1177 122.489 56.8232 123.135 57.2932 123.953C57.7631 124.771 57.9987 125.693 57.9987 126.722C57.9987 127.828 57.6943 128.809 57.0854 129.666C56.4765 130.523 55.6006 131.138 54.4601 131.511L58.0217 137.843H52.3785H52.3797ZM49.2808 128.45H51.3166C51.8095 128.45 52.1804 128.338 52.4268 128.112C52.6733 127.887 52.7965 127.533 52.7965 127.049C52.7965 126.614 52.6697 126.271 52.4147 126.022C52.1598 125.773 51.7938 125.648 51.3166 125.648H49.2808V128.452V128.45Z" fill="white"/>
<path d="M22.8723 87.049C22.8723 87.049 22.8397 86.9623 22.7841 86.8171C22.7322 86.6682 22.6428 86.4558 22.5268 86.2032C22.296 85.6955 21.9203 85.0364 21.4165 84.3798C20.9091 83.7257 20.3691 83.196 19.9378 82.8457C19.7239 82.67 19.5427 82.5321 19.4122 82.4442C19.2866 82.3551 19.2105 82.3014 19.2105 82.3014C19.2105 82.3014 19.2987 82.3282 19.4461 82.3746C19.5995 82.421 19.8145 82.5064 20.0719 82.6358C20.5853 82.8897 21.2583 83.3632 21.808 84.0723C22.354 84.7838 22.644 85.5588 22.7624 86.1239C22.8228 86.407 22.853 86.6389 22.8602 86.8C22.8675 86.9562 22.8723 87.049 22.8723 87.049Z" fill="#6C18CD"/>
<path d="M18.4856 96.8272C18.4856 96.8272 18.4421 96.8528 18.36 96.9004C18.2754 96.9444 18.1485 97.0103 17.9746 97.0701C17.6303 97.1995 17.0914 97.2983 16.4415 97.3166C15.7951 97.3337 15.04 97.3496 14.1738 97.2702C13.316 97.186 12.329 97.0054 11.3842 96.4855C10.9155 96.2268 10.4938 95.8923 10.1447 95.525C9.79432 95.1564 9.5249 94.7476 9.31106 94.3448C8.87976 93.5357 8.70579 92.735 8.62242 92.076C8.54752 91.4121 8.57531 90.8775 8.61518 90.515C8.62967 90.3332 8.65867 90.1928 8.67196 90.0988C8.68767 90.0049 8.69613 89.9548 8.69613 89.9548C8.69613 89.9548 8.70458 90.0049 8.72028 90.0988C8.7372 90.1928 8.7529 90.332 8.79036 90.5077C8.85439 90.8592 8.96675 91.3632 9.16971 91.9515C9.37872 92.5349 9.66746 93.211 10.1193 93.8469C10.5615 94.4913 11.1619 95.0734 11.9218 95.4908C12.683 95.9119 13.5274 96.1462 14.3188 96.3256C15.1101 96.5014 15.8628 96.6295 16.4813 96.7515C17.095 96.8712 17.5904 96.9163 17.9407 96.8968C18.1159 96.8907 18.2512 96.8687 18.3443 96.8541C18.4361 96.837 18.4856 96.8272 18.4856 96.8272Z" fill="#6C18CD"/>
<path d="M32.3465 93.643C32.3465 93.643 32.2184 93.6235 31.9913 93.5649C31.7641 93.5039 31.4355 93.4051 31.0513 93.2073C30.6696 93.0121 30.2274 92.7143 29.8456 92.2517C29.4614 91.7916 29.1751 91.1716 29.0543 90.4967C28.9323 89.8218 28.9794 89.1615 29.1075 88.5989C29.2343 88.0338 29.4337 87.5578 29.6233 87.1771C29.8154 86.7963 29.9991 86.5083 30.1308 86.313C30.2624 86.1177 30.3422 86.0152 30.3422 86.0152C30.3422 86.0152 30.3023 86.1433 30.2335 86.363C30.1646 86.5864 30.0655 86.9098 29.9652 87.3064C29.7671 88.0997 29.5617 89.2091 29.7732 90.3637C29.8783 90.9385 30.0728 91.4596 30.3422 91.8819C30.6104 92.3066 30.945 92.6423 31.2519 92.8986C31.56 93.1561 31.8403 93.3367 32.0372 93.4587C32.2341 93.5747 32.3489 93.643 32.3489 93.643H32.3465Z" fill="#6C18CD"/>
<path d="M41.1731 88.7466C41.1731 88.7466 41.2214 88.8503 41.2879 89.048C41.3555 89.2458 41.4292 89.5423 41.4643 89.9219C41.5404 90.6761 41.3785 91.7684 40.8239 92.7948C40.2706 93.8176 39.5349 94.5535 38.9985 95.049C38.4548 95.5445 38.0911 95.8167 38.0911 95.8167C38.0911 95.8167 38.34 95.431 38.7592 94.8342C39.1736 94.235 39.7548 93.4258 40.261 92.4861C40.766 91.55 41.0583 90.62 41.1453 89.9146C41.1912 89.5631 41.1997 89.2689 41.1912 89.0651C41.1803 88.8638 41.1743 88.7466 41.1743 88.7466H41.1731Z" fill="#6C18CD"/>
<path d="M44.075 96.8443C44.075 96.8443 43.6461 94.4205 43.6461 91.4304C43.6461 88.4402 44.075 86.0164 44.075 86.0164C44.075 86.0164 44.5039 88.4402 44.5039 91.4304C44.5039 94.4205 44.075 96.8443 44.075 96.8443Z" fill="#6C18CD"/>
<path d="M54.3477 97.4411C54.3477 97.4411 54.0409 97.0322 53.5878 96.3524C53.1348 95.6726 52.5368 94.7231 51.9097 93.6674C51.2815 92.6117 50.7234 91.6537 50.2933 90.9654C49.874 90.3002 49.5877 89.8462 49.5877 89.8462C49.5877 89.8462 49.6892 89.9304 49.862 90.0744C50.0383 90.2221 50.2848 90.4467 50.5736 90.7408C51.1522 91.3266 51.8807 92.2151 52.5223 93.2952C53.1638 94.3753 53.6096 95.4212 53.9044 96.1865C54.1991 96.9529 54.3477 97.4423 54.3477 97.4423V97.4411Z" fill="#6C18CD"/>
<path d="M58.8927 97.5534C58.8927 97.5534 58.8275 97.3191 58.7647 96.9322C58.7031 96.5465 58.6523 96.0046 58.6825 95.4066C58.7139 94.8098 58.8227 94.2765 58.9242 93.8981C59.0256 93.5198 59.1162 93.294 59.1162 93.294C59.1162 93.294 59.1054 93.5735 59.0921 93.9238C59.0703 94.3814 59.0462 94.9001 59.0208 95.4237C58.9906 95.9461 58.9604 96.466 58.9326 96.9224C58.9096 97.2727 58.8903 97.5522 58.8903 97.5522L58.8927 97.5534Z" fill="#6C18CD"/>
<path d="M12.242 113.345C12.2299 113.34 12.3447 113.6 12.1997 114.017C12.1296 114.222 11.9858 114.448 11.766 114.64C11.5473 114.829 11.2428 114.981 10.8961 115.006C10.5542 115.025 10.2341 114.931 9.9864 114.791C9.73631 114.651 9.55026 114.471 9.42099 114.305C9.29051 114.139 9.21198 113.989 9.16728 113.883C9.12258 113.777 9.10445 113.716 9.10445 113.716C9.10445 113.716 9.14674 113.768 9.2144 113.854C9.28568 113.94 9.39683 114.058 9.54663 114.181C9.84021 114.426 10.3295 114.684 10.8732 114.651C11.4084 114.614 11.8469 114.259 12.0402 113.942C12.1405 113.781 12.1937 113.629 12.2142 113.519C12.2359 113.411 12.2408 113.346 12.2408 113.346L12.242 113.345Z" fill="#6C18CD"/>
<path d="M13.5311 116.996C13.5311 116.996 13.1529 117.216 12.5102 117.504C11.8699 117.782 10.9336 118.151 9.81122 118.177C8.68283 118.205 7.70666 117.79 7.1195 117.387C6.81989 117.187 6.60363 116.992 6.46228 116.851C6.32093 116.711 6.25207 116.627 6.25207 116.627C6.25207 116.627 6.35114 116.68 6.51907 116.773C6.69062 116.865 6.94312 116.989 7.26086 117.111C7.89392 117.361 8.7976 117.581 9.80156 117.555C10.8079 117.535 11.737 117.338 12.4184 117.208C13.0998 117.07 13.5311 116.996 13.5311 116.996Z" fill="#6C18CD"/>
<path d="M24.786 116.922C24.786 116.922 24.7534 116.933 24.693 116.953C24.6314 116.97 24.542 117.009 24.4199 117.032C24.1795 117.093 23.8171 117.14 23.364 117.103C22.911 117.067 22.3746 116.923 21.8333 116.64C21.2945 116.356 20.7557 115.924 20.3232 115.352C19.9003 114.784 19.6224 114.163 19.4569 113.584C19.289 113.006 19.2226 112.47 19.202 112.024C19.1815 111.578 19.2008 111.22 19.2238 110.974C19.2467 110.727 19.2673 110.593 19.2673 110.593C19.2673 110.593 19.295 110.729 19.3422 110.967C19.3905 111.207 19.4666 111.551 19.5789 111.965C19.8025 112.79 20.1939 113.9 20.9321 114.887C21.6654 115.864 22.6524 116.484 23.4389 116.725C23.8316 116.85 24.1735 116.901 24.4127 116.912C24.5323 116.926 24.6253 116.916 24.6893 116.921C24.7534 116.921 24.7872 116.922 24.7872 116.922H24.786Z" fill="#6C18CD"/>
<path d="M32.7935 113.268C32.7935 113.268 32.4927 111.419 32.5241 109.145C32.5398 108.008 32.6364 106.979 32.7282 106.236C32.7754 105.861 32.8164 105.567 32.8551 105.35C32.8672 105.294 32.8974 105.232 32.9481 105.209C33.0097 105.18 33.0532 105.23 33.0605 105.256C33.0738 105.284 33.0689 105.314 33.0557 105.324C33.0424 105.333 33.0339 105.331 33.0339 105.331C33.0315 105.335 33.0762 105.313 33.0363 105.272C32.9977 105.223 32.9469 105.268 32.9554 105.362C32.9795 105.561 33.0182 105.87 33.0532 106.241C33.1245 106.988 33.1922 108.018 33.1753 109.155C33.1439 111.43 32.7911 113.269 32.7911 113.269L32.7935 113.268Z" fill="#6C18CD"/>
<path d="M11.534 106.502C11.534 106.502 11.5376 106.448 11.534 106.355C11.5316 106.262 11.5098 106.129 11.4543 105.981C11.3492 105.686 11.0532 105.314 10.6219 105.215C10.1906 105.121 9.76531 105.333 9.54784 105.553C9.43549 105.664 9.35937 105.776 9.3183 105.859C9.27601 105.942 9.25789 105.992 9.25789 105.992C9.25789 105.992 9.25789 105.939 9.2748 105.843C9.29172 105.746 9.33642 105.608 9.43428 105.458C9.53093 105.307 9.68678 105.149 9.90303 105.036C10.1169 104.922 10.3984 104.861 10.6871 104.924C10.9734 104.991 11.2042 105.167 11.3504 105.361C11.499 105.556 11.5739 105.766 11.598 105.944C11.6234 106.122 11.6065 106.266 11.5811 106.36C11.5558 106.454 11.5352 106.502 11.5352 106.502H11.534Z" fill="#6C18CD"/>
<path d="M36.0373 117.869C36.0373 117.869 35.7208 115.484 35.7208 112.542C35.7208 109.599 36.0373 107.214 36.0373 107.214C36.0373 107.214 36.3539 109.599 36.3539 112.542C36.3539 115.484 36.0373 117.869 36.0373 117.869Z" fill="#6C18CD"/>
<path d="M49.9187 109.448C49.9187 109.448 49.6916 111.22 48.9643 113.266C48.2394 115.311 47.2983 116.824 47.2983 116.824C47.2983 116.824 47.6595 115.083 48.3784 113.053C49.1008 111.024 49.9175 109.448 49.9175 109.448H49.9187Z" fill="#6C18CD"/>
<path d="M43.3417 117.261C43.3417 117.261 43.1979 116.849 42.9937 116.182C42.7884 115.515 42.5189 114.597 42.2628 113.574C42.0067 112.553 41.8146 111.609 41.6781 110.932C41.5452 110.261 41.3326 109.876 41.3326 109.876C41.3326 109.876 41.4147 109.948 41.5392 110.105C41.6636 110.26 41.8207 110.509 41.968 110.833C42.2556 111.481 42.5951 112.386 42.8548 113.423C43.1146 114.46 43.2378 115.425 43.2934 116.124C43.3489 116.824 43.3417 117.261 43.3417 117.261Z" fill="#6C18CD"/>
<path d="M47.1123 117.707C47.1123 117.707 46.3052 117.852 45.3109 117.852C44.3166 117.852 43.5096 117.707 43.5096 117.707C43.5096 117.707 44.3166 117.562 45.3109 117.562C46.3052 117.562 47.1123 117.707 47.1123 117.707Z" fill="#6C18CD"/>
<path d="M62.1426 117.175C62.1426 117.175 61.8297 115.406 61.8297 113.223C61.8297 111.039 62.1426 109.271 62.1426 109.271C62.1426 109.271 62.4555 111.039 62.4555 113.223C62.4555 115.406 62.1426 117.175 62.1426 117.175Z" fill="#6C18CD"/>
<path d="M60.3908 117.521C60.3908 117.521 60.2821 117.458 60.0985 117.396C59.916 117.333 59.6563 117.288 59.3699 117.304C59.0848 117.321 58.8311 117.397 58.6571 117.48C58.482 117.563 58.3817 117.638 58.3817 117.638C58.3817 117.638 58.4034 117.612 58.4373 117.57C58.4723 117.525 58.5315 117.468 58.6124 117.404C58.7719 117.277 59.0413 117.147 59.3603 117.127C59.6792 117.109 59.9619 117.208 60.1347 117.315C60.2217 117.369 60.2869 117.419 60.328 117.459C60.3655 117.496 60.3908 117.52 60.3908 117.52V117.521Z" fill="#6C18CD"/>
<path d="M9.31709 134.222C9.31709 134.222 8.89787 131.857 8.89787 128.939C8.89787 126.02 9.31709 123.655 9.31709 123.655C9.31709 123.655 9.73632 126.02 9.73632 128.939C9.73632 131.857 9.31709 134.222 9.31709 134.222Z" fill="#6C18CD"/>
<path d="M19.5004 127.744C19.5004 127.744 19.5427 127.85 19.614 128.031C19.6792 128.219 19.7626 128.497 19.8109 128.856C19.9184 129.563 19.858 130.628 19.3325 131.635C18.8142 132.643 17.9782 133.315 17.3028 133.582C16.9646 133.72 16.6722 133.766 16.4741 133.775C16.2747 133.784 16.1672 133.769 16.1672 133.769C16.1672 133.769 16.2747 133.745 16.4547 133.68C16.6347 133.614 16.886 133.499 17.1591 133.309C17.7076 132.932 18.3322 132.237 18.7901 131.349C19.2552 130.461 19.4569 129.544 19.5053 128.865C19.5343 128.525 19.5282 128.244 19.5198 128.049C19.5077 127.857 19.5004 127.744 19.5004 127.744Z" fill="#6C18CD"/>
<path d="M31.0852 121.715C31.0852 121.715 30.9692 121.794 30.7675 121.932C30.5657 122.074 30.2782 122.282 29.9435 122.556C29.2718 123.102 28.4297 123.932 27.6722 124.975C26.922 126.016 26.3626 127.075 26.1161 127.884C25.9917 128.291 25.9518 128.638 25.9482 128.884C25.9446 129.128 25.9627 129.268 25.9627 129.268C25.9627 129.268 25.8975 129.146 25.8274 128.9C25.7585 128.655 25.6981 128.28 25.7344 127.815C25.8069 126.886 26.2261 125.652 27.0476 124.511C27.8752 123.372 28.9311 122.624 29.7333 122.226C30.1356 122.023 30.4763 121.899 30.7131 121.822C30.9487 121.754 31.084 121.715 31.084 121.715H31.0852Z" fill="#6C18CD"/>
<path d="M41.9838 129.886C41.9838 129.886 42.0369 130 42.0768 130.23C42.119 130.458 42.1263 130.803 42.0526 131.215C41.8968 132.024 41.5343 133.12 40.8336 134.171C40.1401 135.224 39.2667 135.978 38.5998 136.435C38.2627 136.662 37.9776 136.823 37.777 136.925C37.5777 137.022 37.4629 137.078 37.4629 137.078C37.4629 137.078 37.5547 136.989 37.7142 136.835C37.8749 136.68 38.1032 136.45 38.3739 136.164C38.9115 135.585 39.6025 134.76 40.2513 133.775C40.9061 132.796 41.4038 131.832 41.7155 131.116C41.8653 130.758 41.9427 130.452 41.9668 130.232C41.9934 130.013 41.9838 129.886 41.9838 129.886Z" fill="#6C18CD"/>
<path d="M44.3976 136.353C44.3976 136.353 44.4979 133.53 44.4979 130.049C44.4979 126.569 44.3976 123.746 44.3976 123.746C44.3976 123.746 44.8978 126.569 44.8978 130.049C44.8978 133.53 44.3976 136.353 44.3976 136.353Z" fill="#6C18CD"/>
<path d="M53.0091 136.792C53.0091 136.792 52.7699 136.553 52.422 136.137C52.0741 135.719 51.6198 135.12 51.1982 134.409C50.7765 133.696 50.4685 133.009 50.2691 132.502C50.0698 131.995 49.9743 131.669 49.9743 131.669C49.9743 131.669 50.7705 132.759 51.6053 134.163C52.4365 135.569 53.0104 136.793 53.0104 136.793L53.0091 136.792Z" fill="#6C18CD"/>
<path d="M57.2859 125.165C57.2859 125.165 57.3512 125.448 57.4128 125.912C57.472 126.373 57.53 127.031 57.4019 127.753C57.2738 128.478 56.9464 129.086 56.6323 129.445C56.4765 129.627 56.3315 129.753 56.2264 129.832C56.1213 129.911 56.0597 129.948 56.0597 129.948C56.0597 129.948 56.1056 129.887 56.1817 129.787C56.2578 129.683 56.3593 129.528 56.4656 129.329C56.6819 128.932 56.8848 128.349 57.0032 127.68C57.1228 127.01 57.1675 126.378 57.2098 125.917C57.2497 125.454 57.2859 125.165 57.2859 125.165Z" fill="#6C18CD"/>
<path d="M7.12313 73.1614C6.60484 72.7842 6.32335 72.2302 6.27985 71.4991H8.50402C8.53543 71.886 8.70457 72.08 9.01265 72.08C9.12621 72.08 9.22165 72.0532 9.30018 71.9995C9.37871 71.9458 9.41737 71.8616 9.41737 71.7469C9.41737 71.5882 9.3328 71.4601 9.16245 71.3612C8.99331 71.2623 8.72873 71.1501 8.37113 71.0231C7.94345 70.8706 7.59067 70.7217 7.31039 70.5752C7.0301 70.4288 6.79089 70.2164 6.58914 69.9369C6.38859 69.6574 6.29072 69.2986 6.29676 68.8605C6.29676 68.4223 6.40791 68.0501 6.63142 67.7413C6.85492 67.4338 7.15937 67.2007 7.54597 67.0408C7.93257 66.8821 8.3675 66.8028 8.85196 66.8028C9.66866 66.8028 10.3174 66.9932 10.7983 67.374C11.2791 67.7547 11.5316 68.2917 11.557 68.9837H9.3038C9.29776 68.7934 9.25065 68.6567 9.16245 68.5749C9.07426 68.4919 8.96794 68.4516 8.84229 68.4516C8.7541 68.4516 8.68162 68.4821 8.62604 68.5419C8.56926 68.6017 8.54147 68.686 8.54147 68.7946C8.54147 68.9471 8.62483 69.0728 8.79156 69.1705C8.95828 69.2693 9.22406 69.3877 9.58771 69.5281C10.0081 69.6867 10.3561 69.8393 10.6291 69.9857C10.9022 70.1322 11.1402 70.3348 11.3407 70.5947C11.5413 70.8547 11.6427 71.1818 11.6427 71.576C11.6427 71.9885 11.5425 72.3583 11.3407 72.6854C11.139 73.0125 10.8478 73.2675 10.4636 73.4518C10.0806 73.6361 9.62516 73.7277 9.09721 73.7277C8.29863 73.7277 7.64021 73.5385 7.12192 73.1614H7.12313Z" fill="#6C18CD"/>
<path d="M14.471 68.6041V69.4328H16.5453V71.0231H14.471V71.975H16.828V73.6605H12.3785V66.9187H16.828V68.6041H14.471Z" fill="#6C18CD"/>
<path d="M25.6425 66.9187V73.6605H23.5597V70.2994L22.5316 73.6605H20.7411L19.713 70.2994V73.6605H17.6205V66.9187H20.1842L21.6545 70.9657L23.0873 66.9187H25.6413H25.6425Z" fill="#6C18CD"/>
<path d="M30.8641 72.6427H28.6399L28.3101 73.6618H26.1137L28.5553 66.92H30.9692L33.4012 73.6618H31.1951L30.8653 72.6427H30.8641ZM30.3555 71.0524L29.7526 69.1766L29.1497 71.0524H30.3567H30.3555Z" fill="#6C18CD"/>
<path d="M40.2718 73.6618H38.1793L35.9636 70.2714V73.6618H33.8711V66.92H35.9636L38.1793 70.3678V66.92H40.2718V73.6618Z" fill="#6C18CD"/>
<path d="M45.4945 72.6427H43.2704L42.9405 73.6618H40.7442L43.1858 66.92H45.5996L48.0316 73.6618H45.8256L45.4957 72.6427H45.4945ZM44.9859 71.0524L44.3831 69.1766L43.7802 71.0524H44.9871H44.9859Z" fill="#6C18CD"/>
<path d="M53.2362 68.2844C53.5926 68.4785 53.8669 68.7482 54.059 69.0924C54.2511 69.4378 54.3465 69.8295 54.3465 70.2689C54.3465 70.7083 54.2511 71.0964 54.059 71.4454C53.8669 71.7945 53.5926 72.0691 53.2362 72.2692C52.8798 72.4694 52.4655 72.5694 51.9919 72.5694H50.1036V67.9927H51.9919C52.4655 67.9927 52.8798 68.0892 53.2362 68.2832V68.2844ZM52.6249 71.0256C52.8122 70.8486 52.9064 70.5972 52.9064 70.2689C52.9064 69.9406 52.8122 69.6892 52.6249 69.5122C52.4377 69.3352 52.1828 69.2474 51.8638 69.2474H51.5243V71.2904H51.8638C52.184 71.2904 52.4377 71.2025 52.6249 71.0256Z" fill="#6C18CD"/>
<path d="M55.8917 72.3119C55.5353 72.1093 55.2526 71.8298 55.0436 71.471C54.8346 71.1134 54.7295 70.7107 54.7295 70.2628C54.7295 69.8149 54.8334 69.4121 55.0436 69.0533C55.2526 68.6957 55.5353 68.4162 55.8917 68.2161C56.2481 68.0159 56.6396 67.9158 57.066 67.9158C57.4925 67.9158 57.8827 68.0159 58.2367 68.2161C58.5907 68.4162 58.871 68.6957 59.0776 69.0533C59.2842 69.4109 59.388 69.8136 59.388 70.2628C59.388 70.7119 59.2842 71.1134 59.0776 71.471C58.871 71.8286 58.5895 72.1093 58.2331 72.3119C57.8767 72.5145 57.4877 72.6158 57.0648 72.6158C56.642 72.6158 56.2469 72.5145 55.8905 72.3119H55.8917ZM57.7184 71.0024C57.8718 70.8193 57.9492 70.5728 57.9492 70.2628C57.9492 69.9528 57.8718 69.6989 57.7184 69.5159C57.565 69.3328 57.3475 69.2413 57.066 69.2413C56.7845 69.2413 56.561 69.3328 56.4064 69.5159C56.2529 69.6989 56.1756 69.9479 56.1756 70.2628C56.1756 70.5776 56.2529 70.8193 56.4064 71.0024C56.5598 71.1854 56.7797 71.277 57.066 71.277C57.3523 71.277 57.565 71.1854 57.7184 71.0024Z" fill="#6C18CD"/>
<path d="M57.9939 63.5503C58.285 63.6504 58.4046 63.8603 58.3853 64.1642C58.3781 64.2813 58.3841 64.401 58.3841 64.534C58.5895 64.534 58.7864 64.534 58.9845 64.534C59.5862 64.5364 60.0912 64.7598 60.4887 65.2174C60.7798 65.5518 60.9321 65.946 60.9623 66.3903C60.9659 66.4476 60.9659 66.505 60.9659 66.5624C60.9659 68.2564 60.9659 69.3621 60.9671 71.0561C60.9671 71.2233 60.9357 71.3759 60.8088 71.4906C60.6638 71.6224 60.4935 71.6602 60.3111 71.5907C60.1238 71.5199 60.0199 71.3746 59.9958 71.1745C59.9897 71.122 59.9921 71.0683 59.9921 71.0146C59.9921 69.3328 59.9921 68.2393 59.9921 66.5575C59.9921 66.051 59.7082 65.6458 59.2455 65.5543C58.9712 65.5006 58.6825 65.5189 58.3853 65.5042C58.3853 65.6727 58.3853 65.8191 58.3853 65.9656C58.3829 66.2792 58.1848 66.4989 57.9021 66.5014C57.6157 66.5038 57.414 66.2817 57.4116 65.9607C57.4116 65.8179 57.4116 65.6751 57.4116 65.525H55.1946C55.1946 65.6763 55.1946 65.8228 55.1946 65.9692C55.1922 66.2817 54.9905 66.5014 54.7078 66.5014C54.4251 66.5014 54.2233 66.2817 54.2209 65.9692C54.2197 65.8228 54.2209 65.6763 54.2209 65.5238H52.0281C52.0281 65.6898 52.0342 65.8557 52.0281 66.0217C52.0124 66.4074 51.6053 66.6271 51.2863 66.4245C51.1329 66.328 51.0604 66.1828 51.0568 66.0022C51.0544 65.8472 51.0568 65.691 51.0568 65.5177C50.7258 65.5323 50.3971 65.4688 50.0806 65.5921C49.7097 65.7373 49.4754 66.1047 49.4741 66.5441C49.4717 67.1799 49.4741 67.8158 49.4741 68.4504C49.4741 70.3372 49.4741 71.6358 49.4741 73.5226C49.4741 74.034 49.7363 74.4038 50.1978 74.5344C50.2981 74.5625 50.4056 74.5722 50.5107 74.5722C53.3281 74.5747 56.1454 74.5747 58.9616 74.5722C59.556 74.5722 59.9523 74.1939 59.9958 73.5934C60.0175 73.2907 60.2301 73.0845 60.5068 73.0979C60.7847 73.1113 60.9755 73.3359 60.9695 73.6398C60.9465 74.6674 60.1154 75.5169 59.0981 75.5547C59.0691 75.5547 59.0413 75.5571 59.0123 75.5571C56.1624 75.5571 53.3136 75.5596 50.4636 75.5571C49.607 75.5571 48.887 75.0348 48.6067 74.2244C48.5608 74.0901 48.5354 73.9498 48.5004 73.8119C48.5004 71.1049 48.5004 68.9862 48.5004 66.2792C48.5088 66.2573 48.5197 66.2353 48.5233 66.2121C48.6188 65.6116 48.9256 65.1503 49.4331 64.8257C49.7955 64.5938 50.1954 64.5181 50.6182 64.5315C50.762 64.5364 50.907 64.5315 51.058 64.5315C51.058 64.3973 51.064 64.2777 51.0568 64.1605C51.0363 63.8554 51.1571 63.6479 51.4482 63.5479H51.6427C51.9327 63.6479 52.0535 63.8566 52.0342 64.1605C52.0257 64.2813 52.033 64.4034 52.033 64.523H54.2245C54.2245 64.3961 54.2305 64.2777 54.2233 64.1605C54.2028 63.8566 54.3236 63.6479 54.6147 63.5479H54.8092C55.0992 63.6479 55.22 63.8566 55.2007 64.1605C55.1922 64.2813 55.1995 64.4034 55.1995 64.523H57.4164C57.4164 64.3961 57.4224 64.2777 57.4152 64.1605C57.3946 63.8566 57.5155 63.6479 57.8066 63.5479H58.0011L57.9939 63.5503Z" fill="#6C18CD"/>
<path d="M33.6815 134.975C33.6283 134.974 33.5739 134.969 33.5196 134.96C32.8334 134.85 32.3416 134.243 32.425 133.606C32.4323 133.548 32.4323 133.514 32.4298 133.498C32.4129 133.484 32.3658 133.449 32.2535 133.396C31.3123 132.944 30.8085 132.111 30.8351 131.048C30.8484 130.512 31.1661 130.064 31.6337 129.87C30.9922 129.28 30.7324 128.458 30.8979 127.513C31.0622 126.571 31.6156 125.895 32.5023 125.547C32.5047 125.481 32.5108 125.424 32.5144 125.376C32.5797 124.679 33.1608 124.153 33.8409 124.17C33.847 124.17 33.8542 124.17 33.8603 124.17C34.5501 124.197 35.0986 124.771 35.1095 125.477C35.1095 125.529 35.1095 125.58 35.1095 125.631C35.2714 125.714 35.4369 125.802 35.5963 125.916C36.3152 126.422 36.6921 127.149 36.6849 128.017C36.68 128.601 36.3357 129.084 35.8404 129.267C36.5109 129.864 36.7864 130.678 36.6221 131.602C36.4529 132.549 35.8972 133.228 35.0068 133.58C34.9995 133.731 34.9814 133.894 34.9343 134.06C34.7748 134.611 34.242 134.988 33.6803 134.975H33.6815ZM33.5933 133.733C33.6114 133.751 33.6513 133.78 33.7044 133.789C33.7395 133.794 33.7987 133.763 33.8095 133.725C33.8361 133.636 33.8385 133.496 33.8422 133.36V133.333C33.8542 132.818 34.1708 132.611 34.4341 132.528C35.037 132.339 35.3656 131.978 35.4695 131.392C35.5794 130.774 35.3729 130.323 34.8183 129.969C34.567 129.809 34.2843 129.679 33.9847 129.544C33.8337 129.476 33.6839 129.407 33.5365 129.334C33.4749 129.303 33.412 129.274 33.3492 129.246C33.168 129.162 32.9638 129.068 32.7693 128.936C32.4794 128.738 32.3006 128.417 32.2788 128.054C32.2571 127.694 32.4009 127.343 32.663 127.115C33.3082 126.554 34.0717 126.788 34.3218 126.864C34.9005 127.041 35.24 127.469 35.2774 128.067C35.2786 128.094 35.281 128.165 35.4091 128.159C35.507 128.154 35.5154 128.04 35.5154 128.006C35.519 127.528 35.333 127.171 34.9295 126.887C34.8111 126.804 34.6685 126.732 34.5042 126.648C34.4172 126.604 34.3278 126.559 34.2384 126.51C34.0439 126.404 33.9243 126.196 33.9291 125.973L33.934 125.823C33.9376 125.718 33.9412 125.606 33.94 125.493C33.94 125.414 33.8893 125.357 33.8192 125.353H33.818C33.7527 125.352 33.6936 125.41 33.6875 125.485C33.6827 125.536 33.6754 125.614 33.6803 125.653C33.7092 125.922 33.6633 126.402 33.0412 126.609C32.4697 126.798 32.158 127.149 32.059 127.716C31.9466 128.355 32.129 128.81 32.6292 129.146C32.8285 129.28 33.0653 129.388 33.3166 129.501C33.4241 129.55 33.5329 129.599 33.638 129.65C33.7479 129.704 33.8603 129.753 33.9714 129.803C34.1973 129.903 34.4317 130.008 34.6625 130.141C35.2242 130.467 35.4091 131.144 35.0901 131.715C34.7845 132.263 34.2263 132.324 34.0427 132.345C33.0834 132.449 32.4492 131.993 32.2559 131.059C32.2426 130.991 32.1737 130.949 32.1399 130.95C32.1024 130.954 32.0155 130.972 32.013 131.073C31.9985 131.664 32.2438 132.073 32.7621 132.322C33.1692 132.517 33.696 132.875 33.5969 133.73L33.5933 133.733Z" fill="white"/>
<path d="M33.6803 135.049C33.6235 135.048 33.5667 135.043 33.5099 135.034C32.7838 134.918 32.2655 134.272 32.3537 133.596C32.3574 133.57 32.3586 133.551 32.3586 133.536C32.3356 133.52 32.2933 133.496 32.2245 133.463C31.2556 132.999 30.7373 132.14 30.7638 131.045C30.7771 130.525 31.0586 130.076 31.5068 129.847C30.8992 129.241 30.6648 128.431 30.8279 127.498C30.9946 126.549 31.5491 125.857 32.4335 125.493C32.4371 125.446 32.4407 125.403 32.4444 125.366C32.5132 124.635 33.1281 124.076 33.8458 124.093H33.8663C34.5948 124.123 35.1747 124.728 35.1856 125.474C35.1856 125.51 35.1856 125.547 35.1856 125.584C35.3258 125.656 35.4852 125.742 35.6411 125.852C36.3805 126.373 36.7682 127.121 36.761 128.015C36.7562 128.576 36.4517 129.063 35.9769 129.288C36.61 129.899 36.8589 130.7 36.6958 131.613C36.5254 132.567 35.9673 133.264 35.0793 133.629C35.0708 133.755 35.0539 133.911 35.0056 134.078C34.8389 134.654 34.2807 135.062 33.6803 135.047V135.049ZM33.8591 124.245C33.2007 124.229 32.651 124.729 32.5893 125.383C32.5845 125.43 32.5797 125.486 32.5772 125.551L32.5748 125.599L32.5301 125.617C31.6699 125.955 31.1311 126.615 30.9716 127.527C30.811 128.447 31.0574 129.238 31.6856 129.816L31.7714 129.895L31.6639 129.939C31.2121 130.127 30.9233 130.553 30.91 131.051C30.8847 132.084 31.374 132.893 32.2873 133.331C32.4009 133.385 32.454 133.423 32.4794 133.445L32.5023 133.464L32.5048 133.493C32.5072 133.515 32.5072 133.553 32.4999 133.618C32.4214 134.215 32.8853 134.786 33.5329 134.89C34.12 134.982 34.7036 134.602 34.8654 134.041C34.9162 133.868 34.9295 133.703 34.9355 133.579L34.9379 133.531L34.9826 133.514C35.8464 133.172 36.3889 132.508 36.552 131.592C36.7115 130.694 36.4505 129.91 35.7945 129.325L35.7015 129.242L35.8175 129.2C36.2959 129.023 36.6088 128.559 36.6136 128.018C36.6209 127.176 36.2548 126.471 35.5565 125.978C35.3934 125.863 35.2243 125.774 35.0781 125.7L35.037 125.679V125.632C35.0382 125.582 35.0382 125.531 35.037 125.481C35.0273 124.815 34.5103 124.273 33.8591 124.247V124.245ZM33.7081 133.864C33.7081 133.864 33.6972 133.864 33.6924 133.863C33.6235 133.852 33.5679 133.816 33.5389 133.784L33.5148 133.758L33.5184 133.724C33.6114 132.925 33.1439 132.591 32.7259 132.391C32.1786 132.129 31.92 131.698 31.9357 131.074C31.9381 130.965 32.013 130.89 32.129 130.879C32.2003 130.875 32.303 130.946 32.3235 131.046C32.5084 131.937 33.1137 132.374 34.0306 132.274C34.2046 132.255 34.735 132.197 35.0225 131.682C35.3209 131.148 35.1482 130.514 34.6226 130.209C34.3955 130.077 34.1635 129.974 33.9388 129.873C33.818 129.82 33.7093 129.771 33.6029 129.72C33.5003 129.67 33.3952 129.622 33.2913 129.574C33.0291 129.456 32.7899 129.347 32.5857 129.21C32.0578 128.854 31.8657 128.377 31.9829 127.705C32.0868 127.109 32.4154 126.739 33.0146 126.54C33.5595 126.36 33.6356 125.963 33.6029 125.663C33.5981 125.621 33.603 125.558 33.6102 125.486C33.6211 125.365 33.7117 125.277 33.8168 125.28C33.9279 125.285 34.0089 125.374 34.0101 125.492C34.0113 125.603 34.0077 125.715 34.0041 125.819L33.9992 125.974C33.9944 126.171 34.0983 126.35 34.2698 126.443C34.3592 126.49 34.4474 126.536 34.5332 126.579C34.7024 126.665 34.8461 126.738 34.9681 126.824C35.3934 127.124 35.5903 127.498 35.5855 128.004C35.5855 128.136 35.5154 128.225 35.4091 128.23C35.2859 128.234 35.2074 128.177 35.2013 128.07C35.1663 127.502 34.8449 127.098 34.2976 126.931C34.0572 126.858 33.3215 126.633 32.7077 127.168C32.4625 127.381 32.3296 127.71 32.3489 128.045C32.3695 128.386 32.5362 128.686 32.8068 128.87C32.9965 129 33.1982 129.092 33.3758 129.174L33.3988 129.185C33.4544 129.211 33.5099 129.236 33.5643 129.263C33.7117 129.335 33.8615 129.404 34.0113 129.472C34.3145 129.61 34.5997 129.74 34.8546 129.902C35.4381 130.273 35.6544 130.749 35.5384 131.4C35.4284 132.017 35.0841 132.396 34.4523 132.595C34.1031 132.705 33.9219 132.953 33.9134 133.331V133.358C33.9098 133.498 33.9062 133.643 33.8772 133.742C33.8567 133.814 33.7721 133.861 33.7069 133.859L33.7081 133.864ZM33.6694 133.7C33.6815 133.707 33.6972 133.713 33.7141 133.715C33.7189 133.715 33.7346 133.706 33.7395 133.7C33.7612 133.623 33.7648 133.482 33.7673 133.358V133.331C33.7806 132.772 34.1237 132.547 34.41 132.457C34.9838 132.277 35.2968 131.934 35.3958 131.378C35.4997 130.794 35.304 130.367 34.7773 130.032C34.5308 129.876 34.2505 129.748 33.9533 129.612C33.8011 129.543 33.6501 129.474 33.5015 129.401C33.4483 129.374 33.3939 129.35 33.3396 129.324L33.3166 129.313C33.1342 129.229 32.9264 129.133 32.727 128.997C32.4178 128.787 32.2269 128.444 32.2039 128.057C32.181 127.675 32.3344 127.302 32.6135 127.058C33.2888 126.47 34.0814 126.712 34.3411 126.792C34.9512 126.979 35.3088 127.43 35.3487 128.062C35.3487 128.077 35.362 128.087 35.4031 128.084C35.4357 128.083 35.4393 128.023 35.4393 128.005C35.4429 127.552 35.2666 127.217 34.8848 126.947C34.7712 126.867 34.6323 126.797 34.4716 126.715C34.3798 126.669 34.2904 126.623 34.201 126.575C33.9799 126.455 33.847 126.224 33.853 125.972L33.8579 125.822C33.8615 125.714 33.8651 125.604 33.8639 125.496C33.8639 125.464 33.8494 125.43 33.8132 125.429C33.789 125.429 33.76 125.454 33.7564 125.494C33.7515 125.545 33.7455 125.618 33.7491 125.648C33.7805 125.939 33.731 126.46 33.0605 126.683C32.518 126.863 32.2208 127.197 32.1278 127.733C32.0215 128.339 32.1931 128.77 32.6666 129.089C32.8612 129.219 33.0955 129.325 33.3432 129.438C33.4568 129.489 33.5631 129.538 33.667 129.588C33.7721 129.639 33.8796 129.687 33.9859 129.734C34.2263 129.842 34.4619 129.947 34.6963 130.082C35.2943 130.43 35.4901 131.15 35.1518 131.757C34.8268 132.338 34.2408 132.402 34.0475 132.423C33.0448 132.532 32.3827 132.053 32.181 131.078C32.1749 131.051 32.146 131.03 32.1351 131.028C32.0843 131.034 32.0831 131.063 32.0831 131.079C32.0698 131.638 32.3006 132.024 32.7899 132.258C33.2091 132.46 33.754 132.827 33.6694 133.701V133.7Z" fill="#6C18CD"/>
<path d="M34.5139 125.989C34.7785 126.133 35.037 126.243 35.2629 126.401C35.8114 126.788 36.1062 127.325 36.1001 128.012C36.0965 128.421 35.815 128.732 35.4369 128.752C35.0455 128.771 34.7156 128.513 34.6903 128.105C34.6673 127.73 34.4728 127.53 34.1502 127.431C33.7672 127.314 33.3758 127.275 33.0448 127.563C32.7826 127.793 32.8056 128.247 33.0955 128.443C33.3106 128.588 33.557 128.685 33.7914 128.801C34.2384 129.022 34.7108 129.201 35.13 129.467C35.8585 129.931 36.2028 130.613 36.0458 131.495C35.8984 132.324 35.3922 132.846 34.6069 133.093C34.4583 133.139 34.4317 133.21 34.4281 133.347C34.4245 133.53 34.4221 133.719 34.3713 133.892C34.2759 134.222 33.9316 134.426 33.6114 134.374C33.2659 134.32 32.9626 134.025 33.0073 133.684C33.0653 133.237 32.8974 133.048 32.5072 132.86C31.7847 132.513 31.4029 131.893 31.4235 131.062C31.4331 130.685 31.7122 130.398 32.0819 130.363C32.4214 130.331 32.7536 130.589 32.8261 130.94C32.9578 131.577 33.3154 131.831 33.9763 131.759C34.2227 131.732 34.445 131.663 34.5755 131.428C34.7301 131.151 34.6625 130.831 34.3665 130.659C34.0524 130.478 33.708 130.347 33.3806 130.188C33.017 130.013 32.6328 129.866 32.3006 129.643C31.5866 129.163 31.3292 128.459 31.4766 127.616C31.6168 126.816 32.1012 126.298 32.8539 126.049C33.0424 125.986 33.1124 125.909 33.0919 125.72C33.0822 125.625 33.0895 125.527 33.0992 125.432C33.1354 125.042 33.4616 124.749 33.8385 124.763C34.2191 124.778 34.5175 125.09 34.5235 125.486C34.526 125.662 34.5163 125.837 34.5127 125.989H34.5139Z" fill="#6C18CD"/>
<path d="M12.5283 144.985C12.5283 144.985 12.3966 144.972 12.1623 144.947C11.9267 144.92 11.5872 144.88 11.168 144.814C10.3344 144.68 9.16609 144.453 7.96883 143.904C6.76916 143.355 5.84252 142.544 5.32544 141.856C5.06328 141.513 4.88689 141.211 4.78178 140.995C4.725 140.89 4.69238 140.803 4.66459 140.745C4.63922 140.688 4.62594 140.657 4.62594 140.657C4.62594 140.657 4.64406 140.685 4.6791 140.738C4.71534 140.789 4.76004 140.87 4.83131 140.965C4.96542 141.16 5.17684 141.43 5.46679 141.731C6.04065 142.34 6.97454 143.032 8.12468 143.561C9.27603 144.089 10.396 144.404 11.2078 144.63C12.0124 144.847 12.5283 144.986 12.5283 144.986V144.985Z" fill="#6C18CD"/>
<path d="M45.2022 146.009C45.2022 146.009 44.9691 146.052 44.5498 146.129C44.1294 146.204 43.5193 146.304 42.7642 146.412C41.2528 146.627 39.1531 146.855 36.8238 146.929C34.4946 147.003 32.3852 146.909 30.8629 146.79C30.1018 146.732 29.4869 146.671 29.0628 146.621C28.64 146.571 28.4044 146.542 28.4044 146.542C28.4044 146.542 28.6412 146.533 29.0664 146.514C29.4941 146.499 30.1102 146.477 30.8702 146.45C32.3972 146.398 34.4921 146.326 36.8021 146.248C39.112 146.18 41.2081 146.118 42.7352 146.071C43.4939 146.051 44.1113 146.034 44.539 146.021C44.9642 146.012 45.2022 146.007 45.2022 146.007V146.009Z" fill="#6C18CD"/>
<path d="M59.3869 143.331C59.3869 143.331 59.4437 143.291 59.5403 143.221C59.6394 143.152 59.7807 143.047 59.9511 142.914C60.293 142.649 60.7436 142.26 61.2039 141.791C61.663 141.322 62.0436 140.862 62.3033 140.516C62.4338 140.342 62.5365 140.2 62.6053 140.098C62.6742 140.001 62.7141 139.942 62.7141 139.942C62.7141 139.942 62.6839 140.006 62.6319 140.113C62.5788 140.224 62.4954 140.38 62.3843 140.568C62.162 140.945 61.8104 141.446 61.3416 141.925C60.8717 142.404 60.3788 142.764 60.0066 142.991C59.8206 143.106 59.666 143.191 59.5572 143.245C59.4509 143.298 59.3881 143.329 59.3881 143.329L59.3869 143.331Z" fill="#6C18CD"/>
<path d="M59.3313 61.7441C59.3313 61.7441 58.8009 61.2583 57.9685 60.4577C57.1361 59.6571 55.9969 58.5526 54.7682 57.304C53.5395 56.0567 52.451 54.8998 51.6633 54.054C50.8756 53.2094 50.3972 52.6712 50.3972 52.6712C50.3972 52.6712 50.9988 53.063 51.9182 53.7684C52.8364 54.4726 54.0675 55.5014 55.3082 56.7609C56.549 58.0217 57.5602 59.2702 58.2524 60.2014C58.9459 61.1338 59.3313 61.7428 59.3313 61.7428V61.7441Z" fill="#6C18CD"/>
</svg>
