<svg width="434" height="192" viewBox="0 0 434 192" fill="none" xmlns="http://www.w3.org/2000/svg">
<g clip-path="url(#clip0_526_20)">
<mask id="mask0_526_20" style="mask-type:luminance" maskUnits="userSpaceOnUse" x="0" y="0" width="434" height="192">
<path d="M433.96 0H0V191.73H433.96V0Z" fill="white"/>
</mask>
<g mask="url(#mask0_526_20)">
<path d="M427.26 162.8C427.263 161.025 427.97 159.323 429.226 158.069C430.482 156.815 432.185 156.11 433.96 156.11V142.72C433.059 142.755 432.16 142.607 431.318 142.287C430.475 141.966 429.706 141.478 429.056 140.853C428.406 140.228 427.889 139.478 427.536 138.649C427.183 137.819 427.001 136.927 427.001 136.025C427.001 135.123 427.183 134.231 427.536 133.401C427.889 132.572 428.406 131.822 429.056 131.197C429.706 130.572 430.475 130.084 431.318 129.763C432.16 129.443 433.059 129.295 433.96 129.33V116C433.059 116.035 432.16 115.887 431.318 115.567C430.475 115.246 429.706 114.758 429.056 114.133C428.406 113.508 427.889 112.758 427.536 111.929C427.183 111.099 427.001 110.207 427.001 109.305C427.001 108.403 427.183 107.511 427.536 106.681C427.889 105.852 428.406 105.102 429.056 104.477C429.706 103.852 430.475 103.364 431.318 103.043C432.16 102.723 433.059 102.575 433.96 102.61V89.17C433.059 89.2048 432.16 89.0574 431.318 88.7367C430.475 88.4159 429.706 87.9284 429.056 87.3032C428.406 86.6781 427.889 85.9283 427.536 85.0986C427.183 84.269 427.001 83.3766 427.001 82.475C427.001 81.5734 427.183 80.681 427.536 79.8514C427.889 79.0217 428.406 78.2719 429.056 77.6468C429.706 77.0216 430.475 76.5341 431.318 76.2133C432.16 75.8926 433.059 75.7452 433.96 75.78V62.4C433.08 62.3974 432.209 62.2215 431.398 61.8823C430.586 61.5432 429.849 61.0475 429.228 60.4235C428.608 59.7995 428.117 59.0594 427.782 58.2455C427.448 57.4316 427.277 56.5599 427.28 55.68C427.283 54.8001 427.459 53.9294 427.798 53.1175C428.137 52.3057 428.633 51.5685 429.257 50.9482C429.881 50.3279 430.621 49.8366 431.435 49.5024C432.248 49.1681 433.12 48.9974 434 49V35.62C433.099 35.6548 432.2 35.5074 431.358 35.1867C430.515 34.8659 429.746 34.3784 429.096 33.7532C428.446 33.1281 427.929 32.3783 427.576 31.5486C427.223 30.719 427.041 29.8266 427.041 28.925C427.041 28.0234 427.223 27.131 427.576 26.3014C427.929 25.4717 428.446 24.7219 429.096 24.0968C429.746 23.4716 430.515 22.9841 431.358 22.6633C432.2 22.3426 433.099 22.1952 434 22.23V15.48C431.963 15.4853 429.946 15.0888 428.062 14.3133C426.179 13.5379 424.467 12.3986 423.025 10.9608C421.582 9.52294 420.437 7.81474 419.656 5.93395C418.874 4.05316 418.471 2.0367 418.47 0H15.47C15.47 4.10382 13.8405 8.0397 10.9395 10.9425C8.03865 13.8453 4.10382 15.4773 0 15.48V22.23C0.879385 22.23 1.75014 22.4034 2.56246 22.7402C3.37478 23.077 4.11273 23.5707 4.73408 24.193C5.35544 24.8153 5.84801 25.554 6.18363 26.3668C6.51924 27.1796 6.69131 28.0506 6.69 28.93C6.69132 29.8089 6.51917 30.6794 6.18344 31.4917C5.8477 32.304 5.35497 33.042 4.73348 33.6635C4.11199 34.285 3.37397 34.7777 2.56171 35.1134C1.74945 35.4492 0.878913 35.6213 0 35.62V49C0.879385 49 1.75014 49.1734 2.56246 49.5102C3.37478 49.847 4.11273 50.3407 4.73408 50.963C5.35544 51.5853 5.84801 52.324 6.18363 53.1368C6.51924 53.9496 6.69131 54.8206 6.69 55.7C6.69131 56.5794 6.51924 57.4504 6.18363 58.2632C5.84801 59.076 5.35544 59.8147 4.73408 60.437C4.11273 61.0593 3.37478 61.553 2.56246 61.8898C1.75014 62.2266 0.879385 62.4 0 62.4V75.78C0.879385 75.78 1.75014 75.9534 2.56246 76.2902C3.37478 76.627 4.11273 77.1207 4.73408 77.743C5.35544 78.3653 5.84801 79.104 6.18363 79.9168C6.51924 80.7296 6.69131 81.6006 6.69 82.48C6.69 84.2543 5.98516 85.9559 4.73054 87.2105C3.47593 88.4652 1.7743 89.17 0 89.17V102.56C1.7743 102.56 3.47593 103.265 4.73054 104.519C5.98516 105.774 6.69 107.476 6.69 109.25C6.69792 110.134 6.53073 111.01 6.19808 111.829C5.86542 112.647 5.3739 113.392 4.75188 114.019C4.12987 114.647 3.38969 115.145 2.57409 115.485C1.75848 115.825 0.883615 116 0 116V129.38C1.76224 129.38 3.45334 130.075 4.70597 131.315C5.95859 132.554 6.67156 134.238 6.69 136C6.69395 136.881 6.52382 137.754 6.18939 138.569C5.85496 139.385 5.3628 140.126 4.74118 140.75C4.11957 141.374 3.38073 141.87 2.5671 142.208C1.75347 142.546 0.881073 142.72 0 142.72V156.11C1.7743 156.11 3.47593 156.815 4.73054 158.069C5.98516 159.324 6.69 161.026 6.69 162.8C6.69131 163.679 6.51924 164.55 6.18363 165.363C5.84801 166.176 5.35544 166.915 4.73408 167.537C4.11273 168.159 3.37478 168.653 2.56246 168.99C1.75014 169.327 0.879385 169.5 0 169.5V176.25C4.10555 176.25 8.04295 177.881 10.946 180.784C13.8491 183.687 15.48 187.624 15.48 191.73H418.48C418.481 189.694 418.884 187.679 419.665 185.798C420.446 183.918 421.59 182.21 423.031 180.773C424.472 179.335 426.183 178.196 428.065 177.42C429.947 176.643 431.964 176.246 434 176.25V169.5C433.117 169.505 432.241 169.336 431.424 169.002C430.606 168.667 429.863 168.174 429.237 167.552C428.61 166.929 428.113 166.189 427.774 165.373C427.435 164.558 427.26 163.683 427.26 162.8Z" fill="#8336D5"/>
<g opacity="0.48">
<path d="M174.999 0.129999C172.847 0.148231 170.711 -0.234985 168.699 -1C166.869 -1.69754 165.176 -2.71316 163.699 -4C162.29 -5.2339 161.155 -6.74993 160.369 -8.45C159.567 -10.172 159.157 -12.0505 159.169 -13.95C159.159 -15.8526 159.568 -17.7341 160.369 -19.46C161.158 -21.1556 162.292 -22.6678 163.699 -23.9C165.176 -25.1868 166.869 -26.2025 168.699 -26.9C170.717 -27.6309 172.853 -27.9802 174.999 -27.93C177.11 -27.9444 179.205 -27.568 181.179 -26.82C183.01 -26.1225 184.702 -25.1068 186.179 -23.82C187.592 -22.5818 188.742 -21.0718 189.559 -19.38C190.387 -17.6618 190.811 -15.7771 190.799 -13.87C190.812 -11.966 190.388 -10.0844 189.559 -8.37C188.744 -6.67373 187.595 -5.15999 186.179 -3.92C184.702 -2.63316 183.01 -1.61754 181.179 -0.92C179.201 -0.192407 177.106 0.163565 174.999 0.129999ZM166.659 30.23L191.749 1.91L213.999 -28L221.379 -21.34L197.339 6.08L173.999 36.89L166.659 30.23ZM174.999 -7.86C175.609 -7.87906 176.204 -8.05232 176.728 -8.36359C177.253 -8.67487 177.69 -9.114 177.999 -9.64C178.853 -10.8935 179.29 -12.384 179.249 -13.9C179.29 -15.416 178.853 -16.9065 177.999 -18.16C177.69 -18.686 177.253 -19.1251 176.728 -19.4364C176.204 -19.7477 175.609 -19.9209 174.999 -19.94C174.389 -19.9228 173.793 -19.7503 173.268 -19.4389C172.744 -19.1274 172.307 -18.6873 171.999 -18.16C171.145 -16.9065 170.708 -15.416 170.749 -13.9C170.708 -12.384 171.145 -10.8935 171.999 -9.64C172.307 -9.11274 172.744 -8.67259 173.268 -8.36113C173.793 -8.04967 174.389 -7.8772 174.999 -7.86ZM213.099 36.89C210.962 36.9106 208.839 36.5342 206.839 35.78C205.008 35.0836 203.315 34.0679 201.839 32.78C200.432 31.5478 199.298 30.0356 198.509 28.34C197.72 26.6138 197.312 24.738 197.312 22.84C197.312 20.942 197.72 19.0662 198.509 17.34C199.293 15.6414 200.428 14.1281 201.839 12.9C203.313 11.609 205.007 10.5929 206.839 9.9C208.839 9.1458 210.962 8.76942 213.099 8.79C215.207 8.77431 217.299 9.15071 219.269 9.9C221.101 10.5952 222.794 11.6111 224.269 12.9C225.683 14.1348 226.83 15.6457 227.639 17.34C228.454 19.059 228.877 20.9376 228.877 22.84C228.877 24.7424 228.454 26.621 227.639 28.34C226.825 30.0309 225.679 31.5408 224.269 32.78C222.792 34.0658 221.099 35.0813 219.269 35.78C217.287 36.5342 215.18 36.9107 213.059 36.89H213.099ZM213.099 28.89C213.709 28.87 214.303 28.6964 214.828 28.3852C215.352 28.074 215.79 27.6354 216.099 27.11C216.95 25.8556 217.384 24.365 217.339 22.85C217.384 21.335 216.95 19.8444 216.099 18.59C215.798 18.0598 215.362 17.6188 214.835 17.312C214.308 17.0053 213.709 16.8437 213.099 16.8437C212.489 16.8437 211.891 17.0053 211.364 17.312C210.837 17.6188 210.4 18.0598 210.099 18.59C209.248 19.8444 208.814 21.335 208.859 22.85C208.783 24.3576 209.182 25.8511 209.999 27.12C210.313 27.6545 210.76 28.0991 211.296 28.4108C211.832 28.7226 212.439 28.8911 213.059 28.9L213.099 28.89Z" fill="#9951FF"/>
<path d="M251.679 74.4498C249.542 74.4704 247.419 74.094 245.419 73.3398C243.587 72.6446 241.894 71.6287 240.419 70.3398C239.008 69.1117 237.873 67.5984 237.089 65.8998C236.306 64.1719 235.901 62.2968 235.901 60.3998C235.901 58.5029 236.306 56.6278 237.089 54.8998C237.878 53.2042 239.012 51.692 240.419 50.4598C241.897 49.174 243.589 48.1585 245.419 47.4598C247.419 46.7056 249.542 46.3292 251.679 46.3498C253.787 46.3341 255.879 46.7105 257.849 47.4598C259.68 48.1562 261.373 49.1719 262.849 50.4598C264.259 51.699 265.405 53.2089 266.219 54.8998C267.04 56.6171 267.466 58.4964 267.466 60.3998C267.466 62.3033 267.04 64.1826 266.219 65.8998C265.41 67.5941 264.263 69.105 262.849 70.3398C261.375 71.6308 259.682 72.6469 257.849 73.3398C255.879 74.0891 253.787 74.4655 251.679 74.4498ZM243.329 104.55L268.459 76.2198L290.749 46.2998L298.119 52.9998L274.059 80.3998L250.699 111.21L243.329 104.55ZM251.679 66.4598C252.289 66.4407 252.884 66.2675 253.408 65.9562C253.933 65.6449 254.37 65.2058 254.679 64.6798C255.489 63.4064 255.918 61.9287 255.918 60.4198C255.918 58.9109 255.489 57.4332 254.679 56.1598C254.378 55.6296 253.942 55.1886 253.415 54.8819C252.888 54.5751 252.289 54.4135 251.679 54.4135C251.069 54.4135 250.47 54.5751 249.943 54.8819C249.416 55.1886 248.98 55.6296 248.679 56.1598C247.869 57.4332 247.439 58.9109 247.439 60.4198C247.439 61.9287 247.869 63.4064 248.679 64.6798C248.989 65.2052 249.426 65.6438 249.95 65.955C250.475 66.2662 251.069 66.4398 251.679 66.4598ZM289.779 111.21C287.638 111.23 285.512 110.854 283.509 110.1C281.679 109.402 279.986 108.387 278.509 107.1C277.102 105.868 275.968 104.355 275.179 102.66C274.391 100.933 273.983 99.0576 273.983 97.1598C273.983 95.262 274.391 93.3864 275.179 91.6598C275.966 89.9658 277.1 88.4565 278.509 87.2298C279.984 85.94 281.677 84.9241 283.509 84.2298C285.512 83.4757 287.638 83.0994 289.779 83.1198C291.905 83.1098 294.015 83.4964 295.999 84.2598C297.831 84.9541 299.524 85.97 300.999 87.2598C302.414 88.4924 303.564 89.9996 304.379 91.6898C305.192 93.4092 305.614 95.2877 305.614 97.1898C305.614 99.092 305.192 100.97 304.379 102.69C303.562 104.382 302.412 105.892 300.999 107.13C299.522 108.417 297.829 109.432 295.999 110.13C294.011 110.873 291.901 111.239 289.779 111.21ZM289.779 103.21C290.389 103.192 290.984 103.019 291.509 102.707C292.034 102.396 292.471 101.956 292.779 101.43C293.596 100.159 294.03 98.6803 294.03 97.1698C294.03 95.6593 293.596 94.1806 292.779 92.9098C292.48 92.377 292.044 91.9334 291.517 91.6246C290.99 91.3159 290.39 91.1531 289.779 91.1531C289.168 91.1531 288.568 91.3159 288.041 91.6246C287.513 91.9334 287.078 92.377 286.779 92.9098C285.962 94.1806 285.528 95.6593 285.528 97.1698C285.528 98.6803 285.962 100.159 286.779 101.43C287.085 101.959 287.521 102.401 288.047 102.714C288.572 103.028 289.168 103.202 289.779 103.22V103.21Z" fill="#9951FF"/>
<path d="M373.786 154.11C371.649 154.131 369.526 153.754 367.526 153C365.696 152.303 364.003 151.288 362.526 150C361.115 148.772 359.98 147.259 359.196 145.56C358.407 143.834 357.999 141.958 357.999 140.06C357.999 138.162 358.407 136.286 359.196 134.56C359.98 132.861 361.115 131.348 362.526 130.12C364.003 128.832 365.695 127.816 367.526 127.12C369.526 126.366 371.649 125.989 373.786 126.01C375.894 125.994 377.986 126.371 379.956 127.12C381.786 127.819 383.479 128.834 384.956 130.12C386.371 131.355 387.518 132.866 388.326 134.56C389.141 136.279 389.564 138.158 389.564 140.06C389.564 141.962 389.141 143.841 388.326 145.56C387.518 147.254 386.371 148.765 384.956 150C383.479 151.285 381.786 152.301 379.956 153C377.986 153.749 375.894 154.126 373.786 154.11ZM365.436 184.21L390.566 155.88L412.856 126L420.226 132.66L396.156 160.09L372.806 190.91L365.436 184.21ZM373.786 146.11C374.395 146.09 374.988 145.918 375.513 145.608C376.037 145.299 376.475 144.863 376.786 144.34C377.591 143.063 378.018 141.584 378.018 140.075C378.018 138.566 377.591 137.087 376.786 135.81C376.483 135.282 376.046 134.844 375.52 134.539C374.993 134.234 374.395 134.074 373.786 134.074C373.178 134.074 372.58 134.234 372.053 134.539C371.527 134.844 371.09 135.282 370.786 135.81C369.982 137.087 369.555 138.566 369.555 140.075C369.555 141.584 369.982 143.063 370.786 144.34C371.097 144.864 371.535 145.3 372.06 145.61C372.584 145.919 373.178 146.091 373.786 146.11ZM411.876 190.87C409.739 190.891 407.616 190.514 405.616 189.76C403.786 189.062 402.093 188.047 400.616 186.76C399.205 185.532 398.07 184.019 397.286 182.32C396.504 180.592 396.099 178.717 396.099 176.82C396.099 174.923 396.504 173.048 397.286 171.32C398.075 169.624 399.21 168.112 400.616 166.88C402.096 165.596 403.788 164.581 405.616 163.88C407.616 163.126 409.739 162.749 411.876 162.77C413.984 162.754 416.076 163.131 418.046 163.88C419.877 164.576 421.57 165.592 423.046 166.88C424.456 168.119 425.602 169.629 426.416 171.32C427.238 173.037 427.664 174.917 427.664 176.82C427.664 178.723 427.238 180.603 426.416 182.32C425.608 184.014 424.461 185.525 423.046 186.76C421.573 188.051 419.879 189.067 418.046 189.76C416.076 190.509 413.984 190.886 411.876 190.87ZM411.876 182.87C412.486 182.851 413.081 182.678 413.606 182.366C414.13 182.055 414.568 181.616 414.876 181.09C415.686 179.817 416.116 178.339 416.116 176.83C416.116 175.321 415.686 173.843 414.876 172.57C414.575 172.04 414.139 171.599 413.612 171.292C413.085 170.985 412.486 170.824 411.876 170.824C411.267 170.824 410.668 170.985 410.141 171.292C409.614 171.599 409.178 172.04 408.876 172.57C408.067 173.843 407.637 175.321 407.637 176.83C407.637 178.339 408.067 179.817 408.876 181.09C409.185 181.617 409.622 182.058 410.146 182.371C410.671 182.684 411.266 182.859 411.876 182.88V182.87Z" fill="#9951FF"/>
<path d="M76.7874 7.11C74.65 7.13058 72.5274 6.75421 70.5274 6C68.6966 5.30322 67.0038 4.28752 65.5274 3C64.1162 1.77188 62.9813 0.258636 62.1974 -1.44C61.4084 -3.16622 61 -5.042 61 -6.94C61 -8.838 61.4084 -10.7138 62.1974 -12.44C62.9813 -14.1386 64.1162 -15.6519 65.5274 -16.88C67.0035 -18.1679 68.6964 -19.1836 70.5274 -19.88C72.5274 -20.6342 74.65 -21.0106 76.7874 -20.99C78.8951 -21.0057 80.9874 -20.6293 82.9574 -19.88C84.7873 -19.1813 86.4798 -18.1658 87.9574 -16.88C89.3717 -15.6452 90.5185 -14.1343 91.3274 -12.44C92.1423 -10.721 92.565 -8.84238 92.565 -6.94C92.565 -5.03762 92.1423 -3.15902 91.3274 -1.44C90.5185 0.254261 89.3717 1.76522 87.9574 3C86.4796 4.28548 84.7871 5.30095 82.9574 6C80.9874 6.7493 78.8951 7.1257 76.7874 7.11ZM68.4374 37.21L93.5674 8.88L115.857 -21L123.227 -14.34L99.1574 13.09L75.8074 43.91L68.4374 37.21ZM76.7874 -0.889999C77.3958 -0.909854 77.9893 -1.08237 78.5136 -1.39166C79.0378 -1.70096 79.4759 -2.13711 79.7874 -2.66C80.5921 -3.93701 81.0191 -5.41561 81.0191 -6.925C81.0191 -8.4344 80.5921 -9.913 79.7874 -11.19C79.4842 -11.7177 79.0472 -12.156 78.5205 -12.4608C77.9938 -12.7657 77.396 -12.9262 76.7874 -12.9262C76.1789 -12.9262 75.5811 -12.7657 75.0544 -12.4608C74.5276 -12.156 74.0906 -11.7177 73.7874 -11.19C72.9827 -9.913 72.5557 -8.4344 72.5557 -6.925C72.5557 -5.41561 72.9827 -3.93701 73.7874 -2.66C74.0983 -2.13649 74.5362 -1.69984 75.0605 -1.39046C75.5849 -1.08107 76.1789 -0.90894 76.7874 -0.889999ZM114.877 43.87C112.74 43.8906 110.617 43.5142 108.617 42.76C106.787 42.0625 105.094 41.0468 103.617 39.76C102.206 38.5319 101.071 37.0186 100.287 35.32C99.5047 33.5921 99.0999 31.717 99.0999 29.82C99.0999 27.9231 99.5047 26.048 100.287 24.32C101.076 22.6244 102.211 21.1122 103.617 19.88C105.096 18.5962 106.789 17.5809 108.617 16.88C110.617 16.1258 112.74 15.7494 114.877 15.77C116.985 15.7543 119.077 16.1307 121.047 16.88C122.878 17.5764 124.571 18.5921 126.047 19.88C127.457 21.1192 128.603 22.6291 129.417 24.32C130.239 26.0373 130.665 27.9166 130.665 29.82C130.665 31.7235 130.239 33.6028 129.417 35.32C128.609 37.0143 127.462 38.5252 126.047 39.76C124.574 41.051 122.88 42.0671 121.047 42.76C119.077 43.5093 116.985 43.8857 114.877 43.87ZM114.877 35.87C115.487 35.8509 116.082 35.6777 116.607 35.3664C117.131 35.0551 117.568 34.616 117.877 34.09C118.687 32.8166 119.117 31.3389 119.117 29.83C119.117 28.3211 118.687 26.8434 117.877 25.57C117.576 25.0398 117.14 24.5988 116.613 24.2921C116.086 23.9853 115.487 23.8237 114.877 23.8237C114.268 23.8237 113.669 23.9853 113.142 24.2921C112.615 24.5988 112.179 25.0398 111.877 25.57C111.068 26.8434 110.638 28.3211 110.638 29.83C110.638 31.3389 111.068 32.8166 111.877 34.09C112.186 34.6172 112.623 35.0579 113.147 35.3708C113.672 35.6838 114.267 35.859 114.877 35.88V35.87Z" fill="#9951FF"/>
<path d="M181.786 81.11C179.649 81.1306 177.526 80.7542 175.526 80C173.696 79.3032 172.003 78.2875 170.526 77C169.115 75.7719 167.98 74.2586 167.196 72.56C166.407 70.8338 165.999 68.958 165.999 67.06C165.999 65.162 166.407 63.2862 167.196 61.56C167.98 59.8614 169.115 58.3481 170.526 57.12C172.003 55.8321 173.695 54.8164 175.526 54.12C177.526 53.3658 179.649 52.9894 181.786 53.01C183.894 52.9943 185.986 53.3707 187.956 54.12C189.786 54.8187 191.479 55.8342 192.956 57.12C194.371 58.3548 195.518 59.8657 196.326 61.56C197.141 63.279 197.564 65.1576 197.564 67.06C197.564 68.9624 197.141 70.841 196.326 72.56C195.518 74.2543 194.371 75.7652 192.956 77C191.479 78.2855 189.786 79.301 187.956 80C185.986 80.7493 183.894 81.1257 181.786 81.11ZM173.436 111.21L198.566 82.88L220.856 53L228.226 59.66L204.156 87.09L180.806 117.91L173.436 111.21ZM181.786 73.11C182.395 73.0901 182.988 72.9176 183.513 72.6083C184.037 72.299 184.475 71.8629 184.786 71.34C185.591 70.063 186.018 68.5844 186.018 67.075C186.018 65.5656 185.591 64.087 184.786 62.81C184.483 62.2823 184.046 61.844 183.52 61.5392C182.993 61.2343 182.395 61.0738 181.786 61.0738C181.178 61.0738 180.58 61.2343 180.053 61.5392C179.527 61.844 179.09 62.2823 178.786 62.81C177.982 64.087 177.555 65.5656 177.555 67.075C177.555 68.5844 177.982 70.063 178.786 71.34C179.097 71.8635 179.535 72.3002 180.06 72.6095C180.584 72.9189 181.178 73.0911 181.786 73.11ZM219.876 117.87C217.739 117.891 215.616 117.514 213.616 116.76C211.786 116.062 210.093 115.047 208.616 113.76C207.205 112.532 206.07 111.019 205.286 109.32C204.504 107.592 204.099 105.717 204.099 103.82C204.099 101.923 204.504 100.048 205.286 98.32C206.075 96.6244 207.21 95.1122 208.616 93.88C210.096 92.5962 211.788 91.5809 213.616 90.88C215.616 90.1258 217.739 89.7494 219.876 89.77C221.984 89.7543 224.076 90.1307 226.046 90.88C227.877 91.5764 229.57 92.5921 231.046 93.88C232.456 95.1192 233.602 96.6291 234.416 98.32C235.238 100.037 235.664 101.917 235.664 103.82C235.664 105.723 235.238 107.603 234.416 109.32C233.608 111.014 232.461 112.525 231.046 113.76C229.573 115.051 227.879 116.067 226.046 116.76C224.076 117.509 221.984 117.886 219.876 117.87ZM219.876 109.87C220.486 109.851 221.081 109.678 221.606 109.366C222.13 109.055 222.568 108.616 222.876 108.09C223.686 106.817 224.116 105.339 224.116 103.83C224.116 102.321 223.686 100.843 222.876 99.57C222.575 99.0398 222.139 98.5988 221.612 98.2921C221.085 97.9853 220.486 97.8237 219.876 97.8237C219.267 97.8237 218.668 97.9853 218.141 98.2921C217.614 98.5988 217.178 99.0398 216.876 99.57C216.067 100.843 215.637 102.321 215.637 103.83C215.637 105.339 216.067 106.817 216.876 108.09C217.185 108.617 217.622 109.058 218.146 109.371C218.671 109.684 219.266 109.859 219.876 109.88V109.87Z" fill="#9951FF"/>
<path d="M25.7874 165.11C23.65 165.131 21.5274 164.754 19.5274 164C17.6966 163.303 16.0038 162.288 14.5274 161C13.1162 159.772 11.9813 158.259 11.1974 156.56C10.4084 154.834 10 152.958 10 151.06C10 149.162 10.4084 147.286 11.1974 145.56C11.9813 143.861 13.1162 142.348 14.5274 141.12C16.0035 139.832 17.6964 138.816 19.5274 138.12C21.5274 137.366 23.65 136.989 25.7874 137.01C27.8951 136.994 29.9874 137.371 31.9574 138.12C33.7873 138.819 35.4798 139.834 36.9574 141.12C38.3717 142.355 39.5185 143.866 40.3274 145.56C41.1423 147.279 41.565 149.158 41.565 151.06C41.565 152.962 41.1423 154.841 40.3274 156.56C39.5185 158.254 38.3717 159.765 36.9574 161C35.4796 162.285 33.7871 163.301 31.9574 164C29.9874 164.749 27.8951 165.126 25.7874 165.11ZM17.4374 195.21L42.5674 166.88L64.8574 137L72.2274 143.66L48.1574 171.09L24.8074 201.91L17.4374 195.21ZM25.7874 157.11C26.3958 157.09 26.9893 156.918 27.5136 156.608C28.0378 156.299 28.4759 155.863 28.7874 155.34C29.5921 154.063 30.0191 152.584 30.0191 151.075C30.0191 149.566 29.5921 148.087 28.7874 146.81C28.4842 146.282 28.0472 145.844 27.5205 145.539C26.9938 145.234 26.396 145.074 25.7874 145.074C25.1789 145.074 24.5811 145.234 24.0544 145.539C23.5276 145.844 23.0906 146.282 22.7874 146.81C21.9827 148.087 21.5557 149.566 21.5557 151.075C21.5557 152.584 21.9827 154.063 22.7874 155.34C23.0983 155.864 23.5362 156.3 24.0605 156.61C24.5849 156.919 25.1789 157.091 25.7874 157.11ZM63.8774 201.87C61.74 201.891 59.6174 201.514 57.6174 200.76C55.787 200.062 54.0943 199.047 52.6174 197.76C51.2062 196.532 50.0713 195.019 49.2874 193.32C48.5047 191.592 48.0999 189.717 48.0999 187.82C48.0999 185.923 48.5047 184.048 49.2874 182.32C50.0764 180.624 51.2106 179.112 52.6174 177.88C54.0965 176.596 55.7886 175.581 57.6174 174.88C59.6174 174.126 61.74 173.749 63.8774 173.77C65.9851 173.754 68.0774 174.131 70.0474 174.88C71.8784 175.576 73.5713 176.592 75.0474 177.88C76.457 179.119 77.6031 180.629 78.4174 182.32C79.2385 184.037 79.6647 185.917 79.6647 187.82C79.6647 189.723 79.2385 191.603 78.4174 193.32C77.6085 195.014 76.4617 196.525 75.0474 197.76C73.5736 199.051 71.8801 200.067 70.0474 200.76C68.0774 201.509 65.9851 201.886 63.8774 201.87ZM63.8774 193.87C64.4871 193.851 65.0821 193.678 65.6067 193.366C66.1313 193.055 66.5685 192.616 66.8774 192.09C67.687 190.817 68.117 189.339 68.117 187.83C68.117 186.321 67.687 184.843 66.8774 183.57C66.5763 183.04 66.14 182.599 65.613 182.292C65.0861 181.985 64.4872 181.824 63.8774 181.824C63.2676 181.824 62.6688 181.985 62.1418 182.292C61.6148 182.599 61.1785 183.04 60.8774 183.57C60.0678 184.843 59.6379 186.321 59.6379 187.83C59.6379 189.339 60.0678 190.817 60.8774 192.09C61.1858 192.617 61.6227 193.058 62.1472 193.371C62.6718 193.684 63.267 193.859 63.8774 193.88V193.87Z" fill="#9951FF"/>
<path d="M149.174 203.11C147.037 203.131 144.914 202.754 142.914 202C141.083 201.303 139.391 200.288 137.914 199C136.503 197.772 135.368 196.259 134.584 194.56C133.795 192.834 133.387 190.958 133.387 189.06C133.387 187.162 133.795 185.286 134.584 183.56C135.368 181.861 136.503 180.348 137.914 179.12C139.39 177.832 141.083 176.816 142.914 176.12C144.914 175.366 147.037 174.989 149.174 175.01C151.282 174.994 153.374 175.371 155.344 176.12C157.174 176.819 158.867 177.834 160.344 179.12C161.758 180.355 162.905 181.866 163.714 183.56C164.529 185.279 164.952 187.158 164.952 189.06C164.952 190.962 164.529 192.841 163.714 194.56C162.905 196.254 161.758 197.765 160.344 199C158.866 200.285 157.174 201.301 155.344 202C153.374 202.749 151.282 203.126 149.174 203.11ZM140.824 233.21L165.954 204.88L188.244 175L195.614 181.66L171.544 209.09L148.194 239.91L140.824 233.21ZM149.174 195.11C149.782 195.09 150.376 194.918 150.9 194.608C151.425 194.299 151.863 193.863 152.174 193.34C152.979 192.063 153.406 190.584 153.406 189.075C153.406 187.566 152.979 186.087 152.174 184.81C151.871 184.282 151.434 183.844 150.907 183.539C150.381 183.234 149.783 183.074 149.174 183.074C148.566 183.074 147.968 183.234 147.441 183.539C146.914 183.844 146.477 184.282 146.174 184.81C145.369 186.087 144.942 187.566 144.942 189.075C144.942 190.584 145.369 192.063 146.174 193.34C146.485 193.864 146.923 194.3 147.447 194.61C147.972 194.919 148.566 195.091 149.174 195.11ZM187.264 239.87C185.127 239.891 183.004 239.514 181.004 238.76C179.174 238.062 177.481 237.047 176.004 235.76C174.593 234.532 173.458 233.019 172.674 231.32C171.891 229.592 171.487 227.717 171.487 225.82C171.487 223.923 171.891 222.048 172.674 220.32C173.463 218.624 174.597 217.112 176.004 215.88C177.483 214.596 179.175 213.581 181.004 212.88C183.004 212.126 185.127 211.749 187.264 211.77C189.372 211.754 191.464 212.131 193.434 212.88C195.265 213.576 196.958 214.592 198.434 215.88C199.844 217.119 200.99 218.629 201.804 220.32C202.625 222.037 203.051 223.917 203.051 225.82C203.051 227.723 202.625 229.603 201.804 231.32C200.995 233.014 199.848 234.525 198.434 235.76C196.96 237.051 195.267 238.067 193.434 238.76C191.464 239.509 189.372 239.886 187.264 239.87ZM187.264 231.87C187.874 231.851 188.469 231.678 188.993 231.366C189.518 231.055 189.955 230.616 190.264 230.09C191.074 228.817 191.504 227.339 191.504 225.83C191.504 224.321 191.074 222.843 190.264 221.57C189.963 221.04 189.527 220.599 189 220.292C188.473 219.985 187.874 219.824 187.264 219.824C186.654 219.824 186.055 219.985 185.529 220.292C185.002 220.599 184.565 221.04 184.264 221.57C183.455 222.843 183.025 224.321 183.025 225.83C183.025 227.339 183.455 228.817 184.264 230.09C184.573 230.617 185.009 231.058 185.534 231.371C186.058 231.684 186.654 231.859 187.264 231.88V231.87Z" fill="#9951FF"/>
<path d="M344.289 -22.8704C344.331 -19.1973 343.729 -15.5454 342.509 -12.0804C341.422 -8.95212 339.753 -6.05787 337.589 -3.55036C335.517 -1.20025 332.976 0.690255 330.129 1.99965C327.191 3.34659 323.992 4.02945 320.759 3.99965C317.527 4.02945 314.328 3.34659 311.389 1.99965C308.538 0.681118 305.996 -1.2236 303.929 -3.59035C301.771 -6.0879 300.099 -8.9675 298.999 -12.0804C297.788 -15.5472 297.19 -19.1983 297.229 -22.8704C297.19 -26.5391 297.789 -30.1867 298.999 -33.6504C300.094 -36.7774 301.766 -39.6709 303.929 -42.1804C305.999 -44.5563 308.539 -46.4768 311.389 -47.8204C314.324 -49.1794 317.526 -49.8629 320.759 -49.8204C323.993 -49.8629 327.195 -49.1794 330.129 -47.8204C332.978 -46.474 335.518 -44.5539 337.589 -42.1804C339.753 -39.6728 341.422 -36.7786 342.509 -33.6504C343.728 -30.1886 344.33 -26.5401 344.289 -22.8704ZM327.239 -22.8704C327.361 -25.7607 326.734 -28.6336 325.419 -31.2104C324.209 -33.3404 322.649 -34.4104 320.759 -34.4104C318.869 -34.4104 317.129 -33.3404 315.919 -31.2104C314.604 -28.6336 313.977 -25.7607 314.099 -22.8704C313.972 -19.9891 314.599 -17.1246 315.919 -14.5604C317.129 -12.4604 318.749 -11.4104 320.759 -11.4104C322.769 -11.4104 324.209 -12.4604 325.419 -14.5604C326.739 -17.1246 327.367 -19.9891 327.239 -22.8704Z" fill="#9951FF"/>
<path d="M366.759 -32.7201C364.619 -32.6997 362.493 -33.076 360.489 -33.8301C358.657 -34.5244 356.964 -35.5404 355.489 -36.8301C354.078 -38.0582 352.943 -39.5715 352.159 -41.2701C351.357 -42.9921 350.947 -44.8706 350.959 -46.7701C350.947 -48.6729 351.357 -50.5546 352.159 -52.2801C352.948 -53.9757 354.082 -55.4879 355.489 -56.7201C356.966 -58.007 358.659 -59.0226 360.489 -59.7201C362.493 -60.4742 364.619 -60.8506 366.759 -60.8301C368.867 -60.8444 370.959 -60.4681 372.929 -59.7201C374.76 -59.0226 376.452 -58.007 377.929 -56.7201C379.342 -55.4819 380.492 -53.9719 381.309 -52.2801C382.138 -50.5622 382.562 -48.6774 382.549 -46.7701C382.562 -44.8661 382.138 -42.9845 381.309 -41.2701C380.497 -39.5754 379.346 -38.0645 377.929 -36.8301C376.455 -35.5404 374.761 -34.5244 372.929 -33.8301C370.959 -33.0822 368.867 -32.7058 366.759 -32.7201ZM358.409 -2.62014L383.539 -30.9501L405.829 -60.8701L413.199 -54.2101L389.129 -26.7701L365.779 3.99986L358.409 -2.62014ZM366.759 -40.7101C367.369 -40.7273 367.965 -40.8998 368.49 -41.2113C369.015 -41.5227 369.452 -41.9629 369.759 -42.4901C370.609 -43.7448 371.043 -45.2352 370.999 -46.7501C371.044 -48.2606 370.614 -49.7471 369.769 -51.0001C369.462 -51.5274 369.025 -51.9675 368.5 -52.279C367.975 -52.5904 367.379 -52.7629 366.769 -52.7801C366.159 -52.7629 365.563 -52.5904 365.039 -52.279C364.514 -51.9675 364.077 -51.5274 363.769 -51.0001C362.915 -49.7466 362.478 -48.2562 362.519 -46.7401C362.478 -45.2241 362.915 -43.7336 363.769 -42.4801C364.077 -41.9561 364.513 -41.5189 365.036 -41.2093C365.559 -40.8997 366.152 -40.728 366.759 -40.7101ZM404.849 3.99986C402.712 4.02044 400.589 3.64407 398.589 2.88986C396.757 2.19695 395.063 1.18085 393.589 -0.110138C392.178 -1.33826 391.043 -2.8515 390.259 -4.55014C389.444 -6.25213 389.014 -8.11295 388.999 -10.0001C388.989 -11.9027 389.398 -13.7842 390.199 -15.5101C390.988 -17.2057 392.122 -18.7179 393.529 -19.9501C395.005 -21.238 396.698 -22.2537 398.529 -22.9501C400.552 -23.6912 402.696 -24.0474 404.849 -24.0001C406.949 -24.0197 409.034 -23.6502 410.999 -22.9101C412.829 -22.2114 414.522 -21.1959 415.999 -19.9101C417.409 -18.671 418.555 -17.161 419.369 -15.4701C420.208 -13.768 420.649 -11.8976 420.659 -10.0001C420.668 -8.09536 420.241 -6.21383 419.409 -4.50014C418.596 -2.78071 417.435 -1.2485 415.999 -0.000137329C414.524 1.28876 412.831 2.30462 410.999 2.99986C409.028 3.70924 406.943 4.04826 404.849 3.99986ZM404.849 -4.00014C405.459 -4.02013 406.053 -4.19377 406.578 -4.50495C407.102 -4.81613 407.54 -5.25476 407.849 -5.78014C408.699 -7.02096 409.14 -8.49649 409.109 -10.0001C409.154 -11.5152 408.72 -13.0058 407.869 -14.2601C407.56 -14.7855 407.122 -15.2241 406.598 -15.5353C406.073 -15.8465 405.479 -16.0201 404.869 -16.0401C404.26 -16.0211 403.665 -15.8478 403.14 -15.5365C402.615 -15.2253 402.178 -14.7861 401.869 -14.2601C401.004 -13.0105 400.556 -11.5195 400.589 -10.0001C400.545 -8.4851 400.978 -6.9945 401.829 -5.74014C402.139 -5.20946 402.579 -4.76655 403.107 -4.45331C403.635 -4.14008 404.235 -3.96689 404.849 -3.95014V-4.00014Z" fill="#9951FF"/>
<path d="M420.999 51.4496C421.036 55.1223 420.434 58.7733 419.219 62.2396C418.129 65.3684 416.456 68.2626 414.289 70.7696C412.223 73.1363 409.681 75.0411 406.829 76.3596C403.883 77.6778 400.692 78.3592 397.464 78.3592C394.237 78.3592 391.045 77.6778 388.099 76.3596C385.247 75.0411 382.706 73.1363 380.639 70.7696C378.473 68.2626 376.8 65.3684 375.709 62.2396C374.519 58.7691 373.94 55.1181 373.999 51.4496C373.961 47.7777 374.56 44.1269 375.769 40.6596C376.862 37.5349 378.535 34.6444 380.699 32.1396C382.769 29.7637 385.309 27.8432 388.159 26.4996C391.098 25.1556 394.292 24.46 397.524 24.46C400.756 24.46 403.95 25.1556 406.889 26.4996C409.739 27.8432 412.28 29.7637 414.349 32.1396C416.514 34.6444 418.186 37.5349 419.279 40.6596C420.472 44.1299 421.054 47.7806 420.999 51.4496ZM403.949 51.4496C404.071 48.5592 403.444 45.6864 402.129 43.1096C400.909 40.9763 399.356 39.9096 397.469 39.9096C395.469 39.9096 393.856 40.9763 392.629 43.1096C391.309 45.6847 390.682 48.5588 390.809 51.4496C390.677 54.3312 391.305 57.1969 392.629 59.7596C393.843 61.8596 395.456 62.9096 397.469 62.9096C399.356 62.9096 400.909 61.8596 402.129 59.7596C403.466 57.2 404.111 54.3353 403.999 51.4496H403.949Z" fill="#9951FF"/>
<path d="M443.469 41.6001C441.332 41.6207 439.209 41.2444 437.209 40.4902C435.377 39.7959 433.684 38.7799 432.209 37.4902C430.792 36.2671 429.657 34.7526 428.879 33.0501C428.09 31.3239 427.682 29.4482 427.682 27.5502C427.682 25.6521 428.09 23.7764 428.879 22.0502C429.659 20.349 430.794 18.8349 432.209 17.6102C433.686 16.3233 435.379 15.3077 437.209 14.6102C439.209 13.8559 441.332 13.4796 443.469 13.5002C445.577 13.4845 447.669 13.8609 449.639 14.6102C451.47 15.3065 453.163 16.3223 454.639 17.6102C456.049 18.8509 457.192 20.3648 457.999 22.0602C458.82 23.7774 459.246 25.6567 459.246 27.5602C459.246 29.4636 458.82 31.3429 457.999 33.0602C457.19 34.7544 456.043 36.2654 454.629 37.5002C453.155 38.7911 451.462 39.8072 449.629 40.5002C447.661 41.2448 445.573 41.6178 443.469 41.6001ZM435.129 71.7001L460.249 43.3701L482.539 13.4502L489.909 20.1102L465.849 47.5501L442.499 78.3602L435.129 71.7001ZM443.469 33.6102C444.078 33.5892 444.673 33.4152 445.197 33.1041C445.721 32.793 446.159 32.3549 446.469 31.8302C447.32 30.5758 447.754 29.0852 447.709 27.5702C447.752 26.0522 447.318 24.5591 446.469 23.3002C446.166 22.7725 445.729 22.3341 445.202 22.0293C444.675 21.7245 444.078 21.564 443.469 21.564C442.86 21.564 442.263 21.7245 441.736 22.0293C441.209 22.3341 440.772 22.7725 440.469 23.3002C439.62 24.5591 439.186 26.0522 439.229 27.5702C439.184 29.0852 439.618 30.5758 440.469 31.8302C440.78 32.3543 441.218 32.7919 441.742 33.1029C442.266 33.4139 442.86 33.5883 443.469 33.6102ZM481.569 78.3602C479.432 78.3807 477.309 78.0044 475.309 77.2502C473.476 76.5572 471.783 75.5411 470.309 74.2502C468.907 73.0258 467.779 71.5198 466.999 69.8302C466.21 68.1039 465.802 66.2282 465.802 64.3302C465.802 62.4322 466.21 60.5564 466.999 58.8302C467.788 57.1346 468.922 55.6223 470.329 54.3901C471.805 53.1023 473.498 52.0865 475.329 51.3901C477.329 50.6359 479.452 50.2596 481.589 50.2801C483.697 50.2658 485.789 50.6422 487.759 51.3901C489.589 52.0877 491.282 53.1033 492.759 54.3901C494.172 55.6283 495.322 57.1383 496.139 58.8302C496.954 60.5492 497.377 62.4278 497.377 64.3302C497.377 66.2325 496.954 68.1111 496.139 69.8302C495.327 71.5249 494.176 73.0358 492.759 74.2701C491.284 75.5599 489.591 76.5759 487.759 77.2701C485.781 78.0137 483.682 78.3833 481.569 78.3602ZM481.569 70.3602C482.179 70.343 482.775 70.1705 483.3 69.859C483.825 69.5476 484.262 69.1074 484.569 68.5802C485.386 67.3094 485.82 65.8307 485.82 64.3202C485.82 62.8096 485.386 61.3309 484.569 60.0602C484.27 59.5273 483.835 59.0837 483.307 58.775C482.78 58.4662 482.18 58.3035 481.569 58.3035C480.958 58.3035 480.358 58.4662 479.831 58.775C479.304 59.0837 478.868 59.5273 478.569 60.0602C477.752 61.3309 477.318 62.8096 477.318 64.3202C477.318 65.8307 477.752 67.3094 478.569 68.5802C478.875 69.1093 479.312 69.5514 479.837 69.8647C480.362 70.1779 480.958 70.3519 481.569 70.3702V70.3602Z" fill="#9951FF"/>
<path d="M-15.9207 32.7298C-18.0581 32.7504 -20.1807 32.3741 -22.1807 31.6198C-24.0111 30.9223 -25.7038 29.9067 -27.1807 28.6198C-28.5974 27.3968 -29.7332 25.8823 -30.5107 24.1798C-31.3128 22.4544 -31.7226 20.5726 -31.7107 18.6698C-31.7215 16.7704 -31.3117 14.8922 -30.5107 13.1698C-29.7332 11.4674 -28.5974 9.95288 -27.1807 8.72984C-25.7035 7.44352 -24.0108 6.42795 -22.1807 5.72984C-20.1807 4.97564 -18.0581 4.59926 -15.9207 4.61984C-13.8098 4.6201 -11.7175 5.01347 -9.75068 5.77984C-7.91987 6.47662 -6.22703 7.49232 -4.75068 8.77984C-3.32837 10.0065 -2.17142 11.5105 -1.35068 13.1998C-0.527861 14.9162 -0.103951 16.7965 -0.110672 18.6998C-0.102787 20.6066 -0.526718 22.4903 -1.35068 24.2098C-2.16324 25.9046 -3.31342 27.4154 -4.73068 28.6498C-6.20678 29.9377 -7.89969 30.9534 -9.73068 31.6498C-11.709 32.3914 -13.8082 32.7576 -15.9207 32.7298ZM-24.2607 62.8398L0.869324 34.5098L23.1493 4.58984L30.5193 11.2498L6.45932 38.6798L-16.8907 69.4998L-24.2607 62.8398ZM-15.9207 24.7398C-15.3121 24.7209 -14.7182 24.5488 -14.1938 24.2394C-13.6694 23.93 -13.2315 23.4934 -12.9207 22.9698C-12.0716 21.7109 -11.6379 20.2177 -11.6807 18.6998C-11.6394 17.1852 -12.0729 15.6957 -12.9207 14.4398C-13.2315 13.9163 -13.6694 13.4797 -14.1938 13.1703C-14.7182 12.8609 -15.3121 12.6888 -15.9207 12.6698C-16.529 12.6897 -17.1226 12.8622 -17.6469 13.1715C-18.1711 13.4808 -18.6091 13.917 -18.9207 14.4398C-19.7684 15.6957 -20.202 17.1852 -20.1607 18.6998C-20.2157 20.2257 -19.7888 21.7302 -18.9407 22.9998C-18.6237 23.52 -18.1809 23.9519 -17.6532 24.256C-17.1254 24.5601 -16.5296 24.7265 -15.9207 24.7398ZM22.1793 69.4998C20.0419 69.5204 17.9193 69.144 15.9193 68.3898C14.0885 67.6931 12.3957 66.6774 10.9193 65.3898C9.50652 64.1782 8.36502 62.6824 7.56932 60.9998C6.78028 59.2736 6.3719 57.3978 6.3719 55.4998C6.3719 53.6018 6.78028 51.7261 7.56932 49.9998C8.35318 48.3012 9.48811 46.788 10.8993 45.5598C12.3754 44.272 14.0683 43.2562 15.8993 42.5598C17.8993 41.8056 20.0219 41.4293 22.1593 41.4498C24.2669 41.4355 26.3589 41.8119 28.3293 42.5598C30.1581 43.2608 31.8503 44.276 33.3293 45.5598C34.7551 46.7934 35.9153 48.304 36.7393 49.9998C37.5542 51.7189 37.9769 53.5975 37.9769 55.4998C37.9769 57.4022 37.5542 59.2808 36.7393 60.9998C35.9271 62.6921 34.7807 64.2024 33.3693 65.4398C31.89 66.7233 30.1979 67.7386 28.3693 68.4398C26.3894 69.1732 24.2905 69.5326 22.1793 69.4998ZM22.1793 61.4998C22.7877 61.48 23.3813 61.3075 23.9055 60.9982C24.4297 60.6889 24.8678 60.2527 25.1793 59.7298C25.984 58.4528 26.411 56.9742 26.411 55.4648C26.411 53.9554 25.984 52.4768 25.1793 51.1998C24.8761 50.6722 24.4391 50.2338 23.9124 49.929C23.3857 49.6242 22.7879 49.4637 22.1793 49.4637C21.5708 49.4637 20.973 49.6242 20.4462 49.929C19.9195 50.2338 19.4825 50.6722 19.1793 51.1998C18.363 52.4726 17.9291 53.9528 17.9291 55.4648C17.9291 56.9769 18.363 58.4571 19.1793 59.7298C19.4902 60.2534 19.928 60.69 20.4524 60.9994C20.9768 61.3088 21.5708 61.4809 22.1793 61.4998Z" fill="#9951FF"/>
<path d="M60.7991 107.05C58.6618 107.07 56.5391 106.694 54.5391 105.94C52.7093 105.241 51.0167 104.226 49.5391 102.94C48.1279 101.712 46.993 100.199 46.2091 98.4999C45.4201 96.7737 45.0117 94.8979 45.0117 92.9999C45.0117 91.1019 45.4201 89.2261 46.2091 87.4999C46.993 85.8013 48.1279 84.288 49.5391 83.0599C51.0145 81.771 52.7076 80.7551 54.5391 80.0599C56.5424 79.3227 58.6649 78.9633 60.7991 78.9999C62.9163 78.9773 65.019 79.3503 66.9991 80.0999C68.8307 80.7951 70.5238 81.811 71.9991 83.0999C73.4134 84.3347 74.5602 85.8456 75.3691 87.5399C76.1902 89.2571 76.6164 91.1364 76.6164 93.0399C76.6164 94.9434 76.1902 96.8227 75.3691 98.5399C74.5626 100.241 73.4156 101.759 71.9991 103C70.5215 104.286 68.829 105.301 66.9991 106C65.0158 106.732 62.9131 107.089 60.7991 107.05ZM52.4491 137.16L77.5791 108.83L99.8691 78.8999L107.239 85.5599L83.1791 113L59.8191 143.81L52.4491 137.16ZM60.7991 99.0599C61.4086 99.0399 62.0032 98.8663 62.5277 98.5551C63.0522 98.2439 63.4895 97.8053 63.7991 97.2799C64.6087 96.0065 65.0387 94.5288 65.0387 93.0199C65.0387 91.511 64.6087 90.0333 63.7991 88.7599C63.4959 88.2322 63.0589 87.7939 62.5322 87.4891C62.0055 87.1842 61.4077 87.0237 60.7991 87.0237C60.1906 87.0237 59.5928 87.1842 59.0661 87.4891C58.5393 87.7939 58.1023 88.2322 57.7991 88.7599C56.9896 90.0333 56.5596 91.511 56.5596 93.0199C56.5596 94.5288 56.9896 96.0065 57.7991 97.2799C58.1081 97.8059 58.5453 98.245 59.0699 98.5563C59.5945 98.8676 60.1894 99.0408 60.7991 99.0599ZM98.8891 143.81C96.7529 143.828 94.6313 143.455 92.6291 142.71C90.799 142.012 89.1064 140.996 87.6291 139.71C86.215 138.485 85.0796 136.971 84.2991 135.27C83.5101 133.544 83.1017 131.668 83.1017 129.77C83.1017 127.872 83.5101 125.996 84.2991 124.27C85.0796 122.569 86.215 121.055 87.6291 119.83C89.106 118.543 90.7987 117.527 92.6291 116.83C94.6294 116.077 96.7518 115.7 98.8891 115.72C100.997 115.704 103.089 116.081 105.059 116.83C106.89 117.526 108.583 118.542 110.059 119.83C111.476 121.064 112.627 122.575 113.439 124.27C114.254 125.989 114.677 127.868 114.677 129.77C114.677 131.672 114.254 133.551 113.439 135.27C112.627 136.965 111.476 138.476 110.059 139.71C108.583 140.997 106.89 142.013 105.059 142.71C103.087 143.451 100.996 143.824 98.8891 143.81ZM98.8891 135.81C99.4977 135.791 100.092 135.619 100.616 135.309C101.14 135 101.578 134.563 101.889 134.04C102.705 132.767 103.139 131.287 103.139 129.775C103.139 128.263 102.705 126.783 101.889 125.51C101.586 124.982 101.149 124.544 100.622 124.239C100.096 123.934 99.4977 123.774 98.8891 123.774C98.2806 123.774 97.6828 123.934 97.1561 124.239C96.6293 124.544 96.1923 124.982 95.8891 125.51C95.0844 126.787 94.6574 128.265 94.6574 129.775C94.6574 131.284 95.0844 132.763 95.8891 134.04C96.1995 134.565 96.637 135.003 97.1613 135.314C97.6856 135.625 98.2798 135.799 98.8891 135.82V135.81Z" fill="#9951FF"/>
<path d="M273.786 147.15C271.649 147.171 269.526 146.794 267.526 146.04C265.695 145.344 264.003 144.328 262.526 143.04C261.12 141.808 259.985 140.296 259.196 138.6C258.407 136.874 257.999 134.998 257.999 133.1C257.999 131.202 258.407 129.326 259.196 127.6C259.98 125.901 261.115 124.388 262.526 123.16C264 121.869 265.694 120.853 267.526 120.16C269.526 119.406 271.649 119.029 273.786 119.05C275.894 119.036 277.986 119.412 279.956 120.16C281.788 120.854 283.482 121.87 284.956 123.16C286.374 124.394 287.524 125.905 288.336 127.6C289.151 129.319 289.574 131.198 289.574 133.1C289.574 135.002 289.151 136.881 288.336 138.6C287.519 140.292 286.37 141.802 284.956 143.04C283.48 144.327 281.787 145.342 279.956 146.04C277.986 146.788 275.894 147.164 273.786 147.15ZM265.436 177.25L290.566 148.93L312.856 119L320.226 125.66L296.156 153.1L272.806 183.91L265.436 177.25ZM273.786 139.16C274.397 139.143 274.992 138.97 275.517 138.659C276.042 138.347 276.479 137.907 276.786 137.38C277.603 136.109 278.037 134.631 278.037 133.12C278.037 131.609 277.603 130.131 276.786 128.86C276.487 128.327 276.052 127.884 275.525 127.575C274.997 127.266 274.397 127.103 273.786 127.103C273.175 127.103 272.575 127.266 272.048 127.575C271.521 127.884 271.085 128.327 270.786 128.86C269.97 130.131 269.536 131.609 269.536 133.12C269.536 134.631 269.97 136.109 270.786 137.38C271.094 137.907 271.531 138.347 272.056 138.659C272.581 138.97 273.176 139.143 273.786 139.16ZM311.876 183.91C309.739 183.931 307.616 183.554 305.616 182.8C303.787 182.101 302.094 181.086 300.616 179.8C299.209 178.595 298.068 177.11 297.266 175.44C296.477 173.714 296.069 171.838 296.069 169.94C296.069 168.042 296.477 166.166 297.266 164.44C298.05 162.741 299.185 161.228 300.596 160C302.072 158.711 303.765 157.695 305.596 157C307.596 156.246 309.719 155.869 311.856 155.89C313.964 155.874 316.056 156.251 318.026 157C319.858 157.695 321.551 158.711 323.026 160C324.441 161.235 325.588 162.746 326.396 164.44C327.218 166.157 327.644 168.037 327.644 169.94C327.644 171.843 327.218 173.723 326.396 175.44C325.585 177.133 324.438 178.643 323.026 179.88C321.549 181.166 319.856 182.181 318.026 182.88C316.057 183.6 313.972 183.949 311.876 183.91ZM311.876 175.91C312.486 175.89 313.081 175.716 313.605 175.405C314.129 175.094 314.567 174.655 314.876 174.13C315.686 172.857 316.116 171.379 316.116 169.87C316.116 168.361 315.686 166.883 314.876 165.61C314.575 165.08 314.139 164.639 313.612 164.332C313.085 164.025 312.486 163.864 311.876 163.864C311.267 163.864 310.668 164.025 310.141 164.332C309.614 164.639 309.178 165.08 308.876 165.61C308.067 166.883 307.637 168.361 307.637 169.87C307.637 171.379 308.067 172.857 308.876 174.13C309.184 174.658 309.621 175.099 310.146 175.412C310.67 175.725 311.266 175.9 311.876 175.92V175.91Z" fill="#9951FF"/>
</g>
<path d="M25.3809 175.33V16.3999" stroke="#C5A1FF" stroke-width="2" stroke-miterlimit="10" stroke-linecap="round" stroke-dasharray="6 6"/>
<path d="M410.3 16.3999V175.33" stroke="#C5A1FF" stroke-width="2" stroke-miterlimit="10" stroke-linecap="round" stroke-dasharray="6 6"/>
<path d="M113.43 166.03L328.18 140.52" stroke="#F5F941" stroke-width="3.31" stroke-miterlimit="10" stroke-linecap="round"/>
<path d="M113.43 57.2202L328.18 31.7002" stroke="#FFFF00" stroke-width="3.31" stroke-miterlimit="10" stroke-linecap="round"/>
<path d="M58.9166 137.581C59.4112 141.565 62.6687 144.103 66.6531 143.609L84.909 141.343C89.9801 140.713 93.9385 138.824 96.7933 135.748C99.7206 132.663 100.892 129.06 100.388 125.003C99.6957 119.425 95.8692 115.266 90.1026 113.848C94.198 110.692 95.9127 106.728 95.3192 101.946C94.8336 98.0342 92.9166 95.0355 89.6496 93.0136C86.3737 90.9192 82.2364 90.1822 77.2377 90.8027L60.3583 92.898C56.3739 93.3926 53.8358 96.65 54.3304 100.634L58.9166 137.581ZM68.5444 102.548L75.4266 101.694C83.0517 100.306 84.3286 110.593 76.5956 111.111L69.7134 111.966L68.5444 102.548ZM70.9274 121.746L79.6207 120.666C87.7439 119.143 89.1648 130.589 80.9246 131.171L72.2314 132.25L70.9274 121.746ZM110.021 131.237C110.515 135.222 113.773 137.76 117.757 137.265L142.026 134.252C145.721 133.794 147.86 130.88 147.419 127.33C146.979 123.781 144.192 121.478 140.497 121.937L123.111 124.095L119.154 92.22C118.659 88.2356 115.402 85.6975 111.417 86.1921C107.433 86.6867 104.895 89.9442 105.39 93.9286L110.021 131.237ZM150.996 126.886C151.464 130.653 154.631 133.056 158.47 132.579C161.513 132.201 163.462 130.12 164.325 126.409L165.17 122.552L184.44 120.16L186.285 123.757C187.957 127.153 190.491 128.604 193.751 128.2C197.808 127.696 200.273 124.448 199.77 120.391C199.635 119.304 199.102 117.973 198.243 116.387L180.333 84.6993C177.874 80.2967 174.471 78.3652 170.052 78.9137C165.633 79.4623 162.805 82.1671 161.425 87.0464L151.47 123.002C150.998 124.532 150.861 125.8 150.996 126.886ZM171.587 94.8329L179.18 109.779L167.806 111.191L171.587 94.8329ZM224.543 71.7818C216.936 72.726 210.804 76.0619 206.226 81.8529C201.712 87.5625 199.878 94.1164 200.786 101.433C201.694 108.75 204.994 114.593 210.613 118.971C216.296 123.268 222.976 124.94 230.583 123.995C237.755 123.105 243.235 120.439 247.169 115.978C248.574 114.259 249.155 112.421 248.912 110.465C248.453 106.771 245.522 104.487 241.755 104.954C240.088 105.161 238.639 105.93 237.27 107.35C235.05 109.612 232.342 110.904 229.227 111.291C225.46 111.758 222.183 110.841 219.405 108.611C216.627 106.382 215 103.347 214.523 99.5073C214.047 95.6678 214.882 92.3274 217.031 89.4861C219.179 86.6448 222.132 84.9541 225.899 84.4865C228.87 84.1178 231.577 84.5909 234.174 85.9604C235.749 86.7948 237.333 87.113 238.854 86.9242C242.404 86.4836 244.888 83.38 244.42 79.6129C244.114 77.1498 242.631 75.2742 239.889 73.9228C235.499 71.7459 230.411 71.0534 224.543 71.7818ZM257.011 113.359C257.506 117.343 260.763 119.881 264.748 119.387C268.732 118.892 271.27 115.635 270.775 111.65L268.59 94.0464L288.231 113.603C289.914 115.306 291.842 116.023 294.015 115.754C297.565 115.313 299.921 112.372 299.463 108.678C299.265 107.084 298.578 105.698 297.329 104.529L282.031 89.7298L292.085 74.726C293.146 73.1967 293.609 71.5944 293.402 69.9282C292.944 66.2336 290.021 64.0218 286.471 64.4624C284.298 64.7322 282.613 65.9712 281.343 68.1885L268.105 90.1344L266.099 73.9794C265.605 69.995 262.347 67.4569 258.363 67.9515C254.378 68.4461 251.84 71.7036 252.335 75.688L257.011 113.359ZM302.186 103.926C302.393 105.592 303.152 106.969 304.482 108.202C308.716 112.09 313.985 113.643 320.287 112.86C325.793 112.177 330.114 110.243 333.331 107.122C336.539 103.928 337.9 100.081 337.343 95.5898C336.659 90.084 333.548 86.3509 327.936 84.3994C331.859 81.0435 333.574 77.0791 332.998 72.4426C332.486 68.3133 330.406 65.1877 326.759 63.0659C323.175 60.8625 318.956 60.0621 314.247 60.6467C307.945 61.429 303.496 64.703 301.238 68.4405C300.323 69.9519 299.986 71.3913 300.148 72.6952C300.544 75.8828 302.987 77.7863 306.175 77.3907C307.696 77.2018 309.064 76.37 310.269 74.8227C311.457 73.1305 312.888 72.2172 314.555 72.0104C317.452 71.6507 319.85 73.192 320.21 76.0897C320.597 79.2048 318.839 81.0414 314.999 81.518L314.492 81.581C311.522 81.9497 309.809 84.1484 310.168 87.0462C310.537 90.0164 312.736 91.7296 315.706 91.3609L316.213 91.298C321.139 90.6865 323.718 92.4996 324.114 95.6871C324.474 98.5849 322.298 101.209 318.604 101.667C316.068 101.982 313.923 101.292 312.24 99.5885C311.128 98.329 308.883 97.4307 307.144 97.6465C303.739 98.0691 301.763 100.521 302.186 103.926ZM344.827 90.9092C345.555 96.7771 347.87 101.198 351.679 104.035C355.561 106.863 360.25 107.9 365.756 107.216C371.262 106.533 375.619 104.3 378.746 100.455C381.946 96.6 383.172 91.6663 382.444 85.7983L380.645 71.3095C379.917 65.4416 377.612 61.0934 373.73 58.2651C369.92 55.4278 365.222 54.3191 359.716 55.0025C354.21 55.686 349.862 57.9912 346.663 61.8457C343.536 65.6912 342.3 70.5524 343.028 76.4204L344.827 90.9092ZM355.907 73.4977C355.484 70.0928 357.578 67.4054 360.983 66.9828C364.388 66.5601 367.075 68.654 367.498 72.0589L369.566 88.721C369.989 92.1259 367.895 94.8133 364.49 95.2359C361.085 95.6586 358.397 93.5647 357.975 90.1598L355.907 73.4977Z" fill="black"/>
<path d="M59.9166 132.581C60.4112 136.565 63.6687 139.103 67.6531 138.609L85.909 136.343C90.9801 135.713 94.9385 133.824 97.7933 130.748C100.721 127.663 101.892 124.06 101.388 120.003C100.696 114.425 96.8692 110.266 91.1026 108.848C95.198 105.692 96.9127 101.728 96.3192 96.9462C95.8336 93.0342 93.9166 90.0355 90.6496 88.0136C87.3737 85.9192 83.2364 85.1822 78.2377 85.8027L61.3583 87.898C57.3739 88.3926 54.8358 91.65 55.3304 95.6344L59.9166 132.581ZM69.5444 97.548L76.4266 96.6938C84.0517 95.3059 85.3286 105.593 77.5956 106.112L70.7134 106.966L69.5444 97.548ZM71.9274 116.746L80.6207 115.666C88.7439 114.143 90.1648 125.589 81.9246 126.171L73.2314 127.25L71.9274 116.746ZM111.021 126.237C111.515 130.222 114.773 132.76 118.757 132.265L143.026 129.252C146.721 128.794 148.86 125.88 148.419 122.33C147.979 118.781 145.192 116.478 141.497 116.937L124.111 119.095L120.154 87.22C119.659 83.2356 116.402 80.6975 112.417 81.1921C108.433 81.6867 105.895 84.9442 106.39 88.9286L111.021 126.237ZM151.996 121.886C152.464 125.653 155.631 128.056 159.47 127.579C162.513 127.201 164.462 125.12 165.325 121.409L166.17 117.552L185.44 115.16L187.285 118.757C188.957 122.153 191.491 123.604 194.751 123.2C198.808 122.696 201.273 119.448 200.77 115.391C200.635 114.304 200.102 112.973 199.243 111.387L181.333 79.6993C178.874 75.2967 175.471 73.3652 171.052 73.9137C166.633 74.4623 163.805 77.1671 162.425 82.0464L152.47 118.002C151.998 119.532 151.861 120.8 151.996 121.886ZM172.587 89.8329L180.18 104.779L168.806 106.191L172.587 89.8329ZM225.543 66.7818C217.936 67.726 211.804 71.0619 207.226 76.8529C202.712 82.5625 200.878 89.1164 201.786 96.4332C202.694 103.75 205.994 109.593 211.613 113.971C217.296 118.268 223.976 119.94 231.583 118.995C238.755 118.105 244.235 115.439 248.169 110.978C249.574 109.259 250.155 107.422 249.912 105.466C249.453 101.771 246.522 99.4866 242.755 99.9543C241.088 100.161 239.639 100.93 238.27 102.35C236.05 104.612 233.342 105.904 230.227 106.291C226.46 106.758 223.183 105.841 220.405 103.611C217.627 101.382 216 98.3468 215.523 94.5073C215.047 90.6678 215.882 87.3274 218.031 84.4861C220.179 81.6448 223.132 79.9541 226.899 79.4865C229.87 79.1178 232.577 79.5909 235.174 80.9604C236.749 81.7948 238.333 82.113 239.854 81.9242C243.404 81.4836 245.888 78.38 245.42 74.6129C245.114 72.1498 243.631 70.2742 240.889 68.9228C236.499 66.7459 231.411 66.0534 225.543 66.7818ZM258.011 108.359C258.506 112.343 261.763 114.881 265.748 114.387C269.732 113.892 272.27 110.635 271.775 106.65L269.59 89.0464L289.231 108.603C290.914 110.306 292.842 111.023 295.015 110.754C298.565 110.313 300.921 107.372 300.463 103.678C300.265 102.084 299.578 100.698 298.329 99.529L283.031 84.7298L293.085 69.726C294.146 68.1967 294.609 66.5944 294.402 64.9282C293.944 61.2336 291.021 59.0218 287.471 59.4624C285.298 59.7322 283.613 60.9712 282.343 63.1885L269.105 85.1344L267.099 68.9794C266.605 64.995 263.347 62.4569 259.363 62.9515C255.378 63.4461 252.84 66.7036 253.335 70.688L258.011 108.359ZM303.186 98.9261C303.393 100.592 304.152 101.969 305.482 103.202C309.716 107.09 314.985 108.643 321.287 107.86C326.793 107.177 331.114 105.243 334.331 102.122C337.539 98.9283 338.9 95.0813 338.343 90.5898C337.659 85.084 334.548 81.3509 328.936 79.3994C332.859 76.0435 334.574 72.0791 333.998 67.4426C333.486 63.3133 331.406 60.1877 327.759 58.0659C324.175 55.8625 319.956 55.0621 315.247 55.6467C308.945 56.429 304.496 59.703 302.238 63.4405C301.323 64.9519 300.986 66.3913 301.148 67.6952C301.544 70.8828 303.987 72.7863 307.175 72.3907C308.696 72.2018 310.064 71.37 311.269 69.8227C312.457 68.1305 313.888 67.2172 315.555 67.0104C318.452 66.6507 320.85 68.192 321.21 71.0897C321.597 74.2048 319.839 76.0414 315.999 76.518L315.492 76.581C312.522 76.9497 310.809 79.1484 311.168 82.0462C311.537 85.0164 313.736 86.7296 316.706 86.3609L317.213 86.298C322.139 85.6865 324.718 87.4996 325.114 90.6871C325.474 93.5849 323.298 96.2088 319.604 96.6674C317.068 96.9822 314.923 96.2922 313.24 94.5885C312.128 93.329 309.883 92.4307 308.144 92.6465C304.739 93.0691 302.763 95.5212 303.186 98.9261ZM345.827 85.9092C346.555 91.7771 348.87 96.1977 352.679 99.0351C356.561 101.863 361.25 102.9 366.756 102.216C372.262 101.533 376.619 99.3 379.746 95.4545C382.946 91.6 384.172 86.6663 383.444 80.7983L381.645 66.3095C380.917 60.4416 378.612 56.0934 374.73 53.2651C370.92 50.4278 366.222 49.3191 360.716 50.0025C355.21 50.686 350.862 52.9912 347.663 56.8457C344.536 60.6912 343.3 65.5524 344.028 71.4204L345.827 85.9092ZM356.907 68.4977C356.484 65.0928 358.578 62.4054 361.983 61.9828C365.388 61.5601 368.075 63.654 368.498 67.0589L370.566 83.721C370.989 87.1259 368.895 89.8133 365.49 90.2359C362.085 90.6586 359.397 88.5647 358.975 85.1598L356.907 68.4977Z" fill="#FFFF00"/>
</g>
</g>
<defs>
<clipPath id="clip0_526_20">
<rect width="434" height="192" fill="white"/>
</clipPath>
</defs>
</svg>
