<svg width="50" height="19" viewBox="0 0 50 19" fill="none" xmlns="http://www.w3.org/2000/svg">
<g clip-path="url(#clip0_709_1046)">
<path d="M12.8397 14.2352C12.1937 14.2352 11.5873 13.992 11.1301 13.5446L8.665 11.1323C8.49602 10.967 8.18789 10.967 8.01891 11.1323L5.54388 13.5543C5.08665 14.0017 4.48032 14.2449 3.83422 14.2449H3.34717L6.47823 17.3089C7.45233 18.2621 9.04272 18.2621 10.0168 17.3089L13.1578 14.2352H12.8397Z" fill="#A9A6AC"/>
<path d="M3.81943 5.68514C4.46552 5.68514 5.07186 5.92831 5.52909 6.37574L8.00412 8.79773C8.18303 8.97282 8.47129 8.97282 8.65021 8.79773L11.1153 6.38547C11.5725 5.93803 12.1789 5.69486 12.825 5.69486H13.1231L9.98215 2.62117C9.00804 1.66794 7.41767 1.66794 6.44356 2.62117L3.3125 5.68514H3.81943Z" fill="#A9A6AC"/>
<path d="M15.736 8.24158L13.8375 6.38375C13.7977 6.40321 13.748 6.41293 13.6983 6.41293H12.8336C12.3863 6.41293 11.9489 6.58802 11.6408 6.89928L9.1757 9.31154C8.94709 9.53526 8.63895 9.65198 8.34076 9.65198C8.03262 9.65198 7.73442 9.53526 7.50581 9.31154L5.03078 6.88955C4.71271 6.57829 4.27535 6.40321 3.838 6.40321H2.77443C2.72473 6.40321 2.68497 6.39348 2.64521 6.37402L0.746694 8.23186C-0.227414 9.18509 -0.227414 10.7414 0.746694 11.6946L2.64521 13.5525C2.68497 13.533 2.72473 13.5233 2.77443 13.5233H3.838C4.28529 13.5233 4.72265 13.3482 5.03078 13.0369L7.50581 10.6149C7.9531 10.1772 8.73835 10.1772 9.18565 10.6149L11.6507 13.0272C11.9688 13.3385 12.4062 13.5135 12.8435 13.5135H13.7083C13.758 13.5135 13.7977 13.5233 13.8474 13.5427L15.746 11.6849C16.7101 10.7414 16.7101 9.19481 15.736 8.24158Z" fill="#A9A6AC"/>
<path d="M20.5117 16.876V6.96436C20.5117 5.13571 22.0226 3.65723 23.8913 3.65723H26.8832C28.7419 3.65723 30.2429 5.13571 30.2429 6.95463V9.06536C30.2429 10.894 28.732 12.3725 26.8633 12.3725H22.6388" stroke="#A9A6AC" stroke-width="1.4" stroke-miterlimit="7.7732" stroke-linecap="round" stroke-linejoin="round"/>
<path d="M31.085 3.6543H32.3871C33.1525 3.6543 33.7687 4.25736 33.7687 5.00633V12.4182" stroke="#A9A6AC" stroke-width="1.4" stroke-miterlimit="7.7732" stroke-linecap="round" stroke-linejoin="round"/>
<path d="M33.4859 2.51051L32.8994 1.93663C32.7503 1.79073 32.7503 1.55728 32.8994 1.4211L33.4859 0.84722C33.635 0.701317 33.8735 0.701317 34.0127 0.84722L34.5991 1.4211C34.7482 1.567 34.7482 1.80045 34.5991 1.93663L34.0127 2.51051C33.8735 2.65641 33.635 2.65641 33.4859 2.51051Z" fill="#A9A6AC"/>
<path d="M36.2534 3.65283H37.5357C38.2016 3.65283 38.8278 3.90573 39.305 4.37262L42.3167 7.31986C42.7044 7.69921 43.3405 7.69921 43.7282 7.31986L46.73 4.38235C47.1972 3.92518 47.8334 3.66256 48.4993 3.66256H49.543" stroke="#A9A6AC" stroke-width="1.4" stroke-miterlimit="7.7732" stroke-linecap="round" stroke-linejoin="round"/>
<path d="M36.2534 12.3514H37.5357C38.2016 12.3514 38.8278 12.0985 39.305 11.6317L42.3167 8.68441C42.7044 8.30507 43.3405 8.30507 43.7282 8.68441L46.73 11.6219C47.1972 12.0791 47.8334 12.3417 48.4993 12.3417H49.543" stroke="#A9A6AC" stroke-width="1.4" stroke-miterlimit="7.7732" stroke-linecap="round" stroke-linejoin="round"/>
</g>
<defs>
<clipPath id="clip0_709_1046">
<rect width="49.8485" height="17.2944" fill="white" transform="translate(0 0.733887)"/>
</clipPath>
</defs>
</svg>
