<svg width="30" height="30" viewBox="0 0 30 30" fill="none" xmlns="http://www.w3.org/2000/svg">
<path d="M15 1.5C22.4528 1.5 28.5 7.54718 28.5 15C28.5 22.4528 22.4528 28.5 15 28.5C7.54718 28.5 1.5 22.4528 1.5 15C1.5 7.54718 7.54718 1.5 15 1.5Z" stroke="#473CF0" stroke-width="3" stroke-miterlimit="10"/>
<path d="M11.9 21.1279L20.8414 15.7264C20.9661 15.6504 21.0691 15.5437 21.1405 15.4165C21.212 15.2892 21.2496 15.1458 21.2496 14.9998C21.2496 14.8539 21.212 14.7104 21.1405 14.5831C21.0691 14.4559 20.9661 14.3492 20.8414 14.2732L11.9 8.87169C11.7719 8.7949 11.6256 8.7536 11.4762 8.752C11.3268 8.75041 11.1796 8.78858 11.0499 8.86261C10.9201 8.93664 10.8124 9.04387 10.7377 9.17328C10.663 9.30269 10.6241 9.44963 10.625 9.59903V20.4006C10.6241 20.55 10.663 20.6969 10.7377 20.8263C10.8124 20.9558 10.9201 21.063 11.0499 21.137C11.1796 21.211 11.3268 21.2492 11.4762 21.2476C11.6256 21.246 11.7719 21.2047 11.9 21.1279Z" fill="#473CF0"/>
</svg>
