<svg width="22" height="16" viewBox="0 0 22 16" fill="none" xmlns="http://www.w3.org/2000/svg">
<path d="M19.1818 1H2.81818C2.33597 1 1.87351 1.19156 1.53253 1.53253C1.19156 1.87351 1 2.33597 1 2.81818V13.7273C1 14.2095 1.19156 14.6719 1.53253 15.0129C1.87351 15.3539 2.33597 15.5455 2.81818 15.5455H19.1818C19.664 15.5455 20.1265 15.3539 20.4675 15.0129C20.8084 14.6719 21 14.2095 21 13.7273V2.81818C21 2.33597 20.8084 1.87351 20.4675 1.53253C20.1265 1.19156 19.664 1 19.1818 1ZM2.81818 1.90909H19.1818C19.2857 1.90974 19.3887 1.92819 19.4864 1.96364L11.6182 9.83182C11.5375 9.91304 11.4415 9.9775 11.3358 10.0215C11.2301 10.0655 11.1168 10.0881 11.0023 10.0881C10.8878 10.0881 10.7744 10.0655 10.6687 10.0215C10.563 9.9775 10.4671 9.91304 10.3864 9.83182L2.51364 1.96364C2.61129 1.92819 2.7143 1.90974 2.81818 1.90909ZM1.90909 13.7273V2.81818C1.90444 2.76525 1.90444 2.71202 1.90909 2.65909L7.53636 8.27273L1.90909 13.8864C1.90444 13.8334 1.90444 13.7802 1.90909 13.7273ZM19.1818 14.6364H2.81818C2.7143 14.6357 2.61129 14.6173 2.51364 14.5818L8.18182 8.91364L9.74091 10.4727C9.90603 10.6385 10.1023 10.77 10.3183 10.8597C10.5344 10.9495 10.766 10.9957 11 10.9957C11.234 10.9957 11.4656 10.9495 11.6817 10.8597C11.8977 10.77 12.094 10.6385 12.2591 10.4727L13.8182 8.91364L19.4864 14.5818C19.3887 14.6173 19.2857 14.6357 19.1818 14.6364ZM20.0909 13.7273C20.0956 13.7802 20.0956 13.8334 20.0909 13.8864L14.4636 8.27273L20.0909 2.65909C20.0956 2.71202 20.0956 2.76525 20.0909 2.81818V13.7273Z" fill="#6C18CD" stroke="#6C18CD" stroke-width="0.6"/>
</svg>
