<svg width="80" height="80" viewBox="0 0 80 80" fill="none" xmlns="http://www.w3.org/2000/svg">
<path d="M40 0C17.9032 0 0 17.9032 0 40C0 62.0968 17.9032 80 40 80C62.0968 80 80 62.0968 80 40C80 17.9032 62.0968 0 40 0ZM40 72.2581C22.1774 72.2581 7.74194 57.8226 7.74194 40C7.74194 22.1774 22.1774 7.74194 40 7.74194C57.8226 7.74194 72.2581 22.1774 72.2581 40C72.2581 57.8226 57.8226 72.2581 40 72.2581ZM49.9677 55.4194L36.2742 45.4677C35.7742 45.0968 35.4839 44.5161 35.4839 43.9032V17.4194C35.4839 16.3548 36.3548 15.4839 37.4194 15.4839H42.5806C43.6452 15.4839 44.5161 16.3548 44.5161 17.4194V40.2742L55.2903 48.1129C56.1613 48.7419 56.3387 49.9516 55.7097 50.8226L52.6774 55C52.0484 55.8548 50.8387 56.0484 49.9677 55.4194Z" fill="white"/>
</svg>
