<svg width="35" height="27" viewBox="0 0 35 27" fill="none" xmlns="http://www.w3.org/2000/svg">
<path d="M9.39728 26.3162C9.45671 26.3099 9.64124 26.288 9.80388 26.2693C11.0518 26.1285 12.3123 25.5812 13.3069 24.7461C14.8457 23.4575 15.6339 21.7779 15.5494 19.9701C15.4837 18.594 15.0208 17.518 14.0763 16.5485C13.1286 15.5789 12.1121 15.091 10.7954 14.9752C9.93211 14.9002 9.15019 15.019 7.98983 15.4006C6.75127 15.8103 6.36657 15.851 5.91618 15.6289C5.7379 15.5413 5.62843 15.4538 5.43765 15.2567C5.09673 14.9002 4.92784 14.5405 4.80898 13.9056C4.73079 13.5084 4.73392 12.1322 4.81211 11.5723C5.04043 9.91466 5.54399 8.57289 6.40723 7.34059C7.40808 5.90498 9.4442 4.2786 12.3842 2.56463C12.747 2.35508 13.0598 2.16742 13.0786 2.15178C13.1098 2.12676 13.1192 1.87029 13.1192 1.06022C13.1192 0.475345 13.113 -6.12487e-05 13.1036 -6.12495e-05C13.0504 -6.12542e-05 11.5366 0.519132 11.1644 0.666133C7.45187 2.11737 4.64322 4.34428 2.59459 7.45944C1.10895 9.72075 0.317646 11.9695 0.0392831 14.7156C-0.0201427 15.3287 -0.0107598 16.9175 0.0580489 17.4836C0.317646 19.6261 0.949435 21.2181 2.15359 22.7694C2.47887 23.1916 3.43281 24.1487 3.87694 24.5053C5.05607 25.4436 6.2352 25.994 7.58323 26.2286C7.93978 26.2912 8.1681 26.3099 8.66228 26.3193C9.00632 26.3256 9.33785 26.3224 9.39728 26.3162Z" fill="#6C18CD"/>
<path d="M28.8417 26.3162C28.9011 26.31 29.0857 26.2881 29.2483 26.2693C30.4963 26.1286 31.7567 25.5812 32.7513 24.7461C34.2901 23.4575 35.0783 21.778 34.9939 19.9702C34.9282 18.594 34.4653 17.5181 33.5207 16.5485C32.573 15.5789 31.5565 15.091 30.2398 14.9753C29.3766 14.9002 28.5946 15.0191 27.4343 15.4007C26.1957 15.8104 25.811 15.851 25.3606 15.629C25.1823 15.5414 25.0729 15.4538 24.8821 15.2568C24.5412 14.9002 24.3723 14.5406 24.2534 13.9056C24.1752 13.5084 24.1784 12.1322 24.2566 11.5724C24.4849 9.91472 24.9884 8.57295 25.8517 7.34065C26.8525 5.90505 28.8886 4.27866 31.8287 2.56469C32.1915 2.35514 32.5042 2.16748 32.523 2.15184C32.5543 2.12682 32.5637 1.87035 32.5637 1.06028C32.5637 0.475406 32.5574 -2.13539e-07 32.548 -2.14359e-07C32.4948 -2.19007e-07 30.9811 0.519193 30.6089 0.666194C26.8963 2.11743 24.0877 4.34434 22.039 7.4595C20.5534 9.72081 19.7621 11.9696 19.4837 14.7157C19.4243 15.3287 19.4337 16.9176 19.5025 17.4837C19.7621 19.6261 20.3939 21.2181 21.598 22.7695C21.9233 23.1917 22.8773 24.1488 23.3214 24.5053C24.5005 25.4436 25.6796 25.9941 27.0277 26.2287C27.3842 26.2912 27.6125 26.31 28.1067 26.3194C28.4508 26.3256 28.7823 26.3225 28.8417 26.3162Z" fill="#6C18CD"/>
</svg>
