<svg width="123" height="115" viewBox="0 0 123 115" fill="none" xmlns="http://www.w3.org/2000/svg">
<g clip-path="url(#clip0_905_2)">
<path fill-rule="evenodd" clip-rule="evenodd" d="M9.32 0H113.56C116.029 0.00791053 118.395 0.992376 120.141 2.7385C121.888 4.48463 122.872 6.85062 122.88 9.32V82.94C122.867 85.4078 121.881 87.7707 120.136 89.5157C118.391 91.2607 116.028 92.2469 113.56 92.26H83.84L67.68 111.32C66.9152 112.288 65.9412 113.07 64.8311 113.607C63.7209 114.145 62.5035 114.424 61.27 114.424C60.0365 114.424 58.8191 114.145 57.7089 113.607C56.5988 113.07 55.6248 112.288 54.86 111.32L39 92.26H9.32C6.85142 92.2495 4.48696 91.2642 2.7414 89.5186C0.995833 87.773 0.0105271 85.4086 0 82.94L0 9.32C0.00528386 6.84981 0.988906 4.4823 2.7356 2.7356C4.4823 0.988906 6.84981 0.00528386 9.32 0V0Z" fill="black"/>
<path fill-rule="evenodd" clip-rule="evenodd" d="M49.4705 52.89H79.4105C82.3279 52.89 85.1257 54.0489 87.1886 56.1118C89.2515 58.1747 90.4105 60.9726 90.4105 63.89V68.18C90.4078 68.5363 90.2644 68.8771 90.0115 69.1281C89.7587 69.3792 89.4168 69.52 89.0605 69.52H39.8305C39.4742 69.52 39.1323 69.3792 38.8794 69.1281C38.6265 68.8771 38.4831 68.5363 38.4805 68.18V63.88C38.4805 60.9626 39.6394 58.1647 41.7023 56.1018C43.7652 54.0389 46.5631 52.88 49.4805 52.88L49.4705 52.89ZM64.4705 20.56C67.2816 20.5659 70.028 21.405 72.3625 22.9711C74.697 24.5372 76.5149 26.7601 77.5866 29.359C78.6583 31.9579 78.9356 34.8161 78.3836 37.5725C77.8315 40.329 76.4748 42.8599 74.4849 44.8456C72.495 46.8313 69.9612 48.1827 67.2036 48.7289C64.4461 49.2752 61.5884 48.9918 58.9918 47.9147C56.3952 46.8375 54.1761 45.0149 52.6149 42.6771C51.0537 40.3393 50.2205 37.5912 50.2205 34.78C50.2205 31.0086 51.7186 27.3917 54.3854 24.7249C57.0522 22.0582 60.6691 20.56 64.4405 20.56H64.4705Z" fill="#EA1C27"/>
<path fill-rule="evenodd" clip-rule="evenodd" d="M43.4705 47.89H73.4105C76.3279 47.89 79.1257 49.0489 81.1886 51.1118C83.2515 53.1747 84.4105 55.9726 84.4105 58.89V63.18C84.4078 63.5363 84.2644 63.8771 84.0115 64.1281C83.7587 64.3792 83.4168 64.52 83.0605 64.52H33.8305C33.4742 64.52 33.1323 64.3792 32.8794 64.1281C32.6265 63.8771 32.4831 63.5363 32.4805 63.18V58.88C32.4805 55.9626 33.6394 53.1647 35.7023 51.1018C37.7652 49.0389 40.5631 47.88 43.4805 47.88L43.4705 47.89ZM58.4705 15.56C61.2816 15.5659 64.028 16.405 66.3625 17.9711C68.697 19.5372 70.5149 21.7601 71.5866 24.359C72.6583 26.9579 72.9356 29.8161 72.3836 32.5725C71.8315 35.329 70.4748 37.8599 68.4849 39.8456C66.495 41.8313 63.9612 43.1827 61.2036 43.7289C58.4461 44.2752 55.5884 43.9918 52.9918 42.9147C50.3952 41.8375 48.1761 40.0149 46.6149 37.6771C45.0537 35.3393 44.2205 32.5912 44.2205 29.78C44.2205 26.0086 45.7186 22.3917 48.3854 19.7249C51.0522 17.0582 54.6691 15.56 58.4405 15.56H58.4705Z" fill="#02FFFE"/>
<path fill-rule="evenodd" clip-rule="evenodd" d="M46.4705 49.89H76.4105C79.3279 49.89 82.1257 51.0489 84.1886 53.1118C86.2515 55.1747 87.4105 57.9726 87.4105 60.89V65.18C87.4078 65.5363 87.2644 65.8771 87.0115 66.1281C86.7587 66.3792 86.4168 66.52 86.0605 66.52H36.8305C36.4742 66.52 36.1323 66.3792 35.8794 66.1281C35.6265 65.8771 35.4831 65.5363 35.4805 65.18V60.88C35.4805 57.9626 36.6394 55.1647 38.7023 53.1018C40.7652 51.0389 43.5631 49.88 46.4805 49.88L46.4705 49.89ZM61.4705 17.56C64.2816 17.5659 67.028 18.405 69.3625 19.9711C71.697 21.5372 73.5149 23.7601 74.5866 26.359C75.6583 28.9579 75.9356 31.8161 75.3836 34.5725C74.8315 37.329 73.4748 39.8599 71.4849 41.8456C69.495 43.8313 66.9612 45.1827 64.2036 45.7289C61.4461 46.2752 58.5884 45.9918 55.9918 44.9147C53.3952 43.8375 51.1761 42.0149 49.6149 39.6771C48.0537 37.3393 47.2205 34.5912 47.2205 31.78C47.2205 28.0086 48.7186 24.3917 51.3854 21.7249C54.0522 19.0582 57.6691 17.56 61.4405 17.56H61.4705Z" fill="white"/>
</g>
<defs>
<clipPath id="clip0_905_2">
<rect width="122.88" height="114.42" fill="white"/>
</clipPath>
</defs>
</svg>
