<svg width="251" height="111" viewBox="0 0 251 111" fill="none" xmlns="http://www.w3.org/2000/svg">
<g clip-path="url(#clip0_2377_2)">
<path d="M247.125 94.2513C247.126 93.2235 247.535 92.2384 248.262 91.5122C248.988 90.7861 249.973 90.3782 251 90.3782V82.6262C250.479 82.6464 249.959 82.561 249.472 82.3753C248.984 82.1896 248.539 81.9074 248.164 81.5455C247.788 81.1835 247.489 80.7494 247.285 80.2691C247.08 79.7888 246.975 79.2722 246.975 78.7502C246.975 78.2282 247.08 77.7116 247.285 77.2313C247.489 76.751 247.788 76.3168 248.164 75.9549C248.539 75.593 248.984 75.3108 249.472 75.1251C249.959 74.9394 250.479 74.854 251 74.8742V67.1569C250.479 67.1771 249.959 67.0918 249.472 66.9061C248.984 66.7204 248.539 66.4381 248.164 66.0762C247.788 65.7143 247.489 65.2802 247.285 64.7999C247.08 64.3196 246.975 63.8029 246.975 63.2809C246.975 62.7589 247.08 62.2423 247.285 61.762C247.489 61.2817 247.788 60.8476 248.164 60.4857C248.539 60.1238 248.984 59.8415 249.472 59.6558C249.959 59.4701 250.479 59.3848 251 59.4049V51.624C250.479 51.6442 249.959 51.5588 249.472 51.3731C248.984 51.1874 248.539 50.9052 248.164 50.5433C247.788 50.1814 247.489 49.7472 247.285 49.2669C247.08 48.7866 246.975 48.27 246.975 47.748C246.975 47.226 247.08 46.7094 247.285 46.2291C247.489 45.7488 247.788 45.3147 248.164 44.9527C248.539 44.5908 248.984 44.3086 249.472 44.1229C249.959 43.9372 250.479 43.8518 251 43.872V36.1258C250.491 36.1243 249.987 36.0224 249.518 35.8261C249.048 35.6298 248.622 35.3428 248.263 34.9815C247.904 34.6203 247.62 34.1918 247.427 33.7206C247.234 33.2494 247.135 32.7447 247.136 32.2353C247.138 31.7259 247.24 31.2219 247.436 30.7518C247.632 30.2818 247.919 29.855 248.28 29.4959C248.64 29.1368 249.069 28.8524 249.539 28.6588C250.01 28.4653 250.514 28.3665 251.023 28.368V20.6218C250.502 20.642 249.982 20.5566 249.495 20.3709C249.007 20.1852 248.562 19.903 248.187 19.5411C247.811 19.1792 247.512 18.7451 247.308 18.2647C247.103 17.7844 246.998 17.2678 246.998 16.7458C246.998 16.2238 247.103 15.7072 247.308 15.2269C247.512 14.7466 247.811 14.3125 248.187 13.9506C248.562 13.5886 249.007 13.3064 249.495 13.1207C249.982 12.935 250.502 12.8497 251.023 12.8698V8.96198C249.845 8.96502 248.678 8.7355 247.589 8.28656C246.499 7.83761 245.509 7.17805 244.675 6.34563C243.841 5.5132 243.179 4.52426 242.727 3.43539C242.275 2.34653 242.041 1.17913 242.041 0L8.94776 0C8.94776 2.37586 8.00524 4.6545 6.32737 6.33503C4.64951 8.01556 2.37363 8.96044 0 8.96198V12.8698C0.508632 12.8698 1.01227 12.9702 1.48211 13.1652C1.95196 13.3602 2.37878 13.646 2.73817 14.0063C3.09756 14.3665 3.38246 14.7942 3.57658 15.2648C3.77069 15.7353 3.87022 16.2396 3.86946 16.7487C3.87022 17.2575 3.77065 17.7615 3.57646 18.2318C3.38228 18.702 3.09728 19.1293 2.73782 19.4891C2.37835 19.8489 1.95149 20.1342 1.48168 20.3285C1.01187 20.5229 0.508358 20.6226 0 20.6218L0 28.368C0.508632 28.368 1.01227 28.4684 1.48211 28.6634C1.95196 28.8584 2.37878 29.1442 2.73817 29.5045C3.09756 29.8647 3.38246 30.2924 3.57658 30.763C3.77069 31.2335 3.87022 31.7378 3.86946 32.2469C3.87022 32.756 3.77069 33.2603 3.57658 33.7309C3.38246 34.2014 3.09756 34.6291 2.73817 34.9894C2.37878 35.3496 1.95196 35.6354 1.48211 35.8304C1.01227 36.0254 0.508632 36.1258 0 36.1258L0 43.872C0.508632 43.872 1.01227 43.9724 1.48211 44.1674C1.95196 44.3624 2.37878 44.6482 2.73817 45.0085C3.09756 45.3687 3.38246 45.7964 3.57658 46.267C3.77069 46.7375 3.87022 47.2418 3.86946 47.7509C3.86946 48.7781 3.46178 49.7632 2.73612 50.4896C2.01046 51.2159 1.02624 51.624 0 51.624L0 59.376C1.02624 59.376 2.01046 59.7841 2.73612 60.5104C3.46178 61.2368 3.86946 62.2219 3.86946 63.2491C3.87404 63.7606 3.77734 64.268 3.58493 64.7419C3.39253 65.2159 3.10823 65.6469 2.74846 66.0103C2.38869 66.3736 1.96058 66.662 1.48884 66.8588C1.0171 67.0556 0.511078 67.157 0 67.1569L0 74.9032C1.01927 74.9031 1.99739 75.3056 2.7219 76.0232C3.44642 76.7408 3.85879 77.7156 3.86946 78.7357C3.87174 79.2458 3.77334 79.7513 3.57991 80.2232C3.38647 80.6951 3.10181 81.1242 2.74227 81.4857C2.38273 81.8472 1.9554 82.134 1.4848 82.3297C1.0142 82.5254 0.509608 82.6262 0 82.6262L0 90.3782C1.02624 90.3782 2.01046 90.7862 2.73612 91.5126C3.46178 92.2389 3.86946 93.2241 3.86946 94.2513C3.87022 94.7604 3.77069 95.2647 3.57658 95.7352C3.38246 96.2058 3.09756 96.6335 2.73817 96.9937C2.37878 97.354 1.95196 97.6398 1.48211 97.8348C1.01227 98.0298 0.508632 98.1302 0 98.1302L0 102.038C2.37463 102.038 4.652 102.982 6.33111 104.663C8.01023 106.344 8.95354 108.623 8.95354 111H242.046C242.047 109.821 242.28 108.654 242.732 107.566C243.183 106.477 243.845 105.489 244.679 104.656C245.512 103.824 246.502 103.164 247.591 102.715C248.679 102.266 249.846 102.036 251.023 102.038V98.1302C250.512 98.1332 250.006 98.0352 249.533 97.8416C249.06 97.648 248.63 97.3628 248.268 97.0023C247.906 96.6418 247.618 96.2132 247.422 95.741C247.226 95.2689 247.125 94.7626 247.125 94.2513Z" fill="#8336D5"/>
<g opacity="0.48">
<path d="M101.219 0.0751076C99.9739 0.0856628 98.7382 -0.136196 97.5747 -0.579092C96.516 -0.982924 95.537 -1.57091 94.6828 -2.31591C93.8677 -3.03026 93.2115 -3.90795 92.7567 -4.89219C92.2929 -5.88912 92.0558 -6.97664 92.0626 -8.07635C92.0565 -9.17786 92.2935 -10.2671 92.7567 -11.2663C93.2131 -12.2479 93.8691 -13.1234 94.6828 -13.8368C95.537 -14.5818 96.516 -15.1698 97.5747 -15.5736C98.7419 -15.9968 99.9776 -16.199 101.219 -16.1699C102.44 -16.1783 103.651 -15.9604 104.793 -15.5273C105.852 -15.1235 106.831 -14.5355 107.685 -13.7905C108.502 -13.0736 109.167 -12.1995 109.64 -11.22C110.119 -10.2252 110.364 -9.13416 110.357 -8.03004C110.365 -6.92772 110.119 -5.8384 109.64 -4.84587C109.169 -3.86384 108.504 -2.98747 107.685 -2.2696C106.831 -1.52459 105.852 -0.936608 104.793 -0.532778C103.649 -0.111546 102.437 0.0945415 101.219 0.0751076ZM96.3948 17.5012L110.907 1.10562L123.776 -16.2104L128.045 -12.3547L114.14 3.5198L100.64 21.3569L96.3948 17.5012ZM101.219 -4.55062C101.571 -4.56165 101.915 -4.66196 102.219 -4.84216C102.522 -5.02237 102.775 -5.27661 102.954 -5.58113C103.448 -6.30681 103.701 -7.16971 103.677 -8.04741C103.701 -8.9251 103.448 -9.788 102.954 -10.5137C102.775 -10.8182 102.522 -11.0724 102.219 -11.2527C101.915 -11.4329 101.571 -11.5332 101.219 -11.5442C100.866 -11.5342 100.521 -11.4344 100.218 -11.2541C99.914 -11.0738 99.6613 -10.8189 99.4834 -10.5137C98.9896 -9.788 98.7367 -8.9251 98.7604 -8.04741C98.7367 -7.16971 98.9896 -6.30681 99.4834 -5.58113C99.6613 -5.27588 99.914 -5.02105 100.218 -4.84074C100.521 -4.66043 100.866 -4.56057 101.219 -4.55062ZM123.255 21.3569C122.019 21.3688 120.791 21.1509 119.635 20.7143C118.576 20.3111 117.597 19.7231 116.743 18.9775C115.929 18.2641 115.273 17.3886 114.817 16.407C114.36 15.4076 114.124 14.3216 114.124 13.2228C114.124 12.124 114.36 11.038 114.817 10.0387C115.27 9.05524 115.926 8.17917 116.743 7.46816C117.595 6.72076 118.575 6.1325 119.635 5.73134C120.791 5.29471 122.019 5.07681 123.255 5.08872C124.475 5.07964 125.685 5.29755 126.824 5.73134C127.884 6.13385 128.863 6.72197 129.716 7.46816C130.534 8.18303 131.197 9.05778 131.665 10.0387C132.137 11.0339 132.381 12.1215 132.381 13.2228C132.381 14.3242 132.137 15.4118 131.665 16.407C131.194 17.3859 130.531 18.2601 129.716 18.9775C128.861 19.7219 127.883 20.3098 126.824 20.7143C125.677 21.1509 124.459 21.3689 123.232 21.3569H123.255ZM123.255 16.7254C123.608 16.7138 123.952 16.6133 124.255 16.4331C124.559 16.253 124.812 15.999 124.991 15.6949C125.483 14.9687 125.734 14.1057 125.708 13.2286C125.734 12.3515 125.483 11.4885 124.991 10.7623C124.816 10.4554 124.564 10.2001 124.259 10.0225C123.955 9.84487 123.608 9.75131 123.255 9.75131C122.903 9.75131 122.556 9.84487 122.252 10.0225C121.947 10.2001 121.694 10.4554 121.52 10.7623C121.028 11.4885 120.777 12.3515 120.803 13.2286C120.759 14.1014 120.99 14.9661 121.462 15.7007C121.644 16.0101 121.903 16.2675 122.213 16.448C122.523 16.6285 122.874 16.726 123.232 16.7312L123.255 16.7254Z" fill="#9951FF"/>
<path d="M145.569 43.1018C144.333 43.1137 143.105 42.8958 141.948 42.4592C140.889 42.0567 139.91 41.4686 139.056 40.7224C138.24 40.0114 137.584 39.1353 137.13 38.1519C136.678 37.1515 136.443 36.0659 136.443 34.9677C136.443 33.8695 136.678 32.7839 137.13 31.7836C137.587 30.8019 138.243 29.9264 139.056 29.2131C139.911 28.4687 140.89 27.8807 141.948 27.4763C143.105 27.0396 144.333 26.8217 145.569 26.8336C146.788 26.8245 147.998 27.0425 149.138 27.4763C150.197 27.8794 151.176 28.4675 152.03 29.2131C152.845 29.9305 153.508 30.8046 153.979 31.7836C154.454 32.7777 154.7 33.8657 154.7 34.9677C154.7 36.0697 154.454 37.1577 153.979 38.1519C153.511 39.1328 152.848 40.0075 152.03 40.7224C151.177 41.4698 150.198 42.058 149.138 42.4592C147.998 42.893 146.788 43.1109 145.569 43.1018ZM140.739 60.5279L155.274 44.1265L168.167 26.8047L172.43 30.6836L158.513 46.5465L145.002 64.3836L140.739 60.5279ZM145.569 38.4761C145.922 38.4651 146.266 38.3648 146.569 38.1846C146.873 38.0043 147.126 37.7501 147.304 37.4456C147.772 36.7084 148.021 35.8529 148.021 34.9793C148.021 34.1057 147.772 33.2502 147.304 32.513C147.13 32.2061 146.878 31.9508 146.573 31.7732C146.268 31.5956 145.922 31.502 145.569 31.502C145.216 31.502 144.87 31.5956 144.565 31.7732C144.26 31.9508 144.008 32.2061 143.834 32.513C143.366 33.2502 143.117 34.1057 143.117 34.9793C143.117 35.8529 143.366 36.7084 143.834 37.4456C144.013 37.7498 144.266 38.0037 144.569 38.1838C144.873 38.364 145.216 38.4645 145.569 38.4761ZM167.606 64.3836C166.368 64.3955 165.138 64.1776 163.979 63.741C162.921 63.3372 161.942 62.7492 161.087 62.0042C160.274 61.2908 159.618 60.4153 159.161 59.4337C158.706 58.4341 158.47 57.3482 158.47 56.2495C158.47 55.1508 158.706 54.0649 159.161 53.0654C159.616 52.0847 160.273 51.2108 161.087 50.5007C161.94 49.754 162.92 49.1658 163.979 48.7639C165.138 48.3273 166.368 48.1094 167.606 48.1212C168.836 48.1154 170.056 48.3393 171.203 48.7812C172.263 49.1832 173.242 49.7713 174.095 50.518C174.914 51.2317 175.579 52.1042 176.05 53.0827C176.521 54.0782 176.765 55.1657 176.765 56.2669C176.765 57.3681 176.521 58.4556 176.05 59.4511C175.578 60.4305 174.913 61.3047 174.095 62.0216C173.241 62.7666 172.262 63.3545 171.203 63.7584C170.053 64.1885 168.833 64.4005 167.606 64.3836ZM167.606 59.7521C167.959 59.7416 168.303 59.6415 168.606 59.4613C168.91 59.281 169.163 59.0265 169.341 58.7216C169.813 57.9859 170.064 57.1298 170.064 56.2553C170.064 55.3808 169.813 54.5247 169.341 53.789C169.168 53.4806 168.916 53.2237 168.611 53.045C168.306 52.8663 167.959 52.772 167.606 52.772C167.252 52.772 166.905 52.8663 166.6 53.045C166.295 53.2237 166.044 53.4806 165.871 53.789C165.398 54.5247 165.147 55.3808 165.147 56.2553C165.147 57.1298 165.398 57.9859 165.871 58.7216C166.048 59.0279 166.3 59.2839 166.604 59.4653C166.907 59.6466 167.252 59.7474 167.606 59.7579V59.7521Z" fill="#9951FF"/>
<path d="M216.196 89.2203C214.96 89.2322 213.732 89.0143 212.575 88.5776C211.516 88.1743 210.537 87.5862 209.683 86.8408C208.867 86.1298 208.21 85.2537 207.757 84.2703C207.301 83.271 207.064 82.185 207.064 81.0862C207.064 79.9873 207.301 78.9014 207.757 77.902C208.21 76.9186 208.867 76.0425 209.683 75.3315C210.537 74.5859 211.516 73.9979 212.575 73.5947C213.732 73.1581 214.96 72.9402 216.196 72.9521C217.415 72.943 218.625 73.1609 219.765 73.5947C220.823 73.9992 221.802 74.5871 222.656 75.3315C223.474 76.0464 224.138 76.9211 224.606 77.902C225.077 78.8972 225.321 79.9848 225.321 81.0862C225.321 82.1875 225.077 83.2751 224.606 84.2703C224.138 85.2512 223.474 86.126 222.656 86.8408C221.802 87.585 220.823 88.1729 219.765 88.5776C218.625 89.0114 217.415 89.2294 216.196 89.2203ZM211.366 106.646L225.901 90.245L238.794 72.9463L243.056 76.802L229.134 92.6823L215.629 110.525L211.366 106.646ZM216.196 84.5888C216.548 84.5773 216.891 84.4774 217.194 84.2983C217.497 84.1193 217.751 83.8668 217.931 83.564C218.396 82.8247 218.643 81.9687 218.643 81.0949C218.643 80.221 218.396 79.365 217.931 78.6257C217.756 78.3202 217.503 78.0664 217.198 77.8899C216.894 77.7135 216.548 77.6205 216.196 77.6205C215.844 77.6205 215.498 77.7135 215.193 77.8899C214.889 78.0664 214.636 78.3202 214.461 78.6257C213.995 79.365 213.748 80.221 213.748 81.0949C213.748 81.9687 213.995 82.8247 214.461 83.564C214.64 83.8671 214.894 84.1199 215.197 84.299C215.5 84.4781 215.844 84.5778 216.196 84.5888ZM238.227 110.502C236.991 110.514 235.763 110.296 234.606 109.859C233.547 109.456 232.568 108.868 231.714 108.123C230.898 107.412 230.241 106.536 229.788 105.552C229.335 104.552 229.101 103.466 229.101 102.368C229.101 101.27 229.335 100.184 229.788 99.1838C230.244 98.2022 230.9 97.3267 231.714 96.6133C232.57 95.8701 233.548 95.2823 234.606 94.8765C235.763 94.4399 236.991 94.222 238.227 94.2339C239.446 94.2248 240.656 94.4427 241.796 94.8765C242.855 95.2797 243.834 95.8677 244.688 96.6133C245.503 97.3307 246.166 98.2049 246.637 99.1838C247.112 100.178 247.358 101.266 247.358 102.368C247.358 103.47 247.112 104.558 246.637 105.552C246.169 106.533 245.506 107.408 244.688 108.123C243.835 108.87 242.856 109.458 241.796 109.859C240.656 110.293 239.446 110.511 238.227 110.502ZM238.227 105.871C238.579 105.86 238.924 105.759 239.227 105.579C239.53 105.399 239.783 105.145 239.962 104.84C240.43 104.103 240.679 103.247 240.679 102.374C240.679 101.5 240.43 100.645 239.962 99.9075C239.788 99.6005 239.536 99.3452 239.231 99.1676C238.926 98.99 238.58 98.8965 238.227 98.8965C237.874 98.8965 237.528 98.99 237.223 99.1676C236.918 99.3452 236.666 99.6005 236.492 99.9075C236.023 100.645 235.775 101.5 235.775 102.374C235.775 103.247 236.023 104.103 236.492 104.84C236.67 105.145 236.923 105.4 237.226 105.582C237.53 105.763 237.874 105.864 238.227 105.876V105.871Z" fill="#9951FF"/>
<path d="M44.4126 4.11626C43.1764 4.12818 41.9487 3.91028 40.7919 3.47364C39.7329 3.07025 38.7538 2.48222 37.8999 1.73682C37.0837 1.02582 36.4272 0.149742 35.9738 -0.833667C35.5175 -1.83304 35.2812 -2.919 35.2812 -4.01783C35.2812 -5.11666 35.5175 -6.20262 35.9738 -7.202C36.4272 -8.18541 37.0837 -9.06148 37.8999 -9.77248C38.7537 -10.5181 39.7328 -11.1061 40.7919 -11.5093C41.9487 -11.9459 43.1764 -12.1638 44.4126 -12.1519C45.6317 -12.161 46.8418 -11.9431 47.9813 -11.5093C49.0397 -11.1048 50.0186 -10.5169 50.8733 -9.77248C51.6913 -9.05762 52.3546 -8.18287 52.8225 -7.202C53.2938 -6.20679 53.5383 -5.11919 53.5383 -4.01783C53.5383 -2.91647 53.2938 -1.82887 52.8225 -0.833667C52.3546 0.147209 51.6913 1.02196 50.8733 1.73682C50.0185 2.48104 49.0396 3.06894 47.9813 3.47364C46.8418 3.90744 45.6317 4.12535 44.4126 4.11626ZM39.583 21.5423L54.1181 5.14099L67.0105 -12.1577L71.2732 -8.30198L57.3513 7.57832L43.8458 25.4212L39.583 21.5423ZM44.4126 -0.515248C44.7645 -0.526743 45.1078 -0.626617 45.411 -0.805681C45.7142 -0.984745 45.9676 -1.23725 46.1478 -1.53997C46.6132 -2.27928 46.8602 -3.1353 46.8602 -4.00915C46.8602 -4.883 46.6132 -5.73902 46.1478 -6.47832C45.9724 -6.7838 45.7197 -7.03758 45.415 -7.21406C45.1104 -7.39053 44.7646 -7.48345 44.4126 -7.48345C44.0606 -7.48345 43.7149 -7.39053 43.4102 -7.21406C43.1056 -7.03758 42.8528 -6.7838 42.6774 -6.47832C42.212 -5.73902 41.965 -4.883 41.965 -4.00915C41.965 -3.1353 42.212 -2.27928 42.6774 -1.53997C42.8572 -1.23689 43.1105 -0.984098 43.4138 -0.804983C43.7171 -0.625868 44.0606 -0.526214 44.4126 -0.515248ZM66.4436 25.3981C65.2074 25.41 63.9797 25.1921 62.8229 24.7554C61.7642 24.3516 60.7851 23.7636 59.9309 23.0186C59.1147 22.3076 58.4582 21.4315 58.0049 20.4481C57.5522 19.4478 57.318 18.3622 57.318 17.264C57.318 16.1658 57.5522 15.0802 58.0049 14.0798C58.4612 13.0982 59.1172 12.2227 59.9309 11.5093C60.7864 10.7661 61.7651 10.1783 62.8229 9.7725C63.9797 9.33586 65.2074 9.11796 66.4436 9.12988C67.6627 9.12079 68.8729 9.33871 70.0123 9.7725C71.0714 10.1757 72.0505 10.7637 72.9043 11.5093C73.7196 12.2267 74.3825 13.1009 74.8535 14.0798C75.3284 15.074 75.5749 16.162 75.5749 17.264C75.5749 18.366 75.3284 19.454 74.8535 20.4481C74.3856 21.429 73.7223 22.3038 72.9043 23.0186C72.0519 23.766 71.0723 24.3543 70.0123 24.7554C68.8729 25.1892 67.6627 25.4072 66.4436 25.3981ZM66.4436 20.7666C66.7963 20.7555 67.1404 20.6552 67.4438 20.475C67.7473 20.2948 68.0001 20.0406 68.1788 19.736C68.6471 18.9988 68.8958 18.1433 68.8958 17.2698C68.8958 16.3962 68.6471 15.5407 68.1788 14.8035C68.0047 14.4965 67.7523 14.2412 67.4475 14.0636C67.1427 13.886 66.7963 13.7925 66.4436 13.7925C66.091 13.7925 65.7446 13.886 65.4398 14.0636C65.135 14.2412 64.8826 14.4965 64.7085 14.8035C64.2402 15.5407 63.9915 16.3962 63.9915 17.2698C63.9915 18.1433 64.2402 18.9988 64.7085 19.736C64.8868 20.0413 65.1395 20.2964 65.4429 20.4776C65.7463 20.6588 66.0906 20.7602 66.4436 20.7723V20.7666Z" fill="#9951FF"/>
<path d="M105.143 46.9576C103.907 46.9695 102.679 46.7516 101.522 46.315C100.463 45.9116 99.4843 45.3235 98.6304 44.5781C97.8141 43.8671 97.1577 42.9911 96.7043 42.0076C96.2479 41.0083 96.0117 39.9223 96.0117 38.8235C96.0117 37.7246 96.2479 36.6387 96.7043 35.6393C97.1577 34.6559 97.8141 33.7798 98.6304 33.0688C99.4841 32.3232 100.463 31.7352 101.522 31.332C102.679 30.8954 103.907 30.6775 105.143 30.6894C106.362 30.6803 107.572 30.8982 108.712 31.332C109.77 31.7365 110.749 32.3244 111.604 33.0688C112.422 33.7837 113.085 34.6584 113.553 35.6393C114.024 36.6345 114.269 37.7221 114.269 38.8235C114.269 39.9248 114.024 41.0124 113.553 42.0076C113.085 42.9885 112.422 43.8633 111.604 44.5781C110.749 45.3223 109.77 45.9102 108.712 46.315C107.572 46.7487 106.362 46.9667 105.143 46.9576ZM100.313 64.3836L114.849 47.9823L127.741 30.6836L132.004 34.5393L118.082 50.4196L104.576 68.2625L100.313 64.3836ZM105.143 42.3261C105.495 42.3146 105.838 42.2147 106.141 42.0356C106.445 41.8566 106.698 41.6041 106.878 41.3013C107.344 40.562 107.591 39.706 107.591 38.8322C107.591 37.9583 107.344 37.1023 106.878 36.363C106.703 36.0575 106.45 35.8037 106.145 35.6273C105.841 35.4508 105.495 35.3579 105.143 35.3579C104.791 35.3579 104.445 35.4508 104.141 35.6273C103.836 35.8037 103.583 36.0575 103.408 36.363C102.942 37.1023 102.695 37.9583 102.695 38.8322C102.695 39.706 102.942 40.562 103.408 41.3013C103.588 41.6044 103.841 41.8572 104.144 42.0363C104.448 42.2154 104.791 42.3151 105.143 42.3261ZM127.174 68.2394C125.938 68.2513 124.71 68.0334 123.553 67.5967C122.495 67.1929 121.516 66.6049 120.661 65.8599C119.845 65.1489 119.189 64.2729 118.735 63.2895C118.283 62.2891 118.048 61.2035 118.048 60.1053C118.048 59.0071 118.283 57.9215 118.735 56.9211C119.192 55.9395 119.848 55.064 120.661 54.3506C121.517 53.6074 122.496 53.0196 123.553 52.6138C124.71 52.1772 125.938 51.9593 127.174 51.9712C128.393 51.9621 129.603 52.18 130.743 52.6138C131.802 53.017 132.781 53.605 133.635 54.3506C134.45 55.068 135.113 55.9422 135.584 56.9211C136.059 57.9153 136.305 59.0033 136.305 60.1053C136.305 61.2073 136.059 62.2953 135.584 63.2895C135.116 64.2703 134.453 65.1451 133.635 65.8599C132.782 66.6073 131.803 67.1956 130.743 67.5967C129.603 68.0305 128.393 68.2485 127.174 68.2394ZM127.174 63.6079C127.527 63.5968 127.871 63.4965 128.174 63.3163C128.478 63.1361 128.731 62.8819 128.909 62.5773C129.378 61.8401 129.626 60.9847 129.626 60.1111C129.626 59.2375 129.378 58.382 128.909 57.6448C128.735 57.3378 128.483 57.0825 128.178 56.9049C127.873 56.7273 127.527 56.6338 127.174 56.6338C126.821 56.6338 126.475 56.7273 126.17 56.9049C125.865 57.0825 125.613 57.3378 125.439 57.6448C124.971 58.382 124.722 59.2375 124.722 60.1111C124.722 60.9847 124.971 61.8401 125.439 62.5773C125.617 62.8826 125.87 63.1377 126.173 63.3189C126.477 63.5001 126.821 63.6015 127.174 63.6137V63.6079Z" fill="#9951FF"/>
<path d="M14.9146 95.5884C13.6783 95.6003 12.4506 95.3825 11.2938 94.9458C10.2349 94.5424 9.25576 93.9544 8.40185 93.209C7.58561 92.498 6.92916 91.6219 6.47578 90.6385C6.01941 89.6391 5.7832 88.5532 5.7832 87.4543C5.7832 86.3555 6.01941 85.2695 6.47578 84.2702C6.92916 83.2868 7.58561 82.4107 8.40185 81.6997C9.25562 80.9541 10.2348 80.366 11.2938 79.9629C12.4506 79.5262 13.6783 79.3083 14.9146 79.3202C16.1336 79.3112 17.3438 79.5291 18.4833 79.9629C19.5416 80.3674 20.5206 80.9553 21.3752 81.6997C22.1932 82.4145 22.8565 83.2893 23.3244 84.2702C23.7957 85.2654 24.0402 86.353 24.0402 87.4543C24.0402 88.5557 23.7957 89.6433 23.3244 90.6385C22.8565 91.6194 22.1932 92.4941 21.3752 93.209C20.5205 93.9532 19.5415 94.5411 18.4833 94.9458C17.3438 95.3796 16.1336 95.5975 14.9146 95.5884ZM10.085 113.015L24.62 96.6132L37.5124 79.3145L41.7752 83.1702L27.8532 99.0505L14.3477 116.893L10.085 113.015ZM14.9146 90.9569C15.2664 90.9454 15.6097 90.8456 15.913 90.6665C16.2162 90.4874 16.4695 90.2349 16.6497 89.9322C17.1152 89.1929 17.3622 88.3369 17.3622 87.463C17.3622 86.5892 17.1152 85.7332 16.6497 84.9938C16.4744 84.6884 16.2216 84.4346 15.917 84.2581C15.6123 84.0816 15.2665 83.9887 14.9146 83.9887C14.5626 83.9887 14.2168 84.0816 13.9122 84.2581C13.6075 84.4346 13.3547 84.6884 13.1794 84.9938C12.7139 85.7332 12.467 86.5892 12.467 87.463C12.467 88.3369 12.7139 89.1929 13.1794 89.9322C13.3592 90.2353 13.6124 90.4881 13.9157 90.6672C14.219 90.8463 14.5626 90.946 14.9146 90.9569ZM36.9456 116.87C35.7093 116.882 34.4816 116.664 33.3249 116.228C32.2661 115.824 31.2871 115.236 30.4329 114.491C29.6166 113.78 28.9602 112.904 28.5068 111.92C28.0541 110.92 27.8199 109.834 27.8199 108.736C27.8199 107.638 28.0541 106.552 28.5068 105.552C28.9632 104.57 29.6192 103.695 30.4329 102.981C31.2884 102.238 32.2671 101.65 33.3249 101.245C34.4816 100.808 35.7093 100.59 36.9456 100.602C38.1647 100.593 39.3748 100.811 40.5143 101.245C41.5733 101.648 42.5525 102.236 43.4063 102.981C44.2216 103.699 44.8844 104.573 45.3555 105.552C45.8304 106.546 46.0769 107.634 46.0769 108.736C46.0769 109.838 45.8304 110.926 45.3555 111.92C44.8876 112.901 44.2243 113.776 43.4063 114.491C42.5538 115.238 41.5743 115.826 40.5143 116.228C39.3748 116.661 38.1647 116.879 36.9456 116.87ZM36.9456 112.239C37.2982 112.228 37.6424 112.127 37.9458 111.947C38.2492 111.767 38.5021 111.513 38.6808 111.208C39.149 110.471 39.3977 109.616 39.3977 108.742C39.3977 107.868 39.149 107.013 38.6808 106.276C38.5066 105.969 38.2543 105.713 37.9495 105.536C37.6447 105.358 37.2983 105.265 36.9456 105.265C36.5929 105.265 36.2465 105.358 35.9417 105.536C35.6369 105.713 35.3846 105.969 35.2104 106.276C34.7422 107.013 34.4935 107.868 34.4935 108.742C34.4935 109.616 34.7422 110.471 35.2104 111.208C35.3888 111.513 35.6415 111.769 35.9449 111.95C36.2483 112.131 36.5925 112.232 36.9456 112.245V112.239Z" fill="#9951FF"/>
<path d="M86.2817 117.588C85.0455 117.6 83.8178 117.382 82.661 116.946C81.6021 116.542 80.6229 115.954 79.769 115.209C78.9528 114.498 78.2963 113.622 77.843 112.639C77.3866 111.639 77.1504 110.553 77.1504 109.454C77.1504 108.356 77.3866 107.27 77.843 106.27C78.2963 105.287 78.9528 104.411 79.769 103.7C80.6228 102.954 81.602 102.366 82.661 101.963C83.8178 101.526 85.0455 101.308 86.2817 101.32C87.5008 101.311 88.711 101.529 89.8504 101.963C90.9088 102.367 91.8878 102.955 92.7424 103.7C93.5604 104.415 94.2237 105.289 94.6916 106.27C95.1629 107.265 95.4074 108.353 95.4074 109.454C95.4074 110.556 95.1629 111.643 94.6916 112.639C94.2237 113.619 93.5604 114.494 92.7424 115.209C91.8876 115.953 90.9087 116.541 89.8504 116.946C88.711 117.38 87.5008 117.598 86.2817 117.588ZM81.4521 135.015L95.9872 118.613L108.88 101.314L113.142 105.17L99.2204 121.05L85.7149 138.893L81.4521 135.015ZM86.2817 112.957C86.6336 112.945 86.9769 112.846 87.2801 112.666C87.5834 112.487 87.8367 112.235 88.0169 111.932C88.4824 111.193 88.7293 110.337 88.7293 109.463C88.7293 108.589 88.4824 107.733 88.0169 106.994C87.8416 106.688 87.5888 106.435 87.2842 106.258C86.9795 106.082 86.6337 105.989 86.2817 105.989C85.9298 105.989 85.584 106.082 85.2793 106.258C84.9747 106.435 84.7219 106.688 84.5466 106.994C84.0811 107.733 83.8342 108.589 83.8342 109.463C83.8342 110.337 84.0811 111.193 84.5466 111.932C84.7264 112.235 84.9796 112.488 85.2829 112.667C85.5862 112.846 85.9298 112.946 86.2817 112.957ZM108.313 138.87C107.077 138.882 105.849 138.664 104.692 138.228C103.633 137.824 102.654 137.236 101.8 136.491C100.984 135.78 100.327 134.904 99.874 133.92C99.4213 132.92 99.1871 131.834 99.1871 130.736C99.1871 129.638 99.4213 128.552 99.874 127.552C100.33 126.57 100.986 125.695 101.8 124.981C102.656 124.238 103.634 123.65 104.692 123.245C105.849 122.808 107.077 122.59 108.313 122.602C109.532 122.593 110.742 122.811 111.881 123.245C112.941 123.648 113.92 124.236 114.773 124.981C115.589 125.699 116.252 126.573 116.723 127.552C117.198 128.546 117.444 129.634 117.444 130.736C117.444 131.838 117.198 132.926 116.723 133.92C116.255 134.901 115.591 135.776 114.773 136.491C113.921 137.238 112.941 137.826 111.881 138.228C110.742 138.661 109.532 138.879 108.313 138.87ZM108.313 134.239C108.665 134.228 109.01 134.127 109.313 133.947C109.616 133.767 109.869 133.513 110.048 133.208C110.516 132.471 110.765 131.616 110.765 130.742C110.765 129.868 110.516 129.013 110.048 128.276C109.874 127.969 109.621 127.713 109.317 127.536C109.012 127.358 108.665 127.265 108.313 127.265C107.96 127.265 107.614 127.358 107.309 127.536C107.004 127.713 106.752 127.969 106.578 128.276C106.109 129.013 105.861 129.868 105.861 130.742C105.861 131.616 106.109 132.471 106.578 133.208C106.756 133.513 107.009 133.769 107.312 133.95C107.615 134.131 107.96 134.232 108.313 134.245V134.239Z" fill="#9951FF"/>
<path d="M199.134 -13.2407C199.158 -11.1143 198.81 -9.00006 198.105 -6.99399C197.476 -5.18294 196.51 -3.50734 195.259 -2.05564C194.061 -0.695078 192.591 0.399408 190.944 1.15747C189.245 1.93726 187.394 2.3326 185.525 2.31535C183.655 2.3326 181.805 1.93726 180.105 1.15747C178.456 0.394119 176.986 -0.708597 175.79 -2.0788C174.542 -3.52473 173.575 -5.19184 172.939 -6.99399C172.239 -9.00112 171.892 -11.1148 171.915 -13.2407C171.893 -15.3647 172.239 -17.4765 172.939 -19.4817C173.572 -21.2921 174.539 -22.9672 175.79 -24.4201C176.987 -25.7956 178.457 -26.9074 180.105 -27.6853C181.802 -28.4721 183.654 -28.8678 185.525 -28.8432C187.395 -28.8678 189.247 -28.4721 190.944 -27.6853C192.592 -26.9058 194.061 -25.7942 195.259 -24.4201C196.51 -22.9684 197.476 -21.2928 198.105 -19.4817C198.81 -17.4775 199.158 -15.3653 199.134 -13.2407ZM189.273 -13.2407C189.343 -14.9141 188.981 -16.5773 188.22 -18.0691C187.52 -19.3022 186.618 -19.9217 185.525 -19.9217C184.432 -19.9217 183.425 -19.3022 182.725 -18.0691C181.965 -16.5773 181.602 -14.9141 181.673 -13.2407C181.599 -11.5727 181.962 -9.91431 182.725 -8.42976C183.425 -7.21399 184.362 -6.60611 185.525 -6.60611C186.687 -6.60611 187.52 -7.21399 188.22 -8.42976C188.984 -9.91431 189.346 -11.5727 189.273 -13.2407Z" fill="#9951FF"/>
<path d="M212.131 -18.9431C210.893 -18.9313 209.663 -19.1492 208.504 -19.5857C207.445 -19.9877 206.465 -20.5758 205.612 -21.3225C204.796 -22.0335 204.14 -22.9096 203.686 -23.893C203.223 -24.89 202.986 -25.9775 202.992 -27.0772C202.985 -28.1788 203.222 -29.2682 203.686 -30.2671C204.143 -31.2488 204.799 -32.1243 205.612 -32.8376C206.467 -33.5826 207.446 -34.1706 208.504 -34.5745C209.663 -35.011 210.893 -35.2289 212.131 -35.2171C213.35 -35.2254 214.56 -35.0075 215.7 -34.5745C216.758 -34.1706 217.737 -33.5826 218.592 -32.8376C219.409 -32.1208 220.074 -31.2466 220.547 -30.2671C221.026 -29.2726 221.271 -28.1814 221.264 -27.0772C221.271 -25.9749 221.026 -24.8856 220.547 -23.893C220.077 -22.9119 219.411 -22.0372 218.592 -21.3225C217.739 -20.5758 216.759 -19.9877 215.7 -19.5857C214.56 -19.1527 213.35 -18.9348 212.131 -18.9431ZM207.301 -1.51703L221.836 -17.9184L234.729 -35.2402L238.992 -31.3845L225.07 -15.4984L211.564 2.31554L207.301 -1.51703ZM212.131 -23.5688C212.484 -23.5788 212.828 -23.6786 213.132 -23.8589C213.436 -24.0393 213.688 -24.2941 213.866 -24.5993C214.358 -25.3257 214.609 -26.1885 214.583 -27.0656C214.609 -27.9401 214.36 -28.8007 213.872 -29.5261C213.694 -29.8314 213.441 -30.0862 213.138 -30.2665C212.834 -30.4468 212.49 -30.5467 212.137 -30.5566C211.784 -30.5467 211.439 -30.4468 211.136 -30.2665C210.832 -30.0862 210.579 -29.8314 210.402 -29.5261C209.908 -28.8004 209.655 -27.9375 209.679 -27.0598C209.655 -26.1821 209.908 -25.3192 210.402 -24.5935C210.58 -24.2902 210.832 -24.037 211.134 -23.8578C211.437 -23.6786 211.78 -23.5791 212.131 -23.5688ZM234.162 2.31554C232.926 2.32746 231.698 2.10956 230.541 1.67292C229.481 1.27177 228.502 0.68351 227.649 -0.0638924C226.833 -0.774899 226.177 -1.65097 225.723 -2.63438C225.252 -3.61973 225.003 -4.69703 224.994 -5.7896C224.988 -6.8911 225.225 -7.98036 225.689 -8.97956C226.145 -9.96118 226.801 -10.8367 227.615 -11.55C228.468 -12.2956 229.448 -12.8837 230.507 -13.2869C231.676 -13.7159 232.916 -13.9221 234.162 -13.8947C235.376 -13.9061 236.583 -13.6921 237.719 -13.2637C238.778 -12.8592 239.756 -12.2713 240.611 -11.5269C241.426 -10.8095 242.089 -9.93534 242.56 -8.9564C243.045 -7.97097 243.3 -6.88813 243.306 -5.7896C243.312 -4.68685 243.064 -3.59756 242.583 -2.60543C242.113 -1.60999 241.441 -0.722939 240.611 -0.000209808C239.758 0.745983 238.778 1.33411 237.719 1.73661C236.579 2.14729 235.373 2.34357 234.162 2.31554ZM234.162 -2.31597C234.515 -2.32754 234.858 -2.42807 235.162 -2.60822C235.465 -2.78838 235.718 -3.04232 235.897 -3.34648C236.389 -4.06484 236.644 -4.91908 236.626 -5.7896C236.652 -6.66672 236.401 -7.52968 235.909 -8.25588C235.73 -8.56004 235.477 -8.81398 235.173 -8.99414C234.87 -9.1743 234.526 -9.27482 234.174 -9.28639C233.821 -9.27536 233.477 -9.17505 233.173 -8.99484C232.87 -8.81464 232.617 -8.5604 232.438 -8.25588C231.938 -7.53243 231.679 -6.66925 231.698 -5.7896C231.672 -4.91249 231.923 -4.04952 232.415 -3.32332C232.594 -3.01609 232.849 -2.75967 233.154 -2.57833C233.46 -2.39698 233.807 -2.29671 234.162 -2.28702V-2.31597Z" fill="#9951FF"/>
<path d="M243.503 29.786C243.525 31.9122 243.176 34.026 242.474 36.0327C241.843 37.8441 240.875 39.5197 239.622 40.9711C238.427 42.3413 236.957 43.444 235.307 44.2073C233.603 44.9705 231.758 45.365 229.891 45.365C228.024 45.365 226.178 44.9705 224.474 44.2073C222.825 43.444 221.354 42.3413 220.159 40.9711C218.906 39.5197 217.939 37.8441 217.308 36.0327C216.619 34.0235 216.285 31.9098 216.319 29.786C216.297 27.6601 216.643 25.5466 217.343 23.5392C217.975 21.7302 218.942 20.0568 220.194 18.6067C221.391 17.2312 222.86 16.1193 224.509 15.3414C226.209 14.5634 228.056 14.1606 229.926 14.1606C231.795 14.1606 233.642 14.5634 235.342 15.3414C236.991 16.1193 238.46 17.2312 239.657 18.6067C240.909 20.0568 241.876 21.7302 242.508 23.5392C243.198 25.5483 243.535 27.6618 243.503 29.786ZM233.642 29.786C233.712 28.1126 233.35 26.4494 232.589 24.9576C231.883 23.7226 230.985 23.105 229.894 23.105C228.737 23.105 227.804 23.7226 227.094 24.9576C226.331 26.4484 225.968 28.1124 226.042 29.786C225.965 31.4543 226.328 33.1133 227.094 34.597C227.796 35.8127 228.729 36.4206 229.894 36.4206C230.985 36.4206 231.883 35.8127 232.589 34.597C233.362 33.1151 233.735 31.4566 233.671 29.786H233.642Z" fill="#9951FF"/>
<path d="M256.5 24.0838C255.264 24.0957 254.037 23.8778 252.88 23.4411C251.82 23.0392 250.841 22.451 249.988 21.7043C249.168 20.9963 248.511 20.1194 248.062 19.1338C247.605 18.1345 247.369 17.0485 247.369 15.9497C247.369 14.8508 247.605 13.7649 248.062 12.7655C248.513 11.7806 249.169 10.9041 249.988 10.195C250.842 9.45001 251.821 8.86202 252.88 8.45819C254.037 8.02155 255.264 7.80365 256.5 7.81557C257.72 7.80648 258.93 8.02439 260.069 8.45819C261.128 8.86136 262.107 9.44941 262.961 10.195C263.776 10.9133 264.438 11.7898 264.905 12.7713C265.379 13.7655 265.626 14.8535 265.626 15.9555C265.626 17.0574 265.379 18.1454 264.905 19.1396C264.437 20.1205 263.773 20.9952 262.955 21.7101C262.103 22.4575 261.123 23.0458 260.063 23.4469C258.925 23.878 257.717 24.094 256.5 24.0838ZM251.677 41.5098L266.206 25.1085L279.098 7.78662L283.361 11.6424L269.445 27.5284L255.939 45.3656L251.677 41.5098ZM256.5 19.458C256.853 19.4459 257.197 19.3452 257.5 19.1651C257.803 18.985 258.056 18.7313 258.236 18.4275C258.728 17.7013 258.979 16.8384 258.953 15.9612C258.978 15.0825 258.727 14.218 258.236 13.4892C258.06 13.1837 257.808 12.9299 257.503 12.7534C257.198 12.577 256.852 12.484 256.5 12.484C256.149 12.484 255.803 12.577 255.498 12.7534C255.193 12.9299 254.941 13.1837 254.765 13.4892C254.274 14.218 254.023 15.0825 254.048 15.9612C254.022 16.8384 254.273 17.7013 254.765 18.4275C254.945 18.731 255.198 18.9843 255.502 19.1644C255.805 19.3444 256.148 19.4454 256.5 19.458ZM278.537 45.3656C277.301 45.3775 276.073 45.1596 274.917 44.7229C273.857 44.3218 272.877 43.7335 272.025 42.9861C271.214 42.2773 270.561 41.4054 270.11 40.4272C269.654 39.4278 269.418 38.3419 269.418 37.243C269.418 36.1442 269.654 35.0583 270.11 34.0589C270.566 33.0773 271.222 32.2018 272.036 31.4884C272.89 30.7428 273.869 30.1547 274.928 29.7516C276.085 29.3149 277.313 29.097 278.549 29.1089C279.768 29.1007 280.978 29.3186 282.118 29.7516C283.176 30.1554 284.155 30.7434 285.01 31.4884C285.827 32.2052 286.492 33.0794 286.965 34.0589C287.436 35.0541 287.68 36.1417 287.68 37.243C287.68 38.3444 287.436 39.432 286.965 40.4272C286.495 41.4084 285.829 42.2831 285.01 42.9977C284.157 43.7444 283.177 44.3326 282.118 44.7345C280.974 45.165 279.759 45.379 278.537 45.3656ZM278.537 40.734C278.89 40.7241 279.235 40.6242 279.538 40.4439C279.842 40.2636 280.095 40.0088 280.273 39.7035C280.745 38.9678 280.996 38.1118 280.996 37.2373C280.996 36.3627 280.745 35.5067 280.273 34.771C280.1 34.4625 279.848 34.2057 279.543 34.0269C279.238 33.8482 278.891 33.754 278.537 33.754C278.184 33.754 277.837 33.8482 277.532 34.0269C277.227 34.2057 276.975 34.4625 276.802 34.771C276.33 35.5067 276.079 36.3627 276.079 37.2373C276.079 38.1118 276.33 38.9678 276.802 39.7035C276.979 40.0099 277.232 40.2658 277.535 40.4472C277.839 40.6285 278.184 40.7293 278.537 40.7398V40.734Z" fill="#9951FF"/>
<path d="M-9.2088 18.9486C-10.4451 18.9605 -11.6728 18.7426 -12.8296 18.306C-13.8883 17.9021 -14.8673 17.3141 -15.7215 16.5691C-16.5409 15.8611 -17.1979 14.9843 -17.6476 13.9986C-18.1115 12.9997 -18.3485 11.9103 -18.3417 10.8087C-18.3479 9.70904 -18.1109 8.62164 -17.6476 7.62452C-17.1979 6.63891 -16.5409 5.7621 -15.7215 5.05403C-14.8671 4.30933 -13.8881 3.72138 -12.8296 3.31722C-11.6728 2.88058 -10.4451 2.66268 -9.2088 2.67459C-7.9879 2.67474 -6.77771 2.90248 -5.64011 3.34616C-4.58119 3.74955 -3.60206 4.33759 -2.74814 5.08298C-1.92549 5.79312 -1.25631 6.66386 -0.781599 7.64189C-0.305689 8.63556 -0.0605011 9.72411 -0.0643902 10.8261C-0.0598297 11.9299 -0.305029 13.0205 -0.781599 14.016C-1.25158 14.9972 -1.91684 15.8719 -2.73657 16.5865C-3.59034 17.3321 -4.56951 17.9201 -5.62854 18.3233C-6.77278 18.7526 -7.98694 18.9646 -9.2088 18.9486ZM-14.0326 36.3804L0.502436 19.9791L13.3891 2.65723L17.6518 6.51296L3.73566 22.3933L-9.76985 40.2362L-14.0326 36.3804ZM-9.2088 14.3229C-8.85682 14.3119 -8.51329 14.2122 -8.20999 14.0331C-7.90669 13.854 -7.65342 13.6012 -7.47362 13.2981C-6.98249 12.5693 -6.73168 11.7048 -6.75641 10.8261C-6.73251 9.94919 -6.98329 9.08682 -7.47362 8.35978C-7.65342 8.0567 -7.90669 7.8039 -8.20999 7.62479C-8.51329 7.44567 -8.85682 7.34602 -9.2088 7.33505C-9.56067 7.34655 -9.904 7.44642 -10.2072 7.62549C-10.5104 7.80455 -10.7638 8.05705 -10.944 8.35978C-11.4343 9.08682 -11.6851 9.94919 -11.6612 10.8261C-11.693 11.7095 -11.4461 12.5804 -10.9556 13.3155C-10.7722 13.6166 -10.5161 13.8667 -10.2109 14.0427C-9.90562 14.2188 -9.56101 14.3151 -9.2088 14.3229ZM12.828 40.2362C11.5918 40.2481 10.3641 40.0302 9.20727 39.5935C8.14835 39.1902 7.16922 38.6021 6.3153 37.8567C5.49814 37.1553 4.8379 36.2893 4.37768 35.3152C3.9213 34.3158 3.6851 33.2298 3.6851 32.131C3.6851 31.0322 3.9213 29.9462 4.37768 28.9469C4.83105 27.9634 5.48749 27.0874 6.30373 26.3764C7.15751 25.6308 8.13667 25.0427 9.1957 24.6395C10.3525 24.2029 11.5802 23.985 12.8165 23.9969C14.0355 23.9886 15.2455 24.2065 16.3851 24.6395C17.4429 25.0453 18.4216 25.6331 19.2771 26.3764C20.1018 27.0905 20.7728 27.9651 21.2494 28.9469C21.7208 29.9421 21.9653 31.0297 21.9653 32.131C21.9653 33.2324 21.7208 34.32 21.2494 35.3152C20.7796 36.2949 20.1166 37.1693 19.3003 37.8857C18.4446 38.6287 17.4659 39.2165 16.4083 39.6225C15.2631 40.0471 14.0491 40.2551 12.828 40.2362ZM12.828 35.6047C13.1799 35.5932 13.5232 35.4933 13.8264 35.3142C14.1296 35.1352 14.383 34.8827 14.5632 34.5799C15.0286 33.8406 15.2756 32.9846 15.2756 32.1108C15.2756 31.2369 15.0286 30.3809 14.5632 29.6416C14.3878 29.3361 14.1351 29.0823 13.8304 28.9058C13.5258 28.7294 13.18 28.6364 12.828 28.6364C12.476 28.6364 12.1303 28.7294 11.8256 28.9058C11.521 29.0823 11.2682 29.3361 11.0928 29.6416C10.6207 30.3784 10.3697 31.2354 10.3697 32.1108C10.3697 32.9861 10.6207 33.8431 11.0928 34.5799C11.2726 34.883 11.5259 35.1358 11.8292 35.3149C12.1325 35.494 12.476 35.5937 12.828 35.6047Z" fill="#9951FF"/>
<path d="M35.1665 61.9754C33.9303 61.9873 32.7025 61.7694 31.5458 61.3327C30.4874 60.9283 29.5084 60.3403 28.6538 59.5959C27.8376 58.8849 27.1811 58.0088 26.7277 57.0254C26.2714 56.0261 26.0352 54.9401 26.0352 53.8413C26.0352 52.7424 26.2714 51.6565 26.7277 50.6571C27.1811 49.6737 27.8376 48.7976 28.6538 48.0866C29.5071 47.3404 30.4864 46.7523 31.5458 46.3498C32.7044 45.923 33.9321 45.7149 35.1665 45.7361C36.391 45.723 37.6073 45.939 38.7526 46.3729C39.8119 46.7755 40.7912 47.3636 41.6445 48.1098C42.4625 48.8246 43.1259 49.6994 43.5937 50.6803C44.0686 51.6744 44.3151 52.7624 44.3151 53.8644C44.3151 54.9664 44.0686 56.0544 43.5937 57.0486C43.1272 58.0336 42.4638 58.9124 41.6445 59.6307C40.7899 60.3751 39.811 60.963 38.7526 61.3675C37.6054 61.7916 36.3892 61.9977 35.1665 61.9754ZM30.3369 79.4072L44.872 63.0059L57.7644 45.6782L62.0271 49.534L48.111 65.42L34.5997 83.2572L30.3369 79.4072ZM35.1665 57.3496C35.519 57.3381 35.8629 57.2375 36.1663 57.0574C36.4696 56.8772 36.7226 56.6233 36.9017 56.3191C37.37 55.5819 37.6186 54.7264 37.6186 53.8528C37.6186 52.9793 37.37 52.1238 36.9017 51.3866C36.7263 51.0811 36.4736 50.8273 36.1689 50.6508C35.8643 50.4744 35.5185 50.3814 35.1665 50.3814C34.8145 50.3814 34.4688 50.4744 34.1641 50.6508C33.8595 50.8273 33.6067 51.0811 33.4313 51.3866C32.9631 52.1238 32.7144 52.9793 32.7144 53.8528C32.7144 54.7264 32.9631 55.5819 33.4313 56.3191C33.61 56.6236 33.8629 56.8779 34.1663 57.0581C34.4697 57.2383 34.8139 57.3386 35.1665 57.3496ZM57.1975 83.2572C55.9619 83.2675 54.7349 83.0517 53.5768 82.6203C52.5182 82.2162 51.5392 81.6282 50.6848 80.8835C49.8669 80.1741 49.2102 79.2976 48.7588 78.313C48.3024 77.3137 48.0662 76.2277 48.0662 75.1289C48.0662 74.03 48.3024 72.9441 48.7588 71.9447C49.2102 70.9601 49.8669 70.0836 50.6848 69.3742C51.539 68.6292 52.5181 68.0412 53.5768 67.6374C54.7337 67.2013 55.9613 66.9834 57.1975 66.9948C58.4166 66.9857 59.6268 67.2036 60.7662 67.6374C61.8253 68.0406 62.8044 68.6286 63.6582 69.3742C64.478 70.0888 65.1432 70.9635 65.6132 71.9447C66.0845 72.9399 66.329 74.0275 66.329 75.1289C66.329 76.2302 66.0845 77.3178 65.6132 78.313C65.1432 79.2942 64.478 80.1689 63.6582 80.8835C62.8043 81.6289 61.8252 82.2169 60.7662 82.6203C59.6256 83.0492 58.416 83.265 57.1975 83.2572ZM57.1975 78.6256C57.5495 78.6147 57.8931 78.515 58.1964 78.3359C58.4997 78.1568 58.7529 77.904 58.9327 77.6009C59.4049 76.8641 59.6558 76.0071 59.6558 75.1317C59.6558 74.2564 59.4049 73.3994 58.9327 72.6626C58.7574 72.3571 58.5046 72.1033 58.2 71.9268C57.8953 71.7504 57.5495 71.6574 57.1975 71.6574C56.8456 71.6574 56.4998 71.7504 56.1951 71.9268C55.8905 72.1033 55.6377 72.3571 55.4624 72.6626C54.9969 73.4019 54.75 74.2579 54.75 75.1317C54.75 76.0056 54.9969 76.8616 55.4624 77.6009C55.6419 77.9047 55.8949 78.1584 56.1982 78.3385C56.5014 78.5186 56.8451 78.6193 57.1975 78.6314V78.6256Z" fill="#9951FF"/>
<path d="M158.356 85.1907C157.12 85.2026 155.892 84.9847 154.735 84.5481C153.676 84.1449 152.697 83.5569 151.843 82.8113C151.03 82.0979 150.374 81.2224 149.917 80.2408C149.461 79.2414 149.225 78.1554 149.225 77.0566C149.225 75.9578 149.461 74.8718 149.917 73.8724C150.371 72.889 151.027 72.013 151.843 71.3019C152.696 70.5545 153.675 69.9663 154.735 69.5651C155.892 69.1285 157.12 68.9106 158.356 68.9225C159.575 68.9142 160.785 69.1321 161.925 69.5651C162.984 69.9671 163.964 70.5552 164.817 71.3019C165.636 72.0166 166.302 72.8913 166.772 73.8724C167.243 74.8676 167.487 75.9552 167.487 77.0566C167.487 78.158 167.243 79.2456 166.772 80.2408C166.299 81.2202 165.634 82.0944 164.817 82.8113C163.962 83.5563 162.983 84.1442 161.925 84.5481C160.785 84.9811 159.575 85.199 158.356 85.1907ZM153.526 102.617L168.061 86.2212L180.954 68.8936L185.217 72.7493L171.295 88.6354L157.789 106.472L153.526 102.617ZM158.356 80.565C158.709 80.555 159.053 80.4552 159.357 80.2748C159.661 80.0945 159.913 79.8397 160.091 79.5345C160.563 78.7988 160.815 77.9427 160.815 77.0682C160.815 76.1937 160.563 75.3376 160.091 74.6019C159.918 74.2934 159.666 74.0366 159.361 73.8579C159.056 73.6791 158.709 73.5849 158.356 73.5849C158.003 73.5849 157.656 73.6791 157.351 73.8579C157.046 74.0366 156.794 74.2934 156.621 74.6019C156.148 75.3376 155.897 76.1937 155.897 77.0682C155.897 77.9427 156.148 78.7988 156.621 79.5345C156.799 79.8397 157.051 80.0945 157.355 80.2748C157.659 80.4552 158.003 80.555 158.356 80.565ZM180.387 106.472C179.151 106.484 177.923 106.267 176.766 105.83C175.708 105.425 174.729 104.837 173.874 104.093C173.06 103.395 172.4 102.536 171.937 101.569C171.48 100.57 171.244 99.4835 171.244 98.3847C171.244 97.2859 171.48 96.1999 171.937 95.2006C172.39 94.2171 173.046 93.3411 173.863 92.6301C174.716 91.8839 175.695 91.2957 176.755 90.8932C177.911 90.4566 179.139 90.2387 180.375 90.2506C181.595 90.2415 182.805 90.4594 183.944 90.8932C185.003 91.2957 185.983 91.8839 186.836 92.6301C187.654 93.3449 188.317 94.2197 188.785 95.2006C189.26 96.1947 189.507 97.2827 189.507 98.3847C189.507 99.4867 189.26 100.575 188.785 101.569C188.316 102.549 187.653 103.423 186.836 104.139C185.981 104.884 185.003 105.472 183.944 105.876C182.805 106.293 181.599 106.495 180.387 106.472ZM180.387 101.841C180.74 101.829 181.083 101.729 181.387 101.549C181.69 101.369 181.943 101.115 182.122 100.81C182.59 100.073 182.839 99.2178 182.839 98.3442C182.839 97.4706 182.59 96.6151 182.122 95.8779C181.948 95.5709 181.696 95.3157 181.391 95.1381C181.086 94.9605 180.74 94.8669 180.387 94.8669C180.034 94.8669 179.688 94.9605 179.383 95.1381C179.078 95.3157 178.826 95.5709 178.652 95.8779C178.184 96.6151 177.935 97.4706 177.935 98.3442C177.935 99.2178 178.184 100.073 178.652 100.81C178.83 101.116 179.082 101.371 179.386 101.553C179.689 101.734 180.034 101.835 180.387 101.847V101.841Z" fill="#9951FF"/>
</g>
<path d="M14.6797 101.505V9.49463" stroke="#C5A1FF" stroke-width="2" stroke-miterlimit="10" stroke-linecap="round" stroke-dasharray="6 6"/>
<path d="M237.314 9.49463V101.505" stroke="#C5A1FF" stroke-width="2" stroke-miterlimit="10" stroke-linecap="round" stroke-dasharray="6 6"/>
<path d="M65.6074 96.1213L189.818 81.3525" stroke="#FF66CC" stroke-width="3.31" stroke-miterlimit="10" stroke-linecap="round"/>
<path d="M65.6074 33.1271L189.818 18.3525" stroke="#FF66CC" stroke-width="3.31" stroke-miterlimit="10" stroke-linecap="round"/>
<path d="M24.1078 82.9202C23.9365 81.1524 24.9917 79.788 26.7822 79.5033C27.4764 79.3929 28.1993 79.5771 29.0202 80.0075C30.6254 80.8741 32.2502 81.1766 33.8945 80.9151C35.1734 80.7118 36.0192 79.8668 35.9299 78.9461C35.8693 78.32 35.4468 77.7889 34.6624 77.3527C33.8781 76.9165 32.3816 76.4066 30.2096 75.8171C26.1721 74.739 23.9892 72.5058 23.6609 69.1177C23.4432 66.8712 24.1088 64.933 25.6871 63.2236C27.2653 61.5143 29.4229 60.4233 32.1635 59.9874C34.7214 59.5807 37.0146 59.8891 39.0762 60.8701C40.2839 61.4634 40.9176 62.2601 41.0211 63.3281C41.1888 65.0589 40.1373 66.4602 38.5295 66.7159C37.9083 66.8147 37.1525 66.6731 36.3316 66.2427C35.1604 65.6436 33.9519 65.4245 32.6729 65.6279C31.3575 65.8371 30.6508 66.5851 30.7329 67.4322C30.79 68.0214 31.0957 68.4963 31.6866 68.8511C32.274 69.169 33.3908 69.5898 35.1029 70.028C40.0165 71.3408 42.6557 73.6883 42.9805 77.0396C43.2017 79.3229 42.4738 81.3832 40.8331 83.2147C39.1889 85.0093 36.9618 86.1488 34.1482 86.5962C30.8229 87.125 27.9967 86.677 25.666 85.2152C24.7212 84.655 24.2042 83.9145 24.1078 82.9202ZM47.9508 80.4748L46.1308 61.6928C45.9346 59.6673 47.2535 57.9618 49.2632 57.6422L62.3448 55.5619C64.0988 55.283 65.4625 56.3376 65.6338 58.1053C65.8087 59.9098 64.6876 61.3595 62.9336 61.6384L53.3234 63.1667L53.6802 66.8494L61.6461 65.5827C63.2905 65.3212 64.574 66.3137 64.7346 67.971C64.9023 69.7019 63.8436 71.0295 62.1993 71.2909L54.2333 72.5577L54.6437 76.7929L64.6194 75.2065C66.3733 74.9276 67.7371 75.9822 67.9083 77.7499C68.0832 79.5544 66.9621 81.0041 65.2082 81.2831L51.7611 83.4214C49.7514 83.741 48.147 82.5004 47.9508 80.4748ZM72.2932 76.903L70.509 58.4893C70.2664 55.985 71.915 53.8531 74.3998 53.4579C76.1903 53.1732 77.6716 53.9099 78.8473 55.7049L85.2974 65.5985L89.8764 53.5023C90.5562 51.7114 91.7201 50.7036 93.4375 50.4305C95.7762 50.0586 97.6613 51.5164 97.8897 53.8734L99.6989 72.5449C99.888 74.4968 98.6386 76.1539 96.702 76.4618C94.6922 76.7814 93.2082 75.6338 93.0119 73.6083L91.9628 62.781L88.78 71.2897C88.159 72.9216 87.2108 73.8577 85.9684 74.0553C84.6894 74.2586 83.5914 73.648 82.6777 72.2601L77.9311 65.0123L78.9802 75.8396C79.1694 77.7915 77.92 79.4486 75.9833 79.7566C74.0466 80.0645 72.4895 78.9285 72.2932 76.903ZM103.165 72.0686C103.111 71.5162 103.197 70.8669 103.454 70.078L108.932 51.5565C109.69 49.0427 111.147 47.6143 113.376 47.2599C115.605 46.9054 117.29 47.834 118.469 50.0399L127.057 65.9133C127.468 66.7081 127.718 67.3787 127.772 67.9312C127.972 69.9935 126.689 71.6932 124.643 72.0186C122.999 72.2801 121.744 71.5822 120.948 69.8764L120.068 68.0718L110.348 69.6175L109.872 71.6003C109.389 73.5094 108.382 74.6044 106.847 74.8485C104.911 75.1564 103.35 73.9836 103.165 72.0686ZM113.938 55.36L111.822 63.7737L117.559 62.8615L113.938 55.36ZM131.266 67.4877L129.503 49.2949C129.25 46.6801 130.964 44.4629 133.595 44.0445C135.24 43.7831 136.63 44.3472 137.763 45.7003L147.505 57.015L146.384 45.4512C146.188 43.4257 147.444 41.8422 149.454 41.5227C151.391 41.2147 152.948 42.3507 153.144 44.3762L154.936 62.8636C155.175 65.3311 153.559 67.4203 151.111 67.8097C149.539 68.0595 148.186 67.4895 146.98 66.1481L136.859 54.3701L138.026 66.4127C138.222 68.4382 137.006 70.0526 134.996 70.3722C132.986 70.6918 131.462 69.5132 131.266 67.4877ZM158.501 63.2689C158.448 62.7165 158.533 62.0672 158.791 61.2783L164.268 42.7568C165.027 40.2429 166.484 38.8146 168.713 38.4601C170.942 38.1057 172.627 39.0343 173.805 41.2402L182.393 57.1136C182.804 57.9084 183.055 58.579 183.108 59.1314C183.308 61.1938 182.026 62.8935 179.979 63.2189C178.335 63.4804 177.08 62.7825 176.284 61.0767L175.404 59.2721L165.684 60.8178L165.209 62.8006C164.726 64.7097 163.719 65.8047 162.184 66.0488C160.247 66.3567 158.687 65.1839 158.501 63.2689ZM169.275 46.5602L167.159 54.974L172.896 54.0617L169.275 46.5602ZM185.485 58.6413C185.385 57.6101 185.767 56.5771 186.595 55.5479L193.123 47.4796C194.874 45.2566 195.406 44.2372 195.253 42.6536C195.11 41.1805 193.907 40.25 192.262 40.5115C191.276 40.6684 190.269 41.3893 189.247 42.7111C187.287 45.4535 183.918 44.3813 183.858 41.8479C183.797 41.2219 184.018 40.4388 184.491 39.5783C184.84 38.962 185.301 38.365 185.803 37.7991C186.305 37.2332 187.168 36.5723 188.328 35.9018C189.524 35.2255 190.851 34.7527 192.349 34.5145C194.87 34.1135 196.988 34.5247 198.775 35.7363C200.559 36.9111 201.537 38.5878 201.748 40.7606C201.919 42.5283 201.704 44.1332 201.101 45.5752C200.495 46.9804 199.429 48.6084 197.865 50.4651L194.037 55.0002L200.176 54.024C201.82 53.7625 203.104 54.7551 203.264 56.4123C203.425 58.0695 202.373 59.4708 200.729 59.7323L189.255 61.5569C187.246 61.8765 185.681 60.6668 185.485 58.6413ZM206.692 49.5475L205.979 42.1819C205.69 39.1989 206.375 36.6967 207.997 34.6811C209.657 32.6596 211.873 31.4097 214.65 30.9681C217.427 30.5264 219.775 31.0132 221.653 32.3973C223.568 33.7757 224.669 35.9563 224.958 38.9394L225.672 46.3049C225.961 49.2879 225.28 51.827 223.62 53.8484C221.997 55.864 219.777 57.0771 217 57.5187C214.223 57.9604 211.879 57.5104 209.965 56.1321C208.087 54.748 206.981 52.5305 206.692 49.5475ZM212.492 40.4731L213.312 48.9434C213.48 50.6743 214.804 51.6979 216.521 51.4248C218.239 51.1517 219.327 49.7446 219.159 48.0137L218.338 39.5434C218.17 37.8125 216.847 36.7889 215.129 37.062C213.412 37.3352 212.324 38.7422 212.492 40.4731Z" fill="#FF66CC"/>
<path d="M26.1078 80.3157C25.9365 78.548 26.9917 77.1835 28.7822 76.8988C29.4764 76.7884 30.1993 76.9726 31.0202 77.403C32.6254 78.2696 34.2502 78.5721 35.8945 78.3106C37.1734 78.1073 38.0192 77.2623 37.9299 76.3416C37.8693 75.7155 37.4468 75.1844 36.6624 74.7482C35.8781 74.312 34.3816 73.8021 32.2096 73.2126C28.1721 72.1345 25.9892 69.9013 25.6609 66.5132C25.4432 64.2667 26.1088 62.3285 27.6871 60.6191C29.2653 58.9098 31.4229 57.8188 34.1635 57.383C36.7214 56.9762 39.0146 57.2846 41.0762 58.2656C42.2839 58.8589 42.9176 59.6556 43.0211 60.7236C43.1888 62.4545 42.1373 63.8557 40.5295 64.1114C39.9083 64.2102 39.1525 64.0686 38.3316 63.6382C37.1604 63.0392 35.9519 62.82 34.6729 63.0234C33.3575 63.2326 32.6508 63.9807 32.7329 64.8277C32.79 65.4169 33.0957 65.8918 33.6866 66.2466C34.274 66.5645 35.3908 66.9853 37.1029 67.4235C42.0165 68.7363 44.6557 71.0838 44.9805 74.4351C45.2017 76.7184 44.4738 78.7787 42.8331 80.6102C41.1889 82.4048 38.9618 83.5443 36.1482 83.9917C32.8229 84.5205 29.9967 84.0725 27.666 82.6108C26.7212 82.0505 26.2042 81.31 26.1078 80.3157ZM49.9508 77.8704L48.1308 59.0883C47.9346 57.0628 49.2535 55.3573 51.2632 55.0377L64.3448 52.9574C66.0988 52.6785 67.4625 53.7331 67.6338 55.5008C67.8087 57.3053 66.6876 58.755 64.9336 59.034L55.3234 60.5622L55.6802 64.2449L63.6461 62.9782C65.2905 62.7167 66.574 63.7092 66.7346 65.3665C66.9023 67.0974 65.8436 68.425 64.1993 68.6865L56.2333 69.9532L56.6437 74.1884L66.6194 72.602C68.3733 72.3231 69.7371 73.3777 69.9083 75.1454C70.0832 76.9499 68.9621 78.3996 67.2082 78.6786L53.7611 80.8169C51.7514 81.1365 50.147 79.8959 49.9508 77.8704ZM74.2932 74.2985L72.509 55.8848C72.2664 53.3805 73.915 51.2486 76.3998 50.8534C78.1903 50.5687 79.6716 51.3054 80.8473 53.1004L87.2974 62.994L91.8764 50.8978C92.5562 49.1069 93.7201 48.0991 95.4375 47.826C97.7762 47.4541 99.6613 48.9119 99.8897 51.2689L101.699 69.9404C101.888 71.8923 100.639 73.5494 98.702 73.8573C96.6922 74.1769 95.2082 73.0293 95.0119 71.0038L93.9628 60.1765L90.78 68.6852C90.159 70.3171 89.2108 71.2532 87.9684 71.4508C86.6894 71.6541 85.5914 71.0435 84.6777 69.6556L79.9311 62.4079L80.9802 73.2351C81.1694 75.187 79.92 76.8441 77.9833 77.1521C76.0466 77.46 74.4895 76.324 74.2932 74.2985ZM105.165 69.4641C105.111 68.9117 105.197 68.2624 105.454 67.4735L110.932 48.952C111.69 46.4382 113.147 45.0098 115.376 44.6554C117.605 44.3009 119.29 45.2295 120.469 47.4354L129.057 63.3088C129.468 64.1036 129.718 64.7742 129.772 65.3267C129.972 67.389 128.689 69.0887 126.643 69.4141C124.999 69.6756 123.744 68.9777 122.948 67.2719L122.068 65.4673L112.348 67.013L111.872 68.9958C111.389 70.9049 110.382 71.9999 108.847 72.244C106.911 72.552 105.35 71.3791 105.165 69.4641ZM115.938 52.7555L113.822 61.1693L119.559 60.257L115.938 52.7555ZM133.266 64.8832L131.503 46.6904C131.25 44.0756 132.964 41.8584 135.595 41.44C137.24 41.1786 138.63 41.7428 139.763 43.0958L149.505 54.4105L148.384 42.8467C148.188 40.8212 149.444 39.2378 151.454 38.9182C153.391 38.6102 154.948 39.7462 155.144 41.7717L156.936 60.2591C157.175 62.7266 155.559 64.8158 153.111 65.2052C151.539 65.455 150.186 64.885 148.98 63.5436L138.859 51.7656L140.026 63.8082C140.222 65.8337 139.006 67.4481 136.996 67.7677C134.986 68.0873 133.462 66.9087 133.266 64.8832ZM160.501 60.6644C160.448 60.112 160.533 59.4627 160.791 58.6738L166.268 40.1523C167.027 37.6385 168.484 36.2101 170.713 35.8556C172.942 35.5012 174.627 36.4298 175.805 38.6357L184.393 54.5091C184.804 55.3039 185.055 55.9745 185.108 56.5269C185.308 58.5893 184.026 60.289 181.979 60.6144C180.335 60.8759 179.08 60.178 178.284 58.4722L177.404 56.6676L167.684 58.2133L167.209 60.1961C166.726 62.1052 165.719 63.2002 164.184 63.4443C162.247 63.7522 160.687 62.5794 160.501 60.6644ZM171.275 43.9557L169.159 52.3695L174.896 51.4572L171.275 43.9557ZM187.485 56.0368C187.385 55.0056 187.767 53.9726 188.595 52.9434L195.123 44.8751C196.874 42.6521 197.406 41.6327 197.253 40.0491C197.11 38.576 195.907 37.6455 194.262 37.907C193.276 38.0639 192.269 38.7848 191.247 40.1066C189.287 42.849 185.918 41.7768 185.858 39.2435C185.797 38.6174 186.018 37.8344 186.491 36.9738C186.84 36.3575 187.301 35.7605 187.803 35.1946C188.305 34.6287 189.168 33.9678 190.328 33.2973C191.524 32.621 192.851 32.1482 194.349 31.91C196.87 31.509 198.988 31.9202 200.775 33.1318C202.559 34.3066 203.537 35.9833 203.748 38.1561C203.919 39.9238 203.704 41.5287 203.101 42.9707C202.495 44.3759 201.429 46.0039 199.865 47.8606L196.037 52.3957L202.176 51.4195C203.82 51.158 205.104 52.1506 205.264 53.8078C205.425 55.465 204.373 56.8663 202.729 57.1278L191.255 58.9524C189.246 59.272 187.681 58.0623 187.485 56.0368ZM208.692 46.943L207.979 39.5775C207.69 36.5944 208.375 34.0922 209.997 32.0766C211.657 30.0551 213.873 28.8052 216.65 28.3636C219.427 27.922 221.775 28.4087 223.653 29.7929C225.568 31.1712 226.669 33.3518 226.958 36.3349L227.672 43.7004C227.961 46.6834 227.28 49.2225 225.62 51.2439C223.997 53.2595 221.777 54.4726 219 54.9143C216.223 55.3559 213.879 54.9059 211.965 53.5276C210.087 52.1435 208.981 49.926 208.692 46.943ZM214.492 37.8686L215.312 46.3389C215.48 48.0698 216.804 49.0934 218.521 48.8203C220.239 48.5472 221.327 47.1401 221.159 45.4092L220.338 36.9389C220.17 35.208 218.847 34.1844 217.129 34.4576C215.412 34.7307 214.324 36.1377 214.492 37.8686Z" fill="#FFD700"/>
</g>
<defs>
<clipPath id="clip0_2377_2">
<rect width="251" height="111" fill="white"/>
</clipPath>
</defs>
</svg>
