<svg version="1.1" id="Capa_1" stroke="url(#SVGID_1_)" xmlns="http://www.w3.org/2000/svg" xmlns:xlink="http://www.w3.org/1999/xlink" x="0px" y="0px" width="558.957px" height="558.956px" viewBox="0 0 558.957 558.956" style="enable-background:new 0 0 558.957 558.956;" xml:space="preserve">
	<linearGradient id="SVGID_1_" gradientUnits="userSpaceOnUse" x1="50" y1="6" x2="2" y2="640">
		<stop offset="0" style="stop-color:#FDF440" />
		<stop offset="0.2586" style="stop-color:#F94A2F" />
		<stop offset="0.3244" style="stop-color:#F74734" />
		<stop offset="0.3992" style="stop-color:#F13D41" />
		<stop offset="0.4781" style="stop-color:#E72E58" />
		<stop offset="0.5538" style="stop-color:#DA1A75" />
		<stop offset="1" style="stop-color:#2B4AE2" />
	</linearGradient>
	<g>
		<g>
			<path fill="url(#SVGID_1_)" d="M279.439,441.225c4.989,0,9.67-1.951,13.204-5.47l118.833-118.834c3.523-3.519,5.474-8.223,5.474-13.198
			c0-4.975-1.945-9.68-5.474-13.203L292.662,171.7c-7.057-7.042-19.346-7.042-26.4,0l-118.84,118.824
			c-3.528,3.519-5.472,8.228-5.472,13.203c0,4.975,1.939,9.675,5.472,13.198l118.817,118.829
			C269.771,439.273,274.455,441.225,279.439,441.225z M187.024,303.723l92.434-92.432l92.417,92.432l-92.436,92.427L187.024,303.723
			z" />
			<path fill="url(#SVGID_1_)" d="M483.811,150.913c-40.818-54.577-100.454-90-167.912-99.754c-40.933-5.885-82.598-1.755-121.479,12.106l-27.27-54.507
			c-2.705-5.395-8.349-9.311-15.236-8.695c-6.429,0.458-11.887,4.681-13.912,10.781l-35.218,105.7
			c-2.751,8.232,1.722,17.212,10.013,20.012l105.7,35.208c5.958,1.951,12.846,0.075,16.928-4.648
			c4.233-4.849,5.094-11.724,2.208-17.445l-26.39-52.766c31.89-10.594,65.904-13.619,99.332-8.774
			c57.592,8.298,108.49,38.545,143.335,85.165c34.774,46.517,49.354,103.875,41.033,161.537
			c-8.326,57.648-38.531,108.557-85.039,143.345c-46.456,34.756-104.071,49.435-161.572,41.132
			c-57.587-8.294-108.484-38.536-143.338-85.16c-27.771-37.127-42.764-81.18-43.366-127.384
			c-0.128-10.174-8.506-18.426-18.92-18.426c-10.289,0.141-18.552,8.62-18.419,18.921c0.707,54.138,18.276,105.756,50.806,149.281
			c40.813,54.567,100.447,90,167.915,99.754c12.295,1.764,24.73,2.66,36.965,2.66c55.134,0,107.798-17.595,152.28-50.871
			c54.591-40.828,90.019-100.449,99.745-167.912C541.748,272.724,524.625,205.5,483.811,150.913z" />
		</g>
	</g>
	<g></g>
	<g></g>
	<g></g>
	<g></g>
	<g></g>
	<g></g>
	<g></g>
	<g></g>
	<g></g>
	<g></g>
	<g></g>
	<g></g>
	<g></g>
	<g></g>
	<g></g>
</svg>