<svg width="26" height="17" viewBox="0 0 26 17" fill="none" xmlns="http://www.w3.org/2000/svg">
<g clip-path="url(#clip0_709_1069)">
<path fill-rule="evenodd" clip-rule="evenodd" d="M3.10867 12.2593H6.52669V13.1011H3.10867V12.2593ZM18.2686 9.59037C18.5769 9.59082 18.8809 9.6654 19.1558 9.80807C19.4307 9.95074 19.6688 10.1575 19.8509 10.4116C20.0994 10.0705 20.4469 9.81814 20.8439 9.69024C21.2409 9.56233 21.6673 9.56543 22.0625 9.69909C22.4577 9.83275 22.8016 10.0902 23.0453 10.4348C23.289 10.7794 23.4202 11.1937 23.4202 11.6188C23.4202 12.0439 23.289 12.4582 23.0453 12.8028C22.8016 13.1474 22.4577 13.4048 22.0625 13.5385C21.6673 13.6722 21.2409 13.6753 20.8439 13.5473C20.4469 13.4194 20.0994 13.167 19.8509 12.826C19.6482 13.1008 19.3801 13.3183 19.072 13.4576C18.7639 13.597 18.426 13.6537 18.0904 13.6224C17.7548 13.5911 17.4327 13.4727 17.1544 13.2786C16.8762 13.0845 16.6511 12.821 16.5006 12.5131C16.35 12.2053 16.279 11.8633 16.2942 11.5195C16.3094 11.1758 16.4103 10.8417 16.5874 10.5489C16.7645 10.2562 17.0119 10.0145 17.3061 9.84671C17.6003 9.67895 17.9316 9.59072 18.2686 9.59037ZM24.1958 15.6038C24.3461 15.6008 24.4896 15.5395 24.5971 15.4323C24.7047 15.3252 24.7683 15.1802 24.7749 15.0269V7.332H1.63289V15.0269C1.63044 15.1033 1.64387 15.1794 1.67228 15.2502C1.7007 15.321 1.74346 15.3848 1.79776 15.4375C1.90422 15.5472 2.04862 15.6099 2.19988 15.612L24.1958 15.6038ZM2.2039 16.4065C2.02546 16.4079 1.8486 16.3722 1.68409 16.3016C1.51957 16.231 1.37081 16.127 1.24686 15.9959C1.11901 15.8694 1.0175 15.7178 0.948401 15.5502C0.879304 15.3826 0.844045 15.2025 0.844737 15.0207V1.73535C0.844202 1.55313 0.879023 1.37261 0.947188 1.20421C1.01535 1.03581 1.11551 0.882867 1.24188 0.754211C1.36825 0.625554 1.51833 0.523733 1.68345 0.454628C1.84857 0.385523 2.02545 0.350502 2.2039 0.351587H24.1958C24.5556 0.351585 24.9007 0.497243 25.1555 0.756632C25.4103 1.01602 25.5539 1.36798 25.555 1.73535V15.0269C25.5546 15.2085 25.5188 15.3883 25.4497 15.5557C25.3807 15.7231 25.2798 15.8748 25.1529 16.0021C24.8985 16.2624 24.5539 16.4099 24.1938 16.4127C16.8565 16.4127 9.52583 16.4127 2.20189 16.4127L2.2039 16.4065ZM1.63289 3.34085H24.7749V1.7333C24.7747 1.65629 24.7591 1.58014 24.729 1.50953C24.6989 1.43891 24.655 1.37533 24.6 1.32269C24.548 1.26705 24.4856 1.22259 24.4166 1.19191C24.3475 1.16124 24.2731 1.14497 24.1978 1.14407H2.2039C2.12858 1.14486 2.05418 1.16107 1.98511 1.19175C1.91604 1.22243 1.8537 1.26696 1.80178 1.32269C1.74866 1.37628 1.70667 1.44027 1.67834 1.51082C1.65001 1.58138 1.63592 1.65705 1.63691 1.7333V3.34085H1.63289ZM8.10501 12.2593H13.793V13.1011H8.10501V12.2593Z" fill="#A9A6AC"/>
</g>
<defs>
<clipPath id="clip0_709_1069">
<rect width="24.7062" height="16.0591" fill="white" transform="translate(0.848633 0.351562)"/>
</clipPath>
</defs>
</svg>
