<svg width="23" height="17" viewBox="0 0 23 17" fill="none" xmlns="http://www.w3.org/2000/svg">
<path d="M4.20458 3.27148C3.80147 3.27148 3.47461 3.5983 3.47461 4.00146V12.761C3.47461 13.1641 3.80143 13.4909 4.20458 13.4909C4.60774 13.4909 4.93456 13.1641 4.93456 12.761V4.00146C4.93456 3.59835 4.60774 3.27148 4.20458 3.27148Z" fill="#A9A6AC"/>
<path d="M10.0439 3.27148C9.64083 3.27148 9.31396 3.5983 9.31396 4.00146V9.84111C9.31396 10.2442 9.64078 10.5711 10.0439 10.5711C10.447 10.5711 10.7739 10.2443 10.7739 9.84111V4.00146C10.7739 3.59835 10.4471 3.27148 10.0439 3.27148Z" fill="#A9A6AC"/>
<path d="M16.3701 3.27148C15.967 3.27148 15.6401 3.5983 15.6401 4.00146V9.84111C15.6401 10.2442 15.967 10.5711 16.3701 10.5711C16.7733 10.5711 17.1001 10.2443 17.1001 9.84111V4.00146C17.1001 3.59835 16.7733 3.27148 16.3701 3.27148Z" fill="#A9A6AC"/>
<path d="M19.29 3.27148C18.8869 3.27148 18.5601 3.5983 18.5601 4.00146V12.761C18.5601 13.1641 18.8869 13.4909 19.29 13.4909C19.6932 13.4909 20.02 13.1641 20.02 12.761V4.00146C20.02 3.59835 19.6931 3.27148 19.29 3.27148Z" fill="#A9A6AC"/>
<path d="M10.0439 13.4907C10.4471 13.4907 10.7739 13.1639 10.7739 12.7607C10.7739 12.3576 10.4471 12.0308 10.0439 12.0308C9.64078 12.0308 9.31396 12.3576 9.31396 12.7607C9.31396 13.1639 9.64078 13.4907 10.0439 13.4907Z" fill="#A9A6AC"/>
<path d="M12.9639 3.27148C12.5607 3.27148 12.2339 3.5983 12.2339 4.00146V9.84111C12.2339 10.2442 12.5607 10.5711 12.9639 10.5711C13.367 10.5711 13.6938 10.2443 13.6938 9.84111V4.00146C13.6938 3.59835 13.367 3.27148 12.9639 3.27148Z" fill="#A9A6AC"/>
<path d="M12.9639 13.4907C13.367 13.4907 13.6938 13.1639 13.6938 12.7607C13.6938 12.3576 13.367 12.0308 12.9639 12.0308C12.5607 12.0308 12.2339 12.3576 12.2339 12.7607C12.2339 13.1639 12.5607 13.4907 12.9639 13.4907Z" fill="#A9A6AC"/>
<path d="M7.1245 3.27148C6.72139 3.27148 6.39453 3.5983 6.39453 4.00146V9.84111C6.39453 10.2442 6.72135 10.5711 7.1245 10.5711C7.52766 10.5711 7.85448 10.2443 7.85448 9.84111V4.00146C7.85448 3.59835 7.52762 3.27148 7.1245 3.27148Z" fill="#A9A6AC"/>
<path d="M7.1245 13.4907C7.52766 13.4907 7.85448 13.1639 7.85448 12.7607C7.85448 12.3576 7.52766 12.0308 7.1245 12.0308C6.72135 12.0308 6.39453 12.3576 6.39453 12.7607C6.39453 13.1639 6.72135 13.4907 7.1245 13.4907Z" fill="#A9A6AC"/>
<path d="M16.3701 13.4907C16.7733 13.4907 17.1001 13.1639 17.1001 12.7607C17.1001 12.3576 16.7733 12.0308 16.3701 12.0308C15.967 12.0308 15.6401 12.3576 15.6401 12.7607C15.6401 13.1639 15.967 13.4907 16.3701 13.4907Z" fill="#A9A6AC"/>
<path d="M20.7502 0.351562H2.74456C1.53706 0.351562 0.554688 1.33394 0.554688 2.54144V14.2207C0.554688 15.4282 1.53706 16.4106 2.74456 16.4106H20.7502C21.9577 16.4106 22.9401 15.4282 22.9401 14.2207V2.54144C22.9401 1.33394 21.9577 0.351562 20.7502 0.351562ZM21.4802 14.2207C21.4802 14.6232 21.1527 14.9507 20.7502 14.9507H2.74456C2.34206 14.9507 2.01459 14.6232 2.01459 14.2207V2.54144C2.01459 2.13894 2.34206 1.81146 2.74456 1.81146H20.7502C21.1527 1.81146 21.4802 2.13894 21.4802 2.54144V14.2207Z" fill="#A9A6AC"/>
</svg>
