<?xml version="1.0" encoding="UTF-8" standalone="no"?>

<svg viewBox="0 0 20 20" fill="none" xmlns="http://www.w3.org/2000/svg">
    <path fill-rule="evenodd" clip-rule="evenodd"
        d="M0.833332 3.95833C0.833332 3.61315 1.11315 3.33333 1.45833 3.33333H18.5417C18.8868 3.33333 19.1667 3.61315 19.1667 3.95833C19.1667 4.30351 18.8868 4.58333 18.5417 4.58333H1.45833C1.11315 4.58333 0.833332 4.30351 0.833332 3.95833ZM0.833332 16.0417C0.833332 15.6965 1.11315 15.4167 1.45833 15.4167H18.5417C18.8868 15.4167 19.1667 15.6965 19.1667 16.0417C19.1667 16.3868 18.8868 16.6667 18.5417 16.6667H1.45833C1.11315 16.6667 0.833332 16.3868 0.833332 16.0417Z"
        fill="#FFFFFF"></path>
    <path fill-rule="evenodd" clip-rule="evenodd"
        d="M17.9167 6.66666V3.95833H19.1667V6.66666C19.1667 7.01184 18.8868 7.29166 18.5417 7.29166C18.1965 7.29166 17.9167 7.01184 17.9167 6.66666Z"
        fill="#FFFFFF"></path>
    <path fill-rule="evenodd" clip-rule="evenodd"
        d="M0.833332 6.66666L0.833332 3.95833H2.08333V6.66666C2.08333 7.01184 1.80351 7.29166 1.45833 7.29166C1.11315 7.29166 0.833332 7.01184 0.833332 6.66666Z"
        fill="#FFFFFF"></path>
    <path fill-rule="evenodd" clip-rule="evenodd"
        d="M1.45833 12.8125C1.80351 12.8125 2.08333 13.0923 2.08333 13.4375V16.0417H0.833332L0.833332 13.4375C0.833332 13.0923 1.11315 12.8125 1.45833 12.8125Z"
        fill="#FFFFFF"></path>
    <path fill-rule="evenodd" clip-rule="evenodd"
        d="M18.5417 12.8125C18.8868 12.8125 19.1667 13.0923 19.1667 13.4375V16.0417H17.9167V13.4375C17.9167 13.0923 18.1965 12.8125 18.5417 12.8125Z"
        fill="#FFFFFF"></path>
    <path
        d="M3.33333 7.18749C3.33333 7.07243 3.42661 6.97916 3.54167 6.97916H4.79167C4.90672 6.97916 5 7.07243 5 7.18749V12.7083C5 12.8234 4.90672 12.9167 4.79167 12.9167H3.54167C3.42661 12.9167 3.33333 12.8234 3.33333 12.7083V7.18749Z"
        fill="#FFFFFF"></path>
    <path
        d="M9.16666 7.18749C9.16666 7.07243 9.25994 6.97916 9.375 6.97916H11.0417C11.1567 6.97916 11.25 7.07243 11.25 7.18749V12.7083C11.25 12.8234 11.1567 12.9167 11.0417 12.9167H9.375C9.25994 12.9167 9.16666 12.8234 9.16666 12.7083V7.18749Z"
        fill="#FFFFFF"></path>
    <path
        d="M5.83333 7.08332C5.83333 7.02579 5.87997 6.97916 5.9375 6.97916H6.5625C6.62003 6.97916 6.66667 7.02579 6.66667 7.08332V12.8125C6.66667 12.87 6.62003 12.9167 6.5625 12.9167H5.9375C5.87997 12.9167 5.83333 12.87 5.83333 12.8125V7.08332Z"
        fill="#FFFFFF"></path>
    <path
        d="M7.5 7.08332C7.5 7.02579 7.54664 6.97916 7.60417 6.97916H8.22917C8.2867 6.97916 8.33333 7.02579 8.33333 7.08332V12.8125C8.33333 12.87 8.2867 12.9167 8.22917 12.9167H7.60417C7.54664 12.9167 7.5 12.87 7.5 12.8125V7.08332Z"
        fill="#FFFFFF"></path>
    <path
        d="M12.0833 7.08332C12.0833 7.02579 12.13 6.97916 12.1875 6.97916H12.8125C12.87 6.97916 12.9167 7.02579 12.9167 7.08332V12.8125C12.9167 12.87 12.87 12.9167 12.8125 12.9167H12.1875C12.13 12.9167 12.0833 12.87 12.0833 12.8125V7.08332Z"
        fill="#FFFFFF"></path>
    <path
        d="M13.75 7.08332C13.75 7.02579 13.7966 6.97916 13.8542 6.97916H14.4792C14.5367 6.97916 14.5833 7.02579 14.5833 7.08332V12.8125C14.5833 12.87 14.5367 12.9167 14.4792 12.9167H13.8542C13.7966 12.9167 13.75 12.87 13.75 12.8125V7.08332Z"
        fill="#FFFFFF"></path>
    <path
        d="M15.4167 7.18749C15.4167 7.07243 15.5099 6.97916 15.625 6.97916H16.4583C16.5734 6.97916 16.6667 7.07243 16.6667 7.18749V12.7083C16.6667 12.8234 16.5734 12.9167 16.4583 12.9167H15.625C15.5099 12.9167 15.4167 12.8234 15.4167 12.7083V7.18749Z"
        fill="#FFFFFF"></path>
</svg>