<svg width="301" height="486" fill="none" xmlns="http://www.w3.org/2000/svg"><g filter="url(#a)"><path d="M259.227 14.5H60c-15.464 0-28 12.536-28 28v384.528c0 15.464 12.536 28 28 28h199.227c15.464 0 28-12.536 28-28V42.5c0-15.464-12.536-28-28-28Z" fill="url(#b)"/></g><path d="M274.528 417.395c0 13.267-11.106 24.022-24.806 24.022H67.807c-13.7 0-24.807-10.755-24.807-24.022V49.055c0-13.268 11.106-24.023 24.807-24.023h24.807v8.6a16.28 16.28 0 0 0 16.538 16.015h99.227a16.28 16.28 0 0 0 16.537-16.015v-8.6h24.807c13.7 0 24.806 10.755 24.806 24.022l-.001 368.341Z" fill="url(#c)"/><path d="M191.57 31.589h-65.374a4.196 4.196 0 0 0 0 8.392h65.374a4.196 4.196 0 0 0 0-8.392Z" fill="#fff"/><path opacity=".15" d="M172.552 88.271h-66.429v6.993h66.429v-6.993ZM204.018 103.006h-97.895v6.993h97.895v-6.993ZM257.188 128.031H68.39v6.993h188.798v-6.993Z" fill="#BA4DCA"/><path opacity=".16" d="M124.33 155.373H68.39v69.925h55.94v-69.925ZM190.758 155.373h-55.94v69.925h55.94v-69.925Z" fill="#BE50CC"/><path opacity=".46" d="M257.187 155.373h-55.94v69.925h55.94v-69.925Z" fill="#E3E7F3"/><path opacity=".22" d="M44 77h229.734M44 235.041h229.734" stroke="#EBBEEE"/><g opacity=".39"><path d="M79.611 113.468c7.916 0 14.334-6.418 14.334-14.334 0-7.917-6.417-14.334-14.334-14.334-7.916 0-14.334 6.417-14.334 14.334 0 7.916 6.418 14.334 14.334 14.334Z" fill="#B249C4"/><path d="M79.611 103.994c3.08 0 5.576-3.227 5.576-7.208 0-3.981-2.496-7.208-5.576-7.208-3.08 0-5.576 3.227-5.576 7.208 0 3.981 2.497 7.208 5.576 7.208ZM79.61 104.529c-4.486 0-8.437 1.62-10.752 4.078a14.332 14.332 0 0 0 21.5 0c-2.31-2.458-6.262-4.078-10.748-4.078Z" fill="#fff"/><path d="M82.128 101.652a2.518 2.518 0 1 0-5.035 0v4.067a2.518 2.518 0 0 0 5.035 0v-4.067ZM74.804 97.12c.325.935.2 1.829-.288 2-.488.17-1.138-.454-1.463-1.39-.325-.934-.2-1.828.288-2 .488-.17 1.14.456 1.463 1.39ZM84.414 97.12c-.325.935-.2 1.829.288 2 .488.17 1.138-.454 1.463-1.39.325-.934.2-1.828-.288-2-.488-.17-1.136.456-1.463 1.39Z" fill="#fff"/><path d="M86.453 97.743a20.806 20.806 0 0 0-.634-5.3 6.874 6.874 0 0 0-4-4.22 5.97 5.97 0 0 0-5.692.836 2.2 2.2 0 0 0-.989 1.764 2.173 2.173 0 0 0-2.462 1.257 5.833 5.833 0 0 0-.36 2.962c.186 2.944.635 5.963-.162 8.8l7.331.222c.782.024 1.566.047 2.348.014 2-.086 4.064-.536 5.943.141a25.216 25.216 0 0 1-1.323-6.476Z" fill="#fff"/></g><defs><linearGradient id="b" x1="159.614" y1="14.5" x2="159.614" y2="455.028" gradientUnits="userSpaceOnUse"><stop stop-color="#C6BDF3"/><stop offset="1" stop-color="#C5BCF2" stop-opacity="0"/></linearGradient><linearGradient id="c" x1="158.765" y1="25.032" x2="158.765" y2="441.417" gradientUnits="userSpaceOnUse"><stop stop-color="#fff"/><stop offset="1" stop-color="#fff" stop-opacity="0"/></linearGradient><filter id="a" x="8" y="7.5" width="285.227" height="470.528" filterUnits="userSpaceOnUse" color-interpolation-filters="sRGB"><feFlood flood-opacity="0" result="BackgroundImageFix"/><feColorMatrix in="SourceAlpha" values="0 0 0 0 0 0 0 0 0 0 0 0 0 0 0 0 0 0 127 0" result="hardAlpha"/><feOffset dx="-9" dy="8"/><feGaussianBlur stdDeviation="7.5"/><feColorMatrix values="0 0 0 0 0.341176 0 0 0 0 0.227451 0 0 0 0 0.32549 0 0 0 0.2 0"/><feBlend in2="BackgroundImageFix" result="effect1_dropShadow_1208_2"/><feBlend in="SourceGraphic" in2="effect1_dropShadow_1208_2" result="shape"/></filter></defs></svg>