<svg width="90" height="91" viewBox="0 0 90 91" fill="none" xmlns="http://www.w3.org/2000/svg">
<path d="M45 90.9181C69.8528 90.9181 90 70.5654 90 45.459C90 20.3527 69.8528 0 45 0C20.1472 0 0 20.3527 0 45.459C0 70.5654 20.1472 90.9181 45 90.9181Z" fill="#6C18CD"/>
<path d="M44.9996 85.9043C67.1112 85.9043 85.0362 67.7964 85.0362 45.4592C85.0362 23.122 67.1112 5.01416 44.9996 5.01416C22.8879 5.01416 4.96289 23.122 4.96289 45.4592C4.96289 67.7964 22.8879 85.9043 44.9996 85.9043Z" fill="white"/>
<path d="M2.7168 45.002H87.2831V59.442C87.2831 60.6925 86.2782 61.7076 85.0404 61.7076H5.21937C3.83818 61.7076 2.7168 60.5748 2.7168 59.1795V45.002Z" fill="#6C18CD"/>
<path d="M25.8985 50.8608H26.5197L24.1052 60.6354H23.502L25.8985 50.8608Z" fill="white"/>
<path d="M29.8255 52.7432C31.5397 52.7432 31.9518 54.1309 31.9518 55.9425C31.9518 57.7541 31.5412 59.1856 29.8255 59.1856C28.1098 59.1856 27.6992 57.7888 27.6992 55.9425C27.6992 54.0962 28.1009 52.7432 29.8255 52.7432ZM29.8255 53.2998C28.4951 53.2998 28.304 54.511 28.304 55.9425C28.304 57.374 28.4966 58.6199 29.8255 58.6199C31.1544 58.6199 31.3471 57.4268 31.3471 55.9425C31.3471 54.4582 31.1544 53.2998 29.8255 53.2998Z" fill="white"/>
<path d="M35.2915 52.7164C36.4995 52.7164 37.146 53.4328 37.146 54.3334C37.146 55.0499 36.7264 55.6683 35.9037 55.7996V55.8433C36.6996 56.0017 37.2595 56.5507 37.2595 57.4875C37.2595 58.4242 36.6204 59.2101 35.3005 59.2101C34.1193 59.2101 33.2533 58.5645 33.1309 57.3623H33.7251C33.8297 58.1135 34.3732 58.6882 35.3005 58.6882C36.2277 58.6882 36.6742 58.1316 36.6742 57.4332C36.6742 56.4964 35.9739 56.0907 34.7584 56.0907H34.5658V55.5688H34.7674C35.9649 55.5688 36.5517 55.1705 36.5517 54.3937C36.5517 53.7225 36.1053 53.2533 35.2751 53.2533C34.4956 53.2533 33.9282 53.6772 33.8312 54.4465H33.2369C33.325 53.368 34.1208 52.7148 35.293 52.7148L35.2915 52.7164Z" fill="white"/>
<path d="M46.9716 57.8975H44.2391L43.824 59.1676H41.5723L44.3824 51.3811H46.8536L49.6519 59.1676H47.3897L46.9746 57.8975H46.9716ZM46.9492 49.4594V50.9286L44.2167 49.8456V48.2104L46.9492 49.4579V49.4594ZM46.4356 56.2397L45.6053 53.7222L44.7856 56.2397H46.437H46.4356Z" fill="white"/>
<path d="M72.0137 50.8608H72.6349L70.2204 60.6354H69.6172L72.0137 50.8608Z" fill="white"/>
<path d="M75.9407 52.7432C77.6549 52.7432 78.067 54.1309 78.067 55.9425C78.067 57.7541 77.6564 59.1856 75.9407 59.1856C74.2251 59.1856 73.8145 57.7888 73.8145 55.9425C73.8145 54.0962 74.2161 52.7432 75.9407 52.7432ZM75.9407 53.2998C74.6103 53.2998 74.4192 54.511 74.4192 55.9425C74.4192 57.374 74.6118 58.6199 75.9407 58.6199C77.2697 58.6199 77.4623 57.4268 77.4623 55.9425C77.4623 54.4582 77.2697 53.2998 75.9407 53.2998Z" fill="white"/>
<path d="M81.4067 52.7164C82.6147 52.7164 83.2613 53.4328 83.2613 54.3334C83.2613 55.0499 82.8417 55.6683 82.0189 55.7996V55.8433C82.8148 56.0017 83.3747 56.5507 83.3747 57.4875C83.3747 58.4242 82.7357 59.2101 81.4157 59.2101C80.2346 59.2101 79.3685 58.5645 79.2461 57.3623H79.8404C79.9449 58.1135 80.4884 58.6882 81.4157 58.6882C82.343 58.6882 82.7894 58.1316 82.7894 57.4332C82.7894 56.4964 82.0891 56.0907 80.8737 56.0907H80.681V55.5688H80.8826C82.0802 55.5688 82.667 55.1705 82.667 54.3937C82.667 53.7225 82.2205 53.2533 81.3903 53.2533C80.6109 53.2533 80.0435 53.6772 79.9464 54.4465H79.3521C79.4402 53.368 80.2361 52.7148 81.4082 52.7148L81.4067 52.7164Z" fill="white"/>
<path d="M51.4265 43.5916C51.4265 43.3578 51.4206 43.1255 51.4265 42.8932C51.425 42.4512 51.7774 42.0907 52.2149 42.0892C52.6524 42.0877 53.0093 42.4437 53.0108 42.8856C53.0197 43.1179 53.0108 43.3502 53.0108 43.584C55.4118 43.3487 57.4888 41.1284 57.6815 38.8552C57.45 38.8552 57.2201 38.8687 56.9916 38.8522C56.5556 38.8748 56.1838 38.5354 56.1614 38.0934C56.139 37.653 56.475 37.2774 56.9125 37.2547C56.9453 37.2532 56.9767 37.2547 57.0095 37.2547C57.2365 37.2442 57.4635 37.2532 57.6949 37.2532C57.4097 34.6814 55.1311 32.6903 53.0108 32.5274C53.0108 32.7506 53.0168 32.9724 53.0108 33.1926C53.0287 33.6345 52.6883 34.0086 52.2493 34.0267C51.8118 34.0448 51.4415 33.7009 51.4235 33.2575C51.4235 33.2378 51.4235 33.2197 51.4235 33.2001C51.4161 32.9709 51.4235 32.7416 51.4235 32.5093C48.7433 32.8381 46.8902 35.238 46.7559 37.2502C46.9664 37.2502 47.1754 37.2442 47.383 37.2502C47.8205 37.2155 48.2027 37.5444 48.2386 37.9863C48.2386 38.0014 48.2401 38.0165 48.2416 38.0316C48.2475 38.4796 47.8937 38.8476 47.4502 38.8537C47.4278 38.8537 47.4069 38.8537 47.3845 38.8522C47.1695 38.8612 46.953 38.8522 46.7305 38.8522C47.0112 41.2475 49.1718 43.4196 51.4235 43.584" fill="#6C18CD"/>
<path d="M58.1423 15.8306C57.1374 15.8276 56.1324 15.8216 55.129 15.8351C54.923 15.8713 54.7274 15.7326 54.6915 15.5244C54.6915 15.5229 54.6915 15.5199 54.6915 15.5184C54.2585 14.1744 53.0505 13.2392 51.6544 13.1653C50.2553 13.0355 48.9308 13.8244 48.3679 15.1247C48.1126 15.7733 47.7721 15.8894 47.1853 15.8442C46.9673 15.8623 46.7717 15.7115 46.7329 15.4942C46.2939 14.1653 45.0963 13.2422 43.7107 13.1653C42.3086 13.0793 40.9498 13.7912 40.4406 15.0915C40.1599 15.8095 39.7582 15.8985 39.143 15.8382C38.9653 15.8201 38.8802 15.7823 38.819 15.5953C38.2561 13.7656 36.3314 12.7429 34.5201 13.3116C33.4391 13.651 32.5924 14.5077 32.258 15.6013C32.2311 15.7567 32.0848 15.8623 31.931 15.8351C31.931 15.8351 31.931 15.8351 31.9295 15.8351C31.6099 15.8216 31.2889 15.8306 30.9693 15.8321C30.3258 15.8351 30.1018 16.0146 29.951 16.6421C28.9207 20.9275 27.8919 25.2129 26.8616 29.4999C26.4958 31.0264 26.1329 32.5544 25.7731 34.0809C25.6432 34.4942 25.8686 34.9362 26.2763 35.0674C26.3539 35.0915 26.4331 35.1051 26.5137 35.1051C26.7108 35.1217 26.9109 35.1127 27.1095 35.1127H29.9674V35.526C29.9674 36.3299 29.9629 37.1324 29.9674 37.9349C29.9137 38.3889 30.2332 38.8022 30.6827 38.8565C30.7424 38.8641 30.8021 38.8641 30.8603 38.858C30.9708 38.8626 31.0813 38.858 31.1918 38.858C35.6176 38.858 40.0434 38.8565 44.4722 38.8535C44.735 38.8535 44.8395 38.9063 44.8903 39.1989C45.5159 43.1374 49.1832 45.8179 53.0819 45.1858C56.5266 44.6277 59.0695 41.6381 59.0979 38.1144C59.1098 31.0188 59.1158 23.9233 59.1128 16.8292C59.1128 16.1067 58.8456 15.8321 58.1408 15.8306M51.4468 14.7687C52.1516 14.7612 52.7967 15.1654 53.1028 15.8065H49.7775C50.0851 15.1609 50.7361 14.7551 51.4453 14.7687M43.3807 14.7732C44.1213 14.7204 44.8216 15.1247 45.1516 15.7974H41.8337C42.1204 15.1926 42.7162 14.7974 43.3792 14.7717M35.5086 14.7702C36.2253 14.7446 36.8868 15.1518 37.1944 15.8065H33.8781C34.1782 15.1729 34.8128 14.7687 35.5086 14.7702ZM30.7424 20.1492C30.9395 19.3271 31.1426 18.505 31.3307 17.6799C31.3695 17.508 31.4337 17.4401 31.6114 17.4341C32.143 17.4175 32.1415 17.4084 32.3341 17.9062C32.8373 19.1974 34.0528 20.0617 35.425 20.1055C35.858 20.1643 36.2567 19.8566 36.3149 19.4191C36.3149 19.4131 36.3149 19.4086 36.3164 19.4025C36.3777 18.9772 36.085 18.5835 35.6654 18.5216C35.6251 18.5156 35.5848 18.5126 35.5445 18.5141C35.0084 18.496 34.5037 18.2607 34.1439 17.8594C34.0543 17.7554 33.9856 17.6302 33.8721 17.4642C34.0378 17.4522 34.1409 17.4386 34.2439 17.4386C36.0984 17.4386 37.953 17.4416 39.8075 17.4341C40.0046 17.3979 40.1912 17.5306 40.2271 17.7297C40.6616 19.0843 41.88 20.0285 43.2881 20.0994C43.8525 20.1341 44.2258 19.8611 44.2646 19.389C44.305 18.8957 44.0093 18.5578 43.4449 18.508C42.8969 18.4839 42.3862 18.226 42.0383 17.7976C41.9607 17.6875 41.889 17.5743 41.8233 17.4567C41.9935 17.4476 42.098 17.4386 42.2055 17.4386C44.0496 17.4386 45.8937 17.4431 47.7363 17.4326C47.9423 17.3979 48.1394 17.5351 48.1798 17.7418C48.5919 19.0586 49.7581 19.9878 51.1228 20.0874C51.7768 20.1628 52.1651 19.9018 52.2158 19.4071C52.2711 18.8776 51.953 18.5563 51.2841 18.4915C50.7361 18.4477 50.2359 18.1596 49.9193 17.7071C49.873 17.6302 49.8312 17.5502 49.7939 17.4688H54.6482C54.5123 18.0435 54.3809 18.6121 54.2466 19.1793C54.1181 19.7208 53.9748 20.2593 53.8628 20.8039C53.8046 21.0859 53.7 21.2503 53.388 21.1885C53.3551 21.1855 53.3223 21.1855 53.2894 21.1885H30.496C30.5856 20.8129 30.6632 20.4811 30.7424 20.1507M44.7828 37.235H31.5726V35.1368H45.3397L44.7828 37.235ZM51.5349 30.5014C51.5155 30.7217 51.3289 30.8891 51.1094 30.8816C49.3474 31.0852 47.7228 31.945 46.5567 33.295C46.4387 33.4157 46.2804 33.4881 46.1132 33.4971C40.0315 33.5077 33.9497 33.5092 27.8695 33.5047C27.7814 33.5047 27.6948 33.4972 27.5634 33.4911C27.5813 33.3855 27.5903 33.292 27.6112 33.2015C28.416 29.8347 29.2193 26.4679 30.0227 23.1012C30.0361 22.9126 30.1974 22.7708 30.384 22.7844C30.396 22.7844 30.4094 22.7874 30.4214 22.7889C37.9485 22.795 45.4756 22.798 53.0027 22.795C53.1102 22.795 53.2178 22.8055 53.3656 22.8131C53.2163 23.4496 53.0759 24.0545 52.9311 24.6563C52.4637 26.6037 51.9933 28.5511 51.5349 30.5014ZM57.5017 33.5168C57.1418 33.1427 56.8238 32.8289 56.5311 32.4941C56.4744 32.39 56.4505 32.2693 56.4654 32.1501C56.4609 30.5769 56.4654 29.0051 56.4609 27.4318C56.5117 26.9974 56.2041 26.6037 55.7741 26.5524C55.7323 26.5479 55.689 26.5464 55.6472 26.5479C55.2067 26.56 54.8588 26.9295 54.8692 27.376C54.8692 27.4016 54.8722 27.4273 54.8752 27.4514C54.8692 28.6446 54.8737 29.8377 54.8737 31.0309V31.4065L53.0759 30.8755C53.5015 29.0926 53.9285 27.3081 54.357 25.5252C54.9693 22.9714 55.5874 20.4177 56.1877 17.8624C56.2653 17.5351 56.3833 17.3843 56.7327 17.4341C56.9895 17.4537 57.2464 17.4552 57.5032 17.4401V33.5168H57.5017Z" fill="#6C18CD"/>
<path d="M33.4484 24.1343C33.7904 24.1343 34.1308 24.1237 34.4713 24.1373C34.8968 24.1222 35.2537 24.4571 35.2686 24.887C35.2686 24.8915 35.2686 24.896 35.2686 24.899C35.3015 25.3199 34.9909 25.688 34.5743 25.7226C34.5504 25.7242 34.5265 25.7257 34.5026 25.7257C33.7769 25.7498 33.0498 25.7483 32.3256 25.7226C31.8985 25.7136 31.5596 25.3561 31.5685 24.9262C31.5685 24.9232 31.5685 24.9202 31.5685 24.9171C31.5775 24.4827 31.9299 24.1373 32.3599 24.1403C32.7228 24.1237 33.0856 24.1373 33.4484 24.1373" fill="#6C18CD"/>
<path d="M38.755 24.1347C39.097 24.1347 39.4374 24.1226 39.7779 24.1377C40.2019 24.1256 40.5558 24.462 40.5692 24.8904C40.5692 24.8949 40.5692 24.901 40.5692 24.9055C40.5991 25.3263 40.287 25.6929 39.8704 25.7231C39.8465 25.7246 39.8227 25.7261 39.7988 25.7246C39.085 25.7472 38.3698 25.7472 37.6546 25.7246C37.223 25.7261 36.8706 25.3746 36.8691 24.9387C36.8691 24.9281 36.8691 24.9176 36.8691 24.9085C36.8856 24.465 37.2544 24.1181 37.6934 24.1347C37.6949 24.1347 37.6979 24.1347 37.6993 24.1347C38.0502 24.1226 38.4041 24.1317 38.755 24.1317" fill="#6C18CD"/>
<path d="M44.0325 24.1343C44.3744 24.1343 44.7149 24.1237 45.0553 24.1373C45.4824 24.1162 45.8467 24.448 45.8676 24.8809C45.8676 24.893 45.8676 24.9066 45.8676 24.9202C45.89 25.344 45.5675 25.706 45.1464 25.7287C45.1255 25.7287 45.1046 25.7287 45.0837 25.7287C44.3804 25.7513 43.6756 25.7498 42.9723 25.7302C42.5363 25.7407 42.1765 25.3923 42.166 24.9518C42.166 24.9443 42.166 24.9383 42.166 24.9307C42.175 24.4812 42.5423 24.1237 42.9873 24.1328C42.9947 24.1328 43.0022 24.1328 43.0097 24.1328H44.034L44.0325 24.1343Z" fill="#6C18CD"/>
<path d="M49.2959 25.7364C48.966 25.7364 48.636 25.7485 48.306 25.7334C47.861 25.7515 47.4862 25.403 47.4668 24.9535C47.4668 24.946 47.4668 24.9384 47.4668 24.9309C47.4698 24.4874 47.8296 24.1314 48.2671 24.136C48.2806 24.136 48.2955 24.136 48.3089 24.1375C48.9913 24.1254 49.6737 24.1254 50.3546 24.1375C50.7891 24.1194 51.1564 24.4603 51.1744 24.8992C51.1923 25.3382 50.8548 25.7092 50.4203 25.7273C50.4084 25.7273 50.3949 25.7273 50.383 25.7273C50.0216 25.7485 49.6573 25.7319 49.2944 25.7319V25.7349" fill="#6C18CD"/>
<path d="M32.3709 27.349C32.7113 27.349 33.0532 27.3399 33.3937 27.352C33.8207 27.3294 34.1851 27.6612 34.2075 28.0941C34.2075 28.1062 34.2075 28.1198 34.2075 28.1318C34.2314 28.5557 33.9088 28.9192 33.4893 28.9418C33.4683 28.9418 33.4474 28.9418 33.425 28.9418C32.7098 28.963 31.9961 28.963 31.2808 28.9403C30.8508 28.9388 30.5029 28.5843 30.5059 28.1499C30.5059 28.1499 30.5059 28.1499 30.5059 28.1484C30.5104 27.7019 30.8732 27.3444 31.3137 27.349C31.3361 27.349 31.357 27.3474 31.3794 27.3474H32.3694V27.3505L32.3709 27.349Z" fill="#6C18CD"/>
<path d="M37.6653 27.3474C38.0058 27.3474 38.3477 27.3383 38.6882 27.3489C39.1152 27.3232 39.4825 27.6521 39.5079 28.0835C39.5079 28.097 39.5079 28.1091 39.5079 28.1227C39.5378 28.5435 39.2227 28.9086 38.8061 28.9387C38.7822 28.9403 38.7583 28.9402 38.7329 28.9402C38.0192 28.9629 37.304 28.9629 36.5887 28.9402C36.1542 28.9433 35.8003 28.5888 35.7988 28.1513C35.7959 27.7124 36.1468 27.3549 36.5798 27.3534C36.5887 27.3534 36.5977 27.3534 36.6067 27.3534C36.9576 27.3383 37.3114 27.3504 37.6623 27.3504" fill="#6C18CD"/>
<path d="M42.9875 27.3486C43.3294 27.3486 43.6698 27.3381 44.0103 27.3517C44.4358 27.3351 44.7927 27.6699 44.8091 28.0998C44.8091 28.1044 44.8091 28.1089 44.8091 28.1119C44.8435 28.5327 44.5329 28.9023 44.1163 28.937C44.0924 28.9385 44.0685 28.94 44.0446 28.94C43.3189 28.9641 42.5918 28.9626 41.8676 28.9385C41.4405 28.931 41.1001 28.575 41.1075 28.1436C41.1075 28.1406 41.1075 28.136 41.1075 28.133C41.1165 27.6986 41.4689 27.3517 41.8989 27.3547C42.2618 27.3381 42.6246 27.3517 42.9875 27.3517" fill="#6C18CD"/>
<path d="M48.2863 27.3486C48.6283 27.3486 48.9687 27.3381 49.3092 27.3517C49.7347 27.3366 50.0916 27.6714 50.1065 28.1013C50.1065 28.1059 50.1065 28.1089 50.1065 28.1134C50.1394 28.5343 49.8288 28.9023 49.4122 28.937C49.3883 28.9385 49.3644 28.94 49.3405 28.94C48.6148 28.9641 47.8877 28.9626 47.1635 28.937C46.7364 28.9279 46.3975 28.5705 46.4064 28.1406C46.4064 28.1375 46.4064 28.1345 46.4064 28.1315C46.4154 27.6971 46.7678 27.3517 47.1978 27.3547C47.5607 27.3381 47.9235 27.3517 48.2863 27.3517" fill="#6C18CD"/>
<path d="M31.851 30.5615C32.1929 30.5615 32.5333 30.551 32.8738 30.5645C33.2994 30.5464 33.6592 30.8798 33.6786 31.3112C33.6786 31.3263 33.6786 31.3399 33.6786 31.355C33.695 31.7803 33.3665 32.1393 32.9455 32.1574C32.9261 32.1574 32.9066 32.1574 32.8872 32.1574C32.1839 32.1785 31.4792 32.1785 30.7759 32.1574C30.3414 32.1635 29.9845 31.8135 29.9785 31.3746C29.9785 31.367 29.9785 31.3595 29.9785 31.3519C29.9905 30.907 30.3563 30.5555 30.7968 30.5645H31.8525" fill="#6C18CD"/>
<path d="M37.132 32.1635C36.79 32.1635 36.4496 32.1771 36.1091 32.1605C35.6716 32.1545 35.3222 31.7925 35.3282 31.352C35.3342 30.91 35.6925 30.5571 36.1285 30.5631C36.799 30.5525 37.4709 30.5525 38.1414 30.5631C38.5684 30.5284 38.9432 30.8497 38.9775 31.2811C38.979 31.3052 38.9805 31.3294 38.9805 31.352C38.9865 31.794 38.6386 32.156 38.2011 32.1635C38.1861 32.1635 38.1697 32.1635 38.1548 32.1635C38.1324 32.1635 38.1115 32.165 38.0891 32.165H37.132V32.1635Z" fill="#6C18CD"/>
<path d="M42.4532 30.5615C42.7952 30.5615 43.1356 30.551 43.4761 30.5645C43.9016 30.548 44.26 30.8828 44.2764 31.3127C44.2764 31.3172 44.2764 31.3203 44.2764 31.3248C44.3107 31.7456 44.0016 32.1152 43.5851 32.1499C43.5612 32.1514 43.5373 32.1529 43.5149 32.1529C42.7892 32.177 42.062 32.1755 41.3378 32.1514C40.9108 32.1454 40.5688 31.7894 40.5763 31.358C40.5763 31.355 40.5763 31.3519 40.5763 31.3474C40.5838 30.913 40.9347 30.5661 41.3647 30.5676C41.7275 30.551 42.0904 30.5645 42.4532 30.5645" fill="#6C18CD"/>
<path d="M52.0733 37.0797C52.6377 36.505 53.1887 35.9273 53.7591 35.3707C54.0562 35.0479 54.5579 35.0298 54.8774 35.33C54.9865 35.4326 55.0656 35.5653 55.1029 35.7116C55.185 35.9741 55.1134 36.2622 54.9193 36.4553C54.2085 37.1883 53.4903 37.9139 52.7661 38.6334C52.5242 38.8838 52.1449 38.9351 51.8463 38.7601C51.1535 38.4177 50.4606 38.0723 49.7767 37.7133C49.3825 37.5232 49.2153 37.0466 49.4034 36.6483C49.5916 36.2501 50.0634 36.0812 50.4576 36.2712C50.4666 36.2758 50.4756 36.2803 50.4845 36.2848C51.0116 36.5367 51.5297 36.8067 52.0747 37.0813" fill="#6C18CD"/>
<path d="M51.8956 44.3983C48.4269 44.3983 45.6152 41.5564 45.6152 38.0524C45.6152 34.5483 48.4284 31.708 51.897 31.708C55.3657 31.708 58.1774 34.5499 58.1774 38.0539C58.1774 41.5579 55.3657 44.3998 51.8956 44.3998M48.9883 38.0464C48.7225 38.0433 48.5045 38.259 48.5016 38.5275C48.5016 38.6543 48.5478 38.7764 48.6359 38.8684L50.3755 40.8218C50.4203 40.8731 50.4755 40.9139 50.5383 40.941C50.601 40.9682 50.6682 40.9832 50.7354 40.9832H50.7428C50.8115 40.9832 50.8802 40.9651 50.9429 40.935C51.0056 40.9048 51.0609 40.8626 51.1057 40.8083L55.1641 35.927C55.3329 35.7204 55.3045 35.4127 55.0999 35.2422C55.0133 35.1698 54.9028 35.1306 54.7908 35.1306C54.7774 35.1306 54.764 35.1306 54.752 35.1306C54.6251 35.1412 54.5086 35.2 54.425 35.298L50.7234 39.7494L49.3557 38.2138C49.2705 38.1142 49.1496 38.0524 49.0197 38.0449H48.9883" fill="white"/>
<path d="M24.094 70.0536C24.094 72.2574 22.7173 73.5878 20.3745 73.5878H18.293V66.4893H20.3745C22.7173 66.4893 24.094 67.8302 24.094 70.0536ZM20.3745 72.9981C22.3649 72.9981 23.3802 71.8803 23.3802 70.0536C23.3802 68.227 22.3649 67.0775 20.3745 67.0775H18.9978V72.9981H20.3745Z" fill="#6C18CD"/>
<path d="M29.2605 67.0669H26.2951V69.7172H28.9589V70.3054H26.2951V72.9965H29.2605V73.5847H25.5918V66.4756H29.2605V67.0639V67.0669Z" fill="#6C18CD"/>
<path d="M41.0095 66.3989V73.588H38.7877V70.004L37.6917 73.588H35.7819L34.6859 70.004V73.588H32.4551V66.3989H35.1891L36.7569 70.7145L38.2845 66.3989H41.008H41.0095Z" fill="#6C18CD"/>
<path d="M46.7778 72.5H44.4066L44.0542 73.5861H41.7129L44.3155 66.397H46.8883L49.4819 73.5861H47.1302L46.7778 72.5ZM46.2357 70.8046L45.5922 68.8044L44.9486 70.8046H46.2357Z" fill="#6C18CD"/>
<path d="M53.7652 73.5861L52.4288 71.0067H52.4183V73.5861H50.1875V66.397H53.5039C54.0802 66.397 54.573 66.4996 54.9806 66.7062C55.3897 66.9129 55.6958 67.1934 55.9004 67.5494C56.105 67.9054 56.2065 68.3051 56.2065 68.7531C56.2065 69.2343 56.0736 69.6597 55.8093 70.0323C55.545 70.4048 55.1643 70.6718 54.6685 70.8347L56.217 73.5861H53.7652ZM52.4183 69.5043H53.3023C53.5173 69.5043 53.6771 69.456 53.7846 69.3565C53.8921 69.2584 53.9458 69.1046 53.9458 68.8949C53.9458 68.7048 53.8906 68.557 53.7801 68.4484C53.6696 68.3398 53.5098 68.2855 53.3023 68.2855H52.4183V69.5043Z" fill="#6C18CD"/>
<path d="M61.0769 71.3582C61.274 71.2255 61.4263 71.0414 61.5339 70.8046H63.8856C63.7587 71.5558 63.4496 72.1788 62.9613 72.6735C62.4731 73.1683 61.8519 73.473 61.1023 73.5876H61.1531V73.9331C61.3412 73.9331 61.5353 73.9723 61.7354 74.0492C61.937 74.1276 62.1072 74.2589 62.2476 74.4459C62.388 74.6315 62.4581 74.8743 62.4581 75.1715C62.4581 75.6119 62.3073 75.9272 62.0057 76.1203C61.7041 76.3133 61.3517 76.4099 60.95 76.4099H59.2105V75.262H60.7186C60.7992 75.262 60.8619 75.2469 60.9097 75.2167C60.956 75.1865 60.9799 75.1473 60.9799 75.1006C60.9799 74.9995 60.8933 74.9482 60.7186 74.9482H59.8645V73.5982C59.2612 73.5167 58.7371 73.3131 58.2922 72.9888C57.8472 72.6645 57.5067 72.2436 57.2723 71.7293C57.0379 71.2149 56.9199 70.6326 56.9199 69.9825C56.9199 69.2721 57.0618 68.6385 57.347 68.0834C57.6322 67.5283 58.0383 67.0969 58.5684 66.7892C59.097 66.4815 59.7211 66.3276 60.4379 66.3276C61.0545 66.3276 61.6055 66.4438 62.0908 66.6776C62.5761 66.9114 62.9718 67.2417 63.2764 67.6671C63.581 68.0925 63.7841 68.5918 63.8841 69.1589H61.5324C61.4248 68.9221 61.2725 68.7381 61.0754 68.6053C60.8783 68.4726 60.6514 68.4077 60.3975 68.4077C60.0227 68.4077 59.7256 68.5495 59.5076 68.8346C59.2896 69.1182 59.1806 69.5013 59.1806 69.9825C59.1806 70.4637 59.2896 70.8453 59.5076 71.1304C59.7256 71.414 60.0213 71.5573 60.3975 71.5573C60.6529 71.5573 60.8783 71.4909 61.0754 71.3597L61.0769 71.3582Z" fill="#6C18CD"/>
<path d="M66.5141 73.1804C65.9542 72.8621 65.5107 72.4232 65.1822 71.8606C64.8537 71.2994 64.6895 70.6659 64.6895 69.9615C64.6895 69.257 64.8537 68.625 65.1822 68.0624C65.5107 67.4997 65.9542 67.0623 66.5141 66.747C67.0741 66.4318 67.6878 66.2749 68.3582 66.2749C69.0286 66.2749 69.6408 66.4318 70.1978 66.747C70.7533 67.0623 71.1937 67.4997 71.5193 68.0624C71.8448 68.6235 72.006 69.257 72.006 69.9615C72.006 70.6659 71.8433 71.2979 71.5193 71.8606C71.1937 72.4232 70.7518 72.8621 70.1918 73.1804C69.6319 73.4987 69.0212 73.6571 68.3582 73.6571C67.6952 73.6571 67.0726 73.4987 66.5141 73.1804ZM69.384 71.1245C69.6244 70.8363 69.7454 70.4487 69.7454 69.9615C69.7454 69.4742 69.6244 69.076 69.384 68.7894C69.1436 68.5013 68.8017 68.358 68.3582 68.358C67.9147 68.358 67.5638 68.5013 67.3234 68.7894C67.083 69.0775 66.9621 69.4682 66.9621 69.9615C66.9621 70.4547 67.083 70.8363 67.3234 71.1245C67.5638 71.4126 67.9102 71.5559 68.3582 71.5559C68.8061 71.5559 69.1421 71.4126 69.384 71.1245Z" fill="#6C18CD"/>
<path d="M83.6088 43.5221C83.6088 43.5221 83.5446 43.142 83.4281 42.4602C83.3998 42.2897 83.3699 42.0997 83.3356 41.893C83.2937 41.6864 83.249 41.4631 83.1997 41.2218C83.0981 40.7421 83.0056 40.1931 82.8503 39.5972C82.7786 39.2986 82.7039 38.9848 82.6263 38.659C82.5487 38.3332 82.4441 37.9998 82.3501 37.6529C82.1709 36.9545 81.9245 36.2259 81.6841 35.4551C81.1645 33.9256 80.5314 32.2694 79.7683 30.5739C78.9904 28.886 78.1557 27.3233 77.3419 25.9295C76.9179 25.2432 76.5311 24.581 76.122 23.9897C75.9219 23.6925 75.7383 23.3954 75.5441 23.1238C75.35 22.8523 75.1634 22.5914 74.9842 22.3425C74.6378 21.8357 74.2839 21.4073 73.9897 21.0181C73.8404 20.825 73.7016 20.644 73.5731 20.4781C73.4388 20.3182 73.3163 20.1704 73.2058 20.0376C72.7683 19.5052 72.5234 19.208 72.5234 19.208C72.5234 19.208 72.8101 19.4614 73.3268 19.9185C73.4552 20.0346 73.5985 20.1628 73.7553 20.3031C73.9091 20.4479 74.0689 20.6108 74.2436 20.7843C74.5885 21.1342 74.9976 21.5219 75.4023 21.994C75.6098 22.2263 75.8249 22.4707 76.0503 22.7241C76.2743 22.9805 76.4878 23.2611 76.7178 23.5462C77.1866 24.1103 77.6331 24.7544 78.1094 25.4302C79.0292 26.8014 79.949 28.3777 80.7509 30.1153C81.5378 31.8591 82.1246 33.5907 82.5576 35.1881C82.7547 35.9936 82.9488 36.7539 83.0698 37.4809C83.134 37.8429 83.2071 38.1899 83.2549 38.5278C83.2997 38.8657 83.3415 39.19 83.3818 39.5007C83.4729 40.1176 83.4983 40.6833 83.5386 41.1765C83.5551 41.4239 83.5745 41.6517 83.5834 41.8644C83.5879 42.0756 83.5909 42.2701 83.5939 42.4436C83.6014 43.136 83.6058 43.5221 83.6058 43.5221H83.6088Z" fill="#6C18CD"/>
<path d="M11.3223 28.3369C11.3223 28.3369 11.2058 28.5346 10.9968 28.886C10.8893 29.0595 10.7609 29.2737 10.625 29.5301C10.4861 29.785 10.3174 30.0656 10.1591 30.3914C9.99187 30.7127 9.81119 31.0642 9.63649 31.4518C9.44835 31.8304 9.27962 32.2513 9.08849 32.6857C8.73162 33.5651 8.37475 34.5411 8.05372 35.5849C7.74313 36.6302 7.49975 37.6424 7.31011 38.573C7.22799 39.0407 7.13541 39.4841 7.08315 39.905C7.01297 40.3243 6.96967 40.718 6.93084 41.0785C6.88157 41.439 6.86664 41.7679 6.84125 42.056C6.81288 42.3456 6.80094 42.596 6.79496 42.7996C6.77406 43.2084 6.76062 43.4392 6.76062 43.4392C6.76062 43.4392 6.71881 43.2129 6.64415 42.8087C6.60533 42.605 6.56501 42.3546 6.53664 42.062C6.50678 41.7694 6.46049 41.436 6.45004 41.0649C6.42913 40.6939 6.41271 40.2866 6.42764 39.8477C6.42615 39.4087 6.46646 38.9426 6.50827 38.4494C6.61429 37.4689 6.8084 36.3934 7.13392 35.2983C7.46839 34.2062 7.90141 33.2046 8.35534 32.3312C8.59425 31.8998 8.81673 31.4895 9.06161 31.126C9.29156 30.7549 9.53047 30.4261 9.75146 30.1289C9.96499 29.8273 10.1875 29.5754 10.3741 29.3506C10.5593 29.1243 10.731 28.9388 10.8758 28.7925C11.1595 28.4999 11.3208 28.3354 11.3208 28.3354L11.3223 28.3369Z" fill="#6C18CD"/>
<path d="M51.5607 83.9102C51.5607 83.9102 50.7903 84.0851 49.533 84.3084C48.2772 84.5301 46.5287 84.8001 44.5726 84.874C43.5946 84.9072 42.6599 84.8801 41.8147 84.8137C40.9681 84.7383 40.2111 84.6297 39.5824 84.4969C39.2674 84.4396 38.9867 84.3642 38.7388 84.3023C38.4909 84.2435 38.2819 84.1817 38.1102 84.1274C37.7712 84.0218 37.5801 83.9614 37.5801 83.9614C37.5801 83.9614 37.7787 83.9901 38.1281 84.0414C38.3043 84.07 38.5193 84.1017 38.7701 84.1274C39.021 84.1545 39.3047 84.1952 39.6213 84.2164C40.2514 84.2782 41.0039 84.3144 41.8371 84.3355C42.6718 84.3476 43.5886 84.3401 44.5517 84.3069C46.4779 84.2345 48.2265 84.1062 49.4987 84.0263C50.7693 83.9433 51.5592 83.9102 51.5592 83.9102H51.5607Z" fill="#6C18CD"/>
<path d="M28.8954 81.2821C28.8954 81.2821 28.5789 81.2112 28.0802 81.0438C27.5829 80.8778 26.905 80.6033 26.2062 80.2036C25.5074 79.8039 24.9266 79.3589 24.5294 79.0134C24.1307 78.668 23.9082 78.4297 23.9082 78.4297C23.9082 78.4297 24.1695 78.6243 24.5995 78.9199C25.0296 79.2171 25.6328 79.6062 26.3212 79.9999C27.0095 80.3921 27.6501 80.7149 28.1235 80.9336C28.5968 81.1539 28.8954 81.2806 28.8954 81.2806V81.2821Z" fill="#6C18CD"/>
<path d="M10.8193 59H7.49072V52.9985C7.49072 52.8879 7.49072 52.6859 7.49072 52.3926C7.49072 52.0938 7.49349 51.7645 7.49902 51.4048C7.51009 51.0451 7.52393 50.7214 7.54053 50.4336C7.39665 50.6051 7.26107 50.7518 7.13379 50.8735C7.01204 50.9953 6.89307 51.1087 6.77686 51.2139L5.39893 52.3511L3.69727 50.2593L7.86426 46.8643H10.8193V59Z" fill="white"/>
<path d="M19.5903 59H16.2617V52.9985C16.2617 52.8879 16.2617 52.6859 16.2617 52.3926C16.2617 52.0938 16.2644 51.7645 16.27 51.4048C16.281 51.0451 16.2949 50.7214 16.3115 50.4336C16.1676 50.6051 16.032 50.7518 15.9047 50.8735C15.783 50.9953 15.664 51.1087 15.5478 51.2139L14.1699 52.3511L12.4682 50.2593L16.6352 46.8643H19.5903V59Z" fill="white"/>
<path d="M58.8193 59H55.4907V52.9985C55.4907 52.8879 55.4907 52.6859 55.4907 52.3926C55.4907 52.0938 55.4935 51.7645 55.499 51.4048C55.5101 51.0451 55.5239 50.7214 55.5405 50.4336C55.3966 50.6051 55.2611 50.7518 55.1338 50.8735C55.012 50.9953 54.8931 51.1087 54.7769 51.2139L53.3989 52.3511L51.6973 50.2593L55.8643 46.8643H58.8193V59Z" fill="white"/>
<path d="M60.352 53.8701C60.352 53.1729 60.4018 52.4811 60.5014 51.7949C60.601 51.1032 60.7809 50.453 61.041 49.8442C61.301 49.23 61.669 48.6877 62.145 48.2173C62.6209 47.7414 63.2324 47.3678 63.9794 47.0967C64.7265 46.8255 65.6368 46.6899 66.7104 46.6899C66.9483 46.6899 67.2389 46.7038 67.582 46.7314C67.9251 46.7591 68.2101 46.7923 68.437 46.8311V49.396C68.2101 49.3517 67.9555 49.3158 67.6733 49.2881C67.3911 49.2549 67.0452 49.2383 66.6357 49.2383C65.8167 49.2383 65.1692 49.3628 64.6933 49.6118C64.2229 49.8553 63.8826 50.2067 63.6723 50.666C63.462 51.1253 63.3403 51.6759 63.3071 52.3179H63.4067C63.5506 52.0522 63.7249 51.8143 63.9296 51.604C64.1399 51.3882 64.3972 51.2194 64.7016 51.0977C65.006 50.9704 65.374 50.9067 65.8056 50.9067C66.5139 50.9067 67.1227 51.0617 67.6318 51.3716C68.1409 51.6759 68.531 52.1214 68.8022 52.708C69.0733 53.2946 69.2089 54.0085 69.2089 54.8496C69.2089 55.7572 69.0346 56.5347 68.686 57.1821C68.3429 57.8241 67.8504 58.3166 67.2084 58.6597C66.572 58.9972 65.8111 59.166 64.9257 59.166C64.2727 59.166 63.6668 59.0609 63.1078 58.8506C62.5545 58.6403 62.0703 58.3193 61.6552 57.8877C61.2457 57.4505 60.9247 56.8999 60.6923 56.2358C60.4654 55.5662 60.352 54.7777 60.352 53.8701ZM64.851 56.5679C65.1996 56.5679 65.4819 56.4351 65.6977 56.1694C65.919 55.9038 66.0297 55.486 66.0297 54.916C66.0297 54.4567 65.9384 54.097 65.7558 53.8369C65.5787 53.5713 65.2882 53.4385 64.8842 53.4385C64.6131 53.4385 64.3834 53.5049 64.1953 53.6377C64.0071 53.765 63.8632 53.9282 63.7636 54.1274C63.664 54.3267 63.6142 54.5342 63.6142 54.75C63.6142 54.9658 63.6363 55.1816 63.6806 55.3975C63.7304 55.6133 63.8051 55.8097 63.9047 55.9868C64.0099 56.1584 64.1399 56.2995 64.2949 56.4102C64.4498 56.5153 64.6352 56.5679 64.851 56.5679Z" fill="white"/>
</svg>
