<?xml version="1.0" encoding="UTF-8" standalone="no"?>
<!-- Generator: Adobe Fireworks 10, Export SVG Extension by Aaron Beall (http://fireworks.abeall.com) . Version: 0.6.0  -->

<svg
   xmlns:dc="http://purl.org/dc/elements/1.1/"
   xmlns:cc="http://creativecommons.org/ns#"
   xmlns:rdf="http://www.w3.org/1999/02/22-rdf-syntax-ns#"
   xmlns:svg="http://www.w3.org/2000/svg"
   xmlns="http://www.w3.org/2000/svg"
   xmlns:sodipodi="http://sodipodi.sourceforge.net/DTD/sodipodi-0.dtd"
   xmlns:inkscape="http://www.inkscape.org/namespaces/inkscape"
   id=""
   viewBox="0 0 2040 400"
   style="background-color:#ffffff00"
   version="1.1"
   xml:space="preserve"
   x="0px"
   y="0px"
   width="2040px"
   height="400px"
   sodipodi:docname="5stars.svg"
   inkscape:version="0.92.2 (5c3e80d, 2017-08-06)"><metadata
     id="metadata19"><rdf:RDF><cc:Work
         rdf:about=""><dc:format>image/svg+xml</dc:format><dc:type
           rdf:resource="http://purl.org/dc/dcmitype/StillImage" /></cc:Work></rdf:RDF></metadata><defs
     id="defs17" /><sodipodi:namedview
     pagecolor="#ffffff"
     bordercolor="#666666"
     borderopacity="1"
     objecttolerance="10"
     gridtolerance="10"
     guidetolerance="10"
     inkscape:pageopacity="0"
     inkscape:pageshadow="2"
     inkscape:window-width="1920"
     inkscape:window-height="1017"
     id="namedview15"
     showgrid="false"
     inkscape:zoom="0.13921569"
     inkscape:cx="-147.25352"
     inkscape:cy="-661.97183"
     inkscape:window-x="-8"
     inkscape:window-y="-8"
     inkscape:window-maximized="1"
     inkscape:current-layer="" /><g
     id="Layer%201"
     style="fill:#ff9000;fill-opacity:1"><path
       id="star-full"
       d="M 200 23 L 261.9 145.3 L 400 164.9 L 300 260 L 323.7 394.4 L 200 331 L 76.3 394.4 L 100 260 L 0 164.9 L 138.1 145.3 L 200 23 Z"
       fill="#ffba55"
       style="fill:#ff9000;fill-opacity:1" /><path
       id="star-empty"
       d="M 1429 22.6 L 1367.1 144.9 L 1229 164.5 L 1329 259.6 L 1305.3 394 L 1429 330.6 L 1552.7 394 L 1529 259.6 L 1629 164.5 L 1490.9 144.9 L 1429 22.6 L 1429 22.6 L 1429 22.6 ZM 1429 111.2 L 1455.2 163 L 1464.6 181.6 L 1485.2 184.5 L 1541.4 192.5 L 1501.3 230.6 L 1485.7 245.4 L 1489.4 266.5 L 1499.1 321.7 L 1447.2 295 L 1429 285.6 L 1410.8 295 L 1358.7 321.7 L 1368.4 266.5 L 1372.1 245.4 L 1356.5 230.6 L 1316.4 192.5 L 1372.6 184.5 L 1393.2 181.6 L 1402.6 163 L 1429 111.2 "
       fill="#ffba55"
       style="fill:#ff9000;fill-opacity:1" /><path
       id="star-empty2"
       d="M 1840 22.6 L 1778.1 144.9 L 1640 164.5 L 1740 259.6 L 1716.3 394 L 1840 330.6 L 1963.7 394 L 1940 259.6 L 2040 164.5 L 1901.9 144.9 L 1840 22.6 L 1840 22.6 L 1840 22.6 ZM 1840 111.2 L 1866.2 163 L 1875.6 181.6 L 1896.2 184.5 L 1952.4 192.5 L 1912.3 230.6 L 1896.7 245.4 L 1900.4 266.5 L 1910.1 321.7 L 1858.2 295 L 1840 285.6 L 1821.8 295 L 1769.7 321.7 L 1779.4 266.5 L 1783.1 245.4 L 1767.5 230.6 L 1727.4 192.5 L 1783.6 184.5 L 1804.2 181.6 L 1813.6 163 L 1840 111.2 "
       fill="#ffba55"
       style="fill:#ff9000;fill-opacity:1" /><path
       id="star-empty3"
       d="M 1020 22.6 L 958.1 144.9 L 820 164.5 L 920 259.6 L 896.3 394 L 1020 330.6 L 1143.7 394 L 1120 259.6 L 1220 164.5 L 1081.9 144.9 L 1020 22.6 L 1020 22.6 L 1020 22.6 ZM 1090.1 321.7 "
       fill="#ffba55"
       style="fill:#ff9000;fill-opacity:1" /><path
       id="star-empty4"
       d="M 608 22.6 L 546.1 144.9 L 408 164.5 L 508 259.6 L 484.3 394 L 608 330.6 L 731.7 394 L 708 259.6 L 808 164.5 L 669.9 144.9 L 608 22.6 L 608 22.6 L 608 22.6 ZM 608 111.2 "
       fill="#ffba55"
       style="fill:#ff9000;fill-opacity:1" /><path
       d="M 1424 84 L 1392 158 L 1300 184 L 1354 256 L 1352 342 L 1450 310 L 1514 336 L 1510 246 L 1566 182 L 1482 164 L 1424 84 Z"
       fill="#ffba55"
       id="path7"
       style="fill:#ff9000;fill-opacity:1" /><path
       d="M 1424 84 L 1392 158 L 1300 184 L 1354 256 L 1352 342 L 1450 310 L 1514 336 L 1510 246 L 1566 182 L 1482 164 L 1424 84 Z"
       fill="#ffba55"
       id="path9"
       style="fill:#ff9000;fill-opacity:1" /><path
       d="M 1831 84 L 1799 158 L 1707 184 L 1761 256 L 1759 342 L 1857 310 L 1921 336 L 1917 246 L 1973 182 L 1889 164 L 1831 84 Z"
       fill="#ffba55"
       id="path11"
       style="fill:#ff9000;fill-opacity:1" /></g></svg>