<svg width="30" height="30" viewBox="0 0 30 30" fill="none" xmlns="http://www.w3.org/2000/svg">
<path d="M28.1443 6.34164L30 6.33861L29.9905 0.473393L24.1252 0.463867L24.1222 2.31954L26.8277 2.32393L23.2046 5.94706C21.5725 4.61129 19.5471 3.88486 17.41 3.88486C15.9525 3.88486 14.547 4.22271 13.2828 4.86125C12.0448 4.23713 10.6473 3.88492 9.16887 3.88492C4.11315 3.88492 0 7.99807 0 13.0538C0 17.7964 3.61942 21.7095 8.24109 22.1761V25.1205H5.66988V26.9761H8.24109V29.536H10.0968V26.9762H12.668V25.1205H10.0968V22.1761C11.2323 22.0615 12.3071 21.7384 13.2828 21.2464C14.5471 21.8849 15.9526 22.2228 17.41 22.2228C19.8591 22.2228 22.1616 21.269 23.8934 19.5372C25.6253 17.8055 26.579 15.503 26.579 13.0538C26.579 10.9167 25.8526 8.89127 24.5168 7.25921L28.1399 3.63607L28.1443 6.34164ZM9.16893 20.3671C5.13637 20.3671 1.85567 17.0864 1.85567 13.0538C1.85567 9.02129 5.13637 5.74059 9.16893 5.74059C9.95901 5.74059 10.72 5.86702 11.4333 6.09985C11.2596 6.24966 11.0905 6.40653 10.9266 6.57044C7.35167 10.1454 7.35167 15.9623 10.9266 19.5372C11.0905 19.7012 11.2596 19.858 11.4333 20.0078C10.72 20.2407 9.95901 20.3671 9.16893 20.3671ZM16.4822 13.0538C16.4822 15.5608 15.214 17.7769 13.2857 19.0951C12.9145 18.8406 12.5639 18.5503 12.2388 18.2251C9.38734 15.3736 9.38734 10.7341 12.2388 7.88259C12.5639 7.55741 12.9145 7.26713 13.2857 7.01259C15.214 8.3308 16.4822 10.5469 16.4822 13.0538ZM22.5813 18.2251C21.2 19.6064 19.3635 20.3671 17.41 20.3671C16.6263 20.3671 15.8615 20.2444 15.1373 20.0085C17.0954 18.3257 18.3379 15.8322 18.3379 13.0538C18.3379 10.2754 17.0954 7.78201 15.1372 6.09917C15.8615 5.86331 16.6262 5.74059 17.41 5.74059C19.3635 5.74059 21.2 6.50129 22.5813 7.88259C23.9626 9.26389 24.7233 11.1004 24.7233 13.0538C24.7233 15.0073 23.9626 16.8438 22.5813 18.2251Z" fill="#473CF0"/>
</svg>
