<svg width="57" height="53" viewBox="0 0 57 53" fill="none" xmlns="http://www.w3.org/2000/svg">
<g clip-path="url(#clip0_401_33)">
<path fill-rule="evenodd" clip-rule="evenodd" d="M4.32324 0H52.6768C55.0564 0 57 1.94546 57 4.31708V38.4183C57 40.7853 55.0471 42.7354 52.6768 42.7354H38.8906L31.3899 51.5641C29.7292 53.5234 27.0063 53.4354 25.4478 51.5641L18.1094 42.7354H4.32324C1.95288 42.7354 0 40.7945 0 38.4183V4.31708C0 1.94083 1.9436 0 4.32324 0Z" fill="#FF5664"/>
<path fill-rule="evenodd" clip-rule="evenodd" d="M28.3886 14.0907C30.026 12.3861 31.1718 11.2327 33.6906 10.9455C38.422 10.4035 43.0931 15.2394 40.7042 20.0058C39.8229 21.7614 36.766 24.712 34.3214 27.0234C33.389 27.9035 32.5448 28.6955 31.9464 29.2884L28.3932 32.8088L25.4569 29.9879C24.5709 29.1402 23.5272 28.2323 22.4603 27.2689C19.2504 24.3831 15.7946 20.9832 15.6508 17.0135C15.5162 13.3032 18.7679 10.9223 22.1449 10.964C25.1415 11.0057 26.4032 12.1591 28.3886 14.0907Z" fill="white"/>
</g>
<defs>
<clipPath id="clip0_401_33">
<rect width="57" height="53" fill="white"/>
</clipPath>
</defs>
</svg>
