<svg width="20" height="20" viewBox="0 0 20 20" fill="none" xmlns="http://www.w3.org/2000/svg">
<path d="M16.7584 4.27729C16.6183 4.20752 16.4818 4.13104 16.3496 4.04813C15.9651 3.80333 15.6125 3.51489 15.2995 3.18901C14.5165 2.32613 14.224 1.45076 14.1163 0.837875H14.1206C14.0306 0.32915 14.0678 0 14.0734 0H10.5067V13.2818C10.5067 13.4602 10.5067 13.6364 10.4989 13.8106C10.4989 13.8322 10.4967 13.8522 10.4954 13.8756C10.4954 13.8851 10.4954 13.8951 10.4932 13.9051V13.9126C10.4556 14.3892 10.297 14.8495 10.0313 15.2532C9.7656 15.6568 9.40096 15.9914 8.96945 16.2275C8.51973 16.4739 8.01109 16.6032 7.49369 16.6025C5.83188 16.6025 4.48504 15.2976 4.48504 13.686C4.48504 12.0744 5.83188 10.7695 7.49369 10.7695C7.80826 10.7692 8.12089 10.8169 8.41999 10.9107L8.42431 7.41338C7.51634 7.30043 6.59391 7.36992 5.71522 7.61747C4.83653 7.86502 4.02065 8.28524 3.31905 8.85164C2.70428 9.36603 2.18745 9.97979 1.7918 10.6653C1.64124 10.9153 1.07317 11.9198 1.00437 13.5502C0.96111 14.4755 1.24969 15.4342 1.38727 15.8305V15.8388C1.4738 16.0721 1.8091 16.8683 2.35554 17.5395C2.79617 18.078 3.31675 18.5509 3.90053 18.9432V18.9349L3.90918 18.9432C5.63589 20.0732 7.55036 19.999 7.55036 19.999C7.88177 19.9861 8.99195 19.999 10.2527 19.4236C11.651 18.7857 12.4471 17.8354 12.4471 17.8354C12.9557 17.2675 13.3601 16.6204 13.6429 15.9217C13.9657 15.1047 14.0734 14.1247 14.0734 13.7331V6.68675C14.1167 6.71175 14.693 7.07881 14.693 7.07881C14.693 7.07881 15.5232 7.59129 16.8186 7.92502C17.7479 8.16251 19 8.21251 19 8.21251V4.80268C18.5613 4.84851 17.6705 4.71518 16.7584 4.27729Z" fill="#6C18CD"/>
</svg>
