<?xml version="1.0" encoding="UTF-8" standalone="no"?>

<svg xmlns="http://www.w3.org/2000/svg" xmlns:xlink="http://www.w3.org/1999/xlink" id="Capa_1" x="0px" y="0px" viewBox="0 0 96 96" style="enable-background:new 0 0 96 96;" xml:space="preserve">
    <style type="text/css">
        .st0 {
            clip-path: url(#SVGID_2_);
            fill: #e1fa7f;
        }

        .st1 {
            clip-path: url(#SVGID_2_);
            fill: #6c18cd;
        }
    </style>
    <g>
        <defs>
            <rect id="SVGID_1_" width="96" height="96"></rect>
        </defs>
        <clipPath id="SVGID_2_">
            <use xlink:href="#SVGID_1_" style="overflow:visible;"></use>
        </clipPath>
        <path class="st0"
            d="M68.1,26.2c-9.4-1.7-15.8,14.4-6.3,21.8c9.4,7.4,22.6-3.5,18.6-13.1C78.6,30.9,74.1,27.3,68.1,26.2">
        </path>
        <path class="st0"
            d="M52.5,38.5c3-10.9-15-20.1-24.8-9.9s1.5,26.9,13.2,23.3C45.8,50.4,50.6,45.5,52.5,38.5">
        </path>
        <path class="st1"
            d="M54.7,46.7c10.9,7,26.6,0.1,27.2-13.4c0.6-14.1-15.5-21.1-26.7-14.1c-2.1,1.3-0.4,3.8,1.7,2.5 c8.6-5.4,20.3,0.4,21.2,10.5c1,11.4-11.5,17.6-20.7,11.7C55.8,42.9,52.9,45.6,54.7,46.7">
        </path>
        <path class="st1"
            d="M56.5,34.7h16c1.9,0,3.6-3.3,1.2-3.3h-16C55.8,31.3,54,34.7,56.5,34.7"></path>
        <path class="st1"
            d="M63.2,25.3v16c0,2.3,3.7,1.2,3.7-0.7v-16C66.9,22.3,63.2,23.4,63.2,25.3">
        </path>
        <path class="st1"
            d="M49.2,31.3c-0.3,8.6-7,15.7-16,15C26.1,45.7,20.1,40,19.1,33c-1.3-8,4-15.8,12.1-17.2 C40.8,14.2,48.8,22.1,49.2,31.3c0.1,2.3,3.8,1.2,3.7-0.7c-0.5-11-9.6-19.6-20.8-18.2c-9.9,1.3-17.6,10.3-16.9,20.3 c0.7,10,9.7,17.6,19.6,16.9c10.1-0.7,17.7-9,18.1-19C53,28.3,49.3,29.4,49.2,31.3">
        </path>
        <path class="st1"
            d="M93.9,81.6c0-8.5-4.3-16.6-11.5-21.2c-6.2-4-12.8-4.1-19.8-4.1c-1.9,0-3.6,3.3-1.2,3.3c6,0,11.7-0.2,17.1,2.9 c7,4,11.6,11.6,11.6,19.8C90.2,84.6,93.9,83.5,93.9,81.6">
        </path>
        <path class="st1"
            d="M37.7,56.3c-7.5,0-14.8-0.5-21.6,3.2C7.7,63.9,2.2,72.8,2.2,82.3c0,2.3,3.7,1.2,3.7-0.7 c0-9.1,5.5-17.4,14.1-20.6c5.2-2,11.1-1.4,16.6-1.4C38.4,59.6,40.1,56.3,37.7,56.3">
        </path>
        <path class="st1"
            d="M65.9,81.6c0-11.7-7.9-21.5-19-24.5c-1.8-0.5-4.2,2.6-2,3.2c9.9,2.8,17.3,11.5,17.3,22 C62.2,84.6,65.9,83.5,65.9,81.6">
        </path>
    </g>
</svg>