<?xml version="1.0" encoding="UTF-8" standalone="no"?>

<svg viewBox="0 0 176 216" fill="none" xmlns="http://www.w3.org/2000/svg">
    <g clip-path="url(#illustration-circle-girl-rocket)">
        <path
            d="M88 214.741c48.601 0 88-39.253 88-87.674 0-48.42-39.399-87.673-88-87.673S0 78.647 0 127.067c0 48.421 39.399 87.674 88 87.674z"
            fill="#FF7351"></path>
        <path
            d="M73.755 98.95c1.93 0 3.528 1.591 3.528 3.514l14.045 80.113h-7.056l-14.045-80.113a3.502 3.502 0 013.528-3.515z"
            fill="#fff"></path>
        <path
            d="M12.515 213.283c2.263 3.647 149.573 3.581 151.037 0l-8.919-2.653c.199-.464.332-.995.332-1.525 0-1.99-1.531-3.648-3.528-3.847-.133-4.112-3.528-7.427-7.721-7.427-3.062 0-5.725 1.79-6.923 4.377-.599-1.459-1.664-2.653-3.062-3.449-1.198-5.239-5.924-9.152-11.516-9.152-4.726 0-8.787 2.719-10.65 6.698-.067 0-.067.067-.134.067a6.566 6.566 0 00-3.195-.863c-1.664 0-3.195.664-4.326 1.658-1.265-1.525-3.196-2.453-5.392-2.453-.866 0-1.731.199-2.463.464.2-.663.4-1.393.4-2.189 0-2.122-.933-3.913-2.397-5.239-.133-.133-.333-.265-.466-.398a7.68 7.68 0 00.532-2.785c0-2.653-1.331-4.908-3.394-6.3l-7.922-14.193 2.197 17.906c-2.064 1.194-3.395 3.383-3.395 5.969 0 1.459.466 2.852 1.265 3.979v.133c-1.93 1.26-3.195 3.382-3.195 5.836a7.27 7.27 0 00.665 2.984c0 .265.067.464.067.663-1.265-3.05-4.26-5.172-7.722-5.172a8.387 8.387 0 00-7.655 4.907v-.53c0-6.5-5.325-11.805-11.849-11.805-6.057 0-11.05 4.51-11.715 10.346a6.992 6.992 0 00-5.925-3.25c-2.795 0-5.258 1.658-6.39 4.045l-.066.067h-.067c-4.593 0-8.32 3.714-8.32 8.29 0 .53.066.994.132 1.459v.066l-8.32 3.316z"
            fill="#fff"></path>
        <path
            d="M80.218 100.801l-12.931 2.171.476 2.812 12.93-2.171-.475-2.812zM78.098 94.067L67.07 95.919l.476 2.812 11.027-1.852-.475-2.812zM76.045 87.316l-9.19 1.543.476 2.813 9.19-1.543-.476-2.813z"
            fill="#843032"></path>
        <path
            d="M82.542 107.502l-15.244 2.586c-1.132.199-2.197-.597-2.396-1.724-.2-1.127.599-2.188 1.73-2.387l15.244-2.587c1.132-.199 2.197.597 2.396 1.724.133 1.128-.599 2.189-1.73 2.388z"
            fill="#843032"></path>
        <path
            d="M82.542 107.502l-11.45 1.923c-1.131.199-2.196-.597-2.396-1.724-.2-1.128.599-2.189 1.73-2.388l11.45-1.923c1.132-.199 2.197.597 2.396 1.724.133 1.128-.599 2.189-1.73 2.388z"
            fill="#F343AE"></path>
        <path
            d="M80.278 100.802l-12.98 2.189c-1.132.199-2.197-.597-2.396-1.724-.2-1.128.599-2.189 1.73-2.388l12.98-2.188c1.132-.2 2.198.596 2.397 1.724.133 1.127-.599 2.188-1.73 2.387z"
            fill="#843032"></path>
        <path
            d="M80.278 100.802l-9.652 1.592c-1.131.199-2.196-.597-2.396-1.724-.2-1.128.6-2.189 1.73-2.388l9.653-1.591c1.132-.2 2.197.596 2.396 1.724.133 1.127-.599 2.188-1.73 2.387z"
            fill="#F343AE"></path>
        <path
            d="M78.215 94.038l-11.25 1.857c-1.131.199-2.196-.597-2.396-1.725-.2-1.127.6-2.188 1.73-2.387l11.25-1.857c1.132-.199 2.197.597 2.397 1.724.133 1.128-.6 2.189-1.731 2.388z"
            fill="#843032"></path>
        <path
            d="M78.215 94.038l-8.188 1.392c-1.131.2-2.196-.597-2.396-1.724-.2-1.127.6-2.188 1.73-2.387l8.188-1.393c1.132-.199 2.197.597 2.397 1.724.133 1.128-.6 2.189-1.731 2.388z"
            fill="#F343AE"></path>
        <path
            d="M77.949 87.672L65.9 89.728 54.983 25.133c-.998-5.902-1.131-11.87-.332-17.773l.732-5.77c.266-1.79 2.663-2.188 3.461-.597l2.596 5.173c2.663 5.306 4.527 11.075 5.525 16.911L77.95 87.672z"
            fill="#fff"></path>
        <path
            d="M78.282 94.969l-4.46 2.785 4.726-.862-.266-1.923zM80.345 101.598l-5.391 2.984 5.79-.995-.399-1.989zM76.351 89.395l-1.73 1.062 1.864-.332-.134-.73z"
            fill="#F343AE"></path>
        <path d="M59.23 23.103l-4.53.76 11.141 65.855 4.53-.76L59.23 23.102z"
            fill="#C9D5F7"></path>
        <path
            d="M54.784 24.005l4.527-.796-3.395-20.028c-.067-.398-.666-.398-.732 0l-.533 4.245c-.799 5.106-.6 10.677.133 16.58z"
            fill="#C9D5F7"></path>
        <path
            d="M78.68 180.582a1.332 1.332 0 01-1.33-1.326c0-.729.599-1.326 1.33-1.326.733 0 1.332.597 1.332 1.326 0 .73-.599 1.326-1.331 1.326zm0-2.254a.908.908 0 00-.931.928c0 .531.4.929.932.929a.908.908 0 00.932-.929c0-.53-.4-.928-.932-.928zM102.844 182.375a1.333 1.333 0 01-1.331-1.326 1.332 1.332 0 012.663 0c0 .663-.6 1.326-1.332 1.326zm0-2.321a.909.909 0 00-.932.929c0 .53.4.928.932.928a.908.908 0 00.932-.928.908.908 0 00-.932-.929zM57.18 195.507a2.1 2.1 0 01-2.13-2.122 2.1 2.1 0 012.13-2.123 2.1 2.1 0 012.13 2.123 2.141 2.141 0 01-2.13 2.122zm0-3.847c-.932 0-1.73.796-1.73 1.725 0 .928.798 1.724 1.73 1.724.932 0 1.73-.796 1.73-1.724 0-.929-.798-1.725-1.73-1.725zM100.914 193.916a2.099 2.099 0 01-2.13-2.122c0-1.194.932-2.122 2.13-2.122s2.13.928 2.13 2.122c0 1.128-.999 2.122-2.13 2.122zm0-3.846c-.932 0-1.73.796-1.73 1.724 0 .929.798 1.724 1.73 1.724.932 0 1.73-.795 1.73-1.724 0-.928-.798-1.724-1.73-1.724zM115.758 184.1a1.928 1.928 0 01-1.93-1.923c0-1.061.865-1.923 1.93-1.923s1.93.862 1.93 1.923a1.928 1.928 0 01-1.93 1.923zm0-3.515c-.865 0-1.531.664-1.531 1.526s.666 1.525 1.531 1.525c.865 0 1.531-.663 1.531-1.525 0-.796-.732-1.526-1.531-1.526zM75.819 195.837c-.133 0-.2-.067-.2-.199v-1.194c0-.133.067-.199.2-.199s.2.066.2.199v1.194c0 .132-.134.199-.2.199zM75.819 193.119c-.133 0-.2-.067-.2-.199v-1.194c0-.133.067-.199.2-.199s.2.066.2.199v1.194c0 .132-.134.199-.2.199zM75.153 193.913h-1.331c-.133 0-.2-.066-.2-.199s.067-.199.2-.199h1.331c.133 0 .2.066.2.199 0 .066-.067.199-.2.199zM77.75 193.913h-1.266c-.133 0-.2-.066-.2-.199s.067-.199.2-.199h1.265c.133 0 .2.066.2.199 0 .066-.067.199-.2.199zM109.368 193.847c-.133 0-.2-.067-.2-.199v-.597c0-.133.067-.199.2-.199s.2.066.2.199v.597c0 .132-.067.199-.2.199zM109.368 191.792c-.133 0-.2-.067-.2-.199v-.597c0-.133.067-.199.2-.199s.2.066.2.199v.597c0 .132-.067.199-.2.199zM108.769 192.523h-.666c-.133 0-.2-.066-.2-.199s.067-.199.2-.199h.666c.133 0 .199.066.199.199s-.066.199-.199.199zM110.034 192.523c-.133 0-.2-.066-.2-.199s.067-.199.2-.199h.665c.133 0 .2.066.2.199s-.067.199-.2.199h-.665zM54.65 182.506c-.133 0-.2-.066-.2-.199v-.596c0-.133.067-.199.2-.199.134 0 .2.066.2.199v.596c0 .067-.066.199-.2.199zM54.65 180.451c-.133 0-.2-.066-.2-.199v-.597c0-.132.067-.198.2-.198.134 0 .2.066.2.198v.597c0 .133-.133.199-.2.199zM53.985 181.183h-.666c-.133 0-.2-.067-.2-.199 0-.133.067-.199.2-.199h.666c.133 0 .2.066.2.199.066.132-.067.199-.2.199zM55.25 181.183c-.133 0-.2-.067-.2-.199 0-.133.067-.199.2-.199h.666c.133 0 .2.066.2.199 0 .132-.067.199-.2.199h-.666zM70.493 171.364a1.261 1.261 0 110-2.52c.733 0 1.265.597 1.265 1.26 0 .729-.6 1.26-1.265 1.26zm0-2.122a.88.88 0 00-.865.862c0 .464.4.862.865.862a.88.88 0 00.866-.862.88.88 0 00-.866-.862zM45.398 207.047a1.262 1.262 0 01-1.265-1.26c0-.73.6-1.261 1.265-1.261.732 0 1.265.597 1.265 1.261.066.663-.533 1.26-1.265 1.26zm0-2.189a.88.88 0 00-.865.862c0 .464.4.862.865.862a.88.88 0 00.865-.862.88.88 0 00-.865-.862zM135.528 197.962a1.261 1.261 0 01-1.264-1.261c0-.663.599-1.26 1.264-1.26.733 0 1.265.597 1.265 1.26 0 .664-.599 1.261-1.265 1.261zm0-2.123a.88.88 0 00-.865.862.88.88 0 00.865.863.88.88 0 00.866-.863.88.88 0 00-.866-.862zM123.613 172.159c-.133 0-.2-.066-.2-.199v-.464c0-.133.067-.199.2-.199s.199.066.199.199v.464c0 .133-.066.199-.199.199zM123.613 170.171c-.133 0-.2-.067-.2-.199v-.464c0-.133.067-.199.2-.199s.199.066.199.199v.464c0 .132-.066.199-.199.199zM124.678 171.566h-.134l-.465-.266c-.067-.066-.134-.198-.067-.265.067-.066.2-.132.266-.066l.466.265c.067.066.133.199.067.265.066 0-.067.067-.133.067zM122.947 170.569h-.133l-.466-.265c-.067-.066-.133-.199-.067-.265.067-.066.2-.133.267-.066l.466.265c.066.066.133.199.066.265 0 0-.066.066-.133.066zM124.279 170.57c-.067 0-.134-.067-.2-.133-.067-.066 0-.199.066-.265l.4-.266c.066-.066.2 0 .266.067.067.066 0 .199-.067.265l-.399.265c0 .067 0 .067-.066.067zM122.548 171.562c-.067 0-.134-.067-.2-.133-.067-.066 0-.199.066-.265l.466-.265c.067-.067.2 0 .267.066.066.066 0 .199-.067.265l-.466.265c0 .067-.066.067-.066.067zM82.742 163.276c-.133 0-.2-.066-.2-.199v-.796c0-.132.067-.199.2-.199s.2.067.2.199v.796c0 .133-.067.199-.2.199zM82.742 160.026c-.133 0-.2-.067-.2-.199v-.796c0-.133.067-.199.2-.199s.2.066.2.199v.796c0 .132-.067.199-.2.199zM84.472 162.281h-.133l-.732-.464c-.067-.066-.133-.199-.067-.265.067-.067.2-.133.266-.067l.733.465c.066.066.133.199.066.265 0 0-.066.066-.133.066zM81.677 160.687h-.134l-.732-.398c-.066-.067-.133-.199-.066-.266.066-.066.2-.132.266-.066l.732.398c.067.066.133.199.067.265.066 0-.067.067-.133.067zM83.807 160.69c-.067 0-.133-.066-.2-.132s0-.199.067-.265l.665-.398c.067-.067.2 0 .266.066.067.066 0 .199-.066.265l-.666.398-.066.066zM81.011 162.281c-.067 0-.133-.066-.2-.132-.066-.067 0-.199.067-.266l.732-.398c.067-.066.2 0 .266.067.067.066 0 .199-.066.265l-.733.398c0 .066-.066.066-.066.066zM69.362 182.84c-1.265.133-1.93.995-2.197 2.189-.2-1.194-.932-1.923-2.197-2.189 1.265-.265 1.998-.995 2.197-2.188.4 1.193.999 1.923 2.197 2.188zM105.174 169.178c-2.063.199-3.128 1.592-3.594 3.581-.466-1.989-1.465-3.316-3.595-3.581 2.064-.398 3.262-1.592 3.595-3.581.466 1.989 1.464 3.117 3.594 3.581z"
            fill="#fff"></path>
        <path
            d="M46.33 49.608c-1.065 0-2.064-.664-2.397-1.725-1.065-3.183-2.063-5.969-2.929-8.555-3.395-9.682-5.591-16.049-8.453-27.19-.333-1.327.465-2.72 1.797-3.118 1.331-.331 2.729.465 3.128 1.791 2.863 10.943 5.06 17.243 8.388 26.793.865 2.586 1.864 5.372 2.995 8.555.466 1.326-.266 2.785-1.597 3.25-.4.199-.666.199-.932.199z"
            fill="#DDC4A6"></path>
        <path
            d="M46.33 49.675a2.643 2.643 0 01-2.463-1.725c-.932-2.785-1.864-5.305-2.663-7.759-2.396-7.03-4.526-12.998-6.19-18.768-.4-1.393.399-2.785 1.73-3.183a2.58 2.58 0 013.195 1.724c1.664 5.637 3.728 11.606 6.124 18.503.866 2.454 1.731 5.04 2.663 7.76.466 1.326-.266 2.785-1.598 3.249a1.777 1.777 0 01-.798.199z"
            fill="#5F63FA"></path>
        <path
            d="M44.998 46.558c3.329-5.306 5.392-4.443 8.388-4.775 5.258-.597 7.721 2.056 7.255 5.504-.732 5.505-1.996 22.549.8 32.099 1.397 4.775-14.579 3.913-15.71-.53-1.199-5.041-4.06-26.993-.733-32.298z"
            fill="#fff"></path>
        <path
            d="M44.998 46.556c-3.328 5.306-.466 27.257.799 32.231.266 1.194 1.997 2.587 4.193 2.984-1.53-13.462-4.127-30.506 1.398-39.923-2.063.199-3.86.663-6.39 4.708z"
            fill="#C9D5F7"></path>
        <path
            d="M68.895 141.262c-1.33 0-2.53-.995-2.795-2.322-.866-4.642-2.264-11.738-3.795-19.166-2.662-13.263-5.724-28.318-7.056-37.27-.266-1.526.866-2.985 2.397-3.25 1.53-.266 2.995.862 3.261 2.387 1.332 8.82 4.327 23.809 7.056 37.006 1.532 7.494 2.93 14.59 3.795 19.299.266 1.525-.733 3.05-2.33 3.316h-.533z"
            fill="#DDC4A6"></path>
        <path
            d="M47.062 85.222c2.663 1.459 8.254 3.183 10.318 9.55l1.065-13.596-13.18-.331.2 2.586 1.597 1.79z"
            fill="#5F63FA"></path>
        <path d="M66.033 138.607l5.592-1.459-3.662 7.693-3.527-.199 1.597-6.035z"
            fill="#DDC4A6"></path>
        <path
            d="M67.564 146.567c-.266 0-.599-.066-.865-.265-.732-.464-.999-1.459-.533-2.188.999-1.658 2.53-4.908 2.197-6.765-1.198-6.234-4.06-20.691-5.192-25.665-.2-.862.333-1.724 1.198-1.857.865-.199 1.73.332 1.864 1.194 1.132 5.04 3.994 19.497 5.192 25.731.732 3.648-2.263 8.489-2.596 9.02-.2.53-.732.795-1.265.795z"
            fill="#F3E4B7"></path>
        <path
            d="M70.16 141.326c-.599 1.592-2.197 2.653-3.927 2.521a1.173 1.173 0 01-1.065-1.393l.865-3.847-1.864 6.102-.2.729c-.399 1.26.533 2.454 1.798 2.52.599.067 1.265-.066 1.73-.199.466-.132 2.463-.53 3.928-2.785l-.4-1.923.4 1.923v.133c.067.397.466.729.932.596.4-.066.665-.464.599-.928l-1.398-7.693-1.398 4.244z"
            fill="#1E2A49"></path>
        <path
            d="M70.16 141.326c-.4 1.061-1.198 1.857-2.33 2.255a4.918 4.918 0 01-1.264.199l-.134.133c-.665.729-.732 1.79-.2 2.653.467.862 1.798 1.061 2.73.596.865-.398 1.864-.994 2.53-2.254v.132c.066.398.465.73.931.597.4-.066.666-.464.6-.928l-1.398-7.693-1.465 4.31z"
            fill="#2D3F66"></path>
        <path d="M71.824 142.919l.533 2.785c-.466.066-.865-.199-.932-.73l.4-2.055z"
            fill="#1E2A49"></path>
        <path
            d="M45.464 79.186c.4 4.576 16.043 7.494 15.377 2.52-.133-.862-.2-1.79-.2-2.72-5.258 0-10.317-1.723-15.31-3.978 0 1.592.067 3.316.133 4.178z"
            fill="#5F63FA"></path>
        <path
            d="M44.732 47.02c-2.995 5.306-.865 29.778.333 34.752.266 1.127 1.73 1.724 1.598 1.06-.333-1.989-1.066-6.167-1.199-7.228-1.331-15.651-1.198-26.925 3.462-31.966l1.73-1.79c-1.73.331-3.727 1.26-5.924 5.172z"
            fill="#5F63FA"></path>
        <path
            d="M54.916 43.572c1.066.398 4.594.53 4.86.132l-3.994-1.99-1.465.133.6 1.725z"
            fill="#28317F"></path>
        <path
            d="M67.963 136.221a2.841 2.841 0 01-2.795-2.321c-.8-4.046-1.798-8.953-2.863-14.192-2.662-13.264-5.724-28.319-7.056-37.272-.266-1.525.866-2.984 2.397-3.25 1.53-.264 2.995.863 3.261 2.388 1.332 8.82 4.327 23.809 7.056 37.006a1835.098 1835.098 0 012.863 14.192c.333 1.526-.732 3.051-2.263 3.316-.267.133-.466.133-.6.133z"
            fill="#5F63FA"></path>
        <path
            d="M53.918 41.915l-.532.066 1.398 1.46c-1.93 8.554-.866 23.21 1.997 38.597.399 2.122 2.396 3.515 4.393 2.785 2.197-.796 3.595-2.321 2.929-4.642-2.862-9.683-3.927-27.125-3.129-32.629.466-3.25-1.797-6.168-7.056-5.637z"
            fill="#5F63FA"></path>
        <path
            d="M54.983 43.377l-.266 1.127c-.4 1.857-1.997 3.25-3.86 3.449-1.399.132-2.53-1.061-2.33-2.388l.066-.53a3.616 3.616 0 013.328-3.184l1.598-.132c.932-.067 1.664.73 1.464 1.658z"
            fill="#F3E4B7"></path>
        <path
            d="M54.983 43.24l-.067.332c-.865-.332-1.597-.464-2.196-1.061l1.198-.199v-.332l.466-.066c.4.265.732.796.599 1.326z"
            fill="#DDC4A6"></path>
        <path
            d="M45.53 37.606v2.586h-.066c-.799 0-1.464.663-1.464 1.46 0 .729.466 1.326 1.198 1.458 1.531.266 2.995.2 4.726-.199l6.856-1.26-6.656-3.382-4.593-.663z"
            fill="#5F63FA"></path>
        <path d="M49.525 39.393l.532 3.581 3.928-.597-1.199-7.361-3.261 4.377z"
            fill="#F3E4B7"></path>
        <path
            d="M49.525 39.397l.532 3.581 1.598-2.454c.2.796.532 1.46 1.065 1.99l1.198-.2-1.132-7.36-3.261 4.443z"
            fill="#DDC4A6"></path>
        <path
            d="M49.724 21.954c-2.396-.133-5.458 2.918-5.79 5.438-.334 2.52.332 7.096.732 8.356.332 1.26 2.196 4.244 3.594 4.244 1.398 0 4.992-1.326 6.723-4.51 1.798-3.382 1.93-7.758 1.465-9.085-.533-1.393-2.93-4.178-6.724-4.443z"
            fill="#F3E4B7"></path>
        <path
            d="M50.99 34.355a.88.88 0 01-.866.862.88.88 0 01-.866-.862c0-.465.4-.863.866-.863a.88.88 0 01.865.863zM45.73 34.288c.067.465-.066.862-.332.929-.267.066-.533-.332-.6-.796-.066-.464.067-.862.333-.929.333 0 .533.332.6.796z"
            fill="#F1B4AF"></path>
        <path
            d="M44.333 30.046h-.067c-.066-.067-.066-.133-.066-.2.266-.33.732-.729 1.264-.663.067 0 .133.067.133.133s-.066.133-.133.133c-.4 0-.799.265-.998.53-.067 0-.067.067-.133.067z"
            fill="#2D3F66"></path>
        <path
            d="M50.723 21.157c-1.331.066-3.794.994-3.661 4.111.133 2.587 1.664 4.974 5.059 5.04 1.597 0 .066 10.413 2.662 12.734.999.862 3.994.862 6.324.663 1.73-.133 2.996-1.592 2.862-3.316-.133-1.592-1.53-2.852-3.128-2.785h-.732c-.133-2.918-.866-9.218-1.199-10.943-.399-1.857-1.996-5.902-8.187-5.504z"
            fill="#5F63FA"></path>
        <path
            d="M49.99 21.29c-1.33-.796-5.058-.332-6.922 2.852-1.864 3.183.466 8.754 1.265 10.544-.666-3.979-1.398-9.019 2.862-8.754 4.26.266 2.796-4.642 2.796-4.642z"
            fill="#5F63FA"></path>
        <path
            d="M50.523 36.345c.4.796-.932 1.923-2.13 1.923s-2.396-1.127-2.197-1.923c.267-.796 1.199-.266 2.13-.266.932.067 1.731-.53 2.197.266z"
            fill="#5D4D4B"></path>
        <path
            d="M49.591 37.937c-.399.2-.798.332-1.198.332-.466 0-.865-.133-1.265-.398 0-.398.533-.73 1.265-.73.666 0 1.198.332 1.198.796z"
            fill="#F89D8F"></path>
        <path
            d="M50.79 32.233c-.067 0-.134 0-.2-.066-.2-.265-.6-.398-.999-.398-.266 0-.532.067-.665.266-.067.066-.267.132-.333 0-.067-.067-.133-.266 0-.332.2-.265.599-.398 1.065-.398.532 0 1.065.199 1.331.53.067.067.067.266 0 .332-.066.066-.133.066-.2.066zM44.732 32.298h-.067c-.133-.067-.2-.2-.133-.332a.803.803 0 01.466-.464c.266-.066.6 0 .866.199a.187.187 0 010 .331c-.067.133-.267.133-.333 0-.133-.132-.333-.132-.466-.132-.067 0-.133.066-.133.132 0 .2-.134.266-.2.266z"
            fill="#2D3F66"></path>
        <path
            d="M43.268 112.742c-.866 0-1.731-.398-2.264-1.128-2.063-2.652-3.927-5.04-5.658-7.228-10.051-12.8-14.644-18.636-10.717-24.737 5.525-8.688 23.298-.332 25.295.663 1.398.73 1.997 2.387 1.331 3.846a2.955 2.955 0 01-3.86 1.327c-7.988-3.913-16.376-5.173-17.907-2.72-1.664 2.587 1.997 7.495 10.385 18.172a458.202 458.202 0 015.658 7.295c.932 1.26.732 3.051-.533 3.979-.466.332-1.131.531-1.73.531z"
            fill="#DDC4A6"></path>
        <path d="M41.004 111.616l3.795-4.377 1.331 8.356-3.062 1.791-2.064-5.77z"
            fill="#DDC4A6"></path>
        <path
            d="M46.463 118.515c-.732 0-1.398-.531-1.531-1.26-.333-1.725-1.531-6.632-2.863-8.356-1.863-2.388-3.994-5.173-6.124-7.892-2.928-3.78-5.857-7.494-7.788-9.948-.532-.663-.4-1.658.267-2.255.665-.53 1.664-.398 2.263.265 1.93 2.454 4.859 6.168 7.788 9.948 2.13 2.719 4.26 5.504 6.124 7.892 2.064 2.653 3.328 9.019 3.461 9.749.133.862-.399 1.658-1.264 1.857h-.333z"
            fill="#F3E4B7"></path>
        <path
            d="M45.93 111.483a3.824 3.824 0 01-1.863 4.245 1.19 1.19 0 01-1.665-.597l-1.464-3.582 1.93 5.969.2.73c.4 1.26 1.797 1.724 2.862 1.061.533-.332.999-.73 1.332-1.128.333-.398 1.73-1.857 1.73-4.509l-1.397-1.393 1.397 1.393.134.132c.332.332.798.332 1.131 0 .333-.331.333-.796 0-1.061l-5.458-5.637 1.131 4.377z"
            fill="#1E2A49"></path>
        <path
            d="M45.93 111.483c.267 1.127 0 2.188-.665 3.183-.267.398-.666.73-.932.929v.198c-.133.995.4 1.924 1.331 2.322.865.464 2.064-.133 2.596-.995.466-.796.999-1.857.799-3.25l.133.133c.333.331.799.331 1.132 0 .333-.332.333-.796 0-1.061l-5.459-5.637 1.065 4.178z"
            fill="#2D3F66"></path>
        <path d="M48.26 111.88l1.997 2.055c-.333.332-.799.332-1.198-.132l-.799-1.923z"
            fill="#1E2A49"></path>
        <path
            d="M40.605 109.293c-.865 0-1.73-.398-2.263-1.127-1.066-1.327-1.997-2.587-2.93-3.78-10.05-12.8-14.644-18.636-10.716-24.737 5.524-8.688 23.298-.332 25.295.663 1.398.73 1.997 2.387 1.33 3.846a2.955 2.955 0 01-3.86 1.327c-7.988-3.913-16.375-5.173-17.906-2.72-1.664 2.587 1.997 7.495 10.384 18.172.932 1.194 1.93 2.454 2.996 3.78a2.777 2.777 0 01-.533 3.979c-.599.398-1.198.597-1.797.597z"
            fill="#5F63FA"></path>
        <path
            d="M39.873 28.387c-.666 0-1.332-.465-1.531-1.128l-2.13-6.698c-.267-.862.2-1.724 1.064-1.99a1.575 1.575 0 011.997 1.061l2.13 6.699c.267.862-.2 1.724-1.064 1.99-.134.066-.267.066-.466.066z"
            fill="#5A62C0"></path>
        <path
            d="M37.61 20.625c-.666 0-1.332-.464-1.531-1.127l-2.264-7.693c-.266-.862.267-1.725 1.065-1.99.866-.265 1.731.265 1.997 1.061l2.264 7.693c.266.862-.267 1.725-1.065 1.99-.2.066-.333.066-.466.066z"
            fill="#F3E4B7"></path>
        <path
            d="M63.57 67.65c-2.197 0-4.926-2.853-11.516-12.535-.799-1.194-.466-2.72.666-3.515 1.198-.796 2.73-.464 3.528.663a406.987 406.987 0 003.528 5.107 269.929 269.929 0 00-3.395-9.285 2.447 2.447 0 011.465-3.25c1.33-.464 2.795.133 3.261 1.46 1.398 3.647 3.129 8.223 4.194 11.804 1.331 4.377 2.197 7.826-.466 9.219a2.556 2.556 0 01-1.265.331z"
            fill="#DDC4A6"></path>
        <path
            d="M56.448 48.019c-.533-1.327.133-2.786 1.464-3.316 1.331-.53 2.796.132 3.328 1.459 1.398 3.58 3.129 8.223 4.194 11.804 1.331 4.377 2.13 7.826-.4 9.219a3.043 3.043 0 01-1.464.398c-2.263 0-4.526-2.786-7.322-6.5-.865-1.127-.6-2.719.532-3.58.932-.664 2.197-.664 3.062 0"
            fill="#5F63FA"></path>
        <path
            d="M57.712 58.697c-.532 0-.998-.266-1.331-.664l-2.73-3.913a1.52 1.52 0 01.4-2.188 1.532 1.532 0 012.197.398l2.729 3.913a1.52 1.52 0 01-.4 2.188c-.266.133-.599.266-.865.266z"
            fill="#F3E4B7"></path>
        <path
            d="M63.836 65.726c-1.597 0-3.395-1.923-5.858-5.306-.532-.73-.399-1.724.333-2.188.733-.53 1.731-.398 2.197.331.865 1.128 1.531 1.99 2.063 2.587-.732-3.316-2.729-9.218-3.727-12.07-.2-.663-.466-1.326-.666-1.857-.266-.796.133-1.724.999-1.99.865-.265 1.73.133 1.997.995.2.597.399 1.194.665 1.857 4.593 13.264 5.126 16.38 2.93 17.508-.334 0-.6.133-.933.133z"
            fill="#5F63FA"></path>
        <path
            d="M54.917 60.62c.466.664 1.398.796 1.997.332l3.261-2.387c.666-.465.8-1.393.333-1.99-.466-.663-1.398-.796-1.997-.331L55.25 58.63c-.666.398-.8 1.326-.333 1.99z"
            fill="#C9D5F7"></path>
        <path
            d="M56.048 59.758c.466.664 1.398.796 1.997.332l2.13-1.525c.666-.465.8-1.393.333-1.99-.466-.663-1.398-.796-1.997-.331l-2.13 1.525c-.666.464-.799 1.326-.333 1.99z"
            fill="#fff"></path>
        <path
            d="M52.52 47.09c.333-.266.866-.133 1.065.199l.999 1.525c.266.332.133.862-.2 1.061-.333.265-.865.133-1.065-.199l-.998-1.525c-.267-.332-.2-.796.2-1.061zM51.189 47.953c.333-.265.865-.133 1.065.199l.998 1.592c.267.331.134.862-.2 1.06-.332.266-.864.133-1.064-.198l-.999-1.526c-.266-.398-.133-.862.2-1.127z"
            fill="#F3E4B7"></path>
        <path
            d="M49.858 48.813c.332-.265.865-.133 1.065.2l.998 1.524c.266.332.133.863-.2 1.062-.332.265-.865.132-1.065-.2l-.998-1.525c-.267-.331-.133-.862.2-1.06z"
            fill="#F3E4B7"></path>
        <path
            d="M48.593 49.676c.333-.266.865-.133 1.065.199l.998 1.525c.267.331.133.862-.2 1.061-.332.265-.865.133-1.064-.199l-.999-1.525c-.266-.398-.2-.862.2-1.061z"
            fill="#F3E4B7"></path>
        <path
            d="M56.58 52.79v-1.392c0-.53-.265-1.061-.665-1.393l-1.464-1.326-5.325 3.183 1.73 2.52c.4.531.932.995 1.598 1.194l4.127-2.785z"
            fill="#F3E4B7"></path>
        <path
            d="M48.526 49.676c-.332.265-.466.73-.2 1.061l2.397 3.648a3.54 3.54 0 001.664 1.194l1.198-.796.4-.266c-1.065.398-2.397-.597-3.062-1.525l-2.397-3.316z"
            fill="#DDC4A6"></path>
        <path
            d="M33.55 20.43c.199.795 1.064 1.193 1.796.994l3.861-1.128c.799-.198 1.198-1.06.999-1.79-.2-.796-1.065-1.194-1.798-.995l-3.86 1.127c-.8.266-1.265 1.061-.999 1.791z"
            fill="#C9D5F7"></path>
        <path
            d="M34.88 20.031c.2.796 1.066 1.194 1.798.995l2.53-.73c.798-.198 1.197-1.06.998-1.79-.2-.796-1.065-1.194-1.798-.995l-2.529.73c-.799.265-1.198 1.06-.998 1.79z"
            fill="#fff"></path>
        <path
            d="M32.55 12.402l-.133-.199a7.334 7.334 0 01-.932-1.923l-.665-2.255 5.658-1.591.865 3.183.067.796c.066.398-.2.796-.6.928l-4.26 1.061z"
            fill="#F3E4B7"></path>
        <path
            d="M32.018 10.081c-.4.133-.866-.133-.932-.53l-.533-1.791c-.133-.398.134-.862.533-.929.4-.132.865.133.932.53l.532 1.792c.134.397-.066.862-.532.928zM33.55 9.682c-.4.133-.866-.132-.933-.53l-.532-1.79c-.134-.465.133-.863.532-.995.4-.133.866.132.932.53l.533 1.79c.133.465-.133.863-.533.995zM35.08 9.288c-.4.133-.865-.133-.932-.53l-.533-1.791c-.133-.398.134-.862.533-.929.4-.132.865.133.932.531l.532 1.79c.133.332-.133.796-.532.929z"
            fill="#DDC4A6"></path>
        <path
            d="M36.545 8.823c-.4.133-.866-.132-.932-.53l-.533-1.791c-.133-.398.133-.862.533-.928.4-.133.865.132.932.53l.532 1.79c.133.399-.066.863-.532.93z"
            fill="#DDC4A6"></path>
        <path
            d="M31.951 9.682c-.399.133-.865-.132-.931-.53l-.533-1.857c-.133-.398.133-.862.533-.928.399-.133.865.132.931.53l.533 1.79c.133.399-.133.863-.533.995z"
            fill="#F3E4B7"></path>
        <path
            d="M33.416 9.22c-.4.134-.865-.132-.932-.53L31.95 6.9c-.133-.398.133-.862.533-.929.4-.132.865.133.932.53l.532 1.791c.133.398-.133.863-.532.929zM34.947 8.823c-.4.133-.865-.132-.932-.53l-.532-1.791c-.133-.398.133-.862.532-.928.4-.133.865.132.932.53l.533 1.79c.133.399-.133.797-.533.93z"
            fill="#F3E4B7"></path>
        <path
            d="M36.411 8.425c-.4.132-.865-.133-.932-.53l-.532-1.791c-.133-.398.133-.863.532-.929.4-.133.866.133.932.53l.533 1.791c.133.398-.067.796-.533.929z"
            fill="#F3E4B7"></path>
        <path
            d="M37.476 8.824v1.26l-2.463.664c-.399.132-.732-.133-.865-.465-.133-.398.133-.73.466-.862l2.862-.597z"
            fill="#DDC4A6"></path>
        <path
            d="M34.215 9.817c-.134-.398.133-.862.532-.929l1.797-.53c.4-.133.866.133.932.53.133.398-.133.863-.532.929l-1.797.53c-.333.133-.8-.132-.932-.53z"
            fill="#F3E4B7"></path>
        <path
            d="M33.882 12.071l-.067-.199c-.732-.133-1.198-.53-1.464-1.194l-.4-.994-.532.132.066.398c.133.663.466 1.26.8 1.79l.265.399 1.332-.332z"
            fill="#DDC4A6"></path>
    </g>
    <defs>
        <clipPath id="illustration-circle-girl-rocket">
            <path fill="#fff" d="M0 0h176v216H0z"></path>
        </clipPath>
    </defs>
</svg>