<svg width="250" height="111" viewBox="0 0 250 111" fill="none" xmlns="http://www.w3.org/2000/svg">
<g clip-path="url(#clip0_8_213)">
<mask id="mask0_8_213" style="mask-type:luminance" maskUnits="userSpaceOnUse" x="0" y="0" width="250" height="111">
<path d="M249.977 0H0V110.31H249.977V0Z" fill="white"/>
</mask>
<g mask="url(#mask0_8_213)">
<path d="M246.118 93.6652C246.119 92.644 246.527 91.6647 247.25 90.9433C247.974 90.2218 248.954 89.8162 249.977 89.8162V82.1124C249.458 82.1325 248.94 82.0474 248.455 81.8633C247.969 81.6786 247.526 81.3978 247.152 81.0382C246.778 80.6786 246.48 80.2471 246.277 79.7702C246.073 79.2927 245.968 78.7795 245.968 78.2605C245.968 77.7415 246.073 77.2283 246.277 76.7508C246.48 76.2739 246.778 75.8424 247.152 75.4828C247.526 75.1232 247.969 74.8424 248.455 74.6577C248.94 74.4736 249.458 74.3885 249.977 74.4086V66.7393C249.458 66.7595 248.94 66.6743 248.455 66.4902C247.969 66.3055 247.526 66.0248 247.152 65.6652C246.778 65.3056 246.48 64.8741 246.277 64.3971C246.073 63.9196 245.968 63.4064 245.968 62.8874C245.968 62.3685 246.073 61.8553 246.277 61.3777C246.48 60.9008 246.778 60.4693 247.152 60.1097C247.526 59.7501 247.969 59.4693 248.455 59.2847C248.94 59.1006 249.458 59.0154 249.977 59.0355V51.303C249.458 51.323 248.94 51.2382 248.455 51.0537C247.969 50.8691 247.526 50.5886 247.152 50.2289C246.778 49.8693 246.48 49.4379 246.277 48.9606C246.073 48.4833 245.968 47.9698 245.968 47.4511C245.968 46.9324 246.073 46.4189 246.277 45.9416C246.48 45.4643 246.778 45.0329 247.152 44.6732C247.526 44.3135 247.969 44.0331 248.455 43.8485C248.94 43.664 249.458 43.5792 249.977 43.5992V35.9012C249.47 35.8997 248.968 35.7985 248.501 35.6033C248.033 35.4082 247.609 35.123 247.251 34.764C246.894 34.405 246.611 33.9792 246.418 33.5109C246.226 33.0426 246.127 32.5411 246.129 32.0349C246.131 31.5286 246.232 31.0277 246.427 30.5606C246.623 30.0935 246.908 29.6694 247.268 29.3125C247.627 28.9556 248.054 28.6729 248.522 28.4807C248.991 28.2883 249.493 28.1901 250 28.1916V20.4936C249.481 20.5136 248.963 20.4288 248.478 20.2443C247.993 20.0597 247.55 19.7792 247.175 19.4195C246.801 19.0599 246.503 18.6285 246.3 18.1511C246.096 17.6738 245.991 17.1604 245.991 16.6417C245.991 16.123 246.096 15.6095 246.3 15.1322C246.503 14.6549 246.801 14.2235 247.175 13.8638C247.55 13.5041 247.993 13.2237 248.478 13.0391C248.963 12.8546 249.481 12.7698 250 12.7898V8.90625C248.827 8.9093 247.665 8.68118 246.58 8.235C245.495 7.78888 244.509 7.1334 243.678 6.30618C242.847 5.47892 242.187 4.49613 241.737 3.41403C241.287 2.33194 241.055 1.17179 241.054 0H8.91129C8.91129 2.36109 7.97264 4.62555 6.30156 6.29565C4.63056 7.96574 2.36395 8.9047 0 8.90625V12.7898C0.506558 12.7898 1.00815 12.8896 1.47607 13.0833C1.944 13.2771 2.36908 13.5611 2.727 13.9192C3.08493 14.2772 3.36867 14.7022 3.562 15.1699C3.75532 15.6375 3.85444 16.1386 3.85369 16.6446C3.85445 17.1502 3.75528 17.6511 3.56189 18.1184C3.36849 18.5858 3.08466 19.0104 2.72666 19.3679C2.36866 19.7255 1.94353 20.009 1.47564 20.2021C1.00775 20.3953 0.506286 20.4943 0 20.4936V28.1916C0.506558 28.1916 1.00815 28.2914 1.47607 28.4852C1.944 28.6789 2.36908 28.963 2.727 29.321C3.08493 29.679 3.36867 30.104 3.562 30.5717C3.75532 31.0393 3.85444 31.5404 3.85369 32.0464C3.85444 32.5523 3.75532 33.0535 3.562 33.5211C3.36867 33.9887 3.08493 34.4137 2.727 34.7718C2.36908 35.1298 1.944 35.4138 1.47607 35.6076C1.00815 35.8014 0.506558 35.9012 0 35.9012V43.5992C0.506558 43.5992 1.00815 43.699 1.47607 43.8927C1.944 44.0865 2.36908 44.3706 2.727 44.7286C3.08493 45.0866 3.36867 45.5116 3.562 45.9793C3.75532 46.4469 3.85444 46.948 3.85369 47.454C3.85369 48.4748 3.44767 49.4538 2.72497 50.1756C2.00226 50.8975 1.02206 51.303 0 51.303V59.0068C1.02206 59.0068 2.00226 59.4124 2.72497 60.1339C3.44767 60.8559 3.85369 61.8351 3.85369 62.8558C3.85825 63.3644 3.76194 63.8684 3.57032 64.3396C3.3787 64.8102 3.09556 65.2388 2.73726 65.5996C2.37896 65.9609 1.95259 66.2474 1.48277 66.443C1.01295 66.6386 0.508995 66.7393 0 66.7393V74.4374C1.01512 74.4374 1.98925 74.8372 2.71081 75.5507C3.43237 76.2635 3.84306 77.2324 3.85369 78.2461C3.85596 78.753 3.75796 79.2553 3.56532 79.7242C3.37267 80.1936 3.08917 80.62 2.73109 80.979C2.37302 81.338 1.94743 81.6234 1.47874 81.8178C1.01006 82.0123 0.507531 82.1124 0 82.1124V89.8162C1.02206 89.8162 2.00226 90.2218 2.72497 90.9433C3.44767 91.6653 3.85369 92.6446 3.85369 93.6652C3.85444 94.1709 3.75532 94.672 3.562 95.1398C3.36867 95.6076 3.08493 96.0327 2.727 96.3906C2.36908 96.7484 1.944 97.0327 1.47607 97.2266C1.00815 97.4204 0.506558 97.52 0 97.52V101.404C2.36495 101.404 4.63304 102.342 6.3053 104.012C7.97759 105.682 8.91705 107.947 8.91705 110.31H241.06C241.06 109.138 241.293 107.979 241.743 106.897C242.192 105.815 242.851 104.833 243.681 104.006C244.512 103.178 245.497 102.523 246.581 102.077C247.665 101.63 248.827 101.401 250 101.404V97.52C249.491 97.5229 248.987 97.4256 248.516 97.2335C248.045 97.0407 247.617 96.7571 247.256 96.3992C246.895 96.0408 246.609 95.615 246.414 95.1456C246.218 94.6766 246.118 94.1732 246.118 93.6652Z" fill="#6900FF"/>
<g opacity="0.48">
<path d="M100.806 0.0747907C99.5668 0.0852803 98.3364 -0.135199 97.1774 -0.575342C96.1233 -0.976664 95.148 -1.56099 94.2972 -2.30136C93.4856 -3.01127 92.8318 -3.8835 92.379 -4.86162C91.917 -5.85235 91.6809 -6.93313 91.6878 -8.02598C91.682 -9.12062 91.9176 -10.2031 92.379 -11.1961C92.8335 -12.1716 93.4867 -13.0417 94.2972 -13.7506C95.148 -14.491 96.1233 -15.0753 97.1774 -15.4766C98.3398 -15.8971 99.5703 -16.0981 100.806 -16.0692C102.022 -16.0775 103.229 -15.861 104.366 -15.4306C105.421 -15.0293 106.396 -14.4449 107.247 -13.7046C108.06 -12.9922 108.723 -12.1234 109.194 -11.1501C109.67 -10.1615 109.915 -9.07718 109.908 -7.97996C109.915 -6.88451 109.671 -5.80195 109.194 -4.81559C108.724 -3.83966 108.062 -2.96875 107.247 -2.25533C106.396 -1.51496 105.421 -0.930637 104.366 -0.529315C103.227 -0.110702 102.02 0.0941026 100.806 0.0747907ZM96.0023 17.3925L110.455 1.09889L123.272 -16.1095L127.523 -12.2777L113.675 3.49806L100.23 21.2243L96.0023 17.3925ZM100.806 -4.52217C101.158 -4.53313 101.501 -4.63282 101.802 -4.8119C102.105 -4.99099 102.357 -5.24364 102.535 -5.54627C103.026 -6.26746 103.278 -7.125 103.255 -7.99722C103.278 -8.86943 103.026 -9.72697 102.535 -10.4482C102.357 -10.7508 102.105 -11.0034 101.802 -11.1825C101.501 -11.3616 101.158 -11.4613 100.806 -11.4723C100.455 -11.4624 100.112 -11.3631 99.8093 -11.184C99.5075 -11.0047 99.2557 -10.7515 99.0783 -10.4482C98.5864 -9.72697 98.3347 -8.86943 98.3583 -7.99722C98.3347 -7.125 98.5864 -6.26746 99.0783 -5.54627C99.2557 -5.24292 99.5075 -4.98968 99.8093 -4.81049C100.112 -4.63129 100.455 -4.53206 100.806 -4.52217ZM122.753 21.2243C121.522 21.2361 120.3 21.0195 119.147 20.5856C118.093 20.185 117.117 19.6006 116.267 18.8596C115.457 18.1507 114.804 17.2807 114.349 16.3051C113.895 15.312 113.66 14.2327 113.66 13.1407C113.66 12.0487 113.895 10.9695 114.349 9.97638C114.801 8.99911 115.454 8.12845 116.267 7.42187C117.116 6.67911 118.092 6.09451 119.147 5.69585C120.3 5.26193 121.522 5.04539 122.753 5.05723C123.968 5.0482 125.173 5.26476 126.308 5.69585C127.363 6.09583 128.338 6.68032 129.188 7.42187C130.002 8.1323 130.663 9.00158 131.129 9.97638C131.598 10.9654 131.842 12.0462 131.842 13.1407C131.842 14.2353 131.598 15.3161 131.129 16.3051C130.66 17.2779 130 18.1467 129.188 18.8596C128.337 19.5994 127.362 20.1836 126.308 20.5856C125.166 21.0195 123.952 21.2362 122.73 21.2243H122.753ZM122.753 16.6215C123.105 16.61 123.447 16.5102 123.749 16.3311C124.051 16.1521 124.304 15.8997 124.482 15.5974C124.972 14.8757 125.222 14.0181 125.196 13.1465C125.222 12.2749 124.972 11.4173 124.482 10.6956C124.308 10.3905 124.057 10.1368 123.753 9.96027C123.45 9.78381 123.105 9.69084 122.753 9.69084C122.402 9.69084 122.058 9.78381 121.754 9.96027C121.45 10.1368 121.199 10.3905 121.025 10.6956C120.535 11.4173 120.285 12.2749 120.311 13.1465C120.267 14.0139 120.497 14.8731 120.968 15.6032C121.149 15.9107 121.406 16.1665 121.715 16.3458C122.024 16.5252 122.373 16.6222 122.73 16.6273L122.753 16.6215Z" fill="#9951FF"/>
<path d="M144.977 42.8339C143.746 42.8458 142.523 42.6292 141.371 42.1953C140.316 41.7953 139.34 41.2108 138.491 40.4693C137.678 39.7627 137.024 38.892 136.573 37.9148C136.122 36.9206 135.888 35.8418 135.888 34.7504C135.888 33.659 136.122 32.5802 136.573 31.586C137.027 30.6105 137.68 29.7405 138.491 29.0315C139.342 28.2918 140.317 27.7075 141.371 27.3055C142.523 26.8716 143.746 26.655 144.977 26.6669C146.191 26.6579 147.396 26.8744 148.531 27.3055C149.586 27.7062 150.561 28.2906 151.411 29.0315C152.224 29.7445 152.884 30.6132 153.353 31.586C153.825 32.5741 154.071 33.6553 154.071 34.7504C154.071 35.8456 153.825 36.9268 153.353 37.9148C152.887 38.8896 152.226 39.7588 151.411 40.4693C150.562 41.212 149.587 41.7966 148.531 42.1953C147.396 42.6264 146.191 42.8429 144.977 42.8339ZM140.167 60.1517L154.643 43.8523L167.483 26.6381L171.728 30.4929L157.869 46.2572L144.412 63.9835L140.167 60.1517ZM144.977 38.237C145.328 38.226 145.671 38.1263 145.973 37.9472C146.275 37.7681 146.527 37.5155 146.705 37.2129C147.171 36.4802 147.419 35.63 147.419 34.7619C147.419 33.8938 147.171 33.0436 146.705 32.311C146.532 32.0059 146.281 31.7522 145.977 31.5757C145.673 31.3992 145.328 31.3063 144.977 31.3063C144.626 31.3063 144.281 31.3992 143.977 31.5757C143.673 31.7522 143.422 32.0059 143.249 32.311C142.782 33.0436 142.535 33.8938 142.535 34.7619C142.535 35.63 142.782 36.4802 143.249 37.2129C143.427 37.5151 143.679 37.7675 143.981 37.9465C144.283 38.1256 144.626 38.2255 144.977 38.237ZM166.924 63.9835C165.691 63.995 164.466 63.7787 163.312 63.3449C162.257 62.9433 161.283 62.3593 160.432 61.6189C159.622 60.91 158.968 60.0395 158.514 59.0643C158.06 58.0707 157.825 56.9917 157.825 55.8999C157.825 54.808 158.06 53.7289 158.514 52.7355C158.967 51.7609 159.62 50.8925 160.432 50.1867C161.282 49.4447 162.257 48.8602 163.312 48.4607C164.466 48.0269 165.691 47.8104 166.924 47.8221C168.149 47.8164 169.363 48.0388 170.507 48.478C171.562 48.8775 172.537 49.4619 173.387 50.204C174.202 50.9132 174.865 51.7803 175.334 52.7528C175.802 53.742 176.045 54.8228 176.045 55.9171C176.045 57.0115 175.802 58.092 175.334 59.0816C174.863 60.0551 174.201 60.9238 173.387 61.6361C172.536 62.3766 171.561 62.9605 170.507 63.3621C169.362 63.7896 168.146 64.0002 166.924 63.9835ZM166.924 59.3808C167.275 59.3704 167.618 59.2709 167.921 59.0914C168.223 58.9125 168.475 58.6593 168.652 58.3567C169.123 57.6254 169.373 56.7747 169.373 55.9056C169.373 55.0366 169.123 54.1858 168.652 53.4547C168.48 53.1481 168.229 52.8929 167.925 52.7153C167.622 52.5376 167.276 52.444 166.924 52.444C166.572 52.444 166.226 52.5376 165.923 52.7153C165.619 52.8929 165.368 53.1481 165.196 53.4547C164.725 54.1858 164.475 55.0366 164.475 55.9056C164.475 56.7747 164.725 57.6254 165.196 58.3567C165.372 58.661 165.623 58.9153 165.926 59.0954C166.228 59.2761 166.572 59.3762 166.924 59.3865V59.3808Z" fill="#9951FF"/>
<path d="M215.315 88.6655C214.084 88.6776 212.861 88.4607 211.709 88.0269C210.655 87.6259 209.68 87.0419 208.829 86.3009C208.016 85.5944 207.362 84.7239 206.911 83.7464C206.456 82.7533 206.221 81.674 206.221 80.582C206.221 79.49 206.456 78.4107 206.911 77.4176C207.362 76.4401 208.016 75.5696 208.829 74.8631C209.68 74.1221 210.654 73.5376 211.709 73.1371C212.861 72.7033 214.084 72.4864 215.315 72.4985C216.529 72.4893 217.734 72.7062 218.869 73.1371C219.923 73.5393 220.899 74.1232 221.749 74.8631C222.565 75.5737 223.225 76.443 223.691 77.4176C224.16 78.4066 224.404 79.4877 224.404 80.582C224.404 81.6763 224.16 82.7574 223.691 83.7464C223.225 84.721 222.565 85.5903 221.749 86.3009C220.899 87.0402 219.923 87.6247 218.869 88.0269C217.734 88.4578 216.529 88.6747 215.315 88.6655ZM210.505 105.983L224.981 89.6839L237.821 72.4927L242.066 76.3245L228.201 92.106L214.751 109.838L210.505 105.983ZM215.315 84.0628C215.666 84.0513 216.008 83.9523 216.31 83.774C216.612 83.5962 216.864 83.3454 217.043 83.0445C217.507 82.3097 217.753 81.4588 217.753 80.5906C217.753 79.7224 217.507 78.8715 217.043 78.1368C216.869 77.833 216.617 77.581 216.314 77.4056C216.01 77.2301 215.666 77.138 215.315 77.138C214.965 77.138 214.62 77.2301 214.317 77.4056C214.014 77.581 213.762 77.833 213.587 78.1368C213.124 78.8715 212.878 79.7224 212.878 80.5906C212.878 81.4588 213.124 82.3097 213.587 83.0445C213.766 83.3459 214.018 83.5968 214.321 83.7751C214.623 83.9529 214.965 84.0519 215.315 84.0628ZM237.256 109.815C236.025 109.827 234.802 109.61 233.65 109.176C232.596 108.775 231.621 108.191 230.77 107.45C229.957 106.744 229.304 105.873 228.852 104.896C228.402 103.902 228.168 102.823 228.168 101.731C228.168 100.64 228.402 99.5613 228.852 98.5671C229.306 97.5913 229.96 96.7214 230.77 96.0126C231.622 95.2739 232.597 94.6899 233.65 94.2866C234.802 93.8528 236.025 93.6359 237.256 93.648C238.471 93.6388 239.676 93.8557 240.81 94.2866C241.865 94.687 242.84 95.2716 243.691 96.0126C244.503 96.7254 245.163 97.5942 245.632 98.5671C246.105 99.555 246.351 100.637 246.351 101.731C246.351 102.826 246.105 103.908 245.632 104.896C245.166 105.87 244.506 106.74 243.691 107.45C242.842 108.193 241.866 108.778 240.81 109.176C239.676 109.607 238.471 109.824 237.256 109.815ZM237.256 105.212C237.608 105.201 237.95 105.102 238.253 104.922C238.555 104.743 238.806 104.491 238.984 104.188C239.451 103.456 239.699 102.605 239.699 101.737C239.699 100.869 239.451 100.019 238.984 99.2863C238.811 98.9814 238.56 98.7276 238.256 98.551C237.953 98.3744 237.608 98.2817 237.256 98.2817C236.906 98.2817 236.56 98.3744 236.257 98.551C235.953 98.7276 235.702 98.9814 235.528 99.2863C235.062 100.019 234.815 100.869 234.815 101.737C234.815 102.605 235.062 103.456 235.528 104.188C235.706 104.491 235.958 104.745 236.26 104.925C236.562 105.105 236.905 105.206 237.256 105.218V105.212Z" fill="#9951FF"/>
<path d="M44.2324 4.09069C43.0012 4.10253 41.7785 3.88599 40.6264 3.45206C39.5718 3.05118 38.5967 2.46681 37.7462 1.72605C36.9333 1.01946 36.2796 0.148832 35.828 -0.82846C35.3735 -1.82162 35.1383 -2.90083 35.1383 -3.99283C35.1383 -5.08482 35.3735 -6.16404 35.828 -7.15719C36.2796 -8.13446 36.9333 -9.00512 37.7462 -9.71169C38.5965 -10.4527 39.5717 -11.037 40.6264 -11.4377C41.7785 -11.8716 43.0012 -12.0882 44.2324 -12.0763C45.4465 -12.0854 46.6517 -11.8688 47.7865 -11.4377C48.8406 -11.0357 49.8156 -10.4515 50.6667 -9.71169C51.4814 -9.00127 52.142 -8.13199 52.608 -7.15719C53.0774 -6.16818 53.3209 -5.08734 53.3209 -3.99283C53.3209 -2.89831 53.0774 -1.81748 52.608 -0.82846C52.142 0.146315 51.4814 1.01563 50.6667 1.72605C49.8154 2.46563 48.8405 3.04987 47.7865 3.45206C46.6517 3.88316 45.4465 4.09972 44.2324 4.09069ZM39.4225 21.4084L53.8983 5.10904L66.7379 -12.0821L70.9833 -8.25033L57.1183 7.53122L43.6679 25.2632L39.4225 21.4084ZM44.2324 -0.512023C44.5828 -0.523446 44.9247 -0.622702 45.2267 -0.800648C45.5287 -0.978601 45.7811 -1.22953 45.9605 -1.53037C46.424 -2.26509 46.67 -3.11578 46.67 -3.98419C46.67 -4.85261 46.424 -5.70331 45.9605 -6.43802C45.7858 -6.74162 45.5341 -6.99379 45.2307 -7.16916C44.9273 -7.34458 44.583 -7.43692 44.2324 -7.43692C43.8819 -7.43692 43.5375 -7.34458 43.2341 -7.16916C42.9306 -6.99379 42.6789 -6.74162 42.5043 -6.43802C42.0407 -5.70331 41.7948 -4.85261 41.7948 -3.98419C41.7948 -3.11578 42.0407 -2.26509 42.5043 -1.53037C42.6834 -1.22918 42.9356 -0.977957 43.2376 -0.799958C43.5397 -0.621954 43.8819 -0.522921 44.2324 -0.512023ZM66.1734 25.2402C64.9424 25.252 63.7195 25.0354 62.5674 24.6015C61.5133 24.2002 60.538 23.6159 59.6872 22.8755C58.8744 22.1689 58.2206 21.2983 57.769 20.321C57.3184 19.3269 57.0852 18.2481 57.0852 17.1566C57.0852 16.0653 57.3184 14.9865 57.769 13.9923C58.2235 13.0167 58.8773 12.1467 59.6872 11.4378C60.5392 10.6991 61.5144 10.115 62.5674 9.71175C63.7195 9.27783 64.9424 9.06127 66.1734 9.07313C67.3877 9.06409 68.5927 9.28065 69.7275 9.71175C70.7823 10.1124 71.7575 10.6968 72.6077 11.4378C73.4199 12.1507 74.0801 13.0194 74.549 13.9923C75.0225 14.9803 75.2679 16.0615 75.2679 17.1566C75.2679 18.2518 75.0225 19.333 74.549 20.321C74.0835 21.2958 73.4228 22.1651 72.6077 22.8755C71.7592 23.6183 70.7834 24.2029 69.7275 24.6015C68.5927 25.0326 67.3877 25.2492 66.1734 25.2402ZM66.1734 20.6374C66.5248 20.6265 66.8675 20.5268 67.1699 20.3477C67.4718 20.1686 67.7235 19.916 67.9015 19.6133C68.3681 18.8807 68.6158 18.0305 68.6158 17.1624C68.6158 16.2943 68.3681 15.4441 67.9015 14.7114C67.7281 14.4064 67.477 14.1527 67.1734 13.9762C66.8698 13.7997 66.5248 13.7067 66.1734 13.7067C65.8226 13.7067 65.4775 13.7997 65.174 13.9762C64.8704 14.1527 64.6192 14.4064 64.4453 14.7114C63.9793 15.4441 63.7316 16.2943 63.7316 17.1624C63.7316 18.0305 63.9793 18.8807 64.4453 19.6133C64.6233 19.9167 64.875 20.1702 65.1769 20.3502C65.4793 20.5303 65.822 20.6311 66.1734 20.6432V20.6374Z" fill="#9951FF"/>
<path d="M104.716 46.6658C103.485 46.6776 102.262 46.4611 101.11 46.0271C100.056 45.6262 99.0806 45.0419 98.2298 44.3011C97.4171 43.5945 96.7633 42.7239 96.3116 41.7466C95.8572 40.7535 95.6221 39.6742 95.6221 38.5822C95.6221 37.4903 95.8572 36.411 96.3116 35.4179C96.7633 34.4406 97.4171 33.57 98.2298 32.8634C99.0806 32.1224 100.055 31.538 101.11 31.1374C102.262 30.7034 103.485 30.4869 104.716 30.4987C105.93 30.4897 107.135 30.7063 108.27 31.1374C109.324 31.5393 110.3 32.1236 111.15 32.8634C111.965 33.5738 112.626 34.4431 113.092 35.4179C113.561 36.4069 113.805 37.4877 113.805 38.5822C113.805 39.6768 113.561 40.7576 113.092 41.7466C112.626 42.7214 111.965 43.5907 111.15 44.3011C110.3 45.0407 109.324 45.625 108.27 46.0271C107.135 46.4582 105.93 46.6748 104.716 46.6658ZM99.9061 63.9835L114.382 47.6841L127.222 30.493L131.467 34.3247L117.602 50.1063L104.152 67.8382L99.9061 63.9835ZM104.716 42.0631C105.067 42.0516 105.408 41.9524 105.711 41.7744C106.013 41.5964 106.265 41.3455 106.444 41.0447C106.908 40.31 107.154 39.4593 107.154 38.5909C107.154 37.7225 106.908 36.8718 106.444 36.1371C106.27 35.8335 106.018 35.5813 105.715 35.4059C105.411 35.2305 105.067 35.1382 104.716 35.1382C104.366 35.1382 104.021 35.2305 103.718 35.4059C103.415 35.5813 103.163 35.8335 102.988 36.1371C102.525 36.8718 102.279 37.7225 102.279 38.5909C102.279 39.4593 102.525 40.31 102.988 41.0447C103.167 41.3459 103.419 41.5971 103.722 41.7751C104.024 41.9531 104.366 42.0522 104.716 42.0631ZM126.657 67.8152C125.426 67.8273 124.203 67.6104 123.051 67.1766C121.997 66.775 121.022 66.191 120.171 65.4506C119.358 64.7441 118.705 63.8736 118.253 62.8961C117.802 61.9019 117.569 60.8231 117.569 59.7317C117.569 58.6403 117.802 57.5615 118.253 56.5673C118.707 55.5918 119.361 54.7218 120.171 54.0128C121.023 53.2742 121.998 52.6901 123.051 52.2868C124.203 51.8529 125.426 51.6363 126.657 51.6482C127.872 51.6392 129.077 51.8557 130.211 52.2868C131.266 52.6875 132.241 53.2719 133.092 54.0128C133.904 54.7258 134.564 55.5945 135.033 56.5673C135.506 57.5552 135.752 58.6368 135.752 59.7317C135.752 60.8266 135.506 61.9082 135.033 62.8961C134.567 63.8707 133.907 64.74 133.092 65.4506C132.243 66.1933 131.267 66.7779 130.211 67.1766C129.077 67.6075 127.872 67.8244 126.657 67.8152ZM126.657 63.2125C127.009 63.2016 127.351 63.102 127.654 62.9225C127.956 62.7436 128.207 62.491 128.385 62.1884C128.852 61.456 129.1 60.6057 129.1 59.7375C129.1 58.8693 128.852 58.0189 128.385 57.2865C128.212 56.9815 127.961 56.7278 127.657 56.5513C127.354 56.3748 127.009 56.2818 126.657 56.2818C126.306 56.2818 125.961 56.3748 125.658 56.5513C125.354 56.7278 125.103 56.9815 124.929 57.2865C124.463 58.0189 124.215 58.8693 124.215 59.7375C124.215 60.6057 124.463 61.456 124.929 62.1884C125.107 62.4916 125.359 62.7453 125.661 62.9254C125.963 63.1055 126.306 63.2062 126.657 63.2183V63.2125Z" fill="#9951FF"/>
<path d="M14.8545 94.9943C13.6233 95.0063 12.4006 94.7894 11.2485 94.3556C10.1939 93.9546 9.21879 93.3706 8.36833 92.6296C7.55542 91.9231 6.90168 91.0526 6.45012 90.0751C5.99563 89.0821 5.76038 88.0027 5.76038 86.9107C5.76038 85.8187 5.99563 84.7394 6.45012 83.7464C6.90168 82.7689 7.55542 81.8984 8.36833 81.1919C9.21861 80.4508 10.1938 79.8663 11.2485 79.4658C12.4006 79.032 13.6233 78.8151 14.8545 78.8272C16.0686 78.818 17.2739 79.0349 18.4086 79.4658C19.4627 79.868 20.4377 80.452 21.2888 81.1919C22.1035 81.9024 22.7641 82.7717 23.2301 83.7464C23.6995 84.7354 23.943 85.8164 23.943 86.9107C23.943 88.005 23.6995 89.0861 23.2301 90.0751C22.7641 91.0497 22.1035 91.9191 21.2888 92.6296C20.4376 93.3689 19.4626 93.9535 18.4086 94.3556C17.2739 94.7866 16.0686 95.0035 14.8545 94.9943ZM10.0446 112.312L24.5204 96.0126L37.3603 78.8215L41.6057 82.6532L27.7404 98.4348L14.29 116.167L10.0446 112.312ZM14.8545 90.3915C15.205 90.38 15.5468 90.2811 15.8489 90.1027C16.1508 89.9249 16.4032 89.6741 16.5826 89.3732C17.0461 88.6385 17.2921 87.7876 17.2921 86.9194C17.2921 86.0512 17.0461 85.2003 16.5826 84.4655C16.408 84.1618 16.1562 83.9098 15.8528 83.7343C15.5494 83.5588 15.2051 83.4668 14.8545 83.4668C14.504 83.4668 14.1596 83.5588 13.8562 83.7343C13.5528 83.9098 13.301 84.1618 13.1264 84.4655C12.6629 85.2003 12.4169 86.0512 12.4169 86.9194C12.4169 87.7876 12.6629 88.6385 13.1264 89.3732C13.3055 89.6747 13.5577 89.9255 13.8597 90.1039C14.1618 90.2817 14.504 90.3806 14.8545 90.3915ZM36.7957 116.144C35.5645 116.156 34.3418 115.939 33.1898 115.505C32.1354 115.104 31.1603 114.52 30.3096 113.779C29.4967 113.073 28.8429 112.202 28.3914 111.225C27.9405 110.23 27.7073 109.152 27.7073 108.06C27.7073 106.969 27.9405 105.89 28.3914 104.896C28.8459 103.92 29.4992 103.05 30.3096 102.341C31.1616 101.603 32.1363 101.019 33.1898 100.615C34.3418 100.182 35.5645 99.9646 36.7957 99.9767C38.0099 99.9675 39.2151 100.184 40.3499 100.615C41.4046 101.016 42.3798 101.6 43.2301 102.341C44.0421 103.054 44.7023 103.923 45.1713 104.896C45.6443 105.884 45.8898 106.965 45.8898 108.06C45.8898 109.155 45.6443 110.237 45.1713 111.225C44.7054 112.199 44.0448 113.069 43.2301 113.779C42.3811 114.522 41.4056 115.106 40.3499 115.505C39.2151 115.936 38.0099 116.153 36.7957 116.144ZM36.7957 111.541C37.147 111.53 37.4897 111.431 37.7919 111.251C38.0941 111.072 38.3459 110.82 38.5239 110.517C38.9902 109.784 39.2379 108.934 39.2379 108.066C39.2379 107.198 38.9902 106.347 38.5239 105.615C38.3504 105.31 38.0991 105.056 37.7955 104.88C37.492 104.703 37.147 104.61 36.7957 104.61C36.4445 104.61 36.0995 104.703 35.796 104.88C35.4924 105.056 35.2411 105.31 35.0676 105.615C34.6013 106.347 34.3536 107.198 34.3536 108.066C34.3536 108.934 34.6013 109.784 35.0676 110.517C35.2453 110.82 35.497 111.074 35.7991 111.254C36.1013 111.434 36.4441 111.535 36.7957 111.547V111.541Z" fill="#9951FF"/>
<path d="M85.9297 116.857C84.6987 116.869 83.4758 116.652 82.3237 116.218C81.269 115.817 80.2944 115.234 79.4435 114.492C78.6308 113.786 77.977 112.915 77.5253 111.938C77.0708 110.945 76.8358 109.866 76.8358 108.774C76.8358 107.682 77.0708 106.602 77.5253 105.609C77.977 104.632 78.6308 103.761 79.4435 103.055C80.2938 102.314 81.269 101.729 82.3237 101.329C83.4758 100.895 84.6987 100.678 85.9297 100.69C87.144 100.681 88.3491 100.898 89.4839 101.329C90.538 101.731 91.5132 102.315 92.364 103.055C93.1786 103.765 93.8393 104.635 94.3053 105.609C94.7748 106.598 95.0184 107.679 95.0184 108.774C95.0184 109.868 94.7748 110.949 94.3053 111.938C93.8393 112.913 93.1786 113.782 92.364 114.492C91.5127 115.232 90.538 115.816 89.4839 116.218C88.3491 116.649 87.144 116.866 85.9297 116.857ZM81.1198 134.175L95.5956 117.875L108.435 100.684L112.681 104.516L98.8157 120.298L85.3652 138.03L81.1198 134.175ZM85.9297 112.254C86.2799 112.243 86.6221 112.144 86.924 111.966C87.2264 111.788 87.4787 111.537 87.6578 111.236C88.1215 110.501 88.3675 109.65 88.3675 108.782C88.3675 107.914 88.1215 107.063 87.6578 106.328C87.4833 106.025 87.2316 105.773 86.928 105.597C86.625 105.422 86.2805 105.33 85.9297 105.33C85.5795 105.33 85.235 105.422 84.9314 105.597C84.6279 105.773 84.3761 106.025 84.2016 106.328C83.7379 107.063 83.4919 107.914 83.4919 108.782C83.4919 109.65 83.7379 110.501 84.2016 111.236C84.3808 111.538 84.6331 111.788 84.9349 111.967C85.2373 112.145 85.5795 112.243 85.9297 112.254ZM107.871 138.007C106.64 138.019 105.417 137.802 104.265 137.368C103.211 136.966 102.236 136.382 101.385 135.642C100.572 134.935 99.9182 134.065 99.4666 133.087C99.0155 132.093 98.7828 131.014 98.7828 129.923C98.7828 128.832 99.0155 127.753 99.4666 126.759C99.9211 125.783 100.574 124.913 101.385 124.204C102.237 123.465 103.211 122.881 104.265 122.478C105.417 122.044 106.64 121.827 107.871 121.84C109.085 121.83 110.29 122.047 111.425 122.478C112.48 122.879 113.455 123.463 114.305 124.204C115.118 124.917 115.778 125.786 116.247 126.759C116.719 127.747 116.965 128.828 116.965 129.923C116.965 131.018 116.719 132.1 116.247 133.087C115.781 134.062 115.12 134.931 114.305 135.642C113.456 136.385 112.481 136.969 111.425 137.368C110.29 137.799 109.085 138.016 107.871 138.007ZM107.871 133.404C108.222 133.393 108.565 133.293 108.867 133.114C109.169 132.935 109.421 132.682 109.599 132.38C110.066 131.647 110.313 130.797 110.313 129.929C110.313 129.061 110.066 128.21 109.599 127.478C109.426 127.173 109.175 126.919 108.871 126.743C108.567 126.566 108.222 126.473 107.871 126.473C107.52 126.473 107.175 126.566 106.872 126.743C106.568 126.919 106.316 127.173 106.143 127.478C105.677 128.21 105.429 129.061 105.429 129.929C105.429 130.797 105.677 131.647 106.143 132.38C106.321 132.683 106.572 132.937 106.874 133.117C107.176 133.297 107.52 133.398 107.871 133.41V133.404Z" fill="#9951FF"/>
<path d="M198.324 -13.1581C198.348 -11.0448 198.001 -8.94373 197.298 -6.95018C196.672 -5.15036 195.711 -3.48518 194.464 -2.04251C193.271 -0.690401 191.807 0.397279 190.167 1.15062C188.475 1.92557 186.632 2.31845 184.77 2.3013C182.908 2.31845 181.065 1.92557 179.372 1.15062C177.73 0.392023 176.266 -0.703835 175.075 -2.06552C173.832 -3.50246 172.868 -5.1592 172.235 -6.95018C171.537 -8.94476 171.193 -11.0454 171.215 -13.1581C171.193 -15.2688 171.538 -17.3674 172.235 -19.3602C172.866 -21.1593 173.829 -22.8241 175.075 -24.2679C176.267 -25.6348 177.73 -26.7398 179.372 -27.5128C181.063 -28.2947 182.907 -28.6879 184.77 -28.6635C186.632 -28.6879 188.477 -28.2947 190.167 -27.5128C191.808 -26.7382 193.271 -25.6335 194.464 -24.2679C195.711 -22.8252 196.672 -21.16 197.298 -19.3602C198.001 -17.3685 198.347 -15.2694 198.324 -13.1581ZM188.502 -13.1581C188.573 -14.821 188.211 -16.4739 187.454 -17.9564C186.757 -19.1819 185.858 -19.7975 184.77 -19.7975C183.681 -19.7975 182.679 -19.1819 181.982 -17.9564C181.224 -16.4739 180.863 -14.821 180.933 -13.1581C180.86 -11.5004 181.221 -9.8523 181.982 -8.37702C182.679 -7.16881 183.612 -6.5647 184.77 -6.5647C185.927 -6.5647 186.757 -7.16881 187.454 -8.37702C188.214 -9.8523 188.576 -11.5004 188.502 -13.1581Z" fill="#9951FF"/>
<path d="M211.267 -18.8251C210.035 -18.8134 208.81 -19.0299 207.656 -19.4638C206.6 -19.8632 205.625 -20.4478 204.775 -21.1898C203.963 -21.8964 203.309 -22.767 202.857 -23.7443C202.395 -24.735 202.159 -25.8158 202.166 -26.9087C202.159 -28.0034 202.395 -29.086 202.857 -30.0788C203.312 -31.0543 203.965 -31.9243 204.775 -32.6333C205.626 -33.3737 206.601 -33.958 207.656 -34.3593C208.81 -34.7932 210.035 -35.0097 211.267 -34.9979C212.482 -35.0062 213.687 -34.7897 214.821 -34.3593C215.876 -33.958 216.851 -33.3737 217.702 -32.6333C218.516 -31.9209 219.178 -31.0521 219.649 -30.0788C220.126 -29.0904 220.37 -28.006 220.363 -26.9087C220.37 -25.8132 220.126 -24.7307 219.649 -23.7443C219.181 -22.7693 218.518 -21.9 217.702 -21.1898C216.852 -20.4478 215.877 -19.8632 214.821 -19.4638C213.687 -19.0335 212.482 -18.8169 211.267 -18.8251ZM206.457 -1.50744L220.933 -17.8068L233.773 -35.0209L238.018 -31.1892L224.153 -15.4019L210.703 2.3013L206.457 -1.50744ZM211.267 -23.4221C211.619 -23.432 211.962 -23.5312 212.264 -23.7105C212.567 -23.8896 212.819 -24.1429 212.995 -24.4462C213.485 -25.1681 213.735 -26.0256 213.71 -26.8971C213.736 -27.7662 213.488 -28.6214 213.001 -29.3423C212.824 -29.6457 212.573 -29.8989 212.27 -30.0781C211.968 -30.2573 211.624 -30.3565 211.273 -30.3664C210.922 -30.3565 210.578 -30.2573 210.276 -30.0781C209.974 -29.8989 209.722 -29.6457 209.545 -29.3423C209.053 -28.6212 208.801 -27.7637 208.825 -26.8914C208.801 -26.0192 209.053 -25.1616 209.545 -24.4404C209.722 -24.139 209.974 -23.8874 210.275 -23.7093C210.576 -23.5312 210.918 -23.4324 211.267 -23.4221ZM233.209 2.3013C231.978 2.31314 230.755 2.0966 229.603 1.66268C228.547 1.26402 227.571 0.679416 226.722 -0.0633409C225.91 -0.769927 225.256 -1.64055 224.804 -2.61785C224.335 -3.59707 224.087 -4.66767 224.078 -5.75343C224.073 -6.84807 224.308 -7.93058 224.77 -8.92355C225.224 -9.8991 225.877 -10.7691 226.688 -11.4781C227.538 -12.219 228.513 -12.8034 229.568 -13.2041C230.733 -13.6305 231.968 -13.8354 233.209 -13.8082C234.418 -13.8195 235.619 -13.6069 236.751 -13.1811C237.805 -12.7791 238.781 -12.1948 239.631 -11.455C240.444 -10.7421 241.104 -9.87338 241.573 -8.90054C242.056 -7.92125 242.31 -6.84514 242.316 -5.75343C242.321 -4.65755 242.075 -3.57503 241.596 -2.58908C241.127 -1.59982 240.459 -0.718285 239.631 -5.32859e-05C238.782 0.7415 237.806 1.32597 236.751 1.72596C235.616 2.1341 234.415 2.32915 233.209 2.3013ZM233.209 -2.30141C233.56 -2.31291 233.902 -2.41281 234.205 -2.59185C234.506 -2.77088 234.759 -3.02324 234.937 -3.32551C235.426 -4.03941 235.68 -4.88834 235.662 -5.75343C235.688 -6.62513 235.438 -7.48273 234.948 -8.20438C234.77 -8.50666 234.518 -8.75901 234.216 -8.93805C233.914 -9.1171 233.571 -9.21698 233.22 -9.22848C232.869 -9.21755 232.527 -9.11784 232.224 -8.93874C231.922 -8.7597 231.67 -8.50701 231.492 -8.20438C230.994 -7.48544 230.736 -6.6276 230.755 -5.75343C230.729 -4.88178 230.979 -4.02418 231.469 -3.3025C231.647 -2.99718 231.901 -2.74236 232.205 -2.56214C232.509 -2.38192 232.855 -2.28228 233.209 -2.27264V-2.30141Z" fill="#9951FF"/>
<path d="M242.512 29.6011C242.533 31.7142 242.186 33.8147 241.486 35.809C240.858 37.6091 239.895 39.2743 238.646 40.7167C237.456 42.0783 235.992 43.1742 234.349 43.9328C232.652 44.6912 230.814 45.0833 228.955 45.0833C227.096 45.0833 225.257 44.6912 223.56 43.9328C221.917 43.1742 220.453 42.0783 219.263 40.7167C218.015 39.2743 217.051 37.6091 216.423 35.809C215.737 33.8123 215.404 31.7117 215.438 29.6011C215.416 27.4885 215.761 25.3881 216.457 23.3932C217.087 21.5954 218.051 19.9324 219.297 18.4913C220.49 17.1244 221.953 16.0194 223.594 15.2464C225.287 14.4731 227.127 14.0729 228.989 14.0729C230.851 14.0729 232.691 14.4731 234.384 15.2464C236.025 16.0194 237.489 17.1244 238.681 18.4913C239.928 19.9324 240.891 21.5954 241.521 23.3932C242.208 25.3898 242.543 27.4902 242.512 29.6011ZM232.69 29.6011C232.76 27.9381 232.399 26.2853 231.642 24.8028C230.939 23.5754 230.044 22.9617 228.957 22.9617C227.805 22.9617 226.876 23.5754 226.169 24.8028C225.409 26.2843 225.048 27.9379 225.121 29.6011C225.045 31.259 225.407 32.9078 226.169 34.3822C226.869 35.5904 227.798 36.1945 228.957 36.1945C230.044 36.1945 230.939 35.5904 231.642 34.3822C232.412 32.9095 232.783 31.2614 232.719 29.6011H232.69Z" fill="#9951FF"/>
<path d="M255.455 23.9341C254.224 23.9459 253.001 23.7294 251.849 23.2955C250.794 22.8961 249.819 22.3115 248.969 21.5695C248.153 20.8658 247.498 19.9944 247.051 19.0149C246.596 18.0218 246.361 16.9426 246.361 15.8506C246.361 14.7586 246.596 13.6794 247.051 12.6863C247.5 11.7075 248.154 10.8364 248.969 10.1318C249.82 9.39135 250.795 8.80703 251.849 8.40574C253.001 7.97176 254.224 7.75526 255.455 7.76711C256.669 7.75808 257.874 7.97463 259.009 8.40574C260.064 8.80634 261.039 9.39077 261.889 10.1318C262.702 10.8456 263.36 11.7166 263.825 12.692C264.298 13.68 264.543 14.7612 264.543 15.8564C264.543 16.9515 264.298 18.0327 263.825 19.0207C263.359 19.9955 262.698 20.8648 261.884 21.5752C261.035 22.318 260.059 22.9026 259.003 23.3013C257.87 23.7297 256.667 23.9443 255.455 23.9341ZM250.651 41.2518L265.121 24.9524L277.961 7.73834L282.206 11.5701L268.347 27.3573L254.896 45.0836L250.651 41.2518ZM255.455 19.3372C255.806 19.3251 256.149 19.225 256.45 19.046C256.752 18.867 257.005 18.615 257.183 18.3131C257.673 17.5914 257.923 16.7338 257.897 15.8621C257.922 14.9888 257.672 14.1297 257.183 13.4054C257.009 13.1018 256.757 12.8496 256.453 12.6742C256.15 12.4989 255.806 12.4065 255.455 12.4065C255.104 12.4065 254.76 12.4989 254.457 12.6742C254.153 12.8496 253.902 13.1018 253.727 13.4054C253.238 14.1297 252.988 14.9888 253.013 15.8621C252.987 16.7338 253.237 17.5914 253.727 18.3131C253.906 18.6146 254.158 18.8664 254.46 19.0453C254.762 19.2242 255.104 19.3246 255.455 19.3372ZM277.402 45.0836C276.171 45.0954 274.948 44.8789 273.796 44.445C272.74 44.0463 271.765 43.4617 270.916 42.719C270.108 42.0145 269.459 41.1481 269.009 40.176C268.555 39.1828 268.32 38.1036 268.32 37.0116C268.32 35.9196 268.555 34.8404 269.009 33.8472C269.464 32.8717 270.117 32.0016 270.927 31.2927C271.778 30.5517 272.753 29.9673 273.808 29.5667C274.96 29.1327 276.183 28.9162 277.414 28.928C278.628 28.9198 279.833 29.1364 280.968 29.5667C282.022 29.968 282.997 30.5523 283.848 31.2927C284.662 32.0051 285.324 32.8738 285.795 33.8472C286.264 34.8362 286.508 35.9171 286.508 37.0116C286.508 38.1061 286.264 39.1869 285.795 40.176C285.327 41.151 284.664 42.0203 283.848 42.7304C282.998 43.4725 282.023 44.057 280.968 44.4564C279.828 44.8842 278.619 45.0969 277.402 45.0836ZM277.402 40.4809C277.753 40.471 278.097 40.3718 278.399 40.1925C278.702 40.0134 278.953 39.7601 279.13 39.4568C279.601 38.7256 279.851 37.8749 279.851 37.0058C279.851 36.1367 279.601 35.286 279.13 34.5549C278.958 34.2483 278.707 33.9931 278.403 33.8155C278.1 33.6378 277.754 33.5442 277.402 33.5442C277.05 33.5442 276.705 33.6378 276.401 33.8155C276.097 33.9931 275.846 34.2483 275.674 34.5549C275.203 35.286 274.953 36.1367 274.953 37.0058C274.953 37.8749 275.203 38.7256 275.674 39.4568C275.85 39.7612 276.102 40.0156 276.404 40.1958C276.707 40.376 277.05 40.4761 277.402 40.4866V40.4809Z" fill="#9951FF"/>
<path d="M-9.17033 18.8308C-10.4016 18.8426 -11.6242 18.6261 -12.7763 18.1921C-13.8307 17.7908 -14.8058 17.2065 -15.6565 16.4661C-16.4726 15.7625 -17.1269 14.8911 -17.5747 13.9116C-18.0367 12.9189 -18.2728 11.8363 -18.266 10.7415C-18.2722 9.6487 -18.0361 8.5681 -17.5747 7.57713C-17.1269 6.59768 -16.4726 5.72631 -15.6565 5.02265C-14.8056 4.28258 -13.8306 3.69828 -12.7763 3.29663C-11.6242 2.86271 -10.4016 2.64617 -9.17033 2.65801C-7.95443 2.65816 -6.74913 2.88448 -5.61619 3.3254C-4.56158 3.72629 -3.58644 4.31066 -2.736 5.05142C-1.91671 5.75716 -1.25026 6.62247 -0.77748 7.59439C-0.30351 8.58191 -0.0593216 9.66372 -0.0631932 10.7588C-0.0586511 11.8558 -0.302851 12.9396 -0.77748 13.9289C-1.24554 14.904 -1.90809 15.7732 -2.72448 16.4834C-3.57478 17.2244 -4.54995 17.8087 -5.60467 18.2094C-6.74424 18.6361 -7.95345 18.8468 -9.17033 18.8308ZM-13.9745 36.1542L0.501323 19.8549L13.3354 2.64075L17.5808 6.47248L3.72137 22.254L-9.72909 39.986L-13.9745 36.1542ZM-9.17033 14.2338C-8.81981 14.2229 -8.47765 14.1239 -8.17557 13.9459C-7.8735 13.7679 -7.62131 13.5167 -7.44222 13.2155C-6.95311 12.4912 -6.70334 11.6321 -6.72793 10.7588C-6.70414 9.88735 -6.95391 9.03038 -7.44222 8.30781C-7.62131 8.00662 -7.8735 7.75543 -8.17557 7.57742C-8.47765 7.39941 -8.81981 7.3004 -9.17033 7.28946C-9.52079 7.30091 -9.86267 7.40016 -10.1647 7.57811C-10.4666 7.75606 -10.719 8.00703 -10.8984 8.30781C-11.3867 9.03038 -11.6365 9.88735 -11.6127 10.7588C-11.6444 11.6367 -11.3985 12.5023 -10.91 13.2327C-10.7274 13.532 -10.4723 13.7805 -10.1683 13.9555C-9.86428 14.1304 -9.52114 14.2262 -9.17033 14.2338ZM12.7767 39.986C11.5455 39.9978 10.3228 39.7813 9.17068 39.3474C8.11608 38.9465 7.1409 38.3622 6.2905 37.6213C5.47666 36.9243 4.81912 36.0637 4.36077 35.0956C3.90625 34.1025 3.67101 33.0232 3.67101 31.9312C3.67101 30.8392 3.90625 29.7601 4.36077 28.7669C4.8123 27.7896 5.46606 26.919 6.27898 26.2124C7.12927 25.4714 8.10444 24.887 9.15916 24.4864C10.3112 24.0524 11.5339 23.8359 12.7652 23.8477C13.9792 23.8395 15.1842 24.0561 16.3193 24.4864C17.3728 24.8897 18.3475 25.4737 19.1995 26.2124C20.0208 26.9221 20.6891 27.7912 21.1638 28.7669C21.6332 29.7559 21.8767 30.8368 21.8767 31.9312C21.8767 33.0258 21.6332 34.1066 21.1638 35.0956C20.6959 36.0693 20.0355 36.9382 19.2225 37.6501C18.3704 38.3886 17.3957 38.9727 16.3423 39.3761C15.2018 39.7981 13.9927 40.0049 12.7767 39.986ZM12.7767 35.3833C13.1271 35.3719 13.469 35.2726 13.771 35.0947C14.073 34.9167 14.3253 34.6658 14.5048 34.3649C14.9683 33.6302 15.2143 32.7795 15.2143 31.9111C15.2143 31.0427 14.9683 30.192 14.5048 29.4573C14.3301 29.1537 14.0784 28.9015 13.775 28.7261C13.4716 28.5508 13.1272 28.4584 12.7767 28.4584C12.4261 28.4584 12.0817 28.5508 11.7783 28.7261C11.4749 28.9015 11.2232 29.1537 11.0486 29.4573C10.5783 30.1896 10.3284 31.0412 10.3284 31.9111C10.3284 32.7811 10.5783 33.6327 11.0486 34.3649C11.2276 34.6662 11.4798 34.9174 11.7819 35.0954C12.084 35.2734 12.4261 35.3724 12.7767 35.3833Z" fill="#9951FF"/>
<path d="M35.0231 61.5901C33.7919 61.6016 32.5692 61.3853 31.4171 60.9515C30.363 60.5493 29.3881 59.9653 28.5369 59.2254C27.724 58.5189 27.0703 57.6484 26.6187 56.6709C26.1642 55.6777 25.929 54.5985 25.929 53.5065C25.929 52.4145 26.1642 51.3353 26.6187 50.3421C27.0703 49.3649 27.724 48.4942 28.5369 47.7876C29.3868 47.0461 30.3621 46.4616 31.4171 46.0616C32.571 45.6375 33.7937 45.4307 35.0231 45.4518C36.2427 45.4388 37.4539 45.6534 38.5945 46.0846C39.6496 46.4846 40.6249 47.0691 41.4747 47.8106C42.2894 48.5211 42.95 49.3904 43.416 50.3652C43.889 51.3531 44.1345 52.4344 44.1345 53.5295C44.1345 54.6247 43.889 55.7059 43.416 56.6939C42.9513 57.6726 42.2907 58.546 41.4747 59.26C40.6236 59.9998 39.6486 60.5838 38.5945 60.986C37.452 61.4071 36.2409 61.6125 35.0231 61.5901ZM30.2132 78.9135L44.689 62.6142L57.5289 45.3942L61.7742 49.226L47.9148 65.0133L34.4586 82.7395L30.2132 78.9135ZM35.0231 56.9931C35.3742 56.9816 35.7167 56.8817 36.0188 56.7026C36.3209 56.5236 36.5729 56.2712 36.7512 55.969C37.2176 55.2363 37.4653 54.3861 37.4653 53.518C37.4653 52.6499 37.2176 51.7997 36.7512 51.0671C36.5766 50.7635 36.3248 50.5113 36.0214 50.3359C35.718 50.1605 35.3737 50.0682 35.0231 50.0682C34.6726 50.0682 34.3282 50.1605 34.0248 50.3359C33.7214 50.5113 33.4697 50.7635 33.295 51.0671C32.8286 51.7997 32.581 52.6499 32.581 53.518C32.581 54.3861 32.8286 55.2363 33.295 55.969C33.4729 56.2716 33.7248 56.5242 34.027 56.7033C34.3292 56.8824 34.6719 56.9821 35.0231 56.9931ZM56.9644 82.7395C55.7338 82.7499 54.5117 82.5353 53.3584 82.1067C52.3042 81.7051 51.3291 81.1205 50.4782 80.3807C49.6636 79.6759 49.0095 78.8048 48.56 77.8262C48.1055 76.8331 47.8702 75.7538 47.8702 74.6618C47.8702 73.5698 48.1055 72.4905 48.56 71.4974C49.0095 70.5188 49.6636 69.6477 50.4782 68.9429C51.3289 68.2025 52.304 67.6179 53.3584 67.2169C54.5106 66.7837 55.7332 66.5668 56.9644 66.5783C58.1786 66.5691 59.3837 66.786 60.5184 67.2169C61.5732 67.6173 62.5484 68.2019 63.3986 68.9429C64.2149 69.6529 64.8779 70.5222 65.3456 71.4974C65.8151 72.4864 66.0588 73.5675 66.0588 74.6618C66.0588 75.7561 65.8151 76.8371 65.3456 77.8262C64.8779 78.8014 64.2149 79.6707 63.3986 80.3807C62.5484 81.1211 61.5732 81.7057 60.5184 82.1067C59.3825 82.533 58.178 82.7476 56.9644 82.7395ZM56.9644 78.1368C57.3149 78.1259 57.6573 78.0269 57.9591 77.8486C58.261 77.6708 58.5133 77.4194 58.6924 77.1185C59.1625 76.3861 59.4125 75.5346 59.4125 74.6647C59.4125 73.7947 59.1625 72.9432 58.6924 72.2108C58.5179 71.9071 58.2661 71.6551 57.9626 71.4796C57.659 71.3041 57.3149 71.2121 56.9644 71.2121C56.6138 71.2121 56.2695 71.3041 55.966 71.4796C55.6626 71.6551 55.4109 71.9071 55.2362 72.2108C54.7727 72.9455 54.5267 73.7959 54.5267 74.6647C54.5267 75.5328 54.7727 76.3838 55.2362 77.1185C55.415 77.4205 55.6671 77.6725 55.9691 77.8515C56.2711 78.0304 56.6134 78.1305 56.9644 78.1426V78.1368Z" fill="#9951FF"/>
<path d="M157.711 84.6612C156.48 84.6733 155.258 84.4564 154.105 84.0226C153.051 83.6221 152.076 83.0376 151.225 82.2965C150.415 81.5877 149.762 80.7178 149.307 79.742C148.853 78.749 148.618 77.6697 148.618 76.5777C148.618 75.4857 148.853 74.4063 149.307 73.4133C149.759 72.4358 150.412 71.5653 151.225 70.8588C152.074 70.116 153.05 69.5315 154.105 69.1328C155.258 68.699 156.48 68.4821 157.711 68.4942C158.926 68.4861 160.131 68.7024 161.266 69.1328C162.321 69.5321 163.297 70.1166 164.146 70.8588C164.963 71.5688 165.625 72.4381 166.093 73.4133C166.562 74.4023 166.806 75.4834 166.806 76.5777C166.806 77.672 166.562 78.753 166.093 79.742C165.622 80.7155 164.96 81.5843 164.146 82.2965C163.296 83.037 162.32 83.621 161.266 84.0226C160.131 84.4529 158.926 84.6692 157.711 84.6612ZM152.902 101.979L167.377 85.6853L180.217 68.4654L184.463 72.2972L170.597 88.0845L157.147 105.811L152.902 101.979ZM157.711 80.0642C158.063 80.0545 158.406 79.9549 158.709 79.776C159.011 79.5965 159.263 79.3433 159.44 79.0401C159.91 78.3089 160.16 77.4585 160.16 76.5892C160.16 75.7198 159.91 74.8695 159.44 74.1382C159.267 73.8316 159.017 73.5767 158.713 73.3989C158.409 73.2211 158.063 73.1274 157.711 73.1274C157.359 73.1274 157.014 73.2211 156.71 73.3989C156.407 73.5767 156.156 73.8316 155.983 74.1382C155.513 74.8695 155.263 75.7198 155.263 76.5892C155.263 77.4585 155.513 78.3089 155.983 79.0401C156.161 79.3433 156.412 79.5965 156.715 79.776C157.017 79.9549 157.36 80.0545 157.711 80.0642ZM179.653 105.811C178.422 105.823 177.199 105.606 176.047 105.172C174.993 104.77 174.018 104.186 173.166 103.446C172.356 102.753 171.699 101.898 171.237 100.938C170.782 99.9445 170.547 98.8652 170.547 97.7732C170.547 96.6812 170.782 95.6018 171.237 94.6088C171.688 93.6313 172.342 92.7608 173.155 92.0543C174.005 91.3127 174.98 90.7281 176.035 90.3283C177.187 89.8945 178.41 89.6776 179.641 89.6897C180.855 89.6804 182.061 89.8974 183.195 90.3283C184.251 90.7281 185.226 91.3127 186.075 92.0543C186.891 92.7648 187.551 93.6342 188.017 94.6088C188.49 95.5967 188.736 96.6783 188.736 97.7732C188.736 98.868 188.49 99.9497 188.017 100.938C187.55 101.912 186.889 102.78 186.075 103.492C185.225 104.232 184.249 104.816 183.195 105.218C182.061 105.632 180.86 105.833 179.653 105.811ZM179.653 101.208C180.004 101.196 180.347 101.096 180.649 100.917C180.95 100.738 181.203 100.486 181.381 100.184C181.847 99.4514 182.095 98.6011 182.095 97.7329C182.095 96.8647 181.847 96.0144 181.381 95.282C181.207 94.977 180.956 94.7233 180.653 94.5467C180.349 94.37 180.004 94.2774 179.653 94.2774C179.302 94.2774 178.957 94.37 178.653 94.5467C178.35 94.7233 178.099 94.977 177.925 95.282C177.459 96.0144 177.211 96.8647 177.211 97.7329C177.211 98.6011 177.459 99.4514 177.925 100.184C178.102 100.488 178.354 100.741 178.656 100.921C178.958 101.102 179.301 101.202 179.653 101.214V101.208Z" fill="#9951FF"/>
</g>
<path d="M14.6198 100.874V9.43549" stroke="#C5A1FF" stroke-width="2" stroke-miterlimit="10" stroke-linecap="round" stroke-dasharray="6 6"/>
<path d="M236.348 9.43549V100.874" stroke="#C5A1FF" stroke-width="2" stroke-miterlimit="10" stroke-linecap="round" stroke-dasharray="6 6"/>
<path d="M65.3399 95.5236L189.044 80.8467" stroke="#FF66CC" stroke-width="3.31" stroke-miterlimit="10" stroke-linecap="round"/>
<path d="M65.3399 32.9209L189.044 18.2383" stroke="#FF66CC" stroke-width="3.31" stroke-miterlimit="10" stroke-linecap="round"/>
</g>
<path d="M37.1143 82.8737C36.0774 82.9997 34.9792 83.0543 33.8197 83.0376C32.6892 83.0436 31.6012 82.9657 30.5555 82.8037C29.5098 82.6418 28.5615 82.4155 27.7106 82.1248C26.9697 81.8732 26.4236 81.4929 26.0722 80.9839C25.7176 80.4489 25.5414 79.866 25.5435 79.2352C25.5455 78.6044 25.6996 78.0339 26.0058 77.5237C26.3088 76.9877 26.7489 76.6058 27.3262 76.378C27.9003 76.1243 28.5838 76.12 29.3765 76.3653C30.4184 76.7116 31.5772 76.9386 32.853 77.0463C34.1288 77.154 35.3111 77.1417 36.3999 77.0094C38.1107 76.8014 39.2764 76.4364 39.8967 75.9144C40.5399 75.3633 40.8204 74.7511 40.7384 74.078C40.6659 73.4825 40.3612 73.0334 39.8246 72.7308C39.3138 72.425 38.4335 72.2167 37.1836 72.1059L32.5159 71.6879C29.9642 71.4725 28.0004 70.7915 26.6243 69.6451C25.2483 68.4986 24.4356 66.9026 24.1864 64.8572C24.0224 63.5109 24.1464 62.2609 24.5583 61.1074C24.9929 59.9247 25.6684 58.8836 26.5848 57.984C27.5271 57.0813 28.6729 56.3377 30.0222 55.7533C31.3943 55.1399 32.9488 54.7277 34.6856 54.5166C36.0336 54.3528 37.4134 54.3427 38.8252 54.4864C40.2597 54.6011 41.5187 54.8948 42.6022 55.3674C43.2363 55.6056 43.716 55.9809 44.0415 56.4931C44.367 57.0053 44.5401 57.5623 44.5608 58.1641C44.5783 58.74 44.4324 59.2701 44.1231 59.7543C43.8398 60.2354 43.4094 60.5899 42.8321 60.8177C42.2776 61.0164 41.5781 60.9964 40.7335 60.7574C39.9407 60.5122 39.0553 60.3702 38.0772 60.3314C37.1219 60.2636 36.2036 60.2833 35.3223 60.3904C34.3631 60.5069 33.5608 60.7227 32.9152 61.0376C32.2664 61.3267 31.7858 61.7004 31.4734 62.1587C31.1868 62.6139 31.0767 63.1134 31.1429 63.6571C31.2092 64.2008 31.4863 64.6401 31.9743 64.9749C32.485 65.2807 33.3654 65.489 34.6153 65.5998L39.2441 66.0226C41.8248 66.2607 43.813 66.9255 45.2087 68.0171C46.6044 69.1086 47.4236 70.6512 47.6665 72.6448C47.8305 73.9912 47.7066 75.2411 47.2947 76.3947C46.8828 77.5483 46.2187 78.5749 45.3023 79.4745C44.3828 80.3482 43.2354 81.0788 41.8602 81.6663C40.4849 82.2539 38.9029 82.6563 37.1143 82.8737Z" fill="#FF66CC"/>
<path d="M53.9909 80.3891C52.7726 80.5372 51.8015 80.3399 51.0777 79.7973C50.3768 79.2256 49.9537 78.3443 49.8086 77.1533L47.372 57.1524C47.2269 55.9614 47.4276 55.0175 47.974 54.3205C48.5432 53.5944 49.437 53.1574 50.6554 53.0093L63.8369 51.4073C64.7701 51.2939 65.4984 51.4419 66.0218 51.8512C66.5452 52.2605 66.8605 52.9054 66.9678 53.7856C67.0782 54.6918 66.93 55.4193 66.5233 55.9679C66.1135 56.4906 65.442 56.8087 64.5088 56.9221L54.4379 58.1461L55.0719 63.3502L64.2873 62.2302C65.1946 62.1199 65.91 62.2695 66.4333 62.6788C66.9826 63.085 67.3125 63.7412 67.4229 64.6474C67.5333 65.5535 67.3706 66.2696 66.9349 66.7955C66.525 67.3182 65.8665 67.6347 64.9592 67.745L55.7437 68.865L56.4298 74.4963L66.5007 73.2723C67.4339 73.1589 68.1637 73.3198 68.6903 73.7551C69.2137 74.1644 69.529 74.8092 69.6362 75.6895C69.7466 76.5957 69.5969 77.3102 69.1871 77.8329C68.7772 78.3557 68.1057 78.6737 67.1725 78.7871L53.9909 80.3891Z" fill="#FF66CC"/>
<path d="M75.5462 78.1242C74.5093 78.2502 73.671 78.0631 73.0314 77.5628C72.4176 77.0593 72.0476 76.2898 71.9214 75.2541L69.2956 53.6998C69.1663 52.6383 69.3666 51.7994 69.8966 51.1832C70.4234 50.5412 71.2312 50.154 72.3199 50.0217C73.2272 49.9114 73.9621 50.006 74.5248 50.3055C75.1101 50.5759 75.6721 51.0857 76.2105 51.8347L86.3968 65.8097L85.0359 65.9751L91.5307 49.9728C91.8995 49.1135 92.3227 48.4841 92.8001 48.0845C93.3003 47.6558 94.0041 47.3864 94.9114 47.2761C95.9483 47.1501 96.7736 47.3388 97.3873 47.8423C98.0239 48.3167 98.4068 49.0846 98.5361 50.1462L101.162 71.7005C101.288 72.7361 101.114 73.5718 100.639 74.2076C100.164 74.8434 99.3949 75.2258 98.3321 75.355C97.2952 75.481 96.4569 75.2939 95.8172 74.7936C95.2034 74.2901 94.8335 73.5206 94.7073 72.4849L93.0797 59.1251L93.8963 59.0259L88.9608 70.661C88.6673 71.2747 88.3305 71.7491 87.9504 72.0844C87.5963 72.4164 87.0822 72.6234 86.4082 72.7053C85.7602 72.7841 85.2114 72.7062 84.7619 72.4719C84.3125 72.2375 83.8846 71.8559 83.4782 71.3273L75.8495 61.1797L76.7438 61.071L78.3761 74.4697C78.5023 75.5053 78.3279 76.341 77.8529 76.9768C77.378 77.6126 76.6091 77.995 75.5462 78.1242Z" fill="#FF66CC"/>
<path d="M105.945 74.4298C105.142 74.5274 104.445 74.4281 103.857 74.1318C103.265 73.8096 102.865 73.3327 102.657 72.7012C102.445 72.0438 102.47 71.2788 102.732 70.4061L109.878 48.413C110.222 47.3466 110.702 46.5394 111.319 45.9914C111.963 45.4403 112.725 45.1112 113.606 45.0041C114.488 44.897 115.281 45.0371 115.986 45.4244C116.716 45.8085 117.389 46.4755 118.005 47.4254L130.223 67.0652C130.739 67.8433 130.973 68.5768 130.925 69.2657C130.903 69.9515 130.643 70.5087 130.142 70.9373C129.668 71.3628 129.042 71.6228 128.264 71.7173C127.227 71.8433 126.395 71.7079 125.768 71.3112C125.167 70.9113 124.583 70.2204 124.016 69.2383L121.316 64.5612L124.279 66.2111L108.259 68.158L110.778 65.8418L109.279 71.0293C108.939 72.1216 108.551 72.9307 108.115 73.4566C107.679 73.9825 106.956 74.3069 105.945 74.4298ZM114.479 52.8197L111.28 64.1256L109.964 62.3938L121.279 61.0186L120.417 63.0151L114.557 52.8103L114.479 52.8197Z" fill="#FF66CC"/>
<path d="M135.718 70.8114C134.629 70.9437 133.765 70.7597 133.126 70.2595C132.486 69.7592 132.098 68.9524 131.963 67.839L129.384 46.6731C129.245 45.5339 129.425 44.6319 129.922 43.9671C130.417 43.2764 131.131 42.8743 132.064 42.7609C132.894 42.6601 133.561 42.7367 134.065 42.9907C134.57 43.2446 135.151 43.6995 135.81 44.3551L150.009 58.2364L148.921 58.3687L147.208 44.3099C147.075 43.2224 147.247 42.3608 147.722 41.7251C148.223 41.0862 149.017 40.7005 150.106 40.5682C151.195 40.4359 152.046 40.6215 152.66 41.1249C153.3 41.6252 153.686 42.4191 153.818 43.5065L156.439 65.022C156.559 66.0059 156.396 66.827 155.95 67.4855C155.501 68.1182 154.836 68.488 153.955 68.5951C153.073 68.7022 152.354 68.632 151.798 68.3843C151.265 68.1075 150.67 67.6543 150.015 67.0246L135.81 53.1044L136.899 52.9721L138.612 67.031C138.747 68.1443 138.565 69.0204 138.064 69.6593C137.589 70.2951 136.807 70.6791 135.718 70.8114Z" fill="#FF66CC"/>
<path d="M161.18 67.7171C160.376 67.8147 159.68 67.7154 159.092 67.4191C158.5 67.0969 158.1 66.62 157.891 65.9885C157.68 65.3311 157.705 64.566 157.967 63.6934L165.113 41.7003C165.456 40.6339 165.937 39.8267 166.554 39.2787C167.197 38.7276 167.959 38.3985 168.841 38.2914C169.722 38.1843 170.515 38.3244 171.22 38.7116C171.951 39.0958 172.624 39.7628 173.24 40.7127L185.458 60.3524C185.973 61.1305 186.207 61.8641 186.16 62.553C186.138 63.2387 185.877 63.7959 185.377 64.2246C184.903 64.6501 184.277 64.9101 183.499 65.0046C182.462 65.1306 181.63 64.9952 181.003 64.5985C180.402 64.1986 179.818 63.5076 179.251 62.5255L176.55 57.8485L179.514 59.4984L163.493 61.4453L166.013 59.1291L164.514 64.3165C164.174 65.4089 163.786 66.218 163.35 66.7439C162.914 67.2698 162.191 67.5942 161.18 67.7171ZM169.714 46.107L166.514 57.4129L165.198 55.6811L176.513 54.3059L175.652 56.3024L169.792 46.0975L169.714 46.107Z" fill="#FF66CC"/>
<path d="M190.677 63.7775C189.536 63.9161 188.675 63.758 188.094 63.3032C187.535 62.8194 187.192 62.0596 187.066 61.024C186.978 60.299 187.055 59.6329 187.296 59.0254C187.564 58.4149 187.924 57.8062 188.376 57.1995L194.315 49.2654C195.193 48.0552 195.793 47.0364 196.113 46.2093C196.459 45.379 196.585 44.5755 196.49 43.7988C196.37 42.8149 195.956 42.1164 195.248 41.7032C194.54 41.2901 193.577 41.1575 192.359 41.3056C191.737 41.3812 191.087 41.5521 190.409 41.8184C189.728 42.0588 189.011 42.435 188.258 42.9469C187.596 43.3427 186.971 43.5105 186.385 43.4503C185.825 43.387 185.324 43.1589 184.882 42.766C184.465 42.37 184.17 41.8935 183.997 41.3365C183.85 40.7763 183.873 40.2086 184.066 39.6334C184.256 39.0323 184.665 38.5096 185.295 38.0652C186.409 37.273 187.583 36.6573 188.819 36.2181C190.08 35.7758 191.359 35.4759 192.655 35.3184C194.781 35.06 196.594 35.1549 198.096 35.603C199.623 36.048 200.835 36.8203 201.732 37.9199C202.626 38.9937 203.178 40.3979 203.39 42.1326C203.522 43.22 203.483 44.302 203.272 45.3786C203.087 46.4521 202.695 47.5507 202.095 48.6746C201.522 49.7953 200.709 51.0106 199.659 52.3207L194.117 59.3001L193.899 57.5136L203.503 56.3464C204.463 56.2298 205.218 56.3876 205.771 56.8196C206.349 57.2486 206.695 57.9291 206.809 58.8611C206.922 59.7932 206.751 60.5497 206.296 61.1305C205.863 61.6823 205.168 62.0165 204.208 62.133L190.677 63.7775Z" fill="#FF66CC"/>
<path d="M217.971 60.8939C216.727 61.0452 215.401 61.0619 213.992 60.944C212.583 60.8262 211.26 60.5404 210.021 60.0867C209.276 59.8093 208.727 59.4031 208.373 58.8681C208.041 58.3041 207.878 57.7197 207.883 57.1147C207.914 56.5066 208.083 55.9475 208.389 55.4374C208.721 54.9241 209.164 54.568 209.719 54.3693C210.296 54.1415 210.957 54.1663 211.701 54.4437C212.607 54.754 213.526 54.9576 214.458 55.0544C215.417 55.1481 216.298 55.1462 217.101 55.0485C217.983 54.9414 218.719 54.7206 219.309 54.3861C219.9 54.0515 220.321 53.6194 220.572 53.0897C220.849 52.5568 220.946 51.9538 220.864 51.2806C220.738 50.245 220.289 49.4719 219.516 48.9615C218.744 48.451 217.775 48.2667 216.608 48.4085C216.09 48.4715 215.529 48.6185 214.926 48.8494C214.348 49.0772 213.762 49.4506 213.168 49.9695C212.902 50.1595 212.535 50.388 212.068 50.655C211.597 50.8961 211.103 51.0481 210.584 51.1111C209.651 51.2245 208.937 51.088 208.443 50.7014C207.949 50.3148 207.653 49.7202 207.555 48.9175L206.126 37.1889C206.006 36.205 206.174 35.4227 206.629 34.8418C207.111 34.2579 207.831 33.9076 208.79 33.791L220.999 32.3072C221.959 32.1906 222.727 32.3468 223.306 32.7757C223.884 33.2047 224.232 33.8981 224.348 34.8561C224.462 35.7882 224.289 36.5317 223.831 37.0866C223.372 37.6415 222.664 37.9773 221.704 38.0939L213.189 39.1288L213.932 45.2261L212.299 45.4246C212.832 44.624 213.583 43.9811 214.55 43.4957C215.513 42.9845 216.591 42.6564 217.784 42.5115C219.52 42.3004 221.096 42.49 222.509 43.0802C223.92 43.6444 225.068 44.5427 225.955 45.7749C226.867 47.004 227.431 48.4988 227.645 50.2594C227.873 52.1236 227.632 53.8212 226.924 55.3524C226.239 56.8544 225.127 58.0931 223.589 59.0683C222.073 60.0145 220.201 60.623 217.971 60.8939Z" fill="#FF66CC"/>
<path d="M38.8424 80.5724C37.8055 80.6984 36.7073 80.753 35.5478 80.7363C34.4173 80.7423 33.3293 80.6643 32.2836 80.5024C31.2379 80.3405 30.2896 80.1141 29.4387 79.8234C28.6978 79.5719 28.1517 79.1916 27.8003 78.6826C27.4457 78.1476 27.2695 77.5647 27.2716 76.9339C27.2736 76.303 27.4277 75.7325 27.7339 75.2224C28.0369 74.6864 28.477 74.3044 29.0543 74.0766C29.6284 73.8229 30.3119 73.8187 31.1046 74.0639C32.1465 74.4103 33.3053 74.6373 34.5811 74.745C35.8569 74.8526 37.0392 74.8403 38.128 74.708C39.8388 74.5001 41.0045 74.1351 41.6248 73.613C42.268 73.0619 42.5485 72.4498 42.4665 71.7766C42.394 71.1811 42.0893 70.7321 41.5527 70.4295C41.0419 70.1237 40.1616 69.9154 38.9117 69.8046L34.244 69.3865C31.6923 69.1712 29.7285 68.4902 28.3524 67.3437C26.9764 66.1972 26.1637 64.6013 25.9146 62.5559C25.7505 61.2096 25.8745 59.9596 26.2864 58.806C26.721 57.6234 27.3965 56.5823 28.3129 55.6827C29.2552 54.7799 30.401 54.0364 31.7503 53.452C33.1224 52.8386 34.6769 52.4263 36.4137 52.2153C37.7617 52.0514 39.1415 52.0414 40.5533 52.1851C41.9878 52.2998 43.2468 52.5935 44.3303 53.0661C44.9644 53.3043 45.4441 53.6795 45.7696 54.1917C46.0951 54.704 46.2682 55.261 46.2889 55.8628C46.3064 56.4387 46.1605 56.9687 45.8512 57.453C45.5679 57.9341 45.1375 58.2885 44.5602 58.5164C44.0057 58.7151 43.3062 58.695 42.4616 58.4561C41.6688 58.2109 40.7834 58.0689 39.8053 58.0301C38.85 57.9623 37.9317 57.9819 37.0504 58.089C36.0912 58.2056 35.2889 58.4214 34.6433 58.7363C33.9945 59.0253 33.5139 59.399 33.2015 59.8574C32.9149 60.3126 32.8048 60.8121 32.871 61.3558C32.9373 61.8995 33.2144 62.3387 33.7024 62.6736C34.2132 62.9793 35.0935 63.1876 36.3434 63.2985L40.9722 63.7212C43.5529 63.9593 45.5411 64.6242 46.9368 65.7157C48.3325 66.8073 49.1517 68.3499 49.3946 70.3435C49.5586 71.6898 49.4347 72.9398 49.0228 74.0934C48.6109 75.247 47.9468 76.2735 47.0304 77.1731C46.1109 78.0468 44.9635 78.7775 43.5883 79.365C42.213 79.9525 40.631 80.355 38.8424 80.5724Z" fill="#FFD700"/>
<path d="M55.719 78.0878C54.5007 78.2359 53.5296 78.0386 52.8059 77.4959C52.1049 76.9243 51.6818 76.043 51.5367 74.852L49.1001 54.8511C48.955 53.6601 49.1557 52.7161 49.7021 52.0191C50.2713 51.2931 51.1651 50.856 52.3835 50.708L65.565 49.106C66.4982 48.9926 67.2265 49.1405 67.7499 49.5499C68.2733 49.9592 68.5886 50.604 68.6959 51.4843C68.8063 52.3905 68.6581 53.1179 68.2514 53.6666C67.8416 54.1893 67.1701 54.5074 66.2369 54.6208L56.166 55.8447L56.8 61.0488L66.0154 59.9289C66.9227 59.8186 67.6381 59.9681 68.1614 60.3775C68.7107 60.7837 69.0406 61.4398 69.151 62.346C69.2614 63.2522 69.0987 63.9683 68.663 64.4942C68.2531 65.0169 67.5946 65.3334 66.6873 65.4437L57.4718 66.5636L58.1579 72.1949L68.2288 70.971C69.162 70.8576 69.8918 71.0185 70.4184 71.4537C70.9418 71.8631 71.2571 72.5079 71.3643 73.3882C71.4747 74.2944 71.325 75.0088 70.9152 75.5316C70.5053 76.0543 69.8338 76.3724 68.9006 76.4858L55.719 78.0878Z" fill="#FFD700"/>
<path d="M77.2743 75.8229C76.2374 75.9489 75.3991 75.7617 74.7595 75.2614C74.1457 74.758 73.7757 73.9884 73.6496 72.9528L71.0237 51.3985C70.8944 50.3369 71.0947 49.4981 71.6247 48.8819C72.1515 48.2399 72.9593 47.8527 74.048 47.7203C74.9553 47.6101 75.6902 47.7047 76.2529 48.0042C76.8382 48.2746 77.4002 48.7843 77.9386 49.5334L88.1249 63.5083L86.764 63.6737L93.2588 47.6715C93.6276 46.8122 94.0508 46.1827 94.5282 45.7831C95.0284 45.3545 95.7322 45.085 96.6395 44.9748C97.6764 44.8488 98.5017 45.0375 99.1155 45.5409C99.752 46.0153 100.135 46.7833 100.264 47.8448L102.89 69.3992C103.016 70.4348 102.842 71.2705 102.367 71.9063C101.892 72.542 101.123 72.9245 100.06 73.0537C99.0233 73.1797 98.185 72.9925 97.5453 72.4922C96.9315 71.9888 96.5616 71.2193 96.4354 70.1836L94.8078 56.8238L95.6244 56.7246L90.6889 68.3596C90.3954 68.9734 90.0586 69.4478 89.6785 69.783C89.3244 70.1151 88.8103 70.3221 88.1363 70.404C87.4883 70.4827 86.9395 70.4049 86.49 70.1705C86.0406 69.9361 85.6127 69.5546 85.2063 69.026L77.5776 58.8784L78.4719 58.7697L80.1043 72.1684C80.2304 73.204 80.056 74.0397 79.581 74.6755C79.1061 75.3112 78.3372 75.6937 77.2743 75.8229Z" fill="#FFD700"/>
<path d="M107.673 72.1284C106.87 72.2261 106.174 72.1268 105.585 71.8305C104.993 71.5083 104.593 71.0314 104.385 70.3999C104.173 69.7424 104.198 68.9774 104.46 68.1048L111.606 46.1117C111.95 45.0453 112.43 44.238 113.048 43.6901C113.691 43.139 114.453 42.8099 115.334 42.7028C116.216 42.5957 117.009 42.7357 117.714 43.123C118.444 43.5072 119.118 44.1742 119.733 45.1241L131.951 64.7638C132.467 65.5419 132.701 66.2754 132.653 66.9644C132.632 67.6501 132.371 68.2073 131.87 68.636C131.396 69.0615 130.77 69.3215 129.992 69.416C128.956 69.542 128.124 69.4066 127.496 69.0099C126.895 68.61 126.311 67.919 125.745 66.9369L123.044 62.2599L126.007 63.9097L109.987 65.8567L112.506 63.5405L111.008 68.7279C110.667 69.8203 110.279 70.6294 109.843 71.1553C109.408 71.6812 108.684 72.0056 107.673 72.1284ZM116.208 50.5184L113.008 61.8243L111.692 60.0925L123.007 58.7173L122.145 60.7138L116.285 50.5089L116.208 50.5184Z" fill="#FFD700"/>
<path d="M137.446 68.5101C136.358 68.6424 135.493 68.4584 134.854 67.9581C134.214 67.4578 133.826 66.651 133.691 65.5377L131.112 44.3717C130.973 43.2325 131.153 42.3305 131.651 41.6657C132.145 40.975 132.859 40.573 133.792 40.4596C134.622 40.3588 135.289 40.4353 135.793 40.6893C136.298 40.9433 136.879 41.3981 137.538 42.0538L151.738 55.9351L150.649 56.0674L148.936 42.0085C148.804 40.9211 148.975 40.0595 149.45 39.4237C149.951 38.7848 150.746 38.3992 151.834 38.2669C152.923 38.1346 153.774 38.3201 154.388 38.8236C155.028 39.3239 155.414 40.1178 155.546 41.2052L158.167 62.7207C158.287 63.7045 158.124 64.5257 157.678 65.1842C157.229 65.8168 156.564 66.1867 155.683 66.2938C154.801 66.4009 154.083 66.3306 153.526 66.0829C152.993 65.8062 152.398 65.353 151.743 64.7232L137.538 50.8031L138.627 50.6708L140.34 64.7296C140.475 65.8429 140.293 66.7191 139.792 67.358C139.317 67.9937 138.535 68.3778 137.446 68.5101Z" fill="#FFD700"/>
<path d="M162.908 65.4157C162.104 65.5134 161.408 65.4141 160.82 65.1177C160.228 64.7955 159.828 64.3187 159.619 63.6871C159.408 63.0297 159.433 62.2647 159.695 61.3921L166.841 39.399C167.185 38.3325 167.665 37.5253 168.282 36.9774C168.925 36.4263 169.688 36.0972 170.569 35.9901C171.45 35.8829 172.243 36.023 172.948 36.4103C173.679 36.7944 174.352 37.4614 174.968 38.4113L187.186 58.0511C187.701 58.8292 187.935 59.5627 187.888 60.2516C187.866 60.9374 187.605 61.4946 187.105 61.9232C186.631 62.3487 186.005 62.6087 185.227 62.7032C184.19 62.8293 183.358 62.6939 182.731 62.2972C182.13 61.8973 181.546 61.2063 180.979 60.2242L178.279 55.5471L181.242 57.197L165.222 59.144L167.741 56.8278L166.242 62.0152C165.902 63.1076 165.514 63.9167 165.078 64.4426C164.642 64.9685 163.919 65.2929 162.908 65.4157ZM171.442 43.8057L168.242 55.1116L166.926 53.3797L178.242 52.0046L177.38 54.0011L171.52 43.7962L171.442 43.8057Z" fill="#FFD700"/>
<path d="M192.405 61.4762C191.264 61.6148 190.403 61.4567 189.822 61.0019C189.263 60.518 188.921 59.7583 188.794 58.7226C188.706 57.9977 188.783 57.3315 189.024 56.7241C189.292 56.1136 189.652 55.5049 190.104 54.8982L196.043 46.9641C196.922 45.7538 197.521 44.7351 197.841 43.908C198.187 43.0777 198.313 42.2742 198.218 41.4974C198.098 40.5136 197.684 39.8151 196.976 39.4019C196.268 38.9887 195.305 38.8562 194.087 39.0042C193.465 39.0798 192.815 39.2508 192.137 39.5171C191.456 39.7575 190.739 40.1337 189.986 40.6456C189.324 41.0413 188.7 41.2091 188.114 41.149C187.553 41.0857 187.052 40.8576 186.61 40.4647C186.193 40.0687 185.898 39.5921 185.725 39.0351C185.578 38.475 185.601 37.9073 185.794 37.3321C185.984 36.731 186.394 36.2082 187.023 35.7639C188.137 34.9717 189.312 34.356 190.547 33.9168C191.808 33.4745 193.087 33.1746 194.383 33.017C196.509 32.7587 198.323 32.8536 199.824 33.3017C201.351 33.7467 202.563 34.519 203.46 35.6186C204.354 36.6923 204.906 38.0966 205.118 39.8313C205.25 40.9187 205.211 42.0007 205 43.0773C204.815 44.1507 204.423 45.2494 203.823 46.3733C203.25 47.494 202.438 48.7093 201.387 50.0193L195.845 56.9987L195.627 55.2123L205.232 54.045C206.191 53.9285 206.947 54.0862 207.499 54.5183C208.077 54.9472 208.423 55.6277 208.537 56.5598C208.65 57.4919 208.48 58.2483 208.024 58.8292C207.592 59.381 206.896 59.7151 205.937 59.8317L192.405 61.4762Z" fill="#FFD700"/>
<path d="M219.699 58.5926C218.455 58.7438 217.129 58.7605 215.72 58.6427C214.311 58.5249 212.988 58.2391 211.749 57.7854C211.005 57.5079 210.455 57.1018 210.101 56.5668C209.769 56.0028 209.606 55.4183 209.611 54.8134C209.642 54.2053 209.811 53.6462 210.117 53.136C210.449 52.6227 210.892 52.2667 211.447 52.0679C212.024 51.8401 212.685 51.8649 213.429 52.1424C214.335 52.4527 215.254 52.6562 216.186 52.7531C217.145 52.8468 218.026 52.8448 218.829 52.7472C219.711 52.6401 220.447 52.4193 221.037 52.0847C221.628 51.7502 222.049 51.3181 222.3 50.7883C222.577 50.2555 222.675 49.6524 222.593 48.9793C222.466 47.9436 222.017 47.1706 221.245 46.6602C220.472 46.1497 219.503 45.9654 218.336 46.1072C217.818 46.1702 217.257 46.3171 216.654 46.5481C216.076 46.7759 215.491 47.1493 214.896 47.6682C214.63 47.8582 214.263 48.0867 213.796 48.3536C213.325 48.5947 212.831 48.7468 212.312 48.8098C211.379 48.9232 210.665 48.7866 210.171 48.4C209.677 48.0134 209.381 47.4188 209.283 46.6162L207.854 34.8876C207.734 33.9037 207.902 33.1213 208.357 32.5405C208.839 31.9565 209.559 31.6063 210.518 31.4897L222.728 30.0059C223.687 29.8893 224.455 30.0455 225.034 30.4744C225.612 30.9033 225.96 31.5968 226.076 32.5547C226.19 33.4868 226.018 34.2303 225.559 34.7853C225.1 35.3402 224.392 35.676 223.433 35.7925L214.917 36.8274L215.66 42.9248L214.027 43.1233C214.561 42.3227 215.311 41.6797 216.278 41.1944C217.241 40.6832 218.319 40.3551 219.512 40.2102C221.249 39.9991 222.824 40.1886 224.237 40.7788C225.648 41.3431 226.796 42.2414 227.683 43.4736C228.595 44.7027 229.159 46.1975 229.374 47.9581C229.601 49.8223 229.36 51.5199 228.652 53.051C227.967 54.5531 226.855 55.7918 225.317 56.767C223.801 57.7131 221.929 58.3217 219.699 58.5926Z" fill="#FFD700"/>
</g>
<defs>
<clipPath id="clip0_8_213">
<rect width="250" height="110.465" fill="white"/>
</clipPath>
</defs>
</svg>
