<svg width="90" height="91" viewBox="0 0 90 91" fill="none" xmlns="http://www.w3.org/2000/svg">
<path d="M45 90.9181C69.8528 90.9181 90 70.5654 90 45.459C90 20.3527 69.8528 0 45 0C20.1472 0 0 20.3527 0 45.459C0 70.5654 20.1472 90.9181 45 90.9181Z" fill="#6C18CD"/>
<path d="M45 85.9041C67.1117 85.9041 85.0367 67.7963 85.0367 45.4591C85.0367 23.1219 67.1117 5.01398 45 5.01398C22.8884 5.01398 4.96335 23.1219 4.96335 45.4591C4.96335 67.7963 22.8884 85.9041 45 85.9041Z" fill="white"/>
<path d="M2.71606 45.002H87.2824V59.442C87.2824 60.6925 86.2775 61.7076 85.0396 61.7076H5.21864C3.83744 61.7076 2.71606 60.5748 2.71606 59.1795V45.002Z" fill="#6C18CD"/>
<path d="M6.19672 50.001V46.9178H11.3064V59.1676H7.90641V50.001H6.19821H6.19672Z" fill="white"/>
<path d="M14.6063 47.6628C15.3365 46.9871 16.3533 46.6492 17.6584 46.6492C18.5095 46.6492 19.2366 46.797 19.8399 47.0926C20.4431 47.3883 20.8986 47.791 21.2076 48.2994C21.5167 48.8077 21.672 49.3809 21.672 50.0175C21.672 50.7777 21.4899 51.3826 21.124 51.8351C20.7597 52.2876 20.3446 52.5923 19.8802 52.7477V52.8141C21.2181 53.3164 21.887 54.2772 21.887 55.6966C21.887 56.4011 21.7258 57.021 21.4062 57.5565C21.0852 58.0935 20.6208 58.5113 20.0131 58.813C19.4054 59.1147 18.6797 59.2655 17.8405 59.2655C16.4578 59.2655 15.3663 58.9276 14.5645 58.2519C13.7626 57.5761 13.3446 56.5398 13.3117 55.143H16.4802C16.4578 55.5895 16.5519 55.9365 16.7624 56.1823C16.9715 56.4282 17.288 56.5504 17.7076 56.5504C18.0287 56.5504 18.2795 56.4493 18.4617 56.2487C18.6439 56.0481 18.7349 55.7796 18.7349 55.4447C18.7349 55.0209 18.5991 54.7071 18.3288 54.5065C18.0585 54.3059 17.618 54.2048 17.0103 54.2048H16.4295V51.541H16.9939C17.4135 51.5515 17.7703 51.4821 18.0645 51.3313C18.3572 51.1804 18.5035 50.8757 18.5035 50.4187C18.5035 50.0733 18.4199 49.8123 18.2541 49.6388C18.0884 49.4654 17.8614 49.3794 17.5732 49.3794C17.2522 49.3794 17.0178 49.494 16.8685 49.7233C16.7191 49.9526 16.6325 50.2347 16.6116 50.5695H13.4431C13.4864 49.307 13.8746 48.3386 14.6048 47.6628H14.6063Z" fill="white"/>
<path d="M25.8992 50.8607H26.5204L24.1059 60.6352H23.5027L25.8992 50.8607Z" fill="white"/>
<path d="M29.8263 52.7432C31.5405 52.7432 31.9526 54.131 31.9526 55.9426C31.9526 57.7542 31.542 59.1857 29.8263 59.1857C28.1106 59.1857 27.7 57.7889 27.7 55.9426C27.7 54.0963 28.1017 52.7432 29.8263 52.7432ZM29.8263 53.2998C28.4959 53.2998 28.3048 54.5111 28.3048 55.9426C28.3048 57.374 28.4974 58.62 29.8263 58.62C31.1552 58.62 31.3479 57.4268 31.3479 55.9426C31.3479 54.4583 31.1552 53.2998 29.8263 53.2998Z" fill="white"/>
<path d="M35.2914 52.7161C36.4994 52.7161 37.1459 53.4326 37.1459 54.3331C37.1459 55.0496 36.7263 55.6681 35.9036 55.7993V55.843C36.6994 56.0014 37.2594 56.5505 37.2594 57.4872C37.2594 58.4239 36.6203 59.2098 35.3003 59.2098C34.1192 59.2098 33.2532 58.5642 33.1307 57.362H33.725C33.8295 58.1132 34.3731 58.6879 35.3003 58.6879C36.2276 58.6879 36.6741 58.1313 36.6741 57.4329C36.6741 56.4962 35.9738 56.0904 34.7583 56.0904H34.5657V55.5685H34.7673C35.9648 55.5685 36.5516 55.1703 36.5516 54.3935C36.5516 53.7222 36.1052 53.2531 35.2749 53.2531C34.4955 53.2531 33.9281 53.677 33.831 54.4463H33.2368C33.3248 53.3677 34.1207 52.7146 35.2929 52.7146L35.2914 52.7161Z" fill="white"/>
<path d="M46.9726 57.8974H44.24L43.8249 59.1675H41.5732L44.3834 51.3811H46.8546L49.6528 59.1675H47.3906L46.9755 57.8974H46.9726ZM46.9502 49.4594V50.9286L44.2176 49.8455V48.2104L46.9502 49.4578V49.4594ZM46.4365 56.2397L45.6063 53.7221L44.7865 56.2397H46.438H46.4365Z" fill="white"/>
<path d="M53.756 50.0009V46.9177H58.8657V59.1675H55.4657V50.0009H53.7575H53.756Z" fill="white"/>
<path d="M68.6191 49.3644L64.6383 59.1676H61.304L65.3177 49.7505H60.5903V46.9359H68.6191V49.3659V49.3644Z" fill="white"/>
<path d="M72.0147 50.8607H72.6358L70.2213 60.6352H69.6181L72.0147 50.8607Z" fill="white"/>
<path d="M75.9417 52.7432C77.6559 52.7432 78.068 54.131 78.068 55.9426C78.068 57.7542 77.6574 59.1857 75.9417 59.1857C74.2261 59.1857 73.8155 57.7889 73.8155 55.9426C73.8155 54.0963 74.2171 52.7432 75.9417 52.7432ZM75.9417 53.2998C74.6113 53.2998 74.4202 54.5111 74.4202 55.9426C74.4202 57.374 74.6128 58.62 75.9417 58.62C77.2707 58.62 77.4633 57.4268 77.4633 55.9426C77.4633 54.4583 77.2707 53.2998 75.9417 53.2998Z" fill="white"/>
<path d="M81.4083 52.7161C82.6162 52.7161 83.2628 53.4326 83.2628 54.3331C83.2628 55.0496 82.8432 55.6681 82.0205 55.7993V55.843C82.8163 56.0014 83.3763 56.5505 83.3763 57.4872C83.3763 58.4239 82.7372 59.2098 81.4172 59.2098C80.2361 59.2098 79.3701 58.5642 79.2476 57.362H79.8419C79.9464 58.1132 80.49 58.6879 81.4172 58.6879C82.3445 58.6879 82.7909 58.1313 82.7909 57.4329C82.7909 56.4962 82.0906 56.0904 80.8752 56.0904H80.6826V55.5685H80.8841C82.0817 55.5685 82.6685 55.1703 82.6685 54.3935C82.6685 53.7222 82.222 53.2531 81.3918 53.2531C80.6124 53.2531 80.045 53.677 79.9479 54.4463H79.3536C79.4417 53.3677 80.2376 52.7146 81.4098 52.7146L81.4083 52.7161Z" fill="white"/>
<path d="M51.4266 43.5916C51.4266 43.3578 51.4207 43.1255 51.4266 42.8932C51.4252 42.4512 51.7775 42.0907 52.215 42.0892C52.6525 42.0877 53.0094 42.4437 53.0109 42.8856C53.0199 43.1179 53.0109 43.3502 53.0109 43.584C55.4119 43.3487 57.489 41.1284 57.6816 38.8552C57.4501 38.8552 57.2202 38.8687 56.9917 38.8522C56.5557 38.8748 56.1839 38.5354 56.1615 38.0934C56.1391 37.653 56.4751 37.2774 56.9126 37.2547C56.9454 37.2532 56.9768 37.2547 57.0097 37.2547C57.2366 37.2442 57.4636 37.2532 57.695 37.2532C57.4098 34.6814 55.1312 32.6903 53.0109 32.5274C53.0109 32.7506 53.0169 32.9724 53.0109 33.1926C53.0288 33.6345 52.6884 34.0086 52.2494 34.0267C51.8119 34.0448 51.4416 33.7009 51.4237 33.2575C51.4237 33.2378 51.4237 33.2197 51.4237 33.2001C51.4162 32.9709 51.4237 32.7416 51.4237 32.5093C48.7434 32.8381 46.8904 35.238 46.756 37.2502C46.9665 37.2502 47.1756 37.2442 47.3831 37.2502C47.8206 37.2155 48.2029 37.5444 48.2387 37.9863C48.2387 38.0014 48.2402 38.0165 48.2417 38.0316C48.2477 38.4796 47.8938 38.8476 47.4503 38.8537C47.4279 38.8537 47.407 38.8537 47.3846 38.8522C47.1696 38.8612 46.9531 38.8522 46.7306 38.8522C47.0113 41.2475 49.1719 43.4196 51.4237 43.584" fill="#6C18CD"/>
<path d="M58.143 15.8308C57.1381 15.8278 56.1331 15.8217 55.1297 15.8353C54.9237 15.8715 54.7281 15.7328 54.6922 15.5246C54.6922 15.5231 54.6922 15.5201 54.6922 15.5186C54.2592 14.1746 53.0512 13.2393 51.6551 13.1654C50.256 13.0357 48.9315 13.8246 48.3686 15.1249C48.1133 15.7735 47.7728 15.8896 47.186 15.8444C46.968 15.8625 46.7724 15.7116 46.7336 15.4944C46.2946 14.1655 45.097 13.2424 43.7114 13.1654C42.3093 13.0795 40.9505 13.7914 40.4413 15.0917C40.1606 15.8097 39.7589 15.8987 39.1437 15.8383C38.966 15.8202 38.8809 15.7825 38.8197 15.5955C38.2568 13.7658 36.3321 12.7431 34.5208 13.3117C33.4398 13.6511 32.5931 14.5079 32.2587 15.6015C32.2318 15.7569 32.0855 15.8625 31.9317 15.8353C31.9317 15.8353 31.9317 15.8353 31.9302 15.8353C31.6106 15.8217 31.2896 15.8308 30.9701 15.8323C30.3265 15.8353 30.1025 16.0148 29.9517 16.6423C28.9214 20.9277 27.8926 25.2131 26.8623 29.5C26.4965 31.0266 26.1336 32.5546 25.7738 34.0811C25.6439 34.4944 25.8693 34.9364 26.277 35.0676C26.3546 35.0917 26.4338 35.1053 26.5144 35.1053C26.7115 35.1219 26.9116 35.1128 27.1102 35.1128H29.9681V35.5261C29.9681 36.3301 29.9636 37.1326 29.9681 37.9351C29.9144 38.3891 30.2339 38.8024 30.6834 38.8567C30.7431 38.8643 30.8028 38.8643 30.861 38.8582C30.9715 38.8628 31.082 38.8582 31.1925 38.8582C35.6183 38.8582 40.0441 38.8567 44.4729 38.8537C44.7357 38.8537 44.8402 38.9065 44.891 39.1991C45.5166 43.1376 49.1839 45.818 53.0826 45.186C56.5273 44.6279 59.0702 41.6382 59.0986 38.1146C59.1105 31.019 59.1165 23.9234 59.1135 16.8294C59.1135 16.1068 58.8463 15.8323 58.1415 15.8308M51.4475 14.7689C52.1523 14.7613 52.7974 15.1656 53.1035 15.8067H49.7782C50.0858 15.1611 50.7368 14.7553 51.446 14.7689M43.3814 14.7734C44.122 14.7206 44.8223 15.1249 45.1523 15.7976H41.8344C42.1211 15.1927 42.7169 14.7975 43.3799 14.7719M35.5093 14.7704C36.226 14.7447 36.8875 15.152 37.1951 15.8067H33.8788C34.1789 15.1731 34.8135 14.7689 35.5093 14.7704ZM30.7431 20.1494C30.9402 19.3273 31.1433 18.5052 31.3314 17.6801C31.3702 17.5082 31.4344 17.4403 31.6121 17.4342C32.1437 17.4177 32.1422 17.4086 32.3348 17.9064C32.838 19.1976 34.0535 20.0619 35.4257 20.1056C35.8587 20.1645 36.2574 19.8568 36.3156 19.4193C36.3156 19.4133 36.3156 19.4088 36.3171 19.4027C36.3784 18.9773 36.0857 18.5837 35.6661 18.5218C35.6258 18.5158 35.5855 18.5128 35.5452 18.5143C35.0091 18.4962 34.5044 18.2609 34.1446 17.8596C34.055 17.7555 33.9863 17.6303 33.8728 17.4644C34.0385 17.4523 34.1416 17.4388 34.2446 17.4388C36.0991 17.4388 37.9537 17.4418 39.8082 17.4342C40.0053 17.398 40.1919 17.5308 40.2278 17.7299C40.6623 19.0844 41.8807 20.0287 43.2888 20.0996C43.8532 20.1343 44.2265 19.8613 44.2653 19.3891C44.3057 18.8959 44.01 18.558 43.4456 18.5082C42.8976 18.4841 42.3869 18.2262 42.039 17.7978C41.9614 17.6877 41.8897 17.5745 41.824 17.4569C41.9942 17.4478 42.0987 17.4388 42.2062 17.4388C44.0503 17.4388 45.8944 17.4433 47.737 17.4327C47.943 17.398 48.1401 17.5353 48.1805 17.742C48.5926 19.0588 49.7588 19.988 51.1235 20.0875C51.7775 20.163 52.1658 19.902 52.2165 19.4072C52.2718 18.8778 51.9537 18.5565 51.2848 18.4916C50.7368 18.4479 50.2366 18.1598 49.92 17.7073C49.8737 17.6303 49.8319 17.5504 49.7946 17.4689H54.6489C54.513 18.0436 54.3816 18.6123 54.2473 19.1795C54.1188 19.721 53.9755 20.2595 53.8635 20.804C53.8053 21.0861 53.7007 21.2505 53.3887 21.1887C53.3558 21.1857 53.323 21.1857 53.2901 21.1887H30.4967C30.5863 20.8131 30.6639 20.4812 30.7431 20.1509M44.7835 37.2352H31.5733V35.137H45.3404L44.7835 37.2352ZM51.5356 30.5016C51.5162 30.7219 51.3296 30.8893 51.1101 30.8817C49.3481 31.0854 47.7235 31.9452 46.5574 33.2952C46.4394 33.4159 46.2811 33.4883 46.1139 33.4973C40.0322 33.5079 33.9504 33.5094 27.8702 33.5049C27.7821 33.5049 27.6955 33.4973 27.5641 33.4913C27.582 33.3857 27.591 33.2922 27.6119 33.2017C28.4167 29.8349 29.22 26.4681 30.0234 23.1014C30.0368 22.9128 30.1981 22.771 30.3847 22.7846C30.3967 22.7846 30.4101 22.7876 30.4221 22.7891C37.9492 22.7951 45.4763 22.7982 53.0034 22.7951C53.1109 22.7951 53.2185 22.8057 53.3663 22.8132C53.217 23.4498 53.0766 24.0547 52.9318 24.6565C52.4644 26.6039 51.994 28.5512 51.5356 30.5016ZM57.5024 33.5169C57.1425 33.1429 56.8245 32.8291 56.5318 32.4942C56.4751 32.3902 56.4512 32.2695 56.4661 32.1503C56.4616 30.577 56.4661 29.0053 56.4616 27.432C56.5124 26.9976 56.2048 26.6039 55.7748 26.5526C55.733 26.5481 55.6897 26.5466 55.6479 26.5481C55.2074 26.5601 54.8595 26.9297 54.8699 27.3762C54.8699 27.4018 54.8729 27.4275 54.8759 27.4516C54.8699 28.6448 54.8744 29.8379 54.8744 31.0311V31.4067L53.0766 30.8757C53.5022 29.0928 53.9292 27.3083 54.3578 25.5254C54.97 22.9716 55.5881 20.4179 56.1884 17.8626C56.266 17.5353 56.384 17.3845 56.7334 17.4342C56.9902 17.4539 57.2471 17.4554 57.5039 17.4403V33.5169H57.5024Z" fill="#6C18CD"/>
<path d="M33.4488 24.1346C33.7907 24.1346 34.1312 24.1241 34.4716 24.1377C34.8972 24.1226 35.254 24.4574 35.269 24.8873C35.269 24.8919 35.269 24.8964 35.269 24.8994C35.3018 25.3203 34.9912 25.6883 34.5746 25.723C34.5508 25.7245 34.5269 25.726 34.503 25.726C33.7773 25.7502 33.0501 25.7487 32.3259 25.723C31.8989 25.714 31.5599 25.3565 31.5689 24.9266C31.5689 24.9235 31.5689 24.9205 31.5689 24.9175C31.5778 24.4831 31.9302 24.1377 32.3603 24.1407C32.7231 24.1241 33.0859 24.1377 33.4488 24.1377" fill="#6C18CD"/>
<path d="M38.7555 24.1347C39.0975 24.1347 39.4379 24.1226 39.7784 24.1377C40.2024 24.1256 40.5563 24.462 40.5698 24.8904C40.5698 24.8949 40.5698 24.901 40.5698 24.9055C40.5996 25.3263 40.2876 25.6929 39.871 25.7231C39.8471 25.7246 39.8232 25.7261 39.7993 25.7246C39.0855 25.7472 38.3703 25.7472 37.6551 25.7246C37.2235 25.7261 36.8712 25.3746 36.8697 24.9387C36.8697 24.9281 36.8697 24.9176 36.8697 24.9085C36.8861 24.465 37.2549 24.1181 37.6939 24.1347C37.6954 24.1347 37.6984 24.1347 37.6999 24.1347C38.0508 24.1226 38.4046 24.1317 38.7555 24.1317" fill="#6C18CD"/>
<path d="M44.0339 24.1346C44.3758 24.1346 44.7163 24.1241 45.0567 24.1377C45.4838 24.1165 45.8481 24.4484 45.869 24.8813C45.869 24.8934 45.869 24.907 45.869 24.9205C45.8914 25.3444 45.5689 25.7064 45.1478 25.729C45.1269 25.729 45.106 25.729 45.0851 25.729C44.3818 25.7517 43.677 25.7502 42.9737 25.7306C42.5377 25.7411 42.1779 25.3927 42.1674 24.9522C42.1674 24.9447 42.1674 24.9386 42.1674 24.9311C42.1764 24.4816 42.5437 24.1241 42.9887 24.1331C42.9961 24.1331 43.0036 24.1331 43.0111 24.1331H44.0354L44.0339 24.1346Z" fill="#6C18CD"/>
<path d="M49.2959 25.7366C48.9659 25.7366 48.6359 25.7486 48.3059 25.7336C47.8609 25.7517 47.4861 25.4032 47.4667 24.9537C47.4667 24.9462 47.4667 24.9386 47.4667 24.9311C47.4697 24.4876 47.8296 24.1316 48.2671 24.1361C48.2805 24.1361 48.2954 24.1361 48.3089 24.1377C48.9913 24.1256 49.6737 24.1256 50.3545 24.1377C50.7891 24.1196 51.1564 24.4605 51.1743 24.8994C51.1922 25.3383 50.8548 25.7094 50.4202 25.7275C50.4083 25.7275 50.3949 25.7275 50.3829 25.7275C50.0216 25.7486 49.6572 25.732 49.2944 25.732V25.7351" fill="#6C18CD"/>
<path d="M32.3722 27.3491C32.7126 27.3491 33.0546 27.34 33.395 27.3521C33.8221 27.3295 34.1864 27.6613 34.2088 28.0942C34.2088 28.1063 34.2088 28.1199 34.2088 28.1319C34.2327 28.5558 33.9102 28.9193 33.4906 28.942C33.4697 28.942 33.4488 28.942 33.4264 28.942C32.7111 28.9631 31.9974 28.9631 31.2822 28.9405C30.8521 28.9389 30.5042 28.5845 30.5072 28.15C30.5072 28.15 30.5072 28.15 30.5072 28.1485C30.5117 27.702 30.8745 27.3446 31.315 27.3491C31.3374 27.3491 31.3583 27.3476 31.3807 27.3476H32.3707V27.3506L32.3722 27.3491Z" fill="#6C18CD"/>
<path d="M37.6655 27.3476C38.006 27.3476 38.3479 27.3386 38.6883 27.3491C39.1154 27.3235 39.4827 27.6523 39.5081 28.0837C39.5081 28.0973 39.5081 28.1094 39.5081 28.1229C39.538 28.5438 39.2229 28.9088 38.8063 28.939C38.7824 28.9405 38.7585 28.9405 38.7331 28.9405C38.0194 28.9631 37.3042 28.9631 36.5889 28.9405C36.1544 28.9435 35.8005 28.589 35.799 28.1516C35.796 27.7126 36.1469 27.3552 36.58 27.3536C36.5889 27.3536 36.5979 27.3536 36.6068 27.3536C36.9577 27.3386 37.3116 27.3506 37.6625 27.3506" fill="#6C18CD"/>
<path d="M42.9872 27.3491C43.3291 27.3491 43.6696 27.3385 44.01 27.3521C44.4356 27.3355 44.7924 27.6704 44.8089 28.1003C44.8089 28.1048 44.8089 28.1093 44.8089 28.1123C44.8432 28.5332 44.5326 28.9027 44.116 28.9374C44.0921 28.9389 44.0682 28.9404 44.0444 28.9404C43.3187 28.9646 42.5915 28.9631 41.8673 28.9389C41.4403 28.9314 41.0998 28.5754 41.1073 28.144C41.1073 28.141 41.1073 28.1365 41.1073 28.1334C41.1162 27.699 41.4686 27.3521 41.8987 27.3551C42.2615 27.3385 42.6243 27.3521 42.9872 27.3521" fill="#6C18CD"/>
<path d="M48.288 27.3491C48.6299 27.3491 48.9704 27.3385 49.3108 27.3521C49.7364 27.337 50.0932 27.6719 50.1082 28.1018C50.1082 28.1063 50.1082 28.1093 50.1082 28.1138C50.141 28.5347 49.8304 28.9027 49.4138 28.9374C49.39 28.9389 49.3661 28.9404 49.3422 28.9404C48.6165 28.9646 47.8893 28.9631 47.1651 28.9374C46.7381 28.9284 46.3991 28.5709 46.4081 28.141C46.4081 28.138 46.4081 28.1349 46.4081 28.1319C46.417 27.6975 46.7694 27.3521 47.1995 27.3551C47.5623 27.3385 47.9251 27.3521 48.288 27.3521" fill="#6C18CD"/>
<path d="M31.8526 30.562C32.1945 30.562 32.5349 30.5514 32.8754 30.565C33.3009 30.5469 33.6608 30.8802 33.6802 31.3116C33.6802 31.3267 33.6802 31.3403 33.6802 31.3554C33.6966 31.7808 33.3681 32.1398 32.9471 32.1579C32.9276 32.1579 32.9082 32.1579 32.8888 32.1579C32.1855 32.179 31.4807 32.179 30.7775 32.1579C30.3429 32.1639 29.9861 31.8139 29.9801 31.375C29.9801 31.3674 29.9801 31.3599 29.9801 31.3524C29.992 30.9074 30.3579 30.5559 30.7984 30.565H31.854" fill="#6C18CD"/>
<path d="M37.1324 32.1639C36.7905 32.1639 36.4501 32.1775 36.1096 32.1609C35.6721 32.1548 35.3227 31.7928 35.3287 31.3524C35.3347 30.9104 35.693 30.5574 36.129 30.5635C36.7995 30.5529 37.4714 30.5529 38.1418 30.5635C38.5689 30.5288 38.9437 30.8501 38.978 31.2815C38.9795 31.3056 38.981 31.3297 38.981 31.3524C38.987 31.7943 38.6391 32.1564 38.2016 32.1639C38.1866 32.1639 38.1702 32.1639 38.1553 32.1639C38.1329 32.1639 38.112 32.1654 38.0896 32.1654H37.1324V32.1639Z" fill="#6C18CD"/>
<path d="M42.4541 30.562C42.796 30.562 43.1365 30.5514 43.4769 30.565C43.9025 30.5484 44.2609 30.8833 44.2773 31.3132C44.2773 31.3177 44.2773 31.3207 44.2773 31.3252C44.3116 31.7461 44.0025 32.1156 43.5859 32.1503C43.562 32.1518 43.5382 32.1533 43.5158 32.1533C42.7901 32.1775 42.0629 32.176 41.3387 32.1518C40.9117 32.1458 40.5697 31.7898 40.5772 31.3584C40.5772 31.3554 40.5772 31.3524 40.5772 31.3478C40.5846 30.9134 40.9355 30.5665 41.3656 30.568C41.7284 30.5514 42.0913 30.565 42.4541 30.565" fill="#6C18CD"/>
<path d="M52.0732 37.0799C52.6376 36.5052 53.1886 35.9274 53.759 35.3708C54.0561 35.048 54.5578 35.0299 54.8774 35.3301C54.9864 35.4327 55.0655 35.5654 55.1029 35.7117C55.185 35.9742 55.1133 36.2623 54.9192 36.4554C54.2084 37.1885 53.4902 37.914 52.766 38.6335C52.5241 38.8839 52.1449 38.9352 51.8462 38.7602C51.1534 38.4178 50.4606 38.0724 49.7767 37.7134C49.3825 37.5233 49.2152 37.0467 49.4034 36.6485C49.5915 36.2502 50.0634 36.0813 50.4576 36.2714C50.4665 36.2759 50.4755 36.2804 50.4845 36.2849C51.0115 36.5368 51.5297 36.8068 52.0747 37.0814" fill="#6C18CD"/>
<path d="M51.8955 44.3987C48.4268 44.3987 45.6152 41.5569 45.6152 38.0528C45.6152 34.5488 48.4283 31.7084 51.897 31.7084C55.3656 31.7084 58.1773 34.5503 58.1773 38.0543C58.1773 41.5584 55.3656 44.4002 51.8955 44.4002M48.9883 38.0468C48.7225 38.0438 48.5045 38.2595 48.5015 38.528C48.5015 38.6547 48.5478 38.7769 48.6359 38.8689L50.3754 40.8223C50.4202 40.8736 50.4755 40.9143 50.5382 40.9414C50.6009 40.9686 50.6681 40.9837 50.7353 40.9837H50.7428C50.8114 40.9837 50.8801 40.9656 50.9428 40.9354C51.0056 40.9052 51.0608 40.863 51.1056 40.8087L55.1641 35.9275C55.3328 35.7208 55.3044 35.4131 55.0999 35.2426C55.0133 35.1702 54.9028 35.131 54.7908 35.131C54.7773 35.131 54.7639 35.131 54.7519 35.131C54.625 35.1416 54.5086 35.2004 54.4249 35.2985L50.7233 39.7498L49.3556 38.2142C49.2705 38.1147 49.1495 38.0528 49.0196 38.0453H48.9883" fill="white"/>
<path d="M24.094 70.0538C24.094 72.2576 22.7173 73.588 20.3745 73.588H18.293V66.4894H20.3745C22.7173 66.4894 24.094 67.8304 24.094 70.0538ZM20.3745 72.9982C22.3649 72.9982 23.3802 71.8805 23.3802 70.0538C23.3802 68.2271 22.3649 67.0777 20.3745 67.0777H18.9978V72.9982H20.3745Z" fill="#6C18CD"/>
<path d="M29.2604 67.0671H26.2949V69.7173H28.9587V70.3056H26.2949V72.9966H29.2604V73.5849H25.5916V66.4758H29.2604V67.0641V67.0671Z" fill="#6C18CD"/>
<path d="M41.0102 66.3989V73.588H38.7884V70.004L37.6924 73.588H35.7826L34.6866 70.004V73.588H32.4558V66.3989H35.1898L36.7577 70.7145L38.2852 66.3989H41.0088H41.0102Z" fill="#6C18CD"/>
<path d="M46.7784 72.5004H44.4072L44.0548 73.5864H41.7135L44.3161 66.3973H46.8889L49.4826 73.5864H47.1308L46.7784 72.5004ZM46.2364 70.8049L45.5928 68.8048L44.9493 70.8049H46.2364Z" fill="#6C18CD"/>
<path d="M53.765 73.5864L52.4286 71.007H52.4181V73.5864H50.1873V66.3973H53.5037C54.08 66.3973 54.5728 66.4999 54.9804 66.7066C55.3896 66.9132 55.6957 67.1938 55.9002 67.5498C56.1048 67.9058 56.2063 68.3055 56.2063 68.7535C56.2063 69.2347 56.0734 69.66 55.8091 70.0326C55.5449 70.4052 55.1641 70.6722 54.6684 70.8351L56.2168 73.5864H53.765ZM52.4181 69.5047H53.3021C53.5171 69.5047 53.6769 69.4564 53.7844 69.3568C53.8919 69.2588 53.9457 69.1049 53.9457 68.8953C53.9457 68.7052 53.8904 68.5574 53.7799 68.4488C53.6694 68.3402 53.5096 68.2859 53.3021 68.2859H52.4181V69.5047Z" fill="#6C18CD"/>
<path d="M61.0771 71.3586C61.2742 71.2258 61.4265 71.0418 61.534 70.805H63.8857C63.7588 71.5562 63.4497 72.1791 62.9615 72.6739C62.4732 73.1687 61.852 73.4734 61.1024 73.588H61.1532V73.9334C61.3414 73.9334 61.5355 73.9726 61.7356 74.0496C61.9371 74.128 62.1074 74.2592 62.2477 74.4463C62.3881 74.6318 62.4583 74.8747 62.4583 75.1718C62.4583 75.6123 62.3074 75.9275 62.0058 76.1206C61.7042 76.3137 61.3518 76.4102 60.9501 76.4102H59.2106V75.2623H60.7187C60.7993 75.2623 60.862 75.2472 60.9098 75.2171C60.9561 75.1869 60.98 75.1477 60.98 75.1009C60.98 74.9999 60.8934 74.9486 60.7187 74.9486H59.8646V73.5986C59.2614 73.5171 58.7372 73.3135 58.2923 72.9892C57.8473 72.6648 57.5069 72.244 57.2724 71.7296C57.038 71.2153 56.92 70.633 56.92 69.9829C56.92 69.2724 57.0619 68.6389 57.3471 68.0838C57.6323 67.5287 58.0384 67.0973 58.5685 66.7896C59.0971 66.4819 59.7213 66.328 60.438 66.328C61.0547 66.328 61.6056 66.4442 62.0909 66.678C62.5762 66.9118 62.9719 67.2421 63.2765 67.6675C63.5811 68.0928 63.7842 68.5921 63.8842 69.1593H61.5325C61.425 68.9225 61.2727 68.7384 61.0756 68.6057C60.8785 68.473 60.6515 68.4081 60.3977 68.4081C60.0229 68.4081 59.7257 68.5499 59.5077 68.835C59.2897 69.1186 59.1807 69.5017 59.1807 69.9829C59.1807 70.4641 59.2897 70.8457 59.5077 71.1308C59.7257 71.4144 60.0214 71.5577 60.3977 71.5577C60.653 71.5577 60.8785 71.4913 61.0756 71.3601L61.0771 71.3586Z" fill="#6C18CD"/>
<path d="M66.5138 73.1807C65.9538 72.8624 65.5104 72.4234 65.1819 71.8608C64.8534 71.2997 64.6891 70.6661 64.6891 69.9617C64.6891 69.2573 64.8534 68.6253 65.1819 68.0626C65.5104 67.5 65.9538 67.0625 66.5138 66.7473C67.0737 66.432 67.6874 66.2751 68.3579 66.2751C69.0283 66.2751 69.6405 66.432 70.1975 66.7473C70.7529 67.0625 71.1934 67.5 71.5189 68.0626C71.8444 68.6238 72.0057 69.2573 72.0057 69.9617C72.0057 70.6661 71.8429 71.2982 71.5189 71.8608C71.1934 72.4234 70.7514 72.8624 70.1915 73.1807C69.6315 73.4989 69.0208 73.6573 68.3579 73.6573C67.6949 73.6573 67.0722 73.4989 66.5138 73.1807ZM69.3837 71.1247C69.6241 70.8366 69.745 70.4489 69.745 69.9617C69.745 69.4745 69.6241 69.0763 69.3837 68.7897C69.1433 68.5016 68.8013 68.3583 68.3579 68.3583C67.9144 68.3583 67.5635 68.5016 67.3231 68.7897C67.0827 69.0778 66.9617 69.4685 66.9617 69.9617C66.9617 70.455 67.0827 70.8366 67.3231 71.1247C67.5635 71.4128 67.9099 71.5561 68.3579 71.5561C68.8058 71.5561 69.1418 71.4128 69.3837 71.1247Z" fill="#6C18CD"/>
<path d="M83.6092 43.5223C83.6092 43.5223 83.545 43.1422 83.4285 42.4604C83.4002 42.2899 83.3703 42.0999 83.336 41.8932C83.2941 41.6866 83.2494 41.4633 83.2001 41.222C83.0985 40.7423 83.006 40.1932 82.8507 39.5974C82.779 39.2987 82.7043 38.985 82.6267 38.6592C82.549 38.3334 82.4445 38 82.3505 37.6531C82.1713 36.9547 81.9249 36.2261 81.6845 35.4553C81.1649 33.9258 80.5318 32.2695 79.7687 30.5741C78.9908 28.8862 78.1561 27.3235 77.3423 25.9297C76.9183 25.2434 76.5315 24.5812 76.1224 23.9899C75.9223 23.6927 75.7387 23.3955 75.5445 23.124C75.3504 22.8525 75.1638 22.5916 74.9846 22.3427C74.6382 21.8358 74.2843 21.4075 73.9901 21.0183C73.8408 20.8252 73.702 20.6442 73.5735 20.4783C73.4392 20.3184 73.3167 20.1706 73.2062 20.0378C72.7687 19.5053 72.5238 19.2082 72.5238 19.2082C72.5238 19.2082 72.8105 19.4616 73.3272 19.9187C73.4556 20.0348 73.5989 20.163 73.7557 20.3033C73.9095 20.4481 74.0693 20.611 74.244 20.7845C74.5889 21.1344 74.998 21.5221 75.4027 21.9942C75.6102 22.2265 75.8253 22.4709 76.0507 22.7243C76.2747 22.9807 76.4882 23.2613 76.7182 23.5464C77.187 24.1105 77.6335 24.7546 78.1098 25.4304C79.0296 26.8015 79.9494 28.3778 80.7513 30.1155C81.5382 31.8593 82.125 33.5909 82.558 35.1883C82.7551 35.9938 82.9492 36.7541 83.0702 37.4811C83.1344 37.8431 83.2075 38.1901 83.2553 38.528C83.3001 38.8658 83.3419 39.1901 83.3822 39.5009C83.4733 40.1178 83.4987 40.6835 83.539 41.1767C83.5555 41.4241 83.5749 41.6519 83.5838 41.8646C83.5883 42.0757 83.5913 42.2703 83.5943 42.4438C83.6017 43.1361 83.6062 43.5223 83.6062 43.5223H83.6092Z" fill="#6C18CD"/>
<path d="M11.3213 28.337C11.3213 28.337 11.2048 28.5346 10.9958 28.8861C10.8883 29.0595 10.7599 29.2737 10.624 29.5302C10.4851 29.7851 10.3164 30.0657 10.1581 30.3915C9.99089 30.7128 9.81021 31.0642 9.63551 31.4519C9.44737 31.8305 9.27864 32.2513 9.08751 32.6858C8.73064 33.5652 8.37377 34.5411 8.05274 35.5849C7.74216 36.6303 7.49877 37.6424 7.30913 38.5731C7.22701 39.0407 7.13443 39.4842 7.08217 39.905C7.01199 40.3244 6.96869 40.7181 6.92987 41.0786C6.88059 41.4391 6.86566 41.7679 6.84028 42.056C6.81191 42.3456 6.79996 42.596 6.79399 42.7997C6.77308 43.2085 6.75964 43.4393 6.75964 43.4393C6.75964 43.4393 6.71784 43.213 6.64318 42.8087C6.60435 42.6051 6.56404 42.3547 6.53567 42.0621C6.5058 41.7694 6.45951 41.4361 6.44906 41.065C6.42816 40.6939 6.41173 40.2867 6.42666 39.8477C6.42517 39.4088 6.46549 38.9427 6.5073 38.4494C6.61331 37.4689 6.80743 36.3934 7.13294 35.2983C7.46741 34.2063 7.90043 33.2047 8.35436 32.3313C8.59327 31.8999 8.81575 31.4896 9.06064 31.1261C9.29059 30.755 9.5295 30.4262 9.75049 30.129C9.96401 29.8273 10.1865 29.5754 10.3731 29.3507C10.5583 29.1244 10.73 28.9389 10.8749 28.7926C11.1586 28.4999 11.3198 28.3355 11.3198 28.3355L11.3213 28.337Z" fill="#6C18CD"/>
<path d="M51.561 83.91C51.561 83.91 50.7906 84.085 49.5333 84.3083C48.2775 84.53 46.529 84.8 44.573 84.8739C43.5949 84.9071 42.6602 84.8799 41.815 84.8136C40.9684 84.7382 40.2114 84.6295 39.5827 84.4968C39.2677 84.4395 38.987 84.3641 38.7391 84.3022C38.4912 84.2434 38.2822 84.1815 38.1105 84.1272C37.7715 84.0217 37.5804 83.9613 37.5804 83.9613C37.5804 83.9613 37.779 83.99 38.1284 84.0413C38.3046 84.0699 38.5196 84.1016 38.7704 84.1272C39.0213 84.1544 39.305 84.1951 39.6216 84.2162C40.2517 84.2781 41.0042 84.3143 41.8374 84.3354C42.6721 84.3475 43.5889 84.3399 44.552 84.3067C46.4783 84.2343 48.2268 84.1061 49.499 84.0262C50.7697 83.9432 51.5595 83.91 51.5595 83.91H51.561Z" fill="#6C18CD"/>
<path d="M28.8961 81.2823C28.8961 81.2823 28.5795 81.2114 28.0808 81.044C27.5836 80.8781 26.9057 80.6036 26.2068 80.2038C25.508 79.8041 24.9272 79.3591 24.53 79.0137C24.1313 78.6683 23.9088 78.4299 23.9088 78.4299C23.9088 78.4299 24.1702 78.6245 24.6002 78.9202C25.0302 79.2173 25.6335 79.6065 26.3218 80.0002C27.0102 80.3924 27.6508 80.7152 28.1241 80.9339C28.5974 81.1541 28.8961 81.2808 28.8961 81.2808V81.2823Z" fill="#6C18CD"/>
</svg>
