<svg width="72" height="72" viewBox="0 0 72 72" fill="none" xmlns="http://www.w3.org/2000/svg">
<mask id="mask0" style="mask-type:alpha" maskUnits="userSpaceOnUse" x="0" y="0" width="72" height="72">
<circle cx="36" cy="36" r="36" fill="#FFECEE"/>
</mask>
<g mask="url(#mask0)">
<circle cx="36" cy="36" r="36" fill="#FFE0F1"/>
<path d="M34.1221 58.1915C34.1221 58.4885 34.0022 58.7733 33.7888 58.9833C33.5753 59.1934 33.2859 59.3113 32.9841 59.3113C32.6823 59.3113 32.3928 59.1934 32.1794 58.9833C31.966 58.7733 31.8461 58.4885 31.8461 58.1915V56.1266C31.7856 56.0932 31.7278 56.0553 31.6732 56.0132C30.953 55.4462 30.1559 54.832 29.4837 54.2508C28.4897 53.4522 27.3469 52.5308 26.5547 51.8882C26.0483 51.4665 25.4477 51.1686 24.8021 51.0188C24.4747 50.9425 24.1322 50.9572 23.8129 51.0613C23.5582 51.158 23.3527 51.35 23.2415 51.5953C23.0521 52.0975 22.9847 52.6363 23.0446 53.1687C23.1159 53.8406 23.3026 54.4957 23.5968 55.106C23.9875 55.952 24.4705 56.7537 25.0373 57.4969L25.1094 57.6009L33.7523 70.4578C33.8491 70.5995 33.9115 70.7612 33.9348 70.9303C34.0057 72.0194 34.3205 73.0795 34.8567 74.0347C34.9827 74.2536 35.1667 74.4347 35.3891 74.5587C35.6116 74.6827 35.864 74.7449 36.1196 74.7388H49.6746C50.5011 74.733 51.3057 74.4774 51.9794 74.0064C52.8597 73.3609 53.5817 72.5293 54.0922 71.5729L54.2554 71.2989C55.936 68.4638 57.5638 65.6902 57.7318 62.411L57.6454 58.6309C57.6454 58.579 57.6454 58.5223 57.6454 58.4656V57.5725C57.679 55.0588 57.7174 51.9497 55.379 51.5575H53.8665C53.8665 52.2662 53.8137 52.975 53.7704 53.6838C53.7272 54.3075 53.6888 54.9123 53.6888 55.484C53.6701 55.7678 53.5423 56.034 53.3313 56.2285C53.1204 56.4229 52.8423 56.5312 52.5532 56.5312C52.2642 56.5312 51.986 56.4229 51.7751 56.2285C51.5642 56.034 51.4364 55.7678 51.4176 55.484C51.4176 54.9076 51.4609 54.2366 51.5041 53.5467C51.6577 51.1842 51.8306 48.4578 49.9051 48.1176H48.4118C48.3303 48.125 48.2484 48.125 48.1669 48.1176C48.1669 48.9729 48.1237 49.8612 48.0709 50.7164C48.0277 51.3401 47.9893 51.9449 47.9893 52.5167C47.9994 52.6695 47.9775 52.8228 47.925 52.967C47.8725 53.1112 47.7905 53.2433 47.6841 53.3551C47.5776 53.4669 47.449 53.556 47.3062 53.6169C47.1633 53.6778 47.0093 53.7092 46.8537 53.7092C46.698 53.7092 46.544 53.6778 46.4012 53.6169C46.2583 53.556 46.1297 53.4669 46.0233 53.3551C45.9168 53.2433 45.8348 53.1112 45.7823 52.967C45.7298 52.8228 45.708 52.6695 45.7181 52.5167C45.7181 51.9402 45.7613 51.274 45.8045 50.5794C45.9582 48.2168 46.131 45.4905 44.2055 45.1503H42.7122C42.6116 45.1523 42.5113 45.1395 42.4145 45.1125V49.4454C42.4145 49.7424 42.2946 50.0272 42.0812 50.2372C41.8678 50.4472 41.5784 50.5652 41.2765 50.5652C40.9747 50.5652 40.6853 50.4472 40.4719 50.2372C40.2584 50.0272 40.1385 49.7424 40.1385 49.4454V37.7886C40.1385 35.8466 39.3319 34.618 38.3043 34.103C37.937 33.9183 37.5308 33.8212 37.1183 33.8195C36.7073 33.8202 36.3023 33.9174 35.9371 34.103C34.9143 34.6133 34.1221 35.8466 34.1221 37.8358V58.1915V58.1915ZM24.6436 36.7018C24.8471 36.6904 25.0509 36.7201 25.2424 36.7889C25.4339 36.8578 25.6091 36.9643 25.7573 37.1021C25.9055 37.2399 26.0235 37.406 26.1042 37.5903C26.1849 37.7745 26.2265 37.973 26.2265 38.1737C26.2265 38.3743 26.1849 38.5728 26.1042 38.757C26.0235 38.9413 25.9055 39.1074 25.7573 39.2452C25.6091 39.383 25.4339 39.4896 25.2424 39.5584C25.0509 39.6272 24.8471 39.6569 24.6436 39.6455H20.4133C20.0313 39.6242 19.672 39.4599 19.4092 39.1862C19.1464 38.9125 19 38.5502 19 38.1737C19 37.7971 19.1464 37.4348 19.4092 37.1612C19.672 36.8875 20.0313 36.7231 20.4133 36.7018H24.6436ZM28.9171 27.899C29.1818 28.1794 29.3253 28.5501 29.3172 28.9328C29.3092 29.3155 29.1502 29.68 28.874 29.9495C28.5977 30.2189 28.2258 30.372 27.8368 30.3764C27.4479 30.3809 27.0725 30.2363 26.7899 29.9733L23.4288 26.6657C23.1492 26.3881 22.9932 26.0127 22.995 25.6219C22.9968 25.2311 23.1563 24.857 23.4384 24.582C23.7205 24.3069 24.102 24.1533 24.4991 24.1551C24.8962 24.1569 25.2764 24.3138 25.5559 24.5914L28.9171 27.899ZM48.6039 39.6361C48.2218 39.6148 47.8626 39.4504 47.5998 39.1767C47.3369 38.903 47.1905 38.5408 47.1905 38.1642C47.1905 37.7877 47.3369 37.4254 47.5998 37.1517C47.8626 36.878 48.2218 36.7137 48.6039 36.6924H52.8341C53.0377 36.681 53.2414 36.7106 53.4329 36.7795C53.6244 36.8483 53.7996 36.9549 53.9478 37.0927C54.096 37.2305 54.2141 37.3966 54.2947 37.5808C54.3754 37.7651 54.417 37.9636 54.417 38.1642C54.417 38.3648 54.3754 38.5634 54.2947 38.7476C54.2141 38.9318 54.096 39.098 53.9478 39.2357C53.7996 39.3735 53.6244 39.4801 53.4329 39.5489C53.2414 39.6178 53.0377 39.6474 52.8341 39.6361H48.6039ZM46.4335 29.6614C46.1503 29.9237 45.7746 30.0674 45.3858 30.062C44.9969 30.0566 44.6254 29.9027 44.3498 29.6327C44.0742 29.3627 43.9161 28.9979 43.9089 28.6152C43.9017 28.2326 44.0459 27.8622 44.3112 27.5824L47.6723 24.2748C47.9555 24.0125 48.3313 23.8689 48.7201 23.8742C49.109 23.8796 49.4804 24.0335 49.7561 24.3035C50.0317 24.5735 50.1898 24.9384 50.197 25.321C50.2042 25.7036 50.0599 26.074 49.7947 26.3539L46.4335 29.6614V29.6614ZM38.2707 24.5536C38.2822 24.7539 38.2521 24.9544 38.1822 25.1429C38.1122 25.3313 38.0039 25.5037 37.8639 25.6495C37.7239 25.7954 37.5551 25.9115 37.3678 25.9909C37.1806 26.0703 36.9789 26.1113 36.775 26.1113C36.5711 26.1113 36.3694 26.0703 36.1821 25.9909C35.9949 25.9115 35.8261 25.7954 35.6861 25.6495C35.5461 25.5037 35.4378 25.3313 35.3678 25.1429C35.2979 24.9544 35.2677 24.7539 35.2793 24.5536V20.3908C35.3009 20.0149 35.4679 19.6613 35.7461 19.4027C36.0242 19.1441 36.3923 19 36.775 19C37.1576 19 37.5258 19.1441 37.8039 19.4027C38.082 19.6613 38.249 20.0149 38.2707 20.3908V24.5536ZM51.1391 61.6739C51.13 61.5483 51.1472 61.4222 51.1897 61.3034C51.2322 61.1847 51.2992 61.0758 51.3864 60.9836C51.4735 60.8914 51.5791 60.8179 51.6964 60.7677C51.8137 60.7174 51.9403 60.6914 52.0683 60.6914C52.1962 60.6914 52.3228 60.7174 52.4401 60.7677C52.5575 60.8179 52.663 60.8914 52.7502 60.9836C52.8373 61.0758 52.9043 61.1847 52.9468 61.3034C52.9893 61.4222 53.0066 61.5483 52.9974 61.6739V65.8509C52.9805 66.082 52.8753 66.2983 52.7029 66.4561C52.5305 66.614 52.3037 66.7018 52.0683 66.7018C51.8328 66.7018 51.606 66.614 51.4336 66.4561C51.2613 66.2983 51.156 66.082 51.1391 65.8509V61.6739ZM45.6364 59.8264C45.6533 59.5952 45.7586 59.379 45.9309 59.2211C46.1033 59.0632 46.3301 58.9755 46.5656 58.9755C46.801 58.9755 47.0278 59.0632 47.2002 59.2211C47.3726 59.379 47.4778 59.5952 47.4947 59.8264V65.8509C47.4778 66.082 47.3726 66.2983 47.2002 66.4561C47.0278 66.614 46.801 66.7018 46.5656 66.7018C46.3301 66.7018 46.1033 66.614 45.9309 66.4561C45.7586 66.2983 45.6533 66.082 45.6364 65.8509V59.8264ZM31.8461 53.2821V37.8216C31.8461 34.8637 33.1905 32.9548 34.9047 32.0948C35.5897 31.7547 36.3462 31.5775 37.1135 31.5775C37.8808 31.5775 38.6373 31.7547 39.3223 32.0948C41.0557 32.9548 42.4145 34.8637 42.4145 37.7649V42.9153C42.5118 42.8905 42.6118 42.8778 42.7122 42.8775H44.2776C44.3632 42.8773 44.4486 42.8868 44.5321 42.9058C45.3627 42.9776 46.146 43.317 46.7606 43.8715C47.3753 44.4259 47.7869 45.1644 47.9316 45.9724C48.082 45.9036 48.2459 45.8681 48.4118 45.8685H49.9771C50.0628 45.8683 50.1482 45.8778 50.2316 45.8968C52.4788 46.237 53.3863 47.5979 53.708 49.3178C53.7671 49.3129 53.8266 49.3129 53.8857 49.3178H55.451C55.5367 49.3176 55.6221 49.3271 55.7055 49.3461C60.027 49.9982 59.955 54.2082 59.9118 57.6009C59.9118 59.1979 59.9598 60.795 59.9982 62.3921C60.0006 62.4346 60.0006 62.4772 59.9982 62.5197C59.8061 66.3564 58.0391 69.3522 56.2193 72.4424L56.0656 72.7117C55.3842 73.9565 54.4296 75.0363 53.2711 75.8728C52.2195 76.5978 50.9682 76.9901 49.6842 76.9973H36.1388C35.5048 77.0217 34.8759 76.8775 34.3182 76.5798C33.7605 76.2821 33.2946 75.842 32.9697 75.3058C32.2659 74.1415 31.8361 72.837 31.7116 71.4879L23.2415 58.8341C22.5751 57.9523 22.0084 57.0017 21.5513 55.9991C21.1488 55.1486 20.9001 54.2356 20.8167 53.301C20.7269 52.4068 20.8621 51.5045 21.2104 50.6739C21.5433 49.9051 22.1716 49.2971 22.9582 48.9823C23.684 48.7087 24.4755 48.6511 25.2342 48.8169C26.2529 49.0374 27.202 49.4979 28 50.1588C28.6866 50.7164 29.8198 51.6331 30.9242 52.5214L31.8845 53.2821H31.8461Z" fill="#FF1493"/>
</g>
</svg>
