<svg width="72" height="72" viewBox="0 0 72 72" fill="none" xmlns="http://www.w3.org/2000/svg">
<circle cx="36" cy="36" r="36" fill="#FFECEE"/>
<path fill-rule="evenodd" clip-rule="evenodd" d="M22.8575 50.3891C21.2035 47.6561 20.4799 44.2146 21.4103 41.1273C22.289 38.2931 24.2531 35.8638 26.2172 33.6875C28.388 31.2076 30.8173 28.8289 32.1612 25.7923C33.8152 22.0471 33.5568 17.5427 31.4893 14C32.6264 15.0628 34.177 15.5183 35.5725 16.1763C38.5187 17.5427 40.9997 19.9721 42.1885 22.9581C43.3773 25.9441 43.2222 29.4362 41.5682 32.2198C39.7075 35.4083 35.831 37.3821 35.2107 41.2285C35.004 42.6962 35.5209 44.3664 36.9164 45.0243C37.3816 45.2268 37.8985 45.328 38.4153 45.328C40.3794 45.2774 42.1885 44.0121 43.3256 42.3926C45.2897 39.7102 45.2897 36.876 44.8245 33.7382C45.7032 33.9406 46.6853 35.1553 47.2538 35.8132C49.9415 38.7992 51.854 43.6072 50.6135 47.5549C49.7865 50.0854 47.9774 52.2617 45.8066 53.8306C41.4132 57.0191 35.4175 57.8794 30.3005 56.0575C27.1992 55.0452 24.5115 53.0714 22.8575 50.3891Z" fill="#FD5064"/>
</svg>
