<svg width="34" height="34" viewBox="0 0 34 34" fill="none" xmlns="http://www.w3.org/2000/svg">
<path d="M31.5158 22.9715L28.6908 20.1464C27.8487 19.3111 26.712 18.8401 25.5258 18.835C24.3397 18.83 23.199 19.2913 22.3499 20.1195C21.8967 20.5752 21.2989 20.8587 20.6594 20.9213C20.0198 20.9839 19.3784 20.8216 18.8455 20.4623C16.7424 19.0587 14.9357 17.2555 13.528 15.1551C13.1751 14.6163 13.0187 13.9723 13.0851 13.3317C13.1515 12.691 13.4367 12.0928 13.8927 11.6379C14.7134 10.7879 15.1687 9.65045 15.1613 8.46896C15.1538 7.28747 14.6842 6.15582 13.8529 5.31624L11.0279 2.4912C10.1821 1.64832 9.03668 1.17503 7.84262 1.17503C6.64855 1.17503 5.50316 1.64832 4.65738 2.4912L3.84454 3.30533C-0.393018 7.54289 -0.0758486 16.452 8.74085 25.2636C14.0571 30.5811 19.408 32.8077 23.747 32.8077C25.0242 32.8503 26.2972 32.6382 27.4916 32.1838C28.6861 31.7294 29.7782 31.0419 30.7043 30.1612L31.5184 29.3471C32.3628 28.5009 32.8369 27.3542 32.8364 26.1587C32.8359 24.9633 32.3609 23.817 31.5158 22.9715H31.5158ZM29.7001 27.5313L28.886 28.3455C25.5473 31.6842 18.1778 31.0742 10.554 23.4492C2.93025 15.8241 2.31901 8.44947 5.6577 5.11079L6.46541 4.29795C6.82908 3.93559 7.32154 3.73213 7.83492 3.73213C8.3483 3.73213 8.84075 3.93559 9.20442 4.29795L12.0295 7.12299C12.3865 7.48184 12.5892 7.96603 12.5942 8.47223C12.5993 8.97844 12.4063 9.46657 12.0564 9.83246C11.1887 10.7057 10.6475 11.8506 10.5233 13.0753C10.3992 14.3001 10.6997 15.5303 11.3746 16.5599C12.974 18.9534 15.0307 21.0071 17.4266 22.6029C18.4531 23.2779 19.6801 23.5802 20.9026 23.4593C22.1252 23.3385 23.2693 22.8019 24.1438 21.939C24.5089 21.5851 24.9985 21.3885 25.507 21.3916C26.0156 21.3947 26.5027 21.5973 26.8635 21.9557L29.6885 24.7808C29.8706 24.9602 30.0154 25.1739 30.1146 25.4095C30.2138 25.6451 30.2654 25.898 30.2665 26.1537C30.2675 26.4093 30.218 26.6626 30.1208 26.899C30.0237 27.1355 29.8807 27.3504 29.7001 27.5313H29.7001Z" fill="#6C18CD" stroke="#6C18CD"/>
</svg>
