<svg width="123" height="115" viewBox="0 0 123 115" fill="none" xmlns="http://www.w3.org/2000/svg">
<g clip-path="url(#clip0_905_9)">
<path fill-rule="evenodd" clip-rule="evenodd" d="M9.32 0H113.56C118.69 0 122.88 4.2 122.88 9.32V82.94C122.88 88.05 118.67 92.26 113.56 92.26H83.84L67.67 111.32C64.09 115.55 58.22 115.36 54.86 111.32L39.04 92.26H9.32C4.21 92.26 0 88.07 0 82.94V9.32C0 4.19 4.19 0 9.32 0Z" fill="black"/>
<path d="M57.5 20C43.1705 20 30.1757 27.8398 20.5868 40.5738C19.8044 41.6171 19.8044 43.0746 20.5868 44.1178C30.1757 56.8671 43.1705 64.707 57.5 64.707C71.8296 64.707 84.8243 56.8671 94.4132 44.1332C95.1956 43.0899 95.1956 41.6324 94.4132 40.5891C84.8243 27.8398 71.8296 20 57.5 20ZM58.5279 58.0945C49.0158 58.6928 41.1606 50.853 41.759 41.3256C42.2499 33.4704 48.6169 27.1034 56.4721 26.6125C65.9842 26.0141 73.8394 33.8539 73.241 43.3814C72.7347 51.2212 66.3678 57.5882 58.5279 58.0945ZM58.0523 50.8223C52.928 51.1445 48.6936 46.9254 49.0311 41.8012C49.292 37.5667 52.7286 34.1454 56.963 33.8693C62.0873 33.5471 66.3217 37.7662 65.9842 42.8905C65.708 47.1402 62.2714 50.5615 58.0523 50.8223Z" fill="#02FFFE"/>
<path d="M65.5 28C51.1705 28 38.1757 35.8398 28.5868 48.5738C27.8044 49.6171 27.8044 51.0746 28.5868 52.1178C38.1757 64.8671 51.1705 72.707 65.5 72.707C79.8296 72.707 92.8243 64.8671 102.413 52.1332C103.196 51.0899 103.196 49.6324 102.413 48.5891C92.8243 35.8398 79.8296 28 65.5 28ZM66.5279 66.0945C57.0158 66.6928 49.1606 58.853 49.759 49.3256C50.2499 41.4704 56.6169 35.1034 64.4721 34.6125C73.9842 34.0141 81.8394 41.8539 81.241 51.3814C80.7347 59.2212 74.3678 65.5882 66.5279 66.0945ZM66.0523 58.8223C60.928 59.1445 56.6936 54.9254 57.0311 49.8012C57.292 45.5667 60.7286 42.1454 64.963 41.8693C70.0873 41.5471 74.3217 45.7662 73.9842 50.8905C73.708 55.1402 70.2714 58.5615 66.0523 58.8223Z" fill="#EA1C27"/>
<circle cx="61.5" cy="46.5" r="17.5" fill="black"/>
<path d="M61.5 24C47.1705 24 34.1757 31.8398 24.5868 44.5738C23.8044 45.6171 23.8044 47.0746 24.5868 48.1178C34.1757 60.8671 47.1705 68.707 61.5 68.707C75.8296 68.707 88.8243 60.8671 98.4132 48.1332C99.1956 47.0899 99.1956 45.6324 98.4132 44.5891C88.8243 31.8398 75.8296 24 61.5 24ZM62.5279 62.0945C53.0158 62.6928 45.1606 54.853 45.759 45.3256C46.2499 37.4704 52.6169 31.1034 60.4721 30.6125C69.9842 30.0141 77.8394 37.8539 77.241 47.3814C76.7347 55.2212 70.3678 61.5882 62.5279 62.0945ZM62.0523 54.8223C56.928 55.1445 52.6936 50.9254 53.0311 45.8012C53.292 41.5667 56.7286 38.1454 60.963 37.8693C66.0873 37.5471 70.3217 41.7662 69.9842 46.8905C69.708 51.1402 66.2714 54.5615 62.0523 54.8223Z" fill="white"/>
</g>
<defs>
<clipPath id="clip0_905_9">
<rect width="122.88" height="114.42" fill="white"/>
</clipPath>
</defs>
</svg>
