<svg width="102" height="91" viewBox="0 0 102 91" fill="none" xmlns="http://www.w3.org/2000/svg">
<mask id="path-1-outside-1_401_18" maskUnits="userSpaceOnUse" x="0" y="0" width="102" height="91" fill="black">
<rect fill="white" width="102" height="91"/>
<path d="M54.2736 16.7137C53.72 17.292 53.1666 17.8783 52.4831 18.5772L50.6031 20.5128L48.6498 18.6413C48.072 18.0872 47.4861 17.5169 46.9164 16.9627C40.8778 11.0995 36.3285 6.68197 26.9612 6.5615C26.5951 6.55348 26.2044 6.5615 25.7975 6.57756C20.5564 6.76229 15.7222 8.66583 12.1902 11.9187C8.707 15.1314 6.48524 19.6854 6.41198 25.2274C6.40385 25.5728 6.41198 25.9343 6.42827 26.3278C6.98981 41.8051 21.997 55.3065 34.4403 66.4949C36.8412 68.6554 39.1444 70.7276 41.3498 72.8239L50.5136 81.5384L62.0293 70.2617C63.8849 68.4466 65.9846 66.4627 68.2307 64.3424C72.0476 60.728 76.2958 56.7201 80.251 52.6802C83.0914 49.7806 85.7851 46.8651 88.072 44.062C90.3181 41.3152 92.1575 38.7048 93.3375 36.3757C95.2744 32.5524 95.8848 28.7293 95.4697 25.1552C95.0627 21.6292 93.6549 18.3362 91.547 15.525C89.4066 12.6737 86.5583 10.3124 83.2948 8.69797C79.5349 6.85065 75.2297 5.97518 70.8268 6.47316C63.2337 7.34059 59.189 11.5734 54.2736 16.7137ZM50.4566 12.9227C56.072 7.05144 60.7353 2.24039 70.2083 1.17216C75.6773 0.553708 81.0324 1.62997 85.6956 3.94313C89.7241 5.93502 93.2398 8.84254 95.8766 12.3524C98.5378 15.9025 100.32 20.071 100.841 24.5527C101.37 29.0987 100.605 33.942 98.1554 38.761C96.7719 41.4839 94.721 44.4074 92.2714 47.4032C89.8705 50.343 87.071 53.379 84.1331 56.3748C80.1046 60.4951 75.8237 64.5431 71.9663 68.1895C69.7119 70.3179 67.6041 72.31 65.83 74.0447L50.5542 89L37.5819 76.6712C35.5554 74.7516 33.2115 72.6393 30.7781 70.4465C17.5859 58.5674 1.65921 44.2468 1.01628 26.5126C1 26.0788 1 25.629 1 25.1631C1.09766 18.047 3.97863 12.1677 8.49541 8.00722C12.9715 3.88691 19.0508 1.47737 25.5941 1.24444C26.0417 1.22838 26.5137 1.22035 27.0102 1.22838C38.4363 1.38098 43.6612 6.32055 50.4566 12.9227Z"/>
</mask>
<path d="M54.2736 16.7137C53.72 17.292 53.1666 17.8783 52.4831 18.5772L50.6031 20.5128L48.6498 18.6413C48.072 18.0872 47.4861 17.5169 46.9164 16.9627C40.8778 11.0995 36.3285 6.68197 26.9612 6.5615C26.5951 6.55348 26.2044 6.5615 25.7975 6.57756C20.5564 6.76229 15.7222 8.66583 12.1902 11.9187C8.707 15.1314 6.48524 19.6854 6.41198 25.2274C6.40385 25.5728 6.41198 25.9343 6.42827 26.3278C6.98981 41.8051 21.997 55.3065 34.4403 66.4949C36.8412 68.6554 39.1444 70.7276 41.3498 72.8239L50.5136 81.5384L62.0293 70.2617C63.8849 68.4466 65.9846 66.4627 68.2307 64.3424C72.0476 60.728 76.2958 56.7201 80.251 52.6802C83.0914 49.7806 85.7851 46.8651 88.072 44.062C90.3181 41.3152 92.1575 38.7048 93.3375 36.3757C95.2744 32.5524 95.8848 28.7293 95.4697 25.1552C95.0627 21.6292 93.6549 18.3362 91.547 15.525C89.4066 12.6737 86.5583 10.3124 83.2948 8.69797C79.5349 6.85065 75.2297 5.97518 70.8268 6.47316C63.2337 7.34059 59.189 11.5734 54.2736 16.7137ZM50.4566 12.9227C56.072 7.05144 60.7353 2.24039 70.2083 1.17216C75.6773 0.553708 81.0324 1.62997 85.6956 3.94313C89.7241 5.93502 93.2398 8.84254 95.8766 12.3524C98.5378 15.9025 100.32 20.071 100.841 24.5527C101.37 29.0987 100.605 33.942 98.1554 38.761C96.7719 41.4839 94.721 44.4074 92.2714 47.4032C89.8705 50.343 87.071 53.379 84.1331 56.3748C80.1046 60.4951 75.8237 64.5431 71.9663 68.1895C69.7119 70.3179 67.6041 72.31 65.83 74.0447L50.5542 89L37.5819 76.6712C35.5554 74.7516 33.2115 72.6393 30.7781 70.4465C17.5859 58.5674 1.65921 44.2468 1.01628 26.5126C1 26.0788 1 25.629 1 25.1631C1.09766 18.047 3.97863 12.1677 8.49541 8.00722C12.9715 3.88691 19.0508 1.47737 25.5941 1.24444C26.0417 1.22838 26.5137 1.22035 27.0102 1.22838C38.4363 1.38098 43.6612 6.32055 50.4566 12.9227Z" fill="#7DF9FF"/>
<path d="M54.2736 16.7137L54.996 17.4052L54.9963 17.4048L54.2736 16.7137ZM52.4831 18.5772L51.7682 17.8779L51.7657 17.8804L52.4831 18.5772ZM50.6031 20.5128L49.9112 21.2349L50.6284 21.922L51.3204 21.2095L50.6031 20.5128ZM48.6498 18.6413L47.9577 19.3631L47.958 19.3633L48.6498 18.6413ZM46.9164 16.9627L47.6138 16.2459L47.6131 16.2452L46.9164 16.9627ZM26.9612 6.5615L26.9393 7.5613L26.9483 7.56142L26.9612 6.5615ZM25.7975 6.57756L25.8327 7.57695L25.8369 7.57678L25.7975 6.57756ZM12.1902 11.9187L11.5128 11.1831L11.5122 11.1836L12.1902 11.9187ZM6.41198 25.2274L7.41176 25.251L7.4119 25.2406L6.41198 25.2274ZM6.42827 26.3278L7.42763 26.2915L7.42742 26.2864L6.42827 26.3278ZM34.4403 66.4949L35.1093 65.7515L35.109 65.7512L34.4403 66.4949ZM41.3498 72.8239L42.039 72.0993L42.0388 72.0991L41.3498 72.8239ZM50.5136 81.5384L49.8244 82.2631L50.5237 82.9281L51.2132 82.2529L50.5136 81.5384ZM62.0293 70.2617L61.3301 69.5469L61.3297 69.5473L62.0293 70.2617ZM68.2307 64.3424L68.9171 65.0696L68.9183 65.0685L68.2307 64.3424ZM80.251 52.6802L79.5367 51.9804L79.5365 51.9806L80.251 52.6802ZM88.072 44.062L87.2979 43.4289L87.2972 43.4298L88.072 44.062ZM93.3375 36.3757L94.2295 36.8276L94.2295 36.8276L93.3375 36.3757ZM95.4697 25.1552L94.4763 25.2698L94.4763 25.2705L95.4697 25.1552ZM91.547 15.525L92.347 14.9251L92.3467 14.9247L91.547 15.525ZM83.2948 8.69797L83.7381 7.80164L83.7357 7.80045L83.2948 8.69797ZM70.8268 6.47316L70.7144 5.47949L70.7133 5.47962L70.8268 6.47316ZM50.4566 12.9227L49.7598 13.6399L50.4827 14.3423L51.1793 13.6139L50.4566 12.9227ZM70.2083 1.17216L70.3204 2.16586L70.3207 2.16582L70.2083 1.17216ZM85.6956 3.94313L85.2512 4.83897L85.2524 4.83953L85.6956 3.94313ZM95.8766 12.3524L96.6768 11.7526L96.6761 11.7518L95.8766 12.3524ZM100.841 24.5527L99.8477 24.6681L99.8477 24.6683L100.841 24.5527ZM98.1554 38.761L97.264 38.3078L97.2639 38.308L98.1554 38.761ZM92.2714 47.4032L91.4972 46.7702L91.4968 46.7707L92.2714 47.4032ZM84.1331 56.3748L83.4191 55.6747L83.418 55.6757L84.1331 56.3748ZM71.9663 68.1895L72.6528 68.9167L72.6532 68.9162L71.9663 68.1895ZM65.83 74.0447L65.1309 73.3298L65.1304 73.3302L65.83 74.0447ZM50.5542 89L49.8653 89.7249L50.5645 90.3894L51.2538 89.7146L50.5542 89ZM37.5819 76.6712L38.2708 75.9463L38.2696 75.9452L37.5819 76.6712ZM30.7781 70.4465L31.4476 69.7037L31.4473 69.7034L30.7781 70.4465ZM1.01628 26.5126L2.01562 26.4763L2.01557 26.4751L1.01628 26.5126ZM1 25.1631L0 25.1494V25.1631H1ZM8.49541 8.00722L7.81814 7.27148L7.81791 7.2717L8.49541 8.00722ZM25.5941 1.24444L25.6296 2.24381L25.6299 2.2438L25.5941 1.24444ZM27.0102 1.22838L26.994 2.22825L26.9968 2.22829L27.0102 1.22838ZM53.5512 16.0222C52.9922 16.6062 52.4467 17.1842 51.7682 17.8779L53.1979 19.2764C53.8865 18.5724 54.4478 17.9778 54.996 17.4052L53.5512 16.0222ZM51.7657 17.8804L49.8857 19.8161L51.3204 21.2095L53.2004 19.2739L51.7657 17.8804ZM51.2949 19.7908L49.3417 17.9192L47.958 19.3633L49.9112 21.2349L51.2949 19.7908ZM49.342 17.9195C48.7673 17.3684 48.1841 16.8008 47.6138 16.2459L46.2191 17.6795C46.7881 18.233 47.3768 18.806 47.9577 19.3631L49.342 17.9195ZM47.6131 16.2452C41.5769 10.3844 36.7728 5.68761 26.974 5.56158L26.9483 7.56142C35.8841 7.67634 40.1787 11.8145 46.2198 17.6801L47.6131 16.2452ZM26.9831 5.56174C26.5886 5.55309 26.1755 5.56186 25.758 5.57834L25.8369 7.57678C26.2333 7.56113 26.6016 7.55386 26.9393 7.56126L26.9831 5.56174ZM25.7622 5.57818C20.3049 5.77054 15.2363 7.75389 11.5128 11.1831L12.8676 12.6543C16.2082 9.57777 20.808 7.75405 25.8327 7.57694L25.7622 5.57818ZM11.5122 11.1836C7.82882 14.581 5.48899 19.3953 5.41207 25.2142L7.4119 25.2406C7.48149 19.9756 9.58518 15.6819 12.8682 12.6538L11.5122 11.1836ZM5.41226 25.2039C5.4034 25.5801 5.41243 25.9657 5.42913 26.3691L7.42742 26.2864C7.41154 25.9029 7.4043 25.5656 7.41171 25.251L5.41226 25.2039ZM5.42893 26.364C5.72103 34.415 9.76398 41.8655 15.1983 48.6451C20.6357 55.4285 27.562 61.655 33.7717 67.2385L35.109 65.7512C28.8753 60.1463 22.0763 54.028 16.7589 47.3942C11.4384 40.7567 7.69706 33.7179 7.42761 26.2915L5.42893 26.364ZM33.7714 67.2382C36.1743 69.4006 38.4671 71.4635 40.6609 73.5487L42.0388 72.0991C39.8217 69.9918 37.5081 67.9103 35.1093 65.7515L33.7714 67.2382ZM40.6607 73.5485L49.8244 82.2631L51.2027 80.8138L42.039 72.0993L40.6607 73.5485ZM51.2132 82.2529L62.729 70.9762L61.3297 69.5473L49.8139 80.824L51.2132 82.2529ZM62.7286 70.9766C64.5767 69.1688 66.6697 67.1911 68.9171 65.0696L67.5442 63.6152C65.2995 65.7342 63.1932 67.7244 61.3301 69.5469L62.7286 70.9766ZM68.9183 65.0685C72.7315 61.4576 76.9945 57.4359 80.9656 53.3798L79.5365 51.9806C75.5971 56.0043 71.3637 59.9984 67.5431 63.6163L68.9183 65.0685ZM80.9654 53.38C83.8171 50.4688 86.5336 47.5295 88.8469 44.6941L87.2972 43.4298C85.0366 46.2007 82.3656 49.0924 79.5367 51.9804L80.9654 53.38ZM88.8462 44.695C91.1125 41.9235 93.0026 39.2493 94.2295 36.8276L92.4454 35.9237C91.3123 38.1603 89.5238 40.7068 87.2979 43.4289L88.8462 44.695ZM94.2295 36.8276C96.2528 32.8339 96.9013 28.8139 96.463 25.0398L94.4763 25.2705C94.8682 28.6447 94.296 32.2709 92.4454 35.9237L94.2295 36.8276ZM96.4631 25.0405C96.0339 21.3224 94.5511 17.8644 92.347 14.9251L90.7469 16.1249C92.7588 18.8079 94.0915 21.9361 94.4763 25.2698L96.4631 25.0405ZM92.3467 14.9247C90.111 11.9463 87.1399 9.48441 83.7381 7.80164L82.8514 9.5943C85.9767 11.1403 88.7022 13.4011 90.7472 16.1253L92.3467 14.9247ZM83.7357 7.80045C79.8181 5.87557 75.3217 4.9584 70.7144 5.4795L70.9392 7.46682C75.1376 6.99196 79.2518 7.82572 82.8538 9.59549L83.7357 7.80045ZM70.7133 5.47962C62.7199 6.39279 58.4485 10.9008 53.5508 16.0226L54.9963 17.4048C59.9295 12.2459 63.7476 8.28839 70.9403 7.4667L70.7133 5.47962ZM51.1793 13.6139C56.7908 7.74669 61.2352 3.19035 70.3204 2.16586L70.0963 0.178455C60.2353 1.29043 55.3533 6.35619 49.7339 12.2315L51.1793 13.6139ZM70.3207 2.16582C75.5868 1.57031 80.7495 2.6059 85.2512 4.83897L86.14 3.04729C81.3153 0.654043 75.7678 -0.462895 70.0959 0.17849L70.3207 2.16582ZM85.2524 4.83953C89.1434 6.76349 92.5362 9.57081 95.0771 12.9531L96.6761 11.7518C93.9435 8.11428 90.3047 5.10656 86.1388 3.04672L85.2524 4.83953ZM95.0765 12.9522C97.6413 16.3737 99.3491 20.3775 99.8477 24.6681L101.834 24.4373C101.291 19.7644 99.4343 15.4313 96.6768 11.7526L95.0765 12.9522ZM99.8477 24.6683C100.354 29.0161 99.6256 33.6618 97.264 38.3078L99.0469 39.2141C101.584 34.2221 102.386 29.1813 101.834 24.4371L99.8477 24.6683ZM97.2639 38.308C95.9256 40.9418 93.9236 43.8029 91.4972 46.7702L93.0455 48.0362C95.5185 45.0118 97.6181 42.026 99.0469 39.214L97.2639 38.308ZM91.4968 46.7707C89.1217 49.6789 86.3446 52.6915 83.4191 55.6747L84.847 57.075C87.7974 54.0665 90.6193 51.007 93.0459 48.0358L91.4968 46.7707ZM83.418 55.6757C79.4055 59.7797 75.1389 63.8144 71.2793 67.4628L72.6532 68.9162C76.5085 65.2718 80.8036 61.2106 84.8481 57.0739L83.418 55.6757ZM71.2798 67.4624C69.0269 69.5894 66.9124 71.5877 65.1309 73.3298L66.5291 74.7597C68.2958 73.0322 70.3969 71.0465 72.6528 68.9167L71.2798 67.4624ZM65.1304 73.3302L49.8547 88.2854L51.2538 89.7146L66.5296 74.7593L65.1304 73.3302ZM51.2431 88.2751L38.2708 75.9463L36.893 77.3961L49.8653 89.7249L51.2431 88.2751ZM38.2696 75.9452C36.2323 74.0154 33.8785 71.8942 31.4476 69.7037L30.1087 71.1894C32.5445 73.3843 34.8785 75.4879 36.8942 77.3972L38.2696 75.9452ZM31.4473 69.7034C24.8387 63.7526 17.6264 57.2599 11.9781 50.0581C6.33251 42.8598 2.32634 35.047 2.01562 26.4763L0.0169332 26.5488C0.349145 35.7123 4.62779 43.927 10.4044 51.2923C16.1782 58.6541 23.5253 65.2613 30.109 71.1897L31.4473 69.7034ZM2.01557 26.4751C2.00013 26.0634 2 25.6328 2 25.1631H0C0 25.6252 -0.00012535 26.0942 0.01698 26.5501L2.01557 26.4751ZM1.99991 25.1768C2.09373 18.3399 4.85479 12.7202 9.17291 8.74274L7.81791 7.2717C3.10246 11.6152 0.101586 17.754 9.41568e-05 25.1494L1.99991 25.1768ZM9.17267 8.74296C13.4598 4.79656 19.3062 2.46891 25.6296 2.24381L25.5585 0.245077C18.7955 0.485821 12.4831 2.97725 7.81814 7.27148L9.17267 8.74296ZM25.6299 2.2438C26.0643 2.22821 26.5186 2.22056 26.994 2.22825L27.0264 0.228511C26.5089 0.220138 26.0191 0.228549 25.5582 0.245087L25.6299 2.2438ZM26.9968 2.22829C32.5505 2.30246 36.543 3.53486 39.9681 5.52193C43.4279 7.52917 46.3475 10.3247 49.7598 13.6399L51.1534 12.2055C47.7703 8.9185 44.6797 5.94322 40.9717 3.79199C37.2289 1.62059 32.8959 0.3069 27.0235 0.228469L26.9968 2.22829Z" fill="#7DF9FF" mask="url(#path-1-outside-1_401_18)"/>
</svg>
