<svg width="127" height="125" viewBox="0 0 127 125" fill="none" xmlns="http://www.w3.org/2000/svg">
<mask id="mask0_709_637" style="mask-type:alpha" maskUnits="userSpaceOnUse" x="0" y="0" width="127" height="125">
<ellipse cx="63.5001" cy="62.5" rx="62.6906" ry="62.5" fill="#D9D9D9"/>
</mask>
<g mask="url(#mask0_709_637)">
<path d="M72.8527 28.2396C73.689 29.8475 72.8527 32.5275 72.8527 32.5275C72.9115 33.8351 74.7609 36.3382 74.7609 36.3382C75.12 37.5869 73.5122 37.4692 73.5122 37.4692C72.8584 37.6458 73.2118 39.0182 73.2118 39.0182C73.2118 39.4954 72.8527 39.5543 72.8527 39.5543C73.0884 40.3258 72.3875 41.1916 72.3875 41.1916C72.258 42.1163 72.258 43.365 72.258 43.365C71.9577 44.4368 68.3293 44.1365 68.3293 44.1365C65.5316 44.4957 65.5904 46.2216 65.5904 46.2216C64.8778 48.4244 56.0605 43.9599 56.0605 43.9599L58.8583 37.534C59.5121 36.7508 57.9042 33.9531 57.9042 33.9531C54.8118 29.3709 58.7406 26.2725 58.7406 26.2725C62.1332 22.9387 66.6626 23.0568 66.6626 23.0568C70.5321 22.7033 72.853 28.2399 72.853 28.2399L72.8527 28.2396Z" fill="#FFAF9F"/>
<path d="M68.0288 34.4299C68.1465 35.3252 67.9699 33.7173 68.1465 35.5609C68.3231 37.4046 69.9901 39.0124 69.9901 39.0124L70.7617 39.4896L71.4743 38.8359C72.3695 37.764 73.1531 37.8523 73.1531 37.8523C73.9189 38.1764 73.5005 39.0716 73.5005 39.0716L73.2002 39.0127L71.4746 39.9668C71.8338 40.5618 73.1414 41.6336 73.1414 41.6336C73.6774 42.4051 72.6053 44.013 72.6053 44.013C71.5335 45.0259 67.487 43.6538 67.487 43.6538C64.5127 42.2225 64.5127 40.9149 64.5127 40.9149C64.5716 40.3789 64.9545 39.7371 65.3136 39.2305C66.0674 38.1821 66.462 36.9099 66.3915 35.6201C66.3737 35.3549 66.356 35.196 66.356 35.196L68.0288 34.4302V34.4299Z" fill="#280E37"/>
<path d="M73.9837 24.1992C74.5786 25.978 72.7056 27.9216 72.7056 27.9216C73.1236 29.0172 72.0163 30.0244 72.0163 30.0244C72.3755 31.6323 70.1081 32.5275 70.1081 32.5275C70.2847 33.4816 65.7025 35.5667 65.7025 35.5667C64.5715 36.2205 59.5241 36.4503 59.5241 36.4503C57.7865 36.8803 57.3447 38.4588 57.3447 38.4588C56.2963 38.4882 55.8191 37.6695 55.8191 37.6695C54.2113 37.5401 54.1524 35.8673 54.1524 35.8673C52.4856 35.8673 54.1524 32.7104 54.1524 32.7104C54.4527 32.1744 55.7603 30.9848 55.7603 30.9848C55.0476 24.7239 62.0744 21.985 62.0744 21.985C65.2902 20.9132 67.7287 21.2723 67.7287 21.2723C71.1803 18.0328 73.6185 21.2135 73.6185 21.2135C74.5198 22.4033 73.9837 24.1998 73.9837 24.1998V24.1992Z" fill="#4F008E"/>
<path d="M61.3615 36.2795C61.1257 37.5871 60.1128 38.6589 60.1128 38.6589C58.6226 39.5542 57.4328 38.6589 57.4328 38.6589C57.1147 38.0052 57.4328 37.6694 57.4328 37.6694C58.8346 36.0321 61.3615 36.2792 61.3615 36.2792V36.2795ZM73.9834 24.1994L74.1129 23.4807C74.1129 23.4807 72.7876 24.3642 71.6569 24.3642C71.6629 24.3702 72.617 24.906 73.9834 24.1994ZM72.7053 27.9218C72.0161 28.2987 70.5908 27.9218 70.5908 27.9218C71.3623 28.6581 72.7996 28.5401 72.7996 28.5401L72.7053 27.9218ZM72.0221 30.0246C71.1857 30.3838 69.0712 30.0246 69.0712 30.0246C69.8781 30.6784 72.0221 30.6961 72.0221 30.6961V30.0246ZM70.1139 32.5277C68.5648 32.6454 67.4339 32.5277 67.4339 32.5277C68.0876 33.1226 69.7544 33.1815 69.7544 33.1815L70.1136 32.5277H70.1139ZM68.0288 34.4302C64.4595 35.6201 58.9172 33.953 58.9172 33.953C55.2831 32.404 53.4986 34.4065 53.4986 34.4065C52.9626 35.3843 54.1524 35.8612 54.1524 35.8612C54.6885 38.1817 55.8192 37.6634 55.8192 37.6634C56.6321 38.3289 57.3448 38.4526 57.3448 38.4526C58.2046 36.3381 60.1071 36.4147 60.1071 36.4147C64.5776 36.397 68.0291 34.4299 68.0291 34.4299L68.0288 34.4302ZM66.038 24.1994C62.7928 26.9265 55.7777 29.135 55.7777 29.135C55.7189 30.266 56.0603 30.6958 56.0603 30.6958C61.42 29.3116 66.0377 24.1991 66.0377 24.1991L66.038 24.1994ZM56.6967 42.5054C59.3767 46.4104 65.5905 46.2218 65.5905 46.2218C65.944 48.2891 66.5269 48.6012 66.5269 48.6012C61.8033 51.3578 54.9534 45.556 54.9534 45.556L56.6967 42.5051V42.5054Z" fill="#280E37"/>
<path d="M80.0559 92.2602C80.8217 65.7528 66.5267 48.5952 66.5267 48.5952C60.4483 49.8968 54.9532 45.55 54.9532 45.55C48.115 49.2253 44.125 92.9019 44.125 92.9019L80.0559 92.2599V92.2602Z" fill="#4F008E"/>
<path d="M37.8508 41.6579C39.6112 48.5805 35.4521 54.9502 35.4521 54.9502C45.0754 64.9267 45.7133 59.7303 45.7133 59.7303C41.9588 53.275 48.79 47.1729 48.79 47.1729C56.2766 49.2869 54.9831 41.6576 54.9831 41.6576C56.9772 40.0167 56.4418 40.484 55.0687 39.8972C53.6957 39.3104 52.989 33.0888 52.989 33.0888C52.4989 28.975 48.1747 31.3908 48.1747 31.3908C42.6594 39.7777 37.4976 36.8433 37.4976 36.8433L37.8508 41.6576V41.6579Z" fill="#F89A58"/>
<path d="M57.9579 107.419C55.7586 100.833 59.9405 67.7586 44.8365 57.6284C44.8365 57.6284 37.9596 57.902 35.8571 53.042C35.8571 53.042 20.7398 64.8255 23.967 107.814L57.9579 107.419V107.419Z" fill="#280E37"/>
<path d="M36.3239 30.0351C33.2757 23.8192 27.1679 27.2319 27.1679 27.2319C18.2513 32.9695 19.5787 73.6727 19.5787 73.6727H28.2617C28.3812 61.2348 30.6888 35.0831 30.6888 35.0831C31.7486 29.5678 36.3236 30.0351 36.3236 30.0351H36.3239Z" fill="black"/>
<path d="M51.8722 30.9552C47.9411 38.1546 41.1384 38.6039 41.1384 38.6039C41.1384 42.8314 39.0245 45.7601 39.0245 45.7601C31.6289 44.2333 35.0363 31.5618 35.0363 31.5618C30.6946 32.6159 42.1126 73.5642 42.1126 73.5642L30.558 73.6723C26.0968 65.6899 28.3417 36.2566 28.3417 36.2566C29.2816 24.1723 36.4436 29.4539 36.4436 29.4539C41.9796 20.1543 49.8472 27.8196 51.7449 29.9029C52.0071 30.1909 52.0587 30.6134 51.8722 30.9552Z" fill="black"/>
<path d="M35.5889 30.6334C35.3837 24.3718 37.0532 27.4143 37.0532 27.4143C40.8306 26.2064 35.5889 30.6334 35.5889 30.6334ZM34.7399 33.8354C34.7399 33.8354 36.8195 36.5757 35.7027 30.4682C35.7027 30.4682 31.2073 35.5676 34.7399 33.8354ZM39.0587 30.2175C39.0587 30.2175 40.939 27.3401 35.566 30.4397C35.5603 30.4397 41.8733 32.9581 39.0587 30.2175ZM32.2785 31.2544C32.2785 31.2544 30.8256 34.405 35.7369 30.5196C35.7369 30.5196 29.0594 28.93 32.2785 31.2544ZM37.9932 32.9581C37.9932 32.9581 41.4174 32.6392 35.6459 30.3601C35.6402 30.3601 37.6001 36.8724 37.9932 32.9581ZM32.9908 28.309C32.9908 28.309 29.618 29.1351 35.7201 30.5538C35.7201 30.5538 32.8028 24.3436 32.9908 28.309Z" fill="#280E37"/>
<path d="M35.6462 29.3696L35.9678 30.0216L36.6871 30.1261L36.1666 30.6334L36.2895 31.3499L35.6462 31.0118L35.0026 31.3499L35.1254 30.6334L34.605 30.1261L35.3242 30.0216L35.6462 29.3696Z" fill="#F7A81B"/>
<path d="M85.8114 38.3854C83.1729 40.0464 85.0282 42.9853 85.0282 42.9853C84.5393 46.3131 83.3672 46.9963 83.3672 46.9963C83.7558 47.4852 85.0282 46.9963 85.0282 46.9963C84.8339 48.8576 85.4168 48.9516 85.4168 48.9516C84.8279 49.8292 85.8054 49.7349 85.8054 49.7349V52.5737C85.8054 53.5516 89.3275 53.257 89.3275 53.257C91.0886 53.6456 90.7 56.7791 90.7 56.7791C96.5723 57.7569 100.872 53.4513 100.872 53.4513C99.0106 51.1013 100.089 49.8289 100.089 49.8289C105.272 41.8068 101.261 38.3848 101.261 38.3848C96.7669 35.6459 85.8117 38.3848 85.8117 38.3848L85.8114 38.3854Z" fill="#FF9D5A"/>
<path d="M114.483 105.918C111.156 67.4825 100.872 53.4458 100.872 53.4458C95.6886 57.2625 90.6997 56.7736 90.6997 56.7736C89.6102 57.4334 79.01 89.8809 81.8263 105.959L114.483 105.918H114.483Z" fill="#5027B7"/>
<path d="M91.6774 45.2353C91.2888 44.4521 91.2888 41.8132 91.2888 41.8132C87.7667 40.0521 87.1777 38.88 87.1777 38.88L101.997 38.8389C105.46 43.0385 101.602 47.7738 101.602 47.7738L100.089 49.8352L97.2497 47.9739C99.9886 40.7351 94.4108 42.3961 94.4108 42.3961C93.1387 42.985 93.0504 45.5296 93.0504 45.5296L91.678 45.235L91.6774 45.2353Z" fill="#280E37"/>
<path d="M85.623 32.9784C84.8632 33.9739 84.7926 35.6701 84.8692 36.8834C84.9224 37.7552 85.4347 38.5324 86.2179 38.9213H102.291C104.93 35.4581 100.571 32.1892 100.571 32.1892C97.4026 31.3999 93.5507 32.1892 93.5507 32.1892C88.397 30.2044 85.623 32.9784 85.623 32.9784Z" fill="#F9BF10"/>
<path d="M86.8242 34.9808H86.5827V32.3068H86.8242V34.9808ZM87.0893 33.1786H86.9656V35.8526H87.0893V33.1786ZM87.3545 31.9711H87.2308V34.6451H87.3545V31.9711ZM85.4109 34.6039H85.1694V37.2779H85.4109V34.6039ZM85.6761 35.4758H85.5523V38.1498H85.6761V35.4758ZM85.9352 34.2682H85.8115V36.9422H85.9352V34.2682ZM88.4504 34.6334H88.2089V37.3074H88.4504V34.6334ZM88.7095 35.5052H88.5918V38.1792H88.7156V35.5052H88.7095ZM88.9747 34.2976H88.851V36.9716H88.9747V34.2976ZM90.0997 32.0242H89.8583V34.6982H90.0997V32.0242ZM90.3589 32.896H90.2351V35.57H90.3589V32.896ZM90.6241 31.6885H90.5003V34.3625H90.6241V31.6885ZM91.537 34.6039H91.2956V37.2779H91.537V34.6039ZM91.8022 35.4758H91.6785V38.1498H91.8022V35.4758ZM92.0614 34.2682H91.9376V36.9422H92.0614V34.2682ZM93.2984 32.6309H93.0569V35.3049H93.2984V32.6309ZM93.5635 33.5027H93.4398V36.1767H93.5635V33.5027ZM93.8287 32.2894H93.705V34.9634H93.8287V32.2894ZM95.1717 34.6982H94.9303V37.3722H95.1717V34.6982ZM95.4309 35.57H95.3072V38.2441H95.4309V35.57ZM95.6961 34.3625H95.5723V37.0365H95.6961V34.3625ZM98.6115 34.8691H98.3701V37.5431H98.6115V34.8691ZM98.8767 35.7349H98.753V38.4089H98.8767V35.7349ZM99.1419 34.5274H99.0182V37.2014H99.1419V34.5274ZM97.1628 31.9476H96.9214V34.6217H97.1628V31.9476ZM97.428 32.8135H97.3043V35.4875H97.428V32.8135ZM97.6932 31.8771H97.5694V34.2802H97.6932V31.8771ZM100.202 32.1362H99.9609V34.6454H100.202V32.1362ZM100.467 32.8489H100.344V35.5229H100.467V32.8489ZM100.727 32.3128H100.603V34.3096H100.727V32.3128ZM101.887 34.5862H101.646V37.2602H101.887V34.5862ZM102.146 35.458H102.023V38.132H102.146V35.458ZM102.411 34.2448H102.288V36.9188H102.411V34.2448Z" fill="white"/>
<path d="M83.523 70.3654C83.1575 74.1416 85.3501 77.4303 85.3501 77.4303C83.2794 78.0394 80.8433 76.3396 80.8433 76.3396V73.9638L79.8688 75.7251C77.5545 75.4816 75.2295 72.558 75.2295 72.558V67.0767L83.5233 70.3654H83.523Z" fill="white"/>
<path d="M84.9846 57.5503C84.7335 61.0048 86.4462 65.5966 86.4462 65.5966H85.35C83.7665 65.6149 84.9596 67.0769 84.9596 67.0769C85.2284 68.0514 84.5287 68.4169 84.5287 68.4169V69.186C84.1323 71.0966 82.5487 72.3198 82.5487 72.3198C80.8435 73.9643 79.3816 72.3198 79.3816 72.3198C76.4583 72.4366 77.6764 76.3401 77.6764 76.3401C74.1441 80.3544 68.3618 76.3629 68.3618 76.3629C70.355 70.9801 69.6373 64.7629 69.6373 64.7629C65.8611 51.8512 80.29 54.7748 80.29 54.7748C84.0106 54.8967 84.9849 57.5509 84.9849 57.5509L84.9846 57.5503Z" fill="#D65050"/>
<path d="M80.356 55.6266C80.7214 61.5951 76.9453 64.5187 76.9453 64.5187C75.7272 58.3063 71.5858 60.0728 71.5858 60.0728C70.0023 63.4225 75.9834 75.7252 75.9834 75.7252L73.5349 74.5071L71.3192 70.1219L71.9513 73.6542L68.9061 72.8016L68.419 70.2436L67.81 72.0707C61.8496 66.6605 63.0683 59.525 64.035 56.3276C64.3621 55.2458 64.957 54.2626 65.7684 53.4764C73.3364 46.1427 80.965 49.9017 80.965 49.9017C91.3187 55.0176 85.7154 63.4225 85.7154 63.4225C84.0102 62.2044 84.9844 57.5504 84.9844 57.5504C82.6702 57.9412 80.3556 55.6269 80.3556 55.6269L80.356 55.6266Z" fill="white"/>
<path d="M82.8942 84.647C81.5467 83.0359 77.2498 79.9883 77.2498 79.9883C76.9453 78.8921 77.6763 76.3394 77.6763 76.3394C72.073 80.2318 68.9761 74.367 68.9761 74.367L67.4445 76.9431C64.5825 79.033 62.0085 81.4202 59.9057 83.5923C56.2199 87.4 54.215 92.5249 54.3262 97.8234L54.5529 118.392L89.2042 118.639C89.2042 118.639 91.5514 94.9992 82.8942 84.6473V84.647ZM67.2872 58.5127C67.0736 62.9156 68.4187 70.2436 68.4187 70.2436L68.9059 72.8017L71.951 73.6543L71.3189 70.122L70.2579 60.9804C70.026 58.9836 70.2381 56.9553 70.9162 55.063C71.9811 52.0911 73.4878 49.2 73.4878 49.2L71.4153 49.7949C67.9887 52.5139 67.2872 58.5133 67.2872 58.5133V58.5127Z" fill="#F7A81B"/>
<path d="M71.2641 50.2412L71.3887 50.4938L71.6674 50.5343L71.4656 50.731L71.5134 51.0085L71.2641 50.8776L71.0148 51.0085L71.0626 50.731L70.8608 50.5343L71.1395 50.4938L71.2641 50.2412ZM70.0923 51.4404L69.8136 51.4809L70.0154 51.6776L69.9676 51.9551L70.2169 51.8242L70.4662 51.9551L70.4184 51.6776L70.6202 51.4809L70.3415 51.4404L70.2169 51.1878L70.0923 51.4404ZM71.5981 51.5593L71.3194 51.5999L71.5212 51.7966L71.4734 52.074L71.7227 51.9431L71.9719 52.074L71.9242 51.7966L72.126 51.5999L71.8473 51.5593L71.7227 51.3067L71.5981 51.5593ZM70.6551 52.5353L70.3764 52.5759L70.5782 52.7726L70.5304 53.0501L70.7797 52.9191L71.029 53.0501L70.9812 52.7726L71.183 52.5759L70.9043 52.5353L70.7797 52.2828L70.6551 52.5353ZM69.4973 53.0381L69.2187 53.0786L69.4205 53.2753L69.3727 53.5528L69.622 53.4219L69.8712 53.5528L69.8235 53.2753L70.0253 53.0786L69.7466 53.0381L69.622 52.7855L69.4973 53.0381ZM68.306 54.4901L68.5751 54.3682L68.8243 54.4991L68.7766 54.2216L68.9784 54.0249L68.6997 53.9844L68.6105 53.7318L68.306 54.4898V54.4901ZM70.1469 54.1618L69.8682 54.2024L70.07 54.3991L70.0223 54.6766L70.2716 54.5456L70.5208 54.6766L70.4731 54.3991L70.6749 54.2024L70.3962 54.1618L70.2716 53.9093L70.1469 54.1618ZM68.9207 55.0895L68.642 55.1301L68.8439 55.3268L68.7961 55.6043L69.0454 55.4733L69.2946 55.6043L69.2469 55.3268L69.4487 55.1301L69.17 55.0895L69.0454 54.8369L68.9207 55.0895ZM69.9601 55.9178L69.6814 55.9583L69.8833 56.155L69.8355 56.4325L70.0848 56.3016L70.334 56.4325L70.2863 56.155L70.4881 55.9583L70.2094 55.9178L70.0848 55.6652L69.9601 55.9178ZM72.3182 49.8385L72.0395 49.879L72.2413 50.0758L72.1936 50.3532L72.4428 50.2223L72.6921 50.3532L72.6443 50.0758L72.8462 49.879L72.5675 49.8385L72.4428 49.5859L72.3182 49.8385ZM68.0769 56.234L67.7982 56.2746L68 56.4713L67.9522 56.7488L68.2015 56.6178L68.4508 56.7488L68.403 56.4713L68.6048 56.2746L68.3261 56.234L68.2015 55.9814L68.0769 56.234ZM69.1162 57.0623L68.8376 57.1028L69.0394 57.2995L68.9916 57.577L69.2409 57.4461L69.4901 57.577L69.4424 57.2995L69.6442 57.1028L69.3655 57.0623L69.2409 56.8097L69.1162 57.0623ZM68.1931 57.9677L67.9144 58.0083L68.1162 58.205L68.0685 58.4825L68.3177 58.3515L68.567 58.4825L68.5192 58.205L68.721 58.0083L68.4423 57.9677L68.3177 57.7152L68.1931 57.9677ZM69.2325 58.796L68.9538 58.8365L69.1556 59.0332L69.1078 59.3107L69.3571 59.1798L69.6064 59.3107L69.5586 59.0332L69.7604 58.8365L69.4817 58.796L69.3571 58.5434L69.2325 58.796ZM67.557 59.4168L67.2783 59.4573L67.4801 59.654L67.4324 59.9315L67.6816 59.8006L67.9309 59.9315L67.8832 59.654L68.085 59.4573L67.8063 59.4168L67.6816 59.1642L67.557 59.4168ZM68.5964 60.245L68.3177 60.2856L68.5195 60.4823L68.4718 60.7598L68.721 60.6288L68.9703 60.7598L68.9225 60.4823L69.1244 60.2856L68.8457 60.245L68.721 59.9925L68.5964 60.245ZM69.6832 61.064L69.4046 61.1045L69.6064 61.3012L69.5586 61.5787L69.8079 61.4478L70.0571 61.5787L70.0094 61.3012L70.2112 61.1045L69.9325 61.064L69.8079 60.8114L69.6832 61.064ZM67.7898 61.3532L67.5111 61.3937L67.7129 61.5904L67.6651 61.8679L67.9144 61.737L68.1636 61.8679L68.1159 61.5904L68.3177 61.3937L68.039 61.3532L67.9144 61.1006L67.7898 61.3532ZM68.7604 62.2379L68.4817 62.2785L68.6835 62.4752L68.6357 62.7527L68.885 62.6217L69.1343 62.7527L69.0865 62.4752L69.2883 62.2785L69.0096 62.2379L68.885 61.9853L68.7604 62.2379ZM69.7998 63.0662L69.5211 63.1067L69.7229 63.3034L69.6751 63.5809L69.9244 63.45L70.1737 63.5809L70.1259 63.3034L70.3277 63.1067L70.049 63.0662L69.9244 62.8136L69.7998 63.0662ZM67.7174 63.3214L67.4387 63.362L67.6405 63.5587L67.5927 63.8362L67.842 63.7053L68.0913 63.8362L68.0435 63.5587L68.2453 63.362L67.9666 63.3214L67.842 63.0689L67.7174 63.3214ZM68.7568 64.1497L68.4781 64.1903L68.6799 64.387L68.6321 64.6645L68.8814 64.5335L69.1307 64.6645L69.0829 64.387L69.2847 64.1903L69.006 64.1497L68.8814 63.8972L68.7568 64.1497ZM69.9229 64.9672L69.6442 65.0077L69.846 65.2044L69.7983 65.4819L70.0475 65.351L70.2968 65.4819L70.249 65.2044L70.4508 65.0077L70.1722 64.9672L70.0475 64.7146L69.9229 64.9672ZM68.1931 65.6531L67.9144 65.6936L68.1162 65.8903L68.0685 66.1678L68.3177 66.0369L68.567 66.1678L68.5192 65.8903L68.721 65.6936L68.4423 65.6531L68.3177 65.4005L68.1931 65.6531ZM69.2799 66.5628L69.0012 66.6033L69.203 66.8L69.1553 67.0775L69.4046 66.9466L69.6538 67.0775L69.6061 66.8L69.8079 66.6033L69.5292 66.5628L69.4046 66.3102L69.2799 66.5628ZM70.3193 67.391L70.0406 67.4316L70.2424 67.6283L70.1947 67.9058L70.4439 67.7748L70.6932 67.9058L70.6454 67.6283L70.8473 67.4316L70.5686 67.391L70.4439 67.1385L70.3193 67.391ZM68.4562 67.7163L68.1775 67.7568L68.3793 67.9535L68.3315 68.231L68.5808 68.1001L68.83 68.231L68.7823 67.9535L68.9841 67.7568L68.7054 67.7163L68.5808 67.4637L68.4562 67.7163ZM69.543 68.6259L69.2643 68.6665L69.4661 68.8632L69.4184 69.1407L69.6676 69.0097L69.9169 69.1407L69.8691 68.8632L70.071 68.6665L69.7923 68.6259L69.6676 68.3733L69.543 68.6259ZM70.5824 69.4542L70.3037 69.4947L70.5055 69.6914L70.4578 69.9689L70.707 69.838L70.9563 69.9689L70.9085 69.6914L71.1103 69.4947L70.8317 69.4542L70.707 69.2016L70.5824 69.4542ZM68.7835 69.8377L68.5048 69.8782L68.7066 70.0749L68.6589 70.3524L68.9081 70.2215L69.1574 70.3524L69.1096 70.0749L69.3115 69.8782L69.0328 69.8377L68.9081 69.5851L68.7835 69.8377ZM69.8703 70.7473L69.5916 70.7879L69.7935 70.9846L69.7457 71.2621L69.995 71.1311L70.2442 71.2621L70.1965 70.9846L70.3983 70.7879L70.1196 70.7473L69.995 70.4948L69.8703 70.7473ZM70.9097 71.5756L70.631 71.6162L70.8328 71.8129L70.7851 72.0903L71.0344 71.9594L71.2836 72.0903L71.2359 71.8129L71.4377 71.6162L71.159 71.5756L71.0344 71.323L70.9097 71.5756ZM69.188 71.7432L68.9093 71.7837L69.1111 71.9804L69.0634 72.2579L69.3127 72.127L69.5619 72.2579L69.5142 71.9804L69.716 71.7837L69.4373 71.7432L69.3127 71.4906L69.188 71.7432ZM70.2749 72.6528L69.9962 72.6934L70.198 72.8901L70.1502 73.1676L70.3995 73.0366L70.6488 73.1676L70.601 72.8901L70.8028 72.6934L70.5241 72.6528L70.3995 72.4003L70.2749 72.6528Z" fill="white"/>
<path d="M74.6544 65.0552L75.0623 65.881L75.9734 66.0135L75.3139 66.6562L75.4698 67.564L74.6544 67.1355L73.8394 67.564L73.9949 66.6562L73.3354 66.0135L74.2469 65.881L74.6544 65.0552Z" fill="#F7A81B"/>
<path d="M62.5008 88.2664H61.3548V87.1204H62.5008V88.2664ZM59.3589 94.5391H58.1225V93.3027H59.3589V94.5391ZM86.9131 98.694H85.7671V97.548H86.9131V98.694ZM83.8874 95.7632H82.7414V94.6172H83.8874V95.7632ZM86.5698 92.2093H85.4238V91.0633H86.5698V92.2093ZM83.5442 89.2839H82.3982V88.1379H83.5442V89.2839ZM82.7459 100.645H81.5999V99.4988H82.7459V100.645ZM82.7913 104.748H81.5549V103.512H82.7913V104.748ZM86.056 108.355H84.8196V107.118H86.056V108.355ZM82.4696 116.239H81.3236V115.093H82.4696V116.239ZM75.6579 118.008H74.5119V116.862H75.6579V118.008ZM78.3352 114.454H77.1892V113.308H78.3352V114.454ZM75.3095 111.523H74.1635V110.377H75.3095V111.523ZM78.1082 107.056H76.9622V105.91H78.1082V107.056ZM67.3833 117.02H66.2373V115.874H67.3833V117.02ZM70.0657 113.466H68.9197V112.32H70.0657V113.466ZM67.04 110.541H65.894V109.395H67.04V110.541ZM73.177 106.474H72.031V105.328H73.177V106.474ZM69.839 106.068H68.693V105.075H69.839V106.068ZM60.5121 115.54H59.3661V114.394H60.5121V115.54ZM60.1637 109.061H59.0177V107.915H60.1637V109.061ZM56.3777 113.755H55.2317V112.609H56.3777V113.755ZM56.0293 107.275H54.8833V106.129H56.0293V107.275ZM55.8022 99.8775H54.6562V98.7315H55.8022V99.8775ZM81.1137 97.0098H79.9677V95.8638H81.1137V97.0098ZM80.7653 90.5305H79.6193V89.3845H80.7653V90.5305ZM71.155 96.7668H70.009V95.6208H71.155V96.7668ZM76.9793 95.225H75.8333V94.079H76.9793V95.225ZM73.9536 92.2997H72.8076V91.1537H73.9536V92.2997ZM76.6309 88.7457H75.4849V87.5997H76.6309V88.7457ZM73.6052 85.815H72.4592V84.669H73.6052V85.815ZM76.4039 81.3478H75.2579V80.2018H76.4039V81.3478ZM68.705 94.2427H67.559V93.0967H68.705V94.2427ZM65.6793 91.3119H64.5333V90.1659H65.6793V91.3119ZM68.3617 87.758H67.2157V86.612H68.3617V87.758ZM65.3361 84.8326H64.1901V83.6866H65.3361V84.8326ZM71.473 80.7655H70.327V79.6194H71.473V80.7655ZM68.135 80.36H66.989V79.3672H68.135V80.36ZM64.5381 96.1935H63.3921V95.0475H64.5381V96.1935ZM73.5115 101.356H72.2751V100.12H73.5115V101.356ZM64.5835 100.296H63.3471V99.06H64.5835V100.296ZM77.9727 103.282H76.7363V102.045H77.9727V103.282ZM67.8482 103.903H66.6118V102.667H67.8482V103.903ZM88.6015 117.35H87.4555V116.204H88.6015V117.35ZM85.5758 114.425H84.4298V113.279H85.5758V114.425ZM88.3744 109.952H87.2284V108.959H88.3744V109.952ZM63.0759 104.476H61.9299V103.33H63.0759V104.476ZM61.9299 84.2593H60.7839V83.1133H61.9299V84.2593ZM63.6486 116.319H62.5026V115.173H63.6486V116.319ZM58.6973 89.9572H57.5513V88.8112H58.6973V89.9572ZM70.5714 89.9572H69.4254V88.8112H70.5714V89.9572ZM78.6824 83.6866H77.5364V82.5406H78.6824V83.6866ZM70.291 84.0188H69.145V82.8728H70.291V84.0188ZM63.9648 110.34H62.8188V109.194H63.9648V110.34ZM86.3479 103.282H85.2019V102.136H86.3479V103.282ZM69.2672 98.7693H68.1212V97.6233H69.2672V98.7693ZM78.9094 87.185H77.7634V86.039H78.9094V87.185ZM57.2999 103.855H56.1539V102.709H57.2999V103.855ZM76.4492 99.3108H75.2128V98.0744H76.4492V99.3108ZM56.3966 117.677H55.1602V116.44H56.3966V117.677ZM60.21 100.843H58.9736V99.6069H60.21V100.843ZM81.241 109.578H80.0047V108.341H81.241V109.578Z" fill="white"/>
<path d="M56.5609 77.3283C51.6751 86.28 55.0314 90.8623 55.0314 90.8623C49.9197 96.3739 46.0475 91.2818 46.0475 91.2818C46.4541 90.2814 45.1504 87.6999 45.1504 87.6999C36.4891 91.1142 38.606 82.3174 38.606 82.3174C38.5027 81.4396 37.5281 81.0329 36.8957 80.8588C36.6311 80.7879 36.502 80.4909 36.6311 80.2455C38.3093 77.1282 39.3742 72.9911 39.3742 72.9911C43.311 63.936 49.0876 68.2669 49.0876 68.2669C56.3096 71.552 56.5612 77.3283 56.5612 77.3283H56.5609Z" fill="#FF9671"/>
<path d="M71.371 141.308L66.1134 104.958C66.1134 104.958 65.2293 98.1035 59.6014 93.7276C58.8914 93.179 58.0782 92.7852 57.2391 92.469C56.355 92.1333 54.0443 91.0557 54.238 87.564C54.238 87.564 49.5267 90.9716 45.1508 87.6994C45.1508 87.6994 47.9969 94.3277 43.7955 96.2638C43.7955 96.2638 35.8248 99.936 35.9798 106.106L34.8662 143.892L71.3713 141.308H71.371Z" fill="#F9BF10"/>
<path d="M49.6098 78.3804C43.9627 79.8261 43.3107 69.8482 43.3107 69.8482C42.3941 67.4859 38.6057 68.667 38.6057 68.667C31.7579 69.5836 33.0681 60.2639 33.0681 60.2639C38.057 66.563 41.2905 63.6782 41.2905 63.6782C47.3767 59.8702 51.7138 63.8073 51.7138 63.8073C54.1407 67.1892 55.9993 66.6729 56.9804 65.9372C57.7549 65.3564 58.7487 65.1434 59.6848 65.3951C66.1001 67.1183 61.4338 76.0118 61.4338 76.0118C61.5629 86.6481 53.4502 85.4799 53.4502 85.4799C54.3602 78.1546 49.6101 78.3804 49.6101 78.3804H49.6098Z" fill="#5027B7"/>
<path d="M16.7904 70.9944C14.2993 73.2209 13.3761 77.5518 13.3761 77.5518C13.247 80.7015 9.57471 82.1406 9.57471 82.1406C10.233 83.0571 11.0204 83.0571 11.0204 83.0571C10.1039 84.3674 11.0204 85.0257 11.0204 85.0257C12.2016 85.4194 11.0204 86.2068 11.0204 86.2068C10.3621 86.8651 11.4141 87.6589 11.4141 87.6589C10.6267 90.1371 13.1824 90.4019 13.1824 90.4019C16.7901 89.7437 16.7901 90.4019 16.7901 90.4019C17.4361 91.0056 17.8415 92.1732 18.0946 93.47C18.6499 96.3127 18.3863 99.2561 17.3724 101.969C16.1961 105.118 14.9506 109.286 14.9506 109.286C18.4938 111.255 24.5283 109.286 24.5283 109.286C32.6602 100.632 31.0857 96.1719 31.0857 96.1719C25.9677 93.1579 25.8386 88.4337 25.8386 88.4337C29.5108 75.8484 16.7901 70.995 16.7901 70.995L16.7904 70.9944Z" fill="#D1503B"/>
<path d="M38.5135 127.113C36.7257 94.6429 30.3245 95.6877 30.3245 95.6877C25.8065 102.91 17.1776 102.503 17.1776 102.503C13.9765 105.794 12.0014 119.465 10.7881 128.507L38.5135 127.113Z" fill="#4F008E"/>
<path d="M25.839 88.4393C35.2875 92.0371 29.696 77.3322 29.696 77.3322C37.4369 80.7726 34.3187 75.6318 32.3483 72.9326C31.6762 72.0118 31.4282 70.8532 31.6423 69.7333C33.4814 60.1067 20.7406 64.7403 20.7406 64.7403C14.8868 59.4094 13.5507 69.4129 14.3252 73.0272C14.4994 73.8338 15.9259 74.8858 17.5716 75.8603C21.1859 77.9965 23.8257 81.4561 24.9873 85.4896L25.8393 88.439L25.839 88.4393Z" fill="white"/>
<path d="M25.8391 88.4394C34.3002 92.7054 31.9703 83.941 31.9703 83.941L30.2342 78.5972L28.9435 75.5637C27.659 72.5498 25.8067 69.8067 23.4897 67.4832L20.7467 64.7338C18.6685 62.5265 15.8221 62.4685 14.6217 64.3337C13.4664 66.1344 13.1502 68.3547 13.6085 70.4458L14.4734 74.3568C24.1931 80.2688 25.8388 88.4394 25.8388 88.4394H25.8391Z" fill="#F7A81B"/>
<path d="M18.4426 64.1208C18.7526 64.1208 18.9976 64.3725 18.9976 64.6758C18.9976 64.9791 18.746 65.2308 18.4426 65.2308C18.1393 65.2308 17.8877 64.9791 17.8877 64.6758C17.8877 64.3725 18.133 64.1208 18.4426 64.1208ZM16.1062 67.8385C16.1062 68.1484 16.3578 68.3934 16.6612 68.3934C16.9645 68.3934 17.2161 68.1418 17.2161 67.8385C17.2161 67.5351 16.9645 67.2835 16.6612 67.2835C16.3578 67.2835 16.1062 67.5351 16.1062 67.8385ZM19.3331 68.4775C19.3331 68.7874 19.5847 69.0325 19.8881 69.0325C20.1914 69.0325 20.443 68.7808 20.443 68.4775C20.443 68.1742 20.1914 67.9225 19.8881 67.9225C19.5847 67.9225 19.3331 68.1742 19.3331 68.4775ZM17.5519 71.6401C17.5519 71.9501 17.8036 72.1951 18.1069 72.1951C18.4102 72.1951 18.6619 71.9435 18.6619 71.6401C18.6619 71.3368 18.4102 71.0852 18.1069 71.0852C17.8036 71.0852 17.5519 71.3305 17.5519 71.6401ZM22.8056 68.7166C22.8056 69.0265 23.0573 69.2716 23.3606 69.2716C23.6639 69.2716 23.9156 69.0199 23.9156 68.7166C23.9156 68.4133 23.6639 68.1616 23.3606 68.1616C23.0573 68.1616 22.8056 68.4133 22.8056 68.7166ZM21.0244 71.8792C21.0244 72.1891 21.2761 72.4342 21.5794 72.4342C21.8827 72.4342 22.1344 72.1825 22.1344 71.8792C22.1344 71.5759 21.8827 71.3242 21.5794 71.3242C21.2761 71.3179 21.0244 71.5696 21.0244 71.8792ZM24.2513 72.5183C24.2513 72.8282 24.503 73.0732 24.8063 73.0732C25.1096 73.0732 25.3613 72.8216 25.3613 72.5183C25.3613 72.2149 25.1096 71.9633 24.8063 71.9633C24.503 71.957 24.2513 72.2086 24.2513 72.5183ZM22.4765 75.6743C22.4765 75.9842 22.7281 76.2293 23.0315 76.2293C23.3348 76.2293 23.5864 75.9776 23.5864 75.6743C23.5864 75.371 23.3348 75.1193 23.0315 75.1193C22.7281 75.1193 22.4765 75.371 22.4765 75.6743ZM19.2171 74.816C19.2171 75.1259 19.4688 75.371 19.7721 75.371C20.0754 75.371 20.3271 75.1193 20.3271 74.816C20.3271 74.5127 20.0754 74.261 19.7721 74.261C19.4688 74.2547 19.2171 74.5063 19.2171 74.816ZM26.6974 75.1259C26.6974 75.4358 26.9491 75.6809 27.2524 75.6809C27.5557 75.6809 27.8074 75.4292 27.8074 75.1259C27.8074 74.8226 27.5557 74.5709 27.2524 74.5709C26.9491 74.5646 26.6974 74.8163 26.6974 75.1259ZM20.6629 78.6111C20.6629 78.921 20.9145 79.166 21.2178 79.166C21.5212 79.166 21.7728 78.9144 21.7728 78.6111C21.7728 78.3077 21.5212 78.0561 21.2178 78.0561C20.9145 78.0561 20.6629 78.3014 20.6629 78.6111ZM28.0915 79.4048C28.0915 79.7147 28.3431 79.9598 28.6464 79.9598C28.9498 79.9598 29.2014 79.7081 29.2014 79.4048C29.2014 79.1015 28.9498 78.8498 28.6464 78.8498C28.3431 78.8498 28.0915 79.1015 28.0915 79.4048ZM24.1351 78.8498C24.1351 79.1597 24.3868 79.4048 24.6901 79.4048C24.9934 79.4048 25.2451 79.1531 25.2451 78.8498C25.2451 78.5465 24.9934 78.2948 24.6901 78.2948C24.3868 78.2948 24.1351 78.5402 24.1351 78.8498ZM25.5808 86.0072C25.5808 86.3171 25.8325 86.5622 26.1358 86.5622C26.4391 86.5622 26.6908 86.3105 26.6908 86.0072C26.6908 85.7039 26.4391 85.4522 26.1358 85.4522C25.8325 85.4459 25.5808 85.6976 25.5808 86.0072ZM25.5808 82.6512C25.5808 82.9611 25.8325 83.2062 26.1358 83.2062C26.4391 83.2062 26.6908 82.9545 26.6908 82.6512C26.6908 82.3479 26.4391 82.0962 26.1358 82.0962C25.8325 82.0899 25.5808 82.3416 25.5808 82.6512ZM28.6464 83.7612C28.6464 84.0711 28.8981 84.3161 29.2014 84.3161C29.5047 84.3161 29.7564 84.0645 29.7564 83.7612C29.7564 83.4578 29.5047 83.2062 29.2014 83.2062C28.8981 83.2062 28.6464 83.4578 28.6464 83.7612ZM28.0915 88.2983C28.0915 88.6082 28.3431 88.8533 28.6464 88.8533C28.9498 88.8533 29.2014 88.6016 29.2014 88.2983C29.2014 87.995 28.9498 87.7433 28.6464 87.7433C28.3431 87.737 28.0915 87.9887 28.0915 88.2983ZM14.8154 70.9758C14.8154 71.2858 15.0671 71.5308 15.3704 71.5308C15.6737 71.5308 15.9254 71.2792 15.9254 70.9758C15.9254 70.6725 15.6737 70.4209 15.3704 70.4209C15.0671 70.4209 14.8154 70.6662 14.8154 70.9758ZM30.6471 86.7883C30.6471 87.0983 30.8988 87.3433 31.2021 87.3433C31.5054 87.3433 31.7571 87.0917 31.7571 86.7883C31.7571 86.485 31.5054 86.2334 31.2021 86.2334C30.8988 86.2334 30.6471 86.485 30.6471 86.7883ZM16.2611 74.7709C16.2611 75.0809 16.5128 75.3259 16.8161 75.3259C17.1194 75.3259 17.3711 75.0742 17.3711 74.7709C17.3711 74.4676 17.1194 74.2159 16.8161 74.2159C16.5128 74.2159 16.2611 74.4676 16.2611 74.7709ZM20.4692 66.3807C20.4692 66.6906 20.7208 66.9357 21.0241 66.9357C21.3275 66.9357 21.5791 66.684 21.5791 66.3807C21.5791 66.0774 21.3275 65.8257 21.0241 65.8257C20.7208 65.8257 20.4692 66.0711 20.4692 66.3807Z" fill="#4F008E"/>
<path d="M16.0343 104.018C15.7291 106.911 18.9975 104.636 18.9975 104.636C21.1489 108.045 23.0313 103.576 23.0313 103.576C25.3086 106.154 27.2522 102.34 27.2522 102.34C30.8545 104.264 30.7641 99.7934 30.7641 99.7934C33.2453 101.789 32.4606 97.7506 32.2921 96.9779C32.2745 96.8969 32.2386 96.821 32.1873 96.756C31.7276 96.1727 31.06 95.79 30.3245 95.6877C23.4178 102.499 17.3728 101.969 17.3728 101.969L16.0343 104.018Z" fill="#F7A81B"/>
<path d="M113.562 74.0997C112.135 77.6707 113.223 81.2748 113.842 82.8274C114.049 83.3473 113.687 83.9197 113.129 83.9518C112.425 83.9924 112.052 83.6194 112.052 83.6194C110.916 84.878 113.123 85.8912 113.123 85.8912C113.31 86.8982 111.729 86.3946 111.729 86.3946C112.555 88.034 110.916 87.4015 110.916 87.4015C110.664 90.6801 107.889 89.4151 107.889 89.4151C105.875 89.1635 106.127 94.9593 106.127 94.9593C112.822 106.519 94.7808 93.8235 94.7808 93.8235C99.6987 88.5313 97.556 83.2326 97.556 83.2326C96.9235 68.2399 113.562 74.1 113.562 74.1L113.562 74.0997Z" fill="#FFABA9"/>
<path d="M106.134 93.5003C120.191 106.563 118.715 130.954 118.715 130.954L84.3464 134.364C84.6626 132.879 83.5965 115.547 85.4554 109.661C88.024 101.535 94.7751 93.8292 94.7751 93.8292C107.949 101.452 106.134 93.5 106.134 93.5L106.134 93.5003Z" fill="#F5876D"/>
<path d="M113.933 75.8416C115.552 75.8704 115.884 74.7854 115.88 73.8736C115.876 73.0943 116.148 72.3438 116.649 71.7474C117.98 70.1656 117.216 68.9812 116.223 68.2232C115.386 67.5844 114.926 66.5601 114.992 65.509C115.088 63.9719 113.443 63.4034 112.212 63.1929C111.412 63.056 110.689 62.6277 110.194 61.9836C108.495 59.7729 106.742 59.9153 105.554 60.4393C104.616 60.8535 103.537 60.7877 102.647 60.2754C100.662 59.1312 98.9743 59.8714 98.0163 60.5529C97.3874 61.0003 96.6126 61.1973 95.8453 61.115C92.6415 60.7709 91.5388 61.5145 91.1673 62.1535C90.8529 62.6941 90.3976 63.1419 89.8468 63.438C88.2011 64.3221 87.8221 65.4465 87.8395 66.3261C87.8575 67.2232 87.4827 68.0824 86.8452 68.7139C85.5571 69.9903 85.7697 71.4924 86.1935 72.5519C86.5451 73.431 86.5073 74.4199 86.0577 75.253C84.94 77.324 85.5733 78.6237 86.3586 79.37C87.0524 80.0298 87.4248 80.9611 87.3593 81.9161C87.2196 83.9534 88.3993 84.7961 89.4729 85.143C90.3988 85.4421 91.1352 86.1496 91.5072 87.0488C92.3457 89.0759 94.1392 88.5828 95.3083 87.9758C95.9159 87.6605 96.6048 87.5359 97.2817 87.6371C98.358 87.798 99.0512 86.7349 99.4587 85.737C99.7497 85.024 100.319 84.476 101.01 84.1369C101.998 83.6528 101.404 81.4761 101.404 81.4761C98.5644 78.3336 101.069 78.7069 102.748 79.1829C103.3 79.3394 103.765 79.6877 104.136 80.125C104.408 80.4436 104.934 79.7862 105.433 78.9637C106.1 77.8627 107.36 77.2747 108.635 77.448C110.06 77.6417 111.196 77.063 111.92 76.5167C112.501 76.0786 113.206 75.8284 113.933 75.8413L113.933 75.8416Z" fill="#280E37"/>
<path d="M102.223 82.4119C103.399 84.1243 101.445 86.1409 101.445 86.1409C99.3661 87.4014 101.445 90.3772 101.445 90.3772L103.147 89.9222C101.85 87.9119 102.555 86.6022 102.945 86.1091C103.227 85.7514 103.418 85.3265 103.461 84.873C103.606 83.3555 102.223 82.4116 102.223 82.4116V82.4119Z" fill="#280E37"/>
<path d="M63.3895 89.498C63.3895 89.498 67.8816 90.963 68.6108 97.9591C68.6108 97.9591 70.0757 106.717 76.4073 108.421C76.4073 108.421 76.4073 111.893 68.9141 114.204H61.253C61.253 114.204 62.7117 111.1 62.5309 109.092C62.5309 109.092 61.1302 101.786 58.6971 100.876C58.6971 100.876 53.095 102.4 53.037 100.876C53.037 100.876 53.5857 99.4757 52.9145 98.8045C52.9145 98.8045 51.94 98.1979 52.6112 97.3459C52.6112 97.3459 51.5141 96.7972 51.8175 96.1906C51.8175 96.1906 52.7274 95.5839 52.4241 95.0353C52.4241 95.0353 50.5976 93.8154 51.1463 93.3313C51.1463 93.3313 53.3986 92.118 53.5214 91.0206C53.5214 91.0206 51.8175 85.909 55.7092 83.4758C55.7092 83.4758 57.8391 87.858 63.3895 89.4974V89.498Z" fill="#FFAF9F"/>
<path d="M85.1203 149.004V132.639C85.1203 132.639 86.8243 115.394 75.7297 106.659C75.7297 106.659 69.6631 119.345 62.5249 109.074C62.5249 109.074 50.6246 130.894 48.9209 149.004H85.1206H85.1203Z" fill="#280E37"/>
<path d="M62.4899 115.018C62.4899 115.38 62.1962 115.674 61.834 115.674C61.4718 115.674 61.1781 115.38 61.1781 115.018C61.1781 114.656 61.4718 114.362 61.834 114.362C62.1962 114.362 62.4899 114.656 62.4899 115.018ZM66.9282 113.548C66.566 113.548 66.2723 113.842 66.2723 114.204C66.2723 114.566 66.566 114.86 66.9282 114.86C67.2904 114.86 67.5841 114.566 67.5841 114.204C67.5841 113.842 67.2904 113.548 66.9282 113.548ZM64.5972 117.711C64.235 117.711 63.9413 118.004 63.9413 118.367C63.9413 118.729 64.235 119.023 64.5972 119.023C64.9594 119.023 65.2531 118.729 65.2531 118.367C65.2531 118.004 64.9594 117.711 64.5972 117.711ZM69.6914 116.897C69.3292 116.897 69.0355 117.191 69.0355 117.553C69.0355 117.915 69.3292 118.209 69.6914 118.209C70.0536 118.209 70.3473 117.915 70.3473 117.553C70.3473 117.191 70.0536 116.897 69.6914 116.897ZM72.3819 112.901C72.0198 112.901 71.7261 113.195 71.7261 113.557C71.7261 113.919 72.0198 114.213 72.3819 114.213C72.7441 114.213 73.0378 113.919 73.0378 113.557C73.0378 113.195 72.7441 112.901 72.3819 112.901ZM77.4762 112.088C77.114 112.088 76.8203 112.381 76.8203 112.744C76.8203 113.106 77.114 113.399 77.4762 113.399C77.8384 113.399 78.1321 113.106 78.1321 112.744C78.1321 112.381 77.8384 112.088 77.4762 112.088ZM74.6094 116.246C74.2472 116.246 73.9535 116.54 73.9535 116.902C73.9535 117.264 74.2472 117.558 74.6094 117.558C74.9716 117.558 75.2653 117.264 75.2653 116.902C75.2653 116.54 74.9716 116.246 74.6094 116.246ZM79.7036 115.433C79.3415 115.433 79.0477 115.727 79.0477 116.089C79.0477 116.451 79.3415 116.745 79.7036 116.745C80.0658 116.745 80.3595 116.451 80.3595 116.089C80.3595 115.727 80.0658 115.433 79.7036 115.433ZM66.3306 121.027C65.9684 121.027 65.6747 121.32 65.6747 121.682C65.6747 122.045 65.9684 122.338 66.3306 122.338C66.6928 122.338 66.9865 122.045 66.9865 121.682C66.9865 121.32 66.6928 121.027 66.3306 121.027ZM71.4248 120.213C71.0627 120.213 70.769 120.507 70.769 120.869C70.769 121.231 71.0627 121.525 71.4248 121.525C71.787 121.525 72.0807 121.231 72.0807 120.869C72.0807 120.507 71.787 120.213 71.4248 120.213ZM69.0938 124.375C68.7316 124.375 68.4379 124.669 68.4379 125.031C68.4379 125.393 68.7316 125.687 69.0938 125.687C69.456 125.687 69.7497 125.393 69.7497 125.031C69.7497 124.669 69.456 124.375 69.0938 124.375ZM74.188 123.562C73.8259 123.562 73.5322 123.855 73.5322 124.218C73.5322 124.58 73.8259 124.874 74.188 124.874C74.5502 124.874 74.8439 124.58 74.8439 124.218C74.8439 123.855 74.5502 123.562 74.188 123.562ZM76.8786 119.566C76.5164 119.566 76.2227 119.859 76.2227 120.222C76.2227 120.584 76.5164 120.878 76.8786 120.878C77.2407 120.878 77.5345 120.584 77.5345 120.222C77.5345 119.859 77.2407 119.566 76.8786 119.566ZM81.9728 118.752C81.6106 118.752 81.3169 119.046 81.3169 119.408C81.3169 119.77 81.6106 120.064 81.9728 120.064C82.335 120.064 82.6287 119.77 82.6287 119.408C82.6287 119.046 82.335 118.752 81.9728 118.752ZM79.106 122.911C78.7438 122.911 78.4501 123.205 78.4501 123.567C78.4501 123.929 78.7438 124.223 79.106 124.223C79.4682 124.223 79.7619 123.929 79.7619 123.567C79.7619 123.205 79.4682 122.911 79.106 122.911ZM60.0372 118.91C59.675 118.91 59.3813 119.204 59.3813 119.566C59.3813 119.928 59.675 120.222 60.0372 120.222C60.3994 120.222 60.6931 119.928 60.6931 119.566C60.6931 119.204 60.3994 118.91 60.0372 118.91ZM56.8608 122.964C56.4986 122.964 56.2049 123.258 56.2049 123.62C56.2049 123.982 56.4986 124.276 56.8608 124.276C57.2229 124.276 57.5167 123.982 57.5167 123.62C57.5167 123.258 57.2229 122.964 56.8608 122.964ZM61.955 122.15C61.5928 122.15 61.2991 122.444 61.2991 122.806C61.2991 123.168 61.5928 123.462 61.955 123.462C62.3172 123.462 62.6109 123.168 62.6109 122.806C62.6109 122.444 62.3172 122.15 61.955 122.15ZM59.0882 126.309C58.726 126.309 58.4323 126.603 58.4323 126.965C58.4323 127.327 58.726 127.621 59.0882 127.621C59.4504 127.621 59.7441 127.327 59.7441 126.965C59.7441 126.603 59.4504 126.309 59.0882 126.309ZM64.1824 125.496C63.8203 125.496 63.5266 125.789 63.5266 126.151C63.5266 126.514 63.8203 126.807 64.1824 126.807C64.5446 126.807 64.8383 126.514 64.8383 126.151C64.8383 125.789 64.5446 125.496 64.1824 125.496ZM65.975 128.621C65.6128 128.621 65.3191 128.915 65.3191 129.277C65.3191 129.639 65.6128 129.933 65.975 129.933C66.3372 129.933 66.6309 129.639 66.6309 129.277C66.6309 128.915 66.3372 128.621 65.975 128.621ZM71.0693 127.807C70.7071 127.807 70.4134 128.101 70.4134 128.463C70.4134 128.825 70.7071 129.119 71.0693 129.119C71.4315 129.119 71.7252 128.825 71.7252 128.463C71.7252 128.101 71.4315 127.807 71.0693 127.807ZM68.7382 131.97C68.376 131.97 68.0823 132.263 68.0823 132.626C68.0823 132.988 68.376 133.281 68.7382 133.281C69.1004 133.281 69.3941 132.988 69.3941 132.626C69.3941 132.263 69.1004 131.97 68.7382 131.97ZM73.8325 131.156C73.4703 131.156 73.1766 131.45 73.1766 131.812C73.1766 132.174 73.4703 132.468 73.8325 132.468C74.1947 132.468 74.4884 132.174 74.4884 131.812C74.4884 131.45 74.1947 131.156 73.8325 131.156ZM76.523 127.16C76.1608 127.16 75.8671 127.454 75.8671 127.816C75.8671 128.178 76.1608 128.472 76.523 128.472C76.8852 128.472 77.1789 128.178 77.1789 127.816C77.1789 127.454 76.8852 127.16 76.523 127.16ZM81.6172 126.347C81.2551 126.347 80.9613 126.64 80.9613 127.002C80.9613 127.365 81.2551 127.658 81.6172 127.658C81.9794 127.658 82.2731 127.365 82.2731 127.002C82.2731 126.64 81.9794 126.347 81.6172 126.347ZM78.7504 130.505C78.3883 130.505 78.0945 130.799 78.0945 131.161C78.0945 131.523 78.3883 131.817 78.7504 131.817C79.1126 131.817 79.4063 131.523 79.4063 131.161C79.4063 130.799 79.1126 130.505 78.7504 130.505ZM83.8447 129.692C83.4825 129.692 83.1888 129.986 83.1888 130.348C83.1888 130.71 83.4825 131.004 83.8447 131.004C84.2069 131.004 84.5006 130.71 84.5006 130.348C84.5006 129.986 84.2069 129.692 83.8447 129.692ZM70.4716 135.285C70.1095 135.285 69.8158 135.579 69.8158 135.941C69.8158 136.304 70.1095 136.597 70.4716 136.597C70.8338 136.597 71.1275 136.304 71.1275 135.941C71.1275 135.579 70.8338 135.285 70.4716 135.285ZM75.5659 134.472C75.2037 134.472 74.91 134.766 74.91 135.128C74.91 135.49 75.2037 135.784 75.5659 135.784C75.9281 135.784 76.2218 135.49 76.2218 135.128C76.2218 134.766 75.9281 134.472 75.5659 134.472ZM73.2348 138.634C72.8727 138.634 72.579 138.928 72.579 139.29C72.579 139.652 72.8727 139.946 73.2348 139.946C73.597 139.946 73.8907 139.652 73.8907 139.29C73.8907 138.928 73.597 138.634 73.2348 138.634ZM78.3291 137.821C77.9669 137.821 77.6732 138.114 77.6732 138.477C77.6732 138.839 77.9669 139.133 78.3291 139.133C78.6913 139.133 78.985 138.839 78.985 138.477C78.985 138.114 78.6913 137.821 78.3291 137.821ZM81.0196 133.825C80.6574 133.825 80.3637 134.118 80.3637 134.481C80.3637 134.843 80.6574 135.137 81.0196 135.137C81.3818 135.137 81.6755 134.843 81.6755 134.481C81.6755 134.118 81.3818 133.825 81.0196 133.825ZM83.845 123.567C83.4828 123.567 83.1891 123.861 83.1891 124.223C83.1891 124.586 83.4828 124.879 83.845 124.879C84.2072 124.879 84.5009 124.586 84.5009 124.223C84.5009 123.861 84.2072 123.567 83.845 123.567ZM83.2474 137.17C82.8852 137.17 82.5915 137.464 82.5915 137.826C82.5915 138.188 82.8852 138.482 83.2474 138.482C83.6095 138.482 83.9032 138.188 83.9032 137.826C83.9032 137.464 83.6095 137.17 83.2474 137.17ZM64.1785 133.169C63.8164 133.169 63.5227 133.463 63.5227 133.825C63.5227 134.187 63.8164 134.481 64.1785 134.481C64.5407 134.481 64.8344 134.187 64.8344 133.825C64.8344 133.463 64.5407 133.169 64.1785 133.169ZM61.0021 137.223C60.6399 137.223 60.3462 137.517 60.3462 137.879C60.3462 138.241 60.6399 138.535 61.0021 138.535C61.3643 138.535 61.658 138.241 61.658 137.879C61.658 137.517 61.3643 137.223 61.0021 137.223ZM66.0964 136.409C65.7342 136.409 65.4405 136.703 65.4405 137.065C65.4405 137.427 65.7342 137.721 66.0964 137.721C66.4585 137.721 66.7522 137.427 66.7522 137.065C66.7522 136.703 66.4585 136.409 66.0964 136.409ZM63.2295 140.568C62.8674 140.568 62.5737 140.862 62.5737 141.224C62.5737 141.586 62.8674 141.88 63.2295 141.88C63.5917 141.88 63.8854 141.586 63.8854 141.224C63.8854 140.862 63.5917 140.568 63.2295 140.568ZM68.3238 139.754C67.9616 139.754 67.6679 140.048 67.6679 140.41C67.6679 140.773 67.9616 141.066 68.3238 141.066C68.686 141.066 68.9797 140.773 68.9797 140.41C68.9797 140.048 68.686 139.754 68.3238 139.754ZM70.147 143.146C69.7848 143.146 69.4911 143.439 69.4911 143.802C69.4911 144.164 69.7848 144.457 70.147 144.457C70.5092 144.457 70.8029 144.164 70.8029 143.802C70.8029 143.439 70.5092 143.146 70.147 143.146ZM75.2412 142.332C74.8791 142.332 74.5854 142.626 74.5854 142.988C74.5854 143.35 74.8791 143.644 75.2412 143.644C75.6034 143.644 75.8971 143.35 75.8971 142.988C75.8971 142.626 75.6034 142.332 75.2412 142.332ZM72.9102 146.494C72.548 146.494 72.2543 146.788 72.2543 147.15C72.2543 147.513 72.548 147.806 72.9102 147.806C73.2724 147.806 73.5661 147.513 73.5661 147.15C73.5661 146.788 73.2724 146.494 72.9102 146.494ZM78.0044 145.681C77.6423 145.681 77.3486 145.975 77.3486 146.337C77.3486 146.699 77.6423 146.993 78.0044 146.993C78.3666 146.993 78.6603 146.699 78.6603 146.337C78.6603 145.975 78.3666 145.681 78.0044 145.681ZM80.695 141.685C80.3328 141.685 80.0391 141.979 80.0391 142.341C80.0391 142.703 80.3328 142.997 80.695 142.997C81.0572 142.997 81.3509 142.703 81.3509 142.341C81.3509 141.979 81.0572 141.685 80.695 141.685ZM56.4758 146.495C56.1136 146.495 55.8199 146.788 55.8199 147.151C55.8199 147.513 56.1136 147.807 56.4758 147.807C56.8379 147.807 57.1316 147.513 57.1316 147.151C57.1316 146.788 56.8379 146.495 56.4758 146.495ZM82.9224 145.03C82.5602 145.03 82.2665 145.324 82.2665 145.686C82.2665 146.048 82.5602 146.342 82.9224 146.342C83.2846 146.342 83.5783 146.048 83.5783 145.686C83.5783 145.324 83.2846 145.03 82.9224 145.03ZM56.2304 138.583C55.8682 138.583 55.5745 138.877 55.5745 139.239C55.5745 139.601 55.8682 139.895 56.2304 139.895C56.5926 139.895 56.8863 139.601 56.8863 139.239C56.8863 138.877 56.5926 138.583 56.2304 138.583ZM61.6583 129.85C61.2961 129.85 61.0024 130.144 61.0024 130.506C61.0024 130.868 61.2961 131.162 61.6583 131.162C62.0205 131.162 62.3142 130.868 62.3142 130.506C62.3142 130.144 62.0205 129.85 61.6583 129.85ZM58.9936 141.932C58.6314 141.932 58.3377 142.225 58.3377 142.588C58.3377 142.95 58.6314 143.244 58.9936 143.244C59.3558 143.244 59.6495 142.95 59.6495 142.588C59.6495 142.225 59.3558 141.932 58.9936 141.932ZM54.1708 135.179C53.8087 135.179 53.515 135.473 53.515 135.835C53.515 136.197 53.8087 136.491 54.1708 136.491C54.533 136.491 54.8267 136.197 54.8267 135.835C54.8267 135.473 54.533 135.179 54.1708 135.179ZM56.8614 131.183C56.4992 131.183 56.2055 131.477 56.2055 131.839C56.2055 132.201 56.4992 132.495 56.8614 132.495C57.2235 132.495 57.5173 132.201 57.5173 131.839C57.5173 131.477 57.2235 131.183 56.8614 131.183ZM65.675 144.197C65.3128 144.197 65.0191 144.491 65.0191 144.853C65.0191 145.215 65.3128 145.509 65.675 145.509C66.0372 145.509 66.3309 145.215 66.3309 144.853C66.3309 144.491 66.0372 144.197 65.675 144.197ZM59.0888 134.528C58.7266 134.528 58.4329 134.822 58.4329 135.184C58.4329 135.546 58.7266 135.84 59.0888 135.84C59.451 135.84 59.7447 135.546 59.7447 135.184C59.7447 134.822 59.451 134.528 59.0888 134.528ZM60.5447 144.664C60.1826 144.664 59.8888 144.958 59.8888 145.32C59.8888 145.682 60.1826 145.976 60.5447 145.976C60.9069 145.976 61.2006 145.682 61.2006 145.32C61.2006 144.958 60.9069 144.664 60.5447 144.664ZM51.8551 139.707C51.4929 139.707 51.1992 140 51.1992 140.363C51.1992 140.725 51.4929 141.018 51.8551 141.018C52.2173 141.018 52.511 140.725 52.511 140.363C52.511 140 52.2173 139.707 51.8551 139.707ZM54.0825 143.052C53.7204 143.052 53.4267 143.346 53.4267 143.708C53.4267 144.07 53.7204 144.364 54.0825 144.364C54.4447 144.364 54.7384 144.07 54.7384 143.708C54.7384 143.346 54.4447 143.052 54.0825 143.052Z" fill="#EDEAD9"/>
<path d="M63.8526 93.9634C63.8526 93.2673 63.2862 92.7012 62.5904 92.7012C61.8945 92.7012 61.3281 93.2676 61.3281 93.9634C61.3281 94.4938 61.657 94.9484 62.1213 95.1349C61.9282 95.2821 61.8026 95.5139 61.8026 95.7749C61.8026 96.1389 62.0456 96.447 62.378 96.5461C62.2297 96.6413 62.1309 96.8074 62.1309 96.9963C62.1309 97.2912 62.3708 97.5311 62.6657 97.5311C62.9606 97.5311 63.2006 97.2912 63.2006 96.9963C63.2006 96.7894 63.082 96.6098 62.9096 96.5209C63.2045 96.4011 63.4129 96.1121 63.4129 95.7749C63.4129 95.5085 63.2823 95.2725 63.0823 95.1259C63.5345 94.9337 63.8526 94.485 63.8526 93.9634ZM62.6657 97.1813C62.5639 97.1813 62.481 97.0984 62.481 96.9966C62.481 96.8948 62.5639 96.8119 62.6657 96.8119C62.7675 96.8119 62.8504 96.8948 62.8504 96.9966C62.8504 97.0984 62.7675 97.1813 62.6657 97.1813ZM62.6078 96.1716C62.3891 96.1716 62.2111 95.9935 62.2111 95.7749C62.2111 95.5563 62.3891 95.3782 62.6078 95.3782C62.8264 95.3782 63.0045 95.5563 63.0045 95.7749C63.0045 95.9935 62.8264 96.1716 62.6078 96.1716ZM62.59 94.7004C62.1837 94.7004 61.8531 94.3697 61.8531 93.9634C61.8531 93.5571 62.1837 93.2261 62.59 93.2261C62.9964 93.2261 63.327 93.5568 63.327 93.9634C63.327 94.37 62.9964 94.7004 62.59 94.7004Z" fill="#280E37"/>
<path d="M85.2494 107.395C83.8875 105.478 82.4226 102.677 82.9776 100.037C82.9776 100.037 84.4362 92.8541 79.5699 89.6915C79.5699 89.6915 73.1224 86.7742 72.8771 82.0499C72.8771 82.0499 73.1999 78.481 67.2684 77.6482C66.5906 77.5578 65.9194 77.4545 65.2611 77.2803C63.8154 76.9061 60.7819 76.4413 59.2395 78.6227C59.2395 78.6227 57.0967 81.8304 52.082 82.7341C51.1204 82.9082 50.275 83.599 50.0618 84.554C49.881 85.3543 50.1456 86.2643 51.7658 86.8904C52.2628 87.0841 52.6824 87.4454 52.9791 87.8974C53.7857 89.1236 55.806 91.4922 59.7428 92.4475C63.3313 93.3124 65.2761 96.5176 66.9281 99.822C68.4835 102.913 69.0619 105.474 70.1913 111.954C70.5322 113.645 72.8122 114.398 73.3672 114.791C74.8063 115.811 81.3961 118.496 86.7786 119.761C89.2764 120.348 91.2578 117.65 89.9605 115.437L85.2491 107.395L85.2494 107.395Z" fill="black"/>
</g>
</svg>
