<svg width="137" height="118" viewBox="0 0 137 118" fill="none" xmlns="http://www.w3.org/2000/svg">
<path d="M64.539 21.5503L63.1077 20.7159L52.5124 26.8343C52.4785 26.8547 52.4378 26.875 52.4039 26.8886C52.3903 26.8954 52.3835 26.8954 52.3699 26.9022L52.3089 26.9225C52.2953 26.9293 52.2818 26.9293 52.2682 26.9361C52.2546 26.9361 52.2478 26.9429 52.2343 26.9429C52.2207 26.9429 52.2071 26.9497 52.1868 26.9497H52.0986C52.0783 26.9497 52.0579 26.9429 52.0376 26.9429C52.0308 26.9429 52.024 26.9429 52.024 26.9361C52.0104 26.9293 51.9969 26.9293 51.9765 26.9225C51.9697 26.9225 51.9697 26.9225 51.963 26.9157C51.9426 26.909 51.929 26.9022 51.9087 26.8886L53.3399 27.7229H53.3467L53.3874 27.7433H53.3942C53.401 27.7433 53.401 27.7433 53.4078 27.7501C53.4146 27.7501 53.4213 27.7569 53.4281 27.7569C53.4349 27.7569 53.4417 27.7636 53.4485 27.7636C53.4553 27.7636 53.462 27.7636 53.462 27.7704H53.4688C53.4824 27.7704 53.5027 27.7772 53.5163 27.7772H53.6316C53.6384 27.7772 53.6452 27.7772 53.652 27.7704C53.6655 27.7704 53.6723 27.7636 53.6859 27.7636C53.6927 27.7636 53.6994 27.7636 53.7062 27.7569C53.713 27.7569 53.7198 27.7501 53.7266 27.7501L53.7876 27.7297C53.7944 27.7297 53.8012 27.7229 53.808 27.7229C53.8148 27.7229 53.8148 27.7162 53.8215 27.7162C53.8555 27.7026 53.8894 27.6822 53.9301 27.6619L64.539 21.5503ZM67.7338 13.4037L66.3026 12.5693L55.7073 18.6878C55.6734 18.7081 55.6327 18.7285 55.5987 18.742C55.5852 18.7488 55.5784 18.7488 55.5648 18.7556L55.5038 18.7759C55.4902 18.7827 55.4766 18.7827 55.4631 18.7895C55.4495 18.7895 55.4427 18.7963 55.4292 18.7963C55.4156 18.7963 55.402 18.8031 55.3817 18.8031H55.2935C55.2731 18.8031 55.2528 18.7963 55.2324 18.7963C55.2257 18.7963 55.2189 18.7963 55.2189 18.7895C55.2053 18.7827 55.1917 18.7827 55.1714 18.7759C55.1646 18.7759 55.1646 18.7759 55.1578 18.7692C55.1375 18.7624 55.1239 18.7556 55.1036 18.742L56.5348 19.5764H56.5416L56.5823 19.5967H56.5891C56.5959 19.5967 56.5959 19.5967 56.6026 19.6035C56.6094 19.6035 56.6162 19.6103 56.623 19.6103C56.6298 19.6103 56.6366 19.6171 56.6433 19.6171C56.6501 19.6171 56.6569 19.6171 56.6569 19.6238H56.6637C56.6773 19.6238 56.6976 19.6306 56.7112 19.6306H56.8265C56.8333 19.6306 56.8401 19.6306 56.8468 19.6238C56.8604 19.6238 56.8672 19.6171 56.8808 19.6171C56.8875 19.6171 56.8943 19.6171 56.9011 19.6103C56.9079 19.6103 56.9147 19.6035 56.9215 19.6035L56.9825 19.5831C56.9893 19.5831 56.9961 19.5764 57.0029 19.5764C57.0096 19.5764 57.0096 19.5696 57.0164 19.5696C57.0503 19.556 57.0842 19.5357 57.1249 19.5153L67.7338 13.4037Z" fill="#A7CEFF"/>
<path d="M49.2565 17.772L70.9287 5.25708L69.5382 8.7979C69.0294 10.0935 68.1001 11.2466 67.0895 11.8232L57.1318 17.5753C56.8333 17.7449 56.5552 18.0908 56.406 18.4775C56.0736 19.3186 56.4874 19.8952 57.1385 19.5221L67.7339 13.4037L66.3433 16.9445C65.8346 18.2401 64.9053 19.3932 63.8946 19.9698L53.9369 25.7219C53.6384 25.8915 53.3603 26.2374 53.2111 26.6241C52.8787 27.4652 53.2925 28.0418 53.9437 27.6687L64.539 21.5503L63.1484 25.0911C62.6397 26.3867 61.7104 27.5398 60.6997 28.1164L38.3559 41.018C36.8636 41.8794 35.9276 40.5499 36.6805 38.6371L40.7233 28.3334C42.4937 23.8226 45.7428 19.807 49.2565 17.772Z" fill="white"/>
<path d="M41.0489 27.5395C41.0828 27.4649 41.1167 27.3835 41.1507 27.3089C41.1778 27.2478 41.2049 27.18 41.2388 27.119C41.2728 27.0444 41.3135 26.963 41.3474 26.8883C41.3745 26.8273 41.4084 26.7662 41.4356 26.6984C41.4763 26.6238 41.5102 26.5424 41.5509 26.4678C41.578 26.4067 41.6119 26.3457 41.6391 26.2846C41.6797 26.2032 41.7204 26.1286 41.7611 26.0472C41.7883 25.993 41.8222 25.9319 41.8493 25.8776C41.8968 25.7895 41.9511 25.6945 41.9986 25.6063C42.0257 25.5588 42.046 25.5181 42.0732 25.4707C42.1478 25.3418 42.2156 25.2129 42.2902 25.084C42.297 25.0772 42.297 25.0704 42.3038 25.0637L42.548 24.6567C42.5751 24.616 42.6023 24.5685 42.6294 24.5278C42.6837 24.4396 42.7379 24.3447 42.799 24.2565C42.8261 24.209 42.86 24.1615 42.8872 24.114C42.9482 24.0258 43.0025 23.9377 43.0635 23.8427C43.0974 23.7884 43.1313 23.7409 43.172 23.6867C43.2263 23.6053 43.2806 23.5239 43.3416 23.4425C43.3755 23.395 43.4095 23.3407 43.4502 23.2933L43.6537 23.0084C43.6876 22.9609 43.7215 22.9202 43.7486 22.8727C43.8368 22.7506 43.9318 22.6285 44.0199 22.5132C44.0335 22.4996 44.0403 22.4861 44.0539 22.4725C44.1692 22.3233 44.2845 22.1808 44.3998 22.0384C44.4337 21.9977 44.4608 21.9638 44.4948 21.9231C44.5897 21.8077 44.6915 21.6856 44.7932 21.5703C44.8204 21.5432 44.8475 21.5093 44.8678 21.4821C44.9085 21.4415 44.9425 21.394 44.9832 21.3533L45.146 21.1701C45.1867 21.1226 45.2273 21.0819 45.268 21.0412C45.3223 20.9802 45.3766 20.9259 45.4308 20.8649C45.4715 20.8174 45.5122 20.7767 45.5597 20.736L45.7225 20.5732L45.8514 20.4443L45.9938 20.3019C46.0888 20.2137 46.177 20.1255 46.272 20.0373L46.3534 19.9559C46.4755 19.8474 46.5975 19.7321 46.7129 19.6303C46.74 19.6032 46.7739 19.5829 46.801 19.5557L47.0859 19.3115L47.208 19.2098C47.303 19.1352 47.3912 19.0606 47.4861 18.9859L47.5879 18.9045C47.71 18.8096 47.8389 18.7146 47.9677 18.6197L48.0288 18.579C48.1373 18.5043 48.2459 18.4297 48.3476 18.3551L48.4697 18.2737C48.5647 18.2127 48.6529 18.1516 48.7478 18.0906C48.7885 18.0634 48.8224 18.0431 48.8631 18.0159C48.992 17.9345 49.1209 17.8599 49.2498 17.7853L70.922 5.27037L69.4908 4.43604L47.8253 16.9442C47.6964 17.0188 47.5675 17.1002 47.4387 17.1748C47.398 17.202 47.364 17.2223 47.3233 17.2494C47.2284 17.3105 47.1334 17.3715 47.0452 17.4326L46.9231 17.514L46.5975 17.7378L46.5365 17.7785C46.4076 17.8735 46.2855 17.9685 46.1566 18.0634L46.0549 18.1448C45.9599 18.2194 45.8717 18.2941 45.7768 18.3687L45.6547 18.4704L45.3698 18.7146C45.3427 18.7417 45.3087 18.7621 45.2816 18.7892C45.1595 18.8978 45.0374 19.0063 44.9221 19.1148L44.8407 19.1962C44.7457 19.2844 44.6508 19.3726 44.5626 19.4675L44.5083 19.5218L44.4202 19.61L44.2913 19.7389L44.1285 19.9017C44.0878 19.9424 44.0471 19.9899 43.9996 20.0306C43.9453 20.0848 43.8911 20.1459 43.8368 20.2069C43.7961 20.2476 43.7554 20.2951 43.7147 20.3358L43.5519 20.5189C43.5112 20.5596 43.4773 20.6071 43.4366 20.6478L43.4095 20.675C43.3891 20.6953 43.3755 20.7157 43.3552 20.736C43.2534 20.8513 43.1585 20.9666 43.0567 21.0887C43.0228 21.1294 42.9957 21.1633 42.9618 21.204C42.8465 21.3465 42.7244 21.4957 42.6158 21.6382C42.6158 21.6382 42.6158 21.6449 42.609 21.6449C42.6023 21.6585 42.5887 21.6721 42.5819 21.6856C42.4869 21.8077 42.3988 21.9231 42.3106 22.0452C42.2767 22.0859 42.2428 22.1333 42.2156 22.1808L42.0121 22.4657C41.9918 22.4928 41.9782 22.52 41.9579 22.5403C41.9375 22.5675 41.9239 22.5878 41.9036 22.6149C41.8493 22.6963 41.7883 22.7777 41.734 22.8591C41.7001 22.9134 41.6662 22.9609 41.6255 23.0151C41.5644 23.1033 41.5102 23.1915 41.4491 23.2797C41.422 23.3136 41.4016 23.3543 41.3745 23.3882C41.3677 23.4018 41.3609 23.4086 41.3542 23.4221C41.2999 23.5103 41.2388 23.5985 41.1846 23.6935C41.1574 23.7342 41.1303 23.7816 41.1032 23.8223L40.859 24.2293C40.8522 24.2361 40.8522 24.2429 40.8454 24.2497C40.7708 24.3786 40.6962 24.5074 40.6284 24.6363C40.6012 24.6838 40.5809 24.7313 40.5537 24.772C40.5063 24.8602 40.4588 24.9484 40.4045 25.0433C40.4045 25.0501 40.3977 25.0569 40.3977 25.0637C40.3706 25.1179 40.3435 25.1654 40.3163 25.2197C40.2756 25.3011 40.2349 25.3757 40.1942 25.4571C40.1603 25.5181 40.1332 25.5792 40.1061 25.6402C40.0654 25.7148 40.0314 25.7962 39.9907 25.8709C39.984 25.8844 39.9772 25.8912 39.9772 25.9048C39.95 25.959 39.9297 26.0065 39.9026 26.0608C39.8686 26.1354 39.8279 26.2168 39.794 26.2914C39.7669 26.3525 39.733 26.4203 39.7058 26.4813C39.6719 26.556 39.638 26.6374 39.6041 26.712C39.5973 26.7255 39.5905 26.7391 39.5837 26.7595C39.5498 26.8341 39.5227 26.9019 39.4888 26.9765C39.4684 27.0172 39.4549 27.0647 39.4345 27.1054C39.3803 27.2411 39.326 27.3699 39.2717 27.5056L35.229 37.8092C35.2222 37.816 35.2222 37.8296 35.2154 37.8364C35.1883 37.9042 35.1679 37.9653 35.1476 38.0263C35.1476 38.0331 35.1408 38.0399 35.1408 38.0467C35.1204 38.1077 35.1001 38.1688 35.0865 38.2298V38.2366C35.0729 38.2976 35.0594 38.3519 35.0458 38.413C35.0458 38.4265 35.039 38.4401 35.039 38.4536V38.4604C35.0255 38.5215 35.0187 38.5757 35.0051 38.6368C35.0051 38.6504 34.9983 38.6639 34.9983 38.6843C34.9983 38.6978 34.9915 38.7114 34.9915 38.725C34.9848 38.7657 34.9848 38.7996 34.978 38.8403V38.8606C34.9712 38.9149 34.9712 38.976 34.9712 39.0302V39.2473C34.978 39.3015 34.978 39.349 34.9848 39.3965V39.4101C34.9915 39.4576 34.9983 39.4983 35.0119 39.539C35.0119 39.5525 35.0187 39.5661 35.0187 39.5797C35.0255 39.6136 35.039 39.6475 35.0458 39.6814C35.0458 39.695 35.0526 39.7018 35.0526 39.7153C35.0662 39.756 35.0797 39.7967 35.1001 39.8374C35.1069 39.8442 35.1069 39.851 35.1136 39.8578C35.1272 39.8917 35.1408 39.9188 35.1611 39.9459C35.1679 39.9595 35.1747 39.9663 35.1815 39.9799C35.2018 40.007 35.2154 40.0341 35.2357 40.0613C35.2425 40.068 35.2425 40.0748 35.2493 40.0816C35.2764 40.1155 35.2968 40.1427 35.3239 40.1698L35.3443 40.1901C35.3646 40.2105 35.385 40.2308 35.4121 40.2512C35.4189 40.258 35.4257 40.2648 35.4392 40.2715C35.4664 40.2919 35.5003 40.319 35.5342 40.3326L36.9654 41.1669C36.9315 41.1466 36.9044 41.1262 36.8705 41.1059C36.8637 41.0991 36.8501 41.0923 36.8433 41.0855C36.823 41.0652 36.7959 41.0448 36.7755 41.0245L36.7552 41.0041C36.728 40.977 36.7009 40.9499 36.6806 40.9159C36.6738 40.9092 36.6738 40.9024 36.667 40.8956C36.6466 40.8685 36.6263 40.8413 36.6127 40.8142C36.6059 40.8006 36.5992 40.7938 36.5924 40.7803C36.5788 40.7531 36.5585 40.7192 36.5449 40.6921C36.5381 40.6853 36.5381 40.6785 36.5313 40.6717C36.511 40.6311 36.4974 40.5904 36.4838 40.5497C36.4771 40.5361 36.4771 40.5293 36.4771 40.5157C36.4635 40.4818 36.4567 40.4479 36.4499 40.414C36.4499 40.4004 36.4431 40.3869 36.4431 40.3733C36.4364 40.3326 36.4228 40.2851 36.416 40.2444V40.2308C36.4092 40.1834 36.4024 40.1291 36.4024 40.0816V39.8645C36.4024 39.8103 36.4024 39.756 36.4092 39.695V39.6746C36.416 39.6271 36.4228 39.5729 36.4296 39.5186C36.4296 39.505 36.4364 39.4915 36.4364 39.4711C36.4431 39.4169 36.4567 39.3558 36.4703 39.2948V39.288C36.4703 39.2744 36.4771 39.2608 36.4838 39.2473C36.4974 39.193 36.511 39.132 36.5245 39.0709C36.5449 39.0099 36.5585 38.942 36.5788 38.881C36.5788 38.8742 36.5856 38.8674 36.5856 38.8606L36.667 38.6368L40.7098 28.3332C40.764 28.1975 40.8183 28.0686 40.8726 27.9329C40.8929 27.8922 40.9065 27.8448 40.9268 27.8041C40.9743 27.7159 41.015 27.6277 41.0489 27.5395Z" fill="#A7CEFF"/>
<path d="M74.5779 28.0212L74.5372 52.3049L53.584 40.2105L53.6247 15.9268L74.5779 28.0212Z" fill="#B27A54"/>
<path d="M74.5782 28.0213H75.6228L53.625 15.3164V15.9269L74.5782 28.0213Z" fill="#D99566"/>
<path d="M53.6249 15.9268L53.5842 40.2105L32.7734 52.3049L32.8141 28.0212L53.6249 15.9268Z" fill="#BF835A"/>
<path d="M53.6244 15.9269V15.3164L31.769 28.0213H32.8137L53.6244 15.9269Z" fill="#D99566"/>
<path d="M53.5842 40.2104L32.7734 52.3048L53.5842 64.3992L74.5374 52.3048L53.5842 40.2104Z" fill="#A6714E"/>
<path d="M75.6222 28.0212L75.5815 52.305L53.7261 65.0099L53.7668 40.7193L75.6222 28.0212Z" fill="#F8AB37"/>
<path d="M53.7603 40.1156L53.767 40.7193L75.6224 28.0212H74.5778L53.7603 40.1156Z" fill="#D99566"/>
<path d="M53.767 40.7193L53.7263 65.0099L31.7285 52.305L31.7692 28.0212L53.767 40.7193Z" fill="#F9B953"/>
<path d="M53.7601 40.1156L32.8137 28.0212H31.769L53.7669 40.7193L53.7601 40.1156Z" fill="#D99566"/>
<path d="M44.2708 59.5494L40.3569 57.2906V48.7099L44.2708 50.9687V59.5494ZM44.2708 43.8192L40.3569 41.5605V32.9797L44.2708 35.2385V43.8192Z" fill="#34005B"/>
<path d="M56.5687 62.8392L54.2964 64.1551V61.1231L56.5687 59.8071V62.8392ZM54.4117 63.9381L56.4602 62.7578V60.0242L54.4117 61.2045V63.9381Z" fill="#DB8918"/>
<path d="M55.4359 62.1337C55.2527 62.2422 55.1035 62.1269 55.1035 61.8827V61.0009L55.7683 60.6143V61.4961C55.7615 61.747 55.619 62.0319 55.4359 62.1337Z" fill="#DB8918"/>
<path d="M55.4975 62.9477L55.3687 63.0223V61.8488L55.4975 61.781V62.9477Z" fill="#DB8918"/>
<path d="M55.1035 63.3412V63.1784L55.7615 62.7917V62.9545L55.1035 63.3412Z" fill="#DB8918"/>
<path d="M59.2958 61.2657L57.0234 62.5817V59.5496L59.2958 58.2336V61.2657ZM57.1388 62.3578L59.1873 61.1775V58.4507L57.1388 59.631V62.3578Z" fill="#DB8918"/>
<path d="M58.1903 59.3594L58.1835 59.2712V59.2509C58.1835 59.2441 58.1835 59.2441 58.1767 59.2373H58.1564L58.1496 59.2441C58.1496 59.2509 58.1428 59.2509 58.1428 59.2577C58.1428 59.2644 58.136 59.2712 58.136 59.278L58.1292 59.3797V59.3933C57.5594 59.746 57.4373 60.4718 57.417 60.6618C57.417 60.6618 57.4984 60.56 57.6273 60.499C57.7562 60.4379 57.824 60.4651 57.824 60.4651C57.824 60.4651 57.9257 60.2955 58.136 60.1666V61.0891L58.1224 61.0959V61.4147C58.1224 61.4758 58.0817 61.5436 58.041 61.5639C58.0003 61.5843 57.9732 61.5639 57.9664 61.5164V61.4961C57.9664 61.4758 57.9596 61.469 57.9461 61.469C57.9393 61.469 57.9393 61.469 57.9325 61.4758L57.9257 61.4825L57.9189 61.4893V61.5436C57.9257 61.6318 57.98 61.6792 58.0478 61.6453C58.1292 61.6046 58.1971 61.4825 58.1971 61.374V61.0552L58.1835 61.062V60.1395C58.3938 60.0242 58.4955 60.0784 58.4955 60.0784C58.4955 60.0784 58.5634 59.9699 58.6922 59.8817C58.8211 59.7867 58.9025 59.8071 58.9025 59.8071C58.8754 59.6443 58.7601 59.0474 58.1903 59.3594Z" fill="#DB8918"/>
<path d="M62.0219 59.692L59.7495 61.0079V57.9758L62.0219 56.6599V59.692ZM59.8648 60.7841L61.9133 59.6038V56.877L59.8648 58.0572V60.7841Z" fill="#DB8918"/>
<path d="M61.5541 59.6988L60.2246 60.4653V60.3025L61.5541 59.536V59.6988ZM60.6316 59.9091L60.4892 59.9905V58.315L60.6316 58.2336V59.9091Z" fill="#DB8918"/>
<path d="M60.7807 58.2336L60.5637 57.8469L60.3398 58.4845L60.7807 58.2336ZM61.2827 59.5291L61.1403 59.6173V57.9419L61.2827 57.8537V59.5291Z" fill="#DB8918"/>
<path d="M61.4321 57.8537L61.2151 57.4739L60.9912 58.1115L61.4321 57.8537Z" fill="#DB8918"/>
<path d="M53.7669 40.7194L75.6223 28.0213L53.6244 15.3164L31.769 28.0213L53.7669 40.7194Z" fill="#FBC977"/>
<path d="M66.2008 22.5811L44.2708 35.2385L40.3569 32.9797L62.2869 20.3223" fill="#B352FF"/>
<path d="M90.7357 36.6836L89.3045 35.8492L78.7092 41.9676C78.6753 41.988 78.6346 42.0083 78.6006 42.0219C78.5871 42.0287 78.5803 42.0287 78.5667 42.0355L78.5057 42.0558C78.4921 42.0626 78.4785 42.0626 78.465 42.0694C78.4514 42.0694 78.4446 42.0762 78.4311 42.0762C78.4175 42.0762 78.4039 42.083 78.3836 42.083H78.2954C78.2751 42.083 78.2547 42.0762 78.2344 42.0762C78.2276 42.0762 78.2208 42.0762 78.2208 42.0694C78.2072 42.0626 78.1936 42.0626 78.1733 42.0558C78.1665 42.0558 78.1665 42.0558 78.1597 42.049C78.1394 42.0423 78.1258 42.0355 78.1055 42.0219L79.5367 42.8562H79.5435L79.5842 42.8766H79.591C79.5978 42.8766 79.5978 42.8766 79.6045 42.8834C79.6113 42.8834 79.6181 42.8902 79.6249 42.8902C79.6317 42.8902 79.6385 42.8969 79.6453 42.8969C79.652 42.8969 79.6588 42.8969 79.6588 42.9037H79.6656C79.6792 42.9037 79.6995 42.9105 79.7131 42.9105H79.8284C79.8352 42.9105 79.842 42.9105 79.8487 42.9037C79.8623 42.9037 79.8691 42.8969 79.8827 42.8969C79.8894 42.8969 79.8962 42.8969 79.903 42.8902C79.9098 42.8902 79.9166 42.8834 79.9234 42.8834L79.9844 42.863C79.9912 42.863 79.998 42.8562 80.0048 42.8562C80.0115 42.8562 80.0115 42.8495 80.0183 42.8495C80.0522 42.8359 80.0862 42.8155 80.1269 42.7952L90.7357 36.6836ZM93.9306 28.537L92.4994 27.7026L81.904 33.8211C81.8701 33.8414 81.8294 33.8618 81.7955 33.8753C81.782 33.8821 81.7752 33.8821 81.7616 33.8889L81.7006 33.9092C81.687 33.916 81.6734 33.916 81.6599 33.9228C81.6463 33.9228 81.6395 33.9296 81.6259 33.9296C81.6124 33.9296 81.5988 33.9364 81.5785 33.9364H81.4903C81.4699 33.9364 81.4496 33.9296 81.4292 33.9296C81.4224 33.9296 81.4157 33.9296 81.4157 33.9228C81.4021 33.916 81.3885 33.916 81.3682 33.9092C81.3614 33.9092 81.3614 33.9092 81.3546 33.9025C81.3343 33.8957 81.3207 33.8889 81.3003 33.8753L82.7316 34.7097H82.7384L82.7791 34.73H82.7859C82.7926 34.73 82.7926 34.73 82.7994 34.7368C82.8062 34.7368 82.813 34.7436 82.8198 34.7436C82.8266 34.7436 82.8333 34.7504 82.8401 34.7504C82.8469 34.7504 82.8537 34.7504 82.8537 34.7571H82.8605C82.874 34.7571 82.8944 34.7639 82.908 34.7639H83.0233C83.0301 34.7639 83.0368 34.7639 83.0436 34.7571C83.0572 34.7571 83.064 34.7504 83.0775 34.7504C83.0843 34.7504 83.0911 34.7504 83.0979 34.7436C83.1047 34.7436 83.1115 34.7368 83.1182 34.7368L83.1793 34.7164C83.1861 34.7164 83.1928 34.7097 83.1996 34.7097C83.2064 34.7097 83.2064 34.7029 83.2132 34.7029C83.2471 34.6893 83.281 34.669 83.3217 34.6486L93.9306 28.537Z" fill="#A7CEFF"/>
<path d="M75.4528 32.9051L97.125 20.3901L95.7345 23.931C95.2257 25.2265 94.2964 26.3797 93.2857 26.9562L83.328 32.7084C83.0296 32.878 82.7515 33.2239 82.6022 33.6105C82.2699 34.4517 82.6836 35.0282 83.3348 34.6551L93.9301 28.5367L92.5396 32.0775C92.0309 33.3731 91.1016 34.5263 90.0909 35.1028L80.1332 40.855C79.8347 41.0246 79.5566 41.3705 79.4074 41.7571C79.075 42.5982 79.4888 43.1748 80.14 42.8017L90.7353 36.6833L89.3447 40.2241C88.836 41.5197 87.9067 42.6729 86.896 43.2494L64.5522 56.151C63.0599 57.0125 62.1238 55.683 62.8768 53.7701L66.9196 43.4665C68.69 38.9557 71.9391 34.9333 75.4528 32.9051Z" fill="white"/>
<path d="M67.2521 42.673C67.2861 42.5984 67.32 42.517 67.3539 42.4424C67.381 42.3813 67.4082 42.3135 67.4421 42.2525C67.476 42.1778 67.5167 42.0964 67.5506 42.0218C67.5777 41.9608 67.6117 41.8997 67.6388 41.8319C67.6795 41.7573 67.7134 41.6759 67.7541 41.6013C67.7812 41.5402 67.8151 41.4792 67.8423 41.4181C67.883 41.3367 67.9237 41.2621 67.9644 41.1807C67.9915 41.1265 68.0254 41.0654 68.0526 41.0111C68.1 40.923 68.1543 40.828 68.2018 40.7398C68.2289 40.6923 68.2493 40.6516 68.2764 40.6041C68.351 40.4753 68.4189 40.3464 68.4935 40.2175C68.5002 40.2107 68.5002 40.2039 68.507 40.1972L68.7512 39.7902C68.7784 39.7495 68.8055 39.702 68.8326 39.6613C68.8869 39.5731 68.9412 39.4781 69.0022 39.39C69.0293 39.3425 69.0633 39.295 69.0904 39.2475C69.1514 39.1593 69.2057 39.0712 69.2667 38.9762C69.3007 38.9219 69.3346 38.8744 69.3753 38.8202C69.4295 38.7388 69.4838 38.6574 69.5449 38.576C69.5788 38.5285 69.6127 38.4742 69.6534 38.4267L69.8569 38.1419C69.8908 38.0944 69.9247 38.0537 69.9518 38.0062C70.04 37.8841 70.135 37.762 70.2232 37.6467C70.2367 37.6331 70.2435 37.6196 70.2571 37.606C70.3724 37.4568 70.4877 37.3143 70.603 37.1651C70.6369 37.1244 70.6641 37.0905 70.698 37.0498C70.793 36.9345 70.8947 36.8124 70.9965 36.697C71.0236 36.6699 71.0507 36.636 71.0711 36.6089C71.1118 36.5682 71.1457 36.5207 71.1864 36.48L71.3492 36.2968C71.3899 36.2494 71.4306 36.2087 71.4713 36.168C71.5255 36.1069 71.5798 36.0526 71.6341 35.9916C71.6748 35.9441 71.7155 35.9034 71.763 35.8627L71.9257 35.6999L72.0546 35.571L72.1971 35.4286C72.292 35.3404 72.3802 35.2522 72.4752 35.164L72.5566 35.0826C72.6787 34.9741 72.8008 34.8588 72.9161 34.7571C72.9432 34.7299 72.9771 34.7096 73.0043 34.6824L73.2892 34.4382L73.4113 34.3365C73.5062 34.2619 73.5944 34.1873 73.6894 34.1127L73.7911 34.0313C73.9132 33.9363 74.0421 33.8413 74.171 33.7464L74.232 33.7057C74.3406 33.631 74.4491 33.5564 74.5508 33.4818L74.6729 33.4004C74.7679 33.3394 74.8561 33.2783 74.951 33.2173C74.9917 33.1901 75.0257 33.1698 75.0664 33.1427C75.1952 33.0613 75.3241 32.9866 75.453 32.912L97.1252 20.3971L95.694 19.5627L74.0285 32.0777C73.8997 32.1523 73.7708 32.2337 73.6419 32.3083C73.6012 32.3355 73.5673 32.3558 73.5266 32.3829C73.4316 32.444 73.3366 32.505 73.2485 32.5661L73.1264 32.6475L72.8008 32.8713L72.7397 32.912C72.6109 33.007 72.4888 33.102 72.3599 33.1969L72.2581 33.2783C72.1632 33.3529 72.075 33.4276 71.98 33.5022L71.8579 33.6039L71.573 33.8481C71.5459 33.8752 71.512 33.8956 71.4848 33.9227C71.3627 34.0313 71.2406 34.1398 71.1253 34.2483L71.0439 34.3297C70.949 34.4179 70.854 34.5061 70.7658 34.601L70.7116 34.6553L70.6234 34.7435L70.4945 34.8724L70.3317 35.0352C70.291 35.0759 70.2503 35.1233 70.2028 35.164C70.1486 35.2183 70.0943 35.2794 70.04 35.3404C69.9993 35.3811 69.9586 35.4286 69.9179 35.4693L69.7551 35.6524C69.7144 35.6931 69.6805 35.7406 69.6398 35.7813L69.6127 35.8084C69.5923 35.8288 69.5788 35.8491 69.5584 35.8695C69.4567 35.9848 69.3617 36.1001 69.26 36.2222C69.226 36.2629 69.1989 36.2968 69.165 36.3375C69.0497 36.48 68.9276 36.6292 68.8191 36.7717C68.8191 36.7717 68.8191 36.7784 68.8123 36.7784C68.8055 36.792 68.7919 36.8056 68.7851 36.8191C68.6902 36.9412 68.602 37.0565 68.5138 37.1786C68.4799 37.2193 68.446 37.2668 68.4188 37.3143L68.2154 37.5992C68.195 37.6263 68.1814 37.6535 68.1611 37.6738C68.1407 37.7009 68.1272 37.7213 68.1068 37.7484C68.0526 37.8298 67.9915 37.9112 67.9372 37.9926C67.9033 38.0469 67.8694 38.0944 67.8287 38.1486C67.7677 38.2368 67.7134 38.325 67.6524 38.4132C67.6252 38.4471 67.6049 38.4878 67.5777 38.5217C67.571 38.5353 67.5642 38.5421 67.5574 38.5556C67.5031 38.6438 67.4421 38.732 67.3878 38.827C67.3607 38.8677 67.3335 38.9151 67.3064 38.9558L67.0622 39.3628C67.0554 39.3696 67.0554 39.3764 67.0486 39.3832C66.974 39.5121 66.8994 39.6409 66.8316 39.7698C66.8045 39.8173 66.7841 39.8648 66.757 39.9055C66.7095 39.9937 66.662 40.0818 66.6077 40.1768C66.6077 40.1836 66.601 40.1904 66.601 40.1972C66.5738 40.2514 66.5467 40.2989 66.5196 40.3532C66.4789 40.4346 66.4382 40.5092 66.3975 40.5906C66.3635 40.6516 66.3364 40.7127 66.3093 40.7737C66.2686 40.8483 66.2347 40.9297 66.194 41.0044C66.1872 41.0179 66.1804 41.0247 66.1804 41.0383C66.1533 41.0925 66.1329 41.14 66.1058 41.1943C66.0719 41.2689 66.0312 41.3503 65.9973 41.4249C65.9701 41.486 65.9362 41.5538 65.9091 41.6148C65.8752 41.6895 65.8412 41.7709 65.8073 41.8455C65.8005 41.859 65.7938 41.8726 65.787 41.893C65.7531 41.9676 65.7259 42.0354 65.692 42.11C65.6717 42.1507 65.6581 42.1982 65.6377 42.2389C65.5835 42.3746 65.5292 42.5034 65.475 42.6391L61.4457 52.936C61.439 52.9427 61.439 52.9563 61.4322 52.9631C61.405 53.0309 61.3847 53.092 61.3643 53.153C61.3643 53.1598 61.3576 53.1666 61.3576 53.1734C61.3372 53.2344 61.3169 53.2955 61.3033 53.3565V53.3633C61.2897 53.4243 61.2762 53.4786 61.2626 53.5397C61.2626 53.5532 61.2558 53.5668 61.2558 53.5804V53.5871C61.2423 53.6482 61.2355 53.7025 61.2219 53.7635C61.2219 53.7771 61.2151 53.7906 61.2151 53.811C61.2151 53.8246 61.2083 53.8381 61.2083 53.8517C61.2016 53.8924 61.2016 53.9263 61.1948 53.967V53.9873C61.188 54.0416 61.188 54.1027 61.188 54.1569V54.374C61.1948 54.4283 61.1948 54.4757 61.2016 54.5232V54.5368C61.2083 54.5843 61.2151 54.625 61.2287 54.6657C61.2287 54.6792 61.2355 54.6928 61.2355 54.7064C61.2423 54.7403 61.2558 54.7742 61.2626 54.8081C61.2626 54.8217 61.2694 54.8285 61.2694 54.842C61.283 54.8827 61.2965 54.9234 61.3169 54.9641C61.3236 54.9709 61.3237 54.9777 61.3304 54.9845C61.344 55.0184 61.3576 55.0455 61.3779 55.0727C61.3847 55.0862 61.3915 55.093 61.3983 55.1066C61.4186 55.1337 61.4322 55.1608 61.4525 55.188C61.4593 55.1948 61.4593 55.2015 61.4661 55.2083C61.4932 55.2422 61.5136 55.2694 61.5407 55.2965L61.5611 55.3168C61.5814 55.3372 61.6018 55.3575 61.6289 55.3779C61.6357 55.3847 61.6425 55.3915 61.656 55.3982C61.6832 55.4186 61.7171 55.4457 61.751 55.4593L63.1822 56.2936C63.1483 56.2733 63.1212 56.2529 63.0873 56.2326C63.0805 56.2258 63.0669 56.219 63.0601 56.2122C63.0398 56.1919 63.0127 56.1715 62.9923 56.1512L62.972 56.1308C62.9448 56.1037 62.9177 56.0766 62.8973 56.0426C62.8906 56.0359 62.8906 56.0291 62.8838 56.0223C62.8634 55.9952 62.8431 55.968 62.8295 55.9409C62.8227 55.9273 62.8159 55.9206 62.8092 55.907C62.7956 55.8799 62.7753 55.8459 62.7617 55.8188C62.7549 55.812 62.7549 55.8052 62.7481 55.7985C62.7278 55.7578 62.7142 55.7171 62.7006 55.6764C62.6939 55.6628 62.6939 55.656 62.6939 55.6424C62.6803 55.6085 62.6735 55.5746 62.6667 55.5407C62.6667 55.5271 62.6599 55.5136 62.6599 55.5C62.6532 55.4593 62.6396 55.4118 62.6328 55.3711V55.3576C62.626 55.3101 62.6192 55.2558 62.6192 55.2083V54.9913C62.6192 54.937 62.6192 54.8827 62.626 54.8217V54.8013C62.6328 54.7538 62.6396 54.6996 62.6464 54.6453C62.6464 54.6318 62.6532 54.6182 62.6532 54.5978C62.6599 54.5436 62.6735 54.4825 62.6871 54.4215V54.4147C62.6871 54.4011 62.6939 54.3876 62.7006 54.374C62.7142 54.3197 62.7278 54.2587 62.7413 54.1976C62.7617 54.1366 62.7753 54.0687 62.7956 54.0077C62.7956 54.0009 62.8024 53.9941 62.8024 53.9873L62.8838 53.7635L66.9266 43.4599C66.9808 43.3242 67.0351 43.1953 67.0893 43.0597C67.1097 43.019 67.1233 42.9715 67.1436 42.9308C67.1775 42.8494 67.2114 42.7612 67.2521 42.673Z" fill="#A7CEFF"/>
<path d="M70.4199 13.3832C70.4199 13.8105 70.9354 13.8648 71.5731 13.4985L90.7355 2.43513V0.875L71.5731 11.9384C70.9422 12.3046 70.4199 12.9558 70.4199 13.3832Z" fill="white"/>
<path d="M81.8428 22.7574C81.8428 23.1848 82.3583 23.239 82.9959 22.8728L102.158 11.8094V10.2493L82.9959 21.3126C82.3651 21.6789 81.8428 22.3233 81.8428 22.7574Z" fill="white"/>
<path d="M70.9287 21.5095C70.9287 21.8893 71.39 21.9368 71.953 21.6112L88.9923 11.7756V10.3918L71.953 20.2274C71.39 20.553 70.9287 21.1296 70.9287 21.5095Z" fill="white"/>
<path d="M33.4784 73.6653L32.0472 72.831L21.4518 78.9494C21.4179 78.9697 21.3772 78.9901 21.3433 79.0037C21.3297 79.0104 21.323 79.0104 21.3094 79.0172L21.2484 79.0376C21.2348 79.0444 21.2212 79.0444 21.2077 79.0511C21.1941 79.0511 21.1873 79.0579 21.1737 79.0579C21.1602 79.0579 21.1466 79.0647 21.1263 79.0647H21.0381C21.0177 79.0647 20.9974 79.0579 20.977 79.0579C20.9702 79.0579 20.9635 79.0579 20.9635 79.0511C20.9499 79.0444 20.9363 79.0444 20.916 79.0376C20.9092 79.0376 20.9092 79.0376 20.9024 79.0308C20.8821 79.024 20.8685 79.0172 20.8481 79.0037L22.2794 79.838H22.2862L22.3269 79.8583H22.3337C22.3404 79.8583 22.3404 79.8583 22.3472 79.8651C22.354 79.8651 22.3608 79.8719 22.3676 79.8719C22.3744 79.8719 22.3811 79.8787 22.3879 79.8787C22.3947 79.8787 22.4015 79.8787 22.4015 79.8855H22.4083C22.4218 79.8855 22.4422 79.8923 22.4558 79.8923H22.5711C22.5779 79.8923 22.5846 79.8923 22.5914 79.8855C22.605 79.8855 22.6118 79.8787 22.6253 79.8787C22.6321 79.8787 22.6389 79.8787 22.6457 79.8719C22.6525 79.8719 22.6593 79.8651 22.666 79.8651L22.7271 79.8448C22.7339 79.8448 22.7406 79.838 22.7474 79.838C22.7542 79.838 22.7542 79.8312 22.761 79.8312C22.7949 79.8176 22.8288 79.7973 22.8695 79.7769L33.4784 73.6653ZM36.6733 65.5255L35.242 64.6912L24.6467 70.8096C24.6128 70.8299 24.5721 70.8503 24.5382 70.8639C24.5246 70.8706 24.5178 70.8706 24.5043 70.8774L24.4432 70.8978C24.4297 70.9046 24.4161 70.9045 24.4025 70.9113C24.389 70.9113 24.3822 70.9181 24.3686 70.9181C24.355 70.9181 24.3415 70.9249 24.3211 70.9249H24.2329C24.2126 70.9249 24.1922 70.9181 24.1719 70.9181C24.1651 70.9181 24.1583 70.9181 24.1583 70.9113C24.1448 70.9045 24.1312 70.9046 24.1109 70.8978C24.1041 70.8978 24.1041 70.8978 24.0973 70.891C24.0769 70.8842 24.0634 70.8774 24.043 70.8639L25.4743 71.6982H25.4811L25.5217 71.7185H25.5285C25.5353 71.7185 25.5353 71.7185 25.5421 71.7253C25.5489 71.7253 25.5557 71.7321 25.5624 71.7321C25.5692 71.7321 25.576 71.7389 25.5828 71.7389C25.5896 71.7389 25.5964 71.7389 25.5964 71.7457H25.6031C25.6167 71.7457 25.6371 71.7524 25.6506 71.7524H25.7659C25.7727 71.7524 25.7795 71.7524 25.7863 71.7457C25.7999 71.7457 25.8066 71.7389 25.8202 71.7389C25.827 71.7389 25.8338 71.7389 25.8406 71.7321C25.8473 71.7321 25.8541 71.7253 25.8609 71.7253L25.922 71.705C25.9287 71.705 25.9355 71.6982 25.9423 71.6982C25.9491 71.6982 25.9491 71.6914 25.9559 71.6914C25.9898 71.6778 26.0237 71.6575 26.0644 71.6371L36.6733 65.5255Z" fill="#A7CEFF"/>
<path d="M18.1959 69.8936L39.8682 57.3787L38.4776 60.9195C37.9689 62.2151 37.0396 63.3682 36.0289 63.9448L26.0712 69.6969C25.7727 69.8665 25.4946 70.2124 25.3454 70.5991C25.013 71.4402 25.4268 72.0168 26.078 71.6437L36.6733 65.5253L35.2828 69.0661C34.774 70.3617 33.8447 71.5148 32.834 72.0914L22.8763 77.8435C22.5779 78.0131 22.2998 78.359 22.1505 78.7457C21.8182 79.5868 22.2319 80.1633 22.8831 79.7903L33.4784 73.6718L32.0879 77.2127C31.5791 78.5082 30.6498 79.6614 29.6392 80.238L7.29539 93.1395C5.80309 94.001 4.86701 92.6715 5.61994 90.7587L9.66271 80.455C11.4331 75.9374 14.6823 71.9218 18.1959 69.8936Z" fill="white"/>
<path d="M9.98837 79.6615C10.0223 79.5869 10.0562 79.5055 10.0901 79.4309C10.1172 79.3698 10.1444 79.302 10.1783 79.2409C10.2122 79.1663 10.2529 79.0849 10.2868 79.0103C10.314 78.9493 10.3479 78.8882 10.375 78.8204C10.4157 78.7458 10.4496 78.6644 10.4903 78.5897C10.5175 78.5287 10.5514 78.4676 10.5785 78.4066C10.6192 78.3252 10.6599 78.2506 10.7006 78.1692C10.7277 78.1149 10.7616 78.0539 10.7888 77.9996C10.8363 77.9114 10.8905 77.8165 10.938 77.7283C10.9651 77.6808 10.9855 77.6401 11.0126 77.5926C11.0872 77.4637 11.1551 77.3349 11.2297 77.206C11.2365 77.1992 11.2365 77.1924 11.2433 77.1856L11.4874 76.7786C11.5146 76.7379 11.5417 76.6905 11.5688 76.6498C11.6231 76.5616 11.6774 76.4666 11.7384 76.3784C11.7656 76.3309 11.7995 76.2835 11.8266 76.236C11.8877 76.1478 11.9419 76.0596 12.003 75.9647C12.0369 75.9104 12.0708 75.8629 12.1115 75.8086C12.1658 75.7272 12.22 75.6458 12.2811 75.5644C12.315 75.517 12.3489 75.4627 12.3896 75.4152L12.5931 75.1303C12.627 75.0828 12.6609 75.0421 12.6881 74.9947C12.7763 74.8726 12.8712 74.7505 12.9594 74.6352C12.973 74.6216 12.9797 74.608 12.9933 74.5945C13.1086 74.4452 13.2239 74.3028 13.3393 74.1536C13.3732 74.1129 13.4003 74.0789 13.4342 74.0382C13.5292 73.9229 13.6309 73.8008 13.7327 73.6855C13.7598 73.6584 13.7869 73.6245 13.8073 73.5973C13.848 73.5566 13.8819 73.5091 13.9226 73.4684L14.0854 73.2853C14.1261 73.2378 14.1668 73.1971 14.2075 73.1564C14.2618 73.0954 14.316 73.0411 14.3703 72.9801C14.411 72.9326 14.4517 72.8919 14.4992 72.8512L14.662 72.6884L14.7909 72.5595L14.9333 72.4171C15.0283 72.3289 15.1164 72.2407 15.2114 72.1525L15.2928 72.0711C15.4149 71.9626 15.537 71.8473 15.6523 71.7455C15.6794 71.7184 15.7134 71.698 15.7405 71.6709L16.0254 71.4267L16.1475 71.325C16.2425 71.2504 16.3306 71.1757 16.4256 71.1011L16.5273 71.0197C16.6494 70.9248 16.7783 70.8298 16.9072 70.7348L16.9683 70.6941C17.0768 70.6195 17.1853 70.5449 17.2871 70.4703L17.4092 70.3889C17.5041 70.3278 17.5923 70.2668 17.6873 70.2057C17.728 70.1786 17.7619 70.1583 17.8026 70.1311C17.9315 70.0497 18.0603 69.9751 18.1892 69.9005L39.8682 57.3788L38.437 56.5444L16.7648 69.0594C16.6359 69.134 16.507 69.2154 16.3781 69.29C16.3374 69.3171 16.3035 69.3375 16.2628 69.3646C16.1678 69.4257 16.0729 69.4867 15.9847 69.5478L15.8626 69.6292L15.537 69.853L15.476 69.8937C15.3471 69.9887 15.225 70.0836 15.0961 70.1786L14.9943 70.26C14.8994 70.3346 14.8112 70.4092 14.7162 70.4839L14.5941 70.5856L14.3092 70.8298C14.2821 70.8569 14.2482 70.8773 14.2211 70.9044C14.099 71.0129 13.9769 71.1215 13.8616 71.23L13.7802 71.3114C13.6852 71.3996 13.5902 71.4878 13.5021 71.5827L13.4478 71.637L13.3596 71.7252L13.2307 71.8541L13.0679 72.0169C13.0272 72.0576 12.9865 72.105 12.939 72.1457C12.8848 72.2 12.8305 72.261 12.7763 72.3221C12.7356 72.3628 12.6949 72.4103 12.6542 72.451L12.4914 72.6341C12.4507 72.6748 12.4167 72.7223 12.376 72.763L12.3489 72.7901C12.3286 72.8105 12.315 72.8308 12.2946 72.8512C12.1929 72.9665 12.0979 73.0818 11.9962 73.2039C11.9623 73.2446 11.9351 73.2785 11.9012 73.3192C11.7859 73.4617 11.6638 73.6109 11.5553 73.7533C11.5553 73.7533 11.5553 73.7601 11.5485 73.7601C11.5417 73.7737 11.5281 73.7873 11.5214 73.8008C11.4264 73.9229 11.3382 74.0382 11.25 74.1603C11.2161 74.201 11.1822 74.2485 11.1551 74.296L10.9516 74.5809C10.9312 74.608 10.9177 74.6352 10.8973 74.6555C10.877 74.6826 10.8634 74.703 10.843 74.7301C10.7888 74.8115 10.7277 74.8929 10.6735 74.9743C10.6396 75.0286 10.6056 75.0761 10.5649 75.1303C10.5039 75.2185 10.4496 75.3067 10.3886 75.3949C10.3614 75.4288 10.3411 75.4695 10.314 75.5034C10.3072 75.517 10.3004 75.5237 10.2936 75.5373C10.2393 75.6255 10.1783 75.7137 10.124 75.8086C10.0969 75.8493 10.0698 75.8968 10.0426 75.9375L9.79844 76.3445C9.79166 76.3513 9.79166 76.3581 9.78487 76.3649C9.71026 76.4937 9.63564 76.6226 9.56781 76.7515C9.54068 76.799 9.52033 76.8465 9.4932 76.8872C9.44571 76.9753 9.39823 77.0635 9.34397 77.1585C9.34397 77.1653 9.33718 77.1721 9.33718 77.1788C9.31005 77.2331 9.28292 77.2806 9.25579 77.3349C9.21509 77.4163 9.17439 77.4909 9.13369 77.5723C9.09977 77.6333 9.07264 77.6944 9.04551 77.7554C9.00481 77.83 8.97089 77.9114 8.93019 77.986C8.92341 77.9996 8.91663 78.0064 8.91663 78.02C8.88949 78.0742 8.86914 78.1217 8.84201 78.176C8.8081 78.2506 8.7674 78.332 8.73348 78.4066C8.70635 78.4676 8.67243 78.5355 8.6453 78.5965C8.61138 78.6711 8.57747 78.7525 8.54355 78.8272C8.53677 78.8407 8.52999 78.8543 8.5232 78.8746C8.48929 78.9493 8.46215 79.0171 8.42824 79.0917C8.40789 79.1324 8.39432 79.1799 8.37397 79.2206C8.31971 79.3562 8.26544 79.4851 8.21118 79.6208L4.16841 89.9244C4.16162 89.9312 4.16162 89.9448 4.15484 89.9516C4.12771 90.0194 4.10736 90.0804 4.08701 90.1415C4.08701 90.1483 4.08022 90.1551 4.08022 90.1618C4.05987 90.2229 4.03952 90.2839 4.02596 90.345V90.3518C4.01239 90.4128 3.99883 90.4671 3.98526 90.5281C3.98526 90.5417 3.97848 90.5553 3.97848 90.5688V90.5756C3.96491 90.6367 3.95813 90.6909 3.94456 90.752C3.94456 90.7655 3.93778 90.7791 3.93778 90.7995C3.93778 90.813 3.93099 90.8266 3.93099 90.8402C3.92421 90.8809 3.92421 90.9148 3.91743 90.9555V90.9758C3.91064 91.0301 3.91064 91.0911 3.91064 91.1454V91.3625C3.91743 91.4167 3.91743 91.4642 3.92421 91.5117V91.5253C3.93099 91.5727 3.93778 91.6134 3.95134 91.6541C3.95134 91.6677 3.95813 91.6813 3.95813 91.6948C3.96491 91.7288 3.97848 91.7627 3.98526 91.7966C3.98526 91.8102 3.99204 91.8169 3.99204 91.8305C4.00561 91.8712 4.01918 91.9119 4.03952 91.9526C4.04631 91.9594 4.04631 91.9662 4.05309 91.9729C4.06666 92.0069 4.08022 92.034 4.10057 92.0611C4.10736 92.0747 4.11414 92.0815 4.12092 92.095C4.14127 92.1222 4.15484 92.1493 4.17519 92.1764C4.18197 92.1832 4.18197 92.19 4.18875 92.1968C4.21589 92.2307 4.23624 92.2578 4.26337 92.285L4.28372 92.3053C4.30407 92.3257 4.32442 92.346 4.35155 92.3664C4.35833 92.3732 4.3719 92.3799 4.37868 92.3867C4.40582 92.4071 4.43973 92.4342 4.47365 92.4478L5.9049 93.2821C5.87098 93.2618 5.84385 93.2414 5.80993 93.2211C5.80315 93.2143 5.78958 93.2075 5.7828 93.2007C5.76245 93.1804 5.73532 93.16 5.71497 93.1396L5.69462 93.1193C5.66749 93.0922 5.64035 93.065 5.62 93.0311C5.61322 93.0243 5.61322 93.0176 5.60644 93.0108C5.58609 92.9836 5.56574 92.9565 5.55217 92.9294C5.54539 92.9158 5.53861 92.909 5.53182 92.8955C5.51826 92.8683 5.49791 92.8344 5.48434 92.8073C5.47756 92.8005 5.47756 92.7937 5.47077 92.7869C5.45043 92.7462 5.43686 92.7055 5.42329 92.6648C5.41651 92.6513 5.41651 92.6445 5.41651 92.6309C5.40294 92.597 5.39616 92.5631 5.38938 92.5292C5.38938 92.5156 5.38259 92.502 5.38259 92.4885C5.37581 92.4478 5.36224 92.4003 5.35546 92.3596V92.346C5.34868 92.2985 5.34189 92.2443 5.34189 92.1968V91.9797C5.34189 91.9255 5.34189 91.8712 5.34868 91.8102V91.7898C5.35546 91.7423 5.36224 91.6881 5.36903 91.6338C5.36903 91.6202 5.37581 91.6067 5.37581 91.5863C5.38259 91.532 5.39616 91.471 5.40973 91.4099V91.4032C5.40973 91.3896 5.41651 91.376 5.42329 91.3625C5.43686 91.3082 5.45042 91.2472 5.46399 91.1861C5.48434 91.1251 5.49791 91.0572 5.51826 90.9962C5.51826 90.9894 5.52504 90.9826 5.52504 90.9758L5.60644 90.752L9.64921 80.4483C9.70347 80.3127 9.75774 80.1838 9.81201 80.0481C9.83235 80.0074 9.84592 79.9599 9.86627 79.9193C9.91375 79.8311 9.95445 79.7497 9.98837 79.6615Z" fill="#A7CEFF"/>
<path d="M43.5178 80.1364L43.4771 104.427L22.5239 92.3325L22.5646 68.042L43.5178 80.1364Z" fill="#B27A54"/>
<path d="M43.5177 80.1363H44.5623L22.5645 67.4382V68.0419L43.5177 80.1363Z" fill="#D99566"/>
<path d="M22.5644 68.042L22.5237 92.3325L1.71289 104.427L1.75359 80.1364L22.5644 68.042Z" fill="#BF835A"/>
<path d="M22.5649 68.0419V67.4382L0.709473 80.1363H1.75408L22.5649 68.0419Z" fill="#D99566"/>
<path d="M22.5237 92.3325L1.71289 104.427L22.5237 116.521L43.4769 104.427L22.5237 92.3325Z" fill="#A6714E"/>
<path d="M44.5626 80.1365L44.5219 104.427L22.6665 117.125L22.7072 92.8414L44.5626 80.1365Z" fill="#F8AB37"/>
<path d="M22.7002 92.2309L22.707 92.8414L44.5624 80.1365H43.5178L22.7002 92.2309Z" fill="#D99566"/>
<path d="M22.707 92.8414L22.6663 117.125L0.668457 104.427L0.709156 80.1365L22.707 92.8414Z" fill="#F9B953"/>
<path d="M22.7005 92.2309L1.75408 80.1365H0.709473L22.7073 92.8414L22.7005 92.2309Z" fill="#D99566"/>
<path d="M13.2103 111.665L9.29639 109.406V100.825L13.2103 103.084V111.665ZM13.2103 95.9345L9.29639 93.6757V85.095L13.2103 87.3538V95.9345Z" fill="#34005B"/>
<path d="M25.5082 114.961L23.2358 116.277V113.245L25.5082 111.929V114.961ZM23.3512 116.053L25.3997 114.873V112.146L23.3512 113.326V116.053Z" fill="#DB8918"/>
<path d="M24.3753 114.256C24.1922 114.364 24.043 114.249 24.043 114.005V113.123L24.7077 112.736V113.618C24.7077 113.862 24.5585 114.147 24.3753 114.256Z" fill="#DB8918"/>
<path d="M24.4365 115.069L24.3145 115.137V113.971L24.4365 113.896V115.069Z" fill="#DB8918"/>
<path d="M24.043 115.456V115.294L24.7077 114.914V115.077L24.043 115.456Z" fill="#DB8918"/>
<path d="M28.2353 113.381L25.9629 114.697V111.665L28.2353 110.349V113.381ZM26.0782 114.48L28.1267 113.3V110.573L26.0782 111.753V114.48Z" fill="#DB8918"/>
<path d="M27.1297 111.475L27.1229 111.386V111.366C27.1229 111.359 27.1229 111.359 27.1162 111.353H27.0958L27.089 111.359C27.089 111.366 27.0822 111.366 27.0822 111.373C27.0822 111.38 27.0755 111.386 27.0755 111.393L27.0687 111.495V111.509C26.4989 111.861 26.3768 112.587 26.3564 112.777C26.3564 112.777 26.4378 112.675 26.5667 112.614C26.6956 112.553 26.7634 112.58 26.7634 112.58C26.7634 112.58 26.8652 112.411 27.0755 112.282V113.204L27.0619 113.211V113.53C27.0619 113.591 27.0212 113.659 26.9805 113.679C26.9398 113.7 26.9127 113.679 26.9059 113.632V113.611C26.9059 113.591 26.8991 113.584 26.8855 113.584C26.8787 113.584 26.8787 113.584 26.872 113.591L26.8652 113.598L26.8584 113.605V113.659C26.8652 113.747 26.9194 113.794 26.9873 113.761C27.0687 113.72 27.1365 113.598 27.1365 113.489V113.17L27.1229 113.177V112.255C27.3332 112.139 27.435 112.194 27.435 112.194C27.435 112.194 27.5028 112.085 27.6317 111.997C27.7606 111.902 27.842 111.922 27.842 111.922C27.8216 111.76 27.6995 111.163 27.1297 111.475Z" fill="#DB8918"/>
<path d="M30.9687 111.807L28.6963 113.123V110.091L30.9687 108.775V111.807ZM28.8048 112.906L30.8533 111.726V108.999L28.8048 110.179V112.906Z" fill="#DB8918"/>
<path d="M30.4941 111.821L29.1646 112.587V112.418L30.4941 111.651V111.821ZM29.5715 112.024L29.4291 112.106V110.43L29.5715 110.349V112.024Z" fill="#DB8918"/>
<path d="M29.728 110.349L29.5041 109.969L29.2803 110.606L29.728 110.349ZM30.2231 111.651L30.0807 111.732V110.057L30.2231 109.976V111.651Z" fill="#DB8918"/>
<path d="M30.3721 109.976L30.155 109.589L29.9312 110.226L30.3721 109.976Z" fill="#DB8918"/>
<path d="M22.7073 92.8412L44.5627 80.1363L22.5649 67.4382L0.709473 80.1363L22.7073 92.8412Z" fill="#FBC977"/>
<path d="M35.1403 74.6963L13.2103 87.3537L9.29639 85.0949L31.2264 72.4375" fill="#B352FF"/>
<path d="M59.6752 88.7984L58.2439 87.964L47.6486 94.0824C47.6147 94.1028 47.574 94.1231 47.5401 94.1367C47.5265 94.1435 47.5197 94.1435 47.5062 94.1503L47.4451 94.1706C47.4316 94.1774 47.418 94.1774 47.4044 94.1842C47.3909 94.1842 47.3841 94.191 47.3705 94.191C47.3569 94.191 47.3434 94.1978 47.323 94.1978H47.2348C47.2145 94.1978 47.1941 94.191 47.1738 94.191C47.167 94.191 47.1602 94.191 47.1602 94.1842C47.1467 94.1774 47.1331 94.1774 47.1128 94.1706C47.106 94.1706 47.106 94.1706 47.0992 94.1638C47.0788 94.1571 47.0653 94.1503 47.0449 94.1367L48.4762 94.971H48.483L48.5237 94.9914H48.5304C48.5372 94.9914 48.5372 94.9914 48.544 94.9982C48.5508 94.9982 48.5576 95.005 48.5644 95.005C48.5711 95.005 48.5779 95.0117 48.5847 95.0117C48.5915 95.0117 48.5983 95.0117 48.5983 95.0185H48.6051C48.6186 95.0185 48.639 95.0253 48.6525 95.0253H48.7678C48.7746 95.0253 48.7814 95.0253 48.7882 95.0185C48.8018 95.0185 48.8085 95.0117 48.8221 95.0117C48.8289 95.0117 48.8357 95.0117 48.8425 95.005C48.8492 95.005 48.856 94.9982 48.8628 94.9982L48.9239 94.9778C48.9306 94.9778 48.9374 94.971 48.9442 94.971C48.951 94.971 48.951 94.9643 48.9578 94.9643C48.9917 94.9507 49.0256 94.9303 49.0663 94.91L59.6752 88.7984ZM62.8768 80.6585L61.4456 79.8242L50.8503 85.9426C50.8164 85.963 50.7757 85.9833 50.7418 85.9969C50.7282 86.0037 50.7214 86.0037 50.7078 86.0105L50.6468 86.0308C50.6332 86.0376 50.6197 86.0376 50.6061 86.0444C50.5925 86.0444 50.5857 86.0512 50.5722 86.0512C50.5586 86.0512 50.545 86.058 50.5247 86.058H50.4365C50.4162 86.058 50.3958 86.0512 50.3755 86.0512C50.3687 86.0512 50.3619 86.0512 50.3619 86.0444C50.3483 86.0376 50.3348 86.0376 50.3144 86.0308C50.3076 86.0308 50.3076 86.0308 50.3008 86.024C50.2805 86.0173 50.2669 86.0105 50.2466 85.9969L51.6778 86.8312H51.6846L51.7253 86.8516H51.7321C51.7389 86.8516 51.7389 86.8516 51.7457 86.8584C51.7524 86.8584 51.7592 86.8651 51.766 86.8651C51.7728 86.8651 51.7796 86.8652 51.7864 86.8719C51.7931 86.8719 51.7999 86.8719 51.7999 86.8787H51.8067C51.8203 86.8787 51.8406 86.8855 51.8542 86.8855H51.9695C51.9763 86.8855 51.9831 86.8855 51.9899 86.8787C52.0034 86.8787 52.0102 86.8719 52.0238 86.8719C52.0306 86.8719 52.0373 86.8719 52.0441 86.8651C52.0509 86.8651 52.0577 86.8584 52.0645 86.8584L52.1255 86.838C52.1323 86.838 52.1391 86.8312 52.1459 86.8312C52.1527 86.8312 52.1526 86.8244 52.1594 86.8244C52.1933 86.8109 52.2273 86.7905 52.268 86.7702L62.8768 80.6585Z" fill="#A7CEFF"/>
<path d="M44.3996 85.0272L66.0718 72.5122L64.6812 76.053C64.1725 77.3486 63.2432 78.5018 62.2325 79.0783L52.2748 84.8304C51.9764 85 51.6982 85.346 51.549 85.7326C51.2166 86.5737 51.6304 87.1503 52.2816 86.7772L62.8769 80.6588L61.4864 84.1996C60.9776 85.4952 60.0483 86.6483 59.0376 87.2249L49.0799 92.977C48.7815 93.1466 48.5034 93.4926 48.3541 93.8792C48.0218 94.7203 48.4355 95.2969 49.0867 94.9238L59.682 88.8054L58.2915 92.3462C57.7828 93.6418 56.8535 94.7949 55.8428 95.3715L33.499 108.273C32.0067 109.135 31.0706 107.805 31.8236 105.892L35.8663 95.5886C37.6367 91.071 40.8791 87.0553 44.3996 85.0272Z" fill="white"/>
<path d="M36.1919 94.7948C36.2258 94.7202 36.2598 94.6388 36.2937 94.5642C36.3208 94.5032 36.3479 94.4353 36.3819 94.3743C36.4158 94.2997 36.4565 94.2183 36.4904 94.1437C36.5175 94.0826 36.5514 94.0216 36.5786 93.9537C36.6193 93.8791 36.6532 93.7977 36.6939 93.7231C36.721 93.6621 36.7549 93.601 36.7821 93.54C36.8228 93.4586 36.8635 93.3839 36.9042 93.3025C36.9313 93.2483 36.9652 93.1872 36.9923 93.133C37.0398 93.0448 37.0941 92.9498 37.1416 92.8616C37.1687 92.8142 37.1891 92.7735 37.2162 92.726C37.2908 92.5971 37.3586 92.4682 37.4332 92.3393C37.44 92.3326 37.44 92.3258 37.4468 92.319L37.691 91.912C37.7181 91.8713 37.7453 91.8238 37.7724 91.7831C37.8267 91.6949 37.8809 91.6 37.942 91.5118C37.9691 91.4643 38.003 91.4168 38.0302 91.3693C38.0912 91.2812 38.1455 91.193 38.2065 91.098C38.2404 91.0437 38.2744 90.9963 38.3151 90.942C38.3693 90.8606 38.4236 90.7792 38.4846 90.6978C38.5186 90.6503 38.5525 90.5961 38.5932 90.5486L38.7967 90.2637C38.8306 90.2162 38.8645 90.1755 38.8916 90.128C38.9798 90.0059 39.0748 89.8838 39.163 89.7685C39.1765 89.7549 39.1833 89.7414 39.1969 89.7278C39.3122 89.5786 39.4275 89.4361 39.5428 89.2869C39.5767 89.2462 39.6039 89.2123 39.6378 89.1716C39.7327 89.0563 39.8345 88.9342 39.9362 88.8189C39.9634 88.7917 39.9905 88.7578 40.0109 88.7307C40.0516 88.69 40.0855 88.6425 40.1262 88.6018L40.289 88.4187C40.3297 88.3712 40.3704 88.3305 40.4111 88.2898C40.4653 88.2287 40.5196 88.1745 40.5739 88.1134C40.6146 88.0659 40.6553 88.0252 40.7027 87.9845L40.8655 87.8217L40.9944 87.6929L41.1369 87.5504C41.2318 87.4622 41.32 87.3741 41.415 87.2859L41.4964 87.2045C41.6185 87.0959 41.7406 86.9806 41.8559 86.8789C41.883 86.8517 41.9169 86.8314 41.9441 86.8043L42.229 86.5601L42.351 86.4583C42.446 86.3837 42.5342 86.3091 42.6292 86.2345L42.7309 86.1531C42.853 86.0581 42.9819 85.9631 43.1108 85.8682L43.1718 85.8275C43.2803 85.7529 43.3889 85.6783 43.4906 85.6036L43.6127 85.5222C43.7077 85.4612 43.7959 85.4001 43.8908 85.3391C43.9315 85.312 43.9654 85.2916 44.0061 85.2645C44.135 85.1831 44.2639 85.1085 44.3928 85.0339L66.065 72.5189L64.6338 71.6846L42.9615 84.1995C42.8327 84.2741 42.7038 84.3555 42.5749 84.4302C42.5342 84.4573 42.5003 84.4776 42.4596 84.5048C42.3646 84.5658 42.2697 84.6269 42.1815 84.6879L42.0594 84.7693L41.7338 84.9932L41.6727 85.0339C41.5439 85.1288 41.4218 85.2238 41.2929 85.3187L41.1911 85.4001C41.0962 85.4748 41.008 85.5494 40.913 85.624L40.7909 85.7257L40.506 85.9699C40.4789 85.9971 40.445 86.0174 40.4178 86.0445C40.2957 86.1531 40.1737 86.2616 40.0583 86.3701L39.9769 86.4515C39.882 86.5397 39.787 86.6279 39.6988 86.7229L39.6446 86.7771L39.5564 86.8653L39.4275 86.9942L39.2647 87.157C39.224 87.1977 39.1833 87.2452 39.1358 87.2859C39.0816 87.3401 39.0273 87.4012 38.973 87.4622C38.9323 87.5029 38.8916 87.5504 38.8509 87.5911L38.6881 87.7743C38.6474 87.815 38.6135 87.8624 38.5728 87.9031L38.5457 87.9303C38.5253 87.9506 38.5118 87.971 38.4914 87.9913C38.3897 88.1066 38.2947 88.2219 38.193 88.344C38.159 88.3847 38.1319 88.4187 38.098 88.4594C37.9827 88.6018 37.8606 88.751 37.7521 88.8935C37.7521 88.8935 37.7521 88.9003 37.7453 88.9003C37.7385 88.9138 37.7249 88.9274 37.7181 88.941C37.6232 89.0631 37.535 89.1784 37.4468 89.3005C37.4129 89.3412 37.379 89.3886 37.3519 89.4361L37.1484 89.721C37.128 89.7482 37.1144 89.7753 37.0941 89.7956C37.0737 89.8228 37.0602 89.8431 37.0398 89.8703C36.9856 89.9517 36.9245 90.0331 36.8702 90.1144C36.8363 90.1687 36.8024 90.2162 36.7617 90.2705C36.7007 90.3586 36.6464 90.4468 36.5854 90.535C36.5582 90.5689 36.5379 90.6096 36.5107 90.6435C36.504 90.6571 36.4972 90.6639 36.4904 90.6775C36.4361 90.7656 36.3751 90.8538 36.3208 90.9488C36.2937 90.9895 36.2665 91.037 36.2394 91.0777L35.9952 91.4847C35.9884 91.4914 35.9884 91.4982 35.9816 91.505C35.907 91.6339 35.8324 91.7628 35.7646 91.8916C35.7375 91.9391 35.7171 91.9866 35.69 92.0273C35.6425 92.1155 35.595 92.2037 35.5407 92.2986C35.5407 92.3054 35.534 92.3122 35.534 92.319C35.5068 92.3732 35.4797 92.4207 35.4526 92.475C35.4119 92.5564 35.3712 92.631 35.3305 92.7124C35.2965 92.7735 35.2694 92.8345 35.2423 92.8955C35.2016 92.9702 35.1677 93.0516 35.127 93.1262C35.1202 93.1397 35.1134 93.1465 35.1134 93.1601C35.0863 93.2144 35.0659 93.2618 35.0388 93.3161C35.0049 93.3907 34.9642 93.4721 34.9303 93.5467C34.9031 93.6078 34.8692 93.6756 34.8421 93.7367C34.8082 93.8113 34.7742 93.8927 34.7403 93.9673C34.7335 93.9809 34.7268 93.9944 34.72 94.0148C34.6861 94.0894 34.6589 94.1572 34.625 94.2318C34.6047 94.2725 34.5911 94.32 34.5707 94.3607C34.5165 94.4964 34.4622 94.6253 34.408 94.7609L30.3652 105.065C30.3584 105.071 30.3584 105.085 30.3516 105.092C30.3245 105.16 30.3041 105.221 30.2838 105.282C30.2838 105.288 30.277 105.295 30.277 105.302C30.2567 105.363 30.2363 105.424 30.2227 105.485V105.492C30.2092 105.553 30.1956 105.607 30.182 105.668C30.182 105.682 30.1753 105.695 30.1753 105.709V105.716C30.1617 105.777 30.1549 105.831 30.1413 105.892C30.1413 105.906 30.1346 105.919 30.1346 105.94C30.1346 105.953 30.1278 105.967 30.1278 105.98C30.121 106.021 30.121 106.055 30.1142 106.096V106.116C30.1074 106.17 30.1074 106.231 30.1074 106.286V106.503C30.1142 106.557 30.1142 106.604 30.121 106.652V106.665C30.1278 106.713 30.1346 106.754 30.1481 106.794C30.1481 106.808 30.1549 106.821 30.1549 106.835C30.1617 106.869 30.1753 106.903 30.182 106.937C30.182 106.95 30.1888 106.957 30.1888 106.971C30.2024 107.011 30.216 107.052 30.2363 107.093C30.2431 107.1 30.2431 107.106 30.2499 107.113C30.2634 107.147 30.277 107.174 30.2973 107.201C30.3041 107.215 30.3109 107.222 30.3177 107.235C30.3381 107.262 30.3516 107.289 30.372 107.317C30.3787 107.323 30.3787 107.33 30.3855 107.337C30.4127 107.371 30.433 107.398 30.4601 107.425L30.4805 107.445C30.5008 107.466 30.5212 107.486 30.5483 107.507C30.5551 107.513 30.5619 107.52 30.5755 107.527C30.6026 107.547 30.6365 107.574 30.6704 107.588L32.1017 108.422C32.0678 108.402 32.0406 108.382 32.0067 108.361C31.9999 108.354 31.9864 108.348 31.9796 108.341C31.9592 108.32 31.9321 108.3 31.9117 108.28L31.8914 108.259C31.8643 108.232 31.8371 108.205 31.8168 108.171C31.81 108.164 31.81 108.158 31.8032 108.151C31.7829 108.124 31.7625 108.097 31.749 108.07C31.7422 108.056 31.7354 108.049 31.7286 108.036C31.715 108.008 31.6947 107.975 31.6811 107.947C31.6743 107.941 31.6743 107.934 31.6676 107.927C31.6472 107.886 31.6336 107.846 31.6201 107.805C31.6133 107.791 31.6133 107.785 31.6133 107.771C31.5997 107.737 31.5929 107.703 31.5862 107.669C31.5862 107.656 31.5794 107.642 31.5794 107.629C31.5726 107.588 31.559 107.54 31.5522 107.5V107.486C31.5455 107.439 31.5387 107.384 31.5387 107.337V107.12C31.5387 107.066 31.5387 107.011 31.5455 106.95V106.93C31.5522 106.882 31.559 106.828 31.5658 106.774C31.5658 106.76 31.5726 106.747 31.5726 106.726C31.5794 106.672 31.5929 106.611 31.6065 106.55V106.543C31.6065 106.53 31.6133 106.516 31.6201 106.503C31.6336 106.448 31.6472 106.387 31.6608 106.326C31.6811 106.265 31.6947 106.197 31.715 106.136C31.715 106.13 31.7218 106.123 31.7218 106.116L31.8032 105.892L35.846 95.5885C35.9002 95.4528 35.9545 95.3239 36.0088 95.1883C36.0291 95.1476 36.0427 95.1001 36.063 95.0594C36.1173 94.9644 36.1512 94.8762 36.1919 94.7948Z" fill="#A7CEFF"/>
<path d="M39.3599 65.505C39.3599 65.9323 39.8754 65.9866 40.513 65.6203L59.6755 54.557V52.9968L40.513 64.0602C39.8822 64.4197 39.3599 65.0709 39.3599 65.505Z" fill="white"/>
<path d="M50.7891 74.8729C50.7891 75.3003 51.3046 75.3545 51.9422 74.9882L71.1047 63.9249V62.3647L51.9422 73.4281C51.3046 73.7944 50.7891 74.4456 50.7891 74.8729Z" fill="white"/>
<path d="M39.8687 73.6249C39.8687 74.0048 40.3299 74.0523 40.8929 73.7267L57.9322 63.8911V62.5073L40.8929 72.3429C40.3299 72.6685 39.8687 73.2451 39.8687 73.6249Z" fill="white"/>
<path d="M98.706 70.2805L97.2747 69.4462L86.6794 75.5646C86.6455 75.585 86.6048 75.6053 86.5709 75.6189C86.5573 75.6257 86.5505 75.6257 86.5369 75.6325L86.4759 75.6528C86.4623 75.6596 86.4488 75.6596 86.4352 75.6664C86.4216 75.6664 86.4148 75.6732 86.4013 75.6732C86.3877 75.6732 86.3741 75.6799 86.3538 75.6799H86.2656C86.2453 75.6799 86.2249 75.6732 86.2046 75.6732C86.1978 75.6732 86.191 75.6732 86.191 75.6664C86.1774 75.6596 86.1639 75.6596 86.1435 75.6528C86.1367 75.6528 86.1367 75.6528 86.13 75.646C86.1096 75.6392 86.096 75.6325 86.0757 75.6189L87.5069 76.4532H87.5137L87.5544 76.4736H87.5612C87.568 76.4736 87.568 76.4736 87.5748 76.4804C87.5815 76.4804 87.5883 76.4871 87.5951 76.4871C87.6019 76.4871 87.6087 76.4939 87.6155 76.4939C87.6223 76.4939 87.629 76.4939 87.629 76.5007H87.6358C87.6494 76.5007 87.6697 76.5075 87.6833 76.5075H87.7986C87.8054 76.5075 87.8122 76.5075 87.819 76.5007C87.8325 76.5007 87.8393 76.4939 87.8529 76.4939C87.8597 76.4939 87.8664 76.4939 87.8732 76.4871C87.88 76.4871 87.8868 76.4804 87.8936 76.4804L87.9546 76.46C87.9614 76.46 87.9682 76.4532 87.975 76.4532C87.9818 76.4532 87.9818 76.4464 87.9885 76.4464C88.0225 76.4329 88.0564 76.4125 88.0971 76.3922L98.706 70.2805ZM101.901 62.1407L100.47 61.3064L89.8743 67.4248C89.8403 67.4452 89.7996 67.4655 89.7657 67.4791C89.7522 67.4859 89.7454 67.4859 89.7318 67.4926L89.6708 67.513C89.6572 67.5198 89.6436 67.5198 89.6301 67.5266C89.6165 67.5266 89.6097 67.5333 89.5962 67.5333C89.5826 67.5333 89.569 67.5401 89.5487 67.5401H89.4605C89.4401 67.5401 89.4198 67.5333 89.3994 67.5333C89.3927 67.5333 89.3859 67.5333 89.3859 67.5266C89.3723 67.5198 89.3587 67.5198 89.3384 67.513C89.3316 67.513 89.3316 67.513 89.3248 67.5062C89.3045 67.4994 89.2909 67.4927 89.2706 67.4791L90.7018 68.3134H90.7086L90.7493 68.3338H90.7561C90.7629 68.3338 90.7629 68.3338 90.7696 68.3405C90.7764 68.3405 90.7832 68.3473 90.79 68.3473C90.7968 68.3473 90.8036 68.3541 90.8103 68.3541C90.8171 68.3541 90.8239 68.3541 90.8239 68.3609H90.8307C90.8443 68.3609 90.8646 68.3677 90.8782 68.3677H90.9935C91.0003 68.3677 91.0071 68.3677 91.0138 68.3609C91.0274 68.3609 91.0342 68.3541 91.0478 68.3541C91.0545 68.3541 91.0613 68.3541 91.0681 68.3473C91.0749 68.3473 91.0817 68.3405 91.0885 68.3405L91.1495 68.3202C91.1563 68.3202 91.1631 68.3134 91.1698 68.3134C91.1766 68.3134 91.1766 68.3066 91.1834 68.3066C91.2173 68.2931 91.2512 68.2727 91.2919 68.2524L101.901 62.1407Z" fill="#A7CEFF"/>
<path d="M83.423 66.5089L105.095 53.9939L103.705 57.5347C103.196 58.8303 102.267 59.9834 101.256 60.56L91.2983 66.3121C90.9998 66.4817 90.7217 66.8277 90.5725 67.2143C90.2401 68.0554 90.6539 68.632 91.305 68.2589L101.9 62.1405L100.51 65.6813C100.001 66.9769 99.0718 68.13 98.0611 68.7066L88.1034 74.4587C87.8049 74.6283 87.5268 74.9743 87.3776 75.3609C87.0452 76.202 87.459 76.7786 88.1102 76.4055L98.7055 70.2871L97.3149 73.8279C96.8062 75.1235 95.8769 76.2766 94.8662 76.8532L72.5224 89.7548C71.0301 90.6163 70.0941 89.2867 70.847 87.3739L74.8898 77.0703C76.6602 72.5527 79.9093 68.537 83.423 66.5089Z" fill="white"/>
<path d="M75.2223 76.2766C75.2562 76.202 75.2901 76.1206 75.324 76.0459C75.3511 75.9849 75.3783 75.9171 75.4122 75.856C75.4461 75.7814 75.4868 75.7 75.5207 75.6254C75.5478 75.5643 75.5818 75.5033 75.6089 75.4355C75.6496 75.3608 75.6835 75.2795 75.7242 75.2048C75.7513 75.1438 75.7853 75.0827 75.8124 75.0217C75.8531 74.9403 75.8938 74.8657 75.9345 74.7843C75.9616 74.73 75.9955 74.669 76.0227 74.6147C76.0702 74.5265 76.1244 74.4316 76.1719 74.3434C76.199 74.2959 76.2194 74.2552 76.2465 74.2077C76.3211 74.0788 76.389 73.95 76.4636 73.8211C76.4704 73.8143 76.4704 73.8075 76.4771 73.8007L76.7213 73.3937C76.7485 73.353 76.7756 73.3055 76.8027 73.2648C76.857 73.1767 76.9113 73.0817 76.9723 72.9935C76.9994 72.946 77.0334 72.8986 77.0605 72.8511C77.1215 72.7629 77.1758 72.6747 77.2369 72.5798C77.2708 72.5255 77.3047 72.478 77.3454 72.4237C77.3997 72.3423 77.4539 72.2609 77.515 72.1795C77.5489 72.1321 77.5828 72.0778 77.6235 72.0303L77.827 71.7454C77.8609 71.6979 77.8948 71.6572 77.922 71.6098C78.0101 71.4877 78.1051 71.3656 78.1933 71.2502C78.2069 71.2367 78.2136 71.2231 78.2272 71.2096C78.3425 71.0603 78.4578 70.9179 78.5731 70.7754C78.6071 70.7347 78.6342 70.7008 78.6681 70.6601C78.7631 70.5448 78.8648 70.4227 78.9666 70.3074C78.9937 70.2803 79.0208 70.2463 79.0412 70.2192C79.0819 70.1785 79.1158 70.131 79.1565 70.0903L79.3193 69.9072C79.36 69.8597 79.4007 69.819 79.4414 69.7783C79.4957 69.7173 79.5499 69.663 79.6042 69.6019C79.6449 69.5545 79.6856 69.5138 79.7331 69.4731L79.8959 69.3103L80.0247 69.1814L80.1672 69.0389C80.2622 68.9508 80.3503 68.8626 80.4453 68.7744L80.5267 68.693C80.6488 68.5845 80.7709 68.4691 80.8862 68.3674C80.9133 68.3403 80.9473 68.3199 80.9744 68.2928L81.2593 68.0486L81.3814 67.9468C81.4763 67.8722 81.5645 67.7976 81.6595 67.723L81.7612 67.6416C81.8833 67.5466 82.0122 67.4517 82.1411 67.3567L82.2021 67.316C82.3107 67.2414 82.4192 67.1668 82.5209 67.0922L82.643 67.0108C82.738 66.9497 82.8262 66.8887 82.9212 66.8276C82.9619 66.8005 82.9958 66.7801 83.0365 66.753C83.1654 66.6716 83.2942 66.597 83.4231 66.5224L105.095 54.0074L103.664 53.1731L81.9986 65.6745C81.8698 65.7491 81.7409 65.8305 81.612 65.9051C81.5713 65.9322 81.5374 65.9526 81.4967 65.9797C81.4017 66.0408 81.3068 66.1018 81.2186 66.1629L81.0965 66.2443L80.7709 66.4681L80.7098 66.5088C80.581 66.6038 80.4589 66.6987 80.33 66.7937L80.2282 66.8751C80.1333 66.9497 80.0451 67.0243 79.9501 67.0989L79.828 67.2007L79.5431 67.4449C79.516 67.472 79.4821 67.4924 79.455 67.5195C79.3329 67.628 79.2108 67.7366 79.0954 67.8451L79.014 67.9265C78.9191 68.0147 78.8241 68.1029 78.7359 68.1978L78.6817 68.2521L78.5935 68.3403L78.4646 68.4691L78.3018 68.6319C78.2611 68.6726 78.2204 68.7201 78.1729 68.7608C78.1187 68.8151 78.0644 68.8761 78.0101 68.9372C77.9694 68.9779 77.9287 69.0254 77.888 69.0661L77.7252 69.2492C77.6845 69.2899 77.6506 69.3374 77.6099 69.3781L77.5828 69.4052C77.5625 69.4256 77.5489 69.4459 77.5285 69.4663C77.4268 69.5816 77.3318 69.6969 77.2301 69.819C77.1962 69.8597 77.169 69.8936 77.1351 69.9343C77.0198 70.0768 76.8977 70.226 76.7892 70.3684C76.7892 70.3684 76.7892 70.3752 76.7824 70.3752C76.7756 70.3888 76.762 70.4024 76.7552 70.4159C76.6603 70.538 76.5721 70.6533 76.4839 70.7754C76.45 70.8161 76.4161 70.8636 76.389 70.9111L76.1855 71.196C76.1651 71.2231 76.1515 71.2503 76.1312 71.2706C76.1109 71.2977 76.0973 71.3181 76.0769 71.3452C76.0227 71.4266 75.9616 71.508 75.9074 71.5894C75.8734 71.6437 75.8395 71.6912 75.7988 71.7454C75.7378 71.8336 75.6835 71.9218 75.6225 72.01C75.5953 72.0439 75.575 72.0846 75.5478 72.1185C75.5411 72.1321 75.5343 72.1388 75.5275 72.1524C75.4732 72.2406 75.4122 72.3288 75.3579 72.4237C75.3308 72.4644 75.3037 72.5119 75.2765 72.5526L75.0323 72.9596C75.0255 72.9664 75.0255 72.9732 75.0188 72.98C74.9441 73.1088 74.8695 73.2377 74.8017 73.3666C74.7746 73.4141 74.7542 73.4616 74.7271 73.5023C74.6796 73.5904 74.6321 73.6786 74.5779 73.7736C74.5779 73.7804 74.5711 73.7872 74.5711 73.7939C74.5439 73.8482 74.5168 73.8957 74.4897 73.95C74.449 74.0314 74.4083 74.106 74.3676 74.1874C74.3337 74.2484 74.3065 74.3095 74.2794 74.3705C74.2387 74.4451 74.2048 74.5265 74.1641 74.6011C74.1573 74.6147 74.1505 74.6215 74.1505 74.6351C74.1234 74.6893 74.103 74.7368 74.0759 74.7911C74.042 74.8657 74.0013 74.9471 73.9674 75.0217C73.9402 75.0827 73.9063 75.1506 73.8792 75.2116C73.8453 75.2862 73.8114 75.3676 73.7774 75.4423C73.7707 75.4558 73.7639 75.4694 73.7571 75.4897C73.7232 75.5643 73.696 75.6322 73.6621 75.7068C73.6418 75.7475 73.6282 75.795 73.6079 75.8357C73.5536 75.9713 73.4993 76.1002 73.4451 76.2359L69.4023 86.5395C69.3955 86.5463 69.3955 86.5599 69.3887 86.5667C69.3616 86.6345 69.3412 86.6955 69.3209 86.7566C69.3209 86.7634 69.3141 86.7701 69.3141 86.7769C69.2938 86.838 69.2734 86.899 69.2598 86.9601V86.9669C69.2463 87.0279 69.2327 87.0822 69.2191 87.1432C69.2191 87.1568 69.2124 87.1704 69.2124 87.1839V87.1907C69.1988 87.2518 69.192 87.306 69.1784 87.3671C69.1784 87.3806 69.1717 87.3942 69.1717 87.4146C69.1717 87.4281 69.1649 87.4417 69.1649 87.4552C69.1581 87.4959 69.1581 87.5299 69.1513 87.5706V87.5909C69.1445 87.6452 69.1445 87.7062 69.1445 87.7605V87.9776C69.1513 88.0318 69.1513 88.0793 69.1581 88.1268V88.1404C69.1649 88.1878 69.1717 88.2285 69.1852 88.2692C69.1852 88.2828 69.192 88.2964 69.192 88.3099C69.1988 88.3438 69.2124 88.3778 69.2191 88.4117C69.2191 88.4252 69.2259 88.432 69.2259 88.4456C69.2395 88.4863 69.2531 88.527 69.2734 88.5677C69.2802 88.5745 69.2802 88.5813 69.287 88.588C69.3005 88.622 69.3141 88.6491 69.3345 88.6762C69.3412 88.6898 69.348 88.6966 69.3548 88.7101C69.3752 88.7373 69.3887 88.7644 69.4091 88.7915C69.4159 88.7983 69.4159 88.8051 69.4226 88.8119C69.4498 88.8458 69.4701 88.8729 69.4973 88.9001L69.5176 88.9204C69.538 88.9408 69.5583 88.9611 69.5854 88.9815C69.5922 88.9882 69.6058 88.995 69.6126 89.0018C69.6397 89.0222 69.6736 89.0493 69.7075 89.0629L71.1388 89.8972C71.1049 89.8768 71.0777 89.8565 71.0438 89.8361C71.037 89.8294 71.0235 89.8226 71.0167 89.8158C70.9963 89.7954 70.9692 89.7751 70.9489 89.7547L70.9285 89.7344C70.9014 89.7073 70.8742 89.6801 70.8539 89.6462C70.8471 89.6394 70.8471 89.6326 70.8403 89.6259C70.82 89.5987 70.7996 89.5716 70.7861 89.5445C70.7793 89.5309 70.7725 89.5241 70.7657 89.5105C70.7521 89.4834 70.7318 89.4495 70.7182 89.4224C70.7114 89.4156 70.7114 89.4088 70.7047 89.402C70.6843 89.3613 70.6707 89.3206 70.6572 89.2799C70.6504 89.2664 70.6504 89.2596 70.6504 89.246C70.6368 89.2121 70.63 89.1782 70.6233 89.1443C70.6233 89.1307 70.6165 89.1171 70.6165 89.1036C70.6097 89.0629 70.5961 89.0154 70.5894 88.9747V88.9611C70.5826 88.9136 70.5758 88.8594 70.5758 88.8119V88.5948C70.5758 88.5406 70.5758 88.4863 70.5826 88.4252V88.4049C70.5893 88.3574 70.5961 88.3031 70.6029 88.2489C70.6029 88.2353 70.6097 88.2217 70.6097 88.2014C70.6165 88.1471 70.63 88.0861 70.6436 88.025V88.0182C70.6436 88.0047 70.6504 87.9911 70.6572 87.9776C70.6707 87.9233 70.6843 87.8622 70.6979 87.8012C70.7182 87.7401 70.7318 87.6723 70.7521 87.6113C70.7521 87.6045 70.7589 87.5977 70.7589 87.5909L70.8403 87.3671L74.8831 77.0634C74.9374 76.9278 74.9916 76.7989 75.0459 76.6632C75.0662 76.6225 75.0798 76.575 75.1002 76.5343C75.1476 76.4462 75.1816 76.3648 75.2223 76.2766Z" fill="#A7CEFF"/>
<path d="M108.744 76.7516L108.704 101.042L87.7573 88.941L87.798 64.6572L108.744 76.7516Z" fill="#B27A54"/>
<path d="M108.745 76.7516H109.796L87.7915 64.0535L87.7983 64.6572L108.745 76.7516Z" fill="#D99566"/>
<path d="M87.7983 64.6572L87.7576 88.941L66.9468 101.042L66.9807 76.7516L87.7983 64.6572Z" fill="#BF835A"/>
<path d="M87.7982 64.6572L87.7914 64.0535L65.936 76.7516H66.9806L87.7982 64.6572Z" fill="#D99566"/>
<path d="M87.7576 88.9412L66.9468 101.042L87.7576 113.137L108.704 101.042L87.7576 88.9412Z" fill="#A6714E"/>
<path d="M109.796 76.7517L109.755 101.042L87.8999 113.74L87.9406 89.4566L109.796 76.7517Z" fill="#F8AB37"/>
<path d="M87.9341 88.8461L87.9409 89.4566L109.796 76.7517H108.745L87.9341 88.8461Z" fill="#D99566"/>
<path d="M87.9409 89.4566L87.9002 113.74L65.9023 101.042L65.9363 76.7517L87.9409 89.4566Z" fill="#F9B953"/>
<path d="M87.9339 88.8461L66.9806 76.7517H65.936L87.9406 89.4566L87.9339 88.8461Z" fill="#D99566"/>
<path d="M78.4442 108.28L74.5303 106.021V97.4401L78.4442 99.6989V108.28ZM78.4442 92.5495L74.5303 90.2907V81.71L78.4442 83.9688V92.5495Z" fill="#34005B"/>
<path d="M90.7421 111.576L88.4697 112.892V109.86L90.7421 108.544V111.576ZM88.5783 112.668L90.6268 111.488V108.761L88.5783 109.942V112.668Z" fill="#DB8918"/>
<path d="M89.6029 110.871C89.4197 110.98 89.2705 110.864 89.2705 110.62V109.738L89.9353 109.352V110.233C89.9353 110.478 89.786 110.762 89.6029 110.871Z" fill="#DB8918"/>
<path d="M89.6636 111.685L89.5415 111.753V110.586L89.6636 110.511V111.685Z" fill="#DB8918"/>
<path d="M89.2705 112.071V111.909L89.9353 111.529V111.692L89.2705 112.071Z" fill="#DB8918"/>
<path d="M93.4691 109.996L91.1968 111.312V108.28L93.4691 106.964V109.996ZM91.3053 111.095L93.3538 109.915V107.188L91.3053 108.368V111.095Z" fill="#DB8918"/>
<path d="M92.3568 108.09L92.35 108.002V107.981C92.35 107.975 92.35 107.975 92.3432 107.968H92.3229L92.3161 107.975C92.3161 107.981 92.3093 107.981 92.3093 107.988C92.3093 107.995 92.3025 108.002 92.3025 108.008L92.2957 108.11V108.124C91.7259 108.477 91.6038 109.202 91.5835 109.392C91.5835 109.392 91.6649 109.29 91.7938 109.229C91.9227 109.168 91.9905 109.196 91.9905 109.196C91.9905 109.196 92.0922 109.026 92.3025 108.897V109.82L92.2889 109.826V110.145C92.2889 110.206 92.2482 110.274 92.2075 110.294C92.1668 110.315 92.1397 110.294 92.1329 110.247V110.227C92.1329 110.206 92.1261 110.199 92.1126 110.199C92.1058 110.199 92.1058 110.199 92.099 110.206L92.0922 110.213L92.0854 110.22V110.274C92.0922 110.362 92.1465 110.41 92.2143 110.376C92.2957 110.335 92.3636 110.213 92.3636 110.104V109.786L92.35 109.792V108.87C92.5603 108.755 92.662 108.809 92.662 108.809C92.662 108.809 92.7298 108.7 92.8587 108.612C92.9876 108.517 93.069 108.538 93.069 108.538C93.0487 108.375 92.9333 107.778 92.3568 108.09Z" fill="#DB8918"/>
<path d="M96.1962 108.422L93.9238 109.738V106.706L96.1962 105.39V108.422ZM94.0391 109.521L96.0877 108.341V105.607L94.0391 106.787V109.521Z" fill="#DB8918"/>
<path d="M95.7211 108.436L94.3916 109.202V109.033L95.7211 108.266V108.436ZM94.8054 108.639L94.6629 108.721V107.045L94.8054 106.964V108.639Z" fill="#DB8918"/>
<path d="M94.9546 106.964L94.7307 106.584L94.5137 107.222L94.9546 106.964ZM95.4565 108.266L95.3141 108.348V106.672L95.4565 106.591V108.266Z" fill="#DB8918"/>
<path d="M95.6059 106.591L95.3821 106.204L95.165 106.842L95.6059 106.591Z" fill="#DB8918"/>
<path d="M87.9406 89.4565L109.796 76.7516L87.7914 64.0535L65.936 76.7516L87.9406 89.4565Z" fill="#FBC977"/>
<path d="M100.367 71.3113L78.4442 83.9687L74.5303 81.7099L96.4603 69.0525" fill="#B352FF"/>
<path d="M124.909 85.4136L123.478 84.5793L112.883 90.6977C112.849 90.718 112.808 90.7384 112.774 90.7519C112.76 90.7587 112.754 90.7587 112.74 90.7655L112.679 90.7859C112.665 90.7926 112.652 90.7926 112.638 90.7994C112.625 90.7994 112.618 90.8062 112.604 90.8062C112.591 90.8062 112.577 90.813 112.557 90.813H112.469C112.448 90.813 112.428 90.8062 112.408 90.8062C112.401 90.8062 112.394 90.8062 112.394 90.7994C112.381 90.7926 112.367 90.7926 112.347 90.7859C112.34 90.7859 112.34 90.7859 112.333 90.7791C112.313 90.7723 112.299 90.7655 112.279 90.7519L113.71 91.5863H113.717L113.758 91.6066H113.764C113.771 91.6066 113.771 91.6066 113.778 91.6134C113.785 91.6134 113.791 91.6202 113.798 91.6202C113.805 91.6202 113.812 91.627 113.819 91.627C113.825 91.627 113.832 91.627 113.832 91.6338H113.839C113.853 91.6338 113.873 91.6405 113.886 91.6405H114.002C114.009 91.6405 114.015 91.6405 114.022 91.6338C114.036 91.6338 114.042 91.627 114.056 91.627C114.063 91.627 114.07 91.627 114.076 91.6202C114.083 91.6202 114.09 91.6134 114.097 91.6134L114.158 91.5931C114.165 91.5931 114.171 91.5863 114.178 91.5863C114.185 91.5863 114.185 91.5795 114.192 91.5795C114.226 91.5659 114.259 91.5456 114.3 91.5252L124.909 85.4136ZM128.104 77.2738L126.673 76.4395L116.077 82.5579C116.043 82.5782 116.003 82.5986 115.969 82.6121C115.955 82.6189 115.949 82.6189 115.935 82.6257L115.874 82.6461C115.86 82.6528 115.847 82.6528 115.833 82.6596C115.82 82.6596 115.813 82.6664 115.799 82.6664C115.786 82.6664 115.772 82.6732 115.752 82.6732H115.664C115.643 82.6732 115.623 82.6664 115.603 82.6664C115.596 82.6664 115.589 82.6664 115.589 82.6596C115.575 82.6528 115.562 82.6528 115.542 82.6461C115.535 82.6461 115.535 82.6461 115.528 82.6393C115.508 82.6325 115.494 82.6257 115.474 82.6121L116.905 83.4465H116.912L116.952 83.4668H116.959C116.966 83.4668 116.966 83.4668 116.973 83.4736C116.98 83.4736 116.986 83.4804 116.993 83.4804C117 83.4804 117.007 83.4872 117.013 83.4872C117.02 83.4872 117.027 83.4872 117.027 83.494H117.034C117.047 83.494 117.068 83.5007 117.081 83.5007H117.197C117.203 83.5007 117.21 83.5007 117.217 83.494C117.231 83.494 117.237 83.4872 117.251 83.4872C117.258 83.4872 117.264 83.4872 117.271 83.4804C117.278 83.4804 117.285 83.4736 117.292 83.4736L117.353 83.4533C117.359 83.4533 117.366 83.4465 117.373 83.4465C117.38 83.4465 117.38 83.4397 117.387 83.4397C117.42 83.4261 117.454 83.4058 117.495 83.3854L128.104 77.2738Z" fill="#A7CEFF"/>
<path d="M109.627 81.6424L131.299 69.1274L129.908 72.6683C129.4 73.9638 128.47 75.117 127.46 75.6936L117.502 81.4457C117.203 81.6153 116.925 81.9612 116.776 82.3478C116.444 83.189 116.857 83.7655 117.509 83.3925L128.104 77.274L126.713 80.8148C126.205 82.1104 125.275 83.2636 124.265 83.8401L114.307 89.5923C114.009 89.7619 113.73 90.1078 113.581 90.4944C113.249 91.3355 113.663 91.9121 114.314 91.539L124.909 85.4206L123.519 88.9614C123.01 90.257 122.081 91.4102 121.07 91.9867L98.726 104.888C97.2338 105.75 96.2977 104.42 97.0506 102.507L101.093 92.2038C102.864 87.6862 106.113 83.6706 109.627 81.6424Z" fill="white"/>
<path d="M101.426 91.4099C101.46 91.3353 101.494 91.2539 101.528 91.1793C101.555 91.1182 101.582 91.0504 101.616 90.9893C101.65 90.9147 101.69 90.8333 101.724 90.7587C101.751 90.6977 101.785 90.6366 101.812 90.5688C101.853 90.4942 101.887 90.4128 101.928 90.3381C101.955 90.2771 101.989 90.216 102.016 90.155C102.057 90.0736 102.097 89.999 102.138 89.9176C102.165 89.8633 102.199 89.8023 102.226 89.748C102.274 89.6598 102.328 89.5649 102.375 89.4767C102.403 89.4292 102.423 89.3885 102.45 89.341C102.525 89.2121 102.593 89.0833 102.667 88.9544C102.674 88.9476 102.674 88.9408 102.681 88.934L102.925 88.527C102.952 88.4863 102.979 88.4389 103.006 88.3982C103.061 88.31 103.115 88.215 103.176 88.1268C103.203 88.0794 103.237 88.0319 103.264 87.9844C103.325 87.8962 103.379 87.808 103.44 87.7131C103.474 87.6588 103.508 87.6113 103.549 87.557C103.603 87.4756 103.657 87.3943 103.719 87.3129C103.752 87.2654 103.786 87.2111 103.827 87.1636L104.031 86.8787C104.064 86.8312 104.098 86.7905 104.126 86.7431C104.214 86.621 104.309 86.4989 104.397 86.3836C104.41 86.37 104.417 86.3564 104.431 86.3429C104.546 86.1936 104.661 86.0512 104.777 85.9087C104.811 85.868 104.838 85.8341 104.872 85.7934C104.967 85.6781 105.068 85.556 105.17 85.4407C105.197 85.4136 105.224 85.3796 105.245 85.3525C105.285 85.3118 105.319 85.2643 105.36 85.2236L105.523 85.0405C105.564 84.993 105.604 84.9523 105.645 84.9116C105.699 84.8506 105.753 84.7963 105.808 84.7352C105.848 84.6878 105.889 84.6471 105.937 84.6064L106.099 84.4436L106.228 84.3147L106.371 84.1722C106.466 84.0841 106.554 83.9959 106.649 83.9077L106.73 83.8263C106.852 83.7178 106.974 83.6025 107.09 83.5007C107.117 83.4736 107.151 83.4532 107.178 83.4261L107.463 83.1819L107.585 83.0802C107.68 83.0055 107.768 82.9309 107.863 82.8563L107.965 82.7749C108.087 82.6799 108.216 82.585 108.345 82.49L108.406 82.4493C108.514 82.3747 108.623 82.3001 108.725 82.2255L108.847 82.1441C108.942 82.083 109.03 82.022 109.125 81.9609C109.165 81.9338 109.199 81.9134 109.24 81.8863C109.369 81.8049 109.498 81.7303 109.627 81.6557L131.299 69.1407L129.868 68.3064L108.195 80.8214C108.067 80.896 107.938 80.9774 107.809 81.052C107.768 81.0791 107.734 81.0995 107.693 81.1266C107.599 81.1876 107.504 81.2487 107.415 81.3097L107.293 81.3911L106.968 81.615L106.907 81.6557C106.778 81.7506 106.656 81.8456 106.527 81.9406L106.425 82.022C106.33 82.0966 106.242 82.1712 106.147 82.2458L106.025 82.3476L105.74 82.5918C105.713 82.6189 105.679 82.6392 105.652 82.6664C105.53 82.7749 105.408 82.8834 105.292 82.992L105.211 83.0734C105.116 83.1616 105.021 83.2497 104.933 83.3447L104.878 83.399L104.79 83.4871L104.661 83.616L104.499 83.7788C104.458 83.8195 104.417 83.867 104.37 83.9077C104.315 83.962 104.261 84.023 104.207 84.0841C104.166 84.1248 104.126 84.1722 104.085 84.2129L103.922 84.3961C103.881 84.4368 103.847 84.4843 103.807 84.525L103.78 84.5521C103.759 84.5724 103.746 84.5928 103.725 84.6131C103.624 84.7285 103.529 84.8438 103.427 84.9659C103.393 85.0066 103.366 85.0405 103.332 85.0812C103.217 85.2236 103.094 85.3729 102.986 85.5153C102.986 85.5153 102.986 85.5221 102.979 85.5221C102.972 85.5357 102.959 85.5492 102.952 85.5628C102.857 85.6849 102.769 85.8002 102.681 85.9223C102.647 85.963 102.613 86.0105 102.586 86.058L102.382 86.3429C102.362 86.37 102.348 86.3971 102.328 86.4175C102.308 86.4446 102.294 86.4649 102.274 86.4921C102.219 86.5735 102.158 86.6549 102.104 86.7363C102.07 86.7905 102.036 86.838 101.996 86.8923C101.935 86.9805 101.88 87.0687 101.819 87.1568C101.792 87.1908 101.772 87.2314 101.745 87.2654C101.738 87.2789 101.731 87.2857 101.724 87.2993C101.67 87.3875 101.609 87.4756 101.555 87.5706C101.528 87.6113 101.5 87.6588 101.473 87.6995L101.229 88.1065C101.222 88.1133 101.222 88.1201 101.216 88.1268C101.141 88.2557 101.066 88.3846 100.998 88.5135C100.971 88.561 100.951 88.6084 100.924 88.6491C100.876 88.7373 100.829 88.8255 100.775 88.9205C100.775 88.9272 100.768 88.934 100.768 88.9408C100.741 88.9951 100.714 89.0426 100.686 89.0968C100.646 89.1782 100.605 89.2528 100.564 89.3342C100.53 89.3953 100.503 89.4563 100.476 89.5174C100.435 89.592 100.402 89.6734 100.361 89.748C100.354 89.7616 100.347 89.7684 100.347 89.7819C100.32 89.8362 100.3 89.8837 100.273 89.9379C100.239 90.0126 100.198 90.094 100.164 90.1686C100.137 90.2296 100.103 90.2974 100.076 90.3585C100.042 90.4331 100.008 90.5145 99.9742 90.5891C99.9674 90.6027 99.9606 90.6163 99.9539 90.6366C99.92 90.7112 99.8928 90.7791 99.8589 90.8537C99.8386 90.8944 99.825 90.9418 99.8046 90.9825C99.7504 91.1182 99.6961 91.2471 99.6418 91.3828L95.5991 101.686C95.5923 101.693 95.5923 101.707 95.5855 101.714C95.5584 101.781 95.538 101.842 95.5177 101.903C95.5177 101.91 95.5109 101.917 95.5109 101.924C95.4905 101.985 95.4702 102.046 95.4566 102.107V102.114C95.4431 102.175 95.4295 102.229 95.4159 102.29C95.4159 102.304 95.4091 102.317 95.4091 102.331V102.338C95.3956 102.399 95.3888 102.453 95.3752 102.514C95.3752 102.528 95.3684 102.541 95.3684 102.561C95.3684 102.575 95.3617 102.589 95.3617 102.602C95.3549 102.643 95.3549 102.677 95.3481 102.717V102.738C95.3413 102.792 95.3413 102.853 95.3413 102.907V103.124C95.3481 103.179 95.3481 103.226 95.3549 103.274V103.287C95.3617 103.335 95.3684 103.375 95.382 103.416C95.382 103.43 95.3888 103.443 95.3888 103.457C95.3956 103.491 95.4091 103.525 95.4159 103.559C95.4159 103.572 95.4227 103.579 95.4227 103.592C95.4363 103.633 95.4498 103.674 95.4702 103.715C95.477 103.721 95.477 103.728 95.4838 103.735C95.4973 103.769 95.5109 103.796 95.5312 103.823C95.538 103.837 95.5448 103.843 95.5516 103.857C95.5719 103.884 95.5855 103.911 95.6059 103.938C95.6126 103.945 95.6126 103.952 95.6194 103.959C95.6466 103.993 95.6669 104.02 95.694 104.047L95.7144 104.067C95.7347 104.088 95.7551 104.108 95.7822 104.128C95.789 104.135 95.7958 104.142 95.8093 104.149C95.8365 104.169 95.8704 104.196 95.9043 104.21L97.3356 105.044C97.3016 105.024 97.2745 105.003 97.2406 104.983C97.2338 104.976 97.2203 104.969 97.2135 104.963C97.1931 104.942 97.166 104.922 97.1456 104.902L97.1253 104.881C97.0982 104.854 97.071 104.827 97.0507 104.793C97.0439 104.786 97.0439 104.78 97.0371 104.773C97.0168 104.746 96.9964 104.718 96.9828 104.691C96.9761 104.678 96.9693 104.671 96.9625 104.657C96.9489 104.63 96.9286 104.596 96.915 104.569C96.9082 104.562 96.9082 104.556 96.9014 104.549C96.8811 104.508 96.8675 104.467 96.854 104.427C96.8472 104.413 96.8472 104.406 96.8472 104.393C96.8336 104.359 96.8268 104.325 96.82 104.291C96.82 104.278 96.8133 104.264 96.8133 104.25C96.8065 104.21 96.7929 104.162 96.7861 104.122V104.108C96.7793 104.061 96.7726 104.006 96.7726 103.959V103.742C96.7726 103.687 96.7726 103.633 96.7793 103.572V103.552C96.7861 103.504 96.7929 103.45 96.7997 103.396C96.7997 103.382 96.8065 103.369 96.8065 103.348C96.8133 103.294 96.8268 103.233 96.8404 103.172V103.165C96.8404 103.152 96.8472 103.138 96.854 103.124C96.8675 103.07 96.8811 103.009 96.8947 102.948C96.915 102.887 96.9286 102.819 96.9489 102.758C96.9489 102.751 96.9557 102.745 96.9557 102.738L97.0371 102.514L101.08 92.2103C101.134 92.0746 101.188 91.9458 101.243 91.8101C101.263 91.7694 101.277 91.7219 101.297 91.6812C101.344 91.5795 101.385 91.4913 101.426 91.4099Z" fill="#A7CEFF"/>
<path d="M104.593 62.12C104.593 62.5473 105.109 62.6016 105.746 62.2353L124.909 51.1719V49.6118L105.746 60.6752C105.109 61.0347 104.593 61.6859 104.593 62.12Z" fill="white"/>
<path d="M116.016 71.4877C116.016 71.915 116.532 71.9693 117.169 71.603L136.332 60.5396V58.9795L117.169 70.0429C116.532 70.4091 116.016 71.0603 116.016 71.4877Z" fill="white"/>
<path d="M105.102 70.2397C105.102 70.6195 105.563 70.667 106.126 70.3414L123.166 60.5058V59.1221L106.126 68.9577C105.563 69.2833 105.102 69.8598 105.102 70.2397Z" fill="white"/>
</svg>
