<svg width="72" height="72" viewBox="0 0 72 72" fill="none" xmlns="http://www.w3.org/2000/svg">
<mask id="mask0" style="mask-type:alpha" maskUnits="userSpaceOnUse" x="0" y="0" width="72" height="72">
<circle cx="36" cy="36" r="36" fill="#FFECEE"/>
</mask>
<g mask="url(#mask0)">
<circle cx="36" cy="36" r="36" fill="#D3F8D3"/>
<path d="M52.7429 22.3592L46.5909 27.9323V26.0779C46.5909 20.5132 42.0718 16 36.5 16C30.9281 16 26.4091 20.5132 26.4091 26.0779V32.7966H21.3636V50.7806L18 53.826L20.2637 56.3118L55 24.8451L52.7429 22.3592ZM24.7273 47.7339V36.1559H37.5511L24.7273 47.7339ZM43.2272 30.9792L41.2191 32.7966H29.7727V26.0779C29.7727 22.3743 32.7916 19.3593 36.5 19.3593C40.2084 19.3593 43.2272 22.3743 43.2272 26.0779V30.9792ZM51.6363 32.7966V56.3118H24.0697L27.7764 52.9524H48.2726V36.1559H46.2948L49.9798 32.7966H51.6363Z" fill="#61AD6C"/>
</g>
</svg>
