<svg width="72" height="72" viewBox="0 0 72 72" fill="none" xmlns="http://www.w3.org/2000/svg">
<path d="M36 72C55.8822 72 72 55.8822 72 36C72 16.1177 55.8822 0 36 0C16.1177 0 0 16.1177 0 36C0 55.8822 16.1177 72 36 72Z" fill="#B7E2FC"/>
<rect x="26" y="25" width="23" height="23" fill="white" fill-opacity="0.9"/>
<path d="M57.7934 24.761C57.7934 24.2623 57.5458 24.013 57.0608 23.774L36.2399 12.1792C36.2399 11.9403 35.755 11.9403 35.2701 12.1792L14.6968 24.013C14.4492 24.013 14.2119 24.5117 14.2119 24.761C13.7167 28.9169 12.2516 53.1143 35.5074 61H36.2399C59.7537 53.1143 58.2783 28.9481 57.7934 24.761ZM47.2591 33.6338L35.2701 45.7169C35.0485 45.9511 34.7819 46.1375 34.4866 46.2649C34.1914 46.3922 33.8735 46.4579 33.5522 46.4579C33.231 46.4579 32.9131 46.3922 32.6178 46.2649C32.3225 46.1375 32.056 45.9511 31.8343 45.7169L27.1811 41.0312C26.9562 40.804 26.7779 40.5344 26.6564 40.2379C26.535 39.9413 26.4727 39.6236 26.4732 39.3028C26.4742 38.655 26.7307 38.034 27.1863 37.5766C27.6419 37.1192 28.2593 36.8628 28.9026 36.8638C29.546 36.8647 30.1626 37.123 30.6169 37.5818L33.578 40.2935L43.8956 29.9039C44.1163 29.67 44.382 29.4838 44.6764 29.3565C44.9708 29.2293 45.2879 29.1636 45.6083 29.1636C45.9287 29.1636 46.2458 29.2293 46.5402 29.3565C46.8347 29.4838 47.1003 29.67 47.321 29.9039C47.7938 30.412 48.0517 31.0853 48.0401 31.7815C48.0285 32.4776 47.7485 33.1419 47.2591 33.6338V33.6338Z" fill="#3BAAF7"/>
</svg>
