<svg width="238" height="35" viewBox="0 0 238 35" fill="none" xmlns="http://www.w3.org/2000/svg">
<path d="M3.48461 18.7506C3.33742 18.7486 3.15344 18.7462 2.93266 18.7433C2.7122 18.7158 2.4677 18.6513 2.19915 18.5496C1.83119 18.5447 1.53778 18.4672 1.31895 18.3171C1.12497 18.1428 0.980053 17.9691 0.884198 17.7961C0.619219 17.4246 0.635214 17.1426 0.932183 16.9503C1.25401 16.7337 1.86939 16.5824 2.77835 16.4962C3.615 16.311 4.43858 16.187 5.24908 16.1241C6.05958 16.0612 6.95546 16.0362 7.93671 16.0492C8.57452 16.0576 9.08886 16.1258 9.47974 16.2536C9.89515 16.3818 10.236 16.5826 10.5023 16.856C10.8654 17.2288 10.946 17.6224 10.7443 18.0369C10.5428 18.4268 10.1607 18.5689 9.59774 18.4634C9.4257 18.4856 9.05741 18.5053 8.49286 18.5224C7.95285 18.5398 7.46174 18.5701 7.01953 18.6133C6.74937 18.6343 6.27052 18.6647 5.583 18.7047C4.89548 18.7447 4.19601 18.76 3.48461 18.7506Z" fill="#E1FA7F"/>
<path d="M21.1946 27.523C21.0933 27.7671 20.7605 27.8853 20.1962 27.8779C19.632 27.8704 19.1435 27.7045 18.7307 27.3801C18.4402 27.0818 18.247 26.8462 18.1512 26.6731C18.0795 26.525 18.1322 26.2558 18.3091 25.8656C18.4857 25.4999 18.7888 24.8414 19.2185 23.8902C19.3244 23.3028 19.5039 22.7163 19.757 22.1308C20.0104 21.5207 20.2001 21.0939 20.326 20.8502C20.4286 20.508 20.6323 19.9464 20.9371 19.1653C21.2667 18.36 21.6342 17.4693 22.0397 16.4933C22.4697 15.5175 22.8744 14.6028 23.2537 13.7491C23.6333 12.8708 23.9119 12.212 24.0895 11.7727C24.5195 10.797 24.9624 9.77236 25.4182 8.69883C25.874 7.62529 26.4931 6.27176 27.2753 4.63822C27.3766 4.39421 27.3432 4.13614 27.1751 3.86403C27.0069 3.59192 26.7143 3.4531 26.2973 3.44759C26.0556 3.1745 25.9244 2.89061 25.9037 2.59591C25.8834 2.27668 26.009 2.05752 26.2805 1.93844L29.6808 0.842487C30.8374 0.587886 32.0158 0.529859 33.2162 0.668405C34.4415 0.782745 35.5901 1.12916 36.662 1.70764C37.8304 2.41008 38.679 3.1819 39.2076 4.02309C39.7363 4.86429 40.0195 5.71451 40.0572 6.57375C40.1198 7.40878 40.0116 8.16795 39.7327 8.85126C39.5296 9.36382 39.1419 9.92301 38.5696 10.5288C38.0218 11.135 37.3759 11.7398 36.6318 12.3434C35.9123 12.9472 35.1566 13.5016 34.3648 14.0064C33.5979 14.4869 32.8815 14.8578 32.2155 15.1188C31.5984 15.4051 30.9075 15.7027 30.1428 16.0115C29.3784 16.2958 28.6391 16.5437 27.9247 16.7551C27.5309 16.848 27.0642 16.8909 26.5245 16.8838C25.9848 16.8766 25.5807 16.8222 25.3122 16.7205L24.6711 17.8898C24.4141 18.7696 23.9674 20.0764 23.3311 21.81C22.7194 23.5439 22.0072 25.4483 21.1946 27.523ZM35.7937 28.4153C35.5965 28.4863 35.265 28.5065 34.7992 28.4758C34.358 28.4454 33.8577 28.2425 33.2983 27.8671C32.2274 27.215 31.1582 26.428 30.0909 25.5061C29.0235 24.5841 27.8254 23.3415 26.4966 21.7782C25.9896 21.1581 25.6052 20.5397 25.3434 19.9228C25.1062 19.3063 24.7976 18.5294 24.4174 17.592L23.9285 15.5981L25.3389 14.6967L26.9405 16.0428C27.3216 16.9066 27.7646 17.7344 28.2694 18.5262C28.7987 19.3183 29.3291 20.0246 29.8607 20.645C30.2954 21.166 30.8882 21.7995 31.6389 22.5455C32.39 23.2669 33.1904 23.9645 34.0403 24.6382C34.8901 25.3119 35.6562 25.825 36.3385 26.1775C36.4841 26.3021 36.5178 26.5356 36.4397 26.8781C36.3858 27.2454 36.2831 27.5876 36.1317 27.9045C36.0048 28.2218 35.8922 28.3921 35.7937 28.4153ZM26.7116 13.8684C27.2765 13.8268 27.8917 13.6877 28.5573 13.4511C29.2477 13.1904 29.9753 12.9056 30.74 12.5967C31.4559 12.2627 32.1599 11.904 32.852 11.5205C33.5689 11.1129 34.2127 10.6675 34.7834 10.1844C35.3786 9.70151 35.8394 9.18009 36.1658 8.62009C36.5167 8.06041 36.6718 7.46134 36.6312 6.82288C36.6354 6.50398 36.542 6.14698 36.3509 5.75189C36.1599 5.35679 35.907 4.99768 35.5923 4.67456C35.3021 4.35176 34.9983 4.1392 34.6806 4.03686C33.7026 3.77857 32.9564 3.62149 32.4419 3.56562C31.9274 3.50975 31.5462 3.57832 31.2983 3.77132C31.0749 3.96465 30.8986 4.30582 30.7695 4.79482C30.7685 4.86842 30.6673 5.10017 30.4659 5.49007C30.2644 5.87997 30.0125 6.37962 29.71 6.98901C29.4324 7.57419 29.1541 8.20843 28.8752 8.89174C28.1446 10.3297 27.6031 11.3898 27.2506 12.0721C26.9229 12.7303 26.7208 13.1692 26.6443 13.389C26.5923 13.6092 26.6148 13.769 26.7116 13.8684Z" fill="#E1FA7F"/>
<path d="M38.4161 24.7696C38.3206 24.5721 38.1024 24.3729 37.7616 24.1721C37.4452 23.9717 37.2877 23.8224 37.289 23.7243C37.2903 23.6261 37.2309 23.4781 37.1109 23.2803C37.0157 23.0582 36.9197 22.8974 36.8228 22.798C36.7021 22.6492 36.7436 22.294 36.9473 21.7324C37.1514 21.1462 37.4551 20.4387 37.8587 19.6098C38.2622 18.781 38.7027 17.9403 39.1801 17.0879C39.379 16.8942 39.5786 16.6392 39.7791 16.3229C39.9795 16.0066 40.1295 15.8 40.2289 15.7032C40.2302 15.6051 40.2681 15.5197 40.3427 15.4471C40.4176 15.3499 40.5041 15.302 40.6022 15.3033L40.9044 14.7185C40.9547 14.621 41.1045 14.4267 41.3537 14.1355C41.6275 13.8447 41.9506 13.53 42.3231 13.1915C42.6959 12.8284 43.0684 12.4898 43.4406 12.1758C43.8373 11.862 44.1593 11.6332 44.4066 11.4893C44.9263 11.1526 45.4558 11.0002 45.9952 11.0318C46.5591 11.0638 47.0351 11.2419 47.4234 11.566C47.496 11.6405 47.6536 11.7898 47.896 12.0138C48.1629 12.2382 48.454 12.4874 48.7693 12.7614C49.1092 13.0358 49.4003 13.285 49.6427 13.5091L50.9882 14.7414L50.3383 16.5729C50.0064 17.55 49.9092 18.4074 50.0467 19.1453C50.2087 19.8835 50.4333 20.5244 50.7205 21.068C50.8396 21.3394 50.9963 21.5501 51.1906 21.6998C51.4094 21.8499 51.6903 21.9518 52.033 22.0054C52.229 22.0325 52.412 22.1085 52.5821 22.2335C52.7522 22.3584 52.8354 22.5558 52.8319 22.8256C52.8241 23.4144 52.708 23.8422 52.4837 24.1091C52.2842 24.3519 52.0615 24.4961 51.8155 24.5419C51.0047 24.6294 50.2331 24.5333 49.5007 24.2537C48.7683 23.9741 48.1152 23.2663 47.5414 22.13C47.4452 21.9816 47.3139 21.7099 47.1473 21.3152C47.0057 20.8962 46.9234 20.6252 46.9005 20.5022C46.8007 20.6236 46.6637 20.7812 46.4894 20.9752C46.3399 21.145 46.1906 21.3025 46.0415 21.4477C44.2764 23.191 42.7648 24.3242 41.5066 24.8473C40.2732 25.3462 39.243 25.3204 38.4161 24.7696ZM40.4803 21.7423C40.6517 21.7691 40.9227 21.6868 41.2932 21.4954C41.6641 21.2795 42.1595 20.9303 42.7792 20.4477C43.6227 19.7474 44.3173 19.1677 44.8632 18.7087C45.409 18.2498 45.9444 17.6557 46.4693 16.9266L47.2963 15.6126C47.0585 15.0452 46.8426 14.6743 46.6486 14.5C46.4546 14.3257 46.2595 14.2372 46.0632 14.2346C45.7443 14.2304 45.3613 14.4339 44.9143 14.8451C44.4675 15.2317 43.9568 15.8138 43.3822 16.5914C42.8325 17.3447 42.2066 18.2933 41.5045 19.4372C41.1784 19.9727 40.9261 20.4969 40.7476 21.0097C40.5694 21.4981 40.4803 21.7423 40.4803 21.7423ZM48.3686 9.66468C48.1495 9.53911 48.0057 9.27958 47.9373 8.88611C47.8689 8.49264 47.8618 8.09998 47.9161 7.70813C47.9422 7.5858 48.1049 7.34259 48.4042 6.97852C48.7282 6.59023 49.1142 6.16596 49.5619 5.70571C50.0341 5.24578 50.4935 4.83475 50.9399 4.47262C51.4112 4.08628 51.7945 3.85826 52.0898 3.78856C52.4336 3.76857 52.7502 3.9445 53.0397 4.31636C53.3296 4.66369 53.4834 5.09509 53.5011 5.61057C53.4975 5.88041 53.3713 6.14863 53.1224 6.41523C52.8735 6.68183 52.5632 6.95989 52.1913 7.2494C51.8198 7.51438 51.4356 7.80373 51.0389 8.11744C50.6671 8.40695 50.3564 8.70954 50.1068 9.0252C49.8563 9.41446 49.5831 9.66847 49.2871 9.78723C48.9911 9.906 48.685 9.86515 48.3686 9.66468Z" fill="#E1FA7F"/>
<path d="M50.8227 34.2817C50.7246 34.2804 50.5774 34.2784 50.3812 34.2758C50.2091 34.2981 50.0632 34.198 49.9435 33.9756C49.847 33.8517 49.703 33.6044 49.5117 33.2338C49.3199 32.8878 49.2896 32.3967 49.4207 31.7605C49.5489 31.3451 49.6525 30.9294 49.7316 30.5133C49.8104 30.1218 49.8511 29.8279 49.8537 29.6317C49.855 29.5335 49.8821 29.3376 49.9351 29.0439C50.0122 28.775 50.0516 28.5792 50.0533 28.4566C50.1785 28.262 50.2802 27.9934 50.3583 27.651C50.4365 27.3085 50.4773 27.0023 50.4809 26.7325C50.4848 26.4381 50.6355 26.1702 50.9331 25.9288C50.9357 25.7326 50.9758 25.4877 51.0533 25.1943C51.1553 24.9012 51.2069 24.7056 51.2082 24.6075C51.2864 24.2651 51.4538 23.6662 51.7104 22.8108C51.9919 21.9312 52.324 20.942 52.7065 19.8429C53.1136 18.7442 53.5081 17.6698 53.89 16.6199C54.272 15.5699 54.615 14.6789 54.9191 13.9468C55.2225 13.2639 55.4763 12.6293 55.6803 12.0431C55.8843 11.457 55.988 11.0413 55.9912 10.7959C55.9925 10.6978 56.018 10.6245 56.0677 10.5761C56.1178 10.5032 56.2299 10.3697 56.4043 10.1757C56.6528 9.93367 56.9728 9.85203 57.3644 9.93081C57.7808 9.98539 58.1226 10.1126 58.3898 10.3124C58.5818 10.6339 58.7129 10.9301 58.7829 11.2009C58.8778 11.4475 58.8726 11.84 58.7673 12.3784C58.7625 12.7463 58.6721 13.0886 58.4961 13.4053C58.3205 13.6974 58.1578 13.9406 58.0081 14.1349C57.8831 14.305 57.8454 14.3781 57.8947 14.3542C58.9829 13.7061 59.9566 13.3632 60.8158 13.3255C61.6999 13.2636 62.4339 13.4205 63.0178 13.7963C63.6265 14.1478 64.0863 14.6323 64.3971 15.2498C64.7079 15.8673 64.8586 16.5318 64.8492 17.2432C64.8453 17.5376 64.742 17.9288 64.5392 18.4168C64.3365 18.9048 64.1096 19.368 63.8584 19.8063C63.6076 20.2201 63.4076 20.4996 63.2585 20.6449C63.1603 20.6436 63.0611 20.7281 62.9607 20.8985C62.8606 21.0444 62.7602 21.2149 62.6595 21.4098C62.46 21.6525 62.1251 21.9303 61.6548 22.243C61.2093 22.5315 60.7523 22.7709 60.2836 22.9609C59.8152 23.1265 59.4834 23.1712 59.2881 23.095C59.2881 23.095 59.251 23.119 59.1768 23.1671C59.1271 23.2155 59.1014 23.3011 59.0998 23.4237C59.0991 23.4728 58.9261 23.5686 58.5807 23.7113C58.2353 23.8539 57.8288 23.9835 57.3611 24.1C56.8934 24.2165 56.4633 24.2722 56.0708 24.267C55.5556 24.2602 55.1889 24.1572 54.9707 23.958C54.921 24.0064 54.8587 24.0792 54.7838 24.1763C54.7335 24.2738 54.7078 24.3594 54.7068 24.433C54.7049 24.5801 54.6405 24.8124 54.5136 25.1297C54.4113 25.4473 54.2849 25.7278 54.1345 25.9711C53.9837 26.239 53.847 26.3722 53.7243 26.3705C53.7243 26.3705 53.6993 26.407 53.6493 26.48C53.5993 26.5529 53.6225 26.6513 53.719 26.7753C53.719 26.7753 53.7049 26.9101 53.6768 27.1796C53.673 27.474 53.6084 27.7185 53.4831 27.9131C53.4805 28.1093 53.4399 28.4032 53.3611 28.7947C53.2823 29.1863 53.1925 29.4795 53.0918 29.6745C53.0879 29.9688 53.0351 30.2503 52.9334 30.5188C52.856 30.8122 52.7682 30.9583 52.67 30.957C52.5716 30.9802 52.5083 31.1266 52.4802 31.3961C52.4518 31.6902 52.4368 31.8985 52.4351 32.0212C52.4025 32.6341 52.1993 33.159 51.8255 33.5957C51.4513 34.0569 51.1171 34.2856 50.8227 34.2817ZM55.703 21.4651C55.8992 21.4677 56.256 21.3865 56.7735 21.2216C57.2909 21.0567 57.8333 20.8553 58.4008 20.6174C58.9686 20.3551 59.4137 20.0911 59.7362 19.8254C60.3815 19.2696 60.8794 18.7242 61.2299 18.189C61.6051 17.6542 61.5885 17.0529 61.1802 16.385C60.9885 16.039 60.6714 15.8998 60.2288 15.9676C59.8111 16.0112 59.3425 16.2012 58.8228 16.5379C58.3031 16.8745 57.77 17.2968 57.2235 17.8048C56.9249 18.1199 56.6502 18.4843 56.3994 18.898C56.1485 19.3118 55.9347 19.7138 55.7578 20.1041C55.6054 20.4946 55.5151 20.8247 55.487 21.0942C55.4593 21.3392 55.5312 21.4628 55.703 21.4651Z" fill="#E1FA7F"/>
<path d="M65.0349 25.2687C64.8413 25.0699 64.698 24.7736 64.605 24.3798C64.5366 23.9863 64.5171 23.6058 64.5465 23.2381C64.5762 22.8459 64.6415 22.5524 64.7422 22.3574C64.7448 22.1612 64.7712 22.0143 64.8216 21.9168C64.8968 21.7951 64.9228 21.6851 64.8996 21.5866C64.8763 21.4882 64.9031 21.3168 64.98 21.0725C65.0568 20.8281 65.1335 20.596 65.21 20.3762C65.3869 19.986 65.5898 19.4857 65.8187 18.8753C66.0479 18.2405 66.2771 17.6056 66.5063 16.9707C66.7359 16.3112 66.9273 15.7495 67.0807 15.2853C67.2343 14.7966 67.3241 14.5034 67.3499 14.4056C67.3538 14.1112 67.5522 13.9544 67.945 13.935C68.2407 13.8408 68.5947 13.9681 69.0072 14.3171C69.4197 14.666 69.746 15.0384 69.9861 15.4341C70.1798 15.633 70.25 15.8915 70.1967 16.2098C70.1434 16.528 69.978 16.9798 69.7004 17.5649C69.5996 17.7599 69.4726 18.0894 69.3193 18.5536C69.1908 18.9935 69.1 19.3604 69.0471 19.6541C68.9464 19.849 68.82 20.1295 68.6679 20.4956C68.5407 20.8374 68.426 21.1671 68.3236 21.4847C68.2729 21.6067 68.2208 21.8391 68.1672 22.1819C68.1139 22.5001 68.0482 22.8305 67.9701 23.173C67.8919 23.5154 67.7902 23.784 67.665 23.9786C67.4309 24.9815 67.0306 25.565 66.4641 25.7293C65.9222 25.8939 65.4458 25.7404 65.0349 25.2687ZM69.204 10.5658C68.9368 10.366 68.7313 10.1301 68.5877 9.85836C68.469 9.56236 68.3988 9.30381 68.3772 9.08271C68.3801 8.86193 68.4064 8.72733 68.4561 8.67892C68.705 8.41232 68.9182 8.05937 69.0958 7.62008C69.2978 7.18111 69.5117 6.77911 69.7374 6.41406C69.7874 6.34111 69.85 6.2438 69.9252 6.12211C70.0253 5.97622 70.1246 5.89166 70.223 5.86843C70.52 5.67607 70.9246 5.69369 71.4368 5.92128C71.9736 6.14919 72.362 6.46102 72.6021 6.85676C72.8168 7.32577 72.8718 7.80494 72.7672 8.29427C72.6871 8.78392 72.4227 9.29567 71.974 9.82952C71.5995 10.3153 71.1292 10.628 70.5631 10.7678C69.9972 10.8829 69.5442 10.8156 69.204 10.5658Z" fill="#E1FA7F"/>
<path d="M81.3387 26.0731C80.9705 26.0928 80.6269 26.1005 80.3079 26.0963C80.0136 26.0924 79.7812 26.0403 79.6108 25.9399C79.1741 25.5661 78.8836 25.2678 78.7393 25.0451C78.6196 24.8227 78.5615 24.5766 78.565 24.3067C78.5941 23.9636 78.6109 23.6203 78.6155 23.2769C78.6203 22.9089 78.6241 22.6268 78.6267 22.4306C78.5298 22.3311 78.3321 22.4389 78.0335 22.7539C77.7349 23.069 77.3874 23.3711 76.9911 23.6602C76.2192 24.5088 75.5364 25.1254 74.9424 25.5101C74.3488 25.8703 73.8064 26.0717 73.3151 26.1143C72.8235 26.1814 72.3327 26.1872 71.8427 26.1316C71.4018 26.0767 71.0123 25.8507 70.674 25.4537C70.3603 25.057 70.1213 24.5754 69.957 24.0089C69.8173 23.4427 69.7755 22.8901 69.8317 22.3511C69.9677 21.3469 70.2005 20.4422 70.5301 19.6369C70.86 18.807 71.3499 17.9425 71.9997 17.0433C72.2992 16.6547 72.6974 16.2306 73.1942 15.771C73.7155 15.3117 74.2732 14.8897 74.8671 14.505C75.4613 14.0957 75.9927 13.8083 76.461 13.6428C77.1766 13.3333 77.7673 13.1939 78.2331 13.2246C78.7234 13.2556 79.2008 13.3355 79.6653 13.4643C80.0064 13.6406 80.2751 13.73 80.4714 13.7326C80.6922 13.7355 80.8532 13.615 80.9546 13.3709C81.1044 13.1766 81.218 12.9328 81.2955 12.6394C81.373 12.346 81.4994 12.0655 81.6747 11.7979L82.5158 9.41683C82.7944 8.75805 83.1234 8.0018 83.5027 7.14808C83.882 6.29435 84.3117 5.34315 84.7917 4.29446C85.3686 3.34521 85.8536 2.84864 86.2467 2.80477C86.6644 2.76122 87.0908 2.98767 87.5259 3.48413C87.8164 3.7824 87.9709 4.15248 87.9896 4.59436C88.0332 5.01204 87.9163 5.50121 87.639 6.06186C87.4637 6.32943 87.2752 6.67043 87.0734 7.08487C86.872 7.47477 86.6328 7.93779 86.3558 8.4739C86.0775 9.10815 85.787 9.74223 85.4842 10.3762C85.2059 11.0104 84.9146 11.7058 84.6101 12.4624C84.5068 12.8536 84.3659 13.3056 84.1874 13.8185C84.0334 14.3317 83.9046 14.7962 83.8009 15.2119C83.7221 15.6034 83.6314 15.9703 83.5288 16.3124C83.4509 16.6304 83.363 16.7887 83.2649 16.7874C83.0663 16.9565 82.8775 17.322 82.6983 17.884C82.5195 18.4214 82.3647 18.9959 82.2339 19.6076C82.1277 20.2196 82.0352 20.7213 81.9564 21.1129C81.9034 21.4066 81.8611 21.8231 81.8294 22.3625C81.7981 22.8773 81.7792 23.38 81.7727 23.8707C81.7665 24.3368 81.7623 24.6557 81.76 24.8274C81.7539 25.2935 81.7127 25.6242 81.6365 25.8194C81.5852 25.9905 81.4859 26.0751 81.3387 26.0731ZM73.0611 23.0562C73.6253 23.0637 74.1558 22.8376 74.6526 22.378C75.1742 21.8942 75.7453 21.3865 76.3657 20.8549C76.7385 20.4918 77.1241 20.0921 77.5224 19.6557C77.9211 19.1948 78.2828 18.7457 78.6075 18.3083C78.9568 17.8713 79.2317 17.4947 79.4322 17.1783C79.6326 16.862 79.7335 16.6548 79.7348 16.5567C79.7364 16.434 79.6398 16.3223 79.4448 16.2216C79.2744 16.1212 79.0668 16.0449 78.8222 15.9926C78.5778 15.9157 78.3572 15.9006 78.1603 15.947C77.5693 16.111 77.0875 16.3622 76.715 16.7008C76.3671 17.0397 75.857 17.5727 75.185 18.2999C74.5119 19.1007 73.9743 19.8664 73.5721 20.5972C73.1698 21.3279 72.9166 21.9257 72.8123 22.3905C72.7328 22.8311 72.8158 23.053 73.0611 23.0562Z" fill="#E1FA7F"/>
<path d="M87.7206 25.8999C87.2042 25.9912 86.812 25.9615 86.5441 25.8107C86.3011 25.6357 86.0463 25.4238 85.7797 25.1749C85.3898 24.9735 85.0376 24.699 84.7233 24.3513C84.4092 23.9791 84.1689 23.5957 84.0024 23.2009C83.8359 22.8061 83.7663 22.4985 83.7938 22.278C83.8787 21.4204 84.0873 20.4908 84.4195 19.4893C84.7762 18.488 85.2185 17.5125 85.7463 16.5626C86.2986 15.613 86.9108 14.7746 87.5829 14.0474C88.2798 13.296 89.0231 12.7538 89.8126 12.4207C90.3058 12.231 90.8342 12.1644 91.3978 12.2209C91.9613 12.2774 92.3385 12.5155 92.5292 12.9351C92.8878 13.6514 92.7959 14.1041 92.2537 14.2932C92.1801 14.2922 92.0937 14.3279 91.9946 14.4002C91.8958 14.4479 91.8458 14.5209 91.8445 14.619C91.942 14.6694 92.2117 14.6852 92.6536 14.6665C93.0958 14.6233 93.5383 14.5555 93.9812 14.4632C94.4489 14.3467 94.7571 14.2281 94.9059 14.1074C95.0541 14.0358 95.165 14.0004 95.2386 14.0014C95.3122 14.0024 95.4958 14.0293 95.7896 14.0823C96.205 14.2105 96.4115 14.3604 96.4093 14.5321C96.408 14.6302 96.4427 14.7902 96.5133 15.0119C96.5843 15.2092 96.6689 15.3084 96.767 15.3097C96.9384 15.3365 96.9729 15.5087 96.8706 15.8263C96.7928 16.1443 96.5063 16.4717 96.0111 16.8087C95.5412 17.0969 95.2442 17.2892 95.1202 17.3857C95.0211 17.458 95.0066 17.6296 95.0766 17.9004C95.2667 18.3691 95.247 18.9331 95.0174 19.5926C94.7879 20.252 94.4109 20.934 93.8863 21.6386C93.3617 22.3432 92.7395 23.0097 92.0197 23.6381C91.3247 24.2423 90.5941 24.7602 89.8278 25.1917C89.0863 25.599 88.384 25.835 87.7206 25.8999ZM87.8719 22.8104C87.97 22.8117 88.1424 22.7649 88.389 22.67C88.6359 22.5506 88.8335 22.4551 88.9816 22.3834C89.0811 22.2866 89.2052 22.1778 89.354 22.0571C89.5276 21.9122 89.6637 21.8281 89.7621 21.8049C89.8603 21.8062 89.9221 21.7702 89.9476 21.6969C89.9734 21.5991 90.0617 21.4163 90.2125 21.1484C90.3635 20.856 90.6636 20.4306 91.1126 19.8722C91.6104 19.339 91.935 18.9139 92.0864 18.5969C92.2381 18.2554 92.2552 17.8876 92.1377 17.4935C92.1145 17.3951 92.0417 17.3328 91.9194 17.3066C91.8216 17.2808 91.6875 17.2177 91.5171 17.1173C91.2718 17.114 91.0992 17.1731 90.9995 17.2945C90.9246 17.3916 90.7537 17.328 90.4868 17.1037L89.9077 16.3599L89.2739 16.9772C88.8762 17.3645 88.514 17.8505 88.1874 18.435C87.8852 19.0198 87.6442 19.6178 87.4644 20.2288C87.2846 20.8398 87.167 21.378 87.1118 21.8435C87.0824 22.2111 87.1405 22.4572 87.2861 22.5818C87.4316 22.7064 87.6269 22.7826 87.8719 22.8104Z" fill="#E1FA7F"/>
<path d="M106.211 26.1075C105.26 25.7024 104.606 25.0558 104.249 24.1678C103.893 23.2798 103.811 22.101 104.002 20.6314C104.061 19.8716 104.043 19.3684 103.948 19.1218C103.854 18.8506 103.673 18.5906 103.406 18.3417C103.334 18.2427 103.165 18.0809 102.898 17.8566C102.631 17.6077 102.511 17.4221 102.537 17.2998C102.515 17.1277 102.554 16.9197 102.656 16.6757C102.757 16.4071 102.845 16.2611 102.919 16.2375C103.092 16.1662 103.265 16.0826 103.438 15.9868C103.635 15.8912 103.783 15.8686 103.88 15.919C103.978 15.9203 104.125 15.9836 104.319 16.1088C104.538 16.2344 104.647 16.3462 104.646 16.4444C104.742 16.6174 104.89 16.5457 105.09 16.2294C105.315 15.9134 105.554 15.5118 105.806 15.0244C106.056 14.6351 106.368 14.2712 106.74 13.9326C107.113 13.5941 107.485 13.2923 107.856 13.0273C108.253 12.7381 108.587 12.5217 108.859 12.3781C108.982 12.3307 109.216 12.2601 109.561 12.1666C109.93 12.0733 110.311 12.0047 110.704 11.9609C111.098 11.8925 111.392 11.8718 111.588 11.8989C112.03 11.9293 112.493 12.1195 112.979 12.4694C113.465 12.8193 113.841 13.1432 114.107 13.4412C114.423 13.6662 114.627 14.0124 114.719 14.4797C114.836 14.9229 114.879 15.3897 114.848 15.88C114.817 16.3703 114.713 16.786 114.537 17.1272C114.46 17.3715 114.198 17.7115 113.751 18.1473C113.303 18.583 112.807 19.0058 112.262 19.4157C111.741 19.8014 111.296 20.0654 110.926 20.2077C110.607 20.2771 110.225 20.3334 109.783 20.3766C109.341 20.3953 108.924 20.3898 108.532 20.3601C108.165 20.3062 107.908 20.2414 107.762 20.1659C107.591 20.0655 107.444 20.1003 107.319 20.2704C107.219 20.4163 107.127 20.8322 107.045 21.5181C107.017 21.7876 107.014 22.0207 107.036 22.2173C107.082 22.4142 107.129 22.562 107.177 22.6608C107.345 22.9574 107.513 23.1805 107.683 23.3299C107.853 23.4548 108.172 23.4959 108.639 23.453C109.105 23.4101 109.575 23.1341 110.048 22.6251C110.546 22.0919 110.993 21.6685 111.39 21.3547C111.49 21.1843 111.7 21.0767 112.02 21.0318C112.364 20.9628 112.768 20.9927 113.233 21.1215C113.501 21.2968 113.62 21.5682 113.59 21.9359C113.585 22.3038 113.382 22.8409 112.98 23.5472C112.904 23.7179 112.692 23.9727 112.344 24.3116C112.021 24.6263 111.661 24.9528 111.264 25.291C110.892 25.6051 110.582 25.8341 110.335 25.978C109.594 26.3608 108.868 26.5352 108.157 26.5013C107.446 26.4673 106.797 26.3361 106.211 26.1075ZM109.044 17.8642C109.413 17.771 109.721 17.6769 109.967 17.582C110.239 17.4875 110.498 17.3314 110.746 17.1139C110.995 16.8963 111.281 16.5689 111.606 16.1315C111.708 15.863 111.76 15.6306 111.762 15.4343C111.79 15.2384 111.779 15.1156 111.73 15.0659C111.537 14.867 111.317 14.8028 111.071 14.8732C110.849 14.9193 110.602 15.0387 110.33 15.2314C110.157 15.3027 109.91 15.4589 109.587 15.7C109.29 15.9169 108.992 16.1706 108.694 16.4611C108.421 16.7274 108.197 16.982 108.022 17.2251C107.871 17.4439 107.845 17.5785 107.943 17.6288C107.892 17.7263 108.026 17.7894 108.345 17.8182C108.688 17.8473 108.921 17.8626 109.044 17.8642Z" fill="#E1FA7F"/>
<path d="M124.368 28.3717C123.713 27.8723 123.207 27.1664 122.851 26.2539C122.52 25.3171 122.371 24.4564 122.406 23.6718C122.402 22.1505 122.545 20.5821 122.837 18.9666C123.152 17.3515 123.553 15.8478 124.037 14.4557C124.368 13.5768 124.723 12.686 125.103 11.7832C125.483 10.8804 125.874 10.0268 126.278 9.22247C126.681 8.3936 127.071 7.69949 127.446 7.14014C128.224 5.85003 129.01 4.81767 129.806 4.04305C130.626 3.26876 131.246 2.76171 131.666 2.52191C132.357 2.18755 133.183 1.94084 134.142 1.78177C135.101 1.59817 136.033 1.61049 136.938 1.81874C137.574 1.99889 138.196 2.25247 138.805 2.57948C139.439 2.90682 139.985 3.30662 140.445 3.77887C140.712 4.02775 140.917 4.28808 141.061 4.55987C141.204 4.83166 141.274 5.11474 141.27 5.40911C141.265 5.77708 141.089 6.13052 140.741 6.46941C140.393 6.80831 140.01 7.03633 139.591 7.15347C139.172 7.27062 138.854 7.19281 138.637 6.92004C138.325 6.4252 138.023 6.05318 137.732 5.80398C137.441 5.53025 137.137 5.32994 136.82 5.20307C136.552 5.02778 136.185 4.93706 135.719 4.9309C135.278 4.92506 134.798 5.0046 134.281 5.16951C133.764 5.30988 133.269 5.57324 132.798 5.95958C132.625 6.1045 132.389 6.30993 132.091 6.57588C131.817 6.84216 131.519 7.16944 131.195 7.55772C130.895 7.9218 130.62 8.32299 130.369 8.76131C129.667 9.88067 129.063 11.0258 128.557 12.1969C128.076 13.3437 127.642 14.6015 127.256 15.9704C127.077 16.5323 126.883 17.229 126.676 18.0605C126.469 18.8674 126.274 19.6745 126.092 20.4818C125.934 21.2894 125.827 21.9995 125.769 22.6121C125.685 23.4697 125.7 24.1447 125.816 24.6369C125.932 25.1292 126.186 25.4637 126.576 25.6406C126.966 25.793 127.519 25.7881 128.232 25.6257C128.872 25.487 129.513 25.2501 130.155 24.9151C130.823 24.5559 131.466 24.1105 132.087 23.5789C132.708 23.0228 133.268 22.3678 133.769 21.6138C134.222 20.7856 134.587 20.0298 134.866 19.3465C135.17 18.6635 135.324 18.1258 135.329 17.7333C135.359 17.3166 135.153 17.1176 134.711 17.1362C133.705 17.1475 132.896 17.1 132.284 16.9937C131.697 16.8878 131.295 16.6372 131.08 16.2418C130.762 16.164 130.594 15.8918 130.575 15.4254C130.581 14.9593 130.82 14.5822 131.289 14.294C131.709 14.0787 132.288 13.9514 133.024 13.9121C133.761 13.8727 134.509 13.9071 135.268 14.0153C136.052 14.0993 136.675 14.2793 137.138 14.5553C137.674 14.8323 138.036 15.2419 138.226 15.7842C138.44 16.3023 138.543 16.8557 138.535 17.4444C138.552 18.0335 138.508 18.5849 138.403 19.0988C138.17 19.9545 137.853 20.7845 137.45 21.5888C137.071 22.3935 136.557 23.2086 135.908 24.0343C135.534 24.5446 135.024 25.0776 134.378 25.6334C133.733 26.1892 133.052 26.6831 132.335 27.1153C131.641 27.5723 130.987 27.9317 130.37 28.1934C129.383 28.622 128.348 28.9273 127.266 29.1093C126.209 29.2916 125.243 29.0457 124.368 28.3717Z" fill="#E1FA7F"/>
<path d="M139.934 26.1117C139.839 25.9141 139.621 25.715 139.28 25.5142C138.964 25.3137 138.806 25.1644 138.807 25.0663C138.809 24.9682 138.749 24.8202 138.629 24.6223C138.534 24.4002 138.438 24.2395 138.341 24.14C138.22 23.9912 138.262 23.636 138.466 23.0744C138.67 22.4882 138.973 21.7807 139.377 20.9518C139.78 20.123 140.221 19.2823 140.698 18.4299C140.897 18.2362 141.097 17.9813 141.297 17.6649C141.498 17.3486 141.648 17.1421 141.747 17.0452C141.749 16.9471 141.786 16.8617 141.861 16.7891C141.936 16.692 142.022 16.644 142.121 16.6453L142.423 16.0605C142.473 15.963 142.623 15.7687 142.872 15.4776C143.146 15.1868 143.469 14.8721 143.841 14.5335C144.214 14.1704 144.587 13.8318 144.959 13.5178C145.356 13.2041 145.678 12.9752 145.925 12.8313C146.445 12.4947 146.974 12.3422 147.513 12.3738C148.077 12.4058 148.553 12.5839 148.942 12.908C149.014 12.9825 149.172 13.1318 149.414 13.3559C149.681 13.5802 149.972 13.8294 150.288 14.1035C150.628 14.3779 150.919 14.6271 151.161 14.8511L152.506 16.0834L151.857 17.9149C151.525 18.892 151.428 19.7494 151.565 20.4873C151.727 21.2255 151.952 21.8664 152.239 22.41C152.358 22.6815 152.515 22.8921 152.709 23.0419C152.928 23.192 153.209 23.2938 153.551 23.3474C153.747 23.3745 153.93 23.4506 154.1 23.5755C154.27 23.7004 154.354 23.8978 154.35 24.1677C154.342 24.7564 154.226 25.1842 154.002 25.4512C153.802 25.6939 153.58 25.8381 153.334 25.884C152.523 25.9714 151.751 25.8753 151.019 25.5957C150.287 25.3162 149.634 24.6083 149.06 23.4721C148.964 23.3236 148.832 23.0519 148.666 22.6572C148.524 22.2382 148.442 21.9672 148.419 21.8442C148.319 21.9656 148.182 22.1233 148.008 22.3173C147.858 22.487 147.709 22.6445 147.56 22.7898C145.795 24.533 144.283 25.6662 143.025 26.1893C141.791 26.6883 140.761 26.6624 139.934 26.1117ZM141.999 23.0843C142.17 23.1111 142.441 23.0288 142.812 22.8374C143.182 22.6215 143.678 22.2723 144.298 21.7898C145.141 21.0894 145.836 20.5097 146.381 20.0508C146.927 19.5918 147.463 18.9978 147.988 18.2686L148.815 16.9547C148.577 16.3872 148.361 16.0163 148.167 15.842C147.973 15.6677 147.778 15.5792 147.582 15.5766C147.263 15.5724 146.88 15.7759 146.433 16.1871C145.986 16.5738 145.475 17.1559 144.901 17.9334C144.351 18.6867 143.725 19.6353 143.023 20.7792C142.697 21.3147 142.444 21.8389 142.266 22.3518C142.088 22.8401 141.999 23.0843 141.999 23.0843Z" fill="#E1FA7F"/>
<path d="M154.814 26.0875C154.595 25.9129 154.353 25.6889 154.087 25.4155C153.845 25.1424 153.764 24.761 153.844 24.2714C153.927 23.5855 154.033 22.9858 154.162 22.4722C154.292 21.9342 154.447 21.3228 154.628 20.6382C154.681 20.3445 154.811 19.8432 155.016 19.1344C155.246 18.4259 155.514 17.6566 155.82 16.8264C156.125 15.9963 156.442 15.2153 156.771 14.4836C157.1 13.7273 157.389 13.1669 157.639 12.8021C157.912 12.5604 158.307 12.4429 158.822 12.4497C159.361 12.4569 159.728 12.5599 159.922 12.7587C160.189 12.983 160.269 13.3767 160.164 13.9396C160.058 14.478 159.704 15.3198 159.1 16.465C158.973 16.7577 158.81 17.0745 158.609 17.4154C158.433 17.732 158.307 18.0002 158.23 18.22C158.154 18.4153 158.177 18.5015 158.3 18.4786C158.451 18.2107 158.725 17.9076 159.122 17.5694C159.519 17.2066 159.941 16.8564 160.387 16.5188C160.833 16.1812 161.254 15.8801 161.65 15.6154C162.047 15.3507 162.319 15.1826 162.467 15.1109C162.665 14.9909 162.887 14.8957 163.133 14.8253C163.404 14.7308 163.589 14.6596 163.688 14.6118C164.256 14.3495 164.87 14.2594 165.532 14.3418C166.218 14.3999 166.632 14.614 166.774 14.9839C166.796 15.1805 166.868 15.3286 166.989 15.4284C167.135 15.5284 167.208 15.5785 167.208 15.5785C167.306 15.5798 167.355 15.6172 167.354 15.6908C167.378 15.7647 167.389 15.8017 167.389 15.8017C167.387 15.9734 167.212 16.2164 166.864 16.5308C166.541 16.8455 166.183 17.0125 165.791 17.0319C165.471 17.0522 165.188 17.1098 164.942 17.2046C164.695 17.2995 164.399 17.4183 164.054 17.5609C163.114 18.0883 162.262 18.5555 161.496 18.9625C160.754 19.3698 159.985 19.9975 159.189 20.8457C159.015 21.0397 158.828 21.2213 158.63 21.3904C158.431 21.5595 158.232 21.8022 158.031 22.1185C157.907 22.2396 157.781 22.5078 157.653 22.9232C157.525 23.3386 157.409 23.7419 157.306 24.1331C157.227 24.5001 157.187 24.7204 157.186 24.794C157.186 24.794 157.148 24.9162 157.071 25.1605C156.995 25.3803 156.869 25.5995 156.694 25.818C156.395 26.2066 156.097 26.448 155.802 26.5422C155.53 26.6368 155.201 26.4852 154.814 26.0875Z" fill="#E1FA7F"/>
<path d="M169.282 26.7572C169.085 26.8037 168.827 26.8248 168.508 26.8206C168.189 26.7919 167.908 26.7514 167.663 26.699C167.443 26.6225 167.334 26.5475 167.335 26.4739C167.336 26.3512 167.276 26.2891 167.153 26.2875C167.153 26.2875 167.02 26.1876 166.752 25.9877C166.485 25.7634 166.242 25.6007 166.023 25.4997C165.807 25.1533 165.665 24.7589 165.597 24.3163C165.554 23.8496 165.712 23.042 166.07 21.8936C166.105 21.1089 166.337 20.29 166.765 19.4369C167.194 18.5593 167.733 17.7077 168.382 16.8821C169.031 16.0565 169.703 15.3293 170.398 14.7005C171.094 14.0473 171.713 13.5648 172.257 13.253C172.605 12.9141 173.061 12.7361 173.626 12.719C174.215 12.7023 174.729 12.8195 175.167 13.0706C175.411 13.1965 175.677 13.4454 175.967 13.8173C176.256 14.1891 176.533 14.5854 176.798 15.006C177.062 15.402 177.266 15.7605 177.409 16.0813C177.479 16.3522 177.537 16.5983 177.583 16.8197C177.654 17.0169 177.7 17.2629 177.721 17.5576C177.741 17.8523 177.711 18.2935 177.63 18.8813C177.501 19.3212 177.385 19.7736 177.28 20.2384C177.201 20.679 177.158 21.1323 177.152 21.5984C177.097 22.0639 177.142 22.3957 177.286 22.5939C177.455 22.7924 177.7 22.8079 178.022 22.6404C178.318 22.4971 178.625 22.4889 178.942 22.6158C179.26 22.7181 179.478 22.9173 179.597 23.2133C179.74 23.4851 179.699 23.8403 179.472 24.2789C179.321 24.5959 179.084 24.8994 178.761 25.1896C178.438 25.4798 178.079 25.7204 177.684 25.9114C177.289 26.078 176.908 26.1588 176.54 26.1539C176.27 26.1504 176.001 26.0487 175.734 25.8489C175.467 25.6245 175.226 25.3269 175.01 24.956C174.794 24.5851 174.615 24.1779 174.474 23.7344L174.264 22.8852L172.924 24.082C172.6 24.4212 172.277 24.7359 171.954 25.026C171.656 25.292 171.47 25.4858 171.395 25.6075C171.269 25.8266 171.021 26.0196 170.651 26.1865C170.305 26.3537 169.849 26.5439 169.282 26.7572ZM170.322 23.2379C170.742 22.9981 171.102 22.7084 171.401 22.3689C171.724 22.0297 172.036 21.6535 172.336 21.2403C172.636 20.8027 172.961 20.3408 173.311 19.8547C173.735 19.296 174.036 18.8461 174.212 18.5049C174.413 18.1641 174.565 17.798 174.668 17.4068C174.574 17.1357 174.442 16.8518 174.275 16.5552C174.107 16.234 173.938 16.06 173.766 16.0332C173.423 16.0286 173.003 16.2317 172.507 16.6422C172.035 17.0531 171.512 17.6473 170.938 18.4248C170.838 18.5462 170.713 18.7408 170.562 19.0087C170.411 19.2766 170.26 19.5322 170.11 19.7756C169.984 19.9947 169.897 20.1408 169.847 20.2137C169.772 20.3109 169.658 20.5425 169.506 20.9085C169.379 21.2503 169.264 21.6046 169.161 21.9712C169.058 22.3134 169.006 22.558 169.004 22.7052C169.002 22.8524 169.012 23.012 169.034 23.1841C169.081 23.3564 169.202 23.4684 169.398 23.5201C169.594 23.5718 169.902 23.4777 170.322 23.2379Z" fill="#E1FA7F"/>
<path d="M191.471 27.4186C191.103 27.4137 190.749 27.2987 190.408 27.0733C190.068 26.8235 189.79 26.4886 189.575 26.0686C189.36 25.6242 189.257 25.1075 189.264 24.5188C189.269 24.1508 189.337 23.6365 189.469 22.9758C189.625 22.2908 189.845 21.435 190.128 20.4083C190.182 20.0655 190.222 19.8452 190.247 19.7474C190.298 19.6499 190.324 19.5521 190.325 19.454C190.326 19.4049 190.314 19.3679 190.29 19.3431C190.29 19.294 190.266 19.2692 190.217 19.2685C190.021 19.2659 189.749 19.3973 189.402 19.6626C189.08 19.9037 188.708 20.1932 188.287 20.5311C188.212 20.5792 188.126 20.6394 188.027 20.7117C187.952 20.7843 187.865 20.8568 187.766 20.9291C187.691 21.0017 187.605 21.0741 187.506 21.1464C187.258 21.2904 186.874 21.5675 186.354 21.9777C185.858 22.3882 185.337 22.823 184.791 23.2819C184.269 23.7412 183.81 24.1277 183.414 24.4414C183.215 24.586 183.042 24.7064 182.894 24.8026C182.77 24.8991 182.683 24.947 182.634 24.9464C182.585 24.9457 182.39 24.8818 182.048 24.7546C181.731 24.6032 181.414 24.4028 181.099 24.1532C180.808 23.8795 180.665 23.5709 180.669 23.2275C180.672 23.0067 180.764 22.5663 180.945 21.9062C181.15 21.2464 181.43 20.465 181.785 19.5619C182.141 18.6588 182.545 17.744 182.999 16.8177C183.1 16.5982 183.178 16.3048 183.232 15.9375C183.286 15.5702 183.339 15.2151 183.393 14.8723C183.471 14.5053 183.598 14.2371 183.772 14.0677C183.847 13.946 183.934 13.8613 184.033 13.8135C184.156 13.7415 184.279 13.7064 184.402 13.708C184.647 13.7112 184.88 13.7756 185.099 13.9012C185.318 14.0022 185.524 14.1767 185.717 14.4246C186.08 14.822 186.27 15.2907 186.288 15.8307C186.33 16.3465 186.286 16.8489 186.157 17.3379C186.028 17.8269 185.888 18.2299 185.737 18.5468C185.585 18.8393 185.51 18.9609 185.511 18.9119C185.61 18.8641 185.746 18.7432 185.921 18.5493C186.119 18.3556 186.454 18.1269 186.923 17.8633C187.568 17.3811 188.063 17.0441 188.409 16.8524C188.755 16.6362 189.015 16.4801 189.188 16.3843C189.385 16.2887 189.559 16.1806 189.707 16.0599C189.831 15.9634 189.918 15.9032 189.967 15.8793C190.041 15.8558 190.078 15.844 190.078 15.844C190.152 15.845 190.275 15.7975 190.448 15.7017C190.646 15.6061 190.83 15.5595 191.002 15.5618C191.247 15.565 191.504 15.6298 191.772 15.756C192.041 15.8577 192.272 16.0079 192.466 16.2068C192.66 16.3811 192.755 16.5664 192.753 16.7626C192.752 16.8362 192.775 16.8979 192.824 16.9476C192.872 16.9973 192.921 17.0593 192.969 17.1335C193.089 17.2823 193.222 17.4926 193.365 17.7644C193.534 18.012 193.614 18.4179 193.607 18.9821C193.601 19.3746 193.508 19.95 193.326 20.7081C193.144 21.4663 192.951 22.2121 192.745 22.9455C192.538 23.7033 192.432 24.3153 192.426 24.7814C192.445 25.2233 192.489 25.5674 192.559 25.8137C192.63 26.0354 192.665 26.2199 192.663 26.3671C192.66 26.5633 192.559 26.7951 192.359 27.0623C192.159 27.305 191.863 27.4238 191.471 27.4186Z" fill="#E1FA7F"/>
<path d="M198.651 29.8689C197.45 29.8285 196.682 29.4749 196.347 28.808C196.036 28.166 195.961 27.3553 196.121 26.376C196.275 25.9118 196.366 25.4959 196.395 25.1283C196.45 24.7365 196.563 24.4926 196.736 24.3967C196.736 24.3967 196.749 24.3601 196.775 24.2868C196.825 24.2139 196.813 24.1401 196.741 24.0656C196.745 23.7467 196.861 23.3066 197.089 22.7453C197.14 22.5987 197.204 22.4278 197.28 22.2325C197.381 22.0131 197.432 21.9033 197.432 21.9033C197.312 21.7055 197.314 21.546 197.438 21.425C197.562 21.3039 197.687 21.1952 197.81 21.0987C197.959 20.9779 197.973 20.8432 197.853 20.6944C197.805 20.5956 197.869 20.3756 198.045 20.0345C198.222 19.6688 198.423 19.2911 198.649 18.9016C198.875 18.512 199.026 18.2073 199.103 17.9875C199.104 17.9384 199.167 17.7675 199.294 17.4747C199.42 17.182 199.572 16.8405 199.749 16.4503C199.926 16.06 200.09 15.7065 200.241 15.3895C200.417 15.0729 200.53 14.8658 200.581 14.7683C200.828 14.6489 200.731 14.5618 200.29 14.5069C199.849 14.452 199.383 14.4335 198.892 14.4516C198.132 14.417 197.519 14.3721 197.054 14.3169C196.613 14.262 196.246 14.1467 195.954 13.9711C195.664 13.6238 195.633 13.2185 195.86 12.7553C196.087 12.2676 196.446 12.0148 196.937 11.9967C197.256 11.9764 197.502 11.9674 197.674 11.9696C197.87 11.9722 198.115 11.9632 198.41 11.9426C198.73 11.8977 199.221 11.8429 199.884 11.7781L201.763 11.6557L201.882 11.0316C202.082 10.7153 202.22 10.5085 202.295 10.4114C202.369 10.3142 202.42 10.2168 202.446 10.119C202.472 9.99664 202.511 9.78861 202.564 9.49488C202.564 9.49488 202.677 9.30009 202.903 8.91051C203.13 8.4964 203.27 8.06889 203.325 7.62797C203.626 7.14124 203.889 6.70308 204.115 6.3135C204.342 5.89939 204.48 5.6436 204.53 5.54612C204.955 4.93836 205.365 4.61254 205.758 4.56866C206.175 4.52511 206.567 4.62843 206.931 4.8786C207.15 5.00418 207.357 5.16638 207.551 5.36523C207.744 5.53954 207.864 5.77421 207.909 6.06923C207.955 6.33972 207.84 6.69397 207.564 7.13196C207.514 7.22944 207.438 7.41245 207.336 7.681C207.235 7.92501 207.158 8.13255 207.107 8.30362C206.957 8.47339 206.77 8.75307 206.544 9.14265C206.343 9.50802 206.203 9.88647 206.124 10.278C205.922 10.6924 205.796 10.9484 205.746 11.0459C205.695 11.1433 205.621 11.1914 205.523 11.1901C205.569 11.4361 205.714 11.5607 205.96 11.5639C206.205 11.5427 206.61 11.5235 207.175 11.5064C207.642 11.4635 207.961 11.4187 208.134 11.3719C208.331 11.3009 208.551 11.3283 208.795 11.4542C208.915 11.6276 208.973 11.8859 208.969 12.2294C208.989 12.5486 208.948 12.867 208.846 13.1846C208.744 13.4777 208.606 13.6599 208.434 13.7312C208.311 13.7296 208.052 13.7998 207.658 13.9418C207.288 14.0596 206.821 14.127 206.257 14.1441L204.304 14.3023L203.662 15.5451C203.486 15.8618 203.335 16.1542 203.209 16.4224C203.083 16.6661 202.995 16.8121 202.945 16.8606C202.943 17.0077 202.855 17.2274 202.679 17.5195C202.528 17.8119 202.364 18.1287 202.188 18.4699C202.035 18.885 201.859 19.2629 201.658 19.6038C201.482 19.9449 201.393 20.1155 201.393 20.1155C201.295 20.1142 201.245 20.1872 201.243 20.3344C201.362 20.6304 201.322 20.8507 201.124 20.9952C201.001 21.0672 200.889 21.1762 200.789 21.322C200.713 21.4437 200.676 21.5046 200.676 21.5046C200.773 21.604 200.783 21.7268 200.708 21.873C200.657 22.0196 200.581 22.178 200.481 22.3485C200.478 22.5447 200.413 22.826 200.285 23.1924C200.182 23.559 200.067 23.901 199.941 24.2183C199.959 24.6602 199.98 24.9426 200.003 25.0656C200.026 25.1886 200.087 25.2384 200.185 25.2152C200.307 25.2414 200.479 25.2436 200.7 25.222C200.921 25.2004 201.081 25.1902 201.179 25.1915C201.549 25.0247 201.366 25.881 200.63 27.7605C200.229 28.3686 199.83 28.8663 199.432 29.2536C199.034 29.6655 198.774 29.8706 198.651 29.8689Z" fill="#E1FA7F"/>
<path d="M207.236 26.5597C207.137 26.5584 206.93 26.4821 206.613 26.3307C206.296 26.1793 206.137 26.1036 206.137 26.1036C206.139 26.0054 206.104 25.8823 206.032 25.7341C205.985 25.5863 205.962 25.4633 205.963 25.3652C205.793 25.2648 205.623 25.1031 205.454 24.88C205.286 24.657 205.252 24.4112 205.354 24.1426C205.504 23.8747 205.706 23.4726 205.959 22.9361C206.236 22.3755 206.526 21.7537 206.83 21.0707C207.158 20.3635 207.461 19.6805 207.74 19.0217C208.019 18.363 208.259 17.8018 208.462 17.3383C208.664 16.8503 208.779 16.5574 208.804 16.4596C208.806 16.3614 208.82 16.1899 208.848 15.9449C208.9 15.7002 209.062 15.4938 209.335 15.3257C209.656 15.1091 209.988 15.1012 210.329 15.302C210.669 15.5028 210.959 15.8501 211.198 16.344C211.437 16.8133 211.553 17.3669 211.544 18.0047C211.542 18.1764 211.413 18.6164 211.159 19.3245C210.904 20.0082 210.562 20.8256 210.133 21.7768C209.727 22.7283 209.273 23.6915 208.769 24.6662C208.392 25.3728 208.103 25.8719 207.903 26.1637C207.728 26.4313 207.505 26.5633 207.236 26.5597ZM212.426 12.5327C212.132 12.5288 211.778 12.3892 211.364 12.1138C210.976 11.8388 210.624 11.4907 210.311 11.0694C209.998 10.6482 209.844 10.2045 209.85 9.73841C209.852 9.61575 209.965 9.39643 210.19 9.08045C210.415 8.73993 210.628 8.41151 210.829 8.0952C211.054 7.77921 211.167 7.59669 211.167 7.54763C211.363 7.55022 211.596 7.5901 211.865 7.66726C212.134 7.74442 212.353 7.8332 212.524 7.93359C212.786 8.55044 213.134 9.08256 213.57 9.52996C214.006 9.95283 214.22 10.4341 214.213 10.9738C214.206 11.5135 214.066 11.9165 213.793 12.1827C213.519 12.4245 213.064 12.5411 212.426 12.5327Z" fill="#E1FA7F"/>
<path d="M222.013 28.6688C221.693 28.7382 221.376 28.6481 221.06 28.3986C220.768 28.1739 220.563 27.9259 220.444 27.6544C220.302 27.26 220.209 26.8907 220.164 26.5466C220.145 26.1783 220.126 25.761 220.107 25.2945L220.087 24.043L218.56 25.3845C217.716 26.1585 216.923 26.7123 216.183 27.046C215.467 27.3555 214.815 27.5064 214.226 27.4986C213.957 27.446 213.628 27.2699 213.24 26.9703C212.876 26.6465 212.537 26.2986 212.223 25.9264C211.934 25.53 211.729 25.2083 211.61 24.9614C211.467 24.616 211.425 24.137 211.482 23.5244C211.564 22.9121 211.72 22.2394 211.95 21.5064C212.205 20.7737 212.509 20.0539 212.862 19.3471C213.239 18.6405 213.665 18.0328 214.137 17.5238C214.963 16.3079 215.979 15.5607 217.185 15.2822C218.391 14.9792 219.457 15.0915 220.382 15.6189C220.821 15.8456 221.139 15.9356 221.336 15.8892C221.533 15.8427 221.657 15.6849 221.71 15.4157C221.813 15.0245 221.928 14.658 222.056 14.3161C222.183 13.9743 222.361 13.4614 222.591 12.7775C223.229 10.9212 223.776 9.46859 224.231 8.41959C224.711 7.37091 225.141 6.4565 225.519 5.67637C225.796 5.11572 226.071 4.72679 226.344 4.50957C226.617 4.29236 226.851 4.19732 227.047 4.22444C227.317 4.22801 227.647 4.33051 228.037 4.53195C228.451 4.73371 228.717 5.00712 228.836 5.35218C228.931 5.57426 228.964 5.80779 228.937 6.05278C228.933 6.29809 228.856 6.5547 228.706 6.82259C228.379 7.40713 227.988 8.1871 227.534 9.16251C227.104 10.1137 226.661 11.1629 226.204 12.31C225.772 13.4575 225.364 14.593 224.981 15.7165C224.599 16.8401 224.279 17.8296 224.022 18.6849C223.868 19.2227 223.736 19.9079 223.627 20.7407C223.542 21.5738 223.47 22.4315 223.409 23.314C223.373 24.1723 223.363 24.945 223.378 25.6322C223.394 26.2949 223.425 26.7247 223.472 26.9216C223.612 27.4141 223.607 27.7821 223.457 28.0255C223.307 28.2688 223.096 28.4255 222.825 28.4956C222.554 28.5901 222.283 28.6479 222.013 28.6688ZM216.001 24.1362C216.346 24.018 216.654 23.8749 216.926 23.7068C217.198 23.5386 217.52 23.322 217.892 23.0571C218.635 22.5026 219.169 22.0189 219.494 21.6061C219.842 21.1936 220.119 20.682 220.323 20.0714C220.451 19.705 220.455 19.3861 220.336 19.1146C220.242 18.8435 220.061 18.5835 219.794 18.3346C219.527 18.1103 219.185 18.0199 218.767 18.0634C218.35 18.0824 217.868 18.3337 217.322 18.8172C216.726 19.3491 216.215 19.968 215.789 20.6739C215.362 21.3798 215.005 22.3933 214.718 23.7144C214.666 23.959 214.749 24.1319 214.969 24.2329C215.188 24.334 215.532 24.3017 216.001 24.1362Z" fill="#E1FA7F"/>
<path d="M227.889 27.7896C227.57 27.7854 227.313 27.7207 227.119 27.5954C226.949 27.4705 226.73 27.2959 226.463 27.0715C226.004 26.5747 225.63 26.0423 225.344 25.4742C225.081 24.9064 224.99 24.4145 225.069 23.9984C225.145 23.8031 225.172 23.6195 225.15 23.4474C225.152 23.2512 225.153 23.1531 225.153 23.1531C225.032 23.0288 224.997 22.9547 225.046 22.9308C225.096 22.8824 225.146 22.8095 225.196 22.712C225.343 22.7139 225.394 22.5797 225.349 22.3092C225.302 22.1123 225.381 21.6962 225.586 21.061C225.815 20.4016 226.118 19.7799 226.494 19.196C226.644 18.9527 226.869 18.6367 227.169 18.2481C227.469 17.8349 227.793 17.4344 228.142 17.0464C228.515 16.6343 228.851 16.3075 229.148 16.0661C229.768 15.559 230.338 15.1494 230.857 14.8373C231.401 14.5256 231.944 14.3119 232.485 14.1964C233.027 14.0809 233.579 14.0268 234.144 14.0343C234.732 14.0421 235.208 14.2447 235.571 14.642C236.132 14.8948 236.52 15.2312 236.735 15.6511C236.975 16.0714 237.127 16.6132 237.192 17.2765C237.256 18.0134 237.17 18.9201 236.935 19.9965C236.701 21.0484 236.083 22.2671 235.084 23.6524C234.459 24.5274 233.849 25.2063 233.253 25.6892C232.658 26.172 232.002 26.6172 231.285 27.0249C230.765 27.3615 230.211 27.5627 229.621 27.6285C229.031 27.6943 228.454 27.748 227.889 27.7896ZM231.702 23.35C232.248 22.8911 232.635 22.381 232.863 21.8197C233.116 21.2587 233.382 20.5997 233.662 19.8428C233.762 19.697 233.827 19.4525 233.856 19.1093C233.909 18.7666 233.926 18.4355 233.906 18.1163C233.886 17.7726 233.802 17.5752 233.656 17.5242C233.437 17.3495 233.217 17.3098 232.995 17.405C232.773 17.4757 232.489 17.6314 232.142 17.8722C231.398 18.4757 230.702 19.1781 230.053 19.9792C229.43 20.756 228.988 21.7194 228.727 22.8691C228.645 23.4814 228.701 23.9483 228.893 24.2698C229.109 24.5671 229.452 24.6575 229.919 24.541C230.412 24.4003 231.006 24.0033 231.702 23.35Z" fill="#E1FA7F"/>
</svg>
