<svg width="24" height="24" viewBox="0 0 24 24" fill="none" xmlns="http://www.w3.org/2000/svg">
<path d="M15.91 13.34L18.546 9.314L18.092 8.908L14.419 12.007C13.744 11.869 13.017 12.075 12.525 12.625C12.1716 13.0206 11.9898 13.5403 12.0196 14.0699C12.0494 14.5995 12.2884 15.0956 12.684 15.449C13.0796 15.8024 13.5993 15.9842 14.1289 15.9544C14.6585 15.9246 15.1546 15.6856 15.508 15.29C15.7404 15.0289 15.8998 14.7112 15.9704 14.3689C16.041 14.0266 16.0201 13.6717 15.91 13.34V13.34ZM12 2.694V0H16V2.694C14.561 2.451 13.408 2.456 12 2.694ZM20.851 4.758L22.258 3.351L23.672 4.765L22.351 6.086C21.8887 5.60246 21.387 5.15826 20.851 4.758ZM2 9H10V11H2V9ZM0 13H8V15H0V13ZM3 17H10V19H3V17ZM24 14C24 15.3132 23.7413 16.6136 23.2388 17.8268C22.7362 19.0401 21.9997 20.1425 21.0711 21.0711C20.1425 21.9997 19.0401 22.7362 17.8268 23.2388C16.6136 23.7413 15.3132 24 14 24C12.6745 23.9999 11.3624 23.7344 10.1411 23.2191C8.91983 22.7039 7.81406 21.9494 6.889 21H10.169C11.3399 21.6544 12.6586 21.9986 14 22C16.1209 21.9974 18.1542 21.1536 19.6539 19.6539C21.1536 18.1542 21.9974 16.1209 22 14C21.9974 11.8791 21.1536 9.84579 19.6539 8.34607C18.1542 6.84635 16.1209 6.00265 14 6C12.6586 6.00141 11.3399 6.34564 10.169 7H6.889C7.81406 6.05065 8.91983 5.29611 10.1411 4.78088C11.3624 4.26564 12.6745 4.00013 14 4C15.3132 4 16.6136 4.25866 17.8268 4.7612C19.0401 5.26375 20.1425 6.00035 21.0711 6.92893C21.9997 7.85752 22.7362 8.95991 23.2388 10.1732C23.7413 11.3864 24 12.6868 24 14V14Z" fill="#6C18CD"/>
</svg>
