<svg width="19" height="20" viewBox="0 0 19 20" fill="none" xmlns="http://www.w3.org/2000/svg">
<path d="M17.2566 3.155L14.2083 5.92V5C14.2083 2.23917 11.9691 0 9.20829 0C6.44746 0 4.20829 2.23917 4.20829 5V8.33333H1.70829V17.2558L0.041626 18.7667L1.16329 20L18.375 4.38833L17.2566 3.155V3.155ZM3.37496 15.7442V10H9.72913L3.37496 15.7442ZM12.5416 7.43167L11.5466 8.33333H5.87496V5C5.87496 3.1625 7.37079 1.66667 9.20829 1.66667C11.0458 1.66667 12.5416 3.1625 12.5416 5V7.43167V7.43167ZM16.7083 8.33333V20H3.04913L4.88579 18.3333H15.0416V10H14.0616L15.8875 8.33333H16.7083V8.33333Z" fill="#473CF0"/>
</svg>
