<svg width="123" height="115" viewBox="0 0 123 115" fill="none" xmlns="http://www.w3.org/2000/svg">
<g clip-path="url(#clip0_905_5)">
<path fill-rule="evenodd" clip-rule="evenodd" d="M9.32 0H113.56C118.69 0 122.88 4.2 122.88 9.32V82.94C122.88 88.05 118.67 92.26 113.56 92.26H83.84L67.67 111.32C64.09 115.55 58.22 115.36 54.86 111.32L39.04 92.26H9.32C4.21 92.26 0 88.07 0 82.94V9.32C0 4.19 4.19 0 9.32 0Z" fill="black"/>
<path fill-rule="evenodd" clip-rule="evenodd" d="M64.4687 33.88C67.9987 30.2 70.4687 27.71 75.8987 27.09C86.0987 25.92 96.1687 36.36 91.0187 46.65C89.1187 50.44 82.5287 56.81 77.2587 61.8C75.2487 63.7 73.4287 65.41 72.1387 66.69L64.4787 74.29L58.1487 68.2C56.2387 66.37 53.9887 64.41 51.6887 62.33C44.7687 56.1 37.3187 48.76 37.0087 40.19C36.7187 32.18 43.7287 27.04 51.0087 27.13C57.4687 27.22 60.1887 29.71 64.4687 33.88Z" fill="#EA1C27"/>
<path fill-rule="evenodd" clip-rule="evenodd" d="M57.4687 26.88C60.9987 23.2 63.4687 20.71 68.8987 20.09C79.0987 18.92 89.1687 29.36 84.0187 39.65C82.1187 43.44 75.5287 49.81 70.2587 54.8C68.2487 56.7 66.4287 58.41 65.1387 59.69L57.4787 67.29L51.1487 61.2C49.2387 59.37 46.9887 57.41 44.6887 55.33C37.7687 49.1 30.3187 41.76 30.0087 33.19C29.7187 25.18 36.7287 20.04 44.0087 20.13C50.4687 20.22 53.1887 22.71 57.4687 26.88Z" fill="#02FFFE"/>
<path fill-rule="evenodd" clip-rule="evenodd" d="M61.2001 30.42C64.7301 26.74 67.2001 24.25 72.6301 23.63C82.8301 22.46 92.9001 32.9 87.7501 43.19C85.8501 46.98 79.2601 53.35 73.9901 58.34C71.9801 60.24 70.1601 61.95 68.8701 63.23L61.2101 70.83L54.8801 64.74C52.9701 62.91 50.7201 60.95 48.4201 58.87C41.5001 52.64 34.0501 45.3 33.7401 36.73C33.4501 28.72 40.4601 23.58 47.7401 23.67C54.2001 23.76 56.9201 26.25 61.2001 30.42Z" fill="white"/>
</g>
<defs>
<clipPath id="clip0_905_5">
<rect width="122.88" height="114.42" fill="white"/>
</clipPath>
</defs>
</svg>
