<svg width="72" height="72" viewBox="0 0 72 72" fill="none" xmlns="http://www.w3.org/2000/svg">
<mask id="mask0" style="mask-type:alpha" maskUnits="userSpaceOnUse" x="0" y="0" width="72" height="72">
<circle cx="36" cy="36" r="36" fill="#D3F8D3"/>
</mask>
<g mask="url(#mask0)">
<path d="M36 72C55.8823 72 72 55.8823 72 36C72 16.1178 55.8823 0 36 0C16.1178 0 0 16.1178 0 36C0 55.8823 16.1178 72 36 72Z" fill="#DEDEDE"/>
<path d="M36 41.7857C44.1659 41.7857 50.7857 35.1659 50.7857 27C50.7857 18.8341 44.1659 12.2143 36 12.2143C27.8341 12.2143 21.2143 18.8341 21.2143 27C21.2143 35.1659 27.8341 41.7857 36 41.7857Z" fill="white"/>
<path d="M36 94.5C50.5566 94.5 62.3571 82.6995 62.3571 68.1429C62.3571 53.5862 50.5566 41.7857 36 41.7857C21.4434 41.7857 9.64286 53.5862 9.64286 68.1429C9.64286 82.6995 21.4434 94.5 36 94.5Z" fill="white"/>
</g>
</svg>
