<svg width="72" height="72" viewBox="0 0 72 72" fill="none" xmlns="http://www.w3.org/2000/svg">
<circle cx="36" cy="36" r="36" fill="#D5F0C0"/>
<path d="M16 58L19.1076 46.7012C17.19 43.3938 16.1824 39.6447 16.1842 35.8002C16.1897 23.7808 26.0172 14 38.0921 14C43.9518 14.0018 49.4522 16.2733 53.5895 20.3947C57.725 24.516 60.0018 29.994 60 35.8203C59.9945 47.8415 50.167 57.6223 38.0921 57.6223C34.4264 57.6205 30.814 56.7057 27.6143 54.9677L16 58V58ZM28.1522 51.0205C31.2396 52.8447 34.1869 53.9373 38.0847 53.9392C48.1204 53.9392 56.2956 45.8102 56.3011 35.8167C56.3048 25.803 48.1683 17.685 38.0995 17.6813C28.0564 17.6813 19.8868 25.8103 19.8831 35.802C19.8813 39.8812 21.0823 42.9355 23.0994 46.131L21.2591 52.819L28.1522 51.0205V51.0205ZM49.128 41.0032C48.9917 40.7758 48.627 40.6402 48.078 40.367C47.5309 40.0938 44.8397 38.7757 44.3368 38.5942C43.8357 38.4127 43.471 38.321 43.1044 38.8673C42.7397 39.4118 41.6897 40.6402 41.371 41.0032C41.0523 41.3662 40.7318 41.412 40.1847 41.1388C39.6376 40.8657 37.8729 40.2918 35.7821 38.4347C34.1556 36.99 33.0558 35.2062 32.7372 34.6598C32.4185 34.1153 32.704 33.8202 32.9766 33.5488C33.2235 33.305 33.5237 32.9127 33.7982 32.5937C34.0764 32.2783 34.1666 32.051 34.3508 31.6862C34.5332 31.3232 34.4429 31.0042 34.3048 30.731C34.1666 30.4597 33.0724 27.7775 32.6174 26.6867C32.1716 25.6252 31.7203 25.7682 31.3851 25.7517L30.3351 25.7333C29.9704 25.7333 29.3772 25.869 28.8762 26.4153C28.3751 26.9617 26.9604 28.278 26.9604 30.9602C26.9604 33.6423 28.9222 36.2328 29.1948 36.5958C29.4693 36.9588 33.054 42.4625 38.5453 44.822C39.8513 45.383 40.8718 45.7185 41.6657 45.9697C42.9773 46.384 44.171 46.3253 45.1141 46.186C46.166 46.0302 48.3525 44.8678 48.8093 43.5955C49.2662 42.3213 49.2662 41.2305 49.128 41.0032V41.0032Z" fill="#40CC63"/>
</svg>
